<svg xmlns="http://www.w3.org/2000/svg" xmlns:xlink="http://www.w3.org/1999/xlink" version="1.1" x="0px" y="0px" viewBox="0 0 100 125" style="enable-background:new 0 0 100 100;" xml:space="preserve"><path d="M59.506,51.029h-0.544v-4.471c0-0.051-0.022-0.095-0.029-0.143c4.458-3.056,7.416-8.286,7.448-14.228  c1.185-6.136,0.513-10.775-1.997-13.79c-2.246-2.698-5.275-3.229-6.476-3.333c-4.783-5.92-10.333-5.695-14.181-4.436  c-6.067,1.984-11.914,8.103-11.952,9.69c-0.007,0.265,0.092,0.521,0.275,0.713c1.345,1.415,1.538,6.523,1.34,10.069  c-0.002,0.052-0.015,0.105-0.008,0.156c-0.017,0.288-0.036,0.569-0.058,0.832c0,6.06,3.049,11.383,7.629,14.438  c0,0.011-0.006,0.02-0.006,0.031v4.471H40.5c-11.832,0-21.458,10.646-21.458,23.733v14.233c0,0.552,0.448,1,1,1h59.915  c0.552,0,1-0.448,1-1V74.753C80.958,61.671,71.334,51.029,59.506,51.029z M46.52,12.013c3.891-0.562,7.287,0.995,10.091,4.637  c0.189,0.246,0.486,0.39,0.797,0.39c0,0,0.001,0,0.002,0c-0.007-0.01,3.257-0.002,5.455,2.66c1.452,1.758,2.128,4.275,2.063,7.479  c-2.692-5.718-7.638-7.395-7.895-7.479c-0.28-0.092-0.588-0.053-0.838,0.103c-0.25,0.156-0.419,0.415-0.46,0.708  c-0.001,0.005-0.131,0.555-0.852,1.074c-1.03,0.742-3.252,1.444-7.986,0.577c-5.921-1.078-9.504,2.006-11.473,4.794  c-0.104-2.452-0.472-5.164-1.491-6.742C35.071,18.492,40.581,12.875,46.52,12.013z M35.32,32.174  c0.012-0.146,0.037-0.475,0.063-0.912c0.428-1.245,3.305-8.574,11.154-7.133c4.359,0.797,7.559,0.486,9.515-0.921  c0.567-0.409,0.944-0.852,1.192-1.247c1.813,0.9,6.057,3.67,7.134,10.203c-0.039,8.325-6.538,15.086-14.525,15.086  C41.841,47.25,35.324,40.449,35.32,32.174z M49.852,49.25c2.547,0,4.952-0.619,7.109-1.692v3.908l-0.3,0.182  c-4.112,2.497-9.228,2.509-13.351,0.034l-0.365-0.219V47.66C45.051,48.67,47.385,49.25,49.852,49.25z M78.958,87.995H67.599v-6.25  c0-0.552-0.448-1-1-1s-1,0.448-1,1v6.25H34.174v-6.25c0-0.552-0.448-1-1-1s-1,0.448-1,1v6.25H21.042V74.762  c0-13.424,10.1-21.733,19.458-21.733h1.169l0.612,0.368c2.37,1.423,5.024,2.134,7.677,2.134c2.678,0,5.356-0.725,7.741-2.173  l0.542-0.329h1.264c9.355,0,19.452,8.306,19.452,21.725V87.995z"/><path d="M68.049,63.373H57.235c-0.552,0-1,0.448-1,1v5.802c0,0.552,0.448,1,1,1h10.813c0.552,0,1-0.448,1-1v-5.802  C69.049,63.82,68.601,63.373,68.049,63.373z M67.049,69.175h-8.813v-3.802h8.813V69.175z"/></svg>