<svg xmlns="http://www.w3.org/2000/svg" xmlns:xlink="http://www.w3.org/1999/xlink" version="1.1" x="0px" y="0px" viewBox="0 0 100 125" style="enable-background:new 0 0 100 100;" xml:space="preserve"><path d="M59.498,50.089h-0.543v-6.66c0-0.079-0.028-0.149-0.045-0.222c5.123-3.123,8.568-8.801,8.568-15.293  c0-9.842-7.892-17.849-17.592-17.849c-9.7,0-17.591,8.007-17.591,17.849c0,6.543,3.499,12.26,8.688,15.367  c-0.008,0.051-0.03,0.096-0.03,0.149v6.66h-0.444c-11.823,0-21.441,10.907-21.441,24.314V89c0,0.553,0.448,1,1,1h59.865  c0.552,0,1-0.447,1-1V74.395C80.933,60.992,71.317,50.089,59.498,50.089z M65.417,26.688c-6.181-1.336-9.366-4.803-10.449-6.244  c1.749-1.162,3.534-2.549,5.324-4.22c0.015-0.014,0.02-0.033,0.034-0.048C63.201,18.82,65.102,22.527,65.417,26.688z M49.886,12.064  c3.3,0,6.359,1.055,8.882,2.84c-11.238,10.374-22.406,9.244-23.955,9.026C36.558,17.116,42.644,12.064,49.886,12.064z   M34.295,27.913c0-0.684,0.057-1.354,0.14-2.016c0.405,0.066,1.433,0.204,2.951,0.204c3.43,0,9.311-0.718,15.876-4.589  c1.22,1.692,4.868,5.789,12.174,7.22c-0.424,8.357-7.226,15.029-15.551,15.029C41.289,43.762,34.295,36.652,34.295,27.913z   M49.886,45.762c2.515,0,4.903-0.547,7.068-1.516v6.289l-0.309,0.192c-4.103,2.557-9.206,2.571-13.319,0.034l-0.374-0.23v-6.219  C45.082,45.242,47.425,45.762,49.886,45.762z M78.933,88H21.067V74.403c0-13.783,10.091-22.314,19.441-22.314h1.16l0.608,0.375  c2.372,1.462,5.026,2.192,7.681,2.192c2.68,0,5.359-0.744,7.746-2.232l0.537-0.335h1.257c9.347,0,19.435,8.528,19.435,22.306V88z"/></svg>