<svg xmlns="http://www.w3.org/2000/svg" xmlns:xlink="http://www.w3.org/1999/xlink" version="1.1" x="0px" y="0px" viewBox="0 0 100 125" style="enable-background:new 0 0 100 100;" xml:space="preserve"><path d="M65.37,54.474l0.101-0.181c0.232-0.419,0.135-0.942-0.23-1.25l-4.11-3.46c-0.208-0.177-0.481-0.258-0.751-0.229  c-0.271,0.029-0.519,0.168-0.685,0.385l-0.609,0.792v-4.214c4.375-3.07,7.266-8.254,7.297-14.13  c1.185-6.136,0.513-10.774-1.997-13.789c-2.246-2.697-5.275-3.229-6.476-3.333c-4.784-5.919-10.333-5.694-14.181-4.436  c-6.067,1.984-11.914,8.104-11.952,9.69c-0.007,0.265,0.092,0.521,0.275,0.714c1.345,1.415,1.538,6.522,1.34,10.068  c-0.002,0.052-0.015,0.105-0.008,0.156c-0.017,0.288-0.036,0.569-0.058,0.831c0,6.13,3.121,11.504,7.791,14.54v3.966l-0.659-0.857  c-0.167-0.217-0.414-0.355-0.685-0.385c-0.268-0.027-0.542,0.053-0.751,0.229l-4.11,3.46c-0.366,0.308-0.462,0.831-0.23,1.25  l0.097,0.174c-8.627,0.344-15.555,8.243-15.555,17.928V89c0,0.553,0.448,1,1,1h59.582c0.552,0,1-0.447,1-1V72.396  C80.801,62.756,73.939,54.888,65.37,54.474z M60.641,51.785l2.681,2.258l-7.087,12.782l-4.356-3.651L60.641,51.785z M46.52,12.014  c3.89-0.563,7.288,0.995,10.092,4.637c0.189,0.246,0.486,0.39,0.797,0.39c0.001,0,0.001,0,0.002,0h0c0.044,0,3.28,0.026,5.455,2.66  c1.451,1.758,2.128,4.274,2.063,7.478c-2.692-5.718-7.638-7.395-7.895-7.479c-0.28-0.092-0.588-0.053-0.838,0.103  c-0.25,0.156-0.419,0.415-0.46,0.707c-0.001,0.006-0.132,0.557-0.853,1.075c-1.029,0.743-3.252,1.445-7.985,0.577  c-5.922-1.081-9.504,2.003-11.473,4.791c-0.104-2.452-0.473-5.162-1.491-6.739C35.07,18.492,40.58,12.876,46.52,12.014z   M35.32,32.174c0.012-0.146,0.037-0.475,0.063-0.912c0.428-1.243,3.305-8.565,11.154-7.133c4.357,0.8,7.558,0.487,9.514-0.921  c0.568-0.409,0.944-0.853,1.192-1.247c1.813,0.9,6.057,3.671,7.134,10.203c-0.039,8.326-6.538,15.087-14.525,15.087  C41.841,47.25,35.324,40.449,35.32,32.174z M43.114,47.744c2.06,0.96,4.337,1.506,6.738,1.506c2.595,0,5.044-0.641,7.231-1.753  v5.633l-7.009,9.11l-6.96-9.045V47.744z M39.507,51.785l8.763,11.389l-4.357,3.651l-7.087-12.782L39.507,51.785z M21.219,72.396  c0-8.801,6.341-15.961,14.135-15.961h0.511l6.887,12.421c0.145,0.261,0.398,0.443,0.692,0.498c0.061,0.011,0.122,0.017,0.183,0.017  c0.233,0,0.461-0.081,0.642-0.233l4.697-3.937V88H34.174v-6.256c0-0.553-0.448-1-1-1s-1,0.447-1,1V88H21.219V72.396z M78.801,88  H67.599v-6.256c0-0.553-0.448-1-1-1s-1,0.447-1,1V88H50.966V65.019l4.913,4.118c0.182,0.152,0.41,0.233,0.643,0.233  c0.061,0,0.122-0.006,0.183-0.017c0.293-0.055,0.547-0.237,0.692-0.498l6.887-12.421h0.384c7.794,0,14.135,7.16,14.135,15.961V88z"/></svg>