<svg xmlns="http://www.w3.org/2000/svg" xmlns:xlink="http://www.w3.org/1999/xlink" version="1.1" x="0px" y="0px" viewBox="0 0 100 125" style="enable-background:new 0 0 100 100;" xml:space="preserve"><path d="M19.219,69.396V89c0,0.553,0.447,1,1,1h59.583c0.553,0,1-0.447,1-1V69.396c0-9.639-6.862-17.506-15.432-17.921l0.101-0.181  c0.231-0.419,0.135-0.942-0.231-1.25l-4.11-3.46c-0.209-0.177-0.481-0.261-0.751-0.229c-0.271,0.029-0.519,0.168-0.686,0.385  l-0.609,0.792V43.1c5.027-3.145,8.396-8.767,8.396-15.187c0-9.842-7.892-17.849-17.592-17.849s-17.592,8.007-17.592,17.849  c0,6.599,3.557,12.36,8.819,15.448v4.233l-0.658-0.855c-0.167-0.217-0.414-0.355-0.686-0.385c-0.271-0.032-0.543,0.052-0.751,0.229  l-4.11,3.46c-0.366,0.308-0.463,0.831-0.231,1.25l0.097,0.174C26.147,51.811,19.219,59.71,19.219,69.396z M60.641,48.785  l2.682,2.258l-7.088,12.782l-4.356-3.651L60.641,48.785z M65.417,26.688c-6.183-1.336-9.367-4.804-10.45-6.244  c1.749-1.162,3.533-2.55,5.324-4.22c0.015-0.014,0.021-0.033,0.035-0.048C63.201,18.82,65.102,22.527,65.417,26.688z M49.887,12.064  c3.3,0,6.359,1.055,8.882,2.84C47.53,25.279,36.358,24.15,34.813,23.931C36.557,17.117,42.644,12.064,49.887,12.064z M34.295,27.913  c0-0.684,0.057-1.354,0.14-2.015c0.405,0.066,1.433,0.204,2.951,0.204c3.43,0,9.311-0.718,15.876-4.589  c1.219,1.692,4.867,5.789,12.175,7.221c-0.424,8.357-7.225,15.029-15.551,15.029C41.289,43.762,34.295,36.652,34.295,27.913z   M43.114,44.382c2.086,0.886,4.373,1.379,6.772,1.379c2.565,0,4.997-0.573,7.196-1.579v5.947l-7.009,9.109l-6.96-9.046V44.382z   M39.508,48.785l8.763,11.389l-4.356,3.651l-7.088-12.782L39.508,48.785z M35.354,53.435h0.511l6.887,12.421  c0.146,0.261,0.399,0.443,0.692,0.498c0.061,0.011,0.122,0.017,0.183,0.017c0.233,0,0.461-0.081,0.643-0.233l5.805-4.865  l5.805,4.865c0.182,0.152,0.409,0.233,0.643,0.233c0.061,0,0.122-0.006,0.183-0.017c0.293-0.055,0.547-0.237,0.692-0.498  l6.887-12.421h0.383c7.795,0,14.136,7.16,14.136,15.961V88H67.599v-6.256c0-0.553-0.447-1-1-1s-1,0.447-1,1V88H34.174v-6.256  c0-0.553-0.447-1-1-1s-1,0.447-1,1V88H21.219V69.396C21.219,60.595,27.56,53.435,35.354,53.435z"/></svg>