<svg xmlns="http://www.w3.org/2000/svg" xmlns:xlink="http://www.w3.org/1999/xlink" version="1.1" x="0px" y="0px" viewBox="0 0 100 125" style="enable-background:new 0 0 100 100;" xml:space="preserve"><path d="M65.37,54.474l0.101-0.181c0.231-0.419,0.135-0.942-0.231-1.25l-4.11-3.46c-0.209-0.177-0.479-0.26-0.751-0.229  c-0.271,0.029-0.519,0.168-0.686,0.385l-0.609,0.792v-4.214c4.375-3.07,7.266-8.255,7.298-14.13  c1.185-6.136,0.513-10.774-1.997-13.789c-2.246-2.697-5.275-3.229-6.477-3.333c-4.783-5.919-10.333-5.695-14.18-4.436  c-6.067,1.984-11.913,8.104-11.952,9.69c-0.006,0.265,0.093,0.521,0.275,0.714c1.348,1.417,1.538,6.542,1.338,10.089  c0,0.044-0.012,0.089-0.007,0.132c-0.017,0.289-0.036,0.57-0.058,0.834c0,6.13,3.122,11.504,7.791,14.54v3.965l-0.658-0.855  c-0.167-0.217-0.414-0.355-0.686-0.385c-0.272-0.03-0.543,0.053-0.751,0.229l-4.11,3.46c-0.366,0.308-0.463,0.831-0.231,1.25  l0.097,0.174c-8.628,0.344-15.556,8.243-15.556,17.928V89c0,0.553,0.447,1,1,1h59.583c0.553,0,1-0.447,1-1V72.396  C80.802,62.757,73.94,54.889,65.37,54.474z M60.641,51.785l2.682,2.258l-7.088,12.782l-4.356-3.651L60.641,51.785z M46.52,12.014  c3.886-0.563,7.287,0.994,10.092,4.637c0.189,0.246,0.481,0.39,0.792,0.39c0.006,0,0.011-0.001,0.014,0  c0.113,0,3.259,0.03,5.43,2.638c1.465,1.758,2.148,4.283,2.082,7.501c-2.692-5.718-7.638-7.396-7.896-7.479  c-0.281-0.093-0.588-0.053-0.838,0.103c-0.25,0.156-0.419,0.415-0.461,0.707c0,0.006-0.131,0.557-0.853,1.075  c-1.028,0.743-3.25,1.445-7.985,0.577c-5.919-1.083-9.502,2.005-11.472,4.795c-0.104-2.453-0.472-5.165-1.49-6.743  C35.07,18.492,40.58,12.876,46.52,12.014z M35.319,32.174c0.012-0.146,0.037-0.473,0.063-0.909  c0.421-1.234,3.273-8.575,11.155-7.137c4.354,0.8,7.558,0.487,9.514-0.921c0.57-0.411,0.948-0.856,1.196-1.253  c1.821,0.889,6.046,3.627,7.13,10.209c-0.039,8.326-6.538,15.087-14.525,15.087C41.841,47.25,35.323,40.449,35.319,32.174z   M43.114,47.744c2.061,0.96,4.337,1.506,6.738,1.506c2.595,0,5.043-0.641,7.23-1.753v5.632l-7.009,9.109l-6.96-9.046V47.744z   M39.508,51.785l8.763,11.389l-4.356,3.651l-7.088-12.782L39.508,51.785z M78.802,88H67.599v-6.256c0-0.553-0.447-1-1-1  s-1,0.447-1,1V88H34.174v-6.256c0-0.553-0.447-1-1-1s-1,0.447-1,1V88H21.219V72.396c0-8.801,6.341-15.961,14.136-15.961h0.511  l6.887,12.421c0.146,0.261,0.399,0.443,0.692,0.498c0.061,0.011,0.122,0.017,0.183,0.017c0.233,0,0.461-0.081,0.643-0.233  l5.805-4.865l5.805,4.865c0.182,0.152,0.409,0.233,0.643,0.233c0.061,0,0.122-0.006,0.183-0.017  c0.293-0.055,0.547-0.237,0.692-0.498l6.887-12.421h0.383c7.795,0,14.136,7.16,14.136,15.961V88z"/></svg>