<svg xmlns="http://www.w3.org/2000/svg" xmlns:xlink="http://www.w3.org/1999/xlink" version="1.1" x="0px" y="0px" viewBox="0 0 100 125" style="enable-background:new 0 0 100 100;" xml:space="preserve"><path d="M59.187,51.333h-0.225v-4.775c0-0.051-0.022-0.094-0.029-0.143c4.458-3.056,7.416-8.286,7.448-14.228  c1.185-6.136,0.513-10.774-1.997-13.789c-2.246-2.697-5.275-3.229-6.476-3.333c-4.784-5.919-10.333-5.694-14.181-4.436  c-6.067,1.984-11.914,8.104-11.952,9.69c-0.007,0.265,0.092,0.521,0.275,0.714c1.345,1.415,1.538,6.522,1.34,10.068  c-0.002,0.052-0.015,0.105-0.008,0.156c-0.017,0.288-0.036,0.569-0.058,0.831c0,6.06,3.049,11.384,7.629,14.438  c0,0.011-0.006,0.02-0.006,0.031v4.775H40.82c-11.453,0-20.771,10.563-20.771,23.549V89c0,0.553,0.448,1,1,1h57.901  c0.552,0,1-0.447,1-1V74.874C79.951,61.894,70.636,51.333,59.187,51.333z M46.52,12.014c3.89-0.562,7.288,0.994,10.092,4.637  c0.189,0.246,0.486,0.39,0.797,0.39c0.001,0,0.001,0,0.002,0h0c0.044,0,3.28,0.026,5.455,2.66c1.451,1.758,2.128,4.274,2.063,7.478  c-2.692-5.718-7.638-7.395-7.895-7.479c-0.28-0.093-0.588-0.053-0.838,0.103c-0.25,0.156-0.419,0.415-0.46,0.707  c-0.001,0.006-0.132,0.557-0.853,1.075c-1.029,0.742-3.252,1.444-7.985,0.577c-5.922-1.083-9.504,2.001-11.473,4.79  c-0.104-2.452-0.473-5.161-1.491-6.738C35.07,18.492,40.58,12.876,46.52,12.014z M35.32,32.174c0.012-0.146,0.037-0.475,0.063-0.912  c0.428-1.243,3.305-8.561,11.154-7.133c4.357,0.8,7.558,0.487,9.514-0.921c0.568-0.409,0.944-0.853,1.192-1.247  c1.813,0.9,6.057,3.671,7.134,10.203c-0.039,8.326-6.538,15.087-14.525,15.087C41.841,47.25,35.324,40.449,35.32,32.174z   M49.852,49.25c2.547,0,4.952-0.619,7.109-1.692v3.909l-0.3,0.182c-4.111,2.496-9.228,2.51-13.351,0.033l-0.364-0.219V47.66  C45.051,48.67,47.385,49.25,49.852,49.25z M40.82,53.333h1.356l0.106,0.063c2.371,1.424,5.024,2.135,7.678,2.135  c2.678,0,5.356-0.725,7.74-2.173l0.042-0.025h1.446c5.557,0,10.543,2.804,13.981,7.225H26.836  C30.276,56.137,35.262,53.333,40.82,53.333z M22.049,74.882c0-1.124,0.098-2.22,0.244-3.299h55.415  c0.145,1.076,0.243,2.169,0.243,3.291v3.735H22.049V74.882z M22.647,69.583c0.565-2.553,1.517-4.926,2.798-7.025h49.114  c1.28,2.099,2.231,4.473,2.796,7.025H22.647z M22.049,88v-7.391h55.901V88H22.049z"/></svg>