<?xml version="1.0" encoding="UTF-8"?>
<!DOCTYPE svg PUBLIC "-//W3C//DTD SVG 1.1//EN" "http://www.w3.org/Graphics/SVG/1.1/DTD/svg11.dtd">
<!-- Creator: CorelDRAW -->
<svg xmlns="http://www.w3.org/2000/svg" xml:space="preserve" width="64mm" height="214mm" style="shape-rendering:geometricPrecision; text-rendering:geometricPrecision; image-rendering:optimizeQuality; fill-rule:evenodd; clip-rule:evenodd"
viewBox="0 0 64 214"
 xmlns:xlink="http://www.w3.org/1999/xlink">
 <defs>
  <style type="text/css">
   <![CDATA[
    .fil2 {fill:#DB7D7D}
    .fil1 {fill:#F49992}
    .fil0 {fill:#FFCC99}
   ]]>
  </style>
 </defs>
 <g id="Layer_x0020_1">
  <metadata id="CorelCorpID_0Corel-Layer"/>
  <path class="fil0" d="M62.3713 118.035c0.0917,-0.0674 -2.5577,-11.7941 -5.2811,-24.6899 -1.4464,-6.839 -3.1151,-14.116 -3.1433,-14.1054 -2.3036,-9.579 -4.1416,-16.5563 -8.1527,-20.6326 -0.5221,-0.5335 -1.3123,-1.0873 -2.2084,-1.6094 0.0002,0 -0.6667,-0.2688 -1.6051,-0.6442 0.0035,-0.0024 0.0035,-0.0049 0.0035,-0.0074 -0.5431,-0.217 -1.1712,-0.4695 -1.8132,-0.7263 -0.0212,-0.042 -2.4519,-1.0217 -2.4201,-0.9635 -0.9701,-0.3839 -1.6757,-0.659 -1.7039,-0.6568l0 -4.8706c5.7892,-1.5109 10.234,-5.137 11.9767,-10.6943 2.3955,-0.1981 4.4415,-1.9026 4.8896,-4.2983 0.5009,-2.6889 -1.1924,-5.2941 -3.8418,-6.0963 0.0848,-1.0367 0.1552,-2.0091 0.1976,-2.853 0.2329,-4.5354 -0.1552,-9.2713 -3.0904,-13.0305 -2.9314,-3.7569 -6.2865,-6.4149 -14.4074,-6.4149 -8.1243,0 -11.4759,2.6582 -14.4075,6.4149 -2.935,3.7592 -3.3245,8.4952 -3.0931,13.0305 0.0428,0.8438 0.1146,1.8165 0.2004,2.853 -2.6526,0.8017 -4.3434,3.4074 -3.8418,6.0963 0.4467,2.3956 2.4927,4.1 4.886,4.2975 1.7745,5.6447 6.3288,9.2993 12.2484,10.7665l0.0001 4.7991c-0.0246,-0.0021 -3.7748,1.4814 -3.8242,1.5015 0.0001,0.002 0,0.0046 0.0036,0.0067 -1.8696,0.7464 -3.7148,1.4901 -3.7148,1.4901 -0.8994,0.5221 -1.6863,1.076 -2.2119,1.6094 -4.0096,4.0763 -5.8466,11.0536 -8.1513,20.6326 -0.0281,-0.0107 -1.6972,7.2665 -3.1422,14.1054 -2.7245,12.8957 -5.3724,24.6225 -5.2832,24.6899 -0.0994,1.8065 -0.5838,5.5305 0.4085,8.2356 1.2806,3.4882 4.1071,7.2104 5.1852,4.821 0.3722,-0.8265 -0.4435,-6.2029 0.696,-7.125 0.3237,-0.2593 0.6233,-0.423 0.8826,-0.4184 0.337,0.0059 0.1221,3.2134 0.1856,3.5412 0.2131,1.1083 1.9692,0.9641 2.0761,-0.2424l0.4339 -4.9519c0.0753,-0.7476 0.0744,-1.8295 -0.4808,-2.4264 -0.5738,-0.6185 -1.4669,-0.5313 -1.5455,-1.6126 -0.116,-1.6077 1.277,-6.3704 1.664,-8.0617 3.2439,-14.1697 6.1609,-23.1873 7.6638,-34.1503 0.6986,1.4129 1.8273,2.606 3.2878,3.0773l0.247 1.6273c0.1129,2.3834 -0.0706,8.0152 -2.1273,15.9093 -0.3244,1.2431 -2.5999,8.6014 -4.0534,14.2829 0.0002,0 -1.0019,4.4168 -1.0301,4.5794 -0.6904,3.908 -1.173,10.287 -0.5729,17.1112 0.6435,17.8427 5.5788,50.4218 6.7853,65.375 0.494,6.1034 0.4939,8.4603 0.4939,8.4603 0.0001,0 -2.6493,3.4025 -9.2893,6.2085 0.0001,0 0.6487,0.865 3.6449,0.846 3.2738,-0.0191 12.5871,0.3087 13.9347,-0.6064 0.6986,-0.4731 0.1058,-81.5499 0.1058,-81.5499 0.1412,-1.6912 -0.0529,-5.3703 -0.1129,-6.4322 0.0108,-0.0015 0.0177,-0.0004 0.0283,-0.0025l2.4413 0 0.6668 0 0.8289 0c-0.06,1.0583 -0.254,4.7421 -0.1129,6.4347 0.0001,0 -0.5927,81.0768 0.1058,81.5499 1.3477,0.9151 10.6609,0.5873 13.9383,0.6064 2.9951,0.019 3.6441,-0.846 3.6441,-0.846 -6.6426,-2.806 -9.2886,-6.2085 -9.2886,-6.2085 0,0 0,-2.3569 0.4904,-8.4603 1.21,-14.9532 6.1419,-47.5322 6.7874,-65.375 0.5998,-6.8242 0.1164,-13.2031 -0.575,-17.1112 -0.0246,-0.1573 -0.9948,-4.567 -1.0266,-4.5607 -1.4499,-5.684 -3.7324,-13.0573 -4.0569,-14.3016 -2.0567,-7.8941 -2.2402,-13.5258 -2.1237,-15.9092l0.2399 -1.5981c1.4535,-0.4318 2.5928,-1.5745 3.316,-2.9524 1.5064,10.8931 4.4133,19.8931 7.6412,33.9961 0.3882,1.6912 1.778,6.4541 1.6616,8.0617 -0.0776,1.0813 -0.9701,0.9941 -1.5452,1.6126 -0.5537,0.5969 -0.5538,1.6788 -0.4798,2.4264l0.434 4.9519c0.1059,1.2065 1.8626,1.3508 2.0778,0.2424 0.0601,-0.3278 -0.1517,-3.5352 0.1835,-3.5412 0.2612,-0.0046 0.5609,0.1591 0.8819,0.4184 1.1396,0.9221 0.3245,6.2985 0.6985,7.125 1.0761,2.3893 3.9053,-1.3328 5.1823,-4.821 0.9949,-2.7052 0.508,-6.429 0.4093,-8.2356z"/>
  <path class="fil0" d="M49.001 115.12c-0.0141,0 -0.0247,0 -0.0247,0 0.0141,0 0.0176,0 0.0247,0z"/>
  <path class="fil0" d="M49.001 115.12c0.0176,-0.0004 0.0247,-0.0003 0,0l0 0z"/>
  <path class="fil0" d="M14.9334 115.12c0,0 -0.0143,0 -0.0249,0 0.0072,0 0.0106,0 0.0249,0z"/>
  <path class="fil0" d="M14.9086 115.12c-0.0282,-0.0004 -0.0177,-0.0003 -0.0001,0l0.0001 0z"/>
  <path class="fil1" d="M32.1736 114.848c-0.8679,0 -1.57,-0.7034 -1.57,-1.5709l0 -96.3852c0,-0.8676 0.7021,-1.5709 1.5699,-1.5709 0.8679,-0.0002 1.5733,0.7034 1.5733,1.5709l0.0001 96.3852c0,0.8675 -0.7056,1.5709 -1.5733,1.5709z"/>
  <path class="fil1" d="M46.9866 20.5718c0,0 0.1376,-2.0414 -0.5538,-3.4246 -1.0513,-2.0904 -3.3373,-2.8007 -3.3373,-2.7506 -0.9984,-5.2516 -7.4154,-5.3234 -10.5375,-3.5931 -0.321,0.1766 -0.5997,0.393 -0.8432,0.6424 -0.0634,-0.1171 -0.1234,-0.236 -0.194,-0.3506 -1.4428,-2.4534 -9.8284,-1.9502 -10.8303,3.3013 0.0002,-0.0502 -2.286,0.6604 -3.3337,2.7506 -0.6948,1.3831 -0.5539,3.4248 -0.5539,3.4248 -1.8626,2.0879 -1.15,4.2499 0.1376,5.3273 1.9509,1.6321 6.0854,1.9169 8.5372,1.9166 1.891,-0.0004 4.752,-0.1937 6.5335,-1.7053 1.7886,1.169 4.4873,1.1207 6.2971,1.1211 2.4519,0.0002 6.5863,0.2999 8.5407,-1.3324 1.2878,-1.0776 2.0003,-3.2393 0.1376,-5.3275z"/>
  <path class="fil2" d="M18.9337 22.1011c0.2647,0.0463 0.5115,0.0901 0.6421,0.154 0.4517,0.2151 0.762,0.9017 0.642,1.4114 -0.081,0.346 -0.3457,0.5154 -0.7902,0.5024 -0.2433,0.0014 -0.441,0.1887 -0.4445,0.4304 -0.0069,0.2419 0.187,0.442 0.4269,0.4455 0.0176,0 0.0282,0.0004 0.0458,0.0004 0.8362,0 1.4394,-0.4375 1.6122,-1.1765 0.2188,-0.9099 -0.2928,-2.0102 -1.1112,-2.4035 -0.2399,-0.1155 -0.5327,-0.1672 -0.8679,-0.2269 -0.8219,-0.1454 -1.7392,-0.3107 -2.2966,-1.3737 -0.0105,0.4246 0.0106,0.7074 0.0106,0.7074 -0.1163,0.1268 -0.2187,0.2547 -0.3139,0.382 0.7621,0.8463 1.7709,1.028 2.4447,1.1471z"/>
  <path class="fil2" d="M19.4242 16.6334c-0.2647,0.6866 -0.0389,1.4388 0.6243,2.0628 0.0812,0.0797 0.1905,0.1189 0.2998,0.1189 0.1165,-0.0001 0.2329,-0.0462 0.3176,-0.1376 0.1659,-0.176 0.1587,-0.4533 -0.0177,-0.6187 -0.2786,-0.2634 -0.5785,-0.6689 -0.4057,-1.1078 0.1588,-0.4057 0.6209,-0.6621 0.9596,-0.6667 0.0319,-0.0004 0.0635,-0.0049 0.0952,-0.0124 0.7338,0.5387 1.6404,0.6001 2.4589,0.6537 0.4129,0.0267 0.7973,0.0519 1.1677,0.1281 0.5505,0.1143 1.3088,0.551 1.5734,1.0583 0.1165,0.2295 0.127,0.4463 0.0247,0.6798 -0.2715,0.6241 -1.1748,0.4904 -2.1061,0.2533 -0.6808,-0.1719 -1.27,-0.1111 -1.7075,0.1764 -0.3667,0.242 -0.6032,0.6329 -0.6808,1.131 -0.2187,1.3772 0.6314,2.0458 1.3934,2.5122 -0.3596,0.2969 -0.6914,0.7242 -0.8607,1.2301 -0.2575,0.7736 -0.0776,1.5459 0.5044,2.1735 0.0848,0.0931 0.2047,0.14 0.3211,0.14 0.1058,-0.0001 0.2152,-0.0388 0.2963,-0.1171 0.18,-0.1646 0.1905,-0.4413 0.0247,-0.6191 -0.3668,-0.3932 -0.4727,-0.8305 -0.314,-1.2997 0.1907,-0.573 0.6844,-0.9676 0.9349,-1.0512 0.2893,0.0976 0.5574,0.1393 0.8043,0.1393 0.4728,-0.0005 0.8643,-0.1461 1.1607,-0.3143 0.6491,-0.3712 1.1747,-1.0898 1.1747,-1.3621 0.0001,-0.2418 -0.194,-0.4382 -0.4374,-0.4382 -0.1834,0 -0.3387,0.1108 -0.4057,0.2685 -0.0881,0.1647 -0.4939,0.7366 -1.1007,0.9137 -0.4233,0.1237 -0.8855,0.0392 -1.3794,-0.2505 -0.8677,-0.5126 -1.397,-0.8734 -1.2523,-1.7878 0.0423,-0.2556 0.1376,-0.4308 0.2998,-0.5363 0.2223,-0.1469 0.5821,-0.1675 1.009,-0.0589 0.755,0.1912 2.5188,0.6393 3.1256,-0.7535 0.2047,-0.4749 0.187,-0.9705 -0.0529,-1.4326 -0.4514,-0.8737 -1.5487,-1.3833 -2.1732,-1.5124 -0.4267,-0.089 -0.8642,-0.1175 -1.2876,-0.145 -0.9842,-0.0642 -1.8309,-0.1196 -2.3883,-0.8752 -0.3562,-0.4858 -0.4903,-0.8608 -0.4727,-1.3395 0.0036,-0.0877 0.067,-0.2918 0.1094,-0.4272 0.0388,-0.1242 0.0776,-0.2498 0.0952,-0.3694 -0.2115,0.4113 -0.3704,0.8625 -0.4657,1.3568 0.0002,-0.0157 -0.2116,0.0405 -0.5326,0.1817 0.0847,0.316 0.2257,0.6226 0.4409,0.9458 -0.5185,0.1917 -0.9772,0.606 -1.1746,1.1093z"/>
  <path class="fil2" d="M26.3491 25.9915c0.3247,-0.5693 0.889,-0.9058 1.5875,-0.9467 0.9102,-0.054 1.785,-0.1771 2.533,-1.0781 0.6492,-0.7807 0.7725,-1.9872 0.3069,-3.0028 -0.2011,-0.4368 -0.508,-0.8072 -0.8079,-1.1645 -0.3915,-0.469 -0.7585,-0.9113 -0.829,-1.4369 -0.1199,-0.8869 0.1587,-1.0883 0.6174,-1.4217 0.1799,-0.1298 0.3845,-0.2769 0.5644,-0.4738 0.7833,-0.8633 0.8078,-2.5587 0.0529,-3.4237 -1.0724,-1.2234 -2.0108,-0.7846 -2.7658,-0.4311 -0.5609,0.2606 -1.0407,0.4862 -1.6616,0.2064 -0.0387,-0.018 -0.074,-0.0367 -0.1128,-0.0561 -0.0422,-0.0435 -0.0953,-0.079 -0.1553,-0.1019 -0.0034,-0.0019 -0.0071,-0.0018 -0.0106,-0.0032 -0.2363,-0.1711 -0.381,-0.392 -0.4233,-0.6512 -0.0634,-0.3998 0.1235,-0.8453 0.501,-1.1907 0.6667,-0.6069 1.591,-0.7059 2.5717,-0.811 0.3669,-0.0396 0.7409,-0.0811 1.1042,-0.1517 -1.1711,-0.2633 -2.6353,-0.2339 -4.0322,0.1326 -0.0775,0.0585 -0.1588,0.1158 -0.2329,0.1842 -0.5961,0.5446 -0.8855,1.2827 -0.7761,1.9745 0.0671,0.4162 0.2681,0.7803 0.5856,1.0682 -0.2504,0.3947 -0.6914,0.7885 -1.1324,0.8851 -0.3069,0.0666 -0.575,-0.0194 -0.8184,-0.2639 -0.1729,-0.1721 -0.4481,-0.1721 -0.6209,-0.0014 -0.1729,0.1706 -0.1729,0.4484 0,0.6195 0.3599,0.3597 0.7796,0.5447 1.2347,0.5447 0.1307,0 0.261,-0.0145 0.3916,-0.0437 0.7162,-0.1563 1.337,-0.7158 1.6898,-1.2842 0.9278,0.3609 1.6686,0.0177 2.2683,-0.2628 0.7056,-0.331 1.0972,-0.5136 1.7357,0.2145 0.4693,0.5368 0.448,1.7184 -0.0423,2.2574 -0.1198,0.1298 -0.2681,0.2389 -0.4269,0.3532 -0.5184,0.3753 -1.1642,0.8424 -0.9737,2.2482 0.1025,0.7761 0.5927,1.3635 1.0231,1.881 0.2753,0.3284 0.5327,0.6386 0.6844,0.9691 0.3246,0.7049 0.2505,1.5596 -0.1835,2.0779 -0.4831,0.581 -0.9983,0.7091 -1.9085,0.763 -0.9876,0.0589 -1.8274,0.5634 -2.3001,1.385 -0.4233,0.7366 -0.4304,1.5329 -0.2223,2.2603 0.039,0 0.0777,0.0007 0.1129,0.0007 0.2505,-0.0002 0.5186,-0.0039 0.8009,-0.0134 -0.1904,-0.5084 -0.2964,-1.1797 0.0705,-1.811z"/>
  <path class="fil2" d="M32.3959 10.9083c-0.2506,0.1561 -0.4799,0.333 -0.6811,0.5376 -0.0634,-0.1171 -0.1234,-0.236 -0.194,-0.3506 0.0002,-0.0011 0,-0.0021 0,-0.0035 -0.0246,4.907 -0.0176,11.782 0.1694,15.2678 0.1094,-0.0788 0.2187,-0.1608 0.321,-0.249 0.1765,0.1159 0.3669,0.2169 0.5609,0.3108 -0.148,-2.7097 -0.2116,-8.1344 -0.1762,-15.5131z"/>
  <path class="fil2" d="M33.5246 13.2977c0.2647,0.4383 0.6491,0.7119 1.1148,0.7898 0.7408,0.1238 1.531,-0.2695 2.0214,-0.6801 0.695,-0.58 1.1853,-0.8597 1.778,-0.677 0.5893,0.1817 0.8044,0.8467 0.7585,1.4259 -0.0458,0.5884 -0.3775,1.2206 -1.0019,1.306 -0.2927,0.0402 -0.6068,0.0247 -0.9384,0.0081 -0.5856,-0.03 -1.2488,-0.0631 -1.8803,0.2512 -0.5255,0.2599 -0.8926,0.6689 -1.0654,1.1825 -0.1799,0.5439 -0.12,1.1631 0.1728,1.7431 0.0637,0.1242 0.1306,0.2424 0.2047,0.3549 -0.4585,0.3767 -0.755,0.8999 -0.8079,1.4524 -0.0457,0.461 0.0565,1.1518 0.7938,1.8235 0.0848,0.0765 0.1905,0.1143 0.2928,0.1143 0.12,0 0.2398,-0.0476 0.3245,-0.1429 0.166,-0.1782 0.1517,-0.4558 -0.0282,-0.6184 -0.3704,-0.3387 -0.5468,-0.7172 -0.5116,-1.0943 0.0319,-0.3247 0.2153,-0.6382 0.5045,-0.8689 0.4587,0.4136 1.009,0.6604 1.5911,0.6875 0.06,0.0032 0.1234,0.0046 0.1834,0.0046 1.3125,0 2.2084,-0.6904 2.3036,-1.7931 0.0249,-0.2834 0.1623,-0.3877 0.2682,-0.4407 0.374,-0.1955 1.0653,-0.0835 1.6792,0.2717 0.4692,0.2726 1.6721,0.8675 2.6529,0.5013 0.4728,-0.1754 0.8184,-0.5496 1.0019,-1.0834 0.3246,-0.9384 -0.2823,-1.9255 -1.0584,-2.3375 -0.702,-0.3748 -1.4499,-0.2297 -1.8979,0.3704 -0.1445,0.1933 -0.1058,0.4674 0.0847,0.6128 0.194,0.1452 0.4691,0.1062 0.6138,-0.0871 0.194,-0.257 0.4586,-0.2978 0.7902,-0.1225 0.441,0.235 0.8043,0.8044 0.6421,1.2778 -0.0987,0.2857 -0.2576,0.465 -0.4833,0.5482 -0.5151,0.1933 -1.323,-0.0995 -1.9086,-0.4381 -0.8853,-0.5134 -1.8767,-0.6273 -2.5223,-0.2907 -0.4304,0.2236 -0.6915,0.6297 -0.7338,1.1433 -0.0845,0.9817 -1.2277,1.0044 -1.5734,0.9878 -0.6455,-0.0301 -1.2489,-0.4893 -1.6228,-1.2277 -0.1869,-0.37 -0.2293,-0.7507 -0.1234,-1.0713 0.0952,-0.2876 0.3104,-0.5207 0.6208,-0.6746 0.4305,-0.212 0.9243,-0.1876 1.45,-0.1612 0.3563,0.018 0.7231,0.0364 1.1006,-0.0148 1.1043,-0.1513 1.6793,-1.1652 1.7569,-2.1029 0.0917,-1.1153 -0.4622,-2.0535 -1.3759,-2.3343 -1.1605,-0.3582 -2.0602,0.393 -2.5964,0.8424 -0.3528,0.2939 -0.8926,0.5577 -1.3159,0.4879 -0.2116,-0.0357 -0.3775,-0.1595 -0.5115,-0.3778 -0.4373,-0.73 -0.1235,-1.7043 0.2752,-2.3164 0.1483,-0.2258 0.3175,-0.4177 0.4903,-0.5764 -0.4831,0.0891 -0.949,0.2127 -1.3829,0.3655 -0.469,0.8521 -0.7161,2.0087 -0.1305,2.9792z"/>
  <path class="fil2" d="M35.1968 24.3836c0.187,-0.1796 0.4692,-0.3721 0.7584,-0.2691 0.2824,0.1012 0.4975,0.4488 0.5504,0.8845 0.0636,0.5298 0.1869,1.1183 0.6456,1.4643 0.3035,0.2285 0.6949,0.3063 1.1712,0.2311 0.4164,-0.0661 0.762,-0.3185 0.9807,-0.7105 0.2576,-0.4728 0.2928,-1.0908 0.0846,-1.5748 -0.0951,-0.222 -0.3562,-0.3245 -0.575,-0.2286 -0.2222,0.0959 -0.3245,0.3535 -0.2292,0.5754 0.0987,0.2331 0.0776,0.5722 -0.0494,0.8057 -0.0847,0.1541 -0.2011,0.2445 -0.3493,0.2674 -0.2293,0.0367 -0.3986,0.0152 -0.5045,-0.0645 -0.1975,-0.1496 -0.2681,-0.5676 -0.3034,-0.8686 -0.0915,-0.7751 -0.5221,-1.3906 -1.1289,-1.6061 -0.5432,-0.1949 -1.15,-0.0269 -1.658,0.4635 -0.6491,0.6233 -0.9208,1.9131 -0.8643,3.0882 0.2928,0.0775 0.5891,0.1404 0.889,0.1898 -0.0916,-0.9892 0.0882,-2.1735 0.5821,-2.6477z"/>
  <path class="fil2" d="M45.692 19.5161c-0.5151,0.0859 -0.9526,0.3185 -1.2736,0.6614 -0.1516,-0.1471 -0.3316,-0.2624 -0.5363,-0.3351 -0.4902,-0.1723 -1.0583,-0.0928 -1.4393,0.2018 -0.1939,0.1466 -0.2293,0.4219 -0.0811,0.6135 0.1448,0.1925 0.4198,0.2286 0.6138,0.0815 0.1483,-0.1136 0.4057,-0.1433 0.6139,-0.0699 0.1694,0.0589 0.2857,0.1761 0.3527,0.3412 -0.2081,0.7827 0.3246,1.4015 0.7585,1.9053 0.6033,0.7006 0.8149,1.0396 0.4692,1.5745 -0.4551,0.7015 -1.1995,0.7627 -1.7039,0.6011 -0.508,-0.1637 -1.0372,-0.6234 -1.0019,-1.4228 0.0671,-1.4188 -0.9243,-2.4497 -1.9191,-2.6271 -0.8642,-0.1554 -1.6017,0.315 -1.8768,1.1949 -0.074,0.2309 0.0529,0.4769 0.2857,0.5492 0.2295,0.0734 0.4763,-0.055 0.5504,-0.2861 0.194,-0.6206 0.6385,-0.6399 0.8855,-0.5951 0.6245,0.1106 1.2453,0.7856 1.1994,1.723 -0.0494,1.0653 0.5821,1.9681 1.6087,2.2983 0.2469,0.0793 0.4974,0.1171 0.7443,0.1171 0.7797,-0.0001 1.517,-0.3877 1.9615,-1.0766 0.7373,-1.1385 0,-1.9961 -0.5398,-2.6219 -0.4727,-0.5507 -0.6808,-0.8467 -0.5538,-1.18 0.2258,-0.5703 0.7373,-0.7359 1.0265,-0.7839 0.3881,-0.0646 0.7973,0.0018 1.1501,0.1683 0.0072,-0.0914 0.0211,-0.4526 -0.0035,-0.9363 -0.4126,-0.1275 -0.8573,-0.1683 -1.2911,-0.0963z"/>
  <path class="fil1" d="M33.1966 110.681c0,0 -0.0213,0.1012 -0.0601,0.2977 -0.0423,0.1897 -0.1093,0.4682 -0.201,0.8248 -0.187,0.7129 -0.4833,1.7448 -0.9455,3.0265 -0.4656,1.2798 -1.09,2.8155 -1.9791,4.4997 -0.4515,0.8367 -0.9454,1.724 -1.5451,2.6148 -0.1375,0.2127 -0.2787,0.4282 -0.4198,0.6463 -0.0705,0.111 -0.1411,0.2229 -0.2153,0.3358 -0.0703,0.1132 -0.1163,0.2078 -0.1799,0.3129l-0.1728 0.31 -0.1728 0.3429c-0.1163,0.2276 -0.2259,0.4654 -0.3317,0.7106 -0.85,1.9505 -1.4746,4.2584 -1.9156,6.749 -0.4515,2.4909 -0.7126,5.1724 -0.8713,7.9604 -0.1586,2.8292 -0.3246,5.7224 -0.3599,8.6625 -0.0351,2.9386 0.0459,5.9309 0.1835,8.933 0.2752,6.0036 0.6914,12.0202 1.0654,17.6576 0.3917,5.6395 0.7585,10.9026 1.0724,15.4143 0.6351,9.0233 1.0584,15.0386 1.0584,15.0386 0.0389,0.5425 -0.3705,1.0128 -0.9137,1.0509 -0.5397,0.0384 -1.0125,-0.3662 -1.0478,-0.9081 0.0001,0 -0.448,-6.0145 -1.1218,-15.0354 -0.3281,-4.512 -0.7161,-9.7751 -1.1289,-15.4149 -0.3985,-5.6427 -0.8361,-11.6583 -1.136,-17.7028 -0.1551,-3.0212 -0.2469,-6.0597 -0.2222,-9.0576 0.0248,-2.9968 0.1834,-5.939 0.3281,-8.7548 0.1517,-2.8555 0.4092,-5.6254 0.8713,-8.2371 0.4516,-2.6112 1.0936,-5.0729 2.0426,-7.2742 0.1166,-0.2756 0.2364,-0.5465 0.374,-0.8111 0.067,-0.1327 0.1305,-0.2649 0.1975,-0.3965 0.0741,-0.1348 0.1482,-0.2685 0.2222,-0.4014 0.0742,-0.1288 0.1518,-0.2752 0.2223,-0.3867 0.0741,-0.1125 0.1447,-0.2251 0.2152,-0.3365 0.1447,-0.2255 0.2893,-0.4484 0.4304,-0.6682 0.5469,-0.8231 1.0019,-1.6499 1.4181,-2.4299 0.8221,-1.5714 1.4006,-3.0138 1.831,-4.2136 0.4305,-1.2016 0.702,-2.1668 0.8678,-2.8215 0.0848,-0.3278 0.1411,-0.5775 0.1764,-0.744 0.0354,-0.1613 0.0529,-0.2445 0.0529,-0.2445l0.0036 -0.0294c0.1341,-0.6374 0.7549,-1.048 1.3934,-0.9168 0.6352,0.1312 1.0478,0.7543 0.9173,1.3917l-0.0035 0.005z"/>
  <path class="fil1" d="M27.5205 168.414c-0.0284,0 -0.0566,-0.0025 -0.0884,-0.0067 -0.321,-0.049 -0.5432,-0.3492 -0.4939,-0.6706 1.7711,-11.6819 0.0847,-20.773 -1.0547,-23.9476 -0.1341,-0.3807 -0.307,-0.834 -0.501,-1.3388 -1.037,-2.7143 -2.6035,-6.8167 -2.2225,-9.2873 0.0494,-0.3217 0.3492,-0.5418 0.6703,-0.4928 0.3247,0.0493 0.5433,0.3503 0.4939,0.6717 -0.3315,2.1628 1.2276,6.2473 2.159,8.6882 0.1975,0.5129 0.3704,0.974 0.5115,1.3607 1.6335,4.5564 2.6776,14.1735 1.1077,24.5223 -0.0422,0.2917 -0.2928,0.5009 -0.5819,0.5009z"/>
  <path class="fil1" d="M23.0048 198.418c-0.2821,0 -0.5292,-0.2022 -0.5786,-0.4886 -2.0177,-11.6682 -1.6192,-24.069 -0.5538,-28.5345 1.3759,-5.7672 1.0159,-10.7636 0.7796,-14.0694l-0.0528 -0.7282c-0.0212,-0.3249 0.2221,-0.606 0.5467,-0.6279 0.3281,-0.0258 0.6068,0.2229 0.6279,0.5475l0.053 0.7239c0.2435,3.3782 0.6067,8.4836 -0.8079,14.4272 -1.0406,4.367 -1.4252,16.5481 0.568,28.0603 0.0565,0.321 -0.1588,0.6258 -0.4798,0.6816 -0.0352,0.0056 -0.0671,0.0081 -0.1023,0.0081z"/>
  <path class="fil1" d="M17.0077 130.481c-0.3247,0 -0.5893,-0.2638 -0.5893,-0.5891 0.0001,-7.0754 2.2895,-9.5638 5.4575,-13.0083l0.3634 -0.3987c4.6672,-5.0875 7.6447,-8.9203 8.3855,-10.7932 0.1199,-0.3024 0.4621,-0.4516 0.7655,-0.3313 0.3035,0.1199 0.4515,0.4618 0.3316,0.7645 -1.0159,2.5682 -5.2458,7.4842 -8.6113,11.1566l-0.3703 0.3996c-3.2067,3.489 -5.1436,5.5948 -5.1436,12.2108 0.0001,0.3252 -0.2646,0.5891 -0.589,0.5891z"/>
  <path class="fil1" d="M28.3424 202.172c-0.0071,0 -0.0107,0 -0.0177,-0.0003 -0.3246,-0.0085 -0.5821,-0.2794 -0.5715,-0.6047 0.3563,-13.2651 -2.3919,-21.7949 -3.429,-25.0059l-0.1517 -0.4809c-0.0987,-0.3098 0.0705,-0.6413 0.381,-0.7401 0.3105,-0.0981 0.642,0.073 0.7408,0.3835l0.1517 0.4762c1.0513,3.2636 3.8452,11.9324 3.4854,25.3986 -0.0105,0.32 -0.2716,0.5736 -0.589,0.5736z"/>
  <path class="fil1" d="M24.0915 82.2008c-0.0635,0 -0.1236,-0.0091 -0.1836,-0.0296 -0.3103,-0.1016 -0.4798,-0.4346 -0.3775,-0.7437 1.6017,-4.8708 3.5101,-7.2132 5.0412,-9.0956 1.316,-1.6165 2.2684,-2.7845 2.6247,-4.9523 0.053,-0.3211 0.3563,-0.5387 0.6773,-0.4862 0.3211,0.0529 0.5362,0.3556 0.4869,0.677 -0.4091,2.4775 -1.5523,3.8809 -2.8752,5.5058 -1.4711,1.8065 -3.302,4.0556 -4.8366,8.7196 -0.081,0.2477 -0.3104,0.405 -0.5572,0.405z"/>
  <path class="fil1" d="M23.0578 92.3259c-0.0389,0 -0.0777,-0.0039 -0.1201,-0.0124 -0.3174,-0.066 -0.5221,-0.3778 -0.455,-0.6967 0.3705,-1.7932 2.039,-4.7533 3.0973,-6.2011 0.1976,-0.2707 0.4093,-0.5503 0.6245,-0.84 1.6123,-2.1431 3.6124,-4.8105 4.5685,-8.7789 0.0777,-0.3168 0.3951,-0.5104 0.7125,-0.4346 0.3141,0.0759 0.508,0.3944 0.434,0.7109 -1.0159,4.2047 -3.0974,6.98 -4.7696,9.2099 -0.215,0.2857 -0.4233,0.5617 -0.6174,0.8294 -1.1252,1.5352 -2.5929,4.2718 -2.8963,5.744 -0.0599,0.2779 -0.3034,0.4695 -0.5784,0.4695z"/>
  <path class="fil1" d="M20.1051 103.074c-0.0707,0 -0.1413,-0.0127 -0.2118,-0.0395 -0.3034,-0.1172 -0.4551,-0.4587 -0.3387,-0.762 1.4147,-3.6573 3.6195,-5.7905 6.41,-8.4914l0.1341 -0.1309c0.201,-0.1969 0.4021,-0.3873 0.5996,-0.5754 1.7711,-1.6859 3.302,-3.1418 4.6497,-7.1151 0.1059,-0.3077 0.441,-0.4731 0.7479,-0.3683 0.3105,0.1043 0.4727,0.4392 0.3703,0.7472 -1.4427,4.2481 -3.0726,5.7972 -4.9565,7.59 -0.194,0.1851 -0.3915,0.3736 -0.5926,0.5676l-0.134 0.1312c-2.6847,2.6003 -4.8084,4.6542 -6.1278,8.0698 -0.0916,0.2339 -0.314,0.3768 -0.5502,0.3768z"/>
  <path class="fil1" d="M18.1612 115.323c-0.0212,0 -0.0424,-0.001 -0.0671,-0.0038 -0.3209,-0.0364 -0.5539,-0.3281 -0.5186,-0.6516 0.4341,-3.84 3.1327,-6.2985 5.1012,-8.0938 0.3563,-0.3245 0.6949,-0.6332 1.0019,-0.9317l0.3387 -0.3299c3.1079,-3.025 4.9847,-4.8506 6.3852,-8.5216 0.1166,-0.3038 0.4551,-0.4565 0.762,-0.3401 0.3035,0.1164 0.4551,0.4569 0.3387,0.7606 -1.4957,3.9133 -3.4396,5.8078 -6.664,8.9454l-0.3385 0.3294c-0.314,0.307 -0.6634,0.6252 -1.0303,0.9589 -1.9332,1.7625 -4.3391,3.9554 -4.7237,7.3555 -0.0352,0.3009 -0.2892,0.5228 -0.5855,0.5227z"/>
  <path class="fil1" d="M9.7451 123.952c-0.2844,0 -0.5347,-0.206 -0.5816,-0.4963 -0.2588,-1.6162 -1.0675,-2.4187 -1.9233,-3.2678 -0.7192,-0.7138 -1.463,-1.4521 -1.7191,-2.6303 -0.3461,-1.5883 0.1351,-2.9147 0.8625,-4.9223 1.0786,-2.9765 2.709,-7.4747 3.3797,-16.9034 0.3084,-4.3328 1.7406,-7.6662 3.0042,-10.607 0.979,-2.2776 1.9047,-4.4294 2.1763,-6.7313 1.4007,-11.7295 5.8349,-18.0375 9.5215,-20.03 0.2223,-0.1207 0.4833,-0.248 0.7725,-0.3881 2.198,-1.0675 5.5175,-2.6804 5.5175,-7.7424 0.0001,-0.3253 0.2646,-0.5891 0.5892,-0.5891 0.3281,-0.0001 0.5891,0.2638 0.5891,0.5891 0.0001,5.7997 -4.0217,7.7527 -6.1807,8.8022 -0.2716,0.1319 -0.5186,0.2511 -0.7267,0.3647 -3.2701,1.767 -7.5636,7.8384 -8.9112,19.1333 -0.2928,2.4711 -1.2523,4.6986 -2.2652,7.057 -1.2861,2.9943 -2.6172,6.091 -2.9111,10.2256 -0.6825,9.5916 -2.3467,14.1831 -3.4474,17.2212 -0.6811,1.8795 -1.0925,3.0141 -0.8187,4.27 0.182,0.8382 0.745,1.3974 1.3973,2.0443 0.9082,0.901 1.9375,1.9223 2.2574,3.918 0.0514,0.321 -0.1672,0.6234 -0.4886,0.6752 -0.0313,0.0049 -0.0631,0.0074 -0.0936,0.0074z"/>
  <path class="fil1" d="M19.283 39.1164c-0.0635,0 -0.127,-0.0099 -0.1905,-0.0314 -0.3104,-0.1056 -0.4728,-0.4402 -0.3669,-0.7478 0.9314,-2.7346 3.5983,-4.0828 6.1806,-5.3863 0.4093,-0.2078 0.822,-0.4166 1.2313,-0.6318 0.1481,-0.0794 0.3315,-0.1715 0.5362,-0.2759 1.1536,-0.5843 3.8523,-1.9522 4.1804,-3.0406 0.0495,-0.1538 0.0353,-0.2758 -0.0388,-0.4085 -0.1587,-0.284 -0.0565,-0.6427 0.2258,-0.8022 0.2858,-0.1591 0.6455,-0.0586 0.8043,0.2261 0.2294,0.4103 0.2787,0.8689 0.1376,1.3272 -0.441,1.4477 -2.6953,2.6945 -4.7766,3.749 -0.1975,0.1008 -0.374,0.1905 -0.5222,0.2674 -0.4127,0.218 -0.8325,0.4296 -1.2488,0.6406 -2.4764,1.2524 -4.8189,2.4356 -5.5951,4.7152 -0.0845,0.2452 -0.3139,0.399 -0.5573,0.399z"/>
  <path class="fil1" d="M23.0578 42.9129c-0.0424,0 -0.0883,-0.0045 -0.1306,-0.0151 -0.3174,-0.0724 -0.5151,-0.3884 -0.4445,-0.7055 0.5821,-2.5429 2.6493,-4.2549 4.385,-5.4628 0.2117,-0.1482 0.4727,-0.3157 0.7585,-0.4995 1.0478,-0.6754 2.9986,-1.9318 2.935,-2.7711 -0.0211,-0.3246 0.2223,-0.6064 0.5469,-0.6297 0.3246,-0.0265 0.6067,0.2209 0.6315,0.5454 0.1094,1.5355 -1.9615,2.8709 -3.4749,3.8456 -0.2715,0.1757 -0.5221,0.3352 -0.7232,0.4766 -2.3211,1.6136 -3.5243,3.0816 -3.9088,4.7587 -0.0635,0.2726 -0.3069,0.4575 -0.5749,0.4574z"/>
  <path class="fil1" d="M26.8361 45.9793c-0.0282,0 -0.0531,-0.0017 -0.0813,-0.0056 -0.321,-0.0442 -0.5468,-0.3408 -0.5045,-0.6629 0.307,-2.2606 2.5894,-4.1698 4.4521,-5.1184 0.2894,-0.1462 0.6456,-0.0328 0.7937,0.2575 0.1483,0.2903 0.0318,0.6445 -0.2575,0.7927 -1.7355,0.8837 -3.5878,2.5337 -3.8206,4.2266 -0.0386,0.2956 -0.2928,0.5102 -0.5819,0.5101z"/>
  <path class="fil1" d="M9.2236 89.2179c-0.0401,0 -0.0813,-0.0039 -0.1222,-0.013 -0.3182,-0.0667 -0.5224,-0.3789 -0.4557,-0.6971 1.269,-6.0466 3.3535,-9.2767 5.0284,-11.8717 1.2133,-1.8821 2.2645,-3.5073 2.7584,-5.7556 0.0672,-0.3175 0.381,-0.5214 0.702,-0.4487 0.3177,0.0698 0.5186,0.3838 0.4481,0.702 -0.5396,2.4549 -1.6404,4.1632 -2.9175,6.1412 -1.7073,2.6444 -3.6417,5.642 -4.8655,11.4744 -0.0581,0.2777 -0.3038,0.4685 -0.576,0.4685z"/>
  <path class="fil1" d="M13.6023 72.3332c-0.0409,0 -0.0823,-0.0042 -0.1239,-0.013 -0.3182,-0.0681 -0.5214,-0.3813 -0.453,-0.6992 1.7633,-8.2462 5.3897,-10.6101 13.2426,-14.0377 0.3,-0.1295 0.6455,0.0063 0.7761,0.3044 0.1305,0.2981 -0.0071,0.6453 -0.3034,0.7758 -7.634,3.3312 -10.9079,5.4578 -12.5631,13.2038 -0.0588,0.2765 -0.3038,0.466 -0.5753,0.4659z"/>
  <path class="fil1" d="M5.0865 129.423c-0.2147,0 -0.4227,-0.1185 -0.5263,-0.3235 -1.8382,-3.6421 -1.6214,-7.9022 0.6437,-12.6619 0.1402,-0.2939 0.4922,-0.418 0.7853,-0.279 0.2939,0.1399 0.4188,0.4914 0.2787,0.7852 -2.1007,4.4136 -2.3212,8.3249 -0.6551,11.6248 0.1464,0.2902 0.0297,0.6449 -0.261,0.7913 -0.0849,0.0429 -0.1757,0.0631 -0.2653,0.0631z"/>
  <path class="fil1" d="M19.5723 157.452c-0.3034,0 -0.5574,-0.2318 -0.5857,-0.539 -1.5838,-18.5858 1.7322,-24.5915 4.1558,-28.9769 0.8009,-1.4496 1.4922,-2.7015 1.8908,-4.1807 0.0848,-0.3147 0.4058,-0.5006 0.7232,-0.416 0.3141,0.0843 0.4974,0.4079 0.4163,0.7222 -0.4374,1.6175 -1.1959,2.9908 -2.0002,4.4443 -2.346,4.253 -5.5633,10.0781 -4.0111,28.3072 0.0282,0.3242 -0.2117,0.6093 -0.5362,0.6368 -0.0176,0.0014 -0.0353,0.0021 -0.0529,0.0021z"/>
  <path class="fil1" d="M17.0077 212.169c-0.2681,0 -0.5117,-0.1846 -0.5752,-0.4576 -0.0739,-0.3172 0.127,-0.6332 0.4445,-0.7059 4.5298,-1.039 6.8792,-1.9854 8.8124,-6.163 0.1376,-0.2953 0.4868,-0.4223 0.7832,-0.2869 0.2964,0.1369 0.4233,0.4872 0.2857,0.7825 -2.2295,4.8112 -5.1223,5.7849 -9.6202,6.8157 -0.0423,0.0106 -0.0882,0.0152 -0.1304,0.0152z"/>
  <path class="fil1" d="M27.1147 211.651c-0.0599,0 -0.12,-0.0085 -0.1765,-0.0268 -0.3103,-0.0967 -0.4832,-0.4276 -0.388,-0.7381 0.628,-1.9995 0.2645,-3.1365 -0.12,-4.3409 -0.3033,-0.9507 -0.6138,-1.9336 -0.4621,-3.2967 0.0353,-0.3235 0.3281,-0.5538 0.6491,-0.5203 0.3246,0.0363 0.5574,0.3273 0.5221,0.6508 -0.1234,1.1141 0.1376,1.9371 0.4163,2.8085 0.4022,1.264 0.8572,2.6959 0.1199,5.05 -0.0774,0.2519 -0.3104,0.4135 -0.5608,0.4135z"/>
  <path class="fil1" d="M4.4388 113.719c-0.0222,0 -0.0452,-0.001 -0.0681,-0.0038 -0.323,-0.0378 -0.5549,-0.3299 -0.5179,-0.653 0.7855,-6.784 2.1477,-9.4996 3.4664,-12.1257 0.9024,-1.7981 1.7547,-3.4967 2.4582,-6.4724 0.0752,-0.3168 0.3919,-0.513 0.709,-0.4382 0.3169,0.0748 0.513,0.3927 0.4378,0.7091 -0.735,3.1104 -1.6587,4.9502 -2.552,6.73 -1.3305,2.6511 -2.5879,5.1555 -3.3485,11.733 -0.0348,0.2998 -0.2896,0.521 -0.5849,0.521z"/>
  <path class="fil1" d="M44.81 39.1164c-0.2433,0 -0.4728,-0.1541 -0.5574,-0.399 -0.776,-2.2803 -3.115,-3.4628 -5.5951,-4.7152 -0.4162,-0.2111 -0.836,-0.4226 -1.2488,-0.6406 -0.1445,-0.0771 -0.3211,-0.1662 -0.5221,-0.2671 -2.0779,-1.0546 -4.3357,-2.3012 -4.7766,-3.749 -0.1376,-0.458 -0.0918,-0.9172 0.1411,-1.3278 0.1589,-0.2841 0.5185,-0.3849 0.8008,-0.2258 0.2858,0.1594 0.3845,0.5189 0.2258,0.8026 -0.074,0.1323 -0.0847,0.2543 -0.0388,0.4081 0.3316,1.0882 3.0303,2.4568 4.1804,3.041 0.2082,0.104 0.388,0.1965 0.5397,0.2755 0.4057,0.2147 0.8185,0.4237 1.2312,0.6315 2.5789,1.3038 5.2458,2.6518 6.1807,5.3866 0.1024,0.3079 -0.06,0.6427 -0.3704,0.7478 -0.06,0.0214 -0.127,0.0314 -0.1905,0.0314z"/>
  <path class="fil1" d="M41.0353 42.9129c-0.2681,0 -0.5116,-0.1847 -0.5751,-0.4578 -0.3808,-1.6764 -1.5875,-3.1439 -3.9052,-4.7583 -0.2046,-0.1411 -0.4516,-0.3009 -0.7232,-0.4759 -1.5134,-0.9751 -3.5878,-2.3106 -3.4749,-3.8463 0.0247,-0.3247 0.3069,-0.5704 0.6279,-0.5454 0.3247,0.0233 0.5716,0.3052 0.5469,0.6297 -0.0599,0.8392 1.8908,2.0962 2.9386,2.7714 0.2859,0.1833 0.5433,0.3511 0.7549,0.4992 1.7358,1.2085 3.803,2.9214 4.3851,5.4631 0.0707,0.317 -0.127,0.6329 -0.4445,0.7052 -0.0422,0.0105 -0.0882,0.0152 -0.1305,0.0151z"/>
  <path class="fil1" d="M37.2606 45.9793c-0.2929,0 -0.5434,-0.2144 -0.5857,-0.5101 -0.2293,-1.6929 -2.0814,-3.3425 -3.8171,-4.2266 -0.2926,-0.1482 -0.4056,-0.5023 -0.2575,-0.7927 0.1448,-0.2903 0.501,-0.4036 0.7902,-0.2575 1.8627,0.9488 4.1452,2.8582 4.4521,5.1184 0.0459,0.3225 -0.1799,0.6192 -0.5045,0.6629 -0.0245,0.0038 -0.0529,0.0057 -0.0775,0.0056z"/>
  <path class="fil1" d="M20.9941 75.4331c-0.0389,0 -0.0778,-0.0038 -0.1166,-0.012 -0.321,-0.0646 -0.5256,-0.376 -0.4586,-0.6949 0.5399,-2.6505 1.6298,-3.8002 3.0127,-5.2554 0.5892,-0.6216 1.2595,-1.3257 1.9615,-2.2429 0.427,-0.5543 0.8749,-1.1137 1.3264,-1.6768 1.5947,-1.9865 3.2456,-4.0407 3.8347,-5.9662 0.0953,-0.3115 0.4233,-0.4864 0.7338,-0.3912 0.3141,0.0952 0.4868,0.4248 0.3916,0.7359 -0.6525,2.142 -2.3777,4.2856 -4.0393,6.3592 -0.448,0.5559 -0.8926,1.1084 -1.3124,1.6556 -0.7372,0.9666 -1.4322,1.6951 -2.0425,2.3378 -1.3018,1.3702 -2.2402,2.3601 -2.7129,4.6796 -0.0563,0.279 -0.3034,0.4713 -0.5784,0.4713z"/>
  <path class="fil1" d="M33.0732 110.231c0,0 0.0175,0.0833 0.0492,0.2446 0.0355,0.1664 0.0953,0.4162 0.1764,0.744 0.1695,0.6547 0.441,1.6199 0.8679,2.8215 0.4305,1.1998 1.0124,2.6423 1.8309,4.2136 0.4198,0.7799 0.8713,1.6069 1.4217,2.4299 0.1411,0.2198 0.2822,0.4427 0.4268,0.6682 0.0743,0.1114 0.1447,0.224 0.2152,0.3365 0.0706,0.1114 0.1482,0.2579 0.2223,0.3867 0.0742,0.1329 0.1481,0.2666 0.2257,0.4014 0.0636,0.1315 0.1306,0.2639 0.1941,0.3965 0.1377,0.2646 0.261,0.5356 0.3774,0.8111 0.9492,2.2012 1.5911,4.663 2.0426,7.2742 0.4623,2.6116 0.7197,5.3817 0.8678,8.2371 0.1484,2.8158 0.3034,5.758 0.3282,8.7548 0.0248,2.9979 -0.0671,6.0364 -0.2188,9.0576 -0.3033,6.0445 -0.7408,12.0601 -1.1359,17.7028 -0.4162,5.6398 -0.8008,10.9029 -1.1324,15.4149 -0.6703,9.0209 -1.1183,15.0354 -1.1183,15.0354 -0.0423,0.5419 -0.5151,0.9486 -1.0549,0.9081 -0.5432,-0.0406 -0.9489,-0.5084 -0.9101,-1.0509 0,0 0.4233,-6.0153 1.0619,-15.0386 0.3141,-4.5117 0.6773,-9.7748 1.0689,-15.4143 0.3775,-5.6374 0.7902,-11.654 1.0654,-17.6576 0.1411,-3.0021 0.2187,-5.9944 0.1834,-8.933 -0.0351,-2.9401 -0.2011,-5.8332 -0.3598,-8.6625 -0.1551,-2.788 -0.4198,-5.4694 -0.8714,-7.9604 -0.4374,-2.4907 -1.0619,-4.7985 -1.9156,-6.749 -0.1022,-0.2452 -0.2116,-0.483 -0.3316,-0.7105l-0.1693 -0.343 -0.1764 -0.31c-0.0635,-0.1052 -0.1058,-0.1997 -0.1799,-0.3129 -0.0741,-0.113 -0.1446,-0.2247 -0.2152,-0.3358 -0.1411,-0.2181 -0.2822,-0.4336 -0.4198,-0.6463 -0.5997,-0.8908 -1.0901,-1.778 -1.5452,-2.6148 -0.8853,-1.6842 -1.5134,-3.2198 -1.9791,-4.4997 -0.462,-1.2817 -0.7584,-2.3135 -0.9419,-3.0265 -0.0951,-0.3567 -0.1587,-0.635 -0.2011,-0.8248 -0.0423,-0.1965 -0.0635,-0.2977 -0.0635,-0.2977 -0.134,-0.6372 0.2752,-1.2616 0.9102,-1.3956 0.6386,-0.1338 1.263,0.2741 1.397,0.9109l0 0.0048 0.0072 0.0293z"/>
  <path class="fil1" d="M36.4351 168.414c-0.2858,0 -0.5363,-0.2092 -0.5822,-0.5009 -1.5697,-10.3488 -0.5256,-19.9658 1.1077,-24.5223 0.1412,-0.3867 0.3176,-0.8477 0.5116,-1.3607 0.9314,-2.4409 2.4906,-6.5253 2.159,-8.6882 -0.0493,-0.3214 0.1728,-0.6223 0.4939,-0.6717 0.3176,-0.0484 0.6209,0.1711 0.6702,0.4928 0.3811,2.4705 -1.1853,6.573 -2.2224,9.2873 -0.1905,0.5047 -0.3669,0.9581 -0.501,1.3388 -1.1393,3.1746 -2.8257,12.2657 -1.0548,23.9476 0.0494,0.3213 -0.1729,0.6216 -0.4939,0.6706 -0.0282,0.0042 -0.06,0.0067 -0.0881,0.0067z"/>
  <path class="fil1" d="M40.9507 198.418c-0.0317,0 -0.0672,-0.0025 -0.1024,-0.0081 -0.321,-0.0558 -0.5327,-0.3606 -0.4798,-0.6816 1.9933,-11.5126 1.6122,-23.6933 0.5715,-28.0603 -1.418,-5.9436 -1.0513,-11.049 -0.8114,-14.4272l0.053 -0.7239c0.0212,-0.3246 0.3068,-0.5722 0.6279,-0.5475 0.3246,0.0218 0.5679,0.303 0.5468,0.6279l-0.0494 0.7281c-0.2399,3.3059 -0.5962,8.3023 0.7761,14.0695 1.0654,4.4655 1.4675,16.866 -0.5503,28.5345 -0.0529,0.2864 -0.2999,0.4886 -0.582,0.4886z"/>
  <path class="fil1" d="M46.9515 130.481c-0.3282,0 -0.5893,-0.2638 -0.5893,-0.5891 0.0001,-6.616 -1.9368,-8.7217 -5.147,-12.2107l-0.3669 -0.3997c-3.369,-3.6725 -7.5953,-8.5884 -8.6113,-11.1566 -0.1199,-0.3027 0.0282,-0.6445 0.3316,-0.7645 0.3034,-0.1203 0.642,0.029 0.762,0.3313 0.7409,1.8728 3.7182,5.7058 8.3855,10.7932l0.3669 0.3986c3.1681,3.4445 5.4575,5.9331 5.4575,13.0084 0,0.3252 -0.2646,0.5891 -0.589,0.5891z"/>
  <path class="fil1" d="M35.6132 202.172c-0.3175,0 -0.5787,-0.2536 -0.5858,-0.5736 -0.3632,-13.4662 2.4307,-22.135 3.4819,-25.3986l0.1519 -0.4762c0.0988,-0.3101 0.4338,-0.4816 0.7407,-0.3835 0.3106,0.0988 0.4833,0.4304 0.3845,0.7401l-0.1551 0.4809c-1.0336,3.2109 -3.7819,11.7408 -3.4256,25.0059 0.0071,0.3253 -0.2505,0.5962 -0.575,0.6047 -0.007,0.0003 -0.0106,0.0003 -0.0175,0.0003z"/>
  <path class="fil1" d="M39.8677 82.2008c-0.2471,0 -0.48,-0.1573 -0.5611,-0.405 -1.5309,-4.6641 -3.3655,-6.913 -4.8366,-8.7196 -1.3228,-1.6249 -2.4659,-3.0282 -2.8716,-5.5058 -0.0528,-0.3214 0.1658,-0.624 0.4869,-0.677 0.3211,-0.0522 0.6244,0.1651 0.6773,0.4862 0.3528,2.1678 1.3053,3.3358 2.6211,4.9523 1.5348,1.8823 3.4432,4.2248 5.0413,9.0956 0.1023,0.309 -0.0671,0.6421 -0.374,0.7437 -0.0599,0.0204 -0.1235,0.0296 -0.1833,0.0296z"/>
  <path class="fil1" d="M40.8978 92.3259c-0.2753,0 -0.5187,-0.1916 -0.5752,-0.4695 -0.3069,-1.4722 -1.7745,-4.209 -2.8963,-5.744 -0.1975,-0.2678 -0.4057,-0.544 -0.6173,-0.8301 -1.6757,-2.2296 -3.7571,-5.0048 -4.7696,-9.2092 -0.0775,-0.3165 0.1164,-0.635 0.4339,-0.7109 0.3141,-0.0758 0.635,0.1179 0.7091,0.4346 0.9562,3.9684 2.9598,6.6354 4.5685,8.7782 0.2153,0.2899 0.4268,0.5698 0.6244,0.8407 1.062,1.4477 2.7269,4.4076 3.1009,6.2011 0.0635,0.3189 -0.1411,0.6308 -0.4586,0.6967 -0.0387,0.0085 -0.0811,0.0124 -0.1198,0.0124z"/>
  <path class="fil1" d="M43.8505 103.074c-0.2363,0 -0.4587,-0.1429 -0.5504,-0.3768 -1.3193,-3.4153 -3.4396,-5.4687 -6.1243,-8.0691l-0.1375 -0.132c-0.201,-0.194 -0.3987,-0.3823 -0.5927,-0.5675 -1.8838,-1.7929 -3.5101,-3.3419 -4.953,-7.59 -0.1058,-0.308 0.06,-0.6428 0.3669,-0.7472 0.3106,-0.1052 0.642,0.0603 0.7479,0.3683 1.3476,3.9732 2.8787,5.4292 4.6496,7.1151 0.1977,0.188 0.3987,0.3786 0.5997,0.5754l0.1377 0.1315c2.7904,2.7006 4.9917,4.8339 6.4063,8.4908 0.1166,0.3033 -0.0352,0.6448 -0.3386,0.762 -0.0669,0.0268 -0.1411,0.0395 -0.2116,0.0395z"/>
  <path class="fil1" d="M45.7942 115.323c-0.2963,0 -0.5503,-0.2218 -0.5856,-0.5227 -0.3844,-3.4002 -2.7904,-5.593 -4.7237,-7.3551 -0.3668,-0.3341 -0.7161,-0.6523 -1.0301,-0.9592l-0.3386 -0.3295c-3.2209,-3.1377 -5.1682,-5.032 -6.664,-8.9454 -0.1164,-0.3038 0.0388,-0.6442 0.3422,-0.7606 0.3034,-0.1165 0.642,0.0364 0.7584,0.3401 1.4041,3.6709 3.2773,5.4966 6.3853,8.5217l0.3387 0.3298c0.307,0.2985 0.6455,0.6072 1.0018,0.9321 1.9687,1.7953 4.6673,4.2538 5.1012,8.0934 0.0389,0.3234 -0.194,0.6153 -0.5186,0.6516 -0.021,0.0027 -0.0458,0.0039 -0.067,0.0038z"/>
  <path class="fil1" d="M54.2115 123.952c-0.0317,0 -0.0635,-0.0025 -0.0953,-0.0074 -0.3208,-0.0519 -0.5397,-0.3542 -0.4868,-0.6752 0.3212,-1.9957 1.3476,-3.017 2.2578,-3.918 0.6528,-0.647 1.2135,-1.2061 1.397,-2.0439 0.2752,-1.2563 -0.1376,-2.3908 -0.8185,-4.2708 -1.1005,-3.0378 -2.7657,-7.6292 -3.4466,-17.2208 -0.2963,-4.1349 -1.6263,-7.2313 -2.9139,-10.2256 -1.0124,-2.3588 -1.9685,-4.5858 -2.2649,-7.057 -1.344,-11.2953 -5.6409,-17.3662 -8.9076,-19.1333 -0.2116,-0.1136 -0.4586,-0.2328 -0.7267,-0.3647 -2.1624,-1.0496 -6.1843,-3.0025 -6.1843,-8.8022 0.0001,-0.3253 0.2646,-0.5891 0.5892,-0.5891 0.3247,-0.0001 0.5892,0.2638 0.5892,0.5891 0.0001,5.062 3.3196,6.6749 5.5209,7.7424 0.2858,0.1401 0.5468,0.2674 0.7726,0.3881 3.683,1.9924 8.1174,8.3005 9.5179,20.03 0.2754,2.3018 1.1995,4.4535 2.1767,6.7313 1.2666,2.9407 2.6987,6.2742 3.0057,10.607 0.6703,9.4279 2.3001,13.9266 3.3796,16.903 0.7268,2.008 1.2065,3.3345 0.8607,4.923 -0.2539,1.1779 -0.9983,1.9163 -1.718,2.63 -0.8537,0.8491 -1.6651,1.6517 -1.9226,3.2678 -0.0457,0.2899 -0.2964,0.4963 -0.5821,0.4963z"/>
  <path class="fil1" d="M54.7336 89.2179c-0.275,0 -0.5186,-0.1908 -0.575,-0.4685 -1.224,-5.8328 -3.1609,-8.83 -4.8648,-11.4748 -1.2769,-1.9777 -2.3813,-3.6858 -2.921,-6.1408 -0.067,-0.3182 0.134,-0.6321 0.4515,-0.702 0.3177,-0.071 0.6315,0.1312 0.7021,0.4487 0.4939,2.2483 1.5416,3.8735 2.7551,5.7556 1.6758,2.595 3.7607,5.8251 5.0271,11.8717 0.0672,0.3182 -0.134,0.6304 -0.455,0.6971 -0.0388,0.0091 -0.0812,0.013 -0.12,0.013z"/>
  <path class="fil1" d="M50.3557 72.3332c-0.2751,0 -0.5187,-0.1894 -0.5786,-0.4659 -1.6544,-7.746 -4.9284,-9.8725 -12.5589,-13.2038 -0.2997,-0.1306 -0.434,-0.4777 -0.3034,-0.7758 0.1271,-0.2985 0.4763,-0.4342 0.7726,-0.3044 7.8564,3.4276 11.4794,5.7915 13.2433,14.0377 0.0671,0.3182 -0.1341,0.6311 -0.4516,0.6992 -0.0423,0.0088 -0.0846,0.0131 -0.1234,0.013z"/>
  <path class="fil1" d="M58.8683 129.423c-0.0882,0 -0.1801,-0.0201 -0.2647,-0.0631 -0.2892,-0.1465 -0.4057,-0.501 -0.2611,-0.7913 1.6652,-3.2999 1.4464,-7.2108 -0.6562,-11.6248 -0.1375,-0.2938 -0.0141,-0.6452 0.2823,-0.7852 0.2928,-0.1391 0.642,-0.0149 0.7831,0.279 2.265,4.76 2.4836,9.0202 0.6456,12.6619 -0.1058,0.2053 -0.3139,0.3235 -0.529,0.3235z"/>
  <path class="fil1" d="M44.3831 157.452c-0.0176,0 -0.0353,-0.0007 -0.0494,-0.0021 -0.3244,-0.0275 -0.5644,-0.3126 -0.5397,-0.6368 1.5557,-18.2291 -1.6616,-24.0541 -4.0111,-28.3072 -0.8042,-1.4535 -1.5628,-2.8268 -1.9967,-4.4443 -0.0847,-0.3144 0.1023,-0.6378 0.4162,-0.7222 0.3141,-0.0839 0.6351,0.1013 0.7197,0.416 0.3987,1.4792 1.0901,2.7312 1.8909,4.1807 2.4237,4.3854 5.7397,10.3911 4.1557,28.9769 -0.0246,0.3072 -0.2822,0.539 -0.5856,0.539z"/>
  <path class="fil1" d="M46.9515 212.169c-0.0459,0 -0.0884,-0.0046 -0.1342,-0.0152 -4.4979,-1.0308 -7.3907,-2.0045 -9.6203,-6.8157 -0.1374,-0.2953 -0.007,-0.6456 0.2857,-0.7825 0.2964,-0.1361 0.6457,-0.0088 0.7833,0.2869 1.9368,4.1775 4.2827,5.1244 8.8159,6.163 0.3175,0.0726 0.515,0.3887 0.4409,0.7059 -0.0599,0.273 -0.3033,0.4576 -0.5713,0.4576z"/>
  <path class="fil1" d="M36.8443 211.651c-0.2505,0 -0.4834,-0.1609 -0.5645,-0.4135 -0.7337,-2.3541 -0.2787,-3.786 0.1235,-5.05 0.2788,-0.8714 0.5397,-1.6944 0.4163,-2.8085 -0.0388,-0.3235 0.194,-0.6145 0.5185,-0.6508 0.3247,-0.0339 0.6139,0.1968 0.6527,0.5203 0.1518,1.3631 -0.1623,2.346 -0.4657,3.2967 -0.381,1.2044 -0.7444,2.3414 -0.1199,4.3409 0.0989,0.3105 -0.0741,0.6414 -0.3846,0.7381 -0.0598,0.0183 -0.1199,0.0268 -0.1763,0.0268z"/>
  <path class="fil1" d="M59.5173 113.719c-0.2962,0 -0.5504,-0.2211 -0.5856,-0.521 -0.7584,-6.5773 -2.0179,-9.0816 -3.3479,-11.733 -0.8925,-1.7795 -1.8168,-3.6195 -2.5506,-6.73 -0.0776,-0.3165 0.12,-0.6343 0.4375,-0.7091 0.314,-0.0744 0.635,0.1214 0.709,0.4382 0.7021,2.9756 1.5558,4.6743 2.4589,6.4724 1.3159,2.626 2.6811,5.3418 3.4643,12.1257 0.0389,0.3231 -0.194,0.6152 -0.5186,0.653 -0.0211,0.0028 -0.0459,0.0038 -0.067,0.0038z"/>
  <path class="fil1" d="M42.9615 75.4331c-0.2752,0 -0.5187,-0.1926 -0.5787,-0.4713 -0.469,-2.3195 -1.4111,-3.3094 -2.7128,-4.6792 -0.6102,-0.6429 -1.3018,-1.3716 -2.0426,-2.3382 -0.4198,-0.5472 -0.8608,-1.0993 -1.3088,-1.6553 -1.6651,-2.073 -3.3866,-4.2171 -4.0428,-6.3595 -0.0952,-0.3112 0.0811,-0.6406 0.3916,-0.7359 0.3141,-0.0949 0.642,0.0804 0.7337,0.3912 0.5892,1.9254 2.2401,3.9801 3.8383,5.9669 0.4516,0.5627 0.8996,1.1219 1.3229,1.6761 0.7021,0.9172 1.3723,1.6217 1.9614,2.2429 1.3829,1.4552 2.4765,2.6049 3.0163,5.2554 0.0636,0.3189 -0.1412,0.6304 -0.4622,0.6949 -0.0387,0.0081 -0.0776,0.012 -0.1163,0.012z"/>
 </g>
</svg>
