<?xml version="1.0" encoding="UTF-8"?>
<!DOCTYPE svg PUBLIC "-//W3C//DTD SVG 1.1//EN" "http://www.w3.org/Graphics/SVG/1.1/DTD/svg11.dtd">
<!-- Creator: CorelDRAW -->
<svg xmlns="http://www.w3.org/2000/svg" xml:space="preserve" width="64mm" height="214mm" style="shape-rendering:geometricPrecision; text-rendering:geometricPrecision; image-rendering:optimizeQuality; fill-rule:evenodd; clip-rule:evenodd"
viewBox="0 0 64 214"
 xmlns:xlink="http://www.w3.org/1999/xlink">
 <defs>
  <style type="text/css">
   <![CDATA[
    .fil0 {fill:#51382A}
    .fil2 {fill:#CC9A75}
    .fil4 {fill:#FFA197}
    .fil1 {fill:#FFCC99}
    .fil3 {fill:white}
   ]]>
  </style>
 </defs>
 <g id="Layer_x0020_1">
  <metadata id="CorelCorpID_0Corel-Layer"/>
  <path class="fil0" d="M52.6254 21.4793l-1.4629 -2.0873 -19.0278 0.4256 -19.0281 -0.4256 -1.6867 2.4068 -0.0131 32.1506c0,2.6031 2.1103,7.8553 4.7132,7.8553l32.017 -0.0001c2.6028,0 4.7131,-5.2521 4.7131,-7.8552l-0.2247 -32.4701z"/>
  <path class="fil1" d="M62.2217 117.996c0.0903,-0.0674 -2.5587,-11.7941 -5.2825,-24.6899 -1.4446,-6.839 -3.1147,-14.116 -3.1422,-14.1054 -2.3047,-9.579 -4.1409,-17.7345 -8.1516,-21.8112 -0.5239,-0.5331 -1.3127,-1.0869 -2.2102,-1.6094 0,0 -0.6675,-0.2685 -1.6034,-0.6438 0.0008,-0.0026 0.0018,-0.005 0.0018,-0.0074 -2.2017,-0.8835 -5.8734,-2.3517 -5.9362,-2.3467l0 -8.0692 -0.0201 0 -8.2423 0 -0.0201 0 0 8.0692c-0.0448,-0.0036 -1.9428,0.7493 -3.8252,1.5014 0.0007,0.0024 0.0014,0.0046 0.0025,0.0071 -1.868,0.7464 -3.7151,1.4894 -3.7151,1.4894 -0.8971,0.5224 -1.6856,1.0763 -2.2102,1.6094 -4.0101,4.0766 -5.8469,12.2322 -8.1515,21.8112 -0.0277,-0.0107 -1.6974,7.2665 -3.1421,14.1054 -2.7242,12.8957 -5.3728,24.6225 -5.2827,24.6899 -0.0997,1.8065 -0.5843,5.5305 0.4082,8.2356 1.2801,3.4882 4.1071,7.2104 5.1846,4.821 0.3721,-0.8265 -0.4434,-6.2029 0.6964,-7.125 0.3233,-0.2593 0.6232,-0.423 0.8828,-0.4184 0.3366,0.0059 0.1221,3.2134 0.1853,3.5412 0.2137,1.1083 1.9696,0.9641 2.0759,-0.2424l0.4341 -4.9519c0.0754,-0.7476 0.0744,-1.8295 -0.4808,-2.4264 -0.5738,-0.6185 -1.4666,-0.5313 -1.5455,-1.6126 -0.1161,-1.6077 1.2768,-6.3704 1.664,-8.0617 3.3664,-14.7052 6.3827,-23.8608 7.8277,-35.4016 0.5291,1.1257 1.1433,3.0671 3.0988,4.154l0.2713 1.8019c0.1139,2.3834 -0.0678,8.0152 -2.1266,15.9093 -0.4247,1.6294 -4.2069,13.7714 -5.0835,18.8623 -0.69,3.908 -1.1727,10.287 -0.5724,17.1112 0.6429,17.8427 5.5769,50.4218 6.7845,65.375 0.4932,6.1034 0.4931,8.4603 0.4931,8.4603 0.0001,0 -2.6468,3.4025 -9.288,6.2085 0.0001,0 0.6487,0.865 3.6443,0.846 3.2749,-0.0191 12.5885,0.3087 13.9365,-0.6064 0.6974,-0.4731 0.1051,-81.5499 0.1051,-81.5499 0.1672,-1.9883 -0.1305,-6.7261 -0.1305,-6.7261l0.7518 0 0.2169 0 0.4544 0 0.0201 0 0.0745 0 0.8551 0 0.1845 0 0.6914 0 0.7518 0c0,0 -0.2978,4.7378 -0.1305,6.7261 0,0 -0.5924,81.0768 0.1051,81.5499 1.348,0.9151 10.6616,0.5873 13.9365,0.6064 2.9958,0.019 3.6445,-0.846 3.6445,-0.846 -6.641,-2.806 -9.2883,-6.2085 -9.2883,-6.2085 0.0001,0 0,-2.3569 0.4932,-8.4603 1.2076,-14.9532 6.1415,-47.5322 6.7846,-65.375 0.6005,-6.8242 0.1175,-13.2031 -0.5722,-17.1112 -0.8769,-5.091 -4.6587,-17.2328 -5.0838,-18.8623 -2.0581,-7.8941 -2.2402,-13.5258 -2.1266,-15.9092l0.2717 -1.802c1.9554,-1.0869 2.5699,-3.0282 3.0984,-4.154 1.4454,11.5407 4.4616,20.6965 7.8278,35.4016 0.3874,1.6912 1.7805,6.4541 1.664,8.0617 -0.079,1.0813 -0.9712,0.9941 -1.5451,1.6126 -0.5553,0.5969 -0.556,1.6788 -0.4809,2.4264l0.434 4.9519c0.1058,1.2065 1.8619,1.3508 2.076,0.2424 0.0629,-0.3278 -0.1513,-3.5352 0.1849,-3.5412 0.26,-0.0046 0.5599,0.1591 0.883,0.4184 1.1399,0.9221 0.3246,6.2985 0.6964,7.125 1.077,2.3893 3.9049,-1.3328 5.1844,-4.821 0.9924,-2.7052 0.5077,-6.429 0.4082,-8.2356z"/>
  <path class="fil2" d="M59.2312 130.547c0.0921,-1.0092 0.2117,-2.9936 0.06,-5.6186 -0.0124,-0.2459 -0.2234,-0.4336 -0.4696,-0.4187 -0.2455,0.0141 -0.4329,0.2247 -0.4173,0.4702 0.2124,3.6914 -0.132,6.1468 -0.1341,6.1708 -0.0123,0.0758 -0.0123,0.0759 -0.0592,0.2769 0.3076,-0.2138 0.7087,-0.5524 1.0202,-0.8806z"/>
  <path class="fil1" d="M48.8253 115.082c0,0 0.1072,-0.0007 0,0l0 0z"/>
  <path class="fil2" d="M32.8406 99.8359c0,0.5732 -0.5288,1.0372 -1.179,1.0372l0 -2.0727c0.6502,0 1.179,0.464 1.179,1.0355z"/>
  <path class="fil1" d="M20.4168 73.435c0.0476,0.1994 0.1542,0.3528 0.3722,0.4297 0.0935,0.0321 0.181,0.0745 0.2709,0.1126 0.103,-0.8651 0.2177,-1.729 0.3464,-2.5919 -0.2712,0.5676 -0.605,1.2601 -0.9895,2.0496z"/>
  <path class="fil2" d="M4.2815 130.547c-0.0922,-1.0092 -0.2117,-2.9936 -0.0603,-5.6186 0.0127,-0.2459 0.2234,-0.4336 0.4694,-0.4187 0.2454,0.0141 0.4328,0.2247 0.4177,0.4702 -0.2124,3.6914 0.1316,6.1468 0.1343,6.1708 0.0119,0.0758 0.0119,0.0759 0.0591,0.2769 -0.3081,-0.2138 -0.7093,-0.5524 -1.0202,-0.8806z"/>
  <path class="fil1" d="M14.7833 115.082c-0.1068,-0.0007 0,0 0,0l0 0z"/>
  <path class="fil3" d="M48.1378 110.715c-0.0385,-0.1528 -0.1895,-0.248 -0.3476,-0.2124 -3.9115,0.8918 -13.1233,1.0241 -15.6665,1.0432 -3.0204,-0.0191 -12.3934,-0.1514 -16.3057,-1.0432 -0.1573,-0.0356 -0.309,0.0596 -0.3468,0.2124 -0.363,1.427 -0.6391,2.6102 -0.8233,3.5182 -0.016,0.0798 0.0017,0.1627 0.0498,0.229 0.0477,0.0659 0.1206,0.1087 0.2016,0.1185 3.8492,0.4657 9.4623,2.4787 14.338,9.4291 0.2956,0.4208 0.3415,0.4868 0.5133,0.4868 0.0155,0.0045 0.0346,-0.0018 0.0504,-0.0046l2.4434 0 0.6668 0 0.8957 0c0.018,0.0028 0.0352,0.0092 0.0514,0.0046 0.1719,0 0.2181,-0.066 0.5133,-0.4868 4.8751,-6.9505 10.4881,-8.9634 14.3376,-9.4291 0.0812,-0.0099 0.1542,-0.0525 0.2018,-0.1185 0.0483,-0.0664 0.066,-0.1492 0.0498,-0.229 -0.1842,-0.9081 -0.4611,-2.0912 -0.823,-3.5182z"/>
  <path class="fil2" d="M30.7687 99.8359c0,0.5732 0.5285,1.0372 1.1787,1.0372l0 -2.0727c-0.6502,0 -1.1787,0.464 -1.1787,1.0355z"/>
  <path class="fil3" d="M42.372 63.5516c-0.2547,-3.3747 -0.8453,-6.3069 -2.4159,-9.2745 -0.2268,-0.4272 -2.6702,-1.4414 -2.4447,-1.0146 1.7469,3.3002 3.1538,8.3287 3.1538,11.2684 0,0.0208 0.0046,0.041 0.006,0.0614 -4.984,4.5724 -7.6091,7.9792 -8.2289,9.8552l-1.276 0c-0.6198,-1.8761 -3.2449,-5.2828 -8.2285,-9.8552 0.0014,-0.0205 0.006,-0.0406 0.006,-0.0614 0,-3.1468 1.5688,-8.0214 3.2483,-11.195 0.2262,-0.4265 -2.033,0.4724 -2.2595,0.8985 -1.6478,3.1139 -2.443,6.139 -2.6945,9.3158 -1.8475,2.6793 -3.5447,4.9301 -3.5945,8.6371 -0.0352,2.68 1.6687,5.9676 4.4838,6.6057 0.0829,0.018 0.4481,0.1796 1.5498,0.1796 1.9509,-0.0001 5.3975,-0.4974 7.3353,-2.7756l1.5833 -0.0001c1.9378,2.2783 5.3851,2.7757 7.336,2.7757 1.1017,-0.0001 1.4658,-0.1616 1.5504,-0.1799 2.8145,-0.6379 4.5177,-3.9254 4.4824,-6.6054 -0.0501,-3.7064 -1.7459,-5.957 -3.5926,-8.6357z"/>
  <path class="fil1" d="M41.8985 30.8938c-0.539,2.892 1.4545,5.6901 4.4556,6.2496 3.0011,0.559 5.8684,-1.3328 6.4078,-4.2245 0.5388,-2.8911 -1.4552,-5.6893 -4.4562,-6.2484 -2.9993,-0.5592 -5.8667,1.3317 -6.4072,4.2233z"/>
  <path class="fil1" d="M21.3422 30.8938c0.5394,2.892 -1.4546,5.6901 -4.4553,6.2496 -3.0002,0.559 -5.8681,-1.3328 -6.4072,-4.2245 -0.5391,-2.8911 1.4548,-5.6893 4.4555,-6.2484 2.9998,-0.5592 5.8675,1.3317 6.407,4.2233z"/>
  <path class="fil1" d="M46.0274 10.9389c-2.9312,-3.7564 -14.2508,-6.4088 -14.4064,-6.4144 -0.1559,0.0055 -11.4755,2.6582 -14.4067,6.4146 -2.9348,3.7594 -3.3247,8.4952 -3.0933,13.0305 0.1745,3.4267 0.8175,8.9592 0.9981,12.3864 1.8528,7.2658 8.122,11.4678 16.0722,12.2318l0.4297 -0.0144 0.4294 0.0144c7.9498,-0.7641 14.2194,-4.966 16.0711,-12.2318 0.1814,-3.4274 0.8248,-8.9595 0.9991,-12.3864 0.2307,-4.5354 -0.1581,-9.271 -3.0932,-13.0307z"/>
  <path class="fil0" d="M38.4007 31.6671c0,1.2281 0.9948,2.2233 2.2232,2.2233l0 0c1.2281,0 2.2229,-0.9952 2.2229,-2.2232l0 -1.5183c0,-1.2278 -0.9949,-2.2239 -2.2229,-2.2239l0 -0.0002c-1.2283,0 -2.2232,0.9964 -2.2232,2.2241l0 1.5182z"/>
  <path class="fil0" d="M24.841 31.6671c0,1.2281 -0.9952,2.2233 -2.2232,2.2233l0 0c-1.2277,0 -2.2236,-0.9952 -2.2236,-2.2232l0 -1.5183c0,-1.2278 0.9959,-2.2239 2.2236,-2.2239l0 -0.0002c1.228,0 2.2232,0.9964 2.2232,2.2241l0 1.5182z"/>
  <path class="fil0" d="M43.4843 13.8024c0,0 0.2846,-0.1575 -0.0001,0.1677 -7.2707,8.2958 -24.015,6.4693 -28.9586,16.3474 -1.1892,2.3759 -3.1188,-1.7237 -3.1188,-6.3087 0,-5.6376 1.0449,-22.551 20.2142,-22.551 16.4847,0 22.1559,13.1713 20.99,26.2939 0,0 -2.8516,-1.8284 -3.6915,0.8188 -0.7235,2.282 -4.6849,-1.4414 -5.4352,-14.7681z"/>
  <path class="fil0" d="M31.7121 43.2414c-1.862,0 -3.5437,-0.8402 -4.4214,-2.2199 -0.2184,-0.3443 -0.1034,-0.7923 0.2582,-1.0012 0.3616,-0.2085 0.8319,-0.0981 1.0509,0.2459 0.6209,0.9761 1.8567,1.5578 3.2509,1.5155 1.3102,-0.0399 2.4289,-0.6191 2.9199,-1.5131 0.1955,-0.357 0.6587,-0.4938 1.0326,-0.3083 0.3743,0.1863 0.5193,0.6266 0.3239,0.9836 -0.7458,1.3595 -2.3661,2.2387 -4.2281,2.2944 -0.062,0.0021 -0.1245,0.0032 -0.1869,0.0031z"/>
  <path class="fil2" d="M30.6922 99.8359c0,0.5732 0.5281,1.0372 1.1793,1.0372l0 -2.0727c-0.6512,0 -1.1793,0.464 -1.1793,1.0355z"/>
  <path class="fil0" d="M25.905 26.1557c-0.1372,0 -0.2763,-0.0359 -0.4029,-0.1114 -2.0606,-1.2334 -4.651,-0.5768 -5.3615,-0.1986 -0.3838,0.2042 -0.8587,0.0585 -1.0629,-0.3239 -0.2039,-0.3829 -0.059,-0.8586 0.3238,-1.0625 1.1236,-0.5995 4.2901,-1.3293 6.9074,0.2367 0.3725,0.2225 0.4935,0.7048 0.2709,1.0774 -0.1471,0.2458 -0.4078,0.3824 -0.6748,0.3823z"/>
  <path class="fil0" d="M37.4447 26.1662c-0.2653,0 -0.5239,-0.1343 -0.6721,-0.3777 -0.2247,-0.3708 -0.1072,-0.8537 0.2639,-1.0791 2.6085,-1.5836 5.7789,-0.8742 6.9056,-0.2822 0.3846,0.2017 0.532,0.6766 0.3299,1.0608 -0.2007,0.3838 -0.6766,0.5316 -1.0601,0.3302 -0.7126,-0.3745 -3.3062,-1.0139 -5.3598,0.2339 -0.1273,0.0772 -0.2684,0.1143 -0.4074,0.1141z"/>
  <path class="fil0" d="M52.6254 21.4793l-1.4629 -2.0873 -19.0278 0.4256 -19.0281 -0.4256 -1.6867 2.4068 -0.0131 32.1506c0,2.6031 2.1103,7.8553 4.7132,7.8553l32.017 -0.0001c2.6028,0 4.7131,-5.2521 4.7131,-7.8552l-0.2247 -32.4701z"/>
  <path class="fil1" d="M62.2217 117.996c0.0903,-0.0674 -2.5587,-11.7941 -5.2825,-24.6899 -1.4446,-6.839 -3.1147,-14.116 -3.1422,-14.1054 -2.3047,-9.579 -4.1409,-17.7345 -8.1516,-21.8112 -0.5239,-0.5331 -1.3127,-1.0869 -2.2102,-1.6094 0,0 -0.6675,-0.2685 -1.6034,-0.6438 0.0008,-0.0026 0.0018,-0.005 0.0018,-0.0074 -2.2017,-0.8835 -5.8734,-2.3517 -5.9362,-2.3467l0 -8.0692 -0.0201 0 -8.2423 0 -0.0201 0 0 8.0692c-0.0448,-0.0036 -1.9428,0.7493 -3.8252,1.5014 0.0007,0.0024 0.0014,0.0046 0.0025,0.0071 -1.868,0.7464 -3.7151,1.4894 -3.7151,1.4894 -0.8971,0.5224 -1.6856,1.0763 -2.2102,1.6094 -4.0101,4.0766 -5.8469,12.2322 -8.1515,21.8112 -0.0277,-0.0107 -1.6974,7.2665 -3.1421,14.1054 -2.7242,12.8957 -5.3728,24.6225 -5.2827,24.6899 -0.0997,1.8065 -0.5843,5.5305 0.4082,8.2356 1.2801,3.4882 4.1071,7.2104 5.1846,4.821 0.3721,-0.8265 -0.4434,-6.2029 0.6964,-7.125 0.3233,-0.2593 0.6232,-0.423 0.8828,-0.4184 0.3366,0.0059 0.1221,3.2134 0.1853,3.5412 0.2137,1.1083 1.9696,0.9641 2.0759,-0.2424l0.4341 -4.9519c0.0754,-0.7476 0.0744,-1.8295 -0.4808,-2.4264 -0.5738,-0.6185 -1.4666,-0.5313 -1.5455,-1.6126 -0.1161,-1.6077 1.2768,-6.3704 1.664,-8.0617 3.3664,-14.7052 6.3827,-23.8608 7.8277,-35.4016 0.5291,1.1257 1.1433,3.0671 3.0988,4.154l0.2713 1.8019c0.1139,2.3834 -0.0678,8.0152 -2.1266,15.9093 -0.4247,1.6294 -4.2069,13.7714 -5.0835,18.8623 -0.69,3.908 -1.1727,10.287 -0.5724,17.1112 0.6429,17.8427 5.5769,50.4218 6.7845,65.375 0.4932,6.1034 0.4931,8.4603 0.4931,8.4603 0.0001,0 -2.6468,3.4025 -9.288,6.2085 0.0001,0 0.6487,0.865 3.6443,0.846 3.2749,-0.0191 12.5885,0.3087 13.9365,-0.6064 0.6974,-0.4731 0.1051,-81.5499 0.1051,-81.5499 0.1672,-1.9883 -0.1305,-6.7261 -0.1305,-6.7261l0.7518 0 0.2169 0 0.4544 0 0.0201 0 0.0745 0 0.8551 0 0.1845 0 0.6914 0 0.7518 0c0,0 -0.2978,4.7378 -0.1305,6.7261 0,0 -0.5924,81.0768 0.1051,81.5499 1.348,0.9151 10.6616,0.5873 13.9365,0.6064 2.9958,0.019 3.6445,-0.846 3.6445,-0.846 -6.641,-2.806 -9.2883,-6.2085 -9.2883,-6.2085 0.0001,0 0,-2.3569 0.4932,-8.4603 1.2076,-14.9532 6.1415,-47.5322 6.7846,-65.375 0.6005,-6.8242 0.1175,-13.2031 -0.5722,-17.1112 -0.8769,-5.091 -4.6587,-17.2328 -5.0838,-18.8623 -2.0581,-7.8941 -2.2402,-13.5258 -2.1266,-15.9092l0.2717 -1.802c1.9554,-1.0869 2.5699,-3.0282 3.0984,-4.154 1.4454,11.5407 4.4616,20.6965 7.8278,35.4016 0.3874,1.6912 1.7805,6.4541 1.664,8.0617 -0.079,1.0813 -0.9712,0.9941 -1.5451,1.6126 -0.5553,0.5969 -0.556,1.6788 -0.4809,2.4264l0.434 4.9519c0.1058,1.2065 1.8619,1.3508 2.076,0.2424 0.0629,-0.3278 -0.1513,-3.5352 0.1849,-3.5412 0.26,-0.0046 0.5599,0.1591 0.883,0.4184 1.1399,0.9221 0.3246,6.2985 0.6964,7.125 1.077,2.3893 3.9049,-1.3328 5.1844,-4.821 0.9924,-2.7052 0.5077,-6.429 0.4082,-8.2356z"/>
  <path class="fil2" d="M59.2312 130.547c0.0921,-1.0092 0.2117,-2.9936 0.06,-5.6186 -0.0124,-0.2459 -0.2234,-0.4336 -0.4696,-0.4187 -0.2455,0.0141 -0.4329,0.2247 -0.4173,0.4702 0.2124,3.6914 -0.132,6.1468 -0.1341,6.1708 -0.0123,0.0758 -0.0123,0.0759 -0.0592,0.2769 0.3076,-0.2138 0.7087,-0.5524 1.0202,-0.8806z"/>
  <path class="fil1" d="M48.8253 115.082c0,0 0.1072,-0.0007 0,0l0 0z"/>
  <path class="fil2" d="M32.8406 99.8359c0,0.5732 -0.5288,1.0372 -1.179,1.0372l0 -2.0727c0.6502,0 1.179,0.464 1.179,1.0355z"/>
  <path class="fil1" d="M20.4168 73.435c0.0476,0.1994 0.1542,0.3528 0.3722,0.4297 0.0935,0.0321 0.181,0.0745 0.2709,0.1126 0.103,-0.8651 0.2177,-1.729 0.3464,-2.5919 -0.2712,0.5676 -0.605,1.2601 -0.9895,2.0496z"/>
  <path class="fil2" d="M4.2815 130.547c-0.0922,-1.0092 -0.2117,-2.9936 -0.0603,-5.6186 0.0127,-0.2459 0.2234,-0.4336 0.4694,-0.4187 0.2454,0.0141 0.4328,0.2247 0.4177,0.4702 -0.2124,3.6914 0.1316,6.1468 0.1343,6.1708 0.0119,0.0758 0.0119,0.0759 0.0591,0.2769 -0.3081,-0.2138 -0.7093,-0.5524 -1.0202,-0.8806z"/>
  <path class="fil1" d="M14.7833 115.082c-0.1068,-0.0007 0,0 0,0l0 0z"/>
  <path class="fil4" d="M48.1378 110.715c-0.0385,-0.1528 -0.1895,-0.248 -0.3476,-0.2124 -3.9115,0.8918 -13.1233,1.0241 -15.6665,1.0432 -3.0204,-0.0191 -12.3934,-0.1514 -16.3057,-1.0432 -0.1573,-0.0356 -0.309,0.0596 -0.3468,0.2124 -0.363,1.427 -0.6391,2.6102 -0.8233,3.5182 -0.016,0.0798 0.0017,0.1627 0.0498,0.229 0.0477,0.0659 0.1206,0.1087 0.2016,0.1185 3.8492,0.4657 9.4623,2.4787 14.338,9.4291 0.2956,0.4208 0.3415,0.4868 0.5133,0.4868 0.0155,0.0045 0.0346,-0.0018 0.0504,-0.0046l2.4434 0 0.6668 0 0.8957 0c0.018,0.0028 0.0352,0.0092 0.0514,0.0046 0.1719,0 0.2181,-0.066 0.5133,-0.4868 4.8751,-6.9505 10.4881,-8.9634 14.3376,-9.4291 0.0812,-0.0099 0.1542,-0.0525 0.2018,-0.1185 0.0483,-0.0664 0.066,-0.1492 0.0498,-0.229 -0.1842,-0.9081 -0.4611,-2.0912 -0.823,-3.5182z"/>
  <path class="fil2" d="M30.7687 99.8359c0,0.5732 0.5285,1.0372 1.1787,1.0372l0 -2.0727c-0.6502,0 -1.1787,0.464 -1.1787,1.0355z"/>
  <path class="fil4" d="M42.372 63.5516c-0.2547,-3.3747 -0.8453,-6.3069 -2.4159,-9.2745 -0.2268,-0.4272 -2.6702,-1.4414 -2.4447,-1.0146 1.7469,3.3002 3.1538,8.3287 3.1538,11.2684 0,0.0208 0.0046,0.041 0.006,0.0614 -4.984,4.5724 -7.6091,7.9792 -8.2289,9.8552l-1.276 0c-0.6198,-1.8761 -3.2449,-5.2828 -8.2285,-9.8552 0.0014,-0.0205 0.006,-0.0406 0.006,-0.0614 0,-3.1468 1.5688,-8.0214 3.2483,-11.195 0.2262,-0.4265 -2.033,0.4724 -2.2595,0.8985 -1.6478,3.1139 -2.443,6.139 -2.6945,9.3158 -1.8475,2.6793 -3.5447,4.9301 -3.5945,8.6371 -0.0352,2.68 1.6687,5.9676 4.4838,6.6057 0.0829,0.018 0.4481,0.1796 1.5498,0.1796 1.9509,-0.0001 5.3975,-0.4974 7.3353,-2.7756l1.5833 -0.0001c1.9378,2.2783 5.3851,2.7757 7.336,2.7757 1.1017,-0.0001 1.4658,-0.1616 1.5504,-0.1799 2.8145,-0.6379 4.5177,-3.9254 4.4824,-6.6054 -0.0501,-3.7064 -1.7459,-5.957 -3.5926,-8.6357z"/>
  <path class="fil1" d="M41.8985 30.8938c-0.539,2.892 1.4545,5.6901 4.4556,6.2496 3.0011,0.559 5.8684,-1.3328 6.4078,-4.2245 0.5388,-2.8911 -1.4552,-5.6893 -4.4562,-6.2484 -2.9993,-0.5592 -5.8667,1.3317 -6.4072,4.2233z"/>
  <path class="fil1" d="M21.3422 30.8938c0.5394,2.892 -1.4546,5.6901 -4.4553,6.2496 -3.0002,0.559 -5.8681,-1.3328 -6.4072,-4.2245 -0.5391,-2.8911 1.4548,-5.6893 4.4555,-6.2484 2.9998,-0.5592 5.8675,1.3317 6.407,4.2233z"/>
  <path class="fil1" d="M46.0274 10.9389c-2.9312,-3.7564 -14.2508,-6.4088 -14.4064,-6.4144 -0.1559,0.0055 -11.4755,2.6582 -14.4067,6.4146 -2.9348,3.7594 -3.3247,8.4952 -3.0933,13.0305 0.1745,3.4267 0.8175,8.9592 0.9981,12.3864 1.8528,7.2658 8.122,11.4678 16.0722,12.2318l0.4297 -0.0144 0.4294 0.0144c7.9498,-0.7641 14.2194,-4.966 16.0711,-12.2318 0.1814,-3.4274 0.8248,-8.9595 0.9991,-12.3864 0.2307,-4.5354 -0.1581,-9.271 -3.0932,-13.0307z"/>
  <path class="fil0" d="M38.4007 31.6671c0,1.2281 0.9948,2.2233 2.2232,2.2233l0 0c1.2281,0 2.2229,-0.9952 2.2229,-2.2232l0 -1.5183c0,-1.2278 -0.9949,-2.2239 -2.2229,-2.2239l0 -0.0002c-1.2283,0 -2.2232,0.9964 -2.2232,2.2241l0 1.5182z"/>
  <path class="fil0" d="M24.841 31.6671c0,1.2281 -0.9952,2.2233 -2.2232,2.2233l0 0c-1.2277,0 -2.2236,-0.9952 -2.2236,-2.2232l0 -1.5183c0,-1.2278 0.9959,-2.2239 2.2236,-2.2239l0 -0.0002c1.228,0 2.2232,0.9964 2.2232,2.2241l0 1.5182z"/>
  <path class="fil0" d="M43.4843 13.8024c0,0 0.2846,-0.1575 -0.0001,0.1677 -7.2707,8.2958 -24.015,6.4693 -28.9586,16.3474 -1.1892,2.3759 -3.1188,-1.7237 -3.1188,-6.3087 0,-5.6376 1.0449,-22.551 20.2142,-22.551 16.4847,0 22.1559,13.1713 20.99,26.2939 0,0 -2.8516,-1.8284 -3.6915,0.8188 -0.7235,2.282 -4.6849,-1.4414 -5.4352,-14.7681z"/>
  <path class="fil0" d="M31.7121 44.0268c-1.862,0 -3.5437,-0.84 -4.4214,-2.2197 -0.2184,-0.3443 -0.1034,-0.7923 0.2582,-1.0015 0.3616,-0.2086 0.8319,-0.0981 1.0509,0.2462 0.6209,0.9761 1.8567,1.5579 3.2509,1.5155 1.3102,-0.0399 2.4289,-0.6191 2.9199,-1.513 0.1955,-0.3571 0.6587,-0.4943 1.0326,-0.3083 0.3743,0.1862 0.5193,0.6265 0.3239,0.9831 -0.7458,1.3599 -2.3661,2.2391 -4.2281,2.2949 -0.062,0.002 -0.1245,0.0028 -0.1869,0.0028z"/>
  <path class="fil2" d="M30.6922 99.8359c0,0.5732 0.5281,1.0372 1.1793,1.0372l0 -2.0727c-0.6512,0 -1.1793,0.464 -1.1793,1.0355z"/>
  <path class="fil0" d="M25.905 26.1557c-0.1372,0 -0.2763,-0.0359 -0.4029,-0.1114 -2.0606,-1.2334 -4.651,-0.5768 -5.3615,-0.1986 -0.3838,0.2042 -0.8587,0.0585 -1.0629,-0.3239 -0.2039,-0.3829 -0.059,-0.8586 0.3238,-1.0625 1.1236,-0.5995 4.2901,-1.3293 6.9074,0.2367 0.3725,0.2225 0.4935,0.7048 0.2709,1.0774 -0.1471,0.2458 -0.4078,0.3824 -0.6748,0.3823z"/>
  <path class="fil0" d="M37.4447 26.1662c-0.2653,0 -0.5239,-0.1343 -0.6721,-0.3777 -0.2247,-0.3708 -0.1072,-0.8537 0.2639,-1.0791 2.6085,-1.5836 5.7789,-0.8742 6.9056,-0.2822 0.3846,0.2017 0.532,0.6766 0.3299,1.0608 -0.2007,0.3838 -0.6766,0.5316 -1.0601,0.3302 -0.7126,-0.3745 -3.3062,-1.0139 -5.3598,0.2339 -0.1273,0.0772 -0.2684,0.1143 -0.4074,0.1141z"/>
 </g>
</svg>
