<?xml version="1.0" encoding="UTF-8"?>
<!DOCTYPE svg PUBLIC "-//W3C//DTD SVG 1.1//EN" "http://www.w3.org/Graphics/SVG/1.1/DTD/svg11.dtd">
<!-- Creator: CorelDRAW -->
<svg xmlns="http://www.w3.org/2000/svg" xml:space="preserve" width="67mm" height="197mm" style="shape-rendering:geometricPrecision; text-rendering:geometricPrecision; image-rendering:optimizeQuality; fill-rule:evenodd; clip-rule:evenodd"
viewBox="0 0 67 197"
 xmlns:xlink="http://www.w3.org/1999/xlink">
 <defs>
  <style type="text/css">
   <![CDATA[
    .fil4 {fill:#494949}
    .fil3 {fill:#564134}
    .fil1 {fill:#CC9A75}
    .fil2 {fill:#D8B084}
    .fil0 {fill:#FFD0A6}
   ]]>
  </style>
 </defs>
 <g id="Layer_x0020_1">
  <metadata id="CorelCorpID_0Corel-Layer"/>
  <path class="fil0" d="M63.7523 87.2453c-3.5236,-23.3288 -5.9249,-28.2896 -7.0704,-29.7765 -1.2711,-2.0945 -3.3168,-4.6144 -9.5158,-6.2841 0,0 -7.7887,-3.031 -8.1129,-3.0536l0 -8.255 -5.2281 0 -0.0075 0 -0.3869 0 -0.0074 0 -5.2289 0 0 8.255c-0.3242,0.0225 -8.1129,3.0536 -8.1129,3.0536 -6.1985,1.6697 -8.2449,4.1896 -9.5156,6.2841 -1.1453,1.4869 -3.5466,6.4477 -7.07,29.7765 -2.3193,15.3588 -2.9499,26.6164 -2.8395,26.6901 0.0073,2.1329 0.1813,6.9812 1.5347,10.0948 1.7457,4.0163 5.0555,7.7128 6.1595,4.8277 0.381,-0.9983 -0.9476,-7.2675 0.3303,-8.4306 0.3624,-0.326 0.704,-0.5394 1.0089,-0.5521 0.3969,-0.0159 0.3657,3.7719 0.4618,4.1536 0.3278,1.2904 2.3837,0.999 2.4249,-0.4283l0.171 -5.8551c0.0374,-0.8848 -0.0384,-2.1565 -0.7316,-2.8222 -0.7179,-0.6882 -1.7618,-0.5221 -1.9287,-1.7893 -0.2478,-1.8845 0.5223,-9.7486 0.8203,-11.7711 1.8128,-12.3257 5.492,-33.3943 5.492,-33.3943l1.6384 4.1941c0,0 0.8781,10.6346 1.0615,24.3516 0.0639,4.7931 0.6191,92.3237 0.6191,92.3237 -0.2261,0.073 -0.461,0.1937 -0.721,0.3687 0,0 -8.076,5.6416 -8.8297,6.3941 -1.3485,1.3483 1.1161,1.422 2.5358,1.3821l14.6642 -0.1619c1.729,-0.0402 3.3172,-0.2585 3.5292,-0.4864 0,-0.0001 0.2579,-0.0131 0.3221,-1.2051 0,0 1.1232,-79.676 1.1508,-80.6754l2.5086 0c0.0275,0.9994 1.1504,80.6754 1.1504,80.6754 0.0642,1.192 0.322,1.2051 0.322,1.2051 0.2121,0.2279 1.8006,0.4462 3.5296,0.4864l14.6639 0.1619c1.4196,0.0399 3.8837,-0.0338 2.5354,-1.3821 -0.7535,-0.7525 -8.8293,-6.3941 -8.8293,-6.3941 -0.26,-0.175 -0.495,-0.2957 -0.7207,-0.3687 0,0 0.5482,-87.6032 0.6036,-92.3237 0.1781,-15.1572 1.0763,-24.3515 1.0763,-24.3515l1.6386 -4.1942c0,0 3.6792,21.0686 5.4924,33.3943 0.2978,2.0224 1.0679,9.8866 0.8206,11.7711 -0.1672,1.2671 -1.2118,1.1011 -1.9297,1.7893 -0.6928,0.6657 -0.769,1.9375 -0.7309,2.8222l0.1711 5.855c0.0409,1.4274 2.0965,1.7188 2.4246,0.4284 0.0963,-0.3818 0.0649,-4.1695 0.4618,-4.1536 0.3052,0.0126 0.6463,0.2261 1.0089,0.5521 1.2778,1.163 -0.0508,7.4323 0.3302,8.4306 1.1039,2.885 4.4133,-0.8114 6.1592,-4.8277 1.3536,-3.1137 1.5279,-7.9619 1.5353,-10.0948 0.1108,-0.0737 -0.5207,-11.3312 -2.8395,-26.6901z"/>
  <path class="fil1" d="M4.5728 128.523c-0.1781,-1.1797 -0.4547,-3.5051 -0.4561,-6.6046 -0.0021,-0.2901 0.2324,-0.5253 0.5228,-0.5242 0.2897,-0.0011 0.5247,0.2349 0.5236,0.5235 0.004,4.3574 0.5769,7.2238 0.5821,7.251 0.0191,0.0885 0.0191,0.0885 0.0882,0.3214 -0.3769,-0.2287 -0.8721,-0.6001 -1.2606,-0.9671z"/>
  <path class="fil1" d="M62.6749 128.523c0.1785,-1.1797 0.4547,-3.5051 0.4572,-6.6046 0.0021,-0.2901 -0.2325,-0.5253 -0.5232,-0.5242 -0.2903,-0.0011 -0.5246,0.2349 -0.5232,0.5235 -0.0045,4.3574 -0.5778,7.2238 -0.5828,7.251 -0.0183,0.0885 -0.0183,0.0885 -0.0881,0.3214 0.3767,-0.2287 0.8724,-0.6001 1.2601,-0.9671z"/>
  <path class="fil1" d="M21.1551 68.2719c0,0.5139 0.818,0.931 1.827,0.931 1.0089,-0.0001 1.827,-0.417 1.827,-0.931 0,-0.5148 -0.8181,-0.9321 -1.827,-0.9321 -1.009,0 -1.8271,0.4174 -1.827,0.9321z"/>
  <path class="fil1" d="M46.0936 68.2719c0,0.5139 -0.8181,0.931 -1.8267,0.931 -1.0096,-0.0001 -1.827,-0.417 -1.827,-0.931 0,-0.5148 0.8174,-0.9321 1.827,-0.9321 1.0086,0 1.8267,0.4174 1.8267,0.9321z"/>
  <path class="fil1" d="M34.8333 98.8552c0,-0.3976 -0.6244,-0.7193 -1.4002,-0.727l0 -0.0015c-0.0049,0 -0.0095,0.0004 -0.0148,0.0004 -0.0042,0 -0.0092,-0.0004 -0.0141,-0.0004l0 0.0014c-0.7754,0.0078 -1.4002,0.3296 -1.4002,0.7271 0,0.3968 0.6248,0.7194 1.4002,0.7271l0 0.0014c0.0049,0 0.0099,-0.0003 0.0141,-0.0003 0.0053,-0.0001 0.0099,0.0003 0.0148,0.0003l0 -0.0015c0.7758,-0.0077 1.4002,-0.3301 1.4002,-0.727z"/>
  <path class="fil0" d="M43.1603 27.7309c-0.599,3.2075 1.4181,6.2746 4.5056,6.8503 3.0876,0.575 6.0731,-1.5589 6.6707,-4.7667 0.5987,-3.2072 -1.4174,-6.2745 -4.505,-6.8502 -3.0874,-0.5756 -6.0737,1.5585 -6.6713,4.7666z"/>
  <path class="fil2" d="M48.7479 31.496c-0.1361,0 -0.2727,-0.052 -0.376,-0.1568 -0.2053,-0.2083 -0.2036,-0.5429 0.0042,-0.7486l3.7126 -3.6699c0.2082,-0.2058 0.5429,-0.2036 0.7486,0.0042 0.2054,0.2077 0.2032,0.5429 -0.0042,0.7486l-3.713 3.6699c-0.103,0.1018 -0.2378,0.1528 -0.3722,0.1526z"/>
  <path class="fil0" d="M24.0891 27.7309c0.5983,3.2075 -1.4185,6.2746 -4.506,6.8503 -3.0871,0.575 -6.0733,-1.5589 -6.6711,-4.7667 -0.5982,-3.2072 1.4185,-6.2745 4.5057,-6.8502 3.0868,-0.5756 6.0734,1.5585 6.6714,4.7666z"/>
  <path class="fil2" d="M18.5004 31.496c-0.1344,0 -0.2688,-0.0506 -0.3718,-0.1525l-3.7126 -3.6702c-0.2077,-0.2055 -0.2097,-0.5406 -0.0043,-0.7484 0.2055,-0.2074 0.5403,-0.2099 0.7484,-0.0042l3.7125 3.6699c0.2078,0.2055 0.2095,0.5405 0.0042,0.7486 -0.1033,0.1044 -0.2399,0.157 -0.3764,0.1568z"/>
  <path class="fil0" d="M47.4571 8.9656c-2.7044,-3.4647 -6.9212,-5.7399 -11.399,-5.9079 -0.0003,-0.0001 -0.0885,-0.0031 -0.2321,-0.0088l0.0046 -0.1652c0,0 -1.0855,0.0407 -2.2063,0.0827 -1.1204,-0.0422 -2.2059,-0.0826 -2.2059,-0.0826l0.0046 0.165c-0.1436,0.0056 -0.2314,0.0089 -0.2321,0.0089 -4.4775,0.1679 -8.6942,2.4434 -11.3983,5.908 -2.7065,3.4674 -3.066,7.8359 -2.8531,12.0191 0.1614,3.1609 0.7548,8.2632 0.921,11.4247 0,7.7431 8.9672,12.0111 12.9102,12.0111l1.8214 0.0309 0.0011 0.0357 1.0311 -0.0176 1.0319 0.0176 0.0011 -0.0357 1.8207 -0.0309c3.1796,0 12.9109,-4.2679 12.9109,-12.0111 0.1662,-3.1616 0.7592,-8.2638 0.9208,-11.4247 0.2131,-4.1833 -0.1461,-8.5517 -2.8526,-12.0192z"/>
  <path class="fil3" d="M17.4124 27.2971c-0.658,0 -1.0195,-5.6847 -1.0515,-7.2087 -0.1622,-7.7386 1.3627,-11.3157 5.6588,-14.7232 4.3663,-3.4629 10.0097,-4.1102 17.4883,-3.3196 3.1376,0.3311 9.5091,0.4223 10.3751,-1.7575 0.8771,0.673 0.3003,3.8096 -0.6653,4.8034 0.8372,0.2646 2.3435,-0.9426 2.7471,-1.7565 0.9789,3.6685 -1.1666,8.7196 -1.1666,8.7196 0.2515,1.9059 -0.0184,14.4216 -1.4521,14.5196 -0.3471,-1.8193 0.0953,-9.5003 -1.5095,-12.375 -7.3289,5.1098 -16.6497,-4.1261 -25.5778,1.1708 -5.4591,3.2387 -4.2316,11.9271 -4.8465,11.9271z"/>
  <path class="fil3" d="M33.4391 39.8168c-0.08,0 -0.1601,-0.0014 -0.2409,-0.0039 -1.8881,-0.0667 -3.6435,-0.8907 -4.4722,-2.0997 -0.2201,-0.3214 -0.1383,-0.7606 0.1831,-0.9811 0.3217,-0.2198 0.7609,-0.1379 0.9811,0.1831 0.5658,0.8262 1.9466,1.4376 3.3574,1.4873 0.89,0.0289 2.5484,-0.1344 3.7066,-1.5924 0.242,-0.3052 0.6854,-0.3567 0.9913,-0.1136 0.3052,0.2423 0.356,0.6862 0.1136,0.9913 -1.0809,1.361 -2.7545,2.129 -4.62,2.129z"/>
  <path class="fil3" d="M26.8277 28.0845c0,1.1327 -0.9183,2.0507 -2.0507,2.0507l0 0c-1.1327,0 -2.0507,-0.9179 -2.0507,-2.0507l0 -1.4006c0,-1.1325 0.9179,-2.0506 2.0507,-2.0506l0 0c1.1324,0 2.0507,0.9182 2.0507,2.0507l0 1.4005z"/>
  <path class="fil3" d="M44.4613 28.0845c0,1.1327 -0.9186,2.0507 -2.0507,2.0507l0 0c-1.1327,0 -2.0507,-0.9179 -2.0507,-2.0507l0 -1.4006c0,-1.1325 0.9179,-2.0506 2.0507,-2.0506l0 0c1.1321,0 2.0507,0.9182 2.0507,2.0507l0 1.4005z"/>
  <path class="fil3" d="M27.529 22.5235c-0.1234,0 -0.248,-0.0323 -0.3616,-0.1 -1.851,-1.1079 -4.1776,-0.5183 -4.8157,-0.1785 -0.3447,0.1832 -0.7712,0.0525 -0.9547,-0.2907 -0.183,-0.3436 -0.0529,-0.7712 0.2907,-0.9546 1.0093,-0.5382 3.8538,-1.1938 6.2043,0.2127 0.3345,0.1998 0.4431,0.6336 0.2431,0.9676 -0.1319,0.2212 -0.3662,0.3437 -0.6061,0.3435z"/>
  <path class="fil3" d="M39.6583 22.5235c-0.2385,0 -0.471,-0.1205 -0.604,-0.3396 -0.2021,-0.3327 -0.0963,-0.7666 0.237,-0.9691 2.3425,-1.4224 5.1901,-0.7852 6.2026,-0.2532 0.345,0.1808 0.4777,0.6074 0.2967,0.9525 -0.181,0.3445 -0.6079,0.4776 -0.9529,0.2966 -0.6395,-0.3363 -2.9693,-0.9105 -4.814,0.2103 -0.1143,0.0693 -0.2409,0.1027 -0.3654,0.1025z"/>
  <path class="fil4" d="M48.2996 104.414c-0.0018,-0.096 -0.0805,-0.1732 -0.1765,-0.1732l-28.9133 -0.0001c-0.0959,0 -0.1746,0.0774 -0.1764,0.1733 -0.0105,0.6187 -0.0441,2.902 -0.0144,6.3006 0.0003,0.0776 0.0522,0.1461 0.127,0.1679 3.0279,0.8791 12.9296,3.749 13.2193,3.749 0.0074,0 0.0151,-0.0007 0.0222,-0.0014l2.4755 -0.0001c0.0063,0.0007 0.0151,-0.0034 0.019,0.0008 0.2529,-0.0001 10.2439,-2.8691 13.3001,-3.7483 0.0751,-0.0212 0.127,-0.0899 0.1277,-0.1679 0.0289,-3.2512 0.006,-5.3428 -0.0102,-6.3006z"/>
 </g>
</svg>
