<?xml version="1.0" encoding="UTF-8"?>
<!DOCTYPE svg PUBLIC "-//W3C//DTD SVG 1.1//EN" "http://www.w3.org/Graphics/SVG/1.1/DTD/svg11.dtd">
<!-- Creator: CorelDRAW -->
<svg xmlns="http://www.w3.org/2000/svg" xml:space="preserve" width="64mm" height="214mm" style="shape-rendering:geometricPrecision; text-rendering:geometricPrecision; image-rendering:optimizeQuality; fill-rule:evenodd; clip-rule:evenodd"
viewBox="0 0 64 214"
 xmlns:xlink="http://www.w3.org/1999/xlink">
 <defs>
  <style type="text/css">
   <![CDATA[
    .fil8 {fill:#843925}
    .fil2 {fill:#8C9327}
    .fil5 {fill:#A36D66}
    .fil4 {fill:#BF7F77}
    .fil3 {fill:#E0A396}
    .fil6 {fill:#E88882}
    .fil1 {fill:#F49992}
    .fil0 {fill:#FFCC99}
    .fil7 {fill:white}
   ]]>
  </style>
 </defs>
 <g id="Layer_x0020_1">
  <metadata id="CorelCorpID_0Corel-Layer"/>
  <path class="fil0" d="M62.3872 118.002c0.0917,-0.0674 -2.5577,-11.7941 -5.2812,-24.6899 -1.4462,-6.839 -3.115,-14.116 -3.1432,-14.1054 -2.3035,-9.579 -4.1416,-16.5563 -8.1492,-20.6326 -0.5253,-0.5335 -1.3159,-1.0873 -2.2119,-1.6094 0.0002,0 -0.6668,-0.2688 -1.6016,-0.6442 0,-0.0024 0,-0.0049 0,-0.0074 -0.5397,-0.217 -1.1713,-0.4695 -1.8133,-0.7263 -0.021,-0.042 -2.4483,-1.0217 -2.4201,-0.9635 -0.97,-0.3839 -1.6757,-0.659 -1.7039,-0.6568l0.0001 -4.8706c5.7892,-1.5109 10.234,-5.137 11.9767,-10.6943 2.3957,-0.1981 4.4415,-1.9026 4.8895,-4.2983 0.501,-2.6889 -1.1888,-5.2941 -3.8417,-6.0963 0.0847,-1.0367 0.1552,-2.0091 0.2011,-2.853 0.2293,-4.5354 -0.1588,-9.2713 -3.0939,-13.0305 -2.9316,-3.7569 -6.283,-6.4149 -14.4074,-6.4149 -8.1207,0 -11.4759,2.6582 -14.4075,6.4149 -2.935,3.7592 -3.3231,8.4952 -3.0939,13.0305 0.0462,0.8438 0.1165,1.8165 0.2011,2.853 -2.6528,0.8017 -4.3427,3.4074 -3.8417,6.0963 0.4483,2.3956 2.4941,4.1 4.8895,4.2975 1.7711,5.6447 6.3253,9.2993 12.2484,10.7665l0.0002 4.7991c-0.0246,-0.0021 -3.7749,1.4814 -3.8278,1.5015 0.0003,0.002 0.0035,0.0046 0.0035,0.0067 -1.8697,0.7464 -3.7147,1.4901 -3.7147,1.4901 -0.8994,0.5221 -1.6863,1.076 -2.212,1.6094 -4.0075,4.0763 -5.8455,11.0536 -8.1491,20.6326 -0.0279,-0.0107 -1.6969,7.2665 -3.1433,14.1054 -2.7231,12.8957 -5.3728,24.6225 -5.2846,24.6899 -0.0987,1.8065 -0.582,5.5305 0.4092,8.2356 1.2808,3.4882 4.1064,7.2104 5.1858,4.821 0.3705,-0.8265 -0.4444,-6.2029 0.6951,-7.125 0.3247,-0.2593 0.6244,-0.423 0.8854,-0.4184 0.3355,0.0059 0.12,3.2134 0.1835,3.5412 0.2155,1.1083 1.9685,0.9641 2.0778,-0.2424l0.434 -4.9519c0.0742,-0.7476 0.074,-1.8295 -0.4834,-2.4264 -0.5711,-0.6185 -1.464,-0.5313 -1.5451,-1.6126 -0.1162,-1.6077 1.277,-6.3704 1.6651,-8.0617 3.2423,-14.1697 6.163,-23.1873 7.6623,-34.1503 0.7021,1.4129 1.8309,2.606 3.2914,3.0773l0.2436 1.6273c0.1131,2.3834 -0.0672,8.0152 -2.1274,15.9093 -0.3245,1.2431 -2.6,8.6014 -4.0499,14.2829 0.0003,0 -1.0054,4.4168 -1.0337,4.5794 -0.6876,3.908 -1.1711,10.287 -0.5715,17.1112 0.6423,17.8427 5.5775,50.4218 6.784,65.375 0.494,6.1034 0.4938,8.4603 0.4938,8.4603 0.0002,0 -2.6458,3.4025 -9.2886,6.2085 0.0004,0 0.6491,0.865 3.6442,0.846 3.2741,-0.0191 12.5872,0.3087 13.9383,-0.6064 0.6952,-0.4731 0.1023,-81.5499 0.1023,-81.5499 0.1448,-1.6912 -0.0494,-5.3703 -0.1129,-6.4322 0.0108,-0.0015 0.0212,-0.0004 0.0282,-0.0025l2.4448 0 0.6668 0 0.8291 0c-0.0635,1.0583 -0.2577,4.7421 -0.1166,6.4347 0.0003,0 -0.5891,81.0768 0.1059,81.5499 1.3477,0.9151 10.6609,0.5873 13.9382,0.6064 2.9952,0.019 3.6442,-0.846 3.6442,-0.846 -6.6426,-2.806 -9.2886,-6.2085 -9.2886,-6.2085 0,0 0,-2.3569 0.4939,-8.4603 1.2068,-14.9532 6.1418,-47.5322 6.7839,-65.375 0.5998,-6.8242 0.1164,-13.2031 -0.5715,-17.1112 -0.028,-0.1573 -0.9984,-4.567 -1.0266,-4.5607 -1.4533,-5.684 -3.7324,-13.0573 -4.0569,-14.3016 -2.0601,-7.8941 -2.2402,-13.5258 -2.1273,-15.9092l0.2402 -1.5981c1.457,-0.4318 2.5961,-1.5745 3.3158,-2.9524 1.5067,10.8931 4.4132,19.8931 7.6412,33.9961 0.3881,1.6912 1.7815,6.4541 1.665,8.0617 -0.0807,1.0813 -0.9736,0.9941 -1.5451,1.6126 -0.5573,0.5969 -0.5574,1.6788 -0.4833,2.4264l0.434 4.9519c0.106,1.2065 1.8626,1.3508 2.0778,0.2424 0.0637,-0.3278 -0.1517,-3.5352 0.1834,-3.5412 0.2613,-0.0046 0.561,0.1591 0.8855,0.4184 1.1395,0.9221 0.3246,6.2985 0.6949,7.125 1.0761,2.3893 3.9053,-1.3328 5.1859,-4.821 0.9916,-2.7052 0.5044,-6.429 0.4058,-8.2356z"/>
  <path class="fil0" d="M49.0169 115.088c-0.0103,0 -0.0248,0 -0.0248,0 0.0145,0 0.0177,0 0.0248,0z"/>
  <path class="fil0" d="M49.0169 115.088c0.0179,-0.0004 0.0281,-0.0003 -0.0001,0l0.0001 0z"/>
  <path class="fil0" d="M14.9491 115.088c0,0 -0.0106,0 -0.0247,0 0.0073,0 0.0106,0 0.0247,0z"/>
  <path class="fil0" d="M14.9245 115.088c-0.0246,-0.0004 -0.0178,-0.0003 -0.0001,0l0.0001 0z"/>
  <path class="fil1" d="M40.1059 80.568c-1.0938,-1.6284 -2.5508,-1.6813 -3.8491,-1.3458 -2.3033,0.5958 -2.42,-0.6286 -2.7587,-1.2636 -2.0072,-1.9308 -2.5505,0.3972 -0.7232,3.4508 0.8857,1.4848 0.5256,3.9642 0.1059,5.5376 -0.2362,0.8766 -0.6809,1.6859 -1.0584,2.4994 -0.4053,0.8671 -1.0371,1.7544 -1.9755,1.9703 -1.1571,0.2667 -2.4906,0.4646 -3.2632,1.4877 -0.5959,0.7877 -1.1289,1.7868 -1.1254,2.728 0.0001,1.1243 0.2823,2.2317 0.7197,3.2812 0.4377,1.0473 3.4078,2.1145 2.6811,0.2744 -0.49,-1.2439 -1.203,-2.4673 -0.8467,-3.6512 0.4622,-1.546 1.9897,-2.0087 3.4079,-1.6009 1.7605,0.5065 3.4466,0.9221 5.2493,0.2963 3.701,-1.2842 4.4203,-5.3661 4.5755,-9.3059 0.0462,-1.1847 -0.3351,-3.1574 -1.1392,-4.3583z"/>
  <path class="fil1" d="M36.0982 84.4429c-0.1659,0 -0.3352,-0.0447 -0.4869,-0.1396 -0.9807,-0.6111 -4.8507,-3.8368 -5.0589,-11.29 -0.1866,-6.7469 0.3986,-20.2582 0.3669,-25.5996 -0.0102,-1.5708 -0.0211,-3.1384 -0.0388,-4.734 -0.0032,-0.5152 0.4092,-0.9366 0.9243,-0.9426 0.0036,0 0.0071,0 0.0106,0 0.5081,0 0.9243,0.4106 0.9313,0.9229 0.0178,1.598 0.0247,3.1686 0.0353,4.7424 0.0321,5.3198 -0.7197,18.8161 -0.3669,25.5132 0.3002,5.6934 3.4255,9.3126 4.1839,9.8065 0.4307,0.2791 0.561,0.8559 0.2858,1.287 -0.1798,0.2797 -0.4798,0.4339 -0.7866,0.4338z"/>
  <path class="fil2" d="M31.223 89.0759c-2.1415,-1.8224 -7.5497,0.8658 -3.6833,2.767 2.1061,1.0364 6.9356,-0.9868 3.5313,-2.8858l0.152 0.1188z"/>
  <path class="fil3" d="M45.1013 111.983c0,3.7521 -1.7607,3.9772 -4.4241,4.7202 -2.4128,0.672 -6.0713,0.9356 -8.5302,0.8594 -1.5272,-0.0484 -4.251,0.0158 -5.7856,0.0158 -1.813,0 -4.1346,-0.5835 -5.1329,-2.4429 -0.783,-1.4589 -0.7161,-3.5529 -0.8008,-5.176 -0.035,-0.7296 0.1693,-1.9064 0.2081,-2.6102 0.0145,-0.2586 0.6597,-2.0694 0.7444,-1.9498 -1.411,-1.9766 -0.7726,-3.918 0.7409,-5.3319 1.0795,-1.0072 2.5999,-1.2001 3.9652,-1.2001 0.0071,-0.0001 13.903,0 13.903,0 2.8225,-0.0001 5.1117,2.7714 5.1117,6.1887l0.0003 6.9268z"/>
  <path class="fil4" d="M31.2615 111.934c-0.1409,0 -0.2822,-0.0194 -0.4233,-0.0603 -0.6419,-0.1856 -1.1607,-0.7733 -1.2947,-1.4633 -0.0846,-0.4294 -0.2752,-0.6893 -0.4904,-0.6724 -0.1867,0.0116 -0.4021,0.2057 -0.4198,0.4995 -0.0455,0.6759 -0.7161,1.3247 -1.464,1.4161 -0.6985,0.0861 -1.2594,-0.3161 -1.5028,-1.0735 -0.3351,-1.0425 0.3351,-1.8659 0.8748,-2.5273 0.2121,-0.2618 0.4163,-0.5091 0.5292,-0.7345 0.279,-0.5525 0.2152,-0.8946 0.1094,-0.9807 -0.1161,-0.0932 -0.4233,-0.0416 -0.8326,0.2875 -0.2642,0.2116 -0.4128,0.5659 -0.5715,0.9416 -0.2468,0.5855 -0.5291,1.2495 -1.3194,1.4481 -0.6558,0.165 -1.3405,-0.0656 -1.8309,-0.6152 -0.5679,-0.6358 -0.762,-1.5646 -0.4798,-2.3093 0.0674,-0.1849 0.2752,-0.2787 0.4587,-0.2092 0.187,0.0691 0.2786,0.2755 0.2081,0.4607 -0.187,0.5023 -0.0494,1.1381 0.3492,1.5812 0.3143,0.353 0.7232,0.4977 1.1184,0.3975 0.427,-0.1062 0.5961,-0.4617 0.836,-1.0329 0.1764,-0.4202 0.3775,-0.8964 0.7832,-1.2213 0.6565,-0.5257 1.3018,-0.6329 1.7286,-0.2854 0.4483,0.3629 0.4798,1.076 0.0811,1.8613 -0.148,0.293 -0.3739,0.5704 -0.6138,0.8628 -0.4938,0.6086 -0.9631,1.184 -0.7479,1.8553 0.1378,0.4293 0.3845,0.6244 0.7338,0.5831 0.4093,-0.0501 0.8149,-0.4166 0.8361,-0.7531 0.0423,-0.6189 0.5186,-1.1314 1.0901,-1.167 0.4762,-0.0297 1.0477,0.2822 1.2347,1.2506 0.0849,0.4254 0.4127,0.8011 0.7973,0.9123 0.3246,0.0945 0.642,-0.0145 0.9243,-0.3126 0.5647,-0.6005 0.3421,-1.1331 -0.0671,-1.9523 -0.1091,-0.2191 -0.2222,-0.4438 -0.3105,-0.6731 -0.3031,-0.8153 -0.2151,-1.6647 0.2223,-2.1145 0.1906,-0.1938 0.6174,-0.4837 1.3512,-0.2269 0.5503,0.1923 0.7972,0.6964 1.016,1.1416 0.307,0.6237 0.4656,0.8933 1.0477,0.7529 0.6952,-0.1677 0.6844,-0.6774 0.4869,-1.8881 -0.1798,-1.1095 -0.4057,-2.4906 0.9771,-3.1179 0.1837,-0.0808 0.3951,-0.0014 0.4763,0.1793 0.0813,0.1795 0,0.3919 -0.1799,0.4727 -0.8255,0.3738 -0.762,1.1377 -0.568,2.3512 0.1732,1.0506 0.3845,2.3587 -1.0266,2.6991 -1.1605,0.2812 -1.5628,-0.5369 -1.8556,-1.1331 -0.1728,-0.3532 -0.3386,-0.6868 -0.6103,-0.7817 -0.2749,-0.0957 -0.4762,-0.0784 -0.6033,0.0511 -0.236,0.2424 -0.2645,0.8276 -0.0634,1.361 0.0743,0.195 0.1728,0.3952 0.2787,0.6061 0.3953,0.7877 0.8854,1.7695 -0.0494,2.7637 -0.3527,0.3732 -0.7832,0.5693 -1.2242,0.5693z"/>
  <path class="fil4" d="M29.6637 106.582c-0.2437,0 -0.4977,-0.0666 -0.7623,-0.2024 -0.4688,-0.2417 -0.7867,-0.7285 -0.889,-1.3695 -0.141,-0.9014 0.1517,-1.9869 0.6844,-2.5266 0.1378,-0.1411 0.3669,-0.1425 0.508,-0.0028 0.1378,0.1386 0.1411,0.3658 0,0.5062 -0.3738,0.3795 -0.5926,1.2365 -0.4833,1.9096 0.046,0.291 0.1729,0.6734 0.508,0.8463 0.2647,0.135 0.4868,0.158 0.6809,0.0695 0.6705,-0.3052 1.0336,-1.772 1.2276,-2.5598l0.0568 -0.2195c0.0492,-0.1908 0.2431,-0.3075 0.4336,-0.2581 0.1907,0.0486 0.3069,0.2434 0.2575,0.435l-0.0529 0.2137c-0.2397,0.9698 -0.6385,2.5919 -1.6263,3.0406 -0.1727,0.079 -0.3528,0.1179 -0.543,0.1178z"/>
  <path class="fil4" d="M33.8936 115.212c-0.1556,0 -0.3002,-0.1026 -0.3461,-0.2606 -0.2572,-0.9293 -0.6032,-3.7088 1.1783,-4.2828 0.7799,-0.2498 1.4111,0.284 1.9191,0.7126 0.3213,0.2692 0.6491,0.5461 0.8502,0.4872 0.2402,-0.072 0.7337,-0.2208 0.2893,-1.8245l-0.0669 -0.2439c-0.2294,-0.7901 -0.4058,-1.4135 0.3385,-2.3924 0.2576,-0.3398 0.6244,-0.5437 1.0618,-0.5899 0.6634,-0.0706 1.3548,0.2328 1.7181,0.5447 0.1482,0.1287 0.1658,0.3545 0.0388,0.5045 -0.1303,0.1509 -0.3563,0.1679 -0.5045,0.0391 -0.2536,-0.2162 -0.7514,-0.4244 -1.1747,-0.3767 -0.2434,0.026 -0.4304,0.128 -0.5715,0.3125 -0.5255,0.6928 -0.4304,1.027 -0.2187,1.7611l0.0706 0.2508c0.1552,0.5627 0.6279,2.2768 -0.7727,2.6998 -0.5711,0.1735 -1.0548,-0.2325 -1.5204,-0.6251 -0.5045,-0.4269 -0.8643,-0.6981 -1.2383,-0.5778 -1.164,0.3746 -0.9243,2.6285 -0.7055,3.4071 0.053,0.1901 -0.0565,0.388 -0.247,0.441 -0.0317,0.0091 -0.067,0.0134 -0.0984,0.0133z"/>
  <path class="fil4" d="M30.4749 116.966c-0.3564,0 -0.7339,-0.1315 -1.1325,-0.3943 -0.4971,-0.3271 -0.5397,-0.8291 -0.5715,-1.2319 -0.0387,-0.4597 -0.0635,-0.737 -0.5609,-0.9226 -0.4124,-0.1538 -0.6773,0.0988 -1.1783,0.7088 -0.4938,0.6004 -1.2418,1.5081 -2.4377,0.7182 -1.1287,-0.7496 -0.8078,-1.7131 -0.575,-2.4161 0.2365,-0.713 0.2893,-1.0111 -0.12,-1.3067 -0.1726,-0.1253 -0.321,-0.0921 -0.6632,0.025 -0.6559,0.2254 -1.3511,0.3345 -1.9826,-0.9814 -0.4549,-0.9486 -0.1975,-2.5097 0.5151,-3.1517 0.1484,-0.1316 0.3739,-0.1196 0.5044,0.0271 0.1341,0.1468 0.12,0.3733 -0.0246,0.5052 -0.4866,0.4356 -0.6668,1.6454 -0.3493,2.31 0.4092,0.8522 0.642,0.7726 1.1042,0.6145 0.3496,-0.1189 0.8255,-0.2825 1.3123,0.0713 0.8752,0.6315 0.5927,1.4873 0.381,2.1124 -0.2503,0.7536 -0.3493,1.1667 0.2928,1.5932 0.5999,0.3971 0.8855,0.1573 1.4888,-0.5761 0.4656,-0.5662 1.0477,-1.27 1.9826,-0.9246 0.9246,0.3446 0.9807,1.0322 1.023,1.5345 0.0318,0.3662 0.0565,0.5634 0.254,0.6925 0.6318,0.4181 1.0478,0.3648 1.531,-0.1919 0.1307,-0.1503 0.3564,-0.1654 0.5081,-0.0363 0.1485,0.1305 0.1623,0.356 0.0353,0.5055 -0.4163,0.4776 -0.8573,0.7155 -1.337,0.7154z"/>
  <path class="fil4" d="M39.2204 98.3699c-0.7798,-0.0772 -1.6124,-0.0917 -2.4555,-0.1245 -1.7708,-0.0684 -2.2049,0.1062 -3.9758,0.1062 -2.5083,0 -6.9075,0.0706 -9.3698,0.3976 -2.2964,0.3058 -3.4784,1.8884 -3.743,4.3261 -0.2151,1.967 -0.7408,5.3372 1.3758,6.199 1.323,0.5369 2.5647,-0.0593 2.6317,-1.5984 0.0565,-1.3695 0.6985,-3.2914 2.3249,-3.3938 2.152,-0.1337 3.8452,0.1292 6.0042,0.1292 1.9017,-0.0001 5.1753,-0.4735 6.8439,0.9017 1.4677,1.2068 2.0991,6.0663 0.3634,7.2827 -1.7885,1.2552 -4.2934,0.2261 -5.7573,0.3683 -0.9842,0.0949 -2.0179,0.5482 -2.5824,1.4863 -0.5747,0.9482 -0.642,2.456 0.2117,3.2155 1.048,0.9342 2.0743,0.4671 3.242,0.3532 1.8486,-0.1821 2.9528,0.1125 6.096,0.1125 1.4112,-0.0001 2.727,-0.7528 3.7007,-2.0062 1.7289,-2.2155 1.2347,-6.8517 1.2347,-9.6513 0,-5.2864 -3.1009,-7.8049 -6.1452,-8.1041z"/>
  <path class="fil5" d="M31.7449 117.833c-0.1516,0 -0.2999,-0.0963 -0.3564,-0.2413 -0.1337,-0.3489 -0.0494,-2.0291 1.2912,-2.5943 1.0516,-0.441 2.4835,-0.544 3.3373,-0.2353 0.2507,0.09 0.4762,0.1944 0.6985,0.2949 0.6353,0.2925 1.1359,0.5225 1.8909,0.2741 0.5997,-0.1951 0.9524,-0.5238 1.27,-1.1733 0.3775,-0.7811 0.8642,-1.2643 1.6227,-1.6132 0.1133,-0.052 0.2293,-0.0978 0.3422,-0.1436 0.4517,-0.1793 0.7338,-0.3066 0.882,-0.6428 0.321,-0.7384 0.0282,-1.6655 -0.2293,-2.4832l-0.0775 -0.2456c-0.2397,-0.7817 -0.2647,-1.6231 -0.0707,-2.6458 0.1306,-0.6787 -0.0918,-1.3398 -0.2999,-1.7755 -0.2783,-0.586 -0.7232,-0.8904 -1.397,-0.9595 -0.9205,-0.0939 -1.4993,-0.3941 -2.0567,-1.0707 -0.4056,-0.494 -1.0336,-1.1557 -1.7779,-1.2044 -0.8185,-0.0551 -1.4676,0.1729 -2.2896,0.4593l-0.2787 0.0966c-1.2946,0.4452 -1.9826,0.2608 -3.1397,-0.2349 -0.6278,-0.2692 -1.5734,-0.5041 -2.5188,-0.1033 -1.4039,0.6 -1.9826,0.7471 -3.4678,0.2056 -1.2309,-0.4495 -2.5789,0.1761 -3.1398,1.4545 -0.3351,0.7673 -0.2116,1.6189 -0.0811,2.5199 0.1623,1.1098 0.328,2.2574 -0.3528,3.3433 -0.1056,0.1668 -0.3245,0.2177 -0.4939,0.1125 -0.1657,-0.1048 -0.2187,-0.3259 -0.1128,-0.4935 0.5432,-0.8626 0.4021,-1.8323 0.2504,-2.8586 -0.1374,-0.9613 -0.2857,-1.9551 0.1341,-2.9111 0.7127,-1.6295 2.4517,-2.4197 4.0428,-1.8397 1.288,0.4713 1.6722,0.3499 2.9422,-0.1916 0.9278,-0.3962 1.9932,-0.3602 3.0762,0.1041 1.0548,0.4494 1.5557,0.5853 2.6282,0.2162l0.2753 -0.096c0.8255,-0.2885 1.6085,-0.5605 2.5716,-0.4977 1.0197,0.0666 1.7921,0.8668 2.286,1.4633 0.4339,0.5271 0.8467,0.7395 1.5769,0.8135 0.9208,0.0952 1.584,0.5539 1.9685,1.3649 0.254,0.5313 0.5221,1.3477 0.3563,2.2165 -0.169,0.9158 -0.1552,1.6253 0.0529,2.3012l0.0742 0.2413c0.2822,0.8911 0.6314,2.0017 0.2045,2.9849 -0.2716,0.623 -0.8043,0.8339 -1.2735,1.0209 -0.1022,0.0416 -0.2046,0.0833 -0.3069,0.1291 -0.6029,0.2776 -0.9737,0.6477 -1.2806,1.2767 -0.3983,0.8234 -0.9031,1.2841 -1.6898,1.5399 -1.023,0.3365 -1.7321,0.0113 -2.413,-0.3034 -0.2078,-0.0953 -0.4198,-0.1922 -0.6421,-0.2727 -0.6806,-0.2456 -1.9438,-0.1453 -2.8151,0.2226 -0.8396,0.3534 -0.9137,1.4252 -0.8961,1.6697 0.0037,0.0088 0.0071,0.0191 0.0106,0.0286 0.0673,0.1859 -0.0282,0.3909 -0.2152,0.4572 -0.0386,0.0133 -0.0741,0.0197 -0.1128,0.0197z"/>
  <path class="fil1" d="M35.7986 39.4231c-0.1623,0.3941 -0.526,0.6912 -1.0869,0.6715 -2.0635,-0.072 -4.0464,0.4395 -6.1172,0.0769 -0.5112,-0.0894 -0.7796,-0.4018 -0.8643,-0.7733 -1.559,0.1192 -2.1484,1.3176 -2.1484,2.5816l0 0.0942c0,1.3169 0.7444,2.3859 2.4553,2.4105 0.0109,-0.6055 0.4022,-1.1807 1.1854,-1.1391 1.7783,0.0949 3.5242,-0.1771 5.2916,0.1443 0.6034,0.1097 0.8749,0.532 0.889,0.9913 1.6369,-0.0618 2.2437,-1.1141 2.2437,-2.407l0 -0.0942c0,-1.2044 -0.4657,-2.347 -1.8482,-2.5567z"/>
  <path class="fil6" d="M33.8583 41.8962c0,0.6791 -1.0163,1.2298 -2.1417,1.2298l0.0001 -0.0001c-1.0866,0 -2.1379,-0.5506 -2.1379,-1.2297l0.0003 0c0,-0.6794 -0.0003,-0.4734 1.2309,-0.4734l1.8168 0c0.9211,0 1.2312,-0.206 1.2312,0.4734l0.0003 0z"/>
  <path class="fil7" d="M29.5791 40.4371c0,0.4497 -0.3672,0.8146 -0.8152,0.8146l-0.4516 0c-0.448,0 -0.8149,-0.3648 -0.8149,-0.8146l0.0001 -0.8068c0,-0.2894 0.3668,-0.2416 0.8148,-0.2416l0.4517 -0.0001c0.448,0 0.8148,-0.0476 0.8148,0.2417l0.0003 0.8068z"/>
  <path class="fil7" d="M31.6604 40.4371c0,0.4497 -0.3671,0.8146 -0.8152,0.8146l-0.4513 0c-0.4516,0 -0.8151,-0.3648 -0.8151,-0.8146l0.0003 -0.8068c0,-0.2894 0.363,-0.2416 0.8146,-0.2416l0.4519 -0.0001c0.448,0 0.8145,-0.0476 0.8145,0.2417l0.0003 0.8068z"/>
  <path class="fil7" d="M33.738 40.4371c0,0.4497 -0.3633,0.8146 -0.8114,0.8146l-0.4515 0c-0.4516,0 -0.815,-0.3648 -0.815,-0.8146l0.0003 -0.8068c0,-0.2894 0.3631,-0.2416 0.8147,-0.2416l0.4517 -0.0001c0.4481,0 0.8112,-0.0476 0.8112,0.2417l0 0.8068z"/>
  <path class="fil7" d="M35.8196 40.4371c0,0.4497 -0.3636,0.8146 -0.8151,0.8146l-0.4513 0c-0.4481,0 -0.8152,-0.3648 -0.8152,-0.8146l0 -0.8068c0,-0.2894 0.3669,-0.2416 0.8149,-0.2416l0.4519 -0.0001c0.4513,0 0.8146,-0.0476 0.8146,0.2417l0.0002 0.8068z"/>
  <path class="fil7" d="M33.738 43.5238c0,-0.45 0.3669,-0.8144 0.8149,-0.8144l0.4519 -0.0002c0.4513,0 0.8146,0.3646 0.8146,0.8147l0.0002 0.8072c0,0.2895 -0.3636,0.2413 -0.8151,0.2413l-0.4513 0c-0.4481,0 -0.8152,0.0483 -0.8152,-0.2413l0 -0.8073z"/>
  <path class="fil7" d="M31.6604 43.5238c0,-0.45 0.3631,-0.8144 0.8147,-0.8144l0.4517 -0.0002c0.4481,0 0.8112,0.3646 0.8112,0.8147l0 0.8072c0,0.2895 -0.3633,0.2413 -0.8114,0.2413l-0.4515 0c-0.4516,0 -0.815,0.0483 -0.815,-0.2413l0.0003 -0.8073z"/>
  <path class="fil7" d="M29.5791 43.5238c0,-0.45 0.363,-0.8144 0.8146,-0.8144l0.4519 -0.0002c0.448,0 0.8145,0.3646 0.8145,0.8147l0.0003 0.8072c0,0.2895 -0.3671,0.2413 -0.8152,0.2413l-0.4513 0c-0.4516,0 -0.8151,0.0483 -0.8151,-0.2413l0.0003 -0.8073z"/>
  <path class="fil7" d="M27.4975 43.5238c0,-0.45 0.3668,-0.8144 0.8148,-0.8144l0.4517 -0.0002c0.448,0 0.8148,0.3646 0.8148,0.8147l0.0003 0.8072c0,0.2895 -0.3672,0.2413 -0.8152,0.2413l-0.4516 0c-0.448,0 -0.8149,0.0483 -0.8149,-0.2413l0.0001 -0.8073z"/>
  <path class="fil4" d="M38.0278 92.9685c0.8116,0.1443 3.7112,0.7031 2.7517,1.5738 -1.0019,0.9087 -2.9598,0.8234 -4.2298,0.9991 -1.1004,0.1516 -2.8646,0.1661 -2.8434,-1.3265 0.0214,-1.9474 2.8998,-1.4996 4.1663,-1.2742 0.0318,0.0063 0.0882,0.0155 0.1552,0.0278z"/>
  <path class="fil8" d="M36.8781 85.4865c0.0563,0.8843 -1.6196,2.5686 -4.4489,3.8107 -1.4602,0.642 -2.3248,2.0405 -3.616,2.9062 -1.88,1.2576 -5.2352,1.6824 -5.8455,1.0714 -0.2819,-0.2844 0.0812,-0.6153 0.1764,-0.8926 0.12,-0.3531 0.1129,-0.7143 0.0599,-1.0819 -0.2959,-2.1097 -0.3456,-4.6429 1.4077,-6.1997 0.7764,-0.6901 4.2121,-0.4452 5.8208,-0.4452 0.8361,-0.0001 3.6689,0.0402 4.4732,0 0.9068,-0.0459 1.9156,-0.0526 1.9724,0.8311z"/>
 </g>
</svg>
