<?xml version="1.0" encoding="UTF-8"?>
<!DOCTYPE svg PUBLIC "-//W3C//DTD SVG 1.1//EN" "http://www.w3.org/Graphics/SVG/1.1/DTD/svg11.dtd">
<!-- Creator: CorelDRAW -->
<svg xmlns="http://www.w3.org/2000/svg" xml:space="preserve" width="64mm" height="214mm" style="shape-rendering:geometricPrecision; text-rendering:geometricPrecision; image-rendering:optimizeQuality; fill-rule:evenodd; clip-rule:evenodd"
viewBox="0 0 64 214"
 xmlns:xlink="http://www.w3.org/1999/xlink">
 <defs>
  <style type="text/css">
   <![CDATA[
    .fil1 {fill:#B55555}
    .fil2 {fill:#F7E494}
    .fil0 {fill:#FFCC99}
   ]]>
  </style>
 </defs>
 <g id="Layer_x0020_1">
  <metadata id="CorelCorpID_0Corel-Layer"/>
  <path class="fil0" d="M62.5538 118.071c0.0907,-0.0674 -2.5584,-11.7941 -5.2822,-24.6899 -1.4444,-6.839 -3.1147,-14.116 -3.1425,-14.1054 -2.3042,-9.579 -4.1409,-16.5563 -8.1513,-20.6326 -0.5238,-0.5335 -1.3127,-1.0873 -2.2102,-1.6094 0.0001,0 -0.6674,-0.2688 -1.6033,-0.6442 0.0008,-0.0024 0.0014,-0.0049 0.0014,-0.0074 -0.5407,-0.217 -1.1699,-0.4695 -1.8126,-0.7263 -0.0221,-0.042 -2.4497,-1.0217 -2.4197,-0.9635 -0.9693,-0.3839 -1.6761,-0.659 -1.7036,-0.6568l0.0001 -4.8706c5.787,-1.5109 10.2319,-5.137 11.9764,-10.6943 2.3948,-0.1981 4.4414,-1.9026 4.8881,-4.2983 0.5009,-2.6889 -1.1889,-5.2941 -3.8418,-6.0963 0.0859,-1.0367 0.157,-2.0091 0.2004,-2.853 0.2307,-4.5354 -0.1584,-9.2713 -3.0931,-13.0305 -2.9315,-3.7569 -6.2837,-6.4149 -14.4068,-6.4149 -8.1223,0 -11.4755,2.6582 -14.4067,6.4149 -2.9344,3.7592 -3.3243,8.4952 -3.0932,13.0305 0.0431,0.8438 0.1143,1.8165 0.2004,2.853 -2.6522,0.8017 -4.3431,3.4074 -3.841,6.0963 0.4463,2.3956 2.4923,4.1 4.8866,4.2975 1.7728,5.6447 6.3278,9.2993 12.2481,10.7665l0.0001 4.7991c-0.024,-0.0021 -3.7748,1.4814 -3.8253,1.5015 0.0008,0.002 0.0018,0.0046 0.0025,0.0067 -1.8679,0.7464 -3.7154,1.4901 -3.7154,1.4901 -0.8968,0.5221 -1.6853,1.076 -2.2098,1.6094 -4.01,4.0763 -5.8473,11.0536 -8.1517,20.6326 -0.0278,-0.0107 -1.6968,7.2665 -3.1422,14.1054 -2.7241,12.8957 -5.3721,24.6225 -5.2825,24.6899 -0.0997,1.8065 -0.5845,5.5305 0.4082,8.2356 1.2803,3.4882 4.1071,7.2104 5.1848,4.821 0.3722,-0.8265 -0.4431,-6.2029 0.696,-7.125 0.3239,-0.2593 0.6237,-0.423 0.883,-0.4184 0.3366,0.0059 0.1217,3.2134 0.1856,3.5412 0.2131,1.1083 1.9692,0.9641 2.0757,-0.2424l0.4344 -4.9519c0.0751,-0.7476 0.0743,-1.8295 -0.4813,-2.4264 -0.5735,-0.6185 -1.4665,-0.5313 -1.5455,-1.6126 -0.1161,-1.6077 1.2774,-6.3704 1.6637,-8.0617 3.2445,-14.1697 6.1627,-23.1873 7.6637,-34.1503 0.7007,1.4129 1.8288,2.606 3.2897,3.0773l0.2445 1.6273c0.1143,2.3834 -0.0674,8.0152 -2.1262,15.9093 -0.3239,1.2431 -2.6007,8.6014 -4.0524,14.2829 0,0 -1.003,4.4168 -1.0308,4.5794 -0.6903,3.908 -1.173,10.287 -0.5733,17.1112 0.6432,17.8427 5.5771,50.4218 6.7846,65.375 0.4932,6.1034 0.4932,8.4603 0.4932,8.4603 0,0 -2.6465,3.4025 -9.2876,6.2085 0.0001,0 0.6484,0.865 3.6439,0.846 3.2752,-0.0191 12.5889,0.3087 13.9365,-0.6064 0.6975,-0.4731 0.1051,-81.5499 0.1051,-81.5499 0.1426,-1.6912 -0.0512,-5.3703 -0.1125,-6.4322 0.01,-0.0015 0.0187,-0.0004 0.0275,-0.0025l2.4433 0 0.6666 0 0.8287 0c-0.0616,1.0583 -0.256,4.7421 -0.1138,6.4347 0.0001,0 -0.5923,81.0768 0.1048,81.5499 1.3484,0.9151 10.662,0.5873 13.9365,0.6064 2.9962,0.019 3.6448,-0.846 3.6448,-0.846 -6.6408,-2.806 -9.2886,-6.2085 -9.2886,-6.2085 0,0 0,-2.3569 0.4936,-8.4603 1.2076,-14.9532 6.1415,-47.5322 6.7842,-65.375 0.6008,-6.8242 0.1175,-13.2031 -0.5722,-17.1112 -0.0268,-0.1573 -0.998,-4.567 -1.0262,-4.5607 -1.4513,-5.684 -3.7327,-13.0573 -4.0573,-14.3016 -2.0584,-7.8941 -2.2401,-13.5258 -2.1265,-15.9092l0.2407 -1.5981c1.4561,-0.4318 2.5945,-1.5745 3.3156,-2.9524 1.5074,10.8931 4.4132,19.8931 7.6415,33.9961 0.3874,1.6912 1.7805,6.4541 1.6641,8.0617 -0.0793,1.0813 -0.9712,0.9941 -1.5452,1.6126 -0.5552,0.5969 -0.556,1.6788 -0.4812,2.4264l0.4344 4.9519c0.1057,1.2065 1.8615,1.3508 2.076,0.2424 0.0625,-0.3278 -0.1514,-3.5352 0.1845,-3.5412 0.26,-0.0046 0.5602,0.1591 0.883,0.4184 1.1403,0.9221 0.3246,6.2985 0.6967,7.125 1.0771,2.3893 3.9046,-1.3328 5.1841,-4.821 0.9928,-2.7052 0.508,-6.429 0.4082,-8.2356z"/>
  <path class="fil0" d="M49.1837 115.156c-0.0131,0 -0.026,0 -0.026,0 0.0153,0 0.018,0 0.026,0z"/>
  <path class="fil0" d="M49.1837 115.156c0.0178,-0.0004 0.0259,-0.0003 -0.0002,0l0.0002 0z"/>
  <path class="fil0" d="M15.1161 115.156c0,0 -0.0131,0 -0.0261,0 0.0078,0 0.0109,0 0.0261,0z"/>
  <path class="fil0" d="M15.09 115.156c-0.0261,-0.0004 -0.018,-0.0003 0,0l0 0z"/>
  <path class="fil1" d="M28.994 36.7356c-0.0497,0 -0.0981,-0.0191 -0.1347,-0.054 -0.0451,-0.043 -0.0678,-0.1051 -0.0597,-0.1676 0.0132,-0.1003 1.2333,-10.0682 -3.0571,-11.5009 -1.5452,-0.5157 -3.0004,-0.7771 -4.3244,-0.7771 -3.829,-0.0002 -5.3767,2.1812 -5.3911,2.2031 -0.0381,0.0541 -0.0985,0.085 -0.162,0.085 -0.0161,-0.0001 -0.0324,-0.0018 -0.0487,-0.0057 -0.0797,-0.0206 -0.1379,-0.0878 -0.1471,-0.1689 -0.0056,-0.0531 -0.5238,-5.3252 4.3565,-9.3973 1.4037,-1.1716 3.0279,-1.7657 4.826,-1.7657 3.3218,0 6.0526,2.0006 6.1673,2.0856 0.0495,0.0371 0.0786,0.0956 0.0786,0.1577l0.0001 18.7645c0,0.0952 -0.0675,0.1769 -0.1613,0.1938l-1.9066 0.3443c-0.0117,0.002 -0.0238,0.0032 -0.0358,0.0032z"/>
  <path class="fil1" d="M24.8525 14.99l-0.0007 0c-1.8458,0.0002 -3.512,0.6096 -4.9521,1.8112 -4.9607,4.139 -4.4499,9.3496 -4.4255,9.5694 0.0177,0.1629 0.1351,0.2978 0.2945,0.338 0.0318,0.0081 0.0639,0.012 0.0963,0.012 0.1263,-0.0001 0.2484,-0.0621 0.3228,-0.1701 0.06,-0.085 1.5297,-2.1184 5.2303,-2.118 1.3032,0 2.7379,0.2578 4.2623,0.7673 4.1409,1.3821 2.9372,11.1908 2.9241,11.2896 -0.0151,0.124 0.0283,0.2487 0.1196,0.3344 0.0738,0.0702 0.1704,0.1083 0.2699,0.1083 0.0234,0 0.0469,-0.0021 0.0702,-0.0064l1.9073 -0.3447c0.1869,-0.0339 0.3226,-0.1964 0.3226,-0.3866l0 -18.7646c0,-0.1242 -0.0582,-0.2409 -0.158,-0.3154 -0.117,-0.0864 -2.8981,-2.1244 -6.2837,-2.1244l0.0001 0zm-0.0007 0.3929c3.2949,-0.0004 6.0497,2.0469 6.0497,2.0469l0.0001 18.7645 -1.9076 0.3446c0,0 1.306,-10.2113 -3.1898,-11.7117 -1.706,-0.5701 -3.1605,-0.7877 -4.3861,-0.7877 -3.9761,-0.0001 -5.5531,2.2881 -5.5531,2.2881 0,0 -0.5697,-5.1731 4.2866,-9.2248 1.5357,-1.2817 3.1757,-1.7198 4.7002,-1.7199z"/>
  <path class="fil1" d="M21.4189 33.2691c-1.5886,0 -2.877,-0.8212 -2.877,-1.8354 0,-1.0136 1.2883,-1.8359 2.8769,-1.8359 1.5897,0 2.8776,0.8224 2.8776,1.8359 0,1.0141 -1.288,1.8355 -2.8775,1.8354zm0.0366 -6.9415c-4.4954,0 -5.5824,2.286 -5.5824,5.1061 0.0001,2.8196 1.4337,5.1054 5.5824,5.1054 4.0591,-0.0002 5.5816,-2.2857 5.5816,-5.1054 0.0001,-2.8201 -1.3317,-5.1061 -5.5816,-5.1061z"/>
  <path class="fil1" d="M21.4189 29.7939c-1.4786,0 -2.6805,0.7356 -2.6805,1.6398 0.0001,0.9037 1.2019,1.6394 2.6804,1.6394 1.4782,-0.0001 2.6811,-0.7356 2.6811,-1.6394 0.0001,-0.9042 -1.2029,-1.6397 -2.681,-1.6398zm0 3.6716c-1.6948,0 -3.0731,-0.9114 -3.0731,-2.0318 0,-1.1209 1.3783,-2.0324 3.073,-2.0324 1.6951,0 3.0741,0.9116 3.0741,2.0324 0.0001,1.1204 -1.379,2.032 -3.074,2.0318zm0.0366 -6.9415c-3.725,0 -5.3859,1.5142 -5.3859,4.9097 0.0001,2.2394 0.9342,4.9092 5.3859,4.9092 4.6856,0 5.3855,-3.0758 5.3855,-4.9092 0.0001,-3.2579 -1.8122,-4.9096 -5.3855,-4.9097zm0 10.2116c-3.7264,0 -5.7789,-1.8828 -5.7789,-5.3019 0.0001,-3.6175 1.8359,-5.3023 5.7789,-5.3023 3.7797,-0.0001 5.7781,1.8334 5.7781,5.3023 0.0001,3.3693 -2.1067,5.3019 -5.7781,5.3019z"/>
  <path class="fil1" d="M32.1956 44.1812c-2.2822,0 -4.1326,-0.6776 -4.1326,-1.5126 0.0001,-0.8357 1.8504,-1.5127 4.1325,-1.5127 2.2814,-0.0001 4.1317,0.677 4.1317,1.5127 0.0001,0.8349 -1.8503,1.5127 -4.1316,1.5126zm0 -6.1605c-4.2846,0 -7.4674,2.9161 -7.4674,5.302 0,2.386 3.1828,3.9938 7.4673,3.9938 4.2834,-0.0002 7.4665,-1.6077 7.4665,-3.9938 0,-2.386 -3.1831,-5.3019 -7.4664,-5.302z"/>
  <path class="fil1" d="M32.1956 41.352c-2.3199,0 -3.9364,0.694 -3.9364,1.3166 0,0.6226 1.6164,1.3162 3.9363,1.3162 2.3193,-0.0001 3.9352,-0.6935 3.9352,-1.3162 0.0002,-0.6228 -1.6161,-1.3166 -3.9351,-1.3166zm0 3.0258c-2.099,0 -4.3291,-0.599 -4.3291,-1.7092 0.0001,-1.1102 2.2299,-1.7092 4.329,-1.7092 2.0984,-0.0001 4.3282,0.599 4.3282,1.7092 0.0001,1.1101 -2.2299,1.7092 -4.3281,1.7092zm0 -6.1611c-4.0951,0 -7.2712,2.7448 -7.2712,5.106 0,2.2001 3.0578,3.7973 7.2711,3.7973 4.2122,-0.0002 7.27,-1.5971 7.27,-3.7973 0.0001,-2.3612 -3.176,-5.1058 -7.2699,-5.106zm0 9.2958c-4.5121,0 -7.6639,-1.7229 -7.6639,-4.1898 0.0001,-2.5429 3.3479,-5.4984 7.6638,-5.4984 4.316,-0.0001 7.6627,2.9555 7.6627,5.4984 0.0001,2.4668 -3.1511,4.1899 -7.6626,4.1898z"/>
  <path class="fil1" d="M22.377 44.3344c-0.0913,0 -0.1718,-0.0638 -0.1916,-0.1548 -0.6315,-2.9254 -4.5131,-6.1535 -4.5526,-6.1857 -0.0726,-0.0603 -0.0917,-0.164 -0.0466,-0.2469 0.0361,-0.0639 0.1023,-0.1012 0.1718,-0.1012 0.0206,-0.0002 0.0424,0.0035 0.0628,0.0102 0.7536,0.2532 1.6563,0.3817 2.6843,0.3817 2.8021,-0.0002 5.6431,-0.9564 5.6713,-0.9659 0.0212,-0.0072 0.0423,-0.0106 0.0631,-0.0106 0.0731,-0.0002 0.1411,0.0402 0.1757,0.108 0.0438,0.0871 0.0169,0.194 -0.0638,0.2497 -3.6393,2.5262 -3.7772,6.682 -3.7783,6.724 -0.0021,0.0994 -0.078,0.1813 -0.1778,0.1908 -0.0059,0.0003 -0.0123,0.0007 -0.0183,0.0007z"/>
  <path class="fil1" d="M26.2395 36.865c-0.0137,0 -0.0268,0.0008 -0.0405,0.0018 -0.0321,0.0035 -0.0639,0.0106 -0.0928,0.0215 -0.1605,0.0533 -2.9023,0.9529 -5.6011,0.9529 -1.0064,-0.0001 -1.8888,-0.1249 -2.6222,-0.3711 -0.0405,-0.0142 -0.0825,-0.0205 -0.1249,-0.0205 -0.1389,0 -0.2723,0.0744 -0.3429,0.2022 -0.092,0.1653 -0.0529,0.3728 0.0928,0.4938 0.0392,0.0314 3.8696,3.2198 4.4856,6.0756 0.0392,0.182 0.2,0.3097 0.3835,0.3097 0.0124,-0.0001 0.0246,-0.0003 0.0377,-0.0017 0.198,-0.0188 0.3503,-0.1831 0.3552,-0.3825 0.0008,-0.0403 0.1415,-4.0929 3.6834,-6.5595 0.1084,-0.07 0.1806,-0.1912 0.1806,-0.3295 0,-0.2153 -0.1725,-0.3905 -0.3877,-0.3926 -0.0024,-0.0001 -0.0042,0 -0.0067,0l0 -0.0001zm0 0.3927c-3.7697,2.6164 -3.8625,6.8806 -3.8625,6.8806 -0.653,-3.0256 -4.619,-6.296 -4.619,-6.296 0.8478,0.2849 1.7974,0.3915 2.7471,0.3915 2.8699,0 5.7344,-0.9761 5.7344,-0.9761zm0 0l0.0025 0 -0.0025 0z"/>
  <path class="fil1" d="M31.2941 65.6284c0,2.2288 0.4632,9.4273 -0.007,10.7601 -0.4639,1.3155 -1.5907,2.2793 -3.0064,2.3647 -4.622,0.2794 -9.1885,-2.0948 -9.1885,-7.7798 0.131,-2.9807 1.5226,-5.1739 3.6015,-6.5952 1.8628,-1.2728 4.2292,-2.9443 6.3596,-2.6377 2.2539,0.3242 2.2408,2.5918 2.2408,3.8879z"/>
  <path class="fil1" d="M28.5277 61.8999c-1.8648,0 -3.9155,1.403 -5.5623,2.5305l-0.1612 0.1101c-2.1801,1.4904 -3.3959,3.7179 -3.5165,6.4417 0.0011,5.6049 4.4549,7.5964 8.2687,7.5964 0.2371,-0.0001 0.4752,-0.0071 0.7123,-0.0212 1.2895,-0.078 2.3749,-0.9342 2.8335,-2.2341 0.3247,-0.9212 0.1806,-4.9283 0.0752,-7.8543 -0.0426,-1.1843 -0.0798,-2.2073 -0.0798,-2.8406 0.0001,-1.2831 0,-3.3954 -2.0729,-3.6932 -0.1601,-0.0233 -0.3274,-0.0353 -0.497,-0.0353zm-0.9712 17.0716c-6.3924,0 -8.6611,-4.3084 -8.6611,-7.9981 0.1264,-2.8604 1.4009,-5.194 3.6872,-6.7571l0.1613 -0.1098c1.6915,-1.1582 3.7976,-2.5992 5.7837,-2.5992 0.1881,-0.0001 0.3747,0.013 0.5532,0.0388 2.4102,0.3464 2.4098,2.763 2.4098,4.0608 0.0002,0.6474 0.0367,1.6673 0.0798,2.8484 0.1119,3.1217 0.2515,7.0072 -0.0974,7.9985 -0.5124,1.4519 -1.7311,2.408 -3.1807,2.4955 -0.2455,0.0148 -0.491,0.0223 -0.7358,0.0222z"/>
  <path class="fil1" d="M26.23 60.5593c-1.5741,-0.4515 -3.4488,-1.4788 -7.1378,0.5194 -4.1126,2.227 -6.8192,12.3627 -6.8223,12.3726 0,0 6.5207,-6.9815 7.8976,-8.3979 2.9097,-2.993 6.0625,-4.494 6.0625,-4.4941z"/>
  <path class="fil1" d="M23.1196 60.0873c-1.2012,0 -2.4878,0.3807 -3.9339,1.1639 -3.3471,1.8125 -5.769,9.0456 -6.4999,11.4667 1.6126,-1.7241 6.216,-6.6446 7.3406,-7.8014 2.2716,-2.3365 4.7177,-3.7846 5.6882,-4.3106 -0.0373,-0.012 -0.0748,-0.0239 -0.1126,-0.0363 -0.7012,-0.2262 -1.4961,-0.4822 -2.4824,-0.4823zm-10.8497 13.5601c-0.0328,0 -0.0656,-0.0081 -0.0956,-0.025 -0.079,-0.0438 -0.1175,-0.1362 -0.0939,-0.2233l0.1888 0.0514 -0.188 -0.054c0.1128,-0.4184 2.8193,-10.2714 6.9172,-12.4903 1.5054,-0.8154 2.8529,-1.2118 4.1212,-1.2118 1.0488,-0.0001 1.8743,0.2667 2.6027,0.5016 0.1934,0.0621 0.3796,0.1224 0.5617,0.1746 0.0791,0.0226 0.1351,0.0911 0.1418,0.1726 0.0071,0.0814 -0.0374,0.1584 -0.1111,0.1936 -0.0314,0.0148 -3.1571,1.5226 -6.0068,4.4535 -1.3592,1.3987 -7.8292,8.3252 -7.8944,8.3951 -0.0385,0.0408 -0.0904,0.062 -0.1436,0.062z"/>
  <path class="fil1" d="M28.5101 51.4241c0,0 -0.4319,4.3174 1.3465,6.8599 1.779,2.5424 1.9431,3.5052 1.9431,3.5052 0.0001,-0.0001 -0.1182,-1.6034 -1.2422,-4.7435 -1.1231,-3.1398 -2.0475,-5.6215 -2.0474,-5.6216z"/>
  <path class="fil1" d="M28.6628 52.4041c-0.0144,1.4024 0.1404,4.0309 1.355,5.7673 0.586,0.8382 0.9994,1.5082 1.2908,2.0313 -0.1815,-0.7642 -0.4734,-1.7974 -0.9356,-3.0907 -0.7072,-1.9777 -1.3412,-3.7073 -1.7102,-4.7079zm3.1362 9.5815c-0.0939,0 -0.1757,-0.0673 -0.1927,-0.1619 -0.0038,-0.0169 -0.2028,-0.9863 -1.911,-3.4272 -1.7987,-2.5725 -1.3984,-6.8125 -1.3807,-6.9921 0.0092,-0.0907 0.0797,-0.1633 0.1703,-0.1749 0.0904,-0.0099 0.1771,0.0405 0.2096,0.1259 0.0088,0.025 0.9373,2.5192 2.0479,5.6243 1.1201,3.1288 1.2481,4.7287 1.2527,4.795 0.0079,0.1047 -0.0681,0.1968 -0.1718,0.2096 -0.0085,0.001 -0.0159,0.0014 -0.0243,0.0013z"/>
  <path class="fil1" d="M17.7549 69.8879c0,0 -8.7764,8.6208 -7.481,26.3722 0,0 8.8183,-12.0734 7.481,-26.3722z"/>
  <path class="fil1" d="M17.5979 70.3475c-1.494,1.6926 -8.1033,10.1015 -7.166,25.3358 1.5421,-2.3131 8.1386,-13.0125 7.166,-25.3358zm-7.324 26.1091c-0.0176,0 -0.036,-0.0024 -0.0537,-0.0077 -0.0789,-0.0226 -0.1358,-0.0924 -0.1418,-0.1743 -0.673,-9.2121 1.4083,-15.9283 3.2724,-19.9401 2.0239,-4.3561 4.2446,-6.5651 4.2668,-6.587 0.0548,-0.053 0.1341,-0.0702 0.2047,-0.0441 0.0716,0.0257 0.1213,0.0906 0.1284,0.1661 1.3285,14.2088 -7.4296,26.385 -7.5181,26.5064 -0.0373,0.0514 -0.0967,0.0807 -0.1587,0.0807z"/>
  <path class="fil1" d="M8.9298 89.8818c0,0 -4.4154,13.5172 -4.5819,26.5121 0,0 4.7999,-15.0767 4.6094,-19.3114 -0.1171,-2.6181 -0.2237,-5.2137 -0.0275,-7.2007z"/>
  <path class="fil1" d="M8.6359 91.5276c-1.0946,3.7655 -3.7066,13.6649 -4.0573,23.4629 1.1624,-3.7878 4.336,-14.4872 4.1832,-17.8989 -0.0959,-2.1297 -0.1672,-3.9754 -0.1259,-5.564zm-4.288 25.0627c-0.0109,0 -0.0208,-0.001 -0.0314,-0.0027 -0.0959,-0.0152 -0.1665,-0.0988 -0.1651,-0.1962 0.1652,-12.876 4.5477,-26.435 4.5914,-26.5705 0.0315,-0.0953 0.1312,-0.151 0.2272,-0.1312 0.0981,0.0204 0.1647,0.1118 0.1556,0.2113 -0.1873,1.8951 -0.1023,4.2679 0.0282,7.173 0.1895,4.221 -4.4224,18.7625 -4.6189,19.3795 -0.0268,0.0826 -0.1027,0.1369 -0.187,0.1368z"/>
  <path class="fil1" d="M14.7231 91.8687c0,0 -2.7792,15.7519 -8.8978,24.5252 0.0001,0 1.4736,-5.6836 4.9689,-17.3634 1.0333,-3.4526 3.9289,-7.1617 3.9289,-7.1618z"/>
  <path class="fil1" d="M14.3657 92.6861c-0.8745,1.2319 -2.6349,3.9004 -3.3838,6.4008 -2.5746,8.6032 -4.0619,13.993 -4.6595,16.2031 4.7914,-7.559 7.3928,-19.3558 8.0433,-22.6039zm-8.5403 23.9042c-0.0275,0 -0.0562,-0.0059 -0.0823,-0.0179 -0.0864,-0.0399 -0.1319,-0.1358 -0.1079,-0.2279 0.0145,-0.0569 1.5148,-5.8205 4.9699,-17.3704 1.033,-3.4481 3.9342,-7.1889 3.9631,-7.2263 0.0562,-0.071 0.1517,-0.0949 0.235,-0.0586 0.0818,0.0366 0.1287,0.1249 0.1132,0.2134 -0.0275,0.1581 -2.8575,15.8958 -8.9298,24.6038 -0.0378,0.054 -0.0992,0.084 -0.1612,0.0839z"/>
  <path class="fil1" d="M31.2261 83.1562c0.0649,0.2406 0.104,0.5556 0.1199,0.9652 0.0541,1.3744 0,2.7668 0,4.143 0.0001,0 -0.2738,2.171 -2.1498,2.2391 -1.8768,0.0681 -3.3451,1.0178 -3.4269,-2.7816 0,-0.0001 0.4064,-4.7488 3.4269,-5.1562 1.1581,-0.1563 1.7818,-0.3221 2.0299,0.5905z"/>
  <path class="fil1" d="M30.3113 82.6394c-0.2253,0 -0.507,0.0395 -0.834,0.0854l-0.2543 0.0356c-2.8293,0.3813 -3.2544,4.9322 -3.2583,4.9784 0.0555,2.5124 0.7235,2.7224 1.4623,2.7224 0.2526,0 0.5355,-0.0339 0.8353,-0.0699 0.2961,-0.0356 0.6015,-0.0723 0.9268,-0.0839 1.684,-0.0614 1.9516,-1.9858 1.9625,-2.0677 -0.0017,-0.4343 0.0042,-0.8953 0.0099,-1.3567 0.012,-0.9056 0.0236,-1.8423 -0.0117,-2.7538 -0.015,-0.3934 -0.0522,-0.6947 -0.1136,-0.9215 -0.1304,-0.4801 -0.346,-0.5683 -0.7249,-0.5683zm-2.8843 8.2148c-1.2859,0 -1.8059,-0.8774 -1.8542,-3.1285 0.0183,-0.2209 0.4565,-4.9314 3.5969,-5.3548l0.2534 -0.035c0.3407,-0.0479 0.6352,-0.0895 0.8882,-0.0895 0.6108,-0.0001 0.9405,0.2568 1.1042,0.8587 0.0689,0.2557 0.11,0.5859 0.127,1.0089 0.0364,0.9218 0.0236,1.8634 0.0116,2.7742 -0.006,0.4597 -0.0116,0.9187 -0.0116,1.3762 -0.0045,0.048 -0.3197,2.3619 -2.339,2.4353 -0.309,0.0112 -0.6067,0.0469 -0.8942,0.0818 -0.3125,0.0373 -0.6061,0.0727 -0.8823,0.0727z"/>
  <path class="fil1" d="M31.3701 98.0208c0,1.0238 -0.6926,1.8543 -1.5467,1.8543l-2.3012 -0.0001c-0.8543,0 -1.5465,-0.8304 -1.5465,-1.8541l0 -3.5222c0,-1.0235 0.6921,-1.8535 1.5465,-1.8535l2.3013 0c0.8541,0 1.5465,0.8301 1.5465,1.8535l0.0001 3.5221z"/>
  <path class="fil1" d="M27.5222 92.8413c-0.7443,0 -1.3504,0.7437 -1.3504,1.6574l0.0001 3.5221c0,0.914 0.606,1.6578 1.3503,1.6578l2.3013 -0.0001c0.744,0 1.35,-0.7436 1.35,-1.6576l0 -3.5222c0,-0.9137 -0.6061,-1.6573 -1.3501,-1.6573l-2.3012 -0.0001zm2.3013 7.2302l-2.3013 0c-0.9613,0 -1.7431,-0.92 -1.7431,-2.0506l0.0001 -3.5222c0,-1.1303 0.7817,-2.05 1.743,-2.05l2.3013 0c0.9612,0 1.7426,0.9197 1.7426,2.05l0.0001 3.5221c0,1.1306 -0.7815,2.0508 -1.7427,2.0507z"/>
  <path class="fil1" d="M31.3479 107.841c0,-1.3761 -0.0002,-2.7668 -0.0002,-4.1429 0.0002,-0.0001 -0.2519,-2.1714 -1.973,-2.2391 -1.7205,-0.0682 -3.0696,-1.0178 -3.1447,2.7813 0,0 0.0444,2.6151 0.4145,3.5778 0.4044,1.0552 1.4348,1.6006 2.7302,1.5784 1.0697,-0.0188 1.973,0.0007 1.9732,-1.5555z"/>
  <path class="fil1" d="M27.7523 101.501c-0.67,0 -1.275,0.21 -1.3258,2.743 0.0011,0.0183 0.0476,2.5841 0.4014,3.5037 0.3536,0.9232 1.2542,1.4528 2.4702,1.4528l0.1432 -0.0019c1.0666,-0.0179 1.7103,-0.0288 1.7103,-1.3577l0.0001 -4.1431c-0.0088,-0.0593 -0.2534,-1.9826 -1.7848,-2.0429 -0.299,-0.0117 -0.5807,-0.0487 -0.853,-0.0843 -0.2737,-0.0356 -0.5324,-0.0695 -0.7616,-0.0696zm1.546 8.0921c-1.3873,0 -2.4224,-0.6212 -2.8369,-1.7046 -0.3784,-0.9843 -0.4251,-3.5369 -0.4276,-3.6453 0.0445,-2.2582 0.5264,-3.1347 1.7184,-3.1347 0.2548,-0.0001 0.5253,0.0352 0.8132,0.073 0.2632,0.0342 0.5355,0.0698 0.817,0.0811 1.8681,0.0737 2.158,2.389 2.1611,2.4123l0.0009 4.1659c0,1.7149 -1.0659,1.7333 -2.0964,1.7506l-0.1497 0.0017z"/>
  <path class="fil1" d="M23.4541 80.3219c0,0 1.1782,1.051 4.3863,0.9251 0,-0.0001 -3.6008,2.6769 -3.4367,8.0609 0.1013,3.3186 0.8233,17.0597 0.956,21.4835 0.132,4.4241 0.3274,7.2387 2.921,11.0102l0.0001 0c-3.5077,-4.6359 -12.2157,-2.5269 -10.0716,-11.7436 0.3959,-1.7025 3.7896,-13.4052 4.3494,-18.3529 0.6422,-5.6696 0.8954,-11.3831 0.8955,-11.3832z"/>
  <path class="fil1" d="M23.6336 80.6804c-0.0667,1.3292 -0.3345,6.2311 -0.8792,11.0469 -0.4363,3.8527 -2.5615,11.7002 -3.7027,15.9159 -0.327,1.2079 -0.5634,2.0807 -0.6516,2.4592 -1.3338,5.7351 1.5512,6.9187 4.8927,8.2896 1.3551,0.5556 2.7428,1.1254 3.8971,2.0324 -1.7378,-3.1147 -1.9124,-5.8022 -2.0267,-9.627 -0.0712,-2.3845 -0.32,-7.5928 -0.5383,-12.1881 -0.1912,-3.9932 -0.3708,-7.765 -0.4177,-9.2954 -0.1308,-4.3085 2.141,-6.9444 3.1002,-7.8598 -2.0358,-0.0019 -3.1736,-0.4841 -3.6738,-0.7737zm4.6472 41.3176c-0.0597,0 -0.1183,-0.0267 -0.1564,-0.0779 -1.2315,-1.6263 -3.1376,-2.4084 -4.9812,-3.1647 -3.3605,-1.3791 -6.5352,-2.6812 -5.1259,-8.7419 0.0897,-0.3856 0.3271,-1.2608 0.6555,-2.4729 1.1388,-4.2059 3.2586,-12.0343 3.6911,-15.8574 0.6337,-5.5979 0.8915,-11.3129 0.8939,-11.3697 0.0036,-0.0758 0.0505,-0.1432 0.12,-0.1725 0.0695,-0.0296 0.1506,-0.0162 0.2071,0.0346 0.0106,0.0084 1.1768,0.9941 4.2478,0.8752 0.0822,-0.0057 0.164,0.0494 0.1926,0.1309 0.0283,0.0811 0.0014,0.1715 -0.0674,0.223 -0.0356,0.0261 -3.5165,2.6853 -3.3581,7.8973 0.047,1.5271 0.2265,5.2969 0.417,9.2886 0.2301,4.8214 0.4678,9.8072 0.539,12.1948 0.1335,4.4633 0.3324,7.1745 2.8607,10.8677 0.0424,0.036 0.0684,0.0892 0.0684,0.1485 0.0001,0.1097 -0.0998,0.205 -0.2,0.1965 -0.0017,-0.0001 -0.0024,0 -0.0041,-0.0001z"/>
  <path class="fil1" d="M19.455 168.935c0,0 1.4452,6.1806 2.9597,11.1333 0.5659,1.8528 6.3193,25.7189 6.0808,29.579 -0.0455,0.7366 -0.1933,0.623 -0.8953,-0.1958 -2.4744,-2.8875 -4.2686,-3.1125 -4.2686,-3.1125 0,-0.0001 -0.4008,-11.3045 -3.8766,-37.404z"/>
  <path class="fil1" d="M23.5217 206.177c0.5091,0.1262 2.1301,0.6992 4.2274,3.1464 0.1425,0.1658 0.3845,0.448 0.5231,0.5673 0.0096,-0.0523 0.0194,-0.1323 0.0272,-0.2558 0.2374,-3.8481 -5.5658,-27.85 -6.0727,-29.5095 -0.7842,-2.5654 -1.5551,-5.4815 -2.1142,-7.6874 2.8177,21.8059 3.3486,32.3639 3.4092,33.739zm4.8088 4.1571c-0.2117,0 -0.4096,-0.2071 -0.8799,-0.7549 -2.3819,-2.7799 -4.1271,-3.0435 -4.1448,-3.0463 -0.0941,-0.0123 -0.1668,-0.0917 -0.1711,-0.1876 -0.0038,-0.1129 -0.4402,-11.5973 -3.8745,-37.385 -0.0137,-0.1037 0.0561,-0.2 0.1594,-0.219 0.1052,-0.0195 0.2025,0.0469 0.2262,0.1485 0.0148,0.0617 1.4615,6.2311 2.9566,11.121 0.5088,1.664 6.3292,25.7661 6.0889,29.6481 -0.0161,0.2692 -0.0416,0.6752 -0.3608,0.6752z"/>
  <path class="fil1" d="M29.2488 204.996c-1.6531,-11.8333 -4.0874,-16.7189 -4.8053,-25.9006 -0.1457,-1.869 0.0512,-2.0034 0.3944,-3.6827 0.6936,-3.4025 1.1808,-3.6995 1.759,-7.082 0.2449,1.0192 2.54,2.7506 2.7771,13.6568 0.266,12.2332 0.3661,22.9672 -0.1252,23.0085z"/>
  <path class="fil1" d="M26.6774 168.993c-0.2685,1.4196 -0.5208,2.2475 -0.7868,3.1175 -0.2645,0.8678 -0.5397,1.7653 -0.86,3.3412 -0.0769,0.3756 -0.1468,0.6748 -0.2064,0.9334 -0.2096,0.8992 -0.2963,1.2718 -0.1849,2.6942 0.3796,4.8528 1.2287,8.455 2.2123,12.6266 0.791,3.3549 1.6799,7.1265 2.4264,12.12 0.1391,-1.9995 0.212,-7.5064 -0.1005,-21.8352 -0.1909,-8.7905 -1.6969,-11.5337 -2.4201,-12.8524 -0.0278,-0.0504 -0.0547,-0.0987 -0.08,-0.1453zm2.5714 36.1989c-0.0962,0 -0.1804,-0.0716 -0.1941,-0.169 -0.7754,-5.5513 -1.7374,-9.6291 -2.5852,-13.2271 -0.9873,-4.1871 -1.8397,-7.803 -2.2218,-12.6858 -0.1157,-1.4831 -0.0186,-1.9001 0.1937,-2.8141 0.0589,-0.2555 0.1277,-0.5511 0.2039,-0.9229 0.3253,-1.5942 0.6022,-2.5005 0.87,-3.3772 0.2985,-0.9793 0.5813,-1.9043 0.8886,-3.6985 0.0152,-0.0921 0.0931,-0.1601 0.187,-0.1633 0.0914,-0.0075 0.175,0.0596 0.1968,0.1503 0.041,0.1675 0.1553,0.3764 0.314,0.6653 0.738,1.3458 2.2751,4.1462 2.4688,13.033 0.5038,23.1405 0.0366,23.18 -0.3045,23.2086 -0.0062,0.0007 -0.0116,0.0007 -0.0172,0.0007z"/>
  <path class="fil1" d="M28.0899 155.253c-0.4935,-7.8239 -3.5257,-14.3397 -5.3623,-21.9406 -0.7648,-3.1641 -1.5843,-6.314 -2.3745,-9.4714 -0.2695,-1.0778 -1.8225,-8.926 -3.6858,-5.9506 -1.3748,2.1949 -0.9949,6.3919 -0.9949,8.8476 0.0007,11.4755 2.9986,35.8504 3.6915,38.6091 0.0004,-0.0011 0.3044,-2.6183 1.4143,-3.9148 0.8248,0.7394 2.8317,2.2984 5.4864,5.5111 0,0 2.2235,-5.3802 1.8253,-11.6904z"/>
  <path class="fil1" d="M20.7782 161.236c0.0484,0 0.0952,0.018 0.1312,0.0505 0.1253,0.1114 0.2773,0.2423 0.454,0.3944 0.9445,0.8124 2.6758,2.3022 4.8377,4.8796 0.4519,-1.2273 2.0299,-5.9524 1.6929,-11.2953 -0.3227,-5.122 -1.719,-9.6163 -3.1972,-14.3742 -0.7517,-2.4212 -1.5296,-4.9245 -2.16,-7.5318 -0.4995,-2.0684 -1.0319,-4.1653 -1.5459,-6.1934 -0.2776,-1.0919 -0.5546,-2.184 -0.8287,-3.277 -0.0228,-0.0949 -0.0568,-0.2413 -0.0998,-0.4279 -1.1419,-4.9946 -2.0119,-6.0431 -2.5407,-6.0431 -0.2699,0 -0.5232,0.3137 -0.6879,0.5772 -1.1155,1.7804 -1.0414,5.0225 -0.9864,7.3896 0.0113,0.4878 0.0212,0.9451 0.0212,1.3536 0.0007,10.3109 2.5209,32.0167 3.4833,37.5472 0.2008,-0.9017 0.5863,-2.1738 1.2774,-2.9806 0.0346,-0.0402 0.084,-0.0649 0.1358,-0.0684 0.0046,-0.0004 0.0095,-0.0004 0.0131,-0.0004zm5.4864 5.9041c-0.0582,0 -0.114,-0.0257 -0.1517,-0.0713 -2.2397,-2.7107 -4.039,-4.2587 -5.0056,-5.0898 -0.1115,-0.096 -0.2134,-0.1835 -0.3044,-0.2629 -0.9412,1.2601 -1.2316,3.5515 -1.2436,3.6523 -0.0031,0.0223 -0.0098,0.0459 -0.019,0.0657 -0.037,0.074 -0.1115,0.1185 -0.1972,0.1083 -0.0822,-0.0089 -0.15,-0.0674 -0.1697,-0.1471 -0.7401,-2.9458 -3.6968,-27.4839 -3.6975,-38.6571 0.0001,-0.4061 -0.0099,-0.86 -0.0219,-1.3448 -0.0549,-2.4166 -0.1308,-5.7266 1.0467,-7.6073 0.3168,-0.5048 0.6597,-0.7613 1.021,-0.7613 1.3042,0 2.2479,3.3927 2.9234,6.3486 0.0424,0.1831 0.0755,0.3271 0.0985,0.4198 0.2737,1.0925 0.5507,2.1844 0.8276,3.2763 0.5147,2.0287 1.0474,4.1271 1.5476,6.1969 0.6273,2.5961 1.4027,5.093 2.153,7.5078 1.4852,4.7812 2.8886,9.2975 3.2145,14.4663 0.3959,6.283 -1.8175,11.7239 -1.8404,11.7783 -0.0261,0.0635 -0.084,0.1089 -0.1521,0.1192 -0.0098,0.0014 -0.0201,0.0021 -0.0292,0.0021z"/>
  <path class="fil1" d="M29.3596 152.399c-2.2846,-14.3877 -5.4689,-18.5064 -8.5814,-32.5906 2.8805,-0.3504 7.5025,3.4773 8.2158,5.2108 0.9176,6.1962 -0.7133,15.899 0.3656,27.3798z"/>
  <path class="fil1" d="M21.0191 119.985c1.3462,6.048 2.6952,10.2157 3.9998,14.2476 1.3957,4.312 2.7256,8.4247 3.8756,14.3768 -0.2261,-4.6468 -0.0776,-8.9288 0.0565,-12.8034 0.1468,-4.2182 0.2734,-7.863 -0.1478,-10.7336 -0.702,-1.6447 -5.0377,-5.2081 -7.7841,-5.0874zm8.3405 32.61c-0.0953,0 -0.179,-0.0691 -0.1941,-0.1654 -1.2806,-8.0638 -2.854,-12.9272 -4.5202,-18.076 -1.3243,-4.0894 -2.692,-8.3181 -4.059,-14.503 -0.0113,-0.054 0,-0.1108 0.0317,-0.1559 0.0321,-0.0453 0.0822,-0.0748 0.1365,-0.0815 2.9895,-0.3616 7.7012,3.581 8.4208,5.3311 0.0065,0.0148 0.0106,0.0304 0.0131,0.0463 0.4311,2.9097 0.3034,6.58 0.1559,10.8292 -0.1699,4.8848 -0.3623,10.4189 0.2064,16.5068 0.0081,0.0222 0.0127,0.0466 0.0127,0.0723 0.0002,0.1094 -0.0815,0.1955 -0.1997,0.1962 -0.0014,-0.0001 -0.0028,0 -0.0041,-0.0001z"/>
  <path class="fil1" d="M15.1912 212.065c1.6317,-0.86 3.1338,-1.9596 4.7085,-2.9167 1.516,-0.9218 3.095,-1.8704 4.867,-0.9257 -0.4483,-0.2392 -4.4524,1.8514 -5.3711,2.2038 -1.3102,0.503 -2.9771,0.9913 -4.2044,1.6386z"/>
  <path class="fil1" d="M28.0476 211.967c-1.2757,0 -9.8384,0.2611 -10.7129,0.26 0.7571,-0.2092 7.6835,-3.2018 8.1693,-2.9372 0.9151,0.4981 2.3682,1.8962 2.5436,2.6772z"/>
  <path class="fil1" d="M35.3939 36.7324l-1.9078 -0.3445c-0.0939,-0.0168 -0.1614,-0.0982 -0.1614,-0.1935l0 -18.7646c0,-0.0621 0.0293,-0.1206 0.0787,-0.1577 0.1148,-0.085 2.8455,-2.0856 6.168,-2.0856 1.7982,0 3.4222,0.5941 4.826,1.7657 4.8803,4.0719 4.3628,9.3443 4.3564,9.3973 -0.0081,0.081 -0.0674,0.1481 -0.1464,0.1682 -0.0161,0.0041 -0.0321,0.0064 -0.0483,0.0064 -0.0634,-0.0001 -0.1242,-0.0307 -0.162,-0.0847 -0.0153,-0.022 -1.5769,-2.2034 -5.3922,-2.2034 -1.3245,-0.0002 -2.7799,0.2614 -4.325,0.7771 -4.2911,1.4329 -3.0699,11.4008 -3.0572,11.5009 0.0089,0.0625 -0.0137,0.1246 -0.0589,0.1676 -0.0366,0.0349 -0.0857,0.054 -0.1355,0.054 -0.0118,0 -0.0233,-0.0011 -0.0344,-0.0032z"/>
  <path class="fil1" d="M39.5714 14.99c-3.386,0 -6.168,2.038 -6.2851,2.1244 -0.0999,0.0741 -0.1581,0.1912 -0.1581,0.3154l0.0001 18.7645c0,0.1903 0.1357,0.3529 0.3227,0.3868l1.9071 0.3446c0.0235,0.0042 0.0469,0.0064 0.0702,0.0064 0.0995,0 0.1969,-0.0381 0.2706,-0.1083 0.0908,-0.0858 0.1351,-0.2103 0.1189,-0.3341 -0.0122,-0.0992 -1.2125,-9.9085 2.9242,-11.2899 1.5251,-0.5096 2.9598,-0.7673 4.2629,-0.7673 3.7007,0 5.1703,2.033 5.231,2.1198 0.0756,0.106 0.1965,0.1676 0.3232,0.1676 0.0322,0 0.0645,-0.0043 0.0966,-0.0124 0.1589,-0.041 0.2755,-0.1742 0.2939,-0.3369 0.0237,-0.2199 0.5337,-5.4303 -4.4263,-9.5691 -1.4406,-1.2023 -3.1062,-1.8115 -4.9519,-1.8115zm0 0.3929c1.5244,0 3.1644,0.4383 4.7004,1.7199 4.8561,4.0515 4.2873,9.2248 4.2873,9.2248 0.0001,0 -1.578,-2.2881 -5.5542,-2.2881 -1.2255,-0.0001 -2.6807,0.2176 -4.3868,0.7877 -4.495,1.5004 -3.1898,11.7119 -3.1898,11.7119l-1.9073 -0.3448 0 -18.7645c0,0 2.7547,-2.0468 6.0504,-2.0469z"/>
  <path class="fil1" d="M40.127 31.4335c0,-1.0134 1.2876,-1.8357 2.8765,-1.8357 1.5897,0 2.8776,0.8224 2.8776,1.8359 0.0002,1.0141 -1.288,1.8355 -2.8776,1.8355 -1.5889,-0.0001 -2.8765,-0.8213 -2.8765,-1.8357zm-2.7414 0c0,2.8198 1.5222,5.1056 5.5819,5.1056 4.1481,-0.0002 5.5824,-2.2857 5.5824,-5.1054 0.0002,-2.8201 -1.0876,-5.1061 -5.5824,-5.1061 -4.2512,0 -5.582,2.286 -5.5819,5.1059z"/>
  <path class="fil1" d="M43.0035 29.7939c-1.4779,0 -2.68,0.7356 -2.68,1.6398 0.0001,0.9037 1.2019,1.6394 2.68,1.6394 1.4786,-0.0001 2.6811,-0.7356 2.6811,-1.6394 0,-0.9042 -1.2026,-1.6397 -2.6811,-1.6398zm0 3.6716c-1.6942,0 -3.073,-0.9114 -3.073,-2.0318 0,-1.1209 1.3786,-2.0324 3.073,-2.0324 1.6949,0 3.0738,0.9116 3.0738,2.0324 0,1.1204 -1.379,2.032 -3.0738,2.0318zm-0.0359 -6.9415c-3.5732,0 -5.3852,1.6518 -5.3852,4.9097 0,1.8332 0.6995,4.9092 5.3851,4.9092 4.4519,0 5.3859,-2.6698 5.3859,-4.9092 0,-3.3956 -1.6609,-4.9096 -5.3858,-4.9097zm0 10.2116c-3.6721,0 -5.7782,-1.9325 -5.7782,-5.3019 0.0001,-3.469 1.9978,-5.3023 5.7781,-5.3023 3.9425,-0.0001 5.7789,1.6849 5.7789,5.3023 0.0001,3.4191 -2.0521,5.3019 -5.7788,5.3019z"/>
  <path class="fil1" d="M42.0278 44.3336c-0.0998,-0.0096 -0.1757,-0.0913 -0.1779,-0.1907 -0.0007,-0.0421 -0.1397,-4.1977 -3.7789,-6.724 -0.0808,-0.0558 -0.1076,-0.1626 -0.0639,-0.2497 0.0347,-0.0679 0.1027,-0.108 0.1757,-0.108 0.0209,-0.0002 0.0423,0.0035 0.0631,0.0106 0.0283,0.0095 2.8692,0.9659 5.6713,0.9659 1.028,-0.0002 1.9318,-0.1284 2.6847,-0.3817 0.0211,-0.0068 0.0419,-0.0102 0.0624,-0.0102 0.0697,-0.0002 0.1365,0.0374 0.1722,0.1012 0.0455,0.0824 0.0257,0.1866 -0.047,0.2469 -0.0395,0.0321 -3.9211,3.2625 -4.5515,6.1857 -0.0197,0.0909 -0.1005,0.1548 -0.1919,0.1548 -0.006,0 -0.0124,-0.0003 -0.0183,-0.0008z"/>
  <path class="fil1" d="M38.1829 36.865c-0.1451,0 -0.2823,0.0801 -0.3507,0.2156 -0.0881,0.1749 -0.0346,0.3881 0.1266,0.4995 3.5642,2.474 3.6936,6.5261 3.6946,6.5666 0.0047,0.1994 0.157,0.3638 0.3553,0.3825 0.012,0.0012 0.025,0.0017 0.0374,0.0017 0.1835,-0.0001 0.3447,-0.1277 0.3835,-0.3097 0.6015,-2.7878 4.2654,-5.8921 4.4756,-6.0681 0.0929,-0.0721 0.1531,-0.1842 0.1531,-0.3108 0.0001,-0.2143 -0.1707,-0.3885 -0.3848,-0.3927 -0.0028,0 -0.006,0 -0.0092,0 -0.0161,0 -0.0325,0.0011 -0.0476,0.0028 -0.03,0.0035 -0.0586,0.0106 -0.0861,0.0205 -0.7309,0.2444 -1.6108,0.3683 -2.6134,0.3683 -2.7724,-0.0001 -5.5799,-0.9458 -5.6078,-0.9553 -0.0422,-0.0142 -0.0843,-0.0208 -0.1266,-0.0208l0.0001 -0.0001zm8.4814 0.9771l0.0022 0zm-8.4836 -0.5844c0,0 2.8645,0.9761 5.7343,0.9761 0.9499,0 1.9001,-0.1065 2.7471,-0.3915 0,-0.0002 -3.9652,3.2706 -4.6182,6.296 0,-0.0002 -0.0935,-4.264 -3.8632,-6.8806z"/>
  <path class="fil1" d="M29.2488 50.2074c0,0 2.0637,0.4252 5.8917,-0.0895l-2.9449 7.0015 -2.9468 -6.912z"/>
  <path class="fil1" d="M29.5687 50.4562l2.6255 6.1595 2.6335 -6.2597c-1.1424,0.1414 -2.2336,0.2127 -3.2489,0.2127 -0.958,0 -1.6316,-0.0635 -2.0101,-0.1125zm2.6269 6.8594c-0.0791,0 -0.1504,-0.0466 -0.1811,-0.1192l-2.946 -6.9121c-0.0288,-0.0674 -0.0177,-0.1446 0.0285,-0.2014 0.0459,-0.0561 0.1203,-0.0825 0.1916,-0.0677 0.0083,0.0013 0.8043,0.1609 2.2902,0.1609 1.0986,0 2.2881,-0.085 3.5356,-0.2533 0.0681,-0.0093 0.1393,0.0194 0.1827,0.0755 0.042,0.0556 0.0519,0.1305 0.0243,0.1954l-2.9448 7.0019c-0.0307,0.0726 -0.1021,0.12 -0.1811,0.12l0.0001 0z"/>
  <path class="fil1" d="M31.2628 119.74c0.0484,-0.241 0.0782,-0.556 0.0895,-0.9655 0.0393,-1.3745 0,-3.9448 0,-5.3213 0.0002,-0.0001 -0.2039,-2.171 -1.5995,-2.2388 -1.3958,-0.0681 -3.1718,-1.3786 -2.5498,2.7813 0,0 0.3023,5.9278 2.5498,6.3342 0.8617,0.1562 1.3258,0.3224 1.51,-0.5899z"/>
  <path class="fil1" d="M28.0892 111.162c-0.2565,0 -0.4252,0.0639 -0.5486,0.2064 -0.3005,0.3496 -0.3493,1.2238 -0.1436,2.5982 0.0844,1.6245 0.6734,5.8597 2.3904,6.1701l0.1927 0.0356c0.2385,0.0452 0.4441,0.084 0.6028,0.084 0,0 0,0 0.0007,0 0.2121,0 0.3828,-0.0409 0.4865,-0.5553 0.047,-0.2311 0.0744,-0.5359 0.0857,-0.932 0.027,-0.9505 0.017,-2.455 0.0078,-3.7828 -0.0038,-0.5772 -0.0078,-1.1113 -0.0078,-1.5332 -0.0014,-0.0015 -0.2046,-1.984 -1.4132,-2.0426 -0.2796,-0.0138 -0.5673,-0.0734 -0.846,-0.1309 -0.292,-0.0604 -0.5672,-0.1175 -0.8074,-0.1175zm2.4937 9.4869l0 0c-0.1954,0 -0.418,-0.0419 -0.6752,-0.0903l-0.1901 -0.0353c-2.3725,-0.4297 -2.6977,-6.2695 -2.7108,-6.5179 -0.2282,-1.5156 -0.1527,-2.4408 0.236,-2.8931 0.1998,-0.2307 0.4756,-0.3429 0.8463,-0.3429 0.2799,0 0.5892,0.0639 0.8876,0.1252 0.264,0.055 0.5359,0.1112 0.7853,0.1231 1.5484,0.0755 1.7766,2.3213 1.7861,2.4169 0.0008,0.4399 0.0043,0.9726 0.0081,1.5491 0.0092,1.3306 0.0201,2.8391 -0.0074,3.7962 -0.0122,0.4191 -0.043,0.7458 -0.0935,0.9987 -0.1213,0.6018 -0.3908,0.8703 -0.8724,0.8703z"/>
  <path class="fil1" d="M28.9129 59.9917c-3.1436,-1.5427 -5.8357,-1.5426 -9.7356,-1.0678 3.2138,-1.1364 6.6332,-2.9806 7.8715,-1.4118 0.6283,0.7972 1.3631,1.8919 1.8641,2.4796z"/>
  <path class="fil1" d="M22.9661 58.449c1.9583,0 3.623,0.32 5.2931,1.0281 -0.1548,-0.2082 -0.3182,-0.4332 -0.4865,-0.6647 -0.2938,-0.4043 -0.5973,-0.8227 -0.8781,-1.1786 -0.2825,-0.3574 -0.7133,-0.5309 -1.318,-0.5309 -1.1539,-0.0001 -2.7417,0.6226 -4.4231,1.2816 -0.1513,0.0593 -0.3034,0.1189 -0.4565,0.1785 0.8616,-0.078 1.5925,-0.1139 2.2691,-0.114zm5.9468 1.7388c-0.0289,0 -0.0589,-0.0063 -0.0865,-0.02 -1.8689,-0.9169 -3.6763,-1.3257 -5.8603,-1.3257 -1.0308,-0.0001 -2.1915,0.0853 -3.7648,0.2765 -0.1019,0.0148 -0.1927,-0.0529 -0.2152,-0.1499 -0.023,-0.0974 0.0306,-0.1965 0.1252,-0.2297 0.6297,-0.2229 1.2749,-0.4758 1.8987,-0.7203 1.717,-0.6732 3.3383,-1.3085 4.5666,-1.3085 0.7328,0 1.2651,0.2223 1.6264,0.6805 0.2854,0.3619 0.5916,0.7832 0.8875,1.191 0.3483,0.4801 0.6784,0.9342 0.9444,1.2503 0.0498,0.0356 0.0822,0.0938 0.0822,0.1598 0.0002,0.1096 -0.0737,0.1989 -0.2004,0.1961 -0.0013,-0.0001 -0.0021,0 -0.0038,-0.0001z"/>
  <path class="fil1" d="M5.8889 117.401c-1.5029,-0.2571 -3.2171,-0.038 -3.307,1.1879 -0.2822,3.827 0.4127,4.9925 0.968,5.8 0.339,-2.8642 1.5857,-3.4131 2.6021,-3.8375 0.762,-0.3183 2.1893,-0.2032 3.1983,-0.0988 -0.352,-1.6196 -1.8849,-2.7813 -3.4614,-3.0516z"/>
  <path class="fil1" d="M4.8037 117.502c-0.5856,0 -1.9533,0.1073 -2.0264,1.1015 -0.2353,3.1933 0.2159,4.488 0.653,5.2401 0.4459,-2.5548 1.7085,-3.0822 2.6466,-3.4734 0.3592,-0.15 0.8664,-0.223 1.549,-0.223 0.4946,0 1.0171,0.0395 1.4623,0.0822 -0.4113,-1.3081 -1.7001,-2.372 -3.2322,-2.6345 -0.3597,-0.0618 -0.7133,-0.0928 -1.0523,-0.0929zm-1.2537 7.0835c-0.0635,0 -0.125,-0.031 -0.162,-0.085 -0.6572,-0.956 -1.2764,-2.201 -1.0023,-5.9256 0.0689,-0.9314 0.9494,-1.4658 2.418,-1.4658 0.3606,-0.0001 0.7369,0.0332 1.1183,0.0988 1.7882,0.3061 3.2773,1.6231 3.6202,3.2032 0.0138,0.0618 -0.0032,0.1259 -0.0455,0.1729 -0.0419,0.0468 -0.1027,0.0702 -0.1662,0.0645 -0.4857,-0.0504 -1.1179,-0.1086 -1.7046,-0.1086 -0.6215,-0.0001 -1.0919,0.0649 -1.3977,0.1926 -0.9598,0.4007 -2.1534,0.8992 -2.4832,3.6795 -0.0102,0.0814 -0.0684,0.1481 -0.1482,0.1675 -0.0155,0.0039 -0.0314,0.006 -0.0468,0.006z"/>
  <path class="fil1" d="M5.304 128.096c-0.1919,-0.6402 -0.6446,-1.8678 -1.2214,-2.608 -0.1206,1.3423 0.0871,3.3832 1.5984,5.2183 0.1274,-0.9807 -0.0942,-1.6616 -0.377,-2.6103z"/>
  <path class="fil1" d="M4.2506 126.095c-0.0064,1.0524 0.2155,2.5923 1.271,4.0803 0.0032,-0.6545 -0.1612,-1.2037 -0.3722,-1.91l-0.0334 -0.1125c-0.1789,-0.5976 -0.4929,-1.416 -0.8654,-2.0578zm1.4305 4.8083c-0.0575,0 -0.1137,-0.0253 -0.151,-0.0715 -1.6662,-2.0236 -1.7445,-4.227 -1.6433,-5.3608 0.0078,-0.0802 0.0628,-0.1482 0.1404,-0.1708 0.0776,-0.0226 0.1602,0.0039 0.2103,0.0678 0.7017,0.8999 1.1684,2.3837 1.2541,2.6723l0.0339 0.1125c0.2667,0.8918 0.4776,1.5967 0.3506,2.5795 -0.0101,0.0776 -0.0652,0.1418 -0.1404,0.1637 -0.0179,0.0049 -0.0363,0.0074 -0.0546,0.0073z"/>
  <path class="fil1" d="M9.7384 124.041c-0.0353,0.5817 0.1918,1.8514 0.4053,2.3689 0.1058,-0.7674 0.5214,-2.0444 0.6121,-2.8381 0.0727,-0.6411 -0.0163,-1.6633 -0.4626,-2.153 0.0336,0.038 -0.4557,0.9779 -0.5548,2.6222z"/>
  <path class="fil1" d="M10.3515 121.875c-0.1421,0.4191 -0.356,1.1564 -0.4174,2.1781 -0.0207,0.3436 0.0596,0.9793 0.1764,1.5247 0.0413,-0.1733 0.0868,-0.3539 0.1327,-0.5384 0.1333,-0.5327 0.2709,-1.0837 0.3175,-1.4901 0.06,-0.5235 -0.0014,-1.2083 -0.2092,-1.6743zm-0.2077 4.7311c-0.0791,0 -0.1515,-0.0472 -0.1822,-0.1213 -0.2307,-0.561 -0.4547,-1.869 -0.4194,-2.4553 0.0773,-1.2818 0.3828,-2.1351 0.514,-2.4991 0.0184,-0.052 0.0328,-0.0911 0.0406,-0.1165 0.0014,-0.0518 0.0229,-0.103 0.0645,-0.1404 0.0798,-0.0723 0.2039,-0.067 0.2769,0.0131 0.4731,0.5193 0.5977,1.5603 0.513,2.3075 -0.0497,0.4318 -0.1909,0.9956 -0.3267,1.5406 -0.1227,0.4886 -0.2378,0.9504 -0.2868,1.3021 -0.0116,0.0878 -0.0815,0.1566 -0.1697,0.1679 -0.0084,0.0011 -0.0169,0.0014 -0.0242,0.0014z"/>
  <path class="fil1" d="M37.986 60.5593c1.5741,-0.4515 3.448,-1.4788 7.1377,0.5194 4.1128,2.227 6.8192,12.3627 6.8224,12.3726 0,0 -6.5204,-6.9815 -7.8976,-8.3979 -2.9097,-2.993 -6.0625,-4.494 -6.0625,-4.4941z"/>
  <path class="fil1" d="M38.5014 60.6059c0.9699,0.526 3.4159,1.9742 5.6875,4.3106 1.1244,1.1568 5.7287,6.0773 7.3406,7.8014 -0.7301,-2.4212 -3.1521,-9.6541 -6.4993,-11.4667 -1.4458,-0.7833 -2.7333,-1.1638 -3.9338,-1.1638 -0.9873,-0.0001 -1.7822,0.2561 -2.4832,0.4822 -0.0374,0.0123 -0.0751,0.0244 -0.1118,0.0363zm13.4523 13.0419c-0.0094,0 -0.0182,-0.0007 -0.0277,-0.0021 -0.0462,-0.0043 -0.0907,-0.0247 -0.1235,-0.0603 -0.0651,-0.0699 -6.5352,-6.9963 -7.8952,-8.3951 -2.8488,-2.931 -5.9753,-4.4387 -6.006,-4.4535 -0.0736,-0.0353 -0.1182,-0.1122 -0.1111,-0.1936 0.0063,-0.0816 0.0631,-0.15 0.1411,-0.1726 0.1827,-0.0522 0.369,-0.1125 0.5616,-0.1746 0.729,-0.235 1.5547,-0.5016 2.6035,-0.5016 1.2676,-0.0001 2.6159,0.3965 4.1212,1.2118 3.9976,2.1645 6.671,11.5954 6.9042,12.4431 0.0176,0.0297 0.0282,0.0646 0.0282,0.102 0.0001,0.1086 -0.0882,0.1965 -0.1963,0.1965z"/>
  <path class="fil1" d="M35.706 51.4241c0,0 0.4317,4.3174 -1.3473,6.8599 -1.7783,2.5424 -1.942,3.5052 -1.942,3.5052 0,-0.0001 0.1178,-1.6034 1.241,-4.7435 1.123,-3.1398 2.0482,-5.6215 2.0483,-5.6216z"/>
  <path class="fil1" d="M35.5526 52.4034c-0.3683,1.0002 -1.0024,2.7303 -1.71,4.7086 -0.4627,1.2929 -0.7532,2.3266 -0.9359,3.0907 0.2914,-0.5232 0.7048,-1.1931 1.2908,-2.0313 1.216,-1.7378 1.3702,-4.3663 1.3551,-5.768zm-3.1359 9.5815c-0.0087,0 -0.017,-0.0003 -0.0258,-0.0014 -0.1032,-0.0134 -0.1788,-0.1047 -0.1707,-0.2088 0.0054,-0.0663 0.1333,-1.6662 1.2527,-4.795 1.1105,-3.1052 2.0397,-5.5992 2.0486,-5.6243 0.0317,-0.0854 0.1192,-0.1362 0.2095,-0.1259 0.0907,0.0116 0.1612,0.0843 0.1697,0.1749 0.0184,0.1796 0.4187,4.4196 -1.3811,6.9921 -1.7142,2.4503 -1.9086,3.4177 -1.91,3.4272 -0.0171,0.0942 -0.0998,0.1612 -0.1929,0.1612z"/>
  <path class="fil1" d="M46.4601 69.8879c0,0 8.7778,8.6208 7.4809,26.3722 0.0002,0 -8.8173,-12.0734 -7.4809,-26.3722z"/>
  <path class="fil1" d="M46.6181 70.3471c-0.9732,12.3275 5.6232,23.0241 7.1653,25.3362 0.9389,-15.2449 -5.6713,-23.6456 -7.1653,-25.3362zm7.3231 26.1095c-0.0615,0 -0.1205,-0.0292 -0.1578,-0.0807 -0.0888,-0.1215 -8.8467,-12.2975 -7.5188,-26.5064 0.0078,-0.0755 0.0575,-0.1404 0.1284,-0.1661 0.0713,-0.0262 0.1506,-0.0088 0.2053,0.0441 0.0882,0.0871 8.8265,8.8889 7.5396,26.5271 -0.0062,0.0818 -0.0631,0.1517 -0.1422,0.1743 -0.0182,0.0052 -0.036,0.0077 -0.0545,0.0077z"/>
  <path class="fil1" d="M55.2862 89.8818c0,0 4.4147,13.5172 4.5819,26.5121 0,0 -4.8007,-15.0767 -4.6101,-19.3114 0.1179,-2.6181 0.2236,-5.2137 0.0282,-7.2007z"/>
  <path class="fil1" d="M55.5795 91.5276c0.0419,1.5886 -0.0294,3.4343 -0.1254,5.564 -0.1534,3.4117 3.0208,14.1111 4.1833,17.8989 -0.3507,-9.798 -2.9637,-19.6973 -4.0579,-23.4629zm4.2886 25.0627c-0.0843,0 -0.1609,-0.0542 -0.187,-0.1368 -0.1963,-0.617 -4.8091,-15.1585 -4.6189,-19.3795 0.1302,-2.9051 0.2155,-5.2779 0.0282,-7.173 -0.0098,-0.0995 0.0568,-0.1909 0.1549,-0.2113 0.0977,-0.0202 0.1965,0.0359 0.2272,0.1312 0.0445,0.135 4.4142,13.6553 4.5914,26.5151 0.0053,0.0183 0.0084,0.0378 0.0084,0.0579 0,0.1096 -0.0938,0.2007 -0.2004,0.1965 -0.0014,-0.0001 -0.0031,0 -0.0038,-0.0001z"/>
  <path class="fil1" d="M49.493 91.8687c0,0 2.779,15.7519 8.8976,24.5252 0.0002,0 -1.4742,-5.6836 -4.9688,-17.3634 -1.034,-3.4526 -3.9289,-7.1617 -3.9288,-7.1618z"/>
  <path class="fil1" d="M49.8496 92.6857c0.6513,3.2481 3.2515,15.0454 8.0429,22.6043 -0.5965,-2.2101 -2.0849,-7.5999 -4.6595,-16.2031 -0.7485,-2.5016 -2.5082,-5.1696 -3.3834,-6.4012zm8.5412 23.9046c-0.0629,0 -0.1236,-0.0299 -0.1614,-0.0839 -6.0729,-8.708 -8.9023,-24.4457 -8.9299,-24.6038 -0.016,-0.0886 0.0307,-0.1767 0.1133,-0.2134 0.0822,-0.0364 0.1789,-0.0123 0.2349,0.0586 0.0291,0.0373 2.9295,3.7782 3.9624,7.2263 3.4559,11.5499 4.9555,17.3136 4.971,17.3704 0.0238,0.092 -0.0225,0.188 -0.1083,0.2279 -0.0267,0.012 -0.0543,0.018 -0.082,0.0179z"/>
  <path class="fil1" d="M32.9896 83.1562c-0.0645,0.2406 -0.1044,0.5556 -0.1196,0.9652 -0.0538,1.3744 0,2.7668 0,4.143 0.0001,0 0.2737,2.171 2.1491,2.2391 1.8769,0.0681 3.3457,1.0178 3.4269,-2.7816 0,-0.0001 -0.4057,-4.7488 -3.4269,-5.1562 -1.1574,-0.1563 -1.7819,-0.3221 -2.0295,0.5905z"/>
  <path class="fil1" d="M33.9038 82.6394c-0.3782,0 -0.5943,0.0882 -0.7248,0.5683 -0.0606,0.2268 -0.0984,0.5281 -0.1129,0.9211 -0.0358,0.9119 -0.0236,1.8486 -0.0123,2.7542 0.0064,0.4613 0.0123,0.9225 0.0123,1.3814 0.0086,0.0571 0.2762,1.9816 1.9608,2.043 0.3247,0.0116 0.6307,0.0483 0.9267,0.0839 0.2997,0.0359 0.5821,0.0699 0.8347,0.0699l0 0c0.7396,0 1.4069,-0.2099 1.4615,-2.7436 -0.003,-0.025 -0.4282,-4.5759 -3.2568,-4.9572l-0.255 -0.0357c-0.3262,-0.0459 -0.6086,-0.0853 -0.8342,-0.0853zm2.8845 8.2148l0 0c-0.2755,0 -0.5701,-0.0353 -0.8816,-0.0727 -0.2882,-0.035 -0.586,-0.0706 -0.8943,-0.0818 -2.0198,-0.0734 -2.3343,-2.3873 -2.3375,-2.4106 -0.0014,-0.4822 -0.0078,-0.9412 -0.0138,-1.4009 -0.0112,-0.9108 -0.0236,-1.8524 0.0124,-2.7746 0.016,-0.4226 0.0575,-0.7528 0.1263,-1.0085 0.1634,-0.602 0.4935,-0.8587 1.1038,-0.8587 0.2534,-0.0001 0.5479,0.0416 0.8894,0.0896l0.2534 0.0349c3.1397,0.4233 3.5784,5.134 3.5954,5.334 -0.0475,2.2719 -0.5676,3.1493 -1.8535,3.1493z"/>
  <path class="fil1" d="M32.8461 98.0208c0,1.0238 0.6917,1.8543 1.5465,1.8543l2.3008 -0.0001c0.8541,0 1.5462,-0.8304 1.5462,-1.8541l0 -3.5222c0,-1.0235 -0.6921,-1.8535 -1.5462,-1.8535l-2.3007 0c-0.8548,0 -1.5467,0.8301 -1.5467,1.8535l0.0001 3.5221z"/>
  <path class="fil1" d="M34.3927 92.8413c-0.7447,0 -1.3502,0.7437 -1.3502,1.6574l0.0001 3.5221c0,0.914 0.6053,1.6578 1.35,1.6578l2.3008 -0.0001c0.7448,0 1.3501,-0.7436 1.3501,-1.6576l0.0001 -3.5222c0,-0.9137 -0.6055,-1.6573 -1.3502,-1.6573l-2.3007 -0.0001zm2.3007 7.2302l-2.3007 0c-0.9614,0 -1.7428,-0.92 -1.7428,-2.0506l0 -3.5222c0,-1.1303 0.7813,-2.05 1.7427,-2.05l2.3008 0c0.9611,0 1.7427,0.9197 1.7427,2.05l0 3.5221c0,1.1306 -0.7817,2.0508 -1.7427,2.0507z"/>
  <path class="fil1" d="M32.8675 107.841c0,-1.3761 0,-2.7668 0,-4.1429 0,-0.0001 0.2515,-2.1714 1.9731,-2.2391 1.7217,-0.0682 3.0692,-1.0178 3.1443,2.7813 0.0002,0 -0.0434,2.6151 -0.4134,3.5778 -0.405,1.0552 -1.4355,1.6006 -2.7309,1.5784 -1.0696,-0.0188 -1.9731,0.0007 -1.9731,-1.5555z"/>
  <path class="fil1" d="M36.4638 101.501c-0.2294,0 -0.489,0.034 -0.7624,0.0696 -0.2722,0.0356 -0.5532,0.0727 -0.8534,0.0843 -1.531,0.0603 -1.7759,1.9837 -1.7847,2.0655l0.0005 4.1204c0,1.329 0.6437,1.3399 1.7098,1.3579l0.1436 0.0017c1.216,0 2.1163,-0.5294 2.4708,-1.4527 0.3528,-0.92 0.4004,-3.4854 0.4004,-3.5108 -0.0496,-2.5259 -0.6547,-2.7358 -1.3246,-2.7359zm-1.5466 8.0921l-0.1492 -0.0018c-1.0311,-0.0172 -2.097,-0.0356 -2.097,-1.7504l0.0001 -4.1431c0.004,-0.0462 0.2938,-2.3614 2.1617,-2.4352 0.2817,-0.0113 0.5539,-0.0469 0.8178,-0.0811 0.2868,-0.0378 0.5577,-0.073 0.8131,-0.073 1.1914,-0.0001 1.6729,0.8766 1.7177,3.1277 -0.0017,0.1153 -0.049,2.6681 -0.4269,3.6523 -0.4152,1.0833 -1.4495,1.7046 -2.8373,1.7046z"/>
  <path class="fil1" d="M40.7614 80.3219c0,0 -1.1784,1.051 -4.3859,0.9251 0,-0.0001 3.6001,2.6769 3.4357,8.0609 -0.1001,3.3186 -0.823,17.0597 -0.9549,21.4835 -0.1327,4.4241 -0.3274,7.2387 -2.921,11.0102l0.0001 0c3.5074,-4.6359 12.2148,-2.5269 10.0713,-11.7436 -0.3957,-1.7025 -3.7902,-13.4052 -4.3501,-18.3529 -0.6412,-5.6696 -0.8953,-11.3831 -0.8952,-11.3832z"/>
  <path class="fil1" d="M36.9087 81.454c0.9585,0.9155 3.2303,3.5515 3.099,7.8599 -0.0464,1.5303 -0.2261,5.3023 -0.4166,9.2954 -0.2194,4.5952 -0.4671,9.8037 -0.5383,12.1881 -0.1143,3.8248 -0.29,6.5123 -2.0275,9.627 1.1544,-0.9071 2.5429,-1.4768 3.8979,-2.0324 3.3408,-1.371 6.2258,-2.5545 4.8919,-8.2896 -0.0874,-0.3785 -0.3238,-1.2513 -0.6515,-2.4592 -1.1411,-4.2157 -3.266,-12.0632 -3.7021,-15.9159 -0.5453,-4.8162 -0.8131,-9.718 -0.8798,-11.0469 -0.4994,0.2896 -1.6379,0.7719 -3.673,0.7736zm-0.9733 40.544c-0.0399,0 -0.0806,-0.0119 -0.1151,-0.0373 -0.0867,-0.0622 -0.1076,-0.1824 -0.047,-0.2702 2.5525,-3.7123 2.7524,-6.4266 2.8868,-10.9051 0.0713,-2.3877 0.3091,-7.3734 0.5384,-12.1948 0.1913,-3.9917 0.3707,-7.7615 0.4166,-9.2886 0.1599,-5.2212 -3.3214,-7.8712 -3.357,-7.8973 -0.0687,-0.0516 -0.0964,-0.1418 -0.0681,-0.223 0.0294,-0.0811 0.1068,-0.1369 0.1933,-0.1309 3.0678,0.1189 4.2375,-0.8667 4.2485,-0.8759 0.057,-0.0495 0.1369,-0.0632 0.2064,-0.0332 0.0696,0.0296 0.1164,0.0963 0.1192,0.1718 0.0026,0.0568 0.2611,5.7722 0.8947,11.3697 0.4325,3.823 2.5523,11.6515 3.6911,15.8574 0.3278,1.212 0.5648,2.0874 0.6547,2.4729 1.4102,6.0607 -1.7653,7.3629 -5.1259,8.7419 -1.8435,0.7563 -3.7496,1.5384 -4.9805,3.1647 -0.038,0.0512 -0.0973,0.078 -0.1561,0.0779z"/>
  <path class="fil1" d="M44.7611 168.935c0,0 -1.4461,6.1806 -2.9598,11.1333 -0.5664,1.8528 -6.3194,25.7189 -6.0809,29.579 0.0457,0.7366 0.1933,0.623 0.8954,-0.1958 2.4742,-2.8875 4.2679,-3.1125 4.2679,-3.1125 0.0001,-0.0001 0.4007,-11.3045 3.8774,-37.404z"/>
  <path class="fil1" d="M44.1029 172.438c-0.5584,2.2059 -1.3294,5.122 -2.1136,7.6874 -0.5076,1.6594 -6.3109,25.6614 -6.0734,29.5095 0.0078,0.1235 0.0176,0.2036 0.0271,0.2558 0.1394,-0.1193 0.3814,-0.4015 0.5232,-0.5677 2.0969,-2.4468 3.719,-3.0197 4.228,-3.146 0.0608,-1.3752 0.5916,-11.9331 3.4087,-33.739zm-8.2173 37.8961l0 0c-0.3203,0 -0.3447,-0.406 -0.3617,-0.6752 -0.2402,-3.882 5.581,-27.9841 6.0897,-29.6481 1.4945,-4.8903 2.9418,-11.0593 2.9559,-11.121 0.0237,-0.1016 0.1217,-0.1683 0.2268,-0.1485 0.1027,0.019 0.1736,0.1153 0.1595,0.219 -3.435,25.7877 -3.8717,37.2721 -3.8756,37.385 -0.0031,0.0963 -0.0759,0.176 -0.1715,0.188 -0.0161,0.0024 -1.7621,0.266 -4.144,3.0455 -0.4701,0.5482 -0.6679,0.7553 -0.8791,0.7553z"/>
  <path class="fil1" d="M34.9662 204.996c1.6536,-11.8333 4.0883,-16.7189 4.8055,-25.9006 0.1465,-1.869 -0.0515,-2.0034 -0.3937,-3.6827 -0.6941,-3.4025 -1.1807,-3.6995 -1.7596,-7.082 -0.2447,1.0192 -2.5393,2.7506 -2.7761,13.6568 -0.2668,12.2332 -0.3665,22.9672 0.1239,23.0085z"/>
  <path class="fil1" d="M37.5376 168.993c-0.0242,0.0465 -0.0512,0.0949 -0.079,0.1453 -0.7239,1.3187 -2.2292,4.0619 -2.4201,12.8524 -0.3124,14.3288 -0.2402,19.8357 -0.1012,21.8352 0.7463,-4.9936 1.6354,-8.7651 2.4264,-12.12 0.9835,-4.1716 1.8333,-7.7738 2.2122,-12.6266 0.1115,-1.4225 0.0247,-1.795 -0.1841,-2.6942 -0.0605,-0.2586 -0.1295,-0.5577 -0.2064,-0.9334 -0.3213,-1.5759 -0.5951,-2.4734 -0.8604,-3.3412 -0.2655,-0.87 -0.5186,-1.6979 -0.7874,-3.1175zm-2.5714 36.1989c-0.0051,0 -0.0106,0 -0.0159,-0.0007 -0.3415,-0.0286 -0.8096,-0.0681 -0.3045,-23.2086 0.1934,-8.8868 1.7297,-11.6871 2.4684,-13.033 0.1589,-0.2889 0.2731,-0.4978 0.3133,-0.6653 0.022,-0.0907 0.0988,-0.1581 0.1976,-0.1503 0.0933,0.0031 0.1714,0.0712 0.1873,0.1633 0.307,1.7942 0.5891,2.7192 0.8883,3.6985 0.2678,0.8767 0.5447,1.783 0.8699,3.3772 0.0752,0.3718 0.1443,0.6674 0.2032,0.9229 0.2129,0.914 0.3101,1.331 0.1934,2.8141 -0.381,4.8827 -1.2333,8.4987 -2.2208,12.6858 -0.8484,3.598 -1.8097,7.6758 -2.5851,13.2271 -0.0137,0.0974 -0.0977,0.169 -0.1951,0.169z"/>
  <path class="fil1" d="M36.1255 155.253c0.4935,-7.8239 3.5256,-14.3397 5.3621,-21.9406 0.7649,-3.1641 1.5843,-6.314 2.3753,-9.4714 0.2692,-1.0778 1.8217,-8.926 3.6851,-5.9506 1.3759,2.1949 0.9948,6.3919 0.9948,8.8476 0.0001,11.4755 -2.9979,35.8504 -3.6911,38.6091 0.0001,-0.0011 -0.3041,-2.6183 -1.4146,-3.9148 -0.8247,0.7394 -2.8311,2.2984 -5.4857,5.5111 0.0001,0 -2.2236,-5.3802 -1.8259,-11.6904z"/>
  <path class="fil1" d="M46.6943 117.418c-0.5287,0 -1.3988,1.0485 -2.5418,6.0431 -0.0419,0.1866 -0.0758,0.333 -0.0995,0.4279 -0.2736,1.093 -0.551,2.1851 -0.8279,3.277 -0.5147,2.0281 -1.0464,4.125 -1.5466,6.1934 -0.6296,2.6073 -1.4076,5.1106 -2.1594,7.5318 -1.4781,4.7578 -2.8744,9.2523 -3.1972,14.3742 -0.3375,5.346 1.2404,10.069 1.6923,11.2953 2.1618,-2.5774 3.8939,-4.0672 4.8383,-4.8796 0.1772,-0.1521 0.3288,-0.283 0.4534,-0.3944 0.0399,-0.0353 0.0874,-0.0512 0.1442,-0.0501 0.0527,0.0035 0.102,0.0282 0.1365,0.0684 0.6913,0.8068 1.0767,2.0789 1.2764,2.9806 0.9629,-5.5305 3.4837,-27.2362 3.4837,-37.5472 0.0002,-0.4086 0.0106,-0.8657 0.0222,-1.3536 0.0538,-2.3672 0.1288,-5.6092 -0.9874,-7.3896 -0.1647,-0.2636 -0.418,-0.5772 -0.6872,-0.5772zm-8.7428 49.7223c-0.0099,0 -0.0202,-0.0007 -0.0294,-0.0021 -0.068,-0.0103 -0.1266,-0.0557 -0.1527,-0.1192 -0.0223,-0.0544 -2.2356,-5.4953 -1.8394,-11.7783 0.3257,-5.1689 1.7282,-9.6851 3.2141,-14.4663 0.7505,-2.4148 1.5258,-4.9117 2.1523,-7.5078 0.501,-2.0698 1.0337,-4.1681 1.5484,-6.1969 0.277,-1.0919 0.5538,-2.1837 0.8269,-3.2763 0.0238,-0.0928 0.0568,-0.2367 0.0981,-0.4198 0.6766,-2.9559 1.6196,-6.3486 2.9245,-6.3486 0.3605,0 0.7041,0.2565 1.0202,0.7617 1.1785,1.8803 1.1025,5.1904 1.0464,7.6069 -0.0108,0.4847 -0.0216,0.9388 -0.0216,1.3448 0.0001,11.1731 -2.9573,35.7114 -3.6967,38.6571 -0.0208,0.0797 -0.0882,0.1383 -0.1697,0.1471 -0.085,0.0102 -0.1609,-0.0343 -0.1969,-0.1083 -0.0102,-0.0198 -0.0169,-0.0434 -0.0194,-0.0657 -0.0118,-0.1009 -0.3023,-2.3921 -1.2442,-3.6523 -0.091,0.0794 -0.1923,0.1669 -0.3037,0.2629 -0.9666,0.8311 -2.7665,2.3791 -5.0063,5.0898 -0.0376,0.0455 -0.0935,0.0713 -0.1509,0.0713z"/>
  <path class="fil1" d="M34.8563 152.399c2.2848,-14.3877 5.4689,-18.5064 8.5808,-32.5906 -2.8797,-0.3504 -7.5018,3.4773 -8.2152,5.2108 -0.9175,6.1962 0.7134,15.899 -0.3656,27.3798z"/>
  <path class="fil1" d="M35.4121 125.072c-0.4211,2.8706 -0.2946,6.5156 -0.1482,10.7337 0.1353,3.8745 0.284,8.1566 0.0575,12.8034 1.1494,-5.9521 2.48,-10.0648 3.8756,-14.3768 1.3046,-4.0319 2.6536,-8.1996 3.9998,-14.2476 -2.7543,-0.1211 -7.082,3.4428 -7.7847,5.0873zm-0.5552 27.5227c-0.0087,0 -0.017,-0.0006 -0.0258,-0.0013 -0.105,-0.0135 -0.1807,-0.1076 -0.1708,-0.2135 0.5748,-6.1084 0.3814,-11.6614 0.211,-16.5604 -0.147,-4.2492 -0.2748,-7.9195 0.1563,-10.8292 0.0025,-0.016 0.006,-0.0314 0.0123,-0.0463 0.7205,-1.7502 5.4307,-5.6888 8.4208,-5.3311 0.0552,0.0067 0.1044,0.0363 0.1365,0.0815 0.0326,0.0451 0.0438,0.1019 0.0318,0.1559 -1.3662,6.1849 -2.7351,10.4136 -4.0584,14.503 -1.6661,5.1488 -3.2406,10.0122 -4.5208,18.076 -0.0155,0.0963 -0.0981,0.1655 -0.1929,0.1654z"/>
  <path class="fil1" d="M49.0247 212.065c-1.6315,-0.86 -3.1344,-1.9596 -4.7085,-2.9167 -1.5159,-0.9218 -3.0953,-1.8704 -4.8669,-0.9257 0.4485,-0.2392 4.4517,1.8514 5.37,2.2038 1.3106,0.503 2.9771,0.9913 4.2054,1.6386z"/>
  <path class="fil1" d="M36.1676 211.967c1.2759,0 9.8391,0.2611 10.7133,0.26 -0.7573,-0.2092 -7.6839,-3.2018 -8.1689,-2.9372 -0.9151,0.4981 -2.3689,1.8962 -2.5444,2.6772z"/>
  <path class="fil1" d="M32.9533 119.74c-0.049,-0.241 -0.0784,-0.556 -0.0897,-0.9655 -0.0397,-1.3745 0,-3.9448 0,-5.3213 0.0002,-0.0001 0.2039,-2.171 1.5995,-2.2388 1.3953,-0.0681 3.1719,-1.3786 2.5499,2.7813 0.0001,0 -0.303,5.9278 -2.5499,6.3342 -0.8621,0.1562 -1.3261,0.3224 -1.5098,-0.5899z"/>
  <path class="fil1" d="M36.1269 111.162c-0.2403,0 -0.5162,0.0572 -0.8086,0.1175 -0.2783,0.0575 -0.5659,0.1171 -0.846,0.1309 -1.2113,0.0588 -1.4115,2.0408 -1.4129,2.0609 0.0008,0.4035 -0.0032,0.9377 -0.007,1.5149 -0.009,1.3278 -0.0198,2.8324 0.0077,3.7828 0.0106,0.3961 0.0388,0.7009 0.0858,0.9317 0.1038,0.5147 0.2737,0.5556 0.4864,0.5556 0.1596,0 0.3652,-0.0388 0.6029,-0.084l0.1927 -0.0356c1.717,-0.3105 2.3068,-4.5455 2.3886,-6.1514 0.2083,-1.3931 0.1595,-2.2673 -0.1418,-2.6169 -0.1228,-0.1425 -0.2921,-0.2064 -0.5478,-0.2064zm-2.4946 9.4869c-0.4814,0 -0.7503,-0.2684 -0.8717,-0.8706 -0.051,-0.2527 -0.0818,-0.5793 -0.0935,-0.9984 -0.0274,-0.9571 -0.0166,-2.4655 -0.0074,-3.7962 0.0041,-0.5765 0.0074,-1.1092 0.0074,-1.5307 0.0103,-0.114 0.2385,-2.3598 1.7862,-2.4353 0.249,-0.012 0.5221,-0.068 0.7859,-0.1231 0.2985,-0.0613 0.6068,-0.1252 0.8876,-0.1252 0.3702,0 0.6467,0.1122 0.8456,0.3429 0.3896,0.4522 0.4639,1.3776 0.235,2.9122 -0.0111,0.2292 -0.3366,6.0692 -2.7097,6.4988l-0.1893 0.0353c-0.258,0.0483 -0.4799,0.0903 -0.6761,0.0903z"/>
  <path class="fil1" d="M35.3032 59.9917c3.1428,-1.5427 5.8355,-1.5426 9.7355,-1.0678 -3.2133,-1.1364 -6.6333,-2.9806 -7.8715,-1.4118 -0.629,0.7972 -1.3632,1.8919 -1.864,2.4796z"/>
  <path class="fil1" d="M38.6387 57.1028c-0.6046,0 -1.0355,0.1736 -1.3174,0.531 -0.2806,0.3559 -0.5842,0.7743 -0.878,1.1786 -0.1682,0.2314 -0.3323,0.4565 -0.4872,0.6647 1.6698,-0.7081 3.3355,-1.028 5.2941,-1.028 0.6764,-0.0001 1.4065,0.0359 2.268,0.1139 -0.1523,-0.0597 -0.3051,-0.1192 -0.4565,-0.1785 -1.6806,-0.659 -3.2685,-1.2816 -4.423,-1.2817zm-3.3355 3.085c-0.0594,0 -0.1176,-0.0264 -0.155,-0.0757 -0.0574,-0.0735 -0.0554,-0.1768 0.0053,-0.2477 0.2699,-0.3172 0.6107,-0.7863 0.9719,-1.2827 0.2954,-0.4078 0.6015,-0.829 0.8876,-1.191 0.3613,-0.4582 0.8929,-0.6805 1.6256,-0.6805 1.2292,0 2.8497,0.6354 4.5667,1.3085 0.6164,0.2416 1.2527,0.491 1.8757,0.7119 0.0923,0.0158 0.162,0.0966 0.162,0.1933 0.0001,0.1096 -0.0738,0.188 -0.2004,0.1965 -0.0059,-0.0001 -0.0184,0 -0.0279,-0.0018 -1.5732,-0.1912 -2.7347,-0.2765 -3.7645,-0.2765 -2.1843,-0.0001 -3.9917,0.4088 -5.8603,1.3257 -0.0286,0.0137 -0.0579,0.0201 -0.0867,0.02z"/>
  <path class="fil1" d="M58.3261 117.401c1.5033,-0.2571 3.2173,-0.038 3.308,1.1879 0.2815,3.827 -0.4128,4.9925 -0.9681,5.8 -0.3397,-2.8642 -1.5857,-3.4131 -2.6027,-3.8375 -0.7615,-0.3183 -2.1894,-0.2032 -3.1983,-0.0988 0.3522,-1.6196 1.8849,-2.7813 3.4611,-3.0516z"/>
  <path class="fil1" d="M56.5894 120.147c0.6838,0 1.1899,0.0731 1.5497,0.223 0.9375,0.3912 2.2003,0.9186 2.6458,3.4734 0.4384,-0.7522 0.8883,-2.0468 0.6527,-5.2401 -0.0726,-0.9942 -1.4408,-1.1014 -2.025,-1.1014 -0.3392,-0.0001 -0.6935,0.031 -1.0534,0.0928 -1.5309,0.2624 -2.8208,1.3264 -3.2321,2.6345 0.4453,-0.0427 0.9677,-0.0822 1.4623,-0.0822zm4.0767 4.4383c-0.0161,0 -0.0315,-0.0021 -0.0477,-0.006 -0.0789,-0.0194 -0.1383,-0.0861 -0.1475,-0.1675 -0.3297,-2.7804 -1.524,-3.2788 -2.4828,-3.6795 -0.3067,-0.1278 -0.7772,-0.1926 -1.3987,-0.1926 -0.586,-0.0001 -1.2189,0.0582 -1.7036,0.1086 -0.0613,0.0056 -0.1253,-0.0176 -0.1676,-0.0645 -0.0412,-0.047 -0.0582,-0.1111 -0.0451,-0.1729 0.3436,-1.5801 1.8319,-2.897 3.6202,-3.2032 0.381,-0.0656 0.7581,-0.0988 1.1193,-0.0988 1.4674,-0.0001 2.3488,0.5345 2.4172,1.4658 0.2745,3.7246 -0.3446,4.9696 -1.0018,5.9256 -0.0377,0.0539 -0.0985,0.085 -0.1619,0.085z"/>
  <path class="fil1" d="M58.9119 128.096c0.1915,-0.6402 0.644,-1.8678 1.2208,-2.608 0.1206,1.3423 -0.0872,3.3832 -1.5985,5.2183 -0.1266,-0.9807 0.0942,-1.6616 0.3777,-2.6103z"/>
  <path class="fil1" d="M59.9648 126.095c-0.3719,0.6417 -0.6859,1.4602 -0.8655,2.0578l-0.033 0.1125c-0.2114,0.7062 -0.3758,1.2556 -0.3719,1.91 1.0555,-1.488 1.2767,-3.0279 1.2704,-4.0803zm-1.4306 4.8083c-0.0176,0 -0.0363,-0.0024 -0.0547,-0.0073 -0.0746,-0.0219 -0.1305,-0.0861 -0.1404,-0.1637 -0.1269,-0.9829 0.0836,-1.6877 0.3507,-2.5795l0.034 -0.1125c0.0867,-0.2887 0.5527,-1.7724 1.254,-2.6723 0.0499,-0.0636 0.1333,-0.0896 0.2109,-0.0678 0.0771,0.0226 0.1327,0.0907 0.1397,0.1708 0.1021,1.1338 0.0237,3.3373 -1.6425,5.3608 -0.0379,0.0461 -0.0935,0.0716 -0.1517,0.0715z"/>
  <path class="fil1" d="M54.4778 124.041c0.0341,0.5817 -0.1921,1.8514 -0.4055,2.3689 -0.1057,-0.7674 -0.5214,-2.0444 -0.6128,-2.8381 -0.0725,-0.6411 0.0162,-1.6633 0.4632,-2.153 -0.0341,0.038 0.4558,0.9779 0.5551,2.6222z"/>
  <path class="fil1" d="M53.8646 121.875c-0.2085,0.466 -0.2693,1.1508 -0.2093,1.6747 0.046,0.4059 0.1838,0.9571 0.3175,1.4897 0.046,0.1845 0.0914,0.3652 0.1326,0.5384 0.1158,-0.5454 0.1965,-1.1811 0.1757,-1.5251 -0.0613,-1.0213 -0.2744,-1.7586 -0.4165,-2.1777zm0.2078 4.7311c-0.0082,0 -0.017,-0.0003 -0.0252,-0.0014 -0.0873,-0.0113 -0.1573,-0.0801 -0.1697,-0.1679 -0.0482,-0.3517 -0.164,-0.8135 -0.2861,-1.3021 -0.1364,-0.5451 -0.2776,-1.1088 -0.3266,-1.5402 -0.0854,-0.7476 0.0391,-1.7886 0.5129,-2.3079 0.073,-0.0801 0.1972,-0.0857 0.2769,-0.0131 0.0418,0.0374 0.0632,0.0886 0.0646,0.1404 0.0079,0.0254 0.0226,0.0646 0.0406,0.1165 0.1307,0.364 0.4367,1.2174 0.5133,2.4987 0.0353,0.5866 -0.1881,1.8948 -0.4195,2.4557 -0.0298,0.074 -0.103,0.1213 -0.1812,0.1213z"/>
  <path class="fil2" d="M30.5375 72.5319c0.5802,4.3886 -1.541,5.0973 -3.989,5.0973 -2.8737,0 -5.5675,-1.3105 -6.417,-5.0972 -0.7157,-3.192 0.7871,-5.8039 3.6608,-5.8039 2.8738,-0.0001 6.3426,2.7502 6.7452,5.8038z"/>
  <path class="fil1" d="M33.0231 65.6284c0,2.2288 -0.4625,9.4273 0.007,10.7601 0.4641,1.3155 1.5911,2.2793 3.0071,2.3647 4.6222,0.2794 9.1888,-2.0948 9.1888,-7.7798 -0.1319,-2.9807 -1.5236,-5.1739 -3.6019,-6.5952 -1.8622,-1.2728 -4.229,-2.9443 -6.3595,-2.6377 -2.2538,0.3242 -2.2415,2.5918 -2.2415,3.8879z"/>
  <path class="fil1" d="M35.7897 61.8999c-0.1686,0 -0.3363,0.012 -0.4972,0.0353 -2.0729,0.2977 -2.0729,2.4102 -2.0729,3.6717 0,0.6547 -0.0371,1.6778 -0.079,2.8621 -0.1062,2.9259 -0.2502,6.9332 0.0751,7.8543 0.4587,1.2999 1.5441,2.1561 2.8328,2.2341 0.2379,0.0141 0.4759,0.0212 0.7123,0.0212 0.0007,-0.0001 0.0007,0 0.0007,0 2.2477,-0.0001 4.2873,-0.652 5.7443,-1.8363 1.6511,-1.3419 2.5237,-3.3369 2.5237,-5.7689 -0.1202,-2.715 -1.3363,-4.9424 -3.5165,-6.4329l-0.1601 -0.1102c-1.6478,-1.1274 -3.6985,-2.5304 -5.5632,-2.5304zm0.9718 17.0716c0,0 0,0.0001 -0.0007,0.0001 -0.2438,-0.0001 -0.4904,-0.0075 -0.7359,-0.0223 -1.4488,-0.0875 -2.6677,-1.0435 -3.18,-2.4955 -0.3494,-0.9913 -0.2099,-4.8768 -0.097,-7.9985 0.0421,-1.1812 0.079,-2.201 0.079,-2.8269 0.0002,-1.3194 0,-3.7359 2.4095,-4.0823 0.1793,-0.0258 0.3651,-0.0388 0.5532,-0.0388 1.9869,-0.0001 4.0925,1.4411 5.7848,2.5993l0.1605 0.1096c2.2858,1.5632 3.5606,3.8969 3.6876,6.7487 0.0002,2.5626 -0.9228,4.663 -2.6691,6.0823 -1.5265,1.241 -3.6544,1.9244 -5.9919,1.9243z"/>
  <path class="fil2" d="M33.78 72.5319c-0.5797,4.3886 1.5407,5.0973 3.9894,5.0973 2.8737,0 5.5671,-1.3105 6.4163,-5.0972 0.7159,-3.192 -0.7871,-5.8039 -3.6608,-5.8039 -2.8736,-0.0001 -6.3419,2.7502 -6.7449,5.8038z"/>
 </g>
</svg>
