<?xml version="1.0" encoding="UTF-8"?>
<!DOCTYPE svg PUBLIC "-//W3C//DTD SVG 1.1//EN" "http://www.w3.org/Graphics/SVG/1.1/DTD/svg11.dtd">
<!-- Creator: CorelDRAW -->
<svg xmlns="http://www.w3.org/2000/svg" xml:space="preserve" width="64mm" height="214mm" style="shape-rendering:geometricPrecision; text-rendering:geometricPrecision; image-rendering:optimizeQuality; fill-rule:evenodd; clip-rule:evenodd"
viewBox="0 0 64 214"
 xmlns:xlink="http://www.w3.org/1999/xlink">
 <defs>
  <style type="text/css">
   <![CDATA[
    .fil0 {fill:#B55555}
    .fil1 {fill:white}
   ]]>
  </style>
 </defs>
 <g id="Layer_x0020_1">
  <metadata id="CorelCorpID_0Corel-Layer"/>
  <path class="fil0" d="M62.3996 118.099c0.0902,-0.0674 -2.5584,-11.7941 -5.2826,-24.6899 -1.4446,-6.839 -3.1147,-14.116 -3.1422,-14.1054 -2.3043,-9.579 -4.1409,-16.5563 -8.1516,-20.6326 -0.5239,-0.5335 -1.3124,-1.0873 -2.2102,-1.6094 0.0001,0 -0.6674,-0.2688 -1.6034,-0.6442 0.0011,-0.0024 0.0018,-0.0049 0.0018,-0.0074 -0.5407,-0.217 -1.1709,-0.4692 -1.8136,-0.7263 -0.0212,-0.042 -2.4494,-1.0217 -2.4194,-0.9635 -0.9693,-0.3839 -1.676,-0.659 -1.7032,-0.6568l0 -4.8709c5.7874,-1.5106 10.2323,-5.1367 11.9765,-10.6944 2.395,-0.1979 4.4411,-1.9022 4.8881,-4.2979 0.5009,-2.6885 -1.1896,-5.2941 -3.8418,-6.0963 0.0861,-1.0367 0.1574,-2.0091 0.2004,-2.8533 0.2308,-4.5353 -0.1581,-9.271 -3.0932,-13.0306 -2.9311,-3.7565 -6.2836,-6.4145 -14.4067,-6.4145 -8.1226,0 -11.4755,2.6582 -14.4067,6.4145 -2.9347,3.7596 -3.3246,8.4953 -3.0932,13.0306 0.0431,0.8441 0.1143,1.8168 0.2004,2.8529 -2.6522,0.8021 -4.3431,3.4078 -3.8418,6.0967 0.4467,2.3952 2.4931,4.1 4.8874,4.2975 1.7724,5.6447 6.3278,9.2993 12.2481,10.7665l0.0001 4.7991c-0.0244,-0.0021 -3.7748,1.4814 -3.8256,1.5015 0.0008,0.0024 0.0017,0.0049 0.0028,0.007 -1.8679,0.7464 -3.7151,1.4898 -3.7151,1.4898 -0.8974,0.5221 -1.6859,1.076 -2.2102,1.6094 -4.0099,4.0763 -5.8469,11.0536 -8.1516,20.6326 -0.0278,-0.0107 -1.6976,7.2665 -3.1422,14.1054 -2.7241,12.8957 -5.3728,24.6225 -5.2825,24.6899 -0.0998,1.8065 -0.5845,5.5305 0.4082,8.2356 1.2799,3.4882 4.107,7.2104 5.1844,4.821 0.3723,-0.8265 -0.4434,-6.2029 0.6964,-7.125 0.3236,-0.2593 0.6233,-0.423 0.883,-0.4184 0.3366,0.0059 0.122,3.2134 0.1852,3.5412 0.2135,1.1083 1.9696,0.9641 2.0761,-0.2424l0.4339 -4.9519c0.0755,-0.7476 0.0745,-1.8295 -0.4808,-2.4264 -0.574,-0.6185 -1.4665,-0.5313 -1.5452,-1.6126 -0.1164,-1.6077 1.2764,-6.3704 1.6637,-8.0617 3.2438,-14.1693 6.1616,-23.1873 7.6631,-34.1503 0.7006,1.4129 1.8291,2.606 3.2896,3.0773l0.2452 1.6273c0.114,2.3834 -0.0681,8.0152 -2.1266,15.9093 -0.3241,1.2431 -2.601,8.6014 -4.0523,14.2829 0.0001,0 -1.0033,4.4168 -1.0312,4.5794 -0.6904,3.908 -1.173,10.287 -0.5725,17.1112 0.6427,17.8427 5.577,50.4218 6.7842,65.375 0.4936,6.1034 0.4936,8.4603 0.4936,8.4603 0,0 -2.6473,3.4025 -9.288,6.2085 0,0 0.6484,0.865 3.6442,0.846 3.2749,-0.0191 12.5885,0.3087 13.9365,-0.6064 0.6971,-0.4731 0.1051,-81.5499 0.1051,-81.5499 0.1422,-1.6916 -0.0518,-5.3703 -0.1132,-6.4322 0.0099,-0.0011 0.019,-0.0007 0.0279,-0.0025l2.4433 0 0.6665 0 0.8279 0c-0.0607,1.0583 -0.2554,4.7417 -0.1129,6.4347 0,0 -0.5923,81.0768 0.1051,81.5499 1.3477,0.9151 10.6617,0.5873 13.9365,0.6064 2.9959,0.019 3.6445,-0.846 3.6445,-0.846 -6.6406,-2.806 -9.2882,-6.2085 -9.2882,-6.2085 0,0 0,-2.3569 0.4931,-8.4603 1.2076,-14.9532 6.1419,-47.5322 6.7847,-65.375 0.6008,-6.8242 0.1174,-13.2031 -0.5722,-17.1112 -0.0275,-0.1573 -0.9981,-4.567 -1.0273,-4.5607 -1.4506,-5.684 -3.7321,-13.0573 -4.0566,-14.3016 -2.0581,-7.8941 -2.2402,-13.5258 -2.1266,-15.9092l0.241 -1.5981c1.4552,-0.4318 2.5936,-1.5745 3.3154,-2.9524 1.5078,10.8934 4.4129,19.8935 7.6415,33.9961 0.3874,1.6912 1.7805,6.4541 1.6641,8.0617 -0.079,1.0813 -0.9712,0.9941 -1.5452,1.6126 -0.5553,0.5969 -0.556,1.6788 -0.4812,2.4264l0.4343 4.9519c0.1062,1.2065 1.8619,1.3508 2.0761,0.2424 0.0628,-0.3278 -0.151,-3.5352 0.1848,-3.5412 0.2601,-0.0046 0.5602,0.1591 0.883,0.4184 1.1399,0.9221 0.3246,6.2985 0.6964,7.125 1.0771,2.3893 3.9049,-1.3328 5.1844,-4.821 0.9925,-2.7052 0.5077,-6.429 0.4083,-8.2356z"/>
  <path class="fil0" d="M49.0282 115.184c-0.012,0.0004 -0.0251,0.0004 -0.0251,0.0004 0.0152,-0.0004 0.0184,-0.0003 0.0251,-0.0004z"/>
  <path class="fil0" d="M49.0282 115.184c0.0187,0 0.0271,0.0001 0,0.0001l0 -0.0001z"/>
  <path class="fil0" d="M14.9612 115.184c0,0 -0.0131,0 -0.0258,-0.0003 0.0074,-0.0001 0.0102,0 0.0258,0.0003z"/>
  <path class="fil0" d="M14.9354 115.184c-0.0261,0 -0.018,0.0001 0,0.0001l0 -0.0001z"/>
  <path class="fil1" d="M46.2152 113.507c0,-2.2912 -1.9178,-4.1493 -4.2835,-4.1493 -1.1324,0 -2.158,0.4286 -2.9235,1.1179 -1.4682,1.3652 -2.8282,1.0873 -3.6442,1.0873l-2.9351 -0.0001 -0.7062 0 -2.9355 0c-0.816,0 -2.1745,0.2781 -3.6432,-1.0872 -0.7658,-0.6893 -1.7921,-1.1179 -2.9234,-1.1179 -2.3657,0 -4.2845,1.8581 -4.2845,4.1494 0.0001,0.6893 0.1767,1.3381 0.4844,1.9106 1.3194,2.4687 1.2728,2.7129 0.957,4.6472 -0.0207,0.1495 -0.037,0.3016 -0.037,0.4568 0,1.6132 1.3501,2.921 3.0162,2.921 0.808,0 1.5396,-0.309 2.0807,-0.8096 0.1062,-0.0975 0.2011,-0.1986 0.2886,-0.3069 2.1544,-2.2692 3.1119,-1.9999 4.0612,-1.9999l2.9355 -0.0001 0.7062 0 2.9351 0c0.9494,0 1.9071,-0.2691 4.0615,2 0.0883,0.1082 0.1824,0.2095 0.2883,0.3069 0.5415,0.5005 1.2735,0.8096 2.0807,0.8096 1.6662,0 3.0169,-1.3077 3.0169,-2.921 0,-0.1553 -0.0162,-0.3073 -0.0367,-0.4568 -0.3161,-1.9344 -0.363,-2.1784 0.9575,-4.6472 0.3066,-0.5726 0.4829,-1.2213 0.483,-1.9107z"/>
  <path class="fil0" d="M22.9911 112.013c-1.3046,0 -2.3623,1.0249 -2.3623,2.2885 0.0001,1.2636 1.0577,2.2885 2.3622,2.2885 1.3047,-0.0001 2.3629,-1.0248 2.3629,-2.2885 0.0001,-1.2637 -1.0583,-2.2884 -2.3628,-2.2885z"/>
  <path class="fil0" d="M41.2572 112.013c-1.3039,0 -2.3612,1.0249 -2.3612,2.2885 0,1.2636 1.0573,2.2885 2.3612,2.2885 1.305,-0.0001 2.3636,-1.0248 2.3636,-2.2885 0,-1.2637 -1.0587,-2.2884 -2.3636,-2.2885z"/>
  <path class="fil1" d="M30.6442 58.1783c-0.2416,0 -5.9595,0.0138 -9.4992,1.2132 -0.3122,0.1055 -0.5666,0.333 -0.7165,0.6396 -0.1499,0.3073 -0.1764,0.6565 -0.0759,0.9839 0.1651,0.5337 0.6357,0.8925 1.1712,0.8925 0.1288,0 0.2565,-0.0211 0.3793,-0.0628 3.1739,-1.0753 8.6861,-1.0879 8.7418,-1.0879 0.6785,-0.0001 1.2309,-0.5786 1.2309,-1.2894 -0.0004,-0.711 -0.5528,-1.2891 -1.2316,-1.2891z"/>
  <path class="fil1" d="M43.7228 60.0311c-0.1496,-0.307 -0.4043,-0.5341 -0.7166,-0.6396 -3.5394,-1.1994 -9.2575,-1.2132 -9.4992,-1.2132 -0.6787,0 -1.2312,0.5782 -1.2312,1.2894 0.0001,0.7104 0.5525,1.2891 1.2312,1.2891 0.0554,-0.0001 5.5679,0.0127 8.7408,1.0879 0.1235,0.0416 0.2508,0.0628 0.3803,0.0628 0.5355,0 1.0057,-0.3587 1.1708,-0.8929 0.1013,-0.3274 0.0745,-0.6762 -0.0761,-0.9835z"/>
  <path class="fil1" d="M48.33 26.9351c0,-9.5536 -4.7092,-17.4257 -16.3001,-17.4257 -12.2173,-0.0001 -16.2997,7.8723 -16.2997,17.4259 0,15.4855 3.7959,15.5712 16.1967,15.5716 0.035,0 0.0681,0 0.103,0 0.035,0 0.0685,0 0.1034,0 12.3998,-0.0004 16.1967,-0.0861 16.1967,-15.5718z"/>
  <path class="fil1" d="M40.9887 44.0714c0,1.9794 -0.9581,2.927 -2.9372,2.927l-1.689 -0.2968 -8.6854 0 -1.5099 0.3217c-1.9792,0 -3.0964,-0.9724 -3.0964,-2.9519l0 -2.2783c0,-1.979 1.6047,-3.5838 3.5838,-3.5838l10.7514 0c1.9787,0 3.5827,1.6048 3.5827,3.5839l0 2.2782z"/>
  <path class="fil0" d="M35.7137 42.8942c-1.0121,0.0695 -2.0035,0.1058 -2.9588,0.1154l0 -2.0361c0.0512,-0.1791 0.3122,-0.8091 1.4481,-0.8091 1.154,-0.0001 1.451,0.6957 1.5106,0.8876l0.0001 1.8422zm0 2.8803c-0.0427,0.1542 -0.2929,0.8055 -1.4493,0.8055 -1.1539,0 -1.4506,-0.696 -1.5095,-0.8879l0 -1.4924c0.9567,-0.0095 1.9459,-0.0432 2.9587,-0.1103l0.0001 1.6851zm-4.3763 -2.769c-1.0491,-0.0158 -2.0419,-0.0594 -2.9594,-0.1201l0 -1.8311c0.0642,-0.2046 0.3644,-0.8899 1.5102,-0.8899 1.1483,-0.0001 1.403,0.6431 1.4492,0.8065l0 2.0346zm0 2.6843c-0.0642,0.2044 -0.3644,0.8902 -1.5109,0.8902 -1.1472,0 -1.4027,-0.6438 -1.4489,-0.8071l0 -1.692c0.9197,0.0593 1.9124,0.102 2.9598,0.1182l0 1.4907zm-4.2315 -2.9011c-1.173,-0.1026 -2.1806,-0.224 -2.9592,-0.3326l0.0001 -1.4046c0.0561,-0.1809 0.3513,-0.8871 1.5102,-0.8871 1.1479,-0.0001 1.4023,0.6431 1.4488,0.8065l0.0001 1.8178zm0 2.9037c-0.0565,0.181 -0.3518,0.8876 -1.5103,0.8876 -1.1482,0 -1.403,-0.6438 -1.4489,-0.8071l0.0001 -2.1119c0.7962,0.1083 1.7998,0.2263 2.959,0.3258l0.0001 1.7056zm9.8799 -4.7234c0.0433,-0.1542 0.2931,-0.8046 1.4484,-0.8046 1.1548,-0.0001 1.4507,0.6957 1.5113,0.8876l0.0001 1.3479c-0.9927,0.1683 -1.9841,0.2975 -2.9599,0.3917l0.0001 -1.8226zm2.9598 4.801c-0.0515,0.1792 -0.313,0.81 -1.4493,0.81 -1.1538,0 -1.4502,-0.696 -1.5099,-0.8879l0.0001 -1.7051c0.9761,-0.0907 1.9646,-0.2119 2.959,-0.3745l0.0001 2.1575zm-2.5185 1.8343c1.0894,-0.3512 2.2154,-0.5822 3.2938,-0.971 0.0516,-0.0184 0.1038,-0.0332 0.156,-0.0444 0.1433,-0.2371 0.2247,-0.4696 0.2547,-0.6548l0.0078 -2.4573c0,-0.0268 -0.0043,-0.052 -0.0078,-0.0785 0.4815,-0.0939 0.962,-0.1958 1.4407,-0.3104l-0.2775 -1.1621c-0.3846,0.0917 -0.7699,0.1743 -1.1555,0.2526l0.0001 -1.2013 -0.011 -0.1165c-0.1294,-0.654 -0.8601,-1.891 -2.6942,-1.891 -1.0385,-0.0001 -1.7099,0.381 -2.1173,0.8279 -0.424,-0.4488 -1.0996,-0.8279 -2.1139,-0.8279 -1.0756,-0.0001 -1.755,0.4088 -2.1572,0.8756 -0.4025,-0.4669 -1.0816,-0.8756 -2.1576,-0.8756 -1.0139,-0.0001 -1.6895,0.3788 -2.1135,0.8279 -0.4071,-0.447 -1.0781,-0.8279 -2.1177,-0.8279 -1.8341,-0.0001 -2.564,1.2372 -2.6935,1.8912l-0.007 1.4131c-0.3725,-0.0623 -0.586,-0.1043 -0.6001,-0.1071l-0.2367 1.1711c0.0173,0.0028 0.3115,0.0611 0.8325,0.1458l0.0001 2.3543 0.0077 0.0961c0.0318,0.1964 0.1224,0.447 0.2833,0.6996 1.0096,0.1785 1.9621,0.6748 2.8956,1.0975 0.7168,-0.1088 1.2273,-0.422 1.5705,-0.7843 0.4068,0.4465 1.0778,0.8273 2.1171,0.8273 1.1042,0 1.8055,-0.448 2.2196,-0.9479 0.4139,0.4998 1.1152,0.9479 2.2183,0.9479 1.0404,0 1.711,-0.3807 2.1177,-0.828 0.2526,0.267 0.5966,0.5059 1.045,0.6581z"/>
  <path class="fil0" d="M27.9374 30.3847c0,-2.5908 -2.0271,-4.6909 -4.5283,-4.6909 -2.5004,-0.0001 -4.5272,2.1001 -4.5272,4.6909 0,2.591 2.0267,4.6916 4.5272,4.6916 2.5012,-0.0001 4.5282,-2.1004 4.5283,-4.6916z"/>
  <path class="fil0" d="M40.6504 25.6937c-2.5001,0 -4.5279,2.1002 -4.5279,4.691 0.0001,2.591 2.0278,4.6916 4.5279,4.6916 2.5009,-0.0001 4.5275,-2.1004 4.5275,-4.6916 0.0001,-2.5908 -2.0267,-4.6909 -4.5275,-4.691z"/>
  <path class="fil0" d="M30.3624 37.1612c0.2296,0 0.4592,-0.0875 0.6339,-0.2621l1.0337 -1.0343 1.0336 1.0342c0.175,0.1747 0.4042,0.2622 0.6339,0.2622 0.229,0 0.4583,-0.0875 0.6332,-0.2621 0.3497,-0.3503 0.3496,-0.9172 0,-1.2672l-1.6467 -1.6467c-0.1799,-0.1804 -0.4181,-0.2657 -0.6541,-0.2604 -0.2363,-0.0053 -0.4738,0.0801 -0.6544,0.2604l-1.6464 1.6466c-0.3495,0.3501 -0.3496,0.917 0,1.2673 0.175,0.1746 0.4046,0.2621 0.6333,0.2621z"/>
  <path class="fil1" d="M25.1423 158.813c-0.0592,0.0018 -0.1147,0.016 -0.1722,0.0234l-1.6904 -29.8045c0.0578,0.0031 0.1146,0.0134 0.1738,0.0106 0.9783,-0.0342 1.742,-0.8541 1.7078,-1.8291 -0.0352,-0.9755 -0.8562,-1.7378 -1.8337,-1.7029 -0.4892,0.0176 -0.925,0.2311 -1.2337,0.5627 -0.3534,0.3785 -0.6572,0.3894 -1.0368,0.037 -0.3323,-0.3087 -0.7817,-0.49 -1.2707,-0.4727 -0.9775,0.0348 -1.742,0.8548 -1.7071,1.8305 0.0347,0.9747 0.8562,1.7371 1.8337,1.7022 0.0593,-0.0025 0.1147,-0.0155 0.1729,-0.0243l1.6898 29.8044c-0.0574,-0.0025 -0.1146,-0.012 -0.1739,-0.0106 -0.9782,0.0353 -1.7424,0.8544 -1.7067,1.8302 0.0343,0.9747 0.8555,1.7364 1.8326,1.7025 0.4894,-0.0176 0.925,-0.2317 1.2341,-0.5634 0.3535,-0.3789 0.6568,-0.3891 1.0371,-0.0367 0.3317,0.3084 0.7811,0.4908 1.27,0.4728 0.9779,-0.0357 1.7417,-0.8548 1.7071,-1.8299 -0.0348,-0.9754 -0.8551,-1.7367 -1.8337,-1.7022z"/>
  <path class="fil1" d="M27.417 200.488c-0.0504,0.0028 -0.0974,0.0159 -0.1457,0.0251l-1.338 -25.6375c0.0578,0.0032 0.1146,0.0134 0.1738,0.0103 0.9779,-0.0519 1.717,-0.9889 1.6521,-2.0917 -0.0649,-1.102 -0.9091,-1.9547 -1.8863,-1.9032 -0.4886,0.0265 -0.9183,0.2734 -1.2171,0.6519 -0.3404,0.4336 -0.6456,0.4491 -1.0361,0.0554 -0.3415,-0.3447 -0.7969,-0.545 -1.2852,-0.5185 -0.9771,0.0511 -1.7173,0.9877 -1.6517,2.0912 0.0646,1.1028 0.9091,1.9537 1.8863,1.9029 0.0597,-0.0035 0.1143,-0.019 0.1718,-0.0296l1.8211 25.6134c-0.049,-0.0039 -0.0974,-0.0127 -0.1479,-0.0099 -0.8293,0.0444 -1.4569,0.8393 -1.4015,1.7749 0.0551,0.9359 0.7715,1.6587 1.6012,1.6143 0.4142,-0.0216 0.7786,-0.2308 1.0322,-0.5518 0.2905,-0.3669 0.5479,-0.3813 0.8795,-0.0473 0.29,0.2928 0.6763,0.4622 1.0912,0.44 0.829,-0.0445 1.4566,-0.8389 1.4012,-1.7738 -0.0554,-0.937 -0.7712,-1.6598 -1.6009,-1.6161z"/>
  <path class="fil1" d="M25.2602 166.629c-0.0078,1.0054 -0.8316,1.814 -1.8395,1.8059 -1.0078,-0.0071 -1.8182,-0.8297 -1.8101,-1.8355 0.0082,-1.0044 0.8308,-1.814 1.8394,-1.8051 1.0072,0.0073 1.8182,0.83 1.8102,1.8347z"/>
  <path class="fil1" d="M24.4685 210.47c0,-0.8855 0.6046,-1.6027 1.3497,-1.6027l1.9925 0c0.7454,0 1.3497,0.7172 1.3497,1.6027 0.0001,0.8851 -0.6043,1.6027 -1.3497,1.6027l-1.9925 0c-0.745,0 -1.3497,-0.7176 -1.3497,-1.6027z"/>
  <path class="fil1" d="M22.9886 209.17c0.2896,0.5761 0.0585,1.2785 -0.5158,1.5674l-1.8122 0.9095c-0.5747,0.2882 -1.2756,0.0547 -1.5649,-0.5218 -0.29,-0.5768 -0.0582,-1.2784 0.5164,-1.567l1.812 -0.9095c0.5743,-0.2886 1.2745,-0.0554 1.5645,0.5214z"/>
  <path class="fil1" d="M17.8539 211.674c0,0.484 -0.393,0.8771 -0.8774,0.8771 -0.484,-0.0001 -0.877,-0.393 -0.877,-0.8771 0,-0.485 0.393,-0.8777 0.877,-0.8777 0.4844,0 0.8774,0.3927 0.8774,0.8777z"/>
  <path class="fil1" d="M13.7205 87.825c-0.0442,-0.0106 -0.0883,-0.0091 -0.1324,-0.0141l4.0186 -18.0975c0.0419,0.0159 0.081,0.0367 0.1248,0.0466 0.7257,0.1707 1.4869,-0.4272 1.7,-1.336 0.2142,-0.9091 -0.2004,-1.7843 -0.9253,-1.9551 -0.3623,-0.0857 -0.7342,0.0216 -1.0418,0.2632 -0.352,0.2772 -0.5775,0.224 -0.7687,-0.1806 -0.1682,-0.3536 -0.4533,-0.6149 -0.8152,-0.701 -0.7253,-0.1708 -1.487,0.4283 -1.7011,1.3374 -0.2135,0.9077 0.2014,1.7833 0.9256,1.954 0.0445,0.0106 0.0886,0.0092 0.133,0.0142l-4.0191 18.0977c-0.0416,-0.0161 -0.0801,-0.0366 -0.1249,-0.0461 -0.7246,-0.1715 -1.4863,0.4272 -1.6997,1.336 -0.2141,0.9079 0.2007,1.7843 0.9257,1.9543 0.362,0.0854 0.7338,-0.0215 1.0414,-0.2635 0.3521,-0.2763 0.5778,-0.2236 0.7694,0.1806 0.1676,0.3546 0.4526,0.616 0.8152,0.7007 0.725,0.171 1.4863,-0.8195 1.7001,-1.7283 0.2142,-0.9091 -0.2004,-1.3921 -0.9256,-1.5625z"/>
  <path class="fil1" d="M7.8678 111.935c-0.044,-0.0099 -0.0882,-0.0081 -0.1323,-0.0127l3.9173 -16.1171c0.0416,0.0149 0.0808,0.0354 0.1249,0.0452 0.7256,0.1679 1.4848,-0.4332 1.6947,-1.3426 0.2103,-0.9102 -0.2074,-1.7833 -0.9342,-1.952 -0.3626,-0.0833 -0.7337,0.0251 -1.0403,0.2689 -0.351,0.2779 -0.5768,0.2254 -0.7701,-0.1789 -0.1686,-0.3521 -0.4551,-0.6128 -0.8174,-0.6967 -0.7263,-0.1676 -1.4848,0.4342 -1.6955,1.3441 -0.2098,0.909 0.2082,1.7825 0.9335,1.9508 0.0445,0.0102 0.0885,0.0085 0.1333,0.0134l-3.9178 16.117c-0.041,-0.0152 -0.0809,-0.036 -0.1243,-0.0455 -0.7257,-0.1683 -1.4852,0.4336 -1.6951,1.3434 -0.2099,0.909 0.2082,1.7829 0.9335,1.9505 0.3638,0.0836 0.7348,-0.0247 1.041,-0.2681 0.3515,-0.2774 0.5768,-0.2258 0.7701,0.1778 0.169,0.3528 0.4551,0.6138 0.8181,0.6982 0.7261,0.1671 1.4845,-0.4354 1.6948,-1.3445 0.2102,-0.9095 -0.2078,-1.7836 -0.9342,-1.9512z"/>
  <path class="fil1" d="M7.4721 118.081c-0.1644,0.7917 -0.8454,1.3198 -1.5202,1.1794l-1.5558 -0.3231c-0.6752,-0.1408 -1.089,-0.8961 -0.9243,-1.6873l0.0001 0c0.1644,-0.7917 0.8448,-1.3198 1.5201,-1.179l1.5554 0.3231c0.6752,0.1404 1.0893,0.8957 0.9246,1.687l0.0001 -0.0001z"/>
  <path class="fil1" d="M6.1093 121.765c-0.0498,0.6925 -0.5141,1.2228 -1.0366,1.1854l-0.4183 -0.0301c-0.5225,-0.0377 -0.906,-0.6293 -0.8562,-1.3218l0 0c0.0501,-0.6925 0.5143,-1.223 1.0368,-1.1853l0.4184 0.0299c0.5225,0.0378 0.9056,0.6298 0.8558,1.3219l0.0001 0z"/>
  <path class="fil1" d="M5.3487 126.178c-0.0283,0.3659 -0.379,0.6379 -0.7832,0.6065l0 0c-0.4043,-0.0311 -0.7088,-0.3532 -0.6806,-0.719l0.1214 -1.5822c0.0283,-0.3662 0.3789,-0.6378 0.7832,-0.6064l0 0c0.4043,0.031 0.7091,0.3528 0.6805,0.7193l-0.1213 1.5818z"/>
  <path class="fil1" d="M6.1667 129.417c0.1119,0.3482 -0.11,0.731 -0.496,0.8555l0 0c-0.3859,0.1241 -0.7895,-0.0578 -0.9017,-0.406l-0.4847 -1.5057c-0.1118,-0.3486 0.1101,-0.7313 0.4963,-0.8555l0 0c0.386,-0.1245 0.7896,0.0575 0.9018,0.4061l0.4843 1.5056z"/>
  <path class="fil1" d="M10.8097 122.222c0.0183,0.3588 -0.2724,0.665 -0.6492,0.6833l0.0001 0c-0.3764,0.0191 -0.6961,-0.2568 -0.7138,-0.6156l-0.0772 -1.5512c-0.0176,-0.3595 0.2727,-0.6653 0.6495,-0.684l0 0c0.3764,-0.0191 0.696,0.2572 0.7136,0.616l0.077 1.5515z"/>
  <path class="fil1" d="M10.7179 125.978c-0.0286,0.3584 -0.3605,0.6237 -0.7412,0.593l0 0c-0.3803,-0.03 -0.6657,-0.3453 -0.6371,-0.7034l0.1246 -1.5484c0.0285,-0.3584 0.3605,-0.624 0.7408,-0.5933l0 0c0.3803,0.0303 0.6657,0.3454 0.6367,0.7041l-0.1238 1.548z"/>
  <path class="fil1" d="M16.0593 63.0589c0.0082,1.0362 0.8559,1.8698 1.8923,1.8617 1.0365,-0.0078 1.869,-0.8555 1.8609,-1.8923 -0.0087,-1.0355 -0.8544,-1.8694 -1.8912,-1.8605 -1.0365,0.0077 -1.8701,0.8551 -1.862,1.8911z"/>
  <path class="fil1" d="M34.5156 51.5298c0,0.5038 -0.4689,0.912 -1.0474,0.912l-2.7851 -0.0001c-0.5783,0 -1.0471,-0.4081 -1.0471,-0.9118l0 -1.1205c0,-0.5038 0.4688,-0.9122 1.047,-0.9122l2.7853 -0.0001c0.5785,0 1.0473,0.4086 1.0473,0.9123l0 1.1204z"/>
  <path class="fil1" d="M34.5156 55.8333c0,0.5042 -0.4689,0.9124 -1.0474,0.9124l-2.7851 0c-0.5783,0 -1.0471,-0.4082 -1.0471,-0.9123l0 -1.1204c0,-0.5035 0.4688,-0.9123 1.047,-0.9123l2.7853 -0.0001c0.5785,0 1.0473,0.409 1.0473,0.9124l0 1.1203z"/>
  <path class="fil1" d="M34.5156 61.0142c0,0.7099 -0.4689,1.2856 -1.0474,1.2856l-2.7851 0c-0.5783,0 -1.0471,-0.5757 -1.0471,-1.2855l0 -1.5798c0,-0.7101 0.4688,-1.2858 1.047,-1.2858l2.7853 -0.0001c0.5785,0 1.0473,0.5758 1.0473,1.286l0 1.5796z"/>
  <path class="fil1" d="M34.6984 102.441c0,0.5415 -0.5042,0.9808 -1.1258,0.9808l-2.9936 -0.0001c-0.622,0 -1.1261,-0.4392 -1.1261,-0.9807l0 -1.2044c0,-0.5415 0.5041,-0.9807 1.126,-0.9807l2.9937 0c0.6216,0 1.1257,0.4392 1.1257,0.9808l0.0001 1.2043z"/>
  <path class="fil1" d="M34.6984 106.891c0,0.5416 -0.5042,0.9804 -1.1258,0.9804l-2.9936 0c-0.622,0 -1.1261,-0.4388 -1.1261,-0.9803l0 -1.2045c0,-0.5414 0.5041,-0.9806 1.126,-0.9806l2.9937 -0.0001c0.6216,0 1.1257,0.4393 1.1257,0.9808l0.0001 1.2043z"/>
  <path class="fil1" d="M34.6984 111.34c0,0.5415 -0.5042,0.9808 -1.1258,0.9808l-2.9936 0c-0.622,0 -1.1261,-0.4392 -1.1261,-0.9807l0 -1.2044c0,-0.5412 0.5041,-0.9807 1.126,-0.9807l2.9937 -0.0001c0.6216,0 1.1257,0.4396 1.1257,0.9808l0.0001 1.2043z"/>
  <path class="fil1" d="M34.6984 115.609c0,0.5414 -0.5042,0.9807 -1.1258,0.9807l-2.9936 -0.0001c-0.622,0 -1.1261,-0.4391 -1.1261,-0.9806l0 -1.2044c0,-0.5416 0.5041,-0.9804 1.126,-0.9804l2.9937 0c0.6216,0 1.1257,0.4389 1.1257,0.9804l0.0001 1.2044z"/>
  <path class="fil1" d="M34.5156 64.7057c0,-0.5715 -0.4689,-1.0353 -1.0474,-1.0353l-2.7851 -0.0001c-0.5783,0 -1.0471,0.464 -1.0471,1.0355l0 19.9848c0,0.5715 0.4688,1.0354 1.047,1.0354l2.7853 0c0.5785,0 1.0473,-0.4639 1.0473,-1.0354l0 -19.9849z"/>
  <path class="fil1" d="M41.6065 70.5932c-0.9353,-0.5323 -1.8991,1.0206 -2.9366,1.0206 -2.625,0 -4.2848,-1.3673 -5.0412,-2.1826l-0.0712 -0.0769 -0.0194 -0.1161c-0.0381,-0.224 -0.1362,-0.5415 -0.3878,-0.781 -0.2102,-0.2004 -0.4744,-0.2893 -0.738,-0.2519l-0.0303 0.0046 -0.0306 -0.0047c-0.0928,-0.013 -0.185,-0.0052 -0.2756,0.0128 -0.091,-0.018 -0.1828,-0.0257 -0.2759,-0.0127l-0.0307 0.0046 -0.0303 -0.0047c-0.2635,-0.0373 -0.5278,0.0516 -0.738,0.252 -0.2515,0.2395 -0.3493,0.557 -0.3877,0.7811l-0.019 0.116 -0.0716 0.0769c-0.7564,0.8153 -2.4163,2.1826 -5.0409,2.1826 -1.0379,0 -2.0014,-1.5529 -2.9369,-1.0205 -0.6414,0.3647 -0.7349,1.3225 -0.0752,2.1537 0.9441,1.1891 1.9915,1.5145 3.0121,1.5145 2.9485,-0.0001 4.9551,-1.3808 6.1189,-2.539l0.1686 -0.1679 0.169 0.1678c0.0054,0.0054 0.012,0.0114 0.0173,0.0167 0.0018,0.0747 0.0039,0.1496 0.0056,0.2244 0.0399,-0.0371 0.0759,-0.0731 0.1147,-0.1098 0.0384,0.0367 0.0748,0.0727 0.1146,0.1098 0.0018,-0.0749 0.0039,-0.1496 0.0053,-0.2244 0.0057,-0.0057 0.012,-0.0113 0.0173,-0.0166l0.169 -0.1679 0.1687 0.1678c1.1641,1.1582 3.1703,2.5391 6.1192,2.5391 1.0203,-0.0001 2.068,-0.3253 3.0117,-1.5145 0.6597,-0.8312 0.5662,-1.789 -0.0751,-2.1538z"/>
  <path class="fil1" d="M41.8496 64.5321c-0.1712,-0.0419 -0.3945,-0.1033 -0.6231,-0.0045 -0.7133,0.3076 -1.3392,1.4217 -2.7457,1.4217 -2.3364,0 -3.9952,-0.7955 -5.0542,-1.5628 -0.2233,-0.0181 -0.447,-0.0335 -0.6703,-0.0519 -0.0593,-0.0431 -0.1196,-0.0864 -0.1743,-0.1291 -0.0875,-0.0042 -0.1753,-0.0084 -0.2625,-0.0127 -0.0239,0.0141 -0.0462,0.0296 -0.0779,0.0353 -0.055,0.0106 -0.1104,0.0173 -0.1658,0.0258 -0.0557,-0.0086 -0.1111,-0.0152 -0.1662,-0.0258 -0.0313,-0.0057 -0.0536,-0.0212 -0.0779,-0.0353 -0.0872,0.0042 -0.175,0.0085 -0.2622,0.0127 -0.0543,0.0427 -0.1153,0.0861 -0.1742,0.1291 -0.2237,0.0184 -0.4474,0.0339 -0.6703,0.0519 -1.059,0.7673 -2.7182,1.5628 -5.055,1.5628 -1.4054,0 -2.032,-1.1141 -2.7449,-1.4217 -0.2289,-0.0988 -0.4519,-0.0374 -0.6234,0.0046 -0.9281,0.2285 -0.8205,1.5448 -0.3549,2.2423 0.7694,1.1528 2.2744,1.8228 3.7232,1.8228 2.128,-0.0001 4.064,-0.544 5.7623,-1.6069 0.0029,0.1163 0.0081,0.2324 0.0067,0.3489 0.2156,-0.1158 0.4279,-0.2396 0.6368,-0.3705 0.2089,0.1308 0.4212,0.2547 0.6364,0.3705 -0.0014,-0.1165 0.0042,-0.2325 0.0067,-0.3489 1.6983,1.0628 3.6347,1.6069 5.7619,1.6069 1.4493,-0.0001 2.9545,-0.67 3.7239,-1.8228 0.4657,-0.6975 0.5729,-2.0137 -0.3551,-2.2424z"/>
  <path class="fil1" d="M37.2874 82.2275c-0.176,0.0057 -0.3345,0.0261 -0.4664,0.0163 -1.3447,-0.0992 -1.8743,-0.664 -2.8949,-1.5364 -0.0006,-0.0004 -0.145,-0.1235 -0.145,-0.1235l0.0279 -0.2269c0.0603,-0.4921 -0.0847,-0.9803 -0.3793,-1.2741 -0.2709,-0.27 -0.6353,-0.3338 -0.9535,-0.1701l-0.0942 0.049 -0.0945 -0.049c-0.0455,-0.0233 -0.0918,-0.0405 -0.1391,-0.0532 0.0005,-0.0089 0.0011,-0.0184 0.0015,-0.0269 -0.0251,0.0024 -0.0494,0.0089 -0.0741,0.0131 -0.0251,-0.0043 -0.0494,-0.0106 -0.0741,-0.0131 0.0004,0.0085 0.0007,0.018 0.0011,0.0269 -0.0469,0.0126 -0.0935,0.0299 -0.139,0.0532l-0.0946 0.049 -0.0945 -0.049c-0.3175,-0.1637 -0.6823,-0.0998 -0.9529,0.1701 -0.2945,0.2938 -0.4395,0.7821 -0.3796,1.2742l0.028 0.2268c0,0 -0.1444,0.1231 -0.1447,0.1235 -1.0206,0.8724 -1.5505,1.4372 -2.8949,1.5364 -0.1323,0.0098 -0.2904,-0.0106 -0.4664,-0.0163 -1.4213,-0.043 -2.631,-0.7235 -2.9531,0.1535 -0.4808,1.3091 1.192,2.3096 3.4159,2.3096 1.8592,0 2.9387,-0.7585 4.2912,-2.0401l0.151 -0.144 0.1521 0.144c0.0261,0.025 0.056,0.0508 0.0836,0.0762 -0.0032,0.0454 -0.0053,0.091 -0.0085,0.1365 0.0275,-0.0244 0.0526,-0.0483 0.0794,-0.0723 0.0268,0.024 0.0518,0.048 0.0794,0.0723 -0.0036,-0.0455 -0.0053,-0.091 -0.0089,-0.1365 0.028,-0.0254 0.0575,-0.0511 0.084,-0.0762l0.1517 -0.144 0.1517 0.144c1.3519,1.2816 2.4313,2.0401 4.2905,2.0401 2.2235,0 3.8967,-1.0005 3.4159,-2.3096 -0.322,-0.8771 -1.5321,-0.1965 -2.9527,-0.1535z"/>
  <path class="fil1" d="M41.3464 76.3647c-0.086,-0.0597 -0.1806,-0.1143 -0.2963,-0.1457 -0.8047,-0.2174 -1.4055,0.7077 -2.2207,0.7077 -3.5602,0 -5.1838,-2.8596 -5.1996,-2.8886 -0.1835,-0.3362 -0.4636,-0.5281 -0.7698,-0.5281 -0.1312,0 -0.2586,0.0357 -0.3789,0.1055l-0.0991 0.0575 -0.0994 -0.0576c-0.0332,-0.0189 -0.0675,-0.0306 -0.1014,-0.0436 -0.0002,-0.0177 -0.0006,-0.035 -0.0006,-0.0526 -0.0356,0.0035 -0.0703,0.0123 -0.1048,0.0201 -0.0349,-0.0078 -0.0695,-0.0166 -0.1051,-0.0201 0,0.0176 -0.0004,0.0349 -0.0004,0.0526 -0.0342,0.013 -0.0684,0.0247 -0.1012,0.0437l-0.0999 0.0575 -0.0991 -0.0576c-0.1202,-0.0698 -0.2477,-0.1054 -0.3789,-0.1054 -0.3062,0 -0.586,0.1919 -0.7698,0.5281 -0.0154,0.029 -1.639,2.8886 -5.1992,2.8886 -0.8156,0 -1.4161,-0.925 -2.2207,-0.7077 -0.1157,0.0314 -0.2106,0.0861 -0.2967,0.1457 -0.7003,0.4847 -0.4195,1.3296 -0.138,1.8659 0.4612,0.878 1.7297,1.344 2.6554,1.344 3.3299,0 5.3576,-2.0298 6.2706,-3.2402l0.1764 -0.2343 0.1729 0.2286c-0.0003,0.1129 -0.0028,0.2254 -0.0025,0.3383 0.0494,-0.0589 0.0907,-0.1135 0.1362,-0.1703 0.0456,0.0567 0.0871,0.1114 0.1358,0.1703 0.0008,-0.1129 -0.0018,-0.2254 -0.0021,-0.3383l0.1725 -0.2286 0.1767 0.2342c0.9127,1.2104 2.9408,3.2403 6.2707,3.2403 0.9261,0 2.1939,-0.466 2.655,-1.344 0.2815,-0.5363 0.5623,-1.3812 -0.138,-1.8659z"/>
  <path class="fil1" d="M34.6984 89.2728c0,0.5415 -0.5042,0.9804 -1.1258,0.9804l-2.9936 0c-0.622,0 -1.1261,-0.4388 -1.1261,-0.9803l0 -1.2045c0,-0.5415 0.5041,-0.9807 1.126,-0.9807l2.9937 0c0.6216,0 1.1257,0.4392 1.1257,0.9808l0.0001 1.2043z"/>
  <path class="fil1" d="M34.6984 93.7228c0,0.5414 -0.5042,0.9807 -1.1258,0.9807l-2.9936 0c-0.622,0 -1.1261,-0.4392 -1.1261,-0.9807l0 -1.2044c0,-0.5416 0.5041,-0.9807 1.126,-0.9807l2.9937 -0.0001c0.6216,0 1.1257,0.4393 1.1257,0.9808l0.0001 1.2044z"/>
  <path class="fil1" d="M34.6984 98.1724c0,0.5414 -0.5042,0.9807 -1.1258,0.9807l-2.9936 -0.0001c-0.622,0 -1.1261,-0.4391 -1.1261,-0.9806l0 -1.2045c0,-0.5415 0.5041,-0.9803 1.126,-0.9803l2.9937 0c0.6216,0 1.1257,0.4389 1.1257,0.9804l0.0001 1.2044z"/>
  <path class="fil1" d="M28.0534 206.365c0,0.7048 -0.4688,1.2763 -1.0474,1.2763l-2.2796 0c-0.5785,0 -1.0474,-0.5715 -1.0474,-1.2763l0 0c0,-0.7049 0.4688,-1.2764 1.0474,-1.2764l2.2796 0c0.5786,0 1.0474,0.5715 1.0474,1.2764l0 0z"/>
  <path class="fil1" d="M38.8509 158.813c0.0589,0.0018 0.115,0.016 0.1725,0.0234l1.6902 -29.8045c-0.0578,0.0031 -0.1154,0.0134 -0.1743,0.0106 -0.9782,-0.0342 -1.7424,-0.8541 -1.7075,-1.8291 0.035,-0.9755 0.8559,-1.7378 1.8341,-1.7029 0.4893,0.0176 0.9243,0.2311 1.2333,0.5627 0.3532,0.3785 0.6569,0.3894 1.0365,0.037 0.3323,-0.3087 0.7824,-0.49 1.271,-0.4727 0.9776,0.0348 1.7414,0.8548 1.7071,1.8305 -0.0345,0.9747 -0.8562,1.7371 -1.8333,1.7022 -0.06,-0.0025 -0.1154,-0.0155 -0.1736,-0.0243l-1.6898 29.8044c0.0575,-0.0025 0.115,-0.012 0.1739,-0.0106 0.9783,0.0353 1.742,0.8544 1.7071,1.8302 -0.0346,0.9747 -0.8555,1.7364 -1.833,1.7025 -0.4893,-0.0176 -0.925,-0.2317 -1.2341,-0.5634 -0.353,-0.3789 -0.6568,-0.3891 -1.0364,-0.0367 -0.3319,0.3084 -0.7818,0.4908 -1.2704,0.4728 -0.9782,-0.0357 -1.7416,-0.8548 -1.7071,-1.8299 0.035,-0.9754 0.8548,-1.7367 1.8338,-1.7022z"/>
  <path class="fil1" d="M36.5762 200.488c0.0505,0.0028 0.0973,0.0159 0.146,0.0251l1.3378 -25.6375c-0.0575,0.0032 -0.1144,0.0134 -0.1743,0.0103 -0.9775,-0.0519 -1.7166,-0.9889 -1.6517,-2.0917 0.0646,-1.102 0.9087,-1.9547 1.8863,-1.9032 0.489,0.0265 0.9183,0.2734 1.2167,0.6519 0.3409,0.4336 0.6459,0.4491 1.0365,0.0554 0.3415,-0.3447 0.7969,-0.545 1.2851,-0.5185 0.9773,0.0511 1.7174,0.9877 1.6514,2.0912 -0.0642,1.1028 -0.9088,1.9537 -1.8863,1.9029 -0.0589,-0.0035 -0.1143,-0.019 -0.1718,-0.0296l-1.821 25.6134c0.049,-0.0039 0.0973,-0.0127 0.1478,-0.0099 0.8294,0.0444 1.4569,0.8393 1.4015,1.7749 -0.055,0.9359 -0.7708,1.6587 -1.6009,1.6143 -0.4141,-0.0216 -0.7785,-0.2308 -1.0325,-0.5518 -0.29,-0.3669 -0.5479,-0.3813 -0.8792,-0.0473 -0.2895,0.2928 -0.6762,0.4622 -1.0911,0.44 -0.829,-0.0445 -1.4566,-0.8389 -1.4012,-1.7738 0.0554,-0.937 0.7711,-1.6598 1.6009,-1.6161z"/>
  <path class="fil1" d="M38.7327 166.629c0.0085,1.0054 0.8315,1.814 1.8397,1.8059 1.008,-0.0071 1.8179,-0.8297 1.8105,-1.8355 -0.0085,-1.0044 -0.8308,-1.814 -1.8398,-1.8051 -1.0071,0.0073 -1.8182,0.83 -1.8104,1.8347z"/>
  <path class="fil1" d="M39.5244 210.47c0,-0.8855 -0.6044,-1.6027 -1.3494,-1.6027l-1.9925 0c-0.7454,0 -1.3498,0.7172 -1.3498,1.6027 0.0001,0.8851 0.6043,1.6027 1.3498,1.6027l1.9925 0c0.745,0 1.3493,-0.7176 1.3494,-1.6027z"/>
  <path class="fil1" d="M41.0042 209.17c-0.2892,0.5761 -0.0585,1.2785 0.5161,1.5674l1.812 0.9095c0.5747,0.2882 1.2759,0.0547 1.5648,-0.5218 0.2904,-0.5768 0.0586,-1.2784 -0.5161,-1.567l-1.8118 -0.9095c-0.5747,-0.2886 -1.275,-0.0554 -1.565,0.5214z"/>
  <path class="fil1" d="M46.1393 211.674c0,0.484 0.3926,0.8771 0.877,0.8771 0.4848,-0.0001 0.8773,-0.393 0.8773,-0.8771 0.0001,-0.485 -0.3926,-0.8777 -0.8773,-0.8777 -0.4843,0 -0.877,0.3927 -0.877,0.8777z"/>
  <path class="fil1" d="M50.2728 87.825c0.0434,-0.0106 0.0882,-0.0091 0.1319,-0.0141l-4.0185 -18.0975c-0.0412,0.0159 -0.0811,0.0367 -0.1242,0.0466 -0.7256,0.1707 -1.4873,-0.4272 -1.7007,-1.336 -0.2141,-0.9091 0.2011,-1.7843 0.925,-1.9551 0.3631,-0.0857 0.7341,0.0216 1.0428,0.2632 0.3521,0.2772 0.5775,0.224 0.7687,-0.1806 0.1679,-0.3536 0.4526,-0.6149 0.8145,-0.701 0.7257,-0.1708 1.4877,0.4283 1.7015,1.3374 0.2131,0.9077 -0.2018,1.7833 -0.926,1.954 -0.0444,0.0106 -0.0882,0.0092 -0.1327,0.0142l4.0192 18.0977c0.0413,-0.0161 0.0797,-0.0366 0.1249,-0.0461 0.7243,-0.1715 1.4859,0.4272 1.6993,1.336 0.2149,0.9079 -0.2004,1.7843 -0.9253,1.9543 -0.3619,0.0854 -0.7341,-0.0215 -1.0418,-0.2635 -0.352,-0.2763 -0.5775,-0.2236 -0.7694,0.1806 -0.1672,0.3546 -0.4526,0.616 -0.8152,0.7007 -0.7249,0.171 -1.4859,-0.8195 -1.7001,-1.7283 -0.2141,-0.9091 0.2011,-1.3921 0.9261,-1.5625z"/>
  <path class="fil1" d="M56.1251 111.935c0.0444,-0.0099 0.0881,-0.0081 0.1329,-0.0127l-3.9179 -16.1171c-0.0416,0.0149 -0.0805,0.0354 -0.1242,0.0452 -0.726,0.1679 -1.4852,-0.4332 -1.6955,-1.3426 -0.2102,-0.9102 0.2078,-1.7833 0.9342,-1.952 0.363,-0.0833 0.7341,0.0251 1.0403,0.2689 0.3514,0.2779 0.5768,0.2254 0.7701,-0.1789 0.1691,-0.3521 0.4551,-0.6128 0.8181,-0.6967 0.7257,-0.1676 1.4842,0.4342 1.6951,1.3441 0.2096,0.909 -0.2085,1.7825 -0.9334,1.9508 -0.0444,0.0102 -0.0889,0.0085 -0.1337,0.0134l3.9179 16.117c0.0413,-0.0152 0.0811,-0.036 0.1242,-0.0455 0.7257,-0.1683 1.4852,0.4336 1.6954,1.3434 0.2104,0.909 -0.2078,1.7829 -0.9338,1.9505 -0.3633,0.0836 -0.7348,-0.0247 -1.0407,-0.2681 -0.3513,-0.2774 -0.5771,-0.2258 -0.7704,0.1778 -0.1686,0.3528 -0.4548,0.6138 -0.8178,0.6982 -0.7263,0.1671 -1.4852,-0.4354 -1.6944,-1.3445 -0.2112,-0.9095 0.2078,-1.7836 0.9336,-1.9512z"/>
  <path class="fil1" d="M56.5208 118.081c0.1648,0.7917 0.8456,1.3198 1.5205,1.1794l1.5558 -0.3231c0.6748,-0.1408 1.0886,-0.8961 0.9242,-1.6873l0 0c-0.1647,-0.7917 -0.8452,-1.3198 -1.5205,-1.179l-1.5556 0.3231c-0.6749,0.1404 -1.0884,0.8957 -0.9244,1.687l0 -0.0001z"/>
  <path class="fil1" d="M57.884 121.765c0.0501,0.6925 0.5139,1.2228 1.0364,1.1854l0.4181 -0.0301c0.5224,-0.0377 0.9059,-0.6293 0.8561,-1.3218l0.0001 0c-0.0498,-0.6925 -0.5141,-1.223 -1.0365,-1.1853l-0.4187 0.0299c-0.5225,0.0378 -0.9053,0.6298 -0.8556,1.3219l0.0001 0z"/>
  <path class="fil1" d="M58.6442 126.178c0.0286,0.3659 0.3789,0.6379 0.7831,0.6065l0.0001 0c0.4043,-0.0311 0.709,-0.3532 0.6805,-0.719l-0.121 -1.5822c-0.0286,-0.3662 -0.3789,-0.6378 -0.7832,-0.6064l0 0c-0.4043,0.031 -0.7091,0.3528 -0.6809,0.7193l0.1214 1.5818z"/>
  <path class="fil1" d="M57.8265 129.417c-0.1119,0.3482 0.1097,0.731 0.4956,0.8555l0.0001 0c0.3858,0.1241 0.7901,-0.0578 0.9019,-0.406l0.4841 -1.5057c0.1129,-0.3486 -0.1098,-0.7313 -0.4953,-0.8555l0 0c-0.3859,-0.1245 -0.7903,0.0575 -0.9024,0.4061l-0.484 1.5056z"/>
  <path class="fil1" d="M53.1832 122.222c-0.0176,0.3588 0.273,0.665 0.6498,0.6833l0 0c0.3758,0.0191 0.6957,-0.2568 0.7133,-0.6156l0.0777 -1.5512c0.0176,-0.3595 -0.2735,-0.6653 -0.6499,-0.684l0.0001 0c-0.3768,-0.0191 -0.6961,0.2572 -0.7138,0.616l-0.0772 1.5515z"/>
  <path class="fil1" d="M53.2749 125.978c0.0286,0.3584 0.3609,0.6237 0.7412,0.593l0.0001 0c0.3806,-0.03 0.6659,-0.3453 0.6366,-0.7034l-0.1234 -1.5484c-0.0289,-0.3584 -0.3613,-0.624 -0.7409,-0.5933l0.0001 0c-0.3806,0.0303 -0.6661,0.3454 -0.6379,0.7041l0.1242 1.548z"/>
  <path class="fil1" d="M47.9336 63.0589c-0.0079,1.0362 -0.8553,1.8698 -1.8917,1.8617 -1.0364,-0.0078 -1.8694,-0.8555 -1.8609,-1.8923 0.0085,-1.0355 0.8544,-1.8694 1.8909,-1.8605 1.0365,0.0077 1.8701,0.8551 1.8617,1.8911z"/>
  <path class="fil1" d="M35.9394 206.365c0,0.7048 0.4689,1.2763 1.0478,1.2763l2.2793 0c0.5786,0 1.0481,-0.5715 1.0481,-1.2763l0 0c0,-0.7049 -0.4696,-1.2764 -1.0482,-1.2764l-2.2792 0c-0.5789,0 -1.0478,0.5715 -1.0478,1.2764l0 0z"/>
 </g>
</svg>
