<?xml version="1.0" encoding="UTF-8"?>
<!DOCTYPE svg PUBLIC "-//W3C//DTD SVG 1.1//EN" "http://www.w3.org/Graphics/SVG/1.1/DTD/svg11.dtd">
<!-- Creator: CorelDRAW -->
<svg xmlns="http://www.w3.org/2000/svg" xml:space="preserve" width="64mm" height="214mm" style="shape-rendering:geometricPrecision; text-rendering:geometricPrecision; image-rendering:optimizeQuality; fill-rule:evenodd; clip-rule:evenodd"
viewBox="0 0 64 214"
 xmlns:xlink="http://www.w3.org/1999/xlink">
 <defs>
  <style type="text/css">
   <![CDATA[
    .fil1 {fill:#1481E2}
    .fil2 {fill:#ED2020}
    .fil3 {fill:#F49992}
    .fil0 {fill:#FFCC99}
   ]]>
  </style>
 </defs>
 <g id="Layer_x0020_1">
  <metadata id="CorelCorpID_0Corel-Layer"/>
  <path class="fil0" d="M62.2301 118.08c0.0903,-0.0674 -2.5587,-11.7941 -5.2829,-24.6899 -1.4445,-6.839 -3.1143,-14.116 -3.1418,-14.1054 -2.3046,-9.579 -4.1409,-16.5563 -8.152,-20.6326 -0.5234,-0.5335 -1.3123,-1.0873 -2.2098,-1.6094 0.0001,0 -0.6674,-0.2688 -1.6034,-0.6442 0.0011,-0.0024 0.0018,-0.0049 0.0018,-0.0074 -0.5407,-0.217 -1.1705,-0.4695 -1.8133,-0.7263 -0.0218,-0.042 -2.4493,-1.0217 -2.4193,-0.9635 -0.9698,-0.3839 -1.6764,-0.659 -1.7036,-0.6568l0 -4.8706c5.7874,-1.5109 10.232,-5.137 11.9765,-10.6943 2.3951,-0.1981 4.4414,-1.9026 4.888,-4.2983 0.5012,-2.6889 -1.1895,-5.2941 -3.8417,-6.0963 0.0862,-1.0367 0.1573,-2.0091 0.2004,-2.853 0.2307,-4.5354 -0.1581,-9.2713 -3.0935,-13.0305 -2.9308,-3.7569 -6.2834,-6.4149 -14.4061,-6.4149 -8.123,0 -11.4755,2.6582 -14.4067,6.4149 -2.9351,3.7592 -3.3246,8.4952 -3.0935,13.0305 0.0431,0.8438 0.1146,1.8165 0.2004,2.853 -2.6522,0.8017 -4.3428,3.4074 -3.8414,6.0963 0.4462,2.3956 2.4927,4.1 4.887,4.2975 1.7725,5.6447 6.3281,9.2993 12.2481,10.7665l0.0001 4.7991c-0.0244,-0.0021 -3.7748,1.4814 -3.8256,1.5015 0.0007,0.002 0.0014,0.0046 0.0031,0.0067 -1.8683,0.7464 -3.7154,1.4901 -3.7154,1.4901 -0.8975,0.5221 -1.6859,1.076 -2.2102,1.6094 -4.0103,4.0763 -5.8469,11.0536 -8.1513,20.6326 -0.0278,-0.0107 -1.6979,7.2665 -3.1421,14.1054 -2.7245,12.8957 -5.3732,24.6225 -5.2829,24.6899 -0.0993,1.8065 -0.5842,5.5305 0.4082,8.2356 1.28,3.4882 4.1074,7.2104 5.1844,4.821 0.3723,-0.8265 -0.4431,-6.2029 0.6967,-7.125 0.3229,-0.2593 0.623,-0.423 0.8827,-0.4184 0.3362,0.0059 0.1224,3.2134 0.1848,3.5412 0.2143,1.1083 1.9699,0.9641 2.0761,-0.2424l0.4343 -4.9519c0.0752,-0.7476 0.0744,-1.8295 -0.4812,-2.4264 -0.5735,-0.6185 -1.4662,-0.5313 -1.5445,-1.6126 -0.117,-1.6077 1.2764,-6.3704 1.6634,-8.0617 3.2438,-14.1697 6.1616,-23.1873 7.663,-34.1503 0.7007,1.4129 1.8295,2.606 3.2897,3.0773l0.2457 1.6273c0.1131,2.3834 -0.0686,8.0152 -2.1271,15.9093 -0.3244,1.2431 -2.601,8.6014 -4.052,14.2829 0.0001,0 -1.0036,4.4168 -1.0315,4.5794 -0.69,3.908 -1.173,10.287 -0.5722,17.1112 0.6428,17.8427 5.5771,50.4218 6.7843,65.375 0.4937,6.1034 0.4935,8.4603 0.4935,8.4603 0.0002,0 -2.6476,3.4025 -9.2886,6.2085 0.0001,0 0.6491,0.865 3.6449,0.846 3.2749,-0.0191 12.5881,0.3087 13.9364,-0.6064 0.6973,-0.4731 0.1052,-81.5499 0.1052,-81.5499 0.1418,-1.6912 -0.0526,-5.3703 -0.1136,-6.4322 0.01,-0.0015 0.019,-0.0004 0.0282,-0.0025l2.443 0 0.6669 0 0.8275 0c-0.0607,1.0583 -0.2551,4.7421 -0.1129,6.4347 0,0 -0.5923,81.0768 0.1051,81.5499 1.3477,0.9151 10.6616,0.5873 13.9365,0.6064 2.9954,0.019 3.6445,-0.846 3.6445,-0.846 -6.6409,-2.806 -9.2883,-6.2085 -9.2883,-6.2085 0.0001,0 0,-2.3569 0.4932,-8.4603 1.2077,-14.9532 6.1415,-47.5322 6.7846,-65.375 0.6006,-6.8242 0.1175,-13.2031 -0.5722,-17.1112 -0.0273,-0.1573 -0.998,-4.567 -1.0269,-4.5607 -1.4509,-5.684 -3.7327,-13.0573 -4.0569,-14.3016 -2.0581,-7.8941 -2.2402,-13.5258 -2.1266,-15.9092l0.2411 -1.5981c1.4556,-0.4318 2.5938,-1.5745 3.3152,-2.9524 1.5075,10.8931 4.413,19.8931 7.6412,33.9961 0.3877,1.6912 1.7809,6.4541 1.6641,8.0617 -0.0786,1.0813 -0.9712,0.9941 -1.5448,1.6126 -0.5555,0.5969 -0.5564,1.6788 -0.4812,2.4264l0.4343 4.9519c0.106,1.2065 1.8619,1.3508 2.0757,0.2424 0.0633,-0.3278 -0.1506,-3.5352 0.1852,-3.5412 0.2601,-0.0046 0.5599,0.1591 0.883,0.4184 1.14,0.9221 0.3246,6.2985 0.6964,7.125 1.0772,2.3893 3.9049,-1.3328 5.1844,-4.821 0.9924,-2.7052 0.5077,-6.429 0.4082,-8.2356z"/>
  <path class="fil0" d="M48.8592 115.165c-0.0127,0 -0.0259,0 -0.0259,0 0.0156,0 0.0187,0 0.0259,0z"/>
  <path class="fil0" d="M48.8592 115.165c0.0181,-0.0004 0.0267,-0.0003 -0.0001,0l0.0001 0z"/>
  <path class="fil0" d="M14.7919 115.165c0,0 -0.0133,0 -0.026,0 0.0071,0 0.0103,0 0.026,0z"/>
  <path class="fil0" d="M14.7661 115.165c-0.0264,-0.0004 -0.0181,-0.0003 -0.0002,0l0.0002 0z"/>
  <path class="fil1" d="M22.6373 104.272c-0.1328,0 -0.2059,0.0269 -0.2464,0.0572 -0.0225,0.0169 -0.0773,0.1344 -0.0357,0.4427 0.0916,0.6707 1.9294,1.3321 2.8512,1.4214 1.9852,0.1908 3.3898,-0.6149 4.3522,-1.6193 -0.1189,0.0526 -0.242,0.1041 -0.3694,0.1556 -1.5906,0.6364 -2.9753,0.7532 -4.1154,0.3479 -0.0864,-0.0308 -0.2219,-0.0889 -0.3916,-0.1634 -1.1648,-0.5105 -1.7509,-0.642 -2.0449,-0.6421zm3.1288 3.1267c-0.2213,0 -0.4454,-0.0109 -0.6726,-0.0328 -0.7189,-0.0691 -3.6731,-0.7214 -3.9056,-2.4352 -0.1189,-0.8774 0.2025,-1.3226 0.4932,-1.5423 0.8324,-0.6273 2.2296,-0.0985 3.4738,0.4462 0.1367,0.06 0.2448,0.1083 0.3143,0.1327 0.8616,0.3076 1.9657,0.1958 3.2816,-0.3316 0.6548,-0.2625 1.1655,-0.5342 1.5624,-0.8305 0.1411,-0.1055 0.3041,-0.3002 0.4618,-0.4889 0.2889,-0.3458 0.6167,-0.7377 1.0654,-0.9091 0.3038,-0.1165 0.6445,0.0363 0.7606,0.34 0.1165,0.3041 -0.0364,0.6449 -0.3401,0.7606 -0.0573,0.0218 -0.1228,0.0699 -0.1919,0.1327 0.0217,0.1167 0.0085,0.2409 -0.0459,0.357 -1.3294,2.8268 -3.5849,4.4012 -6.257,4.4012z"/>
  <path class="fil2" d="M26.7059 102.47c-0.8182,0 -1.6032,0.0423 -2.2269,0.23 -0.6402,0.1922 -0.955,0.5418 -0.9744,0.7281 -0.013,0.128 0.1535,0.3013 0.4343,0.4519 0.5137,0.2758 1.3331,0.2004 1.9925,0.1397l0.0579 -0.0053c0.7916,-0.0734 1.5204,-0.2646 2.1053,-0.5524 0.4057,-0.1994 1.0347,-0.5655 1.6598,-0.9984 -0.654,0.0493 -1.3515,0.0353 -2.021,0.0208 -0.3421,-0.0071 -0.6876,-0.0144 -1.0275,-0.0144zm-1.7227 2.7861c-0.5461,0 -1.1078,-0.0733 -1.6017,-0.3382 -0.9998,-0.5377 -1.0862,-1.2383 -1.0488,-1.6083 0.0756,-0.7486 0.7853,-1.4309 1.8073,-1.7382 1.0605,-0.3192 2.36,-0.291 3.6177,-0.2649 2.2253,0.0469 3.587,0.0021 3.7694,-1.0174 0.0573,-0.3203 0.363,-0.5327 0.6837,-0.4759 0.3204,0.0571 0.5338,0.3637 0.4766,0.684 -0.027,0.1485 -0.0642,0.2868 -0.1111,0.4145 0.0942,0.1863 0.0861,0.417 -0.0409,0.6008 -0.8543,1.2368 -3.011,2.5601 -3.9208,3.0071 -0.8999,0.4427 -1.8655,0.6078 -2.5171,0.6682l-0.058 0.0052c-0.3286,0.0304 -0.6888,0.0632 -1.0563,0.0631z"/>
  <path class="fil2" d="M35.6467 103.737c0.908,1.2633 2.0001,2.2775 3.5865,2.1696l0.1542 -0.0096c1.0626,-0.0656 1.954,-0.1732 2.0891,-0.8262 0.1028,-0.4964 0.0607,-0.8509 -0.1256,-1.0526 -0.4822,-0.525 -2.0048,-0.3422 -2.7368,-0.254 -0.9481,0.1142 -2.0087,0.2416 -2.9674,-0.0272zm3.3537 3.3556c-2.3074,0.0004 -3.7342,-1.7261 -4.8289,-3.436 -0.1516,-0.2368 -0.1128,-0.5408 0.0777,-0.7324 -0.4427,-0.4456 -0.8185,-1.0813 -1.0908,-1.9791 -0.0952,-0.3109 0.0808,-0.6399 0.3919,-0.7348 0.3116,-0.0943 0.6403,0.0815 0.7348,0.393 0.6972,2.294 1.9798,2.256 4.1886,1.991 1.0673,-0.1284 2.8539,-0.3432 3.7447,0.6262 0.4569,0.4974 0.5958,1.2002 0.4117,2.0892 -0.3284,1.5878 -2.1071,1.6979 -3.1697,1.7635l-0.1506 0.0095c-0.1052,0.0067 -0.2082,0.0099 -0.3094,0.0099z"/>
  <path class="fil1" d="M34.5177 105.749c1.0115,1.7469 2.8595,2.5756 4.8418,2.1262 0.5448,-0.1232 1.5459,-0.7197 1.7604,-1.2605 0.059,-0.1475 0.0465,-0.2568 -0.0431,-0.3905 -0.3529,-0.5233 -2.1488,-0.2554 -2.916,-0.1401 -0.247,0.0367 -0.4639,0.0688 -0.6354,0.0858 -0.9072,0.0927 -2.0101,-0.0082 -3.0077,-0.4209zm3.8051 3.4229c-2.1916,0 -4.1587,-1.2724 -5.127,-3.4219 -0.11,-0.2441 -0.0406,-0.5228 0.1527,-0.6886 -0.3756,-0.3044 -0.7062,-0.6794 -0.968,-1.1342 -0.1623,-0.2822 -0.0646,-0.6424 0.218,-0.8043 0.2815,-0.1609 0.6417,-0.0645 0.804,0.2177 0.8255,1.4372 2.6744,1.79 4.0054,1.6573 0.1561,-0.0159 0.3538,-0.0458 0.5782,-0.0797 1.3138,-0.1959 3.2992,-0.4935 4.0676,0.6481 0.3091,0.4592 0.3647,0.9719 0.1612,1.4834 -0.4278,1.0773 -1.9015,1.8178 -2.5951,1.9748 -0.437,0.0988 -0.8717,0.1468 -1.297,0.1474z"/>
  <path class="fil2" d="M57.6593 115.754c-0.1776,0 -0.3522,-0.0794 -0.4683,-0.2311 -3.6417,-4.7498 -3.9889,-9.9486 -4.3244,-14.9761 -0.1633,-2.4465 -0.3323,-4.9763 -0.89,-7.3864 -0.0726,-0.3168 0.1245,-0.6333 0.4417,-0.7067 0.318,-0.0741 0.6332,0.1242 0.7069,0.4414 0.5787,2.5026 0.7504,5.0803 0.9173,7.5734 0.3386,5.0758 0.6586,9.8704 4.0837,14.338 0.1977,0.2581 0.1489,0.6279 -0.1097,0.8258 -0.1065,0.0822 -0.2325,0.1217 -0.3572,0.1217z"/>
  <path class="fil3" d="M28.9008 57.7992c-0.3673,-0.0193 -0.7812,0.0202 -1.2468,0.1267 -2.256,0.5189 -4.4277,2.63 -5.5242,4.68 -0.6609,1.2353 -1.1359,2.4902 -1.3398,3.877 -0.2381,1.6171 -0.2011,4.5293 -0.145,6.7144 0.046,1.8034 1.1063,4.433 3.6996,5.1301 1.2369,0.3327 5.9919,0.7246 7.1945,-1.228 0.7716,-1.2556 0.6558,-2.9863 0.3521,-4.3639 -0.3062,-1.3906 -0.2829,-2.7174 -0.2829,-4.1486 0,-2.0179 0,-4.0365 0,-6.0544 0,-2.4455 -0.5408,-4.6172 -2.7075,-4.7333z"/>
  <path class="fil2" d="M7.0907 122.57c-0.0512,0 -0.1035,-0.0067 -0.155,-0.0208 -0.3139,-0.0858 -0.4999,-0.4092 -0.4135,-0.7232 0.4941,-1.8164 0.4407,-3.7719 0.3789,-6.0356 -0.0926,-3.379 -0.2074,-7.5834 1.3751,-13.4144 0.0851,-0.3144 0.4096,-0.4999 0.7229,-0.4142 0.3143,0.085 0.4992,0.4089 0.4141,0.7225 -1.5369,5.6642 -1.4245,9.7727 -1.3345,13.0739 0.0643,2.3573 0.1203,4.3928 -0.4198,6.3772 -0.0711,0.2621 -0.3094,0.4346 -0.5682,0.4346z"/>
  <path class="fil3" d="M35.2198 57.7992c0.3665,-0.0193 0.7805,0.0202 1.2462,0.1267 2.2564,0.5189 4.4281,2.63 5.5245,4.68 0.6608,1.2353 1.1352,2.4902 1.3399,3.877 0.2379,1.6171 0.201,4.5293 0.1446,6.7144 -0.0454,1.8034 -1.1056,4.433 -3.6996,5.1301 -1.2363,0.3327 -5.9919,0.7246 -7.1938,-1.228 -0.7721,-1.2556 -0.6562,-2.9863 -0.3521,-4.3639 0.3057,-1.3906 0.2822,-2.7174 0.2822,-4.1486 0,-2.0179 0,-4.0365 0,-6.0544 0,-2.4455 0.5408,-4.6172 2.7081,-4.7333z"/>
  <path class="fil1" d="M39.5906 196.542c-0.0931,0 -0.1874,-0.0216 -0.2752,-0.0685 -0.2878,-0.1524 -0.3972,-0.5091 -0.2448,-0.7966 4.3766,-8.2575 3.2265,-25.7108 2.5392,-36.1389 -0.239,-3.628 -0.4113,-6.2487 -0.2892,-7.4845 0.0321,-0.3235 0.3245,-0.5637 0.6442,-0.5278 0.3242,0.0318 0.5609,0.3207 0.5284,0.6446 -0.1128,1.1384 0.066,3.853 0.2928,7.2901 0.6948,10.5526 1.8585,28.2152 -2.6747,36.7683 -0.1054,0.1996 -0.3094,0.3133 -0.5207,0.3133z"/>
  <path class="fil1" d="M35.2285 63.3008c0.0548,0 0.1107,0.0078 0.1658,0.024 -0.0886,-0.0261 -0.1725,-0.0303 -0.2498,-0.018 0.0277,-0.0039 0.0561,-0.0059 0.084,-0.006zm22.4296 60.1091c-0.1555,0 -0.3105,-0.0613 -0.4265,-0.183 -0.78,-0.8192 -1.8447,-3.7028 -1.7375,-6.3564 0.1302,-3.2251 0.1856,-4.2347 0.2777,-5.9069 0.0696,-1.2729 0.1601,-2.9154 0.3207,-6.2226 0.3782,-7.8166 -1.6387,-12.9837 -5.4928,-19.7835 -2.3173,-4.088 -4.3727,-8.9422 -3.726,-16.7089 0.2365,-2.8385 -1.5463,-6.5215 -3.8164,-7.8814 -1.2642,-0.7582 -2.5209,-0.7444 -3.7359,0.0416 -1.8124,1.1718 -2.9799,2.371 -3.4689,3.5634 -0.2279,0.5548 -0.5919,0.5415 -0.7898,0.4833 -0.3122,-0.0918 -0.4915,-0.4191 -0.3994,-0.7313 0.0205,-0.0699 0.0533,-0.1334 0.0946,-0.188l0.0043 -0.0114c0.2169,-0.5288 0.8776,-2.1385 3.9196,-4.1056 1.5777,-1.0199 3.3475,-1.0428 4.9816,-0.0628 2.6505,1.5885 4.6581,5.7055 4.3843,8.9899 -0.6194,7.4481 1.3533,12.1063 3.5768,16.0306 3.8705,6.8279 6.035,12.3588 5.6444,20.4209 -0.16,3.3115 -0.2508,4.9565 -0.3203,6.2307 -0.0924,1.6669 -0.1474,2.673 -0.2769,5.8896 -0.0952,2.3495 0.8742,4.9308 1.4136,5.4963 0.2241,0.2356 0.2149,0.6089 -0.0205,0.8333 -0.1142,0.1086 -0.2603,0.1623 -0.4067,0.1622z"/>
  <path class="fil1" d="M46.6613 212.704c-0.0514,0 -0.1041,-0.0067 -0.1559,-0.0212 -3.9888,-1.0936 -7.2038,-5.8497 -9.0537,-13.3935 -1.7935,-7.3145 -2.2102,-16.7566 -1.1744,-26.5871 0.3137,-2.9729 1.5547,-7.5996 2.8681,-12.4982 1.6821,-6.2707 3.5877,-13.3784 3.5877,-17.472 0.0002,-8.1845 -2.8801,-14.7091 -5.1946,-19.9521 -0.8191,-1.8546 -1.5925,-3.6064 -2.1241,-5.1894 -1.155,-3.44 -2.5217,-9.9405 -1.9438,-13.6228 0.8358,-5.327 0.9542,-27.1138 -0.3101,-32.3117 -0.0769,-0.3157 0.1164,-0.6346 0.4332,-0.7112 0.3154,-0.0783 0.635,0.1168 0.7115,0.4329 1.2861,5.2864 1.1755,27.3801 0.3288,32.7727 -0.5403,3.4477 0.8128,9.834 1.8973,13.0648 0.5143,1.5317 1.2774,3.2596 2.0849,5.0891 2.3595,5.3439 5.2952,11.9949 5.2952,20.4277 0,4.2491 -1.8447,11.1266 -3.628,17.7775 -1.3016,4.8521 -2.5308,9.4354 -2.8338,12.3162 -2.1121,20.0317 1.9155,36.6779 9.3669,38.7208 0.3141,0.0861 0.4981,0.41 0.4124,0.7239 -0.0711,0.2614 -0.309,0.4336 -0.5676,0.4336z"/>
  <path class="fil2" d="M18.1189 212.16c-0.2957,0 -0.5512,-0.2223 -0.5851,-0.5235 -0.0354,-0.3236 0.1965,-0.6153 0.52,-0.6509 2.3483,-0.2639 6.9078,-4.2108 7.2595,-7.6299 0.3831,-3.7278 -0.1852,-20.0981 -0.973,-23.9081 -1.5171,-7.3459 -3.0226,-23.4118 -3.4769,-29.6132 -0.6826,-9.331 0.394,-20.2625 2.6793,-27.202 1.4197,-4.3106 4.1092,-10.3953 6.0727,-14.8382 0.3609,-0.8174 0.6985,-1.5808 1.0005,-2.2701 1.8536,-4.2359 1.4242,-20.8838 1.1927,-29.827 -0.0599,-2.3252 -0.1069,-4.1614 -0.1069,-5.3252 0.0002,-0.3253 0.2636,-0.5892 0.5892,-0.5892 0.325,0 0.5888,0.2639 0.5888,0.5892 0.0001,1.1486 0.0469,2.9781 0.1065,5.2948 0.2502,9.6696 0.6685,25.8537 -1.2912,30.3301 -0.3015,0.6904 -0.6399,1.4552 -1.0022,2.2736 -1.9536,4.4207 -4.6299,10.4747 -6.0308,14.7303 -2.242,6.8068 -3.2959,17.556 -2.6232,26.7479 0.4516,6.1772 1.9498,22.1711 3.4558,29.4602 0.8243,3.9884 1.39,20.3796 0.9906,24.2672 -0.4151,4.0418 -5.4807,8.3636 -8.2998,8.6801 -0.0221,0.0028 -0.0444,0.0039 -0.0665,0.0039z"/>
  <path class="fil2" d="M42.3338 212.704c-0.1393,0 -0.2801,-0.0497 -0.392,-0.1496 -7.7836,-6.9539 -6.0173,-15.797 -4.1462,-25.1594 0.7409,-3.707 1.5067,-7.541 1.6969,-11.3718 0.1521,-3.0692 0.0247,-6.6841 -0.1112,-10.511 -0.263,-7.4415 -0.5616,-15.8753 0.9762,-24.0203 0.1814,-0.961 0.3887,-1.8898 0.5895,-2.7883 1.058,-4.7393 1.972,-8.8325 -0.9021,-15.911 -0.6881,-1.6937 -1.628,-3.7776 -2.6232,-5.9842 -2.2545,-5.002 -4.3847,-9.7264 -4.3847,-11.5189 0.0002,-1.2866 0.0628,-3.5609 0.1418,-6.4406 0.2454,-8.8657 0.6555,-23.7039 -0.3877,-27.4744 -0.0871,-0.3133 0.097,-0.6378 0.411,-0.7242 0.3137,-0.0876 0.6379,0.097 0.7246,0.4106 1.0899,3.9405 0.6929,18.3109 0.4308,27.8208 -0.0801,2.8701 -0.1419,5.1375 -0.1419,6.4078 0.0001,1.5388 2.2744,6.5839 4.2806,11.0346 0.9995,2.2167 1.9435,4.3113 2.6402,6.0254 3.0129,7.4192 2.0162,11.8844 0.9603,16.6113 -0.1985,0.8889 -0.4032,1.8079 -0.5814,2.7498 -1.5133,8.0159 -1.2174,16.3802 -0.956,23.76 0.1362,3.8527 0.2649,7.4919 0.1101,10.6108 -0.1944,3.9187 -0.9691,7.7954 -1.7188,11.5447 -1.881,9.4146 -3.5055,17.545 3.7762,24.0492 0.2428,0.217 0.2638,0.5895 0.0465,0.8319 -0.116,0.1301 -0.2776,0.1968 -0.4395,0.1968z"/>
  <path class="fil2" d="M2.4844 125.181c-0.3094,0 -0.5691,-0.2415 -0.5874,-0.5548 -0.4286,-7.3799 0.9761,-13.0122 4.6968,-18.8345 3.0389,-4.7544 3.4287,-10.983 3.8058,-17.0063 0.1679,-2.6939 0.3426,-5.4794 0.7595,-8.0349 1.2666,-7.7517 5.9595,-20.308 13.1622,-21.0005 3.7685,-0.3631 5.6532,-0.0847 6.7243,0.9902 1.256,1.2608 1.1169,3.3278 0.7623,6.8725 -0.0316,0.3238 -0.3228,0.5627 -0.6441,0.5277 -0.3241,-0.0325 -0.5602,-0.3213 -0.5278,-0.6448 0.3091,-3.0978 0.454,-5.0409 -0.4251,-5.9235 -0.7676,-0.7705 -2.4948,-0.9649 -5.7767,-0.6488 -6.1965,0.5955 -10.813,12.0636 -12.112,20.0173 -0.4077,2.4976 -0.5721,5.1305 -0.7468,7.9181 -0.3862,6.1732 -0.7856,12.5565 -3.9888,17.5673 -3.5764,5.5968 -4.9266,11.0194 -4.5131,18.1317 0.0187,0.3249 -0.229,0.6033 -0.5539,0.6223 -0.0116,0.0004 -0.0233,0.0011 -0.0352,0.001z"/>
  <path class="fil2" d="M57.6581 129.509c-0.1325,0 -0.266,-0.0445 -0.3768,-0.1365 -0.25,-0.2079 -0.284,-0.5793 -0.0755,-0.8294 3.2055,-3.8553 1.9421,-16.1474 0.828,-21.4962 -0.7285,-3.4985 -2.2959,-6.4699 -3.8114,-9.3437 -1.6403,-3.109 -3.3359,-6.3235 -4.0485,-10.27 -0.4701,-2.6067 -0.7161,-5.3407 -0.955,-7.9852 -0.4232,-4.7025 -0.8618,-9.5648 -2.576,-13.7802 -0.8112,-1.9949 -2.1914,-3.4858 -3.7863,-4.0908 -1.3719,-0.52 -2.8572,-0.394 -4.4143,0.3771 -0.9732,0.4815 -2.606,3.9688 -2.7584,4.9439 0.0685,0.0832 0.115,0.1862 0.1295,0.3016 0.0398,0.3228 -0.1891,0.617 -0.5119,0.6572 -0.347,0.0448 -0.6629,-0.1665 -0.7666,-0.5108 -0.3287,-1.095 1.9262,-5.7263 3.3853,-6.4481 1.8359,-0.9091 3.6875,-1.0551 5.3541,-0.423 1.9005,0.7208 3.5256,2.4519 4.4601,4.7488 1.7809,4.3787 2.2268,9.3302 2.6582,14.1185 0.2365,2.6187 0.4802,5.3266 0.9405,7.8814 0.6807,3.7673 2.3329,6.9 3.9314,9.93 1.5536,2.9456 3.1605,5.9916 3.9225,9.6531 0.4009,1.9233 1.1091,6.4032 1.2242,10.996 0.1407,5.6223 -0.6329,9.4894 -2.2998,11.4936 -0.1163,0.1399 -0.2847,0.2127 -0.4533,0.2127z"/>
  <path class="fil2" d="M33.6266 67.5793c-0.3261,0 -0.5896,-0.2638 -0.5896,-0.5891 0.0002,-1.5858 -0.0275,-3.2036 -0.0543,-4.7685 -0.1549,-9.1758 -0.3016,-17.8424 4.4647,-24.2418 3.8845,-5.2157 6.7166,-12.5991 3.0145,-17.6802 -0.1915,-0.2632 -0.134,-0.6318 0.1291,-0.8234 0.2629,-0.1915 0.6315,-0.1337 0.8231,0.1288 4.0788,5.5989 1.114,13.5262 -3.0219,19.0782 -4.5257,6.0777 -4.3822,14.5496 -4.2309,23.5186 0.0266,1.5692 0.0543,3.1927 0.0543,4.7883 0.0001,0.3252 -0.2639,0.5891 -0.589,0.5891z"/>
  <path class="fil1" d="M22.9469 206.232c-0.2842,0 -0.5345,-0.2067 -0.5804,-0.4967 -0.5678,-3.5769 0.8492,-7.2969 1.7442,-9.1966 4.1773,-8.8653 3.2286,-16.3516 2.662,-20.8241l-0.0359 -0.2844c-0.6064,-4.8122 -2.7888,-10.3921 -4.7142,-15.3147 -0.5859,-1.499 -1.1395,-2.9147 -1.6136,-4.2207 -1.9304,-5.3202 -2.806,-11.9059 -2.4024,-18.0685 0.3331,-5.0755 1.7011,-12.2044 6.3274,-17.3437 2.9924,-3.3242 6.1217,-10.1067 7.1243,-15.441 0.4597,-2.443 0.4858,-15.8218 0.4985,-22.2504 0.0033,-1.4726 0.0057,-2.5993 0.0116,-3.1807 0.0179,-1.5628 0.2343,-3.2036 0.4424,-4.7904 0.2867,-2.171 0.5567,-4.2216 0.3623,-6.0769 -0.0342,-0.3239 0.2011,-0.6135 0.5243,-0.6477 0.325,-0.0304 0.6134,0.2014 0.6473,0.5249 0.2089,1.9935 -0.0829,4.2101 -0.3651,6.3536 -0.2045,1.5525 -0.4159,3.1577 -0.4329,4.6496 -0.0059,0.5792 -0.0084,1.7025 -0.0116,3.17 -0.0138,6.9599 -0.0392,19.9157 -0.519,22.4656 -1.0537,5.6085 -4.2382,12.4919 -7.4069,16.0119 -7.9198,8.7979 -6.9268,25.3079 -3.6925,34.2216 0.4693,1.2928 1.0199,2.7019 1.6034,4.1938 1.9506,4.9865 4.1606,10.6387 4.7861,15.5963l0.0353 0.2836c0.5836,4.5999 1.5582,12.2989 -2.7651,21.475 -0.8371,1.7766 -2.1639,5.2444 -1.646,8.509 0.0505,0.3214 -0.1687,0.6234 -0.4901,0.6742 -0.0309,0.0053 -0.0627,0.0074 -0.0934,0.0074z"/>
  <path class="fil2" d="M22.0061 189.214c-0.0614,0 -0.1236,-0.0095 -0.1853,-0.0299 -0.3087,-0.102 -0.4763,-0.4354 -0.3743,-0.744 1.3021,-3.9377 1.4961,-17.6492 0.3711,-26.1987 -0.0423,-0.3225 0.1845,-0.6185 0.5073,-0.6608 0.3211,-0.0416 0.6181,0.1849 0.6615,0.5073 1.1636,8.8469 0.9472,22.5824 -0.4212,26.7219 -0.0815,0.2476 -0.3119,0.4042 -0.5591,0.4042z"/>
  <path class="fil1" d="M5.4199 130.526c-0.2501,0 -0.4831,-0.1608 -0.5617,-0.412 -0.4363,-1.3836 -0.5733,-2.9087 -0.7465,-4.8391l-0.0571 -0.6293c-0.7521,-8.2455 0.4183,-21.0778 4.766,-29.7678 4.0292,-8.0535 5.8081,-12.3285 6.3951,-17.9571 0.1596,-1.5314 0.1923,-3.2674 0.2269,-5.1057 0.1208,-6.4139 0.2564,-13.6828 6.2692,-14.0836 4.1005,-0.2727 5.3848,2.2179 6.622,4.6263 0.7108,1.3839 1.4467,2.8148 2.734,3.9003 0.2487,0.2096 0.2804,0.5814 0.0706,0.8301 -0.2094,0.2487 -0.5814,0.2808 -0.8301,0.0706 -1.4679,-1.2376 -2.2938,-2.8445 -3.0223,-4.2626 -1.2092,-2.3528 -2.1685,-4.2147 -5.4959,-3.9885 -4.9327,0.328 -5.0528,6.7345 -5.1696,12.9296 -0.0346,1.864 -0.0681,3.6245 -0.2335,5.2056 -0.6022,5.7756 -2.4956,10.3325 -6.5127,18.3621 -4.2445,8.4839 -5.3837,21.0492 -4.6464,29.1334l0.0576 0.6311c0.1661,1.8595 0.298,3.3282 0.6963,4.59 0.0979,0.3105 -0.0745,0.6414 -0.3849,0.7395 -0.0586,0.0182 -0.1185,0.0271 -0.177,0.0271z"/>
  <path class="fil1" d="M32.8247 65.0432l0 0c-0.3253,0 -0.5892,-0.2639 -0.5892,-0.5895 0.0044,-9.8679 -2.8194,-18.56 -7.9495,-24.4746 -5.2482,-6.0498 -5.5308,-11.3789 -0.8893,-16.7718 0.2117,-0.2467 0.5842,-0.2741 0.8307,-0.0621 0.246,0.2119 0.2742,0.5842 0.0621,0.8308 -4.2452,4.9328 -3.9722,9.6305 0.8869,15.2308 5.316,6.129 8.2416,15.0954 8.2374,25.2476 0,0.3252 -0.2639,0.5888 -0.5891,0.5888z"/>
  <path class="fil1" d="M38.8915 70.1898c-1.2377,2.3736 -3.3896,4.2447 -5.3112,2.453 -1.6432,-1.5318 -1.5131,-4.6345 -0.9589,-6.8654 0.5569,-2.2441 2.3562,-2.8696 4.1057,-2.3852 1.6772,0.4642 3.2296,1.3335 3.1891,3.3426 -0.0208,1.0276 -0.4237,2.3005 -1.0247,3.455z"/>
  <path class="fil1" d="M33.3593 67.2974c-0.0008,0 -0.0009,0.0001 -0.0009,0.0001 -0.3252,-0.0004 -0.5891,-0.2643 -0.5888,-0.5899 0.0086,-13.9147 2.6624,-24.4295 8.1142,-32.144 1.342,-1.8992 2.4737,-5.0084 1.2436,-7.5223 -0.9066,-1.8558 -1.8609,-3.0413 -2.6871,-3.338 -0.3061,-0.1099 -0.4653,-0.4473 -0.3553,-0.7535 0.1099,-0.3059 0.4481,-0.4653 0.7539,-0.3549 1.1487,0.4124 2.2747,1.7346 3.3472,3.9285 1.4559,2.9769 0.1884,6.5582 -1.3402,8.7203 -5.3061,7.5091 -7.8899,17.8015 -7.8977,31.465 -0.0002,0.3252 -0.2638,0.5888 -0.5889,0.5887z"/>
  <path class="fil2" d="M37.106 69.5616c-0.7386,2.7312 -2.6642,5.2119 -5.3669,3.9451 -2.3113,-1.083 -3.0434,-4.239 -3.0441,-6.6365 -0.0012,-2.4116 1.875,-3.5408 4.01,-3.5408 2.0467,0 4.0661,0.441 4.5907,2.4737 0.2683,1.0382 0.1694,2.4306 -0.1897,3.7585z"/>
  <path class="fil2" d="M25.88 211.634c-0.1737,0 -0.3462,-0.0762 -0.4626,-0.2226 -0.2018,-0.2554 -0.1591,-0.6258 0.0959,-0.8279 1.8103,-1.4366 0.8996,-6.9621 0.0357,-9.4633 -0.1066,-0.3077 0.0568,-0.6435 0.3644,-0.7493 0.3073,-0.1059 0.6431,0.0572 0.7493,0.3641 0.7345,2.1261 2.2341,8.6681 -0.4174,10.7713 -0.1082,0.0857 -0.2374,0.1277 -0.3653,0.1277z"/>
  <path class="fil2" d="M35.2285 207.932c-0.249,0 -0.4802,-0.1588 -0.5606,-0.4082 -1.6071,-4.9805 0.9398,-15.8528 2.8271,-19.3953 0.1525,-0.2872 0.5091,-0.3955 0.797,-0.2431 0.287,0.1531 0.3958,0.5094 0.2427,0.7969 -1.8322,3.4406 -4.2108,13.9386 -2.745,18.4796 0.0996,0.3097 -0.0709,0.6417 -0.3803,0.7415 -0.0602,0.0194 -0.1206,0.0286 -0.1809,0.0286z"/>
  <path class="fil2" d="M32.5578 67.0155c-0.3251,0 -0.5894,-0.2641 -0.5894,-0.589 0.0002,-10.1375 -2.5467,-19.1633 -8.2588,-29.2661 -1.0949,-1.9365 -2.4825,-5.2571 -3.0914,-8.7711 -0.6868,-3.9577 -0.1722,-7.0281 1.488,-8.8795 0.2174,-0.2431 0.5891,-0.2631 0.8322,-0.0455 0.2418,0.2173 0.2625,0.5895 0.0451,0.8319 -1.7825,1.9878 -1.639,5.3887 -1.2047,7.892 0.5837,3.3654 1.9103,6.5419 2.9566,8.3922 5.8174,10.2894 8.4113,19.4942 8.4113,29.8461 0,0.3248 -0.2635,0.5891 -0.5889,0.589z"/>
 </g>
</svg>
