<?xml version="1.0" encoding="UTF-8"?>
<!DOCTYPE svg PUBLIC "-//W3C//DTD SVG 1.1//EN" "http://www.w3.org/Graphics/SVG/1.1/DTD/svg11.dtd">
<!-- Creator: CorelDRAW -->
<svg xmlns="http://www.w3.org/2000/svg" xml:space="preserve" width="67mm" height="197mm" style="shape-rendering:geometricPrecision; text-rendering:geometricPrecision; image-rendering:optimizeQuality; fill-rule:evenodd; clip-rule:evenodd"
viewBox="0 0 67 197"
 xmlns:xlink="http://www.w3.org/1999/xlink">
 <defs>
  <style type="text/css">
   <![CDATA[
    .fil1 {fill:#1481E2}
    .fil3 {fill:#E58888}
    .fil2 {fill:#ED2020}
    .fil0 {fill:#FFD0A6}
   ]]>
  </style>
 </defs>
 <g id="Layer_x0020_1">
  <metadata id="CorelCorpID_0Corel-Layer"/>
  <path class="fil0" d="M63.5854 87.0886c-3.5236,-23.3289 -5.925,-28.2896 -7.0708,-29.7773 -1.2713,-2.0938 -3.3169,-4.6136 -9.5162,-6.2837 0,0 -7.7879,-3.031 -8.1125,-3.0529l0 -4.2225c3.5973,-1.1733 8.7905,-4.349 10.0492,-9.2582 2.5284,-0.1986 4.7304,-2.1326 5.2345,-4.8362 0.559,-2.9965 -1.1648,-5.8699 -3.9119,-6.7042 0.4773,-3.88 0.5401,-9.7938 0.3732,-11.0561 0.0001,0 2.1456,-5.0504 1.1667,-8.7196 -0.4032,0.8139 -1.91,2.0211 -2.7471,1.7565 0.966,-0.9938 1.5427,-4.13 0.6653,-4.8031 -0.8659,2.1797 -7.2372,2.0885 -10.3752,1.7576 -7.4784,-0.7911 -13.1215,-0.1433 -17.4879,3.3196 -4.2966,3.4071 -5.8215,6.9846 -5.6589,14.7232 0.0125,0.5979 0.0759,1.8362 0.1881,3.1203 -2.5836,0.9375 -4.1769,3.7119 -3.6372,6.6058 0.5029,2.6959 2.6938,4.6273 5.213,4.8348 1.1972,5.0372 6.2646,8.2511 10.0693,9.3479l0.0002 4.1342c-0.3238,0.0218 -8.1126,3.0529 -8.1126,3.0529 -6.1983,1.6701 -8.2448,4.19 -9.5162,6.2837 -1.145,1.4876 -3.5465,6.4484 -7.07,29.7773 -2.319,15.3588 -2.9496,26.6164 -2.8395,26.6901 0.0079,2.1321 0.1813,6.9804 1.5352,10.094 0.6238,1.4343 1.4464,2.8265 2.2973,3.8943 0.0298,0.2233 1.2842,1.3628 1.2739,1.3201 1.0866,0.8724 2.0754,0.9536 2.588,-0.3866 0.3812,-0.9977 -0.9476,-7.2669 0.3305,-8.43 0.3628,-0.326 0.7038,-0.5401 1.009,-0.5521 0.397,-0.0155 0.3658,3.7719 0.4614,4.1529 0.3281,1.2912 2.3841,0.9998 2.4247,-0.4279l0.1719 -5.8555c0.0369,-0.8844 -0.0389,-2.1557 -0.7318,-2.8214 -0.7181,-0.6883 -1.7621,-0.5221 -1.9286,-1.7893 -0.2479,-1.8853 0.5221,-9.749 0.8198,-11.7712 1.8131,-12.326 5.4921,-33.3946 5.4921,-33.3946l1.6387 4.1937c0,0 0.8776,10.6346 1.0611,24.3516 0.0638,4.7935 0.6195,92.3245 0.6195,92.3245 -0.2261,0.073 -0.4611,0.1936 -0.7208,0.3686 0,0 -8.0768,5.6416 -8.83,6.3941 -1.349,1.3483 1.1155,1.4221 2.5358,1.3822l14.6635 -0.1619c1.7298,-0.0402 3.3176,-0.2586 3.5299,-0.4865 0.0001,0 0.2576,-0.0131 0.3218,-1.2051 0,0 1.1232,-79.6763 1.1507,-80.676l2.5087 -0.0001c0.0276,0.9998 1.1507,80.6761 1.1507,80.6761 0.0643,1.192 0.3217,1.2051 0.3217,1.2051 0.2125,0.2279 1.8006,0.4463 3.5299,0.4865l14.6636 0.1619c1.4197,0.0399 3.8841,-0.0339 2.5357,-1.3822 -0.7537,-0.7525 -8.83,-6.3941 -8.83,-6.3941 -0.2595,-0.175 -0.4946,-0.2956 -0.7204,-0.3686 0.0002,-0.0001 0.5483,-87.6032 0.6033,-92.3245 0.1785,-15.1564 1.0763,-24.3515 1.0763,-24.3515l1.6394 -4.1938c0,0 3.6784,21.0686 5.492,33.3946 0.2978,2.0221 1.0679,9.8859 0.8206,11.7712 -0.1672,1.2671 -1.2118,1.101 -1.9297,1.7893 -0.6923,0.6656 -0.7691,1.9371 -0.7313,2.8215l0.1719 5.8553c0.0405,1.4278 2.0964,1.7192 2.4245,0.428 0.0965,-0.3811 0.0646,-4.1684 0.4615,-4.1529 0.3051,0.0119 0.6463,0.2261 1.0089,0.5521 1.2782,1.163 -0.0504,7.4323 0.3306,8.43 0.5126,1.3409 1.5021,1.259 2.5886,0.3859 -0.01,0.0426 1.2436,-1.0968 1.2732,-1.3201 0.8507,-1.0672 1.6739,-2.4592 2.2973,-3.8936 1.3534,-3.1137 1.5275,-7.9618 1.5353,-10.094 0.1102,-0.0738 -0.5211,-11.3312 -2.8394,-26.6901z"/>
  <path class="fil1" d="M22.3277 101.855c-0.1836,0 -0.336,0.0325 -0.4386,0.1101 -0.1801,0.1358 -0.1563,0.5313 -0.126,0.7546 0.1352,0.9941 2.5555,1.8535 3.7765,1.9706 2.5495,0.2438 4.7406,-0.7718 6.332,-2.8952 -0.4049,0.2246 -0.8625,0.4381 -1.3786,0.6455 -1.9518,0.7821 -3.6442,0.9282 -5.0285,0.4347 -0.1055,-0.0378 -0.2713,-0.1094 -0.4787,-0.2004 -0.5118,-0.2241 -1.873,-0.8199 -2.6581,-0.8199zm3.9342 3.9286c-0.2716,0 -0.5459,-0.0131 -0.8235,-0.0399 -1.172,-0.1122 -4.4697,-1.005 -4.7241,-2.8822 -0.1086,-0.804 0.072,-1.3896 0.5377,-1.7416 0.9556,-0.7208 2.6479,-0.0752 4.1581,0.5856 0.1779,0.0779 0.3197,0.1404 0.4092,0.1728 1.1364,0.4046 2.5757,0.2632 4.2796,-0.4201 0.843,-0.3377 1.5021,-0.6883 2.0147,-1.0721 0.1977,-0.1476 0.4011,-0.3909 0.6167,-0.6491 0.3638,-0.4358 0.7401,-0.8862 1.2534,-1.082 0.2721,-0.1045 0.5786,0.0325 0.6826,0.3055 0.1048,0.2733 -0.0324,0.5793 -0.3051,0.6833 -0.1286,0.049 -0.2653,0.1599 -0.404,0.3006 0.0533,0.1322 0.0533,0.2843 -0.0123,0.423 -1.6346,3.4787 -4.4055,5.4162 -7.683,5.4162z"/>
  <path class="fil2" d="M27.5351 99.5818c-1.0954,0 -2.1408,0.0554 -2.9512,0.2985 -0.8564,0.2578 -1.3402,0.7475 -1.3758,1.0982 -0.0353,0.3495 0.3962,0.6367 0.6565,0.7768 0.7042,0.3781 1.7727,0.2791 2.6314,0.1997l0.0681 -0.0064c0.7126,-0.0652 1.7632,-0.243 2.7245,-0.7158 0.6414,-0.3154 1.7198,-0.9591 2.6885,-1.688 -0.9571,0.0984 -2.0278,0.0765 -3.0868,0.0557 -0.4511,-0.0088 -0.9074,-0.0187 -1.3552,-0.0187zm-2.2537 3.5066c-0.66,0 -1.3346,-0.0874 -1.9177,-0.4011 -1.1485,-0.6174 -1.2499,-1.4023 -1.2086,-1.8146 0.0869,-0.8566 0.9207,-1.6443 2.1244,-2.0059 1.3,-0.3913 2.9944,-0.357 4.6323,-0.3246 2.2442,0.0447 3.9268,0.0194 4.7569,-0.5807 0.0241,-0.0318 0.0462,-0.0635 0.0681,-0.0945 0.0582,-0.084 0.1365,-0.1461 0.2233,-0.1845 0.1292,-0.1662 0.2159,-0.3627 0.2571,-0.5948 0.0509,-0.2872 0.326,-0.4794 0.6139,-0.4272 0.2879,0.0511 0.4787,0.326 0.4279,0.6138 -0.1184,0.6628 -0.4272,1.142 -0.871,1.4863 -1.1645,1.4319 -3.5747,2.9016 -4.6323,3.4216 -1.1056,0.5442 -2.2931,0.7464 -3.0943,0.8202l-0.0683 0.0066c-0.4078,0.0374 -0.8563,0.0794 -1.3117,0.0794z"/>
  <path class="fil2" d="M38.1523 100.972c1.2511,1.8802 2.7592,3.5119 5.0717,3.3581l0.193 -0.0124c1.4264,-0.0875 2.6229,-0.2399 2.8236,-1.2079 0.1441,-0.695 0.073,-1.2044 -0.2095,-1.5116 -0.6801,-0.7399 -2.5954,-0.5105 -3.6248,-0.3867 -1.4277,0.1718 -2.9651,0.357 -4.254,-0.2395zm4.7694 4.4262c-2.8059,0.0008 -4.5551,-2.1229 -5.9023,-4.2258 -0.157,-0.246 -0.0854,-0.5733 0.1605,-0.731 0.029,-0.0187 0.0599,-0.0339 0.091,-0.0462 -0.613,-0.5437 -1.1321,-1.3635 -1.5021,-2.5809 -0.0847,-0.2798 0.073,-0.5754 0.352,-0.6601 0.2799,-0.0857 0.5754,0.0731 0.6608,0.3528 0.9246,3.0438 2.6913,2.9916 5.4984,2.654 1.3025,-0.1563 3.4822,-0.4191 4.5303,0.7207 0.5265,0.5733 0.683,1.3945 0.4664,2.4426 -0.3809,1.839 -2.4349,1.9664 -3.7945,2.0504l-0.1894 0.0116c-0.1258,0.0084 -0.2494,0.012 -0.3711,0.0119z"/>
  <path class="fil1" d="M36.7997 103.462c1.2311,2.6646 3.8205,3.9745 6.6166,3.3413 0.6526,-0.1475 2.0464,-0.9116 2.3653,-1.7149 0.0992,-0.2502 0.0759,-0.4625 -0.0765,-0.6876 -0.5182,-0.7712 -2.703,-0.4438 -3.877,-0.2674 -0.3057,0.0455 -0.5754,0.0854 -0.7874,0.1066 -1.2831,0.129 -2.89,-0.0522 -4.241,-0.778zm5.2676 4.5534c-2.6754,0 -5.0776,-1.5547 -6.2604,-4.1804 -0.12,-0.2661 -0.0015,-0.5796 0.2652,-0.6992 0.0442,-0.0201 0.0896,-0.0339 0.1348,-0.0409 -0.5641,-0.4008 -1.0594,-0.9176 -1.4351,-1.5717 -0.1453,-0.2533 -0.0586,-0.5764 0.1951,-0.7221 0.2531,-0.1454 0.5768,-0.0586 0.7228,0.1951 1.0894,1.8968 3.507,2.3668 5.2455,2.1911 0.1984,-0.0201 0.4498,-0.0579 0.7359,-0.1013 1.6021,-0.2392 4.0202,-0.6014 4.9124,0.7236 0.3477,0.5167 0.4103,1.0932 0.1813,1.6693 -0.5022,1.2665 -2.3061,2.1731 -3.115,2.3566 -0.5334,0.1206 -1.0633,0.1799 -1.5825,0.1799z"/>
  <path class="fil3" d="M30.2086 55.1822c-0.4617,-0.0246 -0.9821,0.0248 -1.5684,0.1599 -2.8387,0.6519 -5.5714,3.3087 -6.9515,5.8882 -0.8306,1.5546 -1.2845,3.1613 -1.6852,4.8786 -0.6258,2.6835 -0.2537,5.6988 -0.1828,8.4494 0.0581,2.2687 0.091,5.7905 2.6783,6.4554 1.5609,0.4007 3.5327,0.0971 5.1499,0.0971 2.195,-0.0001 4.367,0.8138 5.8794,-1.644 0.9715,-1.5794 0.8255,-3.7581 0.4431,-5.491 -0.3846,-1.7494 -0.3556,-3.4187 -0.3556,-5.2193 0,-2.5397 0,-5.0793 0,-7.6183 0,-3.0773 -0.6802,-5.8099 -3.4072,-5.956z"/>
  <path class="fil3" d="M36.8865 55.1752c6.5091,0 10.362,7.9647 10.362,12.7194l0.0002 4.9755 0 2.278 0 3.2229c0,1.5124 -1.1612,2.7398 -2.5935,2.7398l-3.0531 -0.0001 -2.156 0 -0.3209 0c-3.1186,0 -5.646,-2.6698 -5.646,-5.9626l0.0001 -14.0099c0,-3.2929 0.2885,-5.963 3.4072,-5.963z"/>
  <path class="fil2" d="M6.901 115.7c-0.0332,0 -0.066,-0.0035 -0.0992,-0.0098 -0.2874,-0.0551 -0.4762,-0.332 -0.4208,-0.6184 0.5148,-2.7045 -0.2304,-5.9803 -0.9518,-9.1483 -0.4953,-2.1781 -0.9631,-4.2347 -0.992,-5.9979 -0.005,-0.2921 0.2286,-0.5327 0.5206,-0.5373 0.003,0 0.0057,0 0.0085,0 0.2886,0 0.5242,0.2314 0.5292,0.52 0.0269,1.6531 0.4829,3.658 0.9659,5.781 0.7448,3.2733 1.5152,6.6587 0.9592,9.58 -0.0482,0.2537 -0.2703,0.4308 -0.5196,0.4307z"/>
  <path class="fil1" d="M44.0552 176.499c-0.1992,0 -0.3895,-0.1125 -0.4798,-0.3041 -3.5987,-7.6535 -2.956,-18.8736 -2.5122,-23.3426 0.0283,-0.29 0.2861,-0.5055 0.579,-0.4738 0.2907,0.029 0.5027,0.2879 0.4737,0.5786 -0.4346,4.3814 -1.0699,15.3719 2.4172,22.7873 0.1248,0.2646 0.011,0.5796 -0.2536,0.7042 -0.0729,0.0338 -0.1496,0.0504 -0.2243,0.0504z"/>
  <path class="fil1" d="M62.0811 119.391c-0.1439,0 -0.2879,-0.0585 -0.392,-0.1742 -0.8159,-0.9014 -1.9914,-4.771 -2.0313,-7.3459 -0.0679,-4.4814 0.1454,-5.6691 0.4995,-7.6376 0.2263,-1.2563 0.5073,-2.818 0.8097,-5.805 0.9674,-9.5596 -0.5581,-16.3202 -4.801,-21.2757 -4.3465,-5.0765 -3.7959,-7.7512 -2.885,-12.1824 0.2502,-1.2175 0.5341,-2.5975 0.7571,-4.2154 0.218,-1.5731 -0.3846,-2.9862 -1.6962,-3.9804 -2.0238,-1.5332 -5.1939,-1.7109 -8.0761,-0.4536 -2.5446,1.1108 -4.3808,3.2543 -5.4582,6.3722 -0.111,0.3216 -0.2773,0.8096 -0.7842,0.6614 -0.2811,-0.0818 -0.4417,-0.3757 -0.3599,-0.6565 0.0167,-0.0578 0.0427,-0.1111 0.0759,-0.158 0.018,-0.0463 0.0391,-0.1115 0.0677,-0.193 1.178,-3.4086 3.2085,-5.7623 6.0357,-6.9963 3.2273,-1.4086 6.8142,-1.18 9.1383,0.5803 1.607,1.2174 2.3746,3.0283 2.1058,4.9686 -0.2278,1.6524 -0.5154,3.0501 -0.7698,4.2837 -0.903,4.3932 -1.3564,6.5988 2.6529,11.2812 4.4437,5.1904 6.048,12.204 5.0497,22.0708 -0.3065,3.0268 -0.5916,4.6115 -0.8206,5.8854 -0.3428,1.9053 -0.5496,3.0551 -0.483,7.4337 0.0378,2.4751 1.2312,6.071 1.7576,6.652 0.1959,0.2169 0.1792,0.551 -0.0371,0.7475 -0.1011,0.0918 -0.2286,0.1373 -0.3555,0.1372z"/>
  <path class="fil1" d="M48.2043 193.096c-0.1178,0 -0.2365,-0.0392 -0.3349,-0.1196 -1.497,-1.2238 -3.5712,-3.7049 -4.529,-5.4173 -6.8399,-12.215 -5.9489,-21.3293 -5.249,-24.6807 0.5893,-2.8151 1.4842,-5.5333 2.3503,-8.1618 1.7936,-5.4434 3.4878,-10.5855 2.7093,-16.5774 -0.8522,-6.5561 -2.7189,-11.7154 -4.6958,-17.1771 -0.6039,-1.6705 -1.2291,-3.3976 -1.8264,-5.1746 -1.2237,-3.6456 -1.3747,-8.2497 -0.4604,-14.0754 1.0129,-6.4538 1.2443,-22.4109 -0.3933,-29.1434 -0.0691,-0.284 0.1055,-0.5697 0.3891,-0.6385 0.2841,-0.0699 0.5701,0.1044 0.6389,0.3884 1.6649,6.8442 1.4365,23.023 0.4106,29.5575 -0.8868,5.6543 -0.7503,10.0944 0.4181,13.5746 0.5935,1.7653 1.2164,3.4864 1.8185,5.1516 1.9976,5.5177 3.8834,10.7293 4.7502,17.4007 0.8098,6.2308 -1.0019,11.7285 -2.7534,17.0448 -0.8564,2.6003 -1.7431,5.2903 -2.3192,8.0472 -1.4078,6.737 0.5119,15.6895 5.1357,23.9473 0.8892,1.5896 2.8872,3.98 4.2754,5.1146 0.2269,0.1855 0.26,0.5182 0.0751,0.7451 -0.1048,0.128 -0.2568,0.194 -0.4098,0.194z"/>
  <path class="fil2" d="M19.4825 195.535c-0.2659,0 -0.4947,-0.2 -0.525,-0.4706 -0.033,-0.2903 0.1764,-0.5521 0.4664,-0.5845 2.9175,-0.3278 5.4652,-3.9582 5.9263,-8.4459 0.5285,-5.1382 0.2582,-11.612 -0.6717,-16.1106 -1.9025,-9.2107 -1.9025,-15.9286 -1.9018,-23.0417l0.0001 -0.3934c0,-6.6068 1.7673,-18.0516 3.3534,-24.1899 1.5992,-6.1938 3.8233,-12.6175 6.4311,-18.5766 2.2822,-5.2141 1.839,-17.9829 1.5455,-26.4322 -0.0866,-2.4977 -0.1619,-4.6542 -0.1619,-6.2872 0.0001,-0.2922 0.2371,-0.5292 0.5292,-0.5292 0.2921,-0.0001 0.5291,0.2371 0.5291,0.5292 0.0001,1.6142 0.0752,3.7627 0.1612,6.2505 0.3145,9.0557 0.7458,21.4591 -1.6337,26.8933 -2.5857,5.9082 -4.7907,12.277 -6.3761,18.4167 -1.5702,6.077 -3.3196,17.3976 -3.3196,23.9254l0 0.3934c-0.0006,7.3639 -0.0007,13.7227 1.8796,22.8275 0.9505,4.5942 1.2266,11.1979 0.6883,16.4331 -0.5192,5.0525 -3.4043,9.0011 -6.8612,9.3892 -0.0197,0.0021 -0.0399,0.0035 -0.0592,0.0035z"/>
  <path class="fil2" d="M47.1123 195.785c-0.0524,0 -0.1062,-0.0074 -0.1587,-0.024 -6.0861,-1.9156 -8.7436,-12.2266 -7.898,-30.6468 0.3595,-7.8342 0.7846,-11.4653 1.8196,-19.1181 0.2205,-1.6352 0.5373,-3.1923 0.8431,-4.6987 1.109,-5.4529 2.1562,-10.6024 -1.2442,-18.9763 -2.7304,-6.7232 -4.8486,-15.7233 -4.8486,-18.9787 0.0001,-1.8095 0.0999,-4.3921 0.2149,-7.3829 0.3116,-8.085 0.7387,-19.159 -0.5316,-23.7526 -0.0779,-0.2818 0.0874,-0.5732 0.3689,-0.6512 0.2799,-0.078 0.5726,0.0875 0.6506,0.3694 1.3148,4.7522 0.884,15.9205 0.5697,24.0749 -0.1149,2.9799 -0.2141,5.5535 -0.2141,7.3424 0,3.0949 2.1283,12.0735 4.7706,18.5805 3.5211,8.6694 2.4426,13.9714 1.3017,19.5855 -0.3034,1.489 -0.6159,3.0289 -0.8325,4.6295 -1.0304,7.6193 -1.4538,11.2331 -1.8112,19.0246 -0.5636,12.2925 0.2198,27.4048 7.1589,29.5892 0.2785,0.0875 0.4332,0.3846 0.3457,0.6636 -0.0708,0.2258 -0.2797,0.3697 -0.5048,0.3697z"/>
  <path class="fil2" d="M2.5629 121.363c-0.2617,0 -0.4897,-0.1944 -0.5236,-0.4618 -0.8494,-6.5892 0.097,-17.0896 3.5235,-23.5712 2.5468,-4.8158 2.4166,-8.7563 2.2656,-13.318 -0.0757,-2.2938 -0.1542,-4.6648 0.0826,-7.3886 0.6753,-7.783 4.3271,-20.5719 11.2497,-21.7572 3.9,-0.6683 7.9713,0.5595 10.8927,3.2826 2.677,2.4955 3.9564,5.8194 3.6029,9.3595 -0.0288,0.291 -0.2893,0.5009 -0.5796,0.4741 -0.2906,-0.029 -0.5027,-0.2878 -0.4731,-0.5789 0.3197,-3.2039 -0.8421,-6.2156 -3.2716,-8.4804 -2.6813,-2.5002 -6.4181,-3.6262 -9.9928,-3.0138 -5.9985,1.0276 -9.6774,12.785 -10.3738,20.8058 -0.2311,2.6603 -0.1538,4.9996 -0.0794,7.2616 0.1561,4.7134 0.29,8.7834 -2.3872,13.8479 -3.3245,6.2886 -4.2383,16.5135 -3.41,22.9415 0.0371,0.2899 -0.1675,0.5553 -0.4575,0.5927 -0.0229,0.0027 -0.0455,0.0042 -0.0684,0.0042z"/>
  <path class="fil2" d="M62.4347 124.902c-0.0449,0 -0.0898,-0.0056 -0.1346,-0.0173 -0.2825,-0.0738 -0.4519,-0.363 -0.3782,-0.6455 2.9843,-11.404 1.6831,-19.2031 0.9846,-23.3931 -0.5956,-3.5726 -2.1078,-6.6551 -3.569,-9.6365 -1.578,-3.2177 -3.2096,-6.5451 -3.7641,-10.5551 -0.365,-2.6508 -0.4879,-5.419 -0.6072,-8.0966 -0.2104,-4.7675 -0.43,-9.6964 -2.0345,-14.0437 -0.432,-1.1706 -1.7109,-1.9636 -3.4205,-2.1206 -2.3667,-0.2187 -5.5016,0.8185 -7.1705,3.622 -0.1365,0.2289 -0.319,0.5306 -0.532,0.8812 -0.8301,1.367 -2.9475,4.855 -3.2294,5.8678 0.0621,0.0751 0.1041,0.1683 0.1172,0.2713 0.036,0.2903 -0.1701,0.5549 -0.4597,0.5905 -0.2603,0.0311 -0.4981,-0.0737 -0.6347,-0.2836 -0.3386,-0.5239 -0.1294,-1.3444 3.302,-6.9949 0.2111,-0.3475 0.392,-0.6466 0.5271,-0.8731 1.9045,-3.2005 5.4776,-4.3829 8.1774,-4.1349 2.1255,0.195 3.7391,1.2449 4.3159,2.8077 1.6619,4.5021 1.8845,9.5155 2.0993,14.3634 0.118,2.6536 0.2392,5.3971 0.5984,7.9989 0.5309,3.8413 2.124,7.0912 3.6653,10.2341 1.4951,3.0493 3.0413,6.2025 3.6629,9.9278 0.7119,4.2679 2.0366,12.2121 -1.0047,23.8355 -0.0617,0.2374 -0.2762,0.3947 -0.511,0.3947z"/>
  <path class="fil2" d="M36.1548 67.2758c-0.2921,0 -0.5293,-0.2363 -0.5293,-0.5291 0.0001,-2.4804 -0.0578,-4.8549 -0.1136,-7.1519 -0.2471,-10.1315 -0.4431,-18.1342 4.4126,-24.5498 4.1629,-5.5008 7.1945,-13.293 3.217,-18.6661 -0.1739,-0.235 -0.1249,-0.5656 0.11,-0.7398 0.235,-0.1741 0.5666,-0.1249 0.7402,0.11 4.3257,5.8423 1.1705,14.1284 -3.2234,19.9348 -4.6321,6.1206 -4.4407,13.9601 -4.1987,23.8852 0.0565,2.3028 0.1143,4.6842 0.1143,7.1776 0,0.2927 -0.2371,0.5292 -0.5291,0.5291z"/>
  <path class="fil1" d="M20.8283 191.989c-0.031,0 -0.0628,-0.0029 -0.0946,-0.0085 -0.287,-0.0515 -0.4787,-0.327 -0.4272,-0.6145 0.5857,-3.2548 1.9893,-5.847 3.4749,-8.5905 0.2005,-0.3701 0.4021,-0.743 0.6043,-1.1212 2.867,-5.3724 3.3023,-12.8552 3.3073,-16.837 0.0074,-7.0577 -1.7523,-13.2186 -3.616,-19.7418l-0.472 -1.657c-1.5958,-5.6279 -3.2646,-16.2009 3.4844,-23.7807 4.0176,-4.5117 5.3886,-10.4126 6.5461,-16.5696 0.5877,-3.126 0.6153,-12.2107 0.6318,-17.6389 0.0037,-1.1381 0.0064,-2.1037 0.0138,-2.8 0.0223,-1.9541 0.2931,-4.0129 0.5556,-6.0036 0.3452,-2.6237 0.7028,-5.3372 0.4555,-7.6962 -0.0304,-0.2911 0.1802,-0.5507 0.4713,-0.581 0.2871,-0.0304 0.551,0.1799 0.5813,0.4706 0.2597,2.4839 -0.1054,5.2599 -0.4589,7.9445 -0.2581,1.96 -0.525,3.9864 -0.5465,5.8773 -0.0073,0.6946 -0.0102,1.6563 -0.0137,2.7919 -0.0166,5.4638 -0.0441,14.6099 -0.6495,17.8311 -1.1866,6.3094 -2.5986,12.3631 -6.7966,17.078 -6.4127,7.2023 -4.7929,17.3687 -3.2565,22.7881l0.4714 1.6548c1.8846,6.5959 3.6642,12.8267 3.6568,20.0339 -0.0049,4.0806 -0.4569,11.7588 -3.4322,17.3338 -0.2032,0.3802 -0.4057,0.7553 -0.6071,1.1264 -1.4439,2.6673 -2.8085,5.1862 -3.3637,8.2744 -0.0461,0.2557 -0.2685,0.4357 -0.52,0.4357z"/>
  <path class="fil1" d="M6.7819 126.406c-0.2113,0 -0.4122,-0.1284 -0.4934,-0.3379 -0.6427,-1.6563 -1.2859,-5.3749 -1.5317,-6.8968l-0.1047 -0.6457c-1.3903,-8.5813 -3.2958,-20.3329 0.9094,-28.4027 3.5949,-6.9008 5.8554,-12.2502 6.0159,-17.5941 0.0434,-1.4408 -0.018,-3.0117 -0.078,-4.5304 -0.2348,-5.9864 -0.4773,-12.1758 5.2663,-13.4539 5.6011,-1.2447 9.0724,3.1676 12.1345,7.0626 1.3102,1.6672 2.5484,3.2424 3.8989,4.3815 0.2234,0.188 0.2515,0.5221 0.0635,0.7455 -0.1888,0.2239 -0.5218,0.2522 -0.7454,0.0634 -1.4339,-1.2086 -2.7044,-2.825 -4.0496,-4.5367 -3.008,-3.8273 -6.121,-7.7858 -11.0719,-6.6827 -4.8816,1.0858 -4.6666,6.5712 -4.4387,12.379 0.0602,1.5363 0.1228,3.126 0.078,4.6034 -0.1669,5.5456 -2.4709,11.0187 -6.1352,18.051 -4.0423,7.7589 -2.1702,19.3103 -0.8032,27.7445l0.1048 0.6463c0.1881,1.1609 0.8501,5.0768 1.4738,6.683 0.106,0.272 -0.0289,0.5786 -0.3019,0.6848 -0.0628,0.0239 -0.1274,0.036 -0.1914,0.0359z"/>
  <path class="fil1" d="M35.147 64.0842c0,0 -0.0002,0.0001 -0.0009,0.0001 -0.2924,-0.0001 -0.5285,-0.2371 -0.5285,-0.5292 0.0047,-11.4741 -2.6913,-19.6518 -8.7425,-26.5158 -5.5663,-6.3152 -5.8681,-11.8759 -0.9493,-17.502 0.1923,-0.2198 0.5263,-0.2424 0.7468,-0.0501 0.2198,0.1922 0.2427,0.527 0.0498,0.7468 -4.5627,5.2192 -4.2715,10.1858 0.9465,16.105 6.2335,7.0721 9.0117,15.4658 9.0071,27.2168 0,0.2921 -0.2371,0.5285 -0.529,0.5284z"/>
  <path class="fil1" d="M42.7797 70.7725c-1.5572,2.9863 -4.2646,5.3415 -6.6822,3.0876 -2.0676,-1.9287 -1.9046,-5.8325 -1.2072,-8.6395 0.7008,-2.8237 2.9648,-3.6103 5.1665,-3.0008 2.1103,0.5842 4.0636,1.6772 4.0128,4.2059 -0.0257,1.2925 -0.5327,2.8945 -1.2899,4.3468z"/>
  <path class="fil1" d="M35.8187 66.9217l0 0c-0.2921,0 -0.5294,-0.2371 -0.5294,-0.5299 0.0104,-16.8332 2.3379,-26.6291 8.3027,-34.9356 1.4465,-2.0134 2.6631,-5.3125 1.3352,-7.9837 -0.9926,-1.9996 -2.0038,-3.2276 -2.9227,-3.5528 -0.2756,-0.0972 -0.4195,-0.3994 -0.3225,-0.6752 0.0977,-0.2757 0.4004,-0.4202 0.6752,-0.3225 1.2009,0.4243 2.3841,1.7971 3.5176,4.0792 1.5372,3.0927 0.194,6.8206 -1.4228,9.0724 -5.8221,8.1082 -8.0941,17.7302 -8.1044,34.3189 0.0001,0.292 -0.237,0.5292 -0.5289,0.5292z"/>
  <path class="fil2" d="M40.5335 69.9831c-0.9296,3.436 -3.3522,6.5581 -6.753,4.9643 -2.9085,-1.3629 -3.8291,-5.3344 -3.8305,-8.351 -0.0013,-3.035 2.3601,-4.4556 5.0465,-4.4556 2.575,0 5.116,0.5553 5.7761,3.1122 0.337,1.307 0.2127,3.0593 -0.2391,4.7301z"/>
  <path class="fil2" d="M26.4072 195.428c-0.0659,0 -0.1331,-0.0123 -0.197,-0.0381 -0.2715,-0.1086 -0.4032,-0.4173 -0.2942,-0.6882 0.797,-1.9865 0.604,-5.4286 -0.4798,-8.5658 -0.0954,-0.2763 0.0512,-0.5782 0.3274,-0.6731 0.2777,-0.096 0.5775,0.0508 0.6731,0.327 1.1611,3.3613 1.3466,7.1004 0.4611,9.3059 -0.0828,0.2067 -0.2812,0.3323 -0.4906,0.3323z"/>
  <path class="fil2" d="M59.2597 100.93c-0.1895,0 -0.3724,-0.1019 -0.468,-0.2804 -2.3798,-4.4676 -3.0282,-10.3911 -1.5758,-14.4054 0.0999,-0.2752 0.4039,-0.417 0.678,-0.3178 0.2742,0.0994 0.417,0.4025 0.3168,0.6773 -1.3358,3.6946 -0.6992,9.392 1.5152,13.5477 0.1372,0.2583 0.0402,0.5786 -0.2184,0.7158 -0.0789,0.0419 -0.164,0.0628 -0.2478,0.0628z"/>
  <path class="fil2" d="M39.1135 195.522c-0.2151,0 -0.417,-0.1323 -0.4964,-0.3457 -1.0851,-2.9319 -0.58,-5.9958 -0.0914,-8.9588 0.2626,-1.5893 0.5098,-3.0907 0.5292,-4.5723 0.0039,-0.29 0.2402,-0.5221 0.5291,-0.5221 0.0022,-0.0001 0.0046,0 0.0068,0 0.2921,0.0042 0.5263,0.2437 0.5224,0.5362 -0.0208,1.561 -0.2861,3.1721 -0.5429,4.7307 -0.4667,2.8268 -0.949,5.75 0.0391,8.4191 0.102,0.274 -0.0377,0.5789 -0.3122,0.6801 -0.0606,0.0226 -0.1224,0.0328 -0.1837,0.0328z"/>
  <path class="fil2" d="M21.5331 182.044c-0.0553,0 -0.1111,-0.0088 -0.1661,-0.0268 -0.277,-0.0917 -0.428,-0.3912 -0.3362,-0.6681 1.5622,-4.7255 3.4685,-12.2993 1.9995,-23.464 -0.038,-0.2899 0.1662,-0.5552 0.4561,-0.5941 0.2895,-0.0363 0.5553,0.1662 0.593,0.4562 1.4977,11.3799 -0.449,19.1093 -2.0439,23.9338 -0.0729,0.222 -0.2798,0.363 -0.5024,0.363z"/>
  <path class="fil2" d="M34.8104 66.5668c-0.2921,0 -0.5293,-0.2367 -0.5293,-0.5292 0.0001,-15.0163 -4.2623,-23.6784 -9.011,-31.944 -1.164,-2.0271 -2.6402,-5.5037 -3.2886,-9.1832 -0.7281,-4.13 -0.1866,-7.3296 1.5671,-9.2544 0.1969,-0.2164 0.5316,-0.2307 0.7467,-0.0349 0.2164,0.1968 0.2322,0.532 0.035,0.7475 -1.925,2.1131 -1.7734,5.7118 -1.3071,8.3577 0.6253,3.5449 2.0444,6.8911 3.1648,8.8402 4.8233,8.3943 9.1514,17.1944 9.1514,32.4711 0,0.2924 -0.2367,0.5292 -0.529,0.5292z"/>
 </g>
</svg>
