<?xml version="1.0" encoding="UTF-8"?>
<!DOCTYPE svg PUBLIC "-//W3C//DTD SVG 1.1//EN" "http://www.w3.org/Graphics/SVG/1.1/DTD/svg11.dtd">
<!-- Creator: CorelDRAW -->
<svg xmlns="http://www.w3.org/2000/svg" xml:space="preserve" width="67mm" height="197mm" style="shape-rendering:geometricPrecision; text-rendering:geometricPrecision; image-rendering:optimizeQuality; fill-rule:evenodd; clip-rule:evenodd"
viewBox="0 0 67 197"
 xmlns:xlink="http://www.w3.org/1999/xlink">
 <defs>
  <style type="text/css">
   <![CDATA[
    .fil1 {fill:#B55555}
    .fil0 {fill:#FFD0A6}
   ]]>
  </style>
 </defs>
 <g id="Layer_x0020_1">
  <metadata id="CorelCorpID_0Corel-Layer"/>
  <path class="fil0" d="M63.7575 87.1006c-3.5237,-23.3288 -5.9251,-28.2899 -7.0709,-29.7765 -1.2714,-2.0949 -3.3168,-4.6147 -9.5162,-6.2841 0.0001,0 -7.7879,-3.0314 -8.1125,-3.0536l0.0001 -4.2225c3.5977,-1.1733 8.7904,-4.3482 10.0495,-9.2579 2.528,-0.1983 4.7301,-2.1321 5.2342,-4.8365 0.5589,-2.9965 -1.1649,-5.8699 -3.912,-6.7035 0.4774,-3.8807 0.5401,-9.7938 0.3733,-11.0564 0.0001,-0.0002 2.1455,-5.0508 1.1666,-8.7193 -0.4035,0.8138 -1.9099,2.0211 -2.7471,1.7565 0.9656,-0.9939 1.5424,-4.1303 0.6657,-4.8038 -0.8663,2.1797 -7.2379,2.0892 -10.3755,1.7576 -7.4784,-0.7903 -13.122,-0.1429 -17.4879,3.3196 -4.2969,3.4077 -5.8216,6.9846 -5.659,14.7235 0.0125,0.5976 0.0759,1.8362 0.1877,3.12 -2.5834,0.9379 -4.1765,3.7119 -3.6368,6.6058 0.5028,2.6964 2.6939,4.6273 5.213,4.8348 1.197,5.0379 6.2647,8.2515 10.0694,9.3482l0 4.1339c-0.3239,0.0222 -8.1125,3.0536 -8.1125,3.0536 -6.1986,1.6694 -8.2451,4.1893 -9.5162,6.2841 -1.1451,1.4865 -3.5461,6.4477 -7.07,29.7765 -2.3191,15.3588 -2.9496,26.6161 -2.8395,26.6898 0.0078,2.1332 0.1813,6.9811 1.5349,10.0947 0.6237,1.4343 1.4468,2.8261 2.2977,3.8936 0.0293,0.2233 1.2841,1.3639 1.2735,1.3212 1.087,0.872 2.0757,0.9532 2.5883,-0.3867 0.381,-0.9983 -0.9475,-7.2679 0.3306,-8.431 0.3623,-0.3256 0.7038,-0.5394 1.0089,-0.5517 0.397,-0.0159 0.3655,3.7715 0.4618,4.1532 0.3278,1.2908 2.3834,0.9991 2.4246,-0.4283l0.1712 -5.8547c0.0374,-0.8848 -0.0382,-2.1565 -0.7314,-2.8222 -0.7179,-0.6882 -1.7617,-0.5224 -1.929,-1.7893 -0.2476,-1.8845 0.5222,-9.7486 0.8203,-11.7715 1.8129,-12.3253 5.492,-33.3943 5.492,-33.3943l1.6384 4.1945c0,0 0.878,10.6342 1.0614,24.3513 0.0639,4.7931 0.6195,92.3237 0.6195,92.3237 -0.2261,0.073 -0.4611,0.1936 -0.7211,0.3686 0.0001,0 -8.0765,5.6416 -8.83,6.3941 -1.3487,1.3487 1.1158,1.4224 2.5361,1.3825l14.6636 -0.1619c1.7297,-0.0402 3.3178,-0.2585 3.5299,-0.4864 0.0001,-0.0001 0.2578,-0.0131 0.3217,-1.2055 0.0001,0 1.1232,-79.6756 1.1507,-80.675l2.5088 0c0.0275,0.9994 1.1506,80.675 1.1506,80.675 0.0644,1.1924 0.3218,1.2055 0.3218,1.2055 0.2125,0.2279 1.8005,0.4462 3.5298,0.4864l14.6637 0.1619c1.4196,0.0399 3.884,-0.0338 2.5357,-1.3825 -0.7539,-0.7525 -8.8297,-6.3941 -8.8297,-6.3941 -0.26,-0.175 -0.4949,-0.2956 -0.7207,-0.3686 0.0001,-0.0001 0.5482,-87.6032 0.6036,-92.3237 0.1782,-15.1572 1.0759,-24.3512 1.0759,-24.3512l1.6395 -4.1946c0,0 3.6787,21.069 5.492,33.3943 0.2978,2.0228 1.0682,9.887 0.8205,11.7715 -0.1671,1.2668 -1.2118,1.1011 -1.9297,1.7893 -0.6925,0.6657 -0.769,1.9375 -0.7313,2.8222l0.1718 5.8547c0.0407,1.4274 2.0966,1.7191 2.4247,0.4283 0.0964,-0.3818 0.0645,-4.1691 0.4614,-4.1532 0.3056,0.0122 0.6463,0.2261 1.0089,0.5517 1.2783,1.163 -0.0504,7.4327 0.3306,8.431 0.5127,1.3402 1.5018,1.2587 2.5887,0.3856 -0.0101,0.043 1.2439,-1.0968 1.2731,-1.3201 0.8506,-1.0675 1.674,-2.4592 2.2973,-3.8936 1.3533,-3.1137 1.5276,-7.9615 1.5353,-10.0947 0.1101,-0.0738 -0.5211,-11.3309 -2.8393,-26.6898z"/>
  <path class="fil1" d="M23.0327 14.0629c-0.0511,0.0335 -0.1027,0.066 -0.1535,0.102 0.0509,-0.0362 0.1023,-0.0685 0.1535,-0.102zm3.116 -1.0972c0.0367,-0.0032 0.0741,-0.0077 0.1108,-0.0105 -0.0367,0.0028 -0.0744,0.0074 -0.1108,0.0105zm-0.5513 0.0708c0.0539,-0.0087 0.1082,-0.0178 0.1619,-0.0259 -0.0536,0.0081 -0.108,0.0173 -0.1619,0.0259zm-0.5162 0.1084c0.053,-0.0133 0.1051,-0.0242 0.1577,-0.0362 -0.0522,0.0118 -0.1048,0.0229 -0.1577,0.0362zm-0.5083 0.1492c0.0216,-0.0077 0.0433,-0.0126 0.0645,-0.02 -0.0211,0.0073 -0.043,0.0124 -0.0645,0.02zm-0.6435 0.2635c0.0449,-0.0214 0.09,-0.0443 0.1355,-0.0644 -0.0455,0.02 -0.0907,0.043 -0.1355,0.0644zm3.4911 -0.5915c-0.0497,-0.004 -0.0988,-0.0077 -0.1482,-0.0113 0.0498,0.0036 0.0985,0.0075 0.1482,0.0113zm-0.6477 -0.03c0.0233,0 0.0462,0.0025 0.0695,0.0029 -0.03,-0.0005 -0.0596,-0.0021 -0.0896,-0.0021 0.0067,-0.0002 0.0134,-0.0008 0.0201,-0.0008zm5.609 1.8828c0.0091,0.0066 0.0132,0.0095 0.0189,0.0134 -0.0045,-0.0033 -0.0127,-0.0088 -0.0189,-0.0134zm-0.0858 -0.0597c0.0115,0.0081 0.0186,0.0128 0.0288,0.0199 -0.0095,-0.0064 -0.018,-0.0124 -0.0288,-0.0199zm-0.1569 -0.104c0.0101,0.0067 0.022,0.0138 0.0315,0.0205 -0.0093,-0.0064 -0.0218,-0.0138 -0.0315,-0.0205zm-0.2005 -0.1264c0.0223,0.0139 0.0433,0.027 0.0641,0.04 -0.0204,-0.0132 -0.0423,-0.0265 -0.0641,-0.04zm-0.2232 -0.1336c0.0224,0.0129 0.0418,0.0247 0.0633,0.0374 -0.0214,-0.0127 -0.0413,-0.0243 -0.0633,-0.0374zm-0.3246 -0.1817c0.0254,0.0141 0.0517,0.0279 0.0768,0.042 -0.0247,-0.0142 -0.0515,-0.0282 -0.0768,-0.042zm-0.3183 -0.1655c0.0349,0.0176 0.0694,0.035 0.1037,0.0527 -0.0341,-0.0178 -0.0688,-0.0353 -0.1037,-0.0527zm-0.3322 -0.1608c0.021,0.0096 0.0397,0.0191 0.0605,0.029 -0.0206,-0.0099 -0.0395,-0.0194 -0.0605,-0.029zm-0.4655 -0.203c0.0388,0.0159 0.078,0.0319 0.1157,0.0482 -0.0377,-0.0164 -0.0772,-0.0321 -0.1157,-0.0482zm-0.4074 -0.1589c0.042,0.0155 0.0825,0.031 0.1238,0.0469 -0.0413,-0.0159 -0.0819,-0.0317 -0.1238,-0.0469zm-0.4643 -0.1586c0.017,0.0054 0.0349,0.0101 0.0518,0.0157 -0.0169,-0.0057 -0.0349,-0.0102 -0.0518,-0.0157zm-0.527 -0.1506c0.0466,0.0121 0.0931,0.0245 0.139,0.0368 -0.0459,-0.0124 -0.0925,-0.0247 -0.139,-0.0368zm-0.4752 -0.1097c0.0417,0.0081 0.0822,0.0178 0.1234,0.027 -0.0412,-0.0093 -0.0822,-0.0187 -0.1234,-0.027zm-0.5758 -0.0962c0.0326,0.0041 0.0657,0.0078 0.0981,0.0124 -0.0324,-0.0047 -0.0656,-0.0081 -0.0981,-0.0124zm-0.9662 8.4998c0.067,0.0187 0.1316,0.035 0.1993,0.0547 -0.0677,-0.0197 -0.1323,-0.0359 -0.1993,-0.0547zm-0.6117 -0.1569c0.0766,0.0176 0.152,0.0338 0.23,0.0536 -0.0779,-0.0199 -0.1535,-0.036 -0.23,-0.0536zm-0.5645 -0.1207c0.0787,0.0151 0.1563,0.029 0.236,0.0459 -0.0796,-0.0171 -0.1573,-0.0307 -0.236,-0.0459zm-0.5344 -0.0907c0.0776,0.0115 0.1555,0.0226 0.2356,0.036 -0.08,-0.0134 -0.158,-0.0246 -0.2356,-0.036zm-0.508 -0.0639c0.0765,0.0082 0.1523,0.0156 0.23,0.0252 -0.0776,-0.0097 -0.1535,-0.0173 -0.23,-0.0252zm-0.4837 -0.0395c0.0734,0.0046 0.1467,0.0086 0.2219,0.0149 -0.0751,-0.0063 -0.1485,-0.0102 -0.2219,-0.0149zm-0.4614 -0.0168c0.0709,0.001 0.1418,0.0024 0.2138,0.0049 -0.072,-0.0025 -0.1429,-0.0039 -0.2138,-0.0049zm-1.3465 0.0813c0.1633,-0.0228 0.3315,-0.0418 0.5061,-0.0556 -0.1746,0.0138 -0.3429,0.0328 -0.5061,0.0556zm-0.6203 0.1094c0.1581,-0.035 0.3239,-0.0651 0.4946,-0.0916 -0.1707,0.0263 -0.3365,0.0568 -0.4946,0.0916zm-0.4744 0.1236c0.1288,-0.0381 0.2617,-0.073 0.3993,-0.1055 -0.1376,0.0325 -0.2706,0.0674 -0.3993,0.1055zm-0.5119 0.1699c0.1295,-0.0487 0.2645,-0.0948 0.4056,-0.1385 -0.1407,0.0436 -0.2762,0.0899 -0.4056,0.1385zm-0.3941 0.1659c0.1006,-0.0459 0.2053,-0.0906 0.3147,-0.1337 -0.1093,0.043 -0.2142,0.0879 -0.3147,0.1337zm-0.4081 0.2036c0.1026,-0.0562 0.2109,-0.1111 0.3245,-0.1655 -0.1135,0.0543 -0.2219,0.1094 -0.3245,0.1655zm-0.3161 0.1861c0.0769,-0.0482 0.1584,-0.0965 0.243,-0.1448 -0.0846,0.0481 -0.1661,0.0966 -0.243,0.1448zm-0.3108 0.2095c0.0776,-0.0563 0.1605,-0.113 0.2487,-0.1702 -0.0882,0.0571 -0.1711,0.1143 -0.2487,0.1702zm-0.2413 0.186c0.0571,-0.0465 0.1178,-0.0934 0.182,-0.1417 -0.0642,0.0478 -0.1253,0.0956 -0.182,0.1417zm4.317 -8.617c0.056,-0.0323 0.1121,-0.0644 0.1678,-0.0947 -0.0557,0.0302 -0.1118,0.0624 -0.1678,0.0947zm0.1093 7.1813c-0.2025,0.0014 -0.4012,0.0078 -0.5902,0.0212 0.1895,-0.0135 0.3877,-0.0198 0.5902,-0.0212zm-4.8122 1.7843c0.0381,-0.0385 0.0796,-0.079 0.1248,-0.1209 -0.0447,0.0419 -0.0871,0.0825 -0.1248,0.1209zm0.1675 -0.1609c0.0547,-0.05 0.1136,-0.1015 0.1781,-0.1555 -0.0645,0.0539 -0.1238,0.1055 -0.1781,0.1555zm-0.3969 0.4135c0.0194,-0.024 0.0434,-0.0522 0.0706,-0.0832 -0.0268,0.0307 -0.0512,0.0596 -0.0706,0.0832zm-0.0539 0.0685c0.0112,-0.0153 0.0264,-0.0346 0.0479,-0.0614 -0.0211,0.0261 -0.0367,0.0462 -0.0479,0.0614zm-0.0212 0.0286c0,0 0.0049,-0.0064 0.012,-0.0166 -0.0053,0.0076 -0.012,0.0166 -0.012,0.0166zm0.1714 -0.2094c0.0329,-0.0363 0.0692,-0.0753 0.1111,-0.1187 -0.0419,0.0429 -0.0786,0.0829 -0.1111,0.1187zm-0.2574 0.5515c0.0285,0.0071 0.0574,0.0106 0.086,0.0106 0.1143,-0.0001 0.2236,-0.0553 0.2903,-0.1527 0.0562,-0.0798 1.4316,-1.984 4.8944,-1.9837 1.219,-0.0001 2.5598,0.2413 3.9847,0.7172 1.9858,0.6632 2.6313,3.4594 2.8229,5.6889 0.2146,2.492 -0.0797,4.8437 -0.0826,4.8669 -0.0144,0.1119 0.0254,0.2233 0.1066,0.301 0.0664,0.0627 0.1534,0.0966 0.243,0.0966 0.0213,0 0.0417,-0.0014 0.0628,-0.0053l1.7805 -0.3217c0.1677,-0.0304 0.29,-0.1768 0.29,-0.3475l0.0002 -17.5204c0,-0.1115 -0.0531,-0.2166 -0.1427,-0.2829 -0.1086,-0.0812 -2.7016,-1.9808 -5.8586,-1.9808l-0.0003 -0.0001c-1.7201,0 -3.2724,0.568 -4.6148,1.6878 -4.6259,3.8599 -4.15,8.7175 -4.1271,8.9224 0.0163,0.1463 0.1217,0.2674 0.2647,0.3037z"/>
  <path class="fil1" d="M23.5675 26.3842c1.384,0 2.51,0.6902 2.51,1.5383 0,0.8476 -1.1261,1.5374 -2.51,1.5374 -1.3843,-0.0001 -2.5101,-0.6897 -2.5101,-1.5374 0.0001,-0.8481 1.1258,-1.5381 2.5101,-1.5383zm5.4219 1.5381c0,-3.2341 -1.8631,-4.9436 -5.3881,-4.9436 -3.6763,0 -5.3887,1.5709 -5.3887,4.9438 0.0001,3.1875 1.9139,4.9431 5.3887,4.9431 3.4244,0 5.388,-1.8016 5.3881,-4.9433z"/>
  <path class="fil1" d="M33.6295 39.6484c-2.1703,0 -3.6824,-0.6515 -3.6824,-1.236 0,-0.5847 1.512,-1.2362 3.6823,-1.2362 2.1692,0 3.6812,0.6516 3.6812,1.2362 0.0001,0.5844 -1.512,1.2361 -3.6811,1.236zm-7.1488 -0.6251c0,2.2991 2.9397,3.905 7.1487,3.905 4.2084,-0.0001 7.1476,-1.6059 7.1476,-3.9049 0,-2.3711 -3.1224,-5.1273 -7.1476,-5.1273 -4.0259,0 -7.1487,2.7562 -7.1487,5.1272z"/>
  <path class="fil1" d="M20.7555 34.0745c-0.2067,-0.0468 -0.4096,-0.1022 -0.6061,-0.1682 0.1965,0.066 0.3993,0.1217 0.6061,0.1682zm6.6354 -0.5102c0.1577,-0.0436 0.2921,-0.0831 0.3979,-0.1155 -0.1061,0.0324 -0.2395,0.0716 -0.3979,0.1155zm0.6435 -0.1929c-0.0378,0.0123 -0.1101,0.0361 -0.2128,0.0671 0.1006,-0.0304 0.1743,-0.0543 0.2128,-0.0671zm0.0342 -0.0113c0,0 -0.0106,0.0036 -0.0258,0.0086 0.0145,-0.0046 0.0257,-0.0085 0.0258,-0.0086zm-1.2813 0.3628c0.2071,-0.0508 0.394,-0.1002 0.5573,-0.1454 -0.1632,0.0452 -0.3499,0.0946 -0.5573,0.1454zm-0.7457 0.1702c0.2458,-0.0518 0.4761,-0.1043 0.6871,-0.1558 -0.211,0.0518 -0.441,0.1041 -0.6871,0.1558zm-0.8556 0.16c0.2745,-0.0453 0.538,-0.0946 0.7867,-0.1457 -0.2487,0.051 -0.5119,0.1005 -0.7867,0.1457zm-0.9348 0.1287c0.2932,-0.0325 0.5795,-0.0719 0.8554,-0.116 -0.2758,0.0444 -0.5619,0.0836 -0.8554,0.116zm-0.9832 0.0768c0.3019,-0.0133 0.6018,-0.0365 0.8949,-0.0672 -0.2934,0.0305 -0.5926,0.0539 -0.8949,0.0672zm-1.2164 -0.0067c0.2191,0.0135 0.4395,0.0199 0.66,0.0199 -0.2205,-0.0001 -0.441,-0.0064 -0.66,-0.0199zm-0.6537 -0.0631c0.2142,0.0286 0.4311,0.0495 0.6498,0.0629 -0.2187,-0.0135 -0.4357,-0.0342 -0.6498,-0.0629zm-0.6374 -0.1133c0.2063,0.0462 0.4169,0.0834 0.6303,0.1123 -0.2134,-0.029 -0.4244,-0.0659 -0.6303,-0.1123zm1.9551 0.1962c0.1527,0 0.3047,-0.0038 0.4571,-0.0094 -0.1523,0.0055 -0.3045,0.0095 -0.4571,0.0094zm1.4011 5.5873c0.0354,0.1638 0.1803,0.2784 0.3443,0.2784 0.0117,0 0.023,-0.0003 0.0343,-0.0017 0.1781,-0.017 0.3153,-0.1644 0.3192,-0.3436 0.0007,-0.0374 0.1323,-3.8287 3.446,-6.1355 0.097,-0.0633 0.1619,-0.1726 0.1619,-0.2964 0,-0.1934 -0.1552,-0.3503 -0.3479,-0.3528 -0.002,-0.0001 -0.0042,0 -0.0063,0 -0.012,-0.0001 -0.0244,0.0007 -0.037,0.0022 -0.0286,0.0023 -0.0568,0.0091 -0.083,0.0187 -0.147,0.0488 -2.71,0.8907 -5.2338,0.8907 -0.9418,-0.0001 -1.7674,-0.1167 -2.4528,-0.3475 -0.037,-0.0123 -0.0752,-0.018 -0.1122,-0.018 -0.1255,-0.0001 -0.2448,0.0667 -0.3083,0.1814 -0.0829,0.1485 -0.0473,0.3355 0.0836,0.4434 0.0364,0.0295 3.6159,3.0096 4.192,5.6807z"/>
  <path class="fil1" d="M30.0918 54.5797c-0.2124,-0.025 -0.434,-0.0376 -0.6573,-0.0376 -2.3812,-0.0001 -4.923,1.4217 -6.9653,2.5639l-0.1933 0.1083c-2.7629,1.5437 -4.3039,3.8534 -4.457,6.693 0.1793,6.8459 7.2482,7.6376 12.5494,7.6376 2.2357,0 2.5908,-2.4342 2.5961,-2.4825l0.0002 -10.4765c0,-1.282 -0.0002,-3.6685 -2.8728,-4.0062z"/>
  <path class="fil1" d="M8.6415 66.3626c0.032,0.0271 0.0726,0.0413 0.1132,0.0413 0.0244,-0.0001 0.0486,-0.0053 0.0712,-0.0152 0.1182,-0.0526 2.8988,-1.2905 3.5895,-1.796l0.4047 -0.2953c1.8775,-1.367 3.4981,-2.5477 4.6111,-4.6228 1.5428,-2.8776 4.843,-4.2626 6.4291,-4.9286 0.822,-0.3451 1.0699,-0.4491 1.0495,-0.6784 -0.0166,-0.1835 -0.2255,-0.2304 -0.3041,-0.248 -1.1511,-0.2569 -3.0508,-0.5313 -4.9301,-0.5313 -2.4119,-0.0001 -4.228,0.4314 -5.3986,1.282 -3.4307,2.492 -5.6028,11.2412 -5.6931,11.6127l0.1705 0.0441 -0.1708 -0.042c-0.0162,0.0649 0.006,0.1344 0.0579,0.1775z"/>
  <path class="fil1" d="M29.2482 44.9944c-0.0331,-0.0719 -0.1079,-0.1142 -0.189,-0.1005 -0.0784,0.0127 -0.1387,0.0766 -0.1468,0.1556 -0.018,0.1676 -0.4103,4.1318 1.6319,6.5606 1.9404,2.3075 2.1739,3.2159 2.176,3.2272 0.0188,0.0812 0.091,0.1373 0.1725,0.1373 0.0089,-0.0001 0.018,-0.0007 0.0275,-0.0022 0.0925,-0.0148 0.1573,-0.0991 0.1482,-0.1919 -0.0067,-0.0625 -0.1711,-1.5617 -1.4609,-4.5028 -1.2795,-2.9165 -2.3488,-5.2596 -2.3594,-5.2833z"/>
  <path class="fil1" d="M7.2384 89.661c0.0113,0.0022 0.0226,0.0033 0.0346,0.0033 0.0536,-0.0001 0.1055,-0.0247 0.139,-0.0681 0.089,-0.1144 8.8494,-11.5902 7.838,-25.4 -0.0045,-0.06 -0.0388,-0.1133 -0.0914,-0.1418 -0.0521,-0.029 -0.116,-0.0286 -0.1686,-0.0004 -0.1291,0.0698 -12.8446,7.2041 -7.8874,25.4801 0.0174,0.0645 0.0702,0.1136 0.1358,0.1269z"/>
  <path class="fil1" d="M3.8282 112.859c0.0018,0 0.0034,0.0001 0.0052,0.0001 0.0805,-0.0001 0.1506,-0.0543 0.1708,-0.133 0.0324,-0.1277 3.242,-12.8513 2.3579,-18.6789 -0.6741,-4.4408 -0.8167,-4.9473 -1.0749,-5.8674 -0.0839,-0.2971 -0.1799,-0.6396 -0.3108,-1.1733 -0.0193,-0.0773 -0.0871,-0.1319 -0.1665,-0.1344 -0.0768,0.0056 -0.1506,0.0487 -0.1739,0.1245 -0.0363,0.1188 -3.6287,12.0322 -0.9758,25.7196 0.0156,0.0815 0.0857,0.1408 0.168,0.1428z"/>
  <path class="fil1" d="M11.6231 85.5995c-0.03,0.0458 -2.9937,4.6341 -3.5546,8.5376 -1.881,13.0905 -1.9029,17.882 -1.9029,17.9286 0.0001,0.0821 0.0565,0.1531 0.1362,0.1718 0.0135,0.0031 0.0272,0.0045 0.0402,0.0045 0.0661,0 0.1277,-0.0367 0.1577,-0.0977 5.1732,-10.4222 5.4455,-26.2872 5.4476,-26.4463 0.0011,-0.0784 -0.0501,-0.1485 -0.1252,-0.1711 -0.0762,-0.0237 -0.1567,0.0067 -0.199,0.0726z"/>
  <path class="fil1" d="M28.0435 82.9064c0.3306,0 0.6869,-0.0328 1.0643,-0.067 0.3539,-0.0325 0.7197,-0.0663 1.1007,-0.0765 2.4084,-0.0674 2.7912,-2.2165 2.7972,-2.267 0.0001,-0.4269 0.0074,-0.8555 0.0144,-1.2844 0.0145,-0.8513 0.029,-1.7311 -0.0144,-2.593 -0.0207,-0.4 -0.0716,-0.7112 -0.1567,-0.9507 -0.245,-0.6905 -0.786,-0.7839 -1.2827,-0.7839 -0.3019,0 -0.6579,0.0381 -1.0699,0.0826l-0.3108 0.0331c-3.7863,0.3902 -4.3367,4.9241 -4.3431,4.9943 0.0685,2.4176 0.9289,2.9126 2.201,2.9125z"/>
  <path class="fil1" d="M30.9703 83.7983l-2.8103 0c-1.1388,0 -2.0652,0.8555 -2.0652,1.9071l0 3.2886c0,1.0516 0.9263,1.9075 2.0651,1.9075l2.8104 -0.0001c1.1384,0 2.0643,-0.8558 2.0643,-1.9074l0 -3.2886c0,-1.0517 -0.926,-1.9071 -2.0643,-1.9071z"/>
  <path class="fil1" d="M30.3288 99.7917l0.1814 -0.0017c1.2844,-0.0162 2.4979,-0.0321 2.4979,-1.6277l-0.0021 -3.8947c-0.0031,-0.0215 -0.3549,-2.1731 -2.5781,-2.2401 -0.3485,-0.0106 -0.684,-0.0441 -1.0079,-0.0765 -1.6876,-0.1684 -2.9351,-0.2008 -3.0137,2.8536 0.0021,0.1012 0.0599,2.4916 0.5235,3.4159 0.5009,0.9983 1.7399,1.5713 3.399,1.5712z"/>
  <path class="fil1" d="M24.5281 80.4853c-0.0815,-2.0316 0.5002,-3.7627 1.7279,-5.1456 0.9187,-1.0347 1.8757,-1.4756 1.8852,-1.4795 0.0766,-0.035 0.1179,-0.1189 0.0991,-0.2011 -0.019,-0.0812 -0.0832,-0.1404 -0.177,-0.1365 -3.8142,0.1198 -8.3094,-2.5136 -8.3535,-2.5397 -0.0539,-0.0314 -0.1206,-0.0324 -0.1756,-0.0021 -0.0547,0.0303 -0.0889,0.0878 -0.0904,0.1506 -0.0007,0.0321 -0.0571,3.2618 0.3955,8.526 0.4897,5.7015 0.569,14.2278 0.6114,18.8087 0.0155,1.6869 0.0271,2.9058 0.0518,3.3411 0.1641,2.908 1.6958,5.4212 4.4284,7.268 2.055,1.3877 4.028,1.9053 4.111,1.9268 0.0148,0.0035 0.0296,0.0053 0.0441,0.0053 0.0014,-0.0001 0.0028,0 0.0035,0 0.1038,-0.0011 0.1795,-0.0776 0.1795,-0.1764 0.0001,-0.0607 -0.0306,-0.1143 -0.0772,-0.146 -3.0744,-3.4417 -3.9698,-8.6438 -3.9765,-8.6727 -0.006,-0.1842 -0.5655,-18.4633 -0.6872,-21.5269z"/>
  <path class="fil1" d="M20.9678 154.401c-0.0232,-0.0875 -0.1107,-0.1449 -0.1989,-0.1284 -0.0896,0.0145 -0.1535,0.0946 -0.1475,0.1849 1.5089,24.2584 0.9451,34.3157 0.9398,34.4145 -0.0056,0.0885 0.0558,0.1672 0.1432,0.1838 0.0276,0.0049 2.8082,0.5578 5.3922,3.3563 0.494,0.5356 0.7172,0.7536 0.9398,0.7536 0.2992,0 0.3687,-0.3683 0.4096,-0.5884 0.6841,-3.6429 -4.1568,-25.9539 -4.6002,-27.5569 -1.2933,-4.6712 -2.8624,-10.5604 -2.878,-10.6194z"/>
  <path class="fil1" d="M29.5386 154.41c-0.0151,-0.0791 -0.0822,-0.1373 -0.162,-0.1425 -0.0846,-0.0085 -0.1534,0.0444 -0.1785,0.1206 -0.806,2.4317 -1.0692,3.1267 -1.7053,4.8069 -0.175,0.4625 -0.3785,1.0002 -0.6297,1.669 -0.1273,0.3397 -0.2388,0.6096 -0.3348,0.8428 -0.346,0.8368 -0.5038,1.2185 -0.514,2.6131 -0.0345,4.5762 0.6195,8.0091 1.3766,11.9835 0.6498,3.4127 1.3871,7.2813 1.755,12.5045 0.0061,0.0921 0.0829,0.1637 0.1757,0.1637 0.4346,0 0.4911,-0.865 0.6449,-6.2519 0.1069,-3.7501 0.2536,-8.8861 0.7059,-14.5687 0.6844,-8.5965 -0.4611,-11.7983 -0.9504,-13.1653 -0.0871,-0.2438 -0.1559,-0.4364 -0.1834,-0.5757z"/>
  <path class="fil1" d="M21.8654 109.02c-0.1087,-0.1506 -0.228,-0.2272 -0.3543,-0.2272 -0.0617,0 -0.1538,0.0194 -0.2441,0.1105 -0.9095,0.9161 -0.9155,10.6224 -0.8432,20.4858 0.0099,1.3817 0.0191,2.5809 0.0191,3.4833 0.0001,9.9215 0.3284,15.8506 1.0347,18.6591 0.0159,0.0638 0.0663,0.1132 0.1298,0.1284 0.0643,0.0169 0.1316,-0.0067 0.1746,-0.0557l0.0294 -0.0332c0.1947,-0.2223 1.3034,-1.4827 2.2284,-2.5601 0.8651,0.8089 2.3569,2.5192 3.5211,5.4995 0.0265,0.068 0.0921,0.1122 0.164,0.1122 0.0043,-0.0001 0.0085,0 0.0124,-0.0004 0.0766,-0.005 0.1415,-0.06 0.1594,-0.1348 0.0068,-0.0275 0.6615,-2.7806 0.9282,-6.5175 0.4947,-9.409 -3.2477,-24.1237 -5.4832,-32.9153 -0.6611,-2.5986 -1.1825,-4.651 -1.4464,-5.9661 -0.0049,-0.0245 -0.0152,-0.048 -0.0299,-0.0685z"/>
  <path class="fil1" d="M30.6968 113.668c-3.3941,-1.1529 -5.6981,-2.3622 -7.044,-3.6968 -0.0578,-0.0576 -0.1481,-0.0681 -0.2169,-0.0247 -0.0695,0.0433 -0.1002,0.1284 -0.0745,0.206 0.5768,1.7142 4.759,15.9788 6.3465,28.6579 0.011,0.0836 0.079,0.1482 0.1633,0.1538 0.0043,0.0004 0.0081,0.0004 0.012,0.0004 0.0795,0 0.1496,-0.0533 0.1704,-0.1309 1.2088,-4.5244 1.6496,-19.0246 0.761,-25.0243 -0.0094,-0.0656 -0.0551,-0.1199 -0.1178,-0.1414z"/>
  <path class="fil1" d="M11.7709 195.586c2.9144,-1.3004 8.8195,-2.5957 11.774,-4.7706 -3.8255,-2.7711 -11.0783,4.4601 -11.774,4.7706z"/>
  <path class="fil1" d="M24.8199 192.167c-0.6213,-0.3384 -9.4796,3.4889 -10.4473,3.7563 1.1177,0.0015 12.0693,-0.3323 13.7009,-0.3323 -0.2247,-0.9987 -2.0835,-2.7866 -3.2536,-3.424z"/>
  <path class="fil1" d="M34.9055 14.8195c-0.0058,0.0044 -0.0132,0.0093 -0.0174,0.0125 0.0057,-0.004 0.0088,-0.0064 0.0174,-0.0125zm0.0871 -0.0607c-0.0109,0.0079 -0.0202,0.0139 -0.0297,0.0206 0.0102,-0.0071 0.018,-0.012 0.0297,-0.0206zm0.1492 -0.0986c-0.0071,0.0045 -0.0152,0.0095 -0.0223,0.0141 0.0072,-0.0046 0.0148,-0.0095 0.0223,-0.0141zm0.2046 -0.1292c-0.02,0.0119 -0.0396,0.024 -0.0579,0.0357 0.0184,-0.0117 0.0377,-0.0233 0.0579,-0.0357zm0.2236 -0.1342c-0.0182,0.0108 -0.0342,0.0207 -0.0518,0.0309 0.0177,-0.0102 0.0335,-0.0201 0.0518,-0.0309zm0.3187 -0.178c-0.0216,0.0113 -0.0442,0.023 -0.0647,0.0346 0.0209,-0.0117 0.0431,-0.0233 0.0647,-0.0346zm0.3217 -0.1682c-0.0311,0.0154 -0.0615,0.031 -0.0918,0.0465 0.0305,-0.0156 0.0607,-0.031 0.0918,-0.0465zm3.6598 -1.0849c0.0478,-0.004 0.0961,-0.0073 0.1441,-0.0105 -0.0479,0.0032 -0.0963,0.0067 -0.1441,0.0105zm0.6652 -0.029c-0.0296,0 -0.059,0.0019 -0.0889,0.0023 0.0234,-0.0005 0.0462,-0.0029 0.0691,-0.0029 0.0069,0 0.0134,0.0008 0.0198,0.0006zm0.6044 0.029c-0.0367,-0.0032 -0.0739,-0.0077 -0.1113,-0.0105 0.0375,0.0028 0.0745,0.0074 0.1113,0.0105zm0.5511 0.0708c-0.0536,-0.0087 -0.1081,-0.0178 -0.1621,-0.0259 0.0543,0.0081 0.1079,0.0173 0.1621,0.0259zm0.5161 0.1084c-0.0524,-0.0133 -0.1053,-0.0242 -0.1575,-0.0362 0.0523,0.0118 0.1051,0.0229 0.1575,0.0362zm0.5082 0.1492c-0.021,-0.0077 -0.0427,-0.0126 -0.0642,-0.0196 0.0215,0.0069 0.043,0.012 0.0642,0.0196zm0.6443 0.2635c-0.0456,-0.0214 -0.0908,-0.0443 -0.1363,-0.0644 0.0456,0.02 0.0906,0.043 0.1363,0.0644zm0.896 0.5049c0.0512,0.0339 0.1026,0.0664 0.1534,0.1024 -0.0508,-0.0362 -0.1024,-0.0685 -0.1534,-0.1024zm4.5825 9.0021c0.022,0.027 0.037,0.0467 0.0483,0.0619 -0.0112,-0.0153 -0.0271,-0.0356 -0.0483,-0.0619zm-0.0772 -0.0905c0.028,0.0317 0.0528,0.0607 0.0723,0.085 -0.0193,-0.0245 -0.0449,-0.0536 -0.0723,-0.085zm0.1347 0.1643c0.0076,0.0103 0.012,0.0167 0.012,0.0167 0.0001,0 -0.0067,-0.0089 -0.012,-0.0167zm-0.2712 -0.3119c0.043,0.0438 0.0793,0.0837 0.1121,0.1201 -0.0328,-0.0364 -0.0692,-0.0766 -0.1121,-0.1201zm-0.1471 -0.1435c0.0459,0.0434 0.0884,0.0851 0.1272,0.1242 -0.0383,-0.0393 -0.0814,-0.0808 -0.1272,-0.1242zm-0.4453 -0.3705c0.0667,0.0498 0.1295,0.0989 0.188,0.1465 -0.0584,-0.0473 -0.1217,-0.0966 -0.188,-0.1465zm-0.3066 -0.2131c0.0897,0.0579 0.1736,0.1159 0.2519,0.173 -0.0782,-0.0571 -0.1623,-0.115 -0.2519,-0.173zm-0.3085 -0.1856c0.0885,0.0499 0.1727,0.1004 0.2524,0.1505 -0.0796,-0.0502 -0.164,-0.1006 -0.2524,-0.1505zm-0.3949 -0.2051c0.1155,0.0549 0.2251,0.1107 0.3291,0.1679 -0.1039,-0.0572 -0.2138,-0.1129 -0.3291,-0.1679zm-0.4025 -0.1737c0.1134,0.0449 0.2218,0.0911 0.3263,0.1391 -0.1044,-0.048 -0.2131,-0.0942 -0.3263,-0.1391zm-0.4808 -0.169c0.1425,0.0444 0.28,0.0915 0.4106,0.1412 -0.1306,-0.0498 -0.2681,-0.0966 -0.4106,-0.1412zm-0.5102 -0.1372c0.1423,0.0328 0.2784,0.0689 0.4103,0.108 -0.1318,-0.0389 -0.2681,-0.0751 -0.4103,-0.108zm-0.5647 -0.1083c0.1722,0.0264 0.3393,0.0569 0.4987,0.0922 -0.1594,-0.0355 -0.3266,-0.0656 -0.4987,-0.0922zm-0.6326 -0.0736c0.1764,0.0141 0.3461,0.0331 0.5112,0.0564 -0.165,-0.0233 -0.3348,-0.0423 -0.5112,-0.0564zm3.8249 1.441c0.0656,0.0546 0.1251,0.107 0.1802,0.1578 -0.055,-0.051 -0.1151,-0.1031 -0.1802,-0.1578zm-4.8764 -1.4617c0.0722,-0.0023 0.1434,-0.0037 0.2136,-0.0047 -0.07,0.001 -0.1414,0.0024 -0.2136,0.0047zm-0.4699 0.027c0.0752,-0.0063 0.1487,-0.0102 0.2225,-0.0148 -0.0737,0.0045 -0.1475,0.0088 -0.2225,0.0148zm-0.4916 0.0496c0.0778,-0.0095 0.1538,-0.0168 0.2297,-0.0249 -0.0757,0.0077 -0.1521,0.0155 -0.2297,0.0249zm-0.5127 0.0744c0.0793,-0.0129 0.1568,-0.0238 0.2347,-0.0354 -0.0778,0.0114 -0.1555,0.0225 -0.2347,0.0354zm-0.5356 0.1011c0.08,-0.0171 0.1568,-0.0307 0.2355,-0.0455 -0.0786,0.0147 -0.1555,0.0286 -0.2355,0.0455zm-0.5584 0.1283c0.0776,-0.0198 0.1526,-0.0359 0.2288,-0.0535 -0.0762,0.0176 -0.1514,0.0338 -0.2288,0.0535zm-0.5807 0.158c0.0669,-0.0193 0.1314,-0.0355 0.1974,-0.0542 -0.0658,0.0187 -0.1305,0.0349 -0.1974,0.0542zm4.1508 -0.5225c-0.1895,-0.0133 -0.3879,-0.0196 -0.5914,-0.021 0.2036,0.0014 0.4018,0.0078 0.5914,0.021zm-0.6499 -7.2971c0.0565,0.0303 0.1121,0.0625 0.1678,0.095 -0.0555,-0.0325 -0.1118,-0.0646 -0.1678,-0.095zm-4.3643 -0.7229c0.0298,-0.0042 0.0593,-0.0069 0.0889,-0.0112 -0.0295,0.0042 -0.0593,0.0071 -0.0889,0.0112zm-0.5957 0.1095c0.0377,-0.0081 0.075,-0.0169 0.1128,-0.0247 -0.0378,0.0076 -0.0752,0.0166 -0.1128,0.0247zm-0.4937 0.1199c0.0425,-0.0114 0.0858,-0.0225 0.1288,-0.0335 -0.0429,0.0108 -0.0864,0.0222 -0.1288,0.0335zm-0.4401 0.1293c0.0087,-0.0027 0.0179,-0.0051 0.0267,-0.0076 -0.0087,0.0025 -0.018,0.005 -0.0267,0.0076zm-0.531 0.1874c0.0363,-0.0137 0.0723,-0.0274 0.1086,-0.0408 -0.0362,0.0134 -0.0723,0.0272 -0.1086,0.0408zm-0.4033 0.1613c0.033,-0.0137 0.066,-0.0271 0.0995,-0.0409 -0.0332,0.0137 -0.0667,0.0272 -0.0995,0.0409zm-0.396 0.1768c0.0123,-0.0058 0.0238,-0.0113 0.0362,-0.0173 -0.0122,0.006 -0.024,0.0116 -0.0362,0.0173zm-1.7032 18.8087l1.7812 0.3217c0.0204,0.0037 0.0414,0.0053 0.0623,0.0053 0.0897,0 0.1763,-0.0339 0.2427,-0.0966 0.0815,-0.0778 0.1213,-0.1891 0.1072,-0.301 -0.0118,-0.0921 -1.1338,-9.2621 2.74,-10.5558 1.4253,-0.476 2.7662,-0.7172 3.9847,-0.7172 3.4632,-0.0001 4.8386,1.904 4.8954,1.9851 0.0672,0.0954 0.1761,0.1507 0.2897,0.1507 0.0289,-0.0001 0.0578,-0.0036 0.0868,-0.011 0.1429,-0.0367 0.2476,-0.1566 0.2638,-0.3027 0.0228,-0.2051 0.4981,-5.0623 -4.1278,-8.9224 -1.3422,-1.1199 -2.8946,-1.6877 -4.6147,-1.6877 -3.1566,-0.0001 -5.7503,1.8997 -5.8589,1.9808 -0.0896,0.0662 -0.1429,0.1715 -0.1429,0.2829l0.0002 17.5202c0,0.1709 0.1222,0.3174 0.2903,0.3477z"/>
  <path class="fil1" d="M43.7211 29.4598c-1.3839,0 -2.5102,-0.6896 -2.5102,-1.5373 0.0001,-0.8481 1.1261,-1.5381 2.51,-1.5381 1.3841,-0.0002 2.5097,0.69 2.5097,1.5381 0.0001,0.8476 -1.1257,1.5374 -2.5095,1.5373zm-0.034 3.4058c3.4745,0 5.3883,-1.7554 5.3883,-4.9431 0.0001,-3.373 -1.712,-4.9438 -5.3883,-4.9438 -3.5248,0 -5.3884,1.7095 -5.3884,4.9438 0.0001,3.1415 1.964,4.9431 5.3884,4.9431z"/>
  <path class="fil1" d="M39.2457 33.3687c-0.0153,-0.005 -0.0262,-0.0085 -0.0262,-0.0085 0,-0.0001 0.0116,0.0039 0.0262,0.0085zm0.6515 0.1956c-0.1584,-0.044 -0.2921,-0.0831 -0.3979,-0.1155 0.1058,0.0324 0.2402,0.0716 0.3979,0.1155zm-0.4306 -0.1258c-0.1028,-0.0312 -0.1752,-0.0546 -0.2129,-0.067 0.0386,0.0126 0.1122,0.0367 0.2129,0.067zm7.6726 0.4677c-0.1965,0.0661 -0.3992,0.1215 -0.6059,0.168 0.2068,-0.0465 0.4092,-0.1019 0.6059,-0.168zm-1.2411 0.2816c0.2129,-0.0294 0.4235,-0.0659 0.6295,-0.1121 -0.2058,0.046 -0.4166,0.0829 -0.6295,0.1121zm-0.657 0.0639c0.2185,-0.0135 0.4353,-0.0342 0.6491,-0.0628 -0.2137,0.0285 -0.4308,0.0494 -0.6491,0.0628zm-0.6646 0.02c0.2205,0 0.4409,-0.0063 0.66,-0.0197 -0.219,0.0134 -0.4396,0.0198 -0.66,0.0197zm-1.4513 -0.0803c0.2934,0.0305 0.5929,0.0539 0.8956,0.0673 -0.3025,-0.0134 -0.6022,-0.0366 -0.8956,-0.0673zm-0.944 -0.1256c0.2758,0.044 0.5633,0.0836 0.8568,0.116 -0.2938,-0.0325 -0.5807,-0.0716 -0.8568,-0.116zm-0.8662 -0.1586c0.2489,0.0508 0.5126,0.1007 0.7874,0.1459 -0.275,-0.0457 -0.5387,-0.0949 -0.7874,-0.1459zm-0.7562 -0.1699c0.2115,0.0514 0.4422,0.1041 0.6888,0.156 -0.2465,-0.052 -0.4773,-0.1045 -0.6888,-0.156zm-0.6154 -0.1599c0.1633,0.0453 0.3507,0.0947 0.5581,0.1458 -0.2074,-0.0511 -0.3944,-0.1005 -0.5581,-0.1458zm4.172 0.6848c0.1524,0.0056 0.3047,0.0096 0.4575,0.0096 -0.1527,-0.0001 -0.3052,-0.0039 -0.4575,-0.0096zm-1.6411 5.5306c0.0043,0.1785 0.141,0.3259 0.3192,0.3429 0.0114,0.001 0.0226,0.0014 0.0335,0.0014 0.1648,0 0.3094,-0.1143 0.3443,-0.278 0.5635,-2.612 3.9899,-5.5115 4.184,-5.6737 0.0833,-0.0647 0.1372,-0.1655 0.1372,-0.2791 0.0001,-0.1924 -0.1528,-0.3489 -0.344,-0.3528 -0.0034,-0.0001 -0.0063,0 -0.0095,0 -0.0143,-0.0001 -0.0296,0.0011 -0.0441,0.0025 -0.0264,0.0035 -0.0518,0.0095 -0.0758,0.0184 -0.6844,0.2288 -1.5071,0.3446 -2.4451,0.3446 -2.591,-0.0001 -5.2141,-0.8837 -5.2402,-0.8925 -0.0381,-0.0131 -0.0762,-0.0191 -0.1143,-0.0191 -0.1298,-0.0001 -0.2533,0.072 -0.3147,0.1937 -0.0796,0.1568 -0.0307,0.3486 0.1136,0.4488 3.3229,2.3064 3.4544,6.1048 3.4559,6.1429z"/>
  <path class="fil1" d="M37.0395 44.1664c-0.0375,-0.0532 -0.1021,-0.0821 -0.1649,-0.0743 -1.3863,0.1569 -2.708,0.2367 -3.9289,0.2367 -1.6556,0 -2.5432,-0.1499 -2.552,-0.1514 -0.067,-0.0137 -0.1323,0.0152 -0.1722,0.0688 -0.0394,0.0536 -0.0455,0.1249 -0.0155,0.1845l3.2654 6.4537c0.0303,0.0593 0.091,0.0967 0.158,0.0967l0.0005 0c0.0663,0 0.1272,-0.0377 0.1572,-0.0973l3.2653 -6.5378c0.0289,-0.0578 0.0236,-0.1269 -0.0129,-0.1796z"/>
  <path class="fil1" d="M45.0125 57.2143l-0.1923 -0.1076c-2.0425,-1.1427 -4.5851,-2.5646 -6.9667,-2.5646 -0.2235,-0.0001 -0.4448,0.0127 -0.6572,0.0377 -2.8722,0.3372 -2.8723,2.7238 -2.8719,4.0273l0.0014 10.4789c0.0036,0.0247 0.3584,2.4589 2.5939,2.4589 5.3014,0 12.3698,-0.7916 12.549,-7.6518 -0.1527,-2.8257 -1.6933,-5.135 -4.4562,-6.6788z"/>
  <path class="fil1" d="M33.0122 103.015c-0.003,-0.0219 -0.2891,-2.1773 -2.1225,-2.2454 -0.3125,-0.0114 -0.6498,-0.0649 -0.9758,-0.1164 -0.3757,-0.0593 -0.7309,-0.1154 -1.0622,-0.1154 -0.5023,0 -0.8463,0.133 -1.0813,0.4184 -0.3781,0.4596 -0.4332,1.2922 -0.1763,2.6011 0.0158,0.1869 0.4138,4.5801 3.2653,4.9745l0.2325 0.0331c0.3092,0.0444 0.576,0.0833 0.8057,0.0833l0.0002 0c0.554,0 0.8528,-0.2388 1.0003,-0.7973 0.0621,-0.2364 0.1001,-0.544 0.115,-0.9398 0.0324,-0.86 0.0215,-1.7395 0.0106,-2.5897 -0.0052,-0.4293 -0.0103,-0.8576 -0.0115,-1.3064z"/>
  <path class="fil1" d="M38.1989 44.8939c-0.0799,-0.0138 -0.1559,0.0286 -0.1887,0.1006 -0.0109,0.0235 -1.0802,2.3668 -2.3598,5.2832 -1.29,2.9411 -1.4541,4.4404 -1.4608,4.5028 -0.009,0.092 0.055,0.1757 0.1468,0.1912 0.0095,0.001 0.019,0.0022 0.0289,0.0022 0.0804,-0.0001 0.1527,-0.0558 0.1721,-0.1366 0.0022,-0.0088 0.2332,-0.9165 2.176,-3.2272 2.0424,-2.4289 1.6503,-6.393 1.6323,-6.5606 -0.0084,-0.079 -0.0685,-0.1429 -0.1468,-0.1556z"/>
  <path class="fil1" d="M28.8782 51.808c-0.2766,-0.3806 -0.5627,-0.7747 -0.8294,-1.1126 -0.3358,-0.4258 -0.8305,-0.6326 -1.5124,-0.6326 -1.1458,0 -2.6596,0.5934 -4.2619,1.2214 -0.5824,0.2285 -1.1843,0.4646 -1.7723,0.6723 -0.0836,0.0297 -0.1316,0.1161 -0.114,0.2025 0.018,0.0864 0.0974,0.1454 0.1856,0.1397 0.2512,-0.0184 0.5232,-0.0278 0.8092,-0.0278 1.7297,-0.0001 3.827,0.3351 5.8551,0.6597 0.8337,0.1329 1.621,0.2593 2.389,0.364 0.0078,0.001 0.0162,0.0018 0.0237,0.0018 0.0014,-0.0001 0.0028,0 0.0038,0 0.0943,0.0031 0.18,-0.078 0.18,-0.1764 0,-0.0593 -0.0293,-0.1118 -0.0741,-0.1439 -0.248,-0.2953 -0.5564,-0.7197 -0.8823,-1.1681z"/>
  <path class="fil1" d="M6.371 114.389c-0.2589,-0.0286 -0.5155,-0.043 -0.7613,-0.043 -1.6214,-0.0001 -2.6642,0.6036 -2.8611,1.6563 -0.666,3.5616 0.701,5.2984 1.3575,6.133l0.0731 0.0932c0.0342,0.0436 0.0857,0.0677 0.1393,0.0677 0.0173,-0.0001 0.0349,-0.0025 0.0522,-0.0078 0.0703,-0.0222 0.1196,-0.085 0.1238,-0.1583 0.1535,-2.6625 1.204,-3.3211 2.1308,-3.9021 0.1041,-0.0653 0.206,-0.1291 0.3041,-0.1944 0.714,-0.4742 1.3554,-0.659 2.286,-0.659 0.2734,0 0.58,0.0152 0.9648,0.0473 0.0583,0.0038 0.114,-0.0191 0.151,-0.0635 0.0368,-0.0445 0.0491,-0.1044 0.0336,-0.1602 -0.4371,-1.554 -1.8931,-2.5777 -3.9938,-2.8092z"/>
  <path class="fil1" d="M6.5791 125.876c-0.302,-0.8255 -0.8746,-2.039 -1.4937,-2.7421 -0.0475,-0.0543 -0.1242,-0.0741 -0.1919,-0.0494 -0.0684,0.0246 -0.1147,0.0886 -0.1168,0.1609 -0.0355,1.2026 0.1867,3.5235 2.073,5.5541 0.0342,0.0363 0.0815,0.0561 0.1298,0.0561 0.019,0 0.0391,-0.0035 0.0586,-0.0099 0.066,-0.0237 0.1121,-0.0843 0.1171,-0.1541 0.073,-1.0436 -0.1944,-1.7738 -0.5331,-2.6984l-0.043 -0.1172z"/>
  <path class="fil1" d="M12.0796 120.803c0.042,-0.7903 -0.1531,-1.875 -0.6816,-2.3883 -0.0702,-0.0682 -0.1813,-0.066 -0.2494,0.0035 -0.0359,0.0374 -0.0522,0.0857 -0.0497,0.1337 -0.006,0.0278 -0.0198,0.072 -0.0371,0.132 -0.115,0.3933 -0.3834,1.3144 -0.3834,2.6719 0,0.5172 0.1905,1.1624 0.5831,1.972 0.0297,0.0617 0.0921,0.0995 0.1588,0.0995 0.0109,-0.0001 0.0218,-0.001 0.0328,-0.0028 0.0787,-0.0148 0.1372,-0.0805 0.1432,-0.1602 0.029,-0.3789 0.127,-0.7496 0.2307,-1.1426 0.1119,-0.4238 0.2275,-0.8615 0.2526,-1.3187z"/>
  <path class="fil1" d="M42.4534 53.8195c-0.0781,0.0177 -0.2879,0.0646 -0.3041,0.2481 -0.0203,0.2293 0.2276,0.3333 1.0495,0.6784 1.5863,0.666 4.8867,2.051 6.4291,4.9286 1.1131,2.075 2.7336,3.2558 4.6108,4.6228l0.405 0.2953c0.6911,0.5055 3.4713,1.7434 3.5891,1.796 0.0212,0.0091 0.0438,0.0141 0.066,0.0148 0.0042,0.0003 0.0084,0.0004 0.0127,0.0004 0.0977,-0.0001 0.1764,-0.0791 0.1764,-0.1764 0.0001,-0.0322 -0.0085,-0.0621 -0.0233,-0.0879 -0.1897,-0.7627 -2.3382,-9.1397 -5.6826,-11.5693 -1.1707,-0.8506 -2.9869,-1.282 -5.3985,-1.282 -1.8793,-0.0001 -3.779,0.2744 -4.9301,0.5312z"/>
  <path class="fil1" d="M52.0687 64.0539c-0.0522,-0.0281 -0.1157,-0.0285 -0.1683,0.0005 -0.0527,0.0285 -0.0871,0.0818 -0.0913,0.1418 -1.0114,13.8098 7.7491,25.2857 7.8376,25.4 0.0337,0.0434 0.0854,0.0681 0.1394,0.0681 0.0114,-0.0001 0.0233,-0.0011 0.0349,-0.0032 0.0654,-0.0135 0.1178,-0.0625 0.1355,-0.127 4.9577,-18.2761 -7.7587,-25.4102 -7.8878,-25.4802z"/>
  <path class="fil1" d="M63.055 112.726c0.0195,0.0787 0.0906,0.133 0.1707,0.133 0.0018,-0.0001 0.0035,0 0.0053,0 0.0826,-0.0021 0.152,-0.0614 0.1679,-0.1429 2.6529,-13.6875 -0.9398,-25.6007 -0.9761,-25.7196 -0.0236,-0.0759 -0.0918,-0.1203 -0.1736,-0.1245 -0.0792,0.0024 -0.1475,0.0571 -0.1662,0.1344 -0.1307,0.5337 -0.2275,0.8763 -0.3108,1.1733 -0.2588,0.92 -0.4018,1.4267 -1.0756,5.8674 -0.884,5.8275 2.3255,18.5512 2.3584,18.6789z"/>
  <path class="fil1" d="M55.436 85.5995c-0.0426,-0.066 -0.1239,-0.0962 -0.199,-0.0726 -0.075,0.0225 -0.1263,0.0928 -0.1252,0.1711 0.0026,0.1591 0.2741,16.0242 5.4472,26.4463 0.03,0.061 0.0921,0.0977 0.1581,0.0977 0.0134,0 0.0268,-0.0014 0.0402,-0.0045 0.0802,-0.0188 0.1362,-0.0897 0.1362,-0.1718 0,-0.0466 -0.0219,-4.838 -1.9029,-17.9286 -0.5609,-3.9035 -3.5246,-8.4917 -3.5546,-8.5376z"/>
  <path class="fil1" d="M34.0391 79.2114c0.0069,0.429 0.0143,0.8577 0.0168,1.3131 0.0032,0.0219 0.3856,2.171 2.7943,2.2384 0.3816,0.0101 0.7472,0.0441 1.1014,0.0765 0.3773,0.0342 0.7338,0.0671 1.0636,0.0671l0.0005 -0.0001c1.2718,0 2.1328,-0.4952 2.1998,-2.9368 -0.0053,-0.0459 -0.556,-4.5798 -4.3423,-4.97l-0.31 -0.0332c-0.4127,-0.0444 -0.7688,-0.0825 -1.0704,-0.0825 -0.4966,0 -1.0376,0.0935 -1.2827,0.7839 -0.0847,0.2395 -0.1362,0.5507 -0.1563,0.9507 -0.0441,0.8618 -0.029,1.7417 -0.0147,2.5929z"/>
  <path class="fil1" d="M36.089 90.9014l2.8102 0c1.1389,0 2.0651,-0.8558 2.0651,-1.9074l0.0001 -3.2886c0,-1.0517 -0.9265,-1.9071 -2.0652,-1.9071l-2.8102 0c-1.1385,0 -2.0649,0.8555 -2.0649,1.9071l0.0001 3.2886c0,1.0516 0.9263,1.9075 2.0648,1.9074z"/>
  <path class="fil1" d="M38.6184 91.8835c-0.3044,0 -0.6322,0.0329 -0.979,0.0675 -0.3245,0.0324 -0.6593,0.0659 -1.0082,0.0765 -2.2232,0.067 -2.5746,2.2186 -2.5803,2.2666l0.0001 3.8682c0,1.5956 1.2132,1.6115 2.4976,1.6277l0.1817 0.0017c1.6591,0 2.8981,-0.5728 3.399,-1.5712 0.464,-0.9243 0.5211,-3.3147 0.5235,-3.4244 -0.0623,-2.4173 -0.8583,-2.9125 -2.0344,-2.9126z"/>
  <path class="fil1" d="M47.6154 71.1314c-0.0012,-0.0628 -0.0354,-0.1203 -0.0908,-0.1506 -0.055,-0.0304 -0.1214,-0.0296 -0.1757,0.0021 -0.0441,0.0261 -4.5318,2.648 -8.3527,2.5397 -0.0974,-0.0065 -0.1588,0.055 -0.1771,0.1365 -0.0193,0.0822 0.0222,0.1661 0.0988,0.2011 0.0095,0.0038 0.9666,0.4448 1.8852,1.4795 1.2277,1.3829 1.809,3.114 1.7283,5.1456 -0.1224,3.0635 -0.6823,21.3427 -0.6851,21.5036 -0.0088,0.0522 -0.9074,5.2807 -4.0044,8.7242 -0.0513,0.0575 -0.06,0.1429 -0.0198,0.2092 0.033,0.0536 0.0904,0.085 0.151,0.085 0.0149,-0.0001 0.0293,-0.0017 0.0438,-0.0053 0.0834,-0.0216 2.0567,-0.539 4.1105,-1.9268 2.7339,-1.8469 4.2648,-4.36 4.4292,-7.268 0.0247,-0.4353 0.036,-1.6541 0.0518,-3.3411 0.0424,-4.5809 0.121,-13.1071 0.6114,-18.8087 0.4524,-5.2643 0.3958,-8.4939 0.3956,-8.526z"/>
  <path class="fil1" d="M39.0227 193.165c0.2222,0 0.4455,-0.218 0.9398,-0.7536 2.5842,-2.7986 5.3643,-3.3513 5.3922,-3.3563 0.0872,-0.0166 0.1488,-0.0952 0.1435,-0.1838 -0.0059,-0.0988 -0.5697,-10.1561 0.9398,-34.4145 0.0058,-0.0903 -0.0585,-0.1704 -0.1481,-0.1849 -0.0874,-0.0162 -0.175,0.041 -0.1983,0.1285 -0.0159,0.0588 -1.5854,5.9481 -2.8779,10.6193 -0.4437,1.603 -5.285,23.9141 -4.6006,27.5569 0.0413,0.2201 0.11,0.588 0.4092,0.5884 0.0002,0 0,0 0.0004,0z"/>
  <path class="fil1" d="M41.0449 164.319c-0.0107,-1.3945 -0.1681,-1.7762 -0.5138,-2.613 -0.0962,-0.2332 -0.2081,-0.503 -0.3355,-0.8428 -0.2506,-0.6688 -0.454,-1.2065 -0.6293,-1.669 -0.6357,-1.6803 -0.8992,-2.3752 -1.7054,-4.8069 -0.0253,-0.0762 -0.0984,-0.1291 -0.1788,-0.1206 -0.0801,0.0052 -0.1464,0.0635 -0.1619,0.1425 -0.0271,0.1393 -0.0963,0.3319 -0.1835,0.5757 -0.4889,1.367 -1.6344,4.5688 -0.95,13.1653 0.4528,5.6825 0.599,10.8187 0.7062,14.5687 0.1539,5.3869 0.21,6.2519 0.6446,6.2519 0.0928,0 0.1697,-0.0716 0.176,-0.1637 0.368,-5.2232 1.1046,-9.0918 1.7551,-12.5045 0.7568,-3.9745 1.4107,-7.4073 1.3763,-11.9836z"/>
  <path class="fil1" d="M45.5481 108.793c-0.1264,0 -0.2457,0.0766 -0.3543,0.2272 -0.0148,0.0204 -0.0247,0.0441 -0.03,0.0685 -0.2634,1.3151 -0.786,3.3676 -1.4467,5.9661 -2.2358,8.7915 -5.9779,23.5063 -5.4829,32.9184 0.2664,3.7338 0.9218,6.4869 0.9278,6.5144 0.0184,0.0748 0.0829,0.1299 0.1598,0.1348 0.0043,0.0003 0.0081,0.0004 0.012,0.0004 0.0724,-0.0001 0.1376,-0.0441 0.1644,-0.1122 1.1643,-2.9804 2.6557,-4.6906 3.5211,-5.4995 0.925,1.0774 2.033,2.3379 2.2285,2.5601l0.0294 0.0332c0.0431,0.049 0.1103,0.0719 0.1741,0.0557 0.0642,-0.0152 0.1143,-0.0645 0.1302,-0.1284 0.7056,-2.8085 1.0347,-8.7376 1.0347,-18.6591 0.0001,-0.9024 0.0088,-2.1015 0.019,-3.4833 0.0724,-9.8634 0.0667,-19.5697 -0.8435,-20.4858 -0.0898,-0.0911 -0.182,-0.1105 -0.2436,-0.1105z"/>
  <path class="fil1" d="M37.1756 138.965c0.0042,0 0.0084,0 0.0126,-0.0004 0.084,-0.0057 0.1521,-0.0702 0.1623,-0.1538 1.5876,-12.6792 5.7707,-26.9437 6.3468,-28.6579 0.0261,-0.0776 -0.0046,-0.1626 -0.0737,-0.206 -0.069,-0.0431 -0.1595,-0.0328 -0.2177,0.0247 -1.3454,1.3345 -3.6491,2.5439 -7.0436,3.6968 -0.0626,0.0214 -0.1083,0.0758 -0.1178,0.1414 -0.8886,5.9997 -0.4476,20.5 0.761,25.0243 0.0209,0.0776 0.091,0.1309 0.1701,0.1309z"/>
  <path class="fil1" d="M43.5143 190.815c2.9545,2.1748 8.8596,3.4703 11.7739,4.7706 -0.6959,-0.3105 -7.9485,-7.5417 -11.7739,-4.7706z"/>
  <path class="fil1" d="M42.2393 192.167c-1.1705,0.6374 -3.029,2.4253 -3.2537,3.424 1.6317,0 12.5836,0.3338 13.7008,0.3323 -0.9675,-0.2674 -9.8259,-4.0946 -10.4471,-3.7563z"/>
  <path class="fil1" d="M36.2001 108.532c2.8511,-0.3944 3.2494,-4.7875 3.2621,-4.955 0.2602,-1.3283 0.205,-2.1608 -0.1732,-2.6205 -0.2352,-0.2854 -0.5789,-0.4184 -1.082,-0.4184 -0.3311,0 -0.6861,0.0561 -1.0625,0.1154 -0.3255,0.0514 -0.6626,0.1051 -0.9755,0.1164 -1.8328,0.068 -2.1191,2.2236 -2.123,2.267 0,0.4271 -0.0053,0.8555 -0.0109,1.2848 -0.0101,0.8501 -0.0215,1.7297 0.0109,2.5897 0.0153,0.3958 0.0526,0.7035 0.115,0.9398 0.1472,0.5588 0.4466,0.7973 1.0005,0.7973 0.2298,0 0.4964,-0.0388 0.8057,-0.0833l0.2329 -0.0332z"/>
  <path class="fil1" d="M39.0104 50.6953c-0.2671,0.338 -0.5533,0.7321 -0.8295,1.1127 -0.3368,0.4632 -0.6547,0.901 -0.907,1.1974 -0.0475,0.056 -0.0557,0.1347 -0.0204,0.1993 0.031,0.0567 0.0906,0.0917 0.1545,0.0917 0.0081,-0.0001 0.0155,-0.0007 0.024,-0.0018 0.7683,-0.1048 1.555,-0.231 2.3886,-0.364 2.0286,-0.3246 4.1261,-0.6597 5.8554,-0.6597 0.2862,-0.0001 0.5581,0.0095 0.809,0.0278 0.0061,0.0004 0.0116,0.0004 0.0165,0.0004 0.0957,0.0151 0.18,-0.0773 0.18,-0.1764 0.0001,-0.0868 -0.0628,-0.1591 -0.1454,-0.1736 -0.5816,-0.206 -1.1762,-0.4392 -1.7515,-0.6649 -1.6023,-0.6281 -3.1158,-1.2214 -4.2619,-1.2214 -0.6819,0 -1.1766,0.2068 -1.5123,0.6325z"/>
  <path class="fil1" d="M64.3105 116.002c-0.1968,-1.0527 -1.2397,-1.6563 -2.8611,-1.6563 -0.2462,-0.0001 -0.5023,0.0145 -0.7616,0.043 -2.1008,0.2314 -3.5564,1.2552 -3.9938,2.8092 -0.0154,0.0557 -0.0025,0.1157 0.0339,0.1602 0.0371,0.0444 0.0931,0.0673 0.1509,0.0635 0.3846,-0.0321 0.6911,-0.0473 0.9645,-0.0473 0.931,0 1.5717,0.1849 2.2864,0.659 0.0978,0.0652 0.2,0.1291 0.3044,0.1944 0.9269,0.581 1.977,1.2396 2.1305,3.9021 0.0043,0.0733 0.0532,0.1361 0.1234,0.1583 0.0174,0.0053 0.035,0.0078 0.0526,0.0078 0.0533,-0.0001 0.1051,-0.024 0.139,-0.0677l0.0734 -0.0932c0.6569,-0.8347 2.0235,-2.5714 1.3575,-6.133z"/>
  <path class="fil1" d="M62.1656 123.085c-0.068,-0.0247 -0.144,-0.0049 -0.1923,0.0494 -0.6191,0.7031 -1.1913,1.9167 -1.4936,2.7422l-0.0427 0.117c-0.3387,0.9246 -0.6065,1.6549 -0.5334,2.6985 0.0054,0.0697 0.0511,0.1305 0.1174,0.1541 0.0196,0.0063 0.0388,0.0099 0.059,0.0099 0.0481,0 0.0952,-0.0197 0.1287,-0.0561 1.8875,-2.0306 2.1093,-4.3515 2.0733,-5.5541 -0.0021,-0.0724 -0.048,-0.1362 -0.1164,-0.1609z"/>
  <path class="fil1" d="M55.9599 118.552c0.0032,-0.048 -0.0134,-0.0963 -0.0494,-0.1337 -0.0681,-0.0695 -0.1796,-0.0716 -0.2491,-0.0035 -0.5288,0.5133 -0.7242,1.5981 -0.6816,2.3883 0.0244,0.4572 0.1404,0.895 0.2523,1.3187 0.1041,0.3929 0.2018,0.7637 0.2307,1.1426 0.0064,0.0797 0.0649,0.1454 0.1432,0.1602 0.011,0.0017 0.0219,0.0028 0.0325,0.0028 0.067,-0.0001 0.1291,-0.0377 0.1591,-0.0995 0.3923,-0.8096 0.5831,-1.4548 0.5831,-1.972 0.0001,-1.3576 -0.2688,-2.2786 -0.3831,-2.6719 -0.0175,-0.06 -0.0311,-0.1041 -0.0377,-0.132z"/>
 </g>
</svg>
