<?xml version="1.0" encoding="UTF-8"?>
<!DOCTYPE svg PUBLIC "-//W3C//DTD SVG 1.1//EN" "http://www.w3.org/Graphics/SVG/1.1/DTD/svg11.dtd">
<!-- Creator: CorelDRAW -->
<svg xmlns="http://www.w3.org/2000/svg" xml:space="preserve" width="67mm" height="197mm" style="shape-rendering:geometricPrecision; text-rendering:geometricPrecision; image-rendering:optimizeQuality; fill-rule:evenodd; clip-rule:evenodd"
viewBox="0 0 67 197"
 xmlns:xlink="http://www.w3.org/1999/xlink">
 <defs>
  <style type="text/css">
   <![CDATA[
    .fil0 {fill:#B55555}
    .fil1 {fill:white}
   ]]>
  </style>
 </defs>
 <g id="Layer_x0020_1">
  <metadata id="CorelCorpID_0Corel-Layer"/>
  <path class="fil0" d="M63.5836 87.3607c-3.5236,-23.3292 -5.925,-28.29 -7.0708,-29.7773 -1.271,-2.0941 -3.3168,-4.614 -9.5158,-6.2837 0,0 -7.7879,-3.0314 -8.1125,-3.0536l0.0001 -4.2225c3.5972,-1.1733 8.7901,-4.3486 10.0491,-9.2579 2.5281,-0.1983 4.7301,-2.1325 5.2345,-4.8365 0.5589,-2.9965 -1.1652,-5.8696 -3.9123,-6.7039 0.4774,-3.8803 0.5401,-9.7934 0.3733,-11.056 0,-0.0002 2.1456,-5.0508 1.1666,-8.7193 -0.4031,0.8134 -1.9099,2.0207 -2.7471,1.7561 0.966,-0.9935 1.5427,-4.1299 0.6657,-4.8034 -0.866,2.1801 -7.2376,2.0888 -10.3755,1.7576 -7.4781,-0.7907 -13.1219,-0.1429 -17.4879,3.3199 -4.2961,3.4074 -5.8212,6.9847 -5.6589,14.7232 0.0127,0.5976 0.0762,1.8362 0.1876,3.12 -2.5833,0.9379 -4.1761,3.7119 -3.6364,6.6058 0.5024,2.6964 2.6942,4.6273 5.213,4.8348 1.197,5.0379 6.2647,8.2515 10.0693,9.3482l0.0001 4.1339c-0.3242,0.0222 -8.1129,3.0536 -8.1129,3.0536 -6.1986,1.6697 -8.2451,4.1896 -9.5158,6.2837 -1.1451,1.4873 -3.5461,6.4481 -7.07,29.7773 -2.3192,15.3584 -2.9496,26.616 -2.8392,26.6897 0.0071,2.1325 0.181,6.9804 1.5342,10.0941 0.6238,1.4346 1.4471,2.8264 2.298,3.8939 0.029,0.2233 1.2845,1.3635 1.2732,1.3208 1.0869,0.8721 2.0758,0.9536 2.5887,-0.3866 0.381,-0.998 -0.9476,-7.2672 0.3302,-8.4307 0.3624,-0.3253 0.7041,-0.5397 1.0089,-0.5514 0.3969,-0.0162 0.3655,3.7712 0.4622,4.1526 0.3274,1.2915 2.383,0.9994 2.4246,-0.428l0.1708 -5.8551c0.0374,-0.8847 -0.0381,-2.1557 -0.7313,-2.8218 -0.7179,-0.6882 -1.7618,-0.5224 -1.929,-1.7889 -0.2476,-1.8853 0.5221,-9.749 0.8205,-11.7715 1.813,-12.3257 5.4921,-33.3947 5.4921,-33.3947l1.6379 4.1941c0,0 0.8784,10.6342 1.0619,24.3513 0.0643,4.7935 0.6191,92.3241 0.6191,92.3241 -0.2261,0.073 -0.4611,0.1936 -0.7211,0.3686 0.0001,0 -8.0761,5.6416 -8.8297,6.3941 -1.3486,1.3487 1.1162,1.4224 2.5358,1.3825l14.664 -0.1619c1.7293,-0.0402 3.3175,-0.2585 3.5295,-0.4864 0,-0.0001 0.2579,-0.0131 0.3217,-1.2055 0,0 1.1236,-79.6756 1.1511,-80.6753l2.5083 -0.0001c0.0279,0.9998 1.1507,80.6754 1.1507,80.6754 0.0643,1.1924 0.3221,1.2055 0.3221,1.2055 0.2121,0.2279 1.8006,0.4462 3.5296,0.4864l14.664 0.1619c1.4191,0.0399 3.8836,-0.0338 2.5353,-1.3825 -0.7539,-0.7525 -8.8297,-6.3941 -8.8297,-6.3941 -0.2599,-0.175 -0.4949,-0.2956 -0.7207,-0.3686 0,-0.0001 0.5482,-87.6029 0.6036,-92.3241 0.1786,-15.1568 1.076,-24.3512 1.076,-24.3512l1.6394 -4.1942c0,0 3.6787,21.069 5.492,33.3947 0.2978,2.0224 1.0682,9.8862 0.8205,11.7715 -0.1671,1.2664 -1.2118,1.1007 -1.9297,1.7889 -0.6924,0.666 -0.769,1.9371 -0.7309,2.8219l0.1715 5.855c0.0406,1.4274 2.0965,1.7195 2.4246,0.428 0.0963,-0.3815 0.0645,-4.1688 0.4614,-4.1526 0.3055,0.0116 0.6467,0.2261 1.009,0.5514 1.2781,1.1634 -0.0505,7.4327 0.3305,8.4307 0.5127,1.3405 1.5021,1.2587 2.5887,0.3859 -0.0102,0.0426 1.2439,-1.0971 1.2735,-1.3204 0.8503,-1.0672 1.6736,-2.4589 2.297,-3.8936 1.3532,-3.1137 1.5275,-7.9615 1.5352,-10.0941 0.1101,-0.0737 -0.521,-11.3312 -2.8394,-26.6897z"/>
  <path class="fil1" d="M46.2678 103.845c0,-2.1534 -1.7459,-3.9 -3.9,-3.9 -1.0304,0 -1.9642,0.4025 -2.6617,1.0509 -1.3363,1.2834 -2.5735,1.0221 -3.3168,1.0221l-2.6719 0 -0.6431 0 -2.6723 0c-0.7426,0 -1.9795,0.2614 -3.3165,-1.0221 -0.6967,-0.6484 -1.6313,-1.0509 -2.6614,-1.0509 -2.1532,0 -3.9003,1.7466 -3.9003,3.9 0,0.6484 0.1613,1.2583 0.441,1.7963 1.2016,2.3205 1.1589,2.5503 0.8714,4.3685 -0.0191,0.1403 -0.0335,0.2833 -0.0335,0.4293 0,1.5165 1.229,2.7457 2.746,2.7457 0.7348,-0.0001 1.4009,-0.2907 1.8937,-0.7613 0.0967,-0.0918 0.1831,-0.187 0.2624,-0.2882 1.9619,-2.1333 2.8332,-1.8803 3.6972,-1.8803l2.6723 -0.0001 0.6431 0 2.6719 0c0.8644,0 1.736,-0.2529 3.6975,1.8804 0.0798,0.1012 0.1658,0.1965 0.2624,0.2882 0.4925,0.4705 1.1589,0.7613 1.8941,0.7613 1.5167,-0.0001 2.7464,-1.2291 2.7464,-2.7457 0,-0.1461 -0.0145,-0.2889 -0.0339,-0.4293 -0.2871,-1.8183 -0.3298,-2.0479 0.8717,-4.3685 0.2798,-0.538 0.4403,-1.1479 0.4403,-1.7963z"/>
  <path class="fil0" d="M25.0814 102.44c-1.1874,0 -2.1502,0.9632 -2.1502,2.1513 0.0001,1.1878 0.9627,2.151 2.1502,2.151 1.1882,0 2.1512,-0.9631 2.1512,-2.151 0,-1.1882 -0.9631,-2.1512 -2.1512,-2.1513z"/>
  <path class="fil0" d="M41.7099 102.44c-1.187,0 -2.1498,0.9632 -2.1498,2.1513 0,1.1878 0.9627,2.151 2.1498,2.151 1.1879,0 2.1512,-0.9631 2.1512,-2.151 0.0001,-1.1882 -0.9634,-2.1512 -2.1512,-2.1513z"/>
  <path class="fil1" d="M31.4674 52.2713c-0.3256,0 -8.0293,0.0141 -12.7978,1.2259 -0.4208,0.1069 -0.7634,0.3365 -0.9655,0.6466 -0.2018,0.3101 -0.2378,0.6633 -0.102,0.9938 0.2223,0.5397 0.8566,0.9024 1.578,0.9024 0.1732,0 0.345,-0.0215 0.5105,-0.0638 4.2767,-1.0867 11.703,-1.0989 11.7775,-1.0989 0.9144,-0.0005 1.6584,-0.585 1.6584,-1.3032 -0.0007,-0.7183 -0.7447,-1.3028 -1.6591,-1.3028z"/>
  <path class="fil1" d="M49.0879 54.1438c-0.2017,-0.3101 -0.545,-0.5397 -0.9659,-0.6466 -4.7688,-1.2119 -12.4721,-1.2259 -12.7974,-1.2259 -0.9147,0 -1.6591,0.5845 -1.6591,1.3031 0,0.7182 0.7444,1.3029 1.6591,1.3029 0.0745,-0.0001 7.5001,0.0123 11.7754,1.0989 0.1662,0.0423 0.3383,0.0638 0.5122,0.0638 0.7215,0 1.355,-0.3626 1.5776,-0.9028 0.1366,-0.3305 0.1002,-0.6833 -0.1019,-0.9934z"/>
  <path class="fil1" d="M47.1858 65.596c-0.1937,-0.3055 -0.501,-0.5203 -0.8644,-0.605 -0.7383,-0.1725 -1.4986,0.2688 -1.688,0.9628 -0.1245,0.4152 -0.6812,1.7409 -2.7072,1.7409 -3.5356,0 -5.7722,-1.3818 -6.791,-2.2052l-0.096 -0.0776 -0.0261 -0.1175c-0.0515,-0.2265 -0.1834,-0.5471 -0.5224,-0.7895 -0.2829,-0.2026 -0.6393,-0.2921 -0.9942,-0.2543l-0.0412 0.0045 -0.0409 -0.0046c-0.3553,-0.0374 -0.7116,0.0523 -0.9949,0.2544 -0.339,0.2423 -0.4706,0.563 -0.5218,0.7895l-0.0264 0.1175 -0.096 0.0776c-1.0187,0.8234 -3.2551,2.2052 -6.791,2.2052 -2.0255,0 -2.5826,-1.3257 -2.7051,-1.7321 -0.1632,-0.5987 -0.7189,-1.0107 -1.3539,-1.0107 -0.1122,-0.0001 -0.2251,0.013 -0.3359,0.0391 -0.3636,0.0846 -0.6706,0.2995 -0.865,0.6051 -0.1943,0.3054 -0.2522,0.6646 -0.1633,1.0117 0.3327,1.3013 1.8941,3.7624 5.4232,3.7624 3.9723,-0.0001 6.6753,-1.3952 8.2434,-2.5661l0.2276 -0.1694 0.2272 0.1694c1.5685,1.1708 4.2717,2.5661 8.2437,2.5661 3.5285,-0.0001 5.0905,-2.461 5.4229,-3.7624 0.0889,-0.3472 0.0306,-0.7062 -0.1633,-1.0118z"/>
  <path class="fil1" d="M45.5637 58.2462c-0.7743,-0.1714 -1.5731,0.2685 -1.771,0.9628 -0.1316,0.4156 -0.7165,1.741 -2.8413,1.741 -2.8698,-0.0001 -4.9075,-0.8037 -6.2078,-1.5791 -0.6215,-0.0416 -1.245,-0.0649 -1.863,-0.1598 -0.0388,-0.006 -0.0663,-0.0215 -0.0956,-0.0356 -0.1069,0.0035 -0.2145,0.0081 -0.3221,0.0123 -1.2774,0.8266 -3.4064,1.7622 -6.5038,1.7622 -2.1251,-0.0001 -2.7101,-1.3254 -2.8385,-1.7318 -0.1714,-0.599 -0.7546,-1.0111 -1.4206,-1.0111 -0.1178,0 -0.2364,0.0134 -0.3528,0.0392 -0.7874,0.1752 -1.2714,0.9006 -1.0791,1.6168 0.3493,1.3013 1.9879,3.7623 5.691,3.7623 2.7062,0 5.1618,-0.5831 7.2989,-1.7339l0.1973 -0.1059 0.1972 0.1059c2.1371,1.1507 4.5935,1.7339 7.2989,1.7339 3.7035,0 5.3418,-2.4609 5.6907,-3.7623 0.1923,-0.7162 -0.2918,-1.4415 -1.0784,-1.6169z"/>
  <path class="fil1" d="M46.1493 78.3757c-0.1852,-0.3051 -0.4781,-0.5203 -0.8255,-0.6049 -0.7056,-0.1737 -1.4316,0.2688 -1.6122,0.9627 -0.1192,0.4152 -0.652,1.741 -2.5866,1.741 -2.6239,-0.0001 -4.488,-0.8418 -5.5891,-1.548l-0.1953 -0.1256 0.0377 -0.2286c0.0811,-0.4978 -0.1144,-0.991 -0.5112,-1.2877 -0.3647,-0.273 -0.8559,-0.3372 -1.2845,-0.1718l-0.1273 0.0494 -0.127 -0.0494c-0.4283,-0.1658 -0.9197,-0.1012 -1.2849,0.1718 -0.3965,0.2967 -0.5923,0.7899 -0.5108,1.2877l0.0374 0.2286 -0.1954 0.1256c-1.1013,0.7062 -2.9651,1.548 -5.5887,1.548 -1.935,-0.0001 -2.4677,-1.3258 -2.5848,-1.7322 -0.1555,-0.5987 -0.6862,-1.0107 -1.2933,-1.0107 -0.1068,0 -0.2149,0.0131 -0.321,0.0392 -0.3471,0.0846 -0.6403,0.2998 -0.8263,0.605 -0.1851,0.3051 -0.2409,0.665 -0.1559,1.0117 0.3179,1.3014 1.8098,3.7624 5.1813,3.7624 3.538,0 6.0124,-1.2291 7.4654,-2.2606l0.204 -0.1453 0.2046 0.1453c1.4521,1.0315 3.9264,2.2606 7.4651,2.2606 3.3716,0 4.863,-2.461 5.1809,-3.7624 0.0847,-0.3467 0.0296,-0.7066 -0.1566,-1.0118z"/>
  <path class="fil1" d="M47.0246 71.9858c-0.1807,-0.3055 -0.4661,-0.5202 -0.803,-0.6045 -0.6875,-0.174 -1.391,0.2684 -1.5667,0.9623 -0.1164,0.4152 -0.6332,1.741 -2.5136,1.741 -4.7959,-0.0001 -6.9832,-2.8893 -7.0047,-2.9185 -0.2469,-0.3398 -0.6248,-0.5338 -1.0372,-0.5338 -0.1763,0 -0.3482,0.0356 -0.5104,0.1065l-0.1337 0.0586 -0.1337 -0.0586c-0.1623,-0.0709 -0.3338,-0.1065 -0.5105,-0.1065 -0.412,0 -0.7902,0.194 -1.0358,0.5316 -0.0225,0.0314 -2.2105,2.9207 -7.0058,2.9207 -1.8803,-0.0001 -2.3978,-1.3257 -2.5114,-1.7318 -0.1516,-0.599 -0.6671,-1.0107 -1.257,-1.0107 -0.104,0 -0.2088,0.0131 -0.3118,0.0388 -0.3376,0.0846 -0.6223,0.2995 -0.8029,0.605 -0.1806,0.3055 -0.2343,0.6647 -0.1517,1.0121 0.3087,1.301 1.7586,3.7621 5.0348,3.7621 4.4856,-0.0001 7.2182,-2.0514 8.4476,-3.2735l0.2382 -0.2371 0.2384 0.2371c1.2295,1.222 3.9617,3.2735 8.4476,3.2735 3.2763,-0.0001 4.7259,-2.461 5.0345,-3.7621 0.0823,-0.3475 0.0283,-0.7066 -0.1512,-1.0122z"/>
  <path class="fil1" d="M49.1839 24.3153c0,-8.9799 -7.0447,-16.2682 -15.7749,-16.3794l0.0001 -0.0054c-0.0339,0 -0.0671,0.0023 -0.1006,0.0026 -0.0339,-0.0004 -0.067,-0.0025 -0.1005,-0.0025l0 0.0053c-8.7298,0.1111 -15.7745,7.3995 -15.7745,16.3795 0.0001,14.5563 3.6971,14.6368 15.7745,14.6371l0 -0.0001c0.0342,0 0.0663,0.0001 0.1005,0.0001 0.0339,-0.0001 0.0667,0 0.1005,0l0.0001 -0.0001c12.0766,-0.0003 15.7748,-0.0807 15.7748,-14.6371z"/>
  <path class="fil1" d="M41.73 40.4232c0,1.8605 -0.9006,2.7514 -2.7608,2.7514l-1.5878 -0.2788 -8.1644 0 -1.4192 0.3027c-1.8606,0 -2.9105,-0.9147 -2.9105,-2.7753l0.0001 -2.1414c0,-1.8605 1.5081,-3.369 3.3683,-3.369l10.1061 0c1.8597,0 3.3682,1.5085 3.3682,3.3691l0 2.1413z"/>
  <path class="fil0" d="M36.7711 39.3169c-0.9511,0.0649 -1.8829,0.0992 -2.7814,0.1083l0.0001 -1.9135c0.0483,-0.1686 0.2934,-0.7609 1.3616,-0.7609 1.0845,0 1.3635,0.6541 1.4196,0.8343l0.0001 1.7318zm0 2.7072c-0.0403,0.1453 -0.2753,0.7575 -1.3618,0.7575 -1.0847,-0.0001 -1.3635,-0.6544 -1.4196,-0.8351l0.0001 -1.4027c0.8992,-0.0087 1.8294,-0.0405 2.7812,-0.1036l0.0001 1.5839zm-4.1138 -2.6025c-0.986,-0.0151 -1.9188,-0.0563 -2.7817,-0.1131l0.0001 -1.7213c0.0606,-0.1922 0.3428,-0.8364 1.4198,-0.8364 1.0792,0 1.3187,0.6043 1.3618,0.7581l0 1.9127zm0 2.5228c-0.0599,0.1919 -0.3426,0.8372 -1.42,0.8372 -1.0783,-0.0001 -1.3186,-0.6054 -1.3617,-0.7589l0.0001 -1.5907c0.8643,0.0561 1.7973,0.096 2.7816,0.1112l0 1.4012zm-3.9772 -2.727c-1.1028,-0.096 -2.0497,-0.2106 -2.7817,-0.3125l0 -1.3202c0.053,-0.17 0.3302,-0.8339 1.4196,-0.8339 1.0791,0 1.3183,0.6043 1.3621,0.7581l0 1.7085zm0 2.7295c-0.0529,0.17 -0.3306,0.8347 -1.42,0.8347 -1.0787,-0.0001 -1.3183,-0.6054 -1.3617,-0.7589l0 -1.9851c0.7486,0.1016 1.6919,0.2128 2.7817,0.3059l0 1.6034zm9.2869 -4.4398c0.0406,-0.1446 0.2754,-0.7563 1.3616,-0.7563 1.0852,0 1.3635,0.6541 1.4203,0.8343l0.0001 1.2672c-0.9331,0.158 -1.8645,0.2794 -2.7821,0.3676l0.0001 -1.7128zm2.782 4.5128c-0.0483,0.1686 -0.2943,0.7617 -1.3625,0.7617 -1.0844,-0.0001 -1.3628,-0.6544 -1.4189,-0.8351l0.0001 -1.6023c0.9175,-0.0854 1.8467,-0.1997 2.7812,-0.3521l0.0001 2.0278zm-2.3672 1.7243c1.0241,-0.3302 2.0824,-0.5474 3.096,-0.9125 0.049,-0.0177 0.0977,-0.0314 0.1467,-0.042 0.1345,-0.2226 0.211,-0.4413 0.2392,-0.6156l0.0074 -2.3097c0,-0.0251 -0.0042,-0.049 -0.0074,-0.0737 0.4526,-0.0883 0.9045,-0.1841 1.3547,-0.2921l-0.2614 -1.0923c-0.3609,0.0865 -0.7232,0.1642 -1.0859,0.2379l0 -1.1296 -0.0102 -0.1094c-0.122,-0.6149 -0.8082,-1.7776 -2.5323,-1.7776 -0.9764,-0.0001 -1.6072,0.358 -1.99,0.7786 -0.3989,-0.4224 -1.0336,-0.7786 -1.9872,-0.7786 -1.0114,-0.0001 -1.6499,0.3845 -2.0277,0.823 -0.3785,-0.4385 -1.0171,-0.823 -2.0282,-0.823 -0.9531,-0.0001 -1.5878,0.3563 -1.9868,0.7786 -0.3823,-0.4206 -1.0132,-0.7786 -1.9907,-0.7786 -1.7237,-0.0001 -2.4102,1.1631 -2.5316,1.778l-0.0066 1.3278c-0.3499,-0.0586 -0.5507,-0.0977 -0.5645,-0.1005l-0.2222 1.101c0.0162,0.0028 0.2931,0.0572 0.7824,0.1369l0 2.2129 0.0075 0.0904c0.03,0.1848 0.1149,0.4201 0.2663,0.6576 0.949,0.1679 1.8443,0.6343 2.7216,1.0315 0.6743,-0.102 1.154,-0.3962 1.4764,-0.737 0.3824,0.4198 1.0132,0.7779 1.99,0.7779 1.0376,-0.0001 1.6973,-0.4216 2.0864,-0.8911 0.3891,0.4695 1.0484,0.8911 2.0856,0.8911 0.9772,-0.0001 1.6079,-0.3581 1.9904,-0.7786 0.2371,0.2512 0.5605,0.4756 0.9821,0.6187z"/>
  <path class="fil0" d="M29.3225 27.5581c0,-2.4356 -1.9742,-4.4097 -4.4098,-4.4097 -2.4355,-0.0001 -4.4097,1.9742 -4.4097,4.4097 0.0001,2.4355 1.9742,4.4098 4.4097,4.4098 2.4357,-0.0001 4.4098,-1.9742 4.4098,-4.4098z"/>
  <path class="fil0" d="M41.7046 23.1483c-2.4356,0 -4.4101,1.9743 -4.4101,4.4098 0.0001,2.4355 1.9745,4.4098 4.4101,4.4098 2.4357,-0.0001 4.4097,-1.9742 4.4097,-4.4098 0.0001,-2.4356 -1.9741,-4.4097 -4.4097,-4.4098z"/>
  <path class="fil0" d="M31.7411 33.9278c0.2159,0 0.4318,-0.0821 0.5958,-0.2465l0.9717 -0.9723 0.9718 0.9721c0.1641,0.1645 0.3799,0.2468 0.5955,0.2468 0.2148,-0.0001 0.4307,-0.0822 0.5955,-0.2462 0.3284,-0.3292 0.3284,-0.8626 0,-1.1914l-1.548 -1.548c-0.1693,-0.1695 -0.393,-0.2497 -0.6149,-0.2444 -0.2219,-0.0054 -0.4456,0.0751 -0.6146,0.2444l-1.5479 1.548c-0.3291,0.3288 -0.3292,0.8622 0,1.1914 0.1644,0.1639 0.3799,0.2462 0.5951,0.2461z"/>
  <path class="fil1" d="M39.3756 142.573c0.0709,-0.0014 0.1393,0.0124 0.2081,0.0184l-0.1778 -22.4681c-0.0687,0.0066 -0.1369,0.0219 -0.2081,0.0219 -1.1755,0.0105 -2.1357,-0.9335 -2.1453,-2.1054 -0.0088,-1.1731 0.9363,-2.1311 2.1111,-2.1406 0.588,-0.0043 1.1221,0.2286 1.5102,0.6106 0.4435,0.4356 0.8089,0.4329 1.2464,-0.0102 0.3824,-0.3878 0.9122,-0.629 1.5,-0.634 1.1755,-0.0092 2.136,0.9345 2.1449,2.1075 0.0103,1.1716 -0.9363,2.1301 -2.1111,2.1393 -0.0712,0.0007 -0.1393,-0.0127 -0.2088,-0.0198l0.1785 22.4684c0.0689,-0.0067 0.1369,-0.0211 0.2078,-0.0226 1.1762,-0.0088 2.1361,0.9342 2.1452,2.1072 0.0096,1.1715 -0.9359,2.1294 -2.1114,2.1396 -0.5877,0.0049 -1.1221,-0.2293 -1.5102,-0.611 -0.4437,-0.4364 -0.8082,-0.4329 -1.2464,0.0102 -0.3816,0.3873 -0.9115,0.6297 -1.4993,0.6339 -1.1754,0.0089 -2.1357,-0.9345 -2.1445,-2.1064 -0.0098,-1.173 0.9349,-2.13 2.1107,-2.1389z"/>
  <path class="fil1" d="M39.6307 184.378c0.0716,-0.0007 0.1389,0.0131 0.2084,0.0219l-0.1329 -25.4378c-0.0696,0.0082 -0.137,0.0248 -0.2086,0.0255 -1.175,0.013 -2.1336,-1.0534 -2.1406,-2.3806 -0.0067,-1.3264 0.9398,-2.4137 2.1149,-2.4267 0.5885,-0.0057 1.1218,0.2575 1.5092,0.6882 0.4424,0.4935 0.8082,0.4886 1.2463,-0.013 0.3832,-0.4396 0.9137,-0.7144 1.5014,-0.7207 1.1756,-0.0138 2.134,1.0526 2.1407,2.3805 0.0078,1.3271 -0.9405,2.4123 -2.1153,2.4261 -0.0715,0.0006 -0.1389,-0.0138 -0.2088,-0.0219l0.1337 25.4391c0.0692,-0.0095 0.1365,-0.0261 0.2081,-0.0268 1.1755,-0.0123 2.134,1.0534 2.1407,2.3806 0.0071,1.3268 -0.9405,2.4123 -2.116,2.4253 -0.5869,0.0067 -1.1207,-0.2557 -1.5081,-0.6865 -0.4438,-0.4917 -0.8089,-0.4889 -1.2471,0.0134 -0.3823,0.4396 -0.9136,0.7137 -1.5014,0.72 -1.1751,0.0124 -2.1336,-1.053 -2.1396,-2.3794 -0.007,-1.3283 0.9391,-2.4141 2.115,-2.4272z"/>
  <path class="fil1" d="M39.3785 150.357c0.0095,1.208 0.9997,2.1795 2.21,2.1697 1.2108,-0.0089 2.1844,-0.997 2.1746,-2.2056 -0.0095,-1.2062 -0.9984,-2.1784 -2.2095,-2.1682 -1.2106,0.0088 -2.1844,0.997 -2.1751,2.2041z"/>
  <path class="fil1" d="M43.713 193.598c0,-1.1758 -0.8022,-2.1283 -1.7921,-2.1283l-2.6458 0c-0.9899,0 -1.7925,0.9525 -1.7925,2.1283 0,1.1754 0.8025,2.1283 1.7924,2.1283l2.6459 0c0.9899,0 1.7921,-0.9528 1.7921,-2.1283z"/>
  <path class="fil1" d="M51.2723 194.517c0,0.5708 0.4628,1.0336 1.0333,1.0336 0.5712,0 1.0343,-0.4628 1.0343,-1.0336 0,-0.5712 -0.4632,-1.0344 -1.0343,-1.0344 -0.5704,0 -1.0333,0.4632 -1.0333,1.0344z"/>
  <path class="fil1" d="M27.7333 142.573c-0.0713,-0.0014 -0.1391,0.0124 -0.2086,0.0184l0.1778 -22.4681c0.0696,0.0066 0.1372,0.0219 0.2089,0.0219 1.1755,0.0105 2.1353,-0.9335 2.1448,-2.1054 0.0089,-1.1731 -0.9359,-2.1311 -2.111,-2.1406 -0.588,-0.0043 -1.1218,0.2286 -1.5106,0.6106 -0.4434,0.4356 -0.8085,0.4329 -1.2464,-0.0102 -0.3823,-0.3878 -0.9122,-0.629 -1.5,-0.634 -1.1746,-0.0092 -2.1353,0.9345 -2.1449,2.1075 -0.0094,1.1716 0.9363,2.1301 2.1114,2.1393 0.0717,0.0007 0.139,-0.0127 0.2085,-0.0198l-0.1778 22.4684c-0.0694,-0.0067 -0.1372,-0.0211 -0.2081,-0.0226 -1.1758,-0.0088 -2.1361,0.9342 -2.1449,2.1072 -0.0099,1.1715 0.9359,2.1294 2.1107,2.1396 0.5877,0.0049 1.1225,-0.2293 1.5102,-0.611 0.4445,-0.4364 0.8089,-0.4329 1.2464,0.0102 0.3817,0.3873 0.9119,0.6297 1.4996,0.6339 1.1759,0.0089 2.1357,-0.9345 2.1449,-2.1064 0.0096,-1.173 -0.9352,-2.13 -2.1109,-2.1389z"/>
  <path class="fil1" d="M27.4779 184.378c-0.0714,-0.0007 -0.1388,0.0131 -0.2083,0.0219l0.1335 -25.4378c0.0687,0.0082 0.1368,0.0248 0.2077,0.0255 1.1759,0.013 2.1339,-1.0534 2.1413,-2.3806 0.0068,-1.3264 -0.9398,-2.4137 -2.1152,-2.4267 -0.5881,-0.0057 -1.1222,0.2575 -1.5095,0.6882 -0.442,0.4935 -0.8083,0.4886 -1.2457,-0.013 -0.3838,-0.4396 -0.9144,-0.7144 -1.5018,-0.7207 -1.175,-0.0138 -2.1343,1.0526 -2.1406,2.3805 -0.0077,1.3271 0.9401,2.4123 2.1156,2.4261 0.0717,0.0006 0.1383,-0.0138 0.2081,-0.0219l-0.133 25.4391c-0.0694,-0.0095 -0.1372,-0.0261 -0.2085,-0.0268 -1.1758,-0.0123 -2.1343,1.0534 -2.141,2.3806 -0.007,1.3268 0.9405,2.4123 2.1167,2.4253 0.5871,0.0067 1.12,-0.2557 1.5078,-0.6865 0.4434,-0.4917 0.8092,-0.4889 1.247,0.0134 0.3821,0.4396 0.9134,0.7137 1.5011,0.72 1.1755,0.0124 2.1339,-1.053 2.1403,-2.3794 0.0068,-1.3283 -0.9395,-2.4141 -2.1155,-2.4272z"/>
  <path class="fil1" d="M27.7301 150.357c-0.0095,1.208 -0.9991,2.1795 -2.2102,2.1697 -1.2107,-0.0089 -2.1844,-0.997 -2.1742,-2.2056 0.0099,-1.2062 0.998,-2.1784 2.2091,-2.1682 1.2108,0.0088 2.1851,0.997 2.1753,2.2041z"/>
  <path class="fil1" d="M23.3955 193.598c0,-1.1758 0.8029,-2.1283 1.7924,-2.1283l2.6463 0c0.9895,0 1.792,0.9525 1.792,2.1283 0.0001,1.1754 -0.8026,2.1283 -1.7921,2.1283l-2.6461 0c-0.9896,0 -1.7926,-0.9528 -1.7925,-2.1283z"/>
  <path class="fil1" d="M21.9802 193.238c0.1668,0.7415 -0.2978,1.4785 -1.0376,1.6446l-2.3315 0.5225c-0.7394,0.1658 -1.4746,-0.3017 -1.6408,-1.0435 -0.1665,-0.7423 0.2985,-1.4782 1.0379,-1.6443l2.3315 -0.5225c0.7398,-0.1662 1.4739,0.3006 1.6405,1.0432z"/>
  <path class="fil1" d="M15.8365 194.517c0,0.5708 -0.4625,1.0336 -1.0337,1.0336 -0.5707,0 -1.0336,-0.4628 -1.0336,-1.0336 0,-0.5712 0.4628,-1.0344 1.0336,-1.0344 0.5713,0 1.0337,0.4632 1.0337,1.0344z"/>
  <path class="fil1" d="M45.3259 193.468c-0.1982,0.749 0.2152,1.4644 0.9232,1.5967l2.2331 0.4173c0.7084,0.132 1.4435,-0.3686 1.6415,-1.1172 0.199,-0.7497 -0.2152,-1.464 -0.9233,-1.5963l-2.2327 -0.4174c-0.708,-0.1326 -1.4432,0.3673 -1.6418,1.1169z"/>
  <path class="fil1" d="M10.7092 80.7721c-0.055,-0.0116 -0.1094,-0.0087 -0.164,-0.014l3.4322 -15.8948c0.0515,0.0184 0.1008,0.0431 0.1555,0.0547 0.9021,0.195 1.8316,-0.5634 2.075,-1.693 0.2446,-1.131 -0.2892,-2.2059 -1.1909,-2.401 -0.4509,-0.0974 -0.9088,0.0434 -1.2841,0.3503 -0.43,0.351 -0.7105,0.2904 -0.9564,-0.2063 -0.2166,-0.4343 -0.5754,-0.7515 -1.0259,-0.8495 -0.902,-0.1948 -1.8309,0.5644 -2.0754,1.6951 -0.244,1.1291 0.2893,2.2041 1.191,2.3992 0.055,0.0116 0.1093,0.0092 0.1647,0.0145l-3.4325 15.8944c-0.0522,-0.0188 -0.1005,-0.0427 -0.1566,-0.0544 -0.901,-0.1955 -1.8306,0.5638 -2.0737,1.6944 -0.2448,1.1296 0.2886,2.2049 1.1907,2.3986 0.4505,0.098 0.9087,-0.0431 1.2841,-0.3496 0.4294,-0.3507 0.7105,-0.2904 0.9571,0.2064 0.2155,0.4349 0.5743,0.7521 1.0255,0.8487 0.9021,0.1951 1.8313,-0.563 2.075,-1.6933 0.2445,-1.1307 -0.2892,-2.2059 -1.1913,-2.4004z"/>
  <path class="fil1" d="M7.1098 107.993c-0.0557,-0.006 -0.1094,0.0014 -0.1647,0.0014l1.9798 -16.1403c0.0536,0.0131 0.104,0.0336 0.1598,0.0399 0.9155,0.1125 1.7723,-0.7263 1.9134,-1.8739 0.1408,-1.1487 -0.4872,-2.1703 -1.4044,-2.2836 -0.4575,-0.0558 -0.9006,0.1263 -1.2467,0.4661 -0.3962,0.3883 -0.6812,0.3527 -0.9719,-0.12 -0.2536,-0.4121 -0.6396,-0.696 -1.0975,-0.7525 -0.9161,-0.1118 -1.7727,0.7278 -1.9142,1.8758 -0.1404,1.1471 0.4883,2.1695 1.4041,2.2824 0.0561,0.0063 0.1097,-0.0014 0.1654,-0.0007l-1.9801 16.1396c-0.0525,-0.0131 -0.1041,-0.0332 -0.1591,-0.0402 -0.9158,-0.1129 -1.7738,0.7271 -1.9138,1.8757 -0.1408,1.1468 0.4879,2.1692 1.403,2.2811 0.459,0.0563 0.902,-0.1256 1.2481,-0.465 0.3965,-0.3874 0.6809,-0.3531 0.9712,0.1189 0.2537,0.4127 0.6403,0.6974 1.0985,0.7539 0.9159,0.1114 1.7727,-0.7292 1.9135,-1.8761 0.1412,-1.1476 -0.4879,-2.1703 -1.4044,-2.2825z"/>
  <path class="fil1" d="M16.5199 57.2387c-0.0078,0.9741 -0.8041,1.7576 -1.7784,1.7498 -0.9744,-0.0074 -1.7572,-0.804 -1.7495,-1.779 0.0079,-0.9731 0.8033,-1.7569 1.7777,-1.7487 0.9741,0.007 1.7575,0.8039 1.7502,1.7779z"/>
  <path class="fil1" d="M7.3173 114.7c0,0.8368 -0.6785,1.5152 -1.5152,1.5152l-1.929 0c-0.8368,0 -1.5156,-0.6784 -1.5156,-1.5151l0.0001 -0.0001c0,-0.8371 0.6787,-1.5151 1.5155,-1.5151l1.929 -0.0001c0.8368,0 1.5151,0.6781 1.5151,1.5153l0.0001 -0.0001z"/>
  <path class="fil1" d="M6.5422 118.621c0,0.7187 -0.5824,1.3015 -1.3011,1.3015l-0.575 -0.0001c-0.7182,0 -1.301,-0.5827 -1.301,-1.3013l0 -0.0001c0,-0.7182 0.5828,-1.3006 1.301,-1.3006l0.5751 0c0.7186,0 1.301,0.5824 1.301,1.3007l0 -0.0001z"/>
  <path class="fil1" d="M6.0441 123.787c-0.0021,0.4763 -0.4308,0.8605 -0.9568,0.8577l0.0001 0c-0.5264,-0.0025 -0.9508,-0.3905 -0.9483,-0.8671l0.0102 -2.0589c0.0018,-0.4762 0.4304,-0.8604 0.9564,-0.8575l0 -0.0001c0.5263,0.0025 0.9507,0.3906 0.9482,0.8672l-0.0098 2.0587z"/>
  <path class="fil1" d="M7.4044 127.902c0.1774,0.4403 -0.0741,0.9565 -0.562,1.1533l0.0001 0c-0.4879,0.1965 -1.0274,-0.001 -1.2048,-0.4413l-0.7677 -1.9037c-0.1771,-0.4398 0.0745,-0.9566 0.5623,-1.1531l0.0001 -0.0001c0.4879,-0.1968 1.0272,0.0008 1.2047,0.4411l0.7673 1.9038z"/>
  <path class="fil1" d="M11.7161 118.498c0.0501,0.4089 -0.2572,0.7825 -0.6859,0.8347l0.0001 -0.0001c-0.4283,0.0529 -0.816,-0.2363 -0.8661,-0.6444l-0.2155 -1.7661c-0.0501,-0.4089 0.2567,-0.7824 0.6854,-0.835l0 0c0.4286,-0.0522 0.8166,0.2367 0.866,0.6456l0.216 1.7653z"/>
  <path class="fil1" d="M11.92 122.797c-0.0036,0.4117 -0.3606,0.7423 -0.7981,0.7388l0.0001 -0.0001c-0.4367,-0.0035 -0.7889,-0.34 -0.7853,-0.7513l0.0144 -1.7792c0.0032,-0.4116 0.3602,-0.7425 0.7977,-0.7386l0 0c0.4371,0.0031 0.7891,0.3397 0.7856,0.7514l-0.0144 1.779z"/>
  <path class="fil1" d="M56.1926 80.7721c0.0549,-0.0116 0.1092,-0.0087 0.1639,-0.014l-3.4321 -15.8948c-0.0515,0.0184 -0.1013,0.0431 -0.1556,0.0547 -0.9021,0.195 -1.8316,-0.5634 -2.0754,-1.693 -0.2437,-1.131 0.2893,-2.2059 1.1913,-2.401 0.4505,-0.0974 0.9088,0.0434 1.2845,0.3503 0.4297,0.351 0.7101,0.2904 0.9564,-0.2063 0.2162,-0.4343 0.575,-0.7515 1.0251,-0.8495 0.9025,-0.1948 1.8313,0.5644 2.0761,1.6951 0.2438,1.1291 -0.2896,2.2041 -1.1913,2.3992 -0.0554,0.0116 -0.1097,0.0092 -0.1647,0.0145l3.4325 15.8944c0.0519,-0.0188 0.1005,-0.0427 0.1566,-0.0544 0.901,-0.1955 1.8306,0.5638 2.074,1.6944 0.2445,1.1296 -0.2889,2.2049 -1.1906,2.3986 -0.4509,0.098 -0.9091,-0.0431 -1.2845,-0.3496 -0.4293,-0.3507 -0.7105,-0.2904 -0.9571,0.2064 -0.2155,0.4349 -0.5747,0.7521 -1.0259,0.8487 -0.902,0.1951 -1.8309,-0.563 -2.0746,-1.6933 -0.2445,-1.1307 0.2892,-2.2059 1.1914,-2.4004z"/>
  <path class="fil1" d="M59.7919 107.993c0.0558,-0.006 0.1097,0.0014 0.1647,0.0014l-1.9794 -16.1403c-0.054,0.0131 -0.1041,0.0336 -0.1602,0.0399 -0.9154,0.1125 -1.7727,-0.7263 -1.9131,-1.8739 -0.1414,-1.1487 0.4868,-2.1703 1.4041,-2.2836 0.4576,-0.0558 0.9006,0.1263 1.2463,0.4661 0.3963,0.3883 0.6816,0.3527 0.9723,-0.12 0.2537,-0.4121 0.6396,-0.696 1.0975,-0.7525 0.9159,-0.1118 1.7723,0.7278 1.9142,1.8758 0.14,1.1471 -0.4886,2.1695 -1.4041,2.2824 -0.0557,0.0063 -0.1097,-0.0014 -0.1655,-0.0007l1.9803 16.1396c0.0525,-0.0131 0.104,-0.0332 0.159,-0.0402 0.9158,-0.1129 1.7738,0.7271 1.9135,1.8757 0.1414,1.1468 -0.4879,2.1692 -1.4027,2.2811 -0.4589,0.0563 -0.902,-0.1256 -1.2478,-0.465 -0.3968,-0.3874 -0.6815,-0.3531 -0.9715,0.1189 -0.2536,0.4127 -0.6403,0.6974 -1.0986,0.7539 -0.9161,0.1114 -1.7727,-0.7292 -1.9131,-1.8761 -0.1414,-1.1476 0.4876,-2.1703 1.4041,-2.2825z"/>
  <path class="fil1" d="M50.3819 57.2387c0.0078,0.9741 0.8043,1.7576 1.7783,1.7498 0.9744,-0.0074 1.7572,-0.804 1.7495,-1.779 -0.0081,-0.9731 -0.8033,-1.7569 -1.7777,-1.7487 -0.9743,0.007 -1.7575,0.8039 -1.7501,1.7779z"/>
  <path class="fil1" d="M59.5845 114.7c0,0.8368 0.678,1.5152 1.5151,1.5152l1.9287 0c0.8372,0 1.5158,-0.6784 1.5158,-1.5151l0.0001 -0.0001c0,-0.8371 -0.6788,-1.5151 -1.5159,-1.5151l-1.9287 -0.0001c-0.8371,0 -1.5152,0.6781 -1.5152,1.5153l0.0001 -0.0001z"/>
  <path class="fil1" d="M60.3596 118.621c0,0.7187 0.5823,1.3015 1.3009,1.3015l0.5748 -0.0001c0.7185,0 1.3013,-0.5827 1.3013,-1.3013l0 -0.0001c0,-0.7182 -0.5828,-1.3006 -1.3014,-1.3006l-0.5746 0c-0.7186,0 -1.3011,0.5824 -1.3011,1.3007l0.0001 -0.0001z"/>
  <path class="fil1" d="M60.858 123.787c0.0018,0.4763 0.4304,0.8605 0.956,0.8577l0 0c0.5268,-0.0025 0.9511,-0.3905 0.9483,-0.8671l-0.0095 -2.0589c-0.0022,-0.4762 -0.4308,-0.8604 -0.9571,-0.8575l0 -0.0001c-0.526,0.0025 -0.9504,0.3906 -0.9483,0.8672l0.0106 2.0587z"/>
  <path class="fil1" d="M59.497 127.902c-0.1771,0.4403 0.0744,0.9565 0.5623,1.1533l0 0c0.4879,0.1965 1.0273,-0.001 1.2044,-0.4413l0.7677 -1.9037c0.1778,-0.4398 -0.0745,-0.9566 -0.5624,-1.1531l0 -0.0001c-0.4878,-0.1968 -1.0273,0.0008 -1.2044,0.4411l-0.7676 1.9038z"/>
  <path class="fil1" d="M55.1857 118.498c-0.0501,0.4089 0.2571,0.7825 0.6858,0.8347l0 -0.0001c0.4279,0.0529 0.8156,-0.2363 0.866,-0.6444l0.2156 -1.7661c0.0498,-0.4089 -0.2568,-0.7824 -0.6855,-0.835l0.0001 0c-0.4286,-0.0522 -0.8168,0.2367 -0.8661,0.6456l-0.2159 1.7653z"/>
  <path class="fil1" d="M54.9818 122.797c0.0036,0.4117 0.3605,0.7423 0.7979,0.7388l0.0001 -0.0001c0.4367,-0.0035 0.7887,-0.34 0.7856,-0.7513l-0.0145 -1.7792c-0.0035,-0.4116 -0.3605,-0.7425 -0.798,-0.7386l0 0c-0.4366,0.0031 -0.7891,0.3397 -0.7856,0.7514l0.0145 1.779z"/>
  <path class="fil1" d="M45.7891 84.7656c-0.1799,-0.3052 -0.4646,-0.5199 -0.8022,-0.605 -0.6855,-0.1736 -1.391,0.2689 -1.566,0.9628 -0.1164,0.4155 -0.634,1.7413 -2.5136,1.7413 -2.5494,0 -4.3607,-0.8421 -5.4306,-1.5484l-0.1894 -0.1256 0.0363 -0.2286c0.0787,-0.4974 -0.1115,-0.9909 -0.4967,-1.2872 -0.3545,-0.2735 -0.8315,-0.3377 -1.2482,-0.1722l-0.1234 0.0494 -0.1235 -0.0495c-0.4162,-0.1658 -0.8936,-0.1011 -1.2485,0.1723 -0.3852,0.2963 -0.5754,0.7898 -0.496,1.2872l0.0363 0.2286 -0.1901 0.1256c-1.07,0.7062 -2.8808,1.5484 -5.43,1.5484 -1.8799,0 -2.3974,-1.3258 -2.5114,-1.7325 -0.151,-0.5988 -0.6671,-1.0107 -1.2562,-1.0107 -0.1044,0 -0.2096,0.013 -0.3122,0.0391 -0.3376,0.085 -0.622,0.2999 -0.8026,0.605 -0.1803,0.3055 -0.2343,0.665 -0.1517,1.0118 0.3087,1.3014 1.7582,3.7624 5.0341,3.7624 3.4379,-0.0001 5.842,-1.2291 7.2531,-2.2606l0.1987 -0.1454 0.1982 0.1453c1.4111,1.0316 3.8153,2.2607 7.2538,2.2607 3.2756,-0.0001 4.7251,-2.461 5.0338,-3.7624 0.0822,-0.3468 0.0282,-0.7062 -0.152,-1.0118z"/>
  <path class="fil1" d="M35.8302 45.9501c0,0.5091 -0.4742,0.9219 -1.0584,0.9219l-2.814 0c-0.585,0 -1.0584,-0.4127 -1.0584,-0.9218l0 -1.1321c0,-0.5087 0.4734,-0.9214 1.0583,-0.9214l2.8141 0c0.5842,0 1.0584,0.4127 1.0584,0.9215l0 1.1319z"/>
  <path class="fil1" d="M35.8302 50.2992c0,0.5087 -0.4742,0.9215 -1.0584,0.9215l-2.814 -0.0001c-0.585,0 -1.0584,-0.4126 -1.0584,-0.9213l0 -1.1321c0,-0.5091 0.4734,-0.9218 1.0583,-0.9218l2.8141 0c0.5842,0 1.0584,0.4127 1.0584,0.9218l0 1.132z"/>
  <path class="fil1" d="M35.8302 55.6808c0,0.8523 -0.4742,1.5438 -1.0584,1.5438l-2.814 0c-0.585,0 -1.0584,-0.6914 -1.0584,-1.5437l0 -1.8959c0,-0.8523 0.4734,-1.5437 1.0583,-1.5437l2.8141 0c0.5842,0 1.0584,0.6914 1.0584,1.5438l0 1.8957z"/>
  <path class="fil1" d="M35.8302 89.6293c0,0.5095 -0.4742,0.9223 -1.0584,0.9223l-2.814 -0.0001c-0.585,0 -1.0584,-0.4127 -1.0584,-0.9221l0 -1.1321c0,-0.5087 0.4734,-0.9214 1.0583,-0.9214l2.8141 0c0.5842,0 1.0584,0.4127 1.0584,0.9214l0 1.132z"/>
  <path class="fil1" d="M35.8302 93.8126c0,0.5087 -0.4742,0.9215 -1.0584,0.9215l-2.814 -0.0001c-0.585,0 -1.0584,-0.4127 -1.0584,-0.9214l0 -1.132c0,-0.5095 0.4734,-0.9218 1.0583,-0.9218l2.8141 -0.0001c0.5842,0 1.0584,0.4125 1.0584,0.9219l0 1.132z"/>
  <path class="fil1" d="M35.8302 97.9951c0,0.5091 -0.4742,0.9219 -1.0584,0.9219l-2.814 0c-0.585,0 -1.0584,-0.4128 -1.0584,-0.9218l0 -1.1322c0,-0.5087 0.4734,-0.9214 1.0583,-0.9214l2.8141 0c0.5842,0 1.0584,0.4128 1.0584,0.9215l0 1.132z"/>
  <path class="fil1" d="M35.8302 102.178c0,0.5091 -0.4742,0.9219 -1.0584,0.9219l-2.814 -0.0001c-0.585,0 -1.0584,-0.4127 -1.0584,-0.9217l0 -1.1322c0,-0.5094 0.4734,-0.9221 1.0583,-0.9221l2.8141 0c0.5842,0 1.0584,0.4128 1.0584,0.9222l0 1.132z"/>
  <path class="fil1" d="M35.8302 105.821c0,0.5087 -0.4742,0.9216 -1.0584,0.9216l-2.814 0c-0.585,0 -1.0584,-0.4128 -1.0584,-0.9215l0 -1.1321c0,-0.5091 0.4734,-0.9214 1.0583,-0.9214l2.8141 -0.0001c0.5842,0 1.0584,0.4125 1.0584,0.9215l0 1.132z"/>
  <path class="fil1" d="M35.8302 59.6933c0,-0.5774 -0.4742,-1.0459 -1.0584,-1.0459l-2.814 0c-0.585,0 -1.0584,0.4685 -1.0584,1.046l0 28.8003c0,0.5776 0.4734,1.0461 1.0583,1.0461l2.8141 -0.0001c0.5842,0 1.0584,-0.4684 1.0584,-1.0459l0 -28.8005z"/>
 </g>
</svg>
