<svg xmlns="http://www.w3.org/2000/svg" xmlns:xlink="http://www.w3.org/1999/xlink" version="1.1" x="0px" y="0px" viewBox="0 0 100 125" style="enable-background:new 0 0 100 100;" xml:space="preserve"><path d="M54.948,59.754c0-0.553-0.448-1-1-1h-7.828c-0.552,0-1,0.447-1,1v4.996h-4.996c-0.552,0-1,0.447-1,1v7.828  c0,0.553,0.448,1,1,1h4.996v4.995c0,0.553,0.448,1,1,1h7.828c0.552,0,1-0.447,1-1v-4.995h4.996c0.552,0,1-0.447,1-1V65.75  c0-0.553-0.448-1-1-1h-4.996V59.754z M58.944,66.75v5.828h-4.996c-0.552,0-1,0.447-1,1v4.995h-5.828v-4.995c0-0.553-0.448-1-1-1  h-4.996V66.75h4.996c0.552,0,1-0.447,1-1v-4.996h5.828v4.996c0,0.553,0.448,1,1,1H58.944z"/><path d="M41.772,46.823h-0.298c-10.676,0-19.361,9.601-19.361,21.402V89c0,0.553,0.448,1,1,1h53.773c0.552,0,1-0.447,1-1V68.219  c0-11.798-8.683-21.396-19.355-21.396h-0.387v-7.5c0-0.045-0.02-0.083-0.026-0.127c4.595-2.763,7.682-7.751,7.682-13.451  C65.801,17.063,58.667,10,49.898,10s-15.903,7.063-15.903,15.745c0,5.745,3.135,10.767,7.79,13.516  c-0.001,0.022-0.012,0.04-0.012,0.062V46.823z M75.887,68.219V88H24.113V68.226c0-11.984,9.012-19.402,17.361-19.402h1.021  l0.525,0.315c2.144,1.287,4.543,1.931,6.943,1.931c2.422,0,4.844-0.655,7.001-1.966l0.461-0.28h1.107  C66.878,48.823,75.887,56.238,75.887,68.219z M63.755,24.848c-0.097-0.054-0.2-0.101-0.316-0.12  c-6.059-1.003-8.658-4.457-9.184-5.253c1.65-1.048,3.335-2.306,5.028-3.842C61.843,17.958,63.516,21.209,63.755,24.848z M49.898,12  c2.886,0,5.569,0.875,7.794,2.37c-9.766,8.702-19.439,7.998-21.199,7.782C38.097,16.313,43.491,12,49.898,12z M35.995,25.745  c0-0.551,0.042-1.091,0.106-1.625c0.422,0.062,1.312,0.164,2.566,0.164c3.015,0,8.131-0.607,13.867-3.787  c0.606,0.938,3.62,5.053,10.579,6.204c0.055,0.01,0.11,0.014,0.164,0.014c0.175,0,0.335-0.059,0.481-0.141  c-0.437,7.192-6.477,12.916-13.861,12.916C42.231,39.489,35.995,33.323,35.995,25.745z M49.898,41.489  c2.217,0,4.328-0.454,6.247-1.269v7.041l-0.22,0.134c-3.658,2.222-8.208,2.233-11.876,0.029l-0.277-0.167v-6.986  C45.659,41.054,47.728,41.489,49.898,41.489z"/></svg>