<svg xmlns="http://www.w3.org/2000/svg" xmlns:xlink="http://www.w3.org/1999/xlink" version="1.1" x="0px" y="0px" viewBox="0 0 100 125" style="enable-background:new 0 0 100 100;" xml:space="preserve"><style type="text/css">
	.st0{fill:none;stroke:#000000;stroke-width:2;stroke-linecap:round;stroke-miterlimit:10;}
	.st1{fill:none;stroke:#000000;stroke-width:2;stroke-linecap:round;stroke-linejoin:round;stroke-miterlimit:10;}
	.st2{stroke:#000000;stroke-width:2;stroke-linecap:round;stroke-linejoin:round;stroke-miterlimit:10;}
	.st3{fill:none;stroke:#000000;stroke-width:2;stroke-miterlimit:10;}
</style><path d="M42.8,52.4c-10,0-18.5,9.8-18.5,21.4v15.9c0,0.6,0.4,1,1,1h51.3c0.6,0,1-0.4,1-1V73.8c0-11.6-8.5-21.4-18.5-21.4h-0.3v-5.6  c4.3-2.7,7-7.4,7-12.6c0-3.3-1.1-6.5-3.1-9.1V13.4c0-0.6-0.4-1-1-1H40.1c-0.6,0-1,0.4-1,1v11.7c-2,2.6-3.1,5.8-3.1,9.1  c0,5.3,2.8,10,7.1,12.7v5.6H42.8z M75.6,73.8v14.9H26.3V73.8c0-10.3,7.7-19.4,16.5-19.4h1l0.5,0.3c2.1,1.2,4.4,1.8,6.6,1.8  c2.3,0,4.6-0.6,6.7-1.9l0.4-0.3h1C67.9,54.4,75.6,63.4,75.6,73.8z M60.6,14.4v9.8H41.1v-9.8H60.6z M40.8,26.1h17.6  c-7.2,4.2-17.2,6.1-20.3,6.5C38.3,30.3,39.3,28,40.8,26.1z M38,34.7c2.9-0.4,15.4-2.5,23.3-8.1c1.6,2.2,2.4,4.8,2.4,7.5  c0,5.6-3.5,10.5-8.8,12.2c-4.3,1.1-8.1,0-8.1,0C41.7,44.7,38.2,40.1,38,34.7z M46.2,48.3c0.1,0,2,0.6,4.6,0.6c1.4,0,2.9-0.1,4.6-0.6  c0,0,0,0,0.1,0c0.4-0.1,0.9-0.3,1.3-0.5v5l-0.2,0.1c-3.5,2.1-7.8,2.1-11.3,0l-0.2-0.1v-5C45.5,48,45.8,48.2,46.2,48.3z"/><path d="M48.7,20.2H50v1.2c0,0.6,0.4,1,1,1s1-0.4,1-1v-1.2h1.2c0.6,0,1-0.4,1-1s-0.4-1-1-1H52v-1.2c0-0.6-0.4-1-1-1s-1,0.4-1,1v1.2  h-1.2c-0.6,0-1,0.4-1,1S48.2,20.2,48.7,20.2z"/><path d="M55.3,73.4H52v-3.3c0-0.6-0.4-1-1-1s-1,0.4-1,1v3.3h-3.3c-0.6,0-1,0.4-1,1s0.4,1,1,1H50v3.3c0,0.6,0.4,1,1,1s1-0.4,1-1v-3.3  h3.3c0.6,0,1-0.4,1-1S55.9,73.4,55.3,73.4z"/></svg>