<svg xmlns="http://www.w3.org/2000/svg" xmlns:xlink="http://www.w3.org/1999/xlink" version="1.1" x="0px" y="0px" viewBox="0 0 100 125" style="enable-background:new 0 0 100 100;" xml:space="preserve"><path d="M59.944,67.127h-4.996v-4.996c0-0.552-0.447-1-1-1H46.12c-0.553,0-1,0.448-1,1v4.996h-4.995c-0.553,0-1,0.448-1,1v7.828  c0,0.552,0.447,1,1,1h4.995v4.996c0,0.552,0.447,1,1,1h7.828c0.553,0,1-0.448,1-1v-4.996h4.996c0.553,0,1-0.448,1-1v-7.828  C60.944,67.575,60.497,67.127,59.944,67.127z M58.944,74.956h-4.996c-0.553,0-1,0.448-1,1v4.996H47.12v-4.996c0-0.552-0.447-1-1-1  h-4.995v-5.828h4.995c0.553,0,1-0.448,1-1v-4.996h5.828v4.996c0,0.552,0.447,1,1,1h4.996V74.956z"/><path d="M22.113,89c0,0.552,0.447,1,1,1h53.773c0.553,0,1-0.448,1-1V72.312c0-11.797-8.683-21.395-19.355-21.395h-0.386v-7.01  c4.469-2.802,7.289-7.74,7.289-13.201c0-3.448-1.15-6.802-3.255-9.526V11c0-0.552-0.447-1-1-1H38.574c-0.553,0-1,0.448-1,1v10.185  c-2.102,2.724-3.251,6.076-3.251,9.521c0,5.522,2.885,10.508,7.448,13.294v6.917h-0.297c-10.676,0-19.361,9.601-19.361,21.402V89z   M63.403,29.997c-4.387-0.19-8.272-3.623-9.872-5.251c1.135-0.749,2.215-1.573,3.198-2.483c0.008-0.008,0.011-0.019,0.019-0.027  h3.702C62.223,24.456,63.254,27.171,63.403,29.997z M60.18,12v8.236H39.574V12H60.18z M39.308,22.236h14.314  c-5.934,4.417-14.403,6.395-17.203,6.953C36.706,26.655,37.705,24.244,39.308,22.236z M36.344,31.243  c2.034-0.372,9.211-1.87,15.437-5.424c1.554,1.662,6.109,5.968,11.586,6.177c-0.502,5.324-4.076,9.891-9.223,11.601  c-4.554,1.203-8.48,0.016-8.504,0.009C40.239,41.825,36.566,36.896,36.344,31.243z M45.027,45.511  c0.121,0.038,2.057,0.631,4.846,0.631c1.425,0,3.073-0.155,4.814-0.619c0.02-0.005,0.038-0.011,0.057-0.017  c0.481-0.159,0.945-0.346,1.401-0.547v6.395l-0.221,0.134c-3.657,2.221-8.207,2.232-11.876,0.03l-0.277-0.167v-6.319  C44.181,45.208,44.598,45.369,45.027,45.511z M24.113,72.32c0-11.984,9.012-19.402,17.361-19.402h1.02l0.525,0.315  c2.144,1.287,4.543,1.93,6.943,1.93c2.422,0,4.844-0.655,7-1.965l0.462-0.28h1.106c8.347,0,17.355,7.415,17.355,19.395V88H24.113  V72.32z"/></svg>