<svg xmlns="http://www.w3.org/2000/svg" xmlns:xlink="http://www.w3.org/1999/xlink" version="1.1" x="0px" y="0px" viewBox="0 0 100 125" style="enable-background:new 0 0 100 100;" xml:space="preserve"><style type="text/css">
	.st0{fill:none;stroke:#000000;stroke-width:2;stroke-linecap:round;stroke-miterlimit:10;}
	.st1{fill:none;stroke:#000000;stroke-width:2;stroke-linecap:round;stroke-linejoin:round;stroke-miterlimit:10;}
	.st2{stroke:#000000;stroke-width:2;stroke-linecap:round;stroke-linejoin:round;stroke-miterlimit:10;}
	.st3{fill:none;stroke:#000000;stroke-width:2;stroke-miterlimit:10;}
</style><path d="M41.8,51.5c-10,0-18.5,9.8-18.5,21.4v15.9c0,0.6,0.4,1,1,1h51.3c0.6,0,1-0.4,1-1V72.9c0-11.6-8.5-21.4-18.5-21.4h-0.3v-5.6  c4.3-2.7,7-7.4,7-12.6c0-3.3-1.1-6.5-3.1-9.1V12.5c0-0.6-0.4-1-1-1H39.1c-0.6,0-1,0.4-1,1v11.7c-2,2.6-3.1,5.8-3.1,9.1  c0,5.3,2.8,10,7.1,12.7v5.6H41.8z M59.6,64.7c0.9,0,1.6,0.7,1.6,1.6s-0.7,1.6-1.6,1.6S58,67.1,58,66.2S58.7,64.7,59.6,64.7z   M58.6,53.5v9.3c-1.5,0.4-2.6,1.8-2.6,3.4c0,2,1.6,3.6,3.6,3.6s3.6-1.6,3.6-3.6c0-1.6-1.1-3-2.6-3.4v-9.1  c7.7,1.5,14.1,9.8,14.1,19.1v14.9H25.3V72.9c0-9.2,6.2-17.4,13.8-19.1v8.9c-4.4,0.5-7.9,4.3-7.9,8.8v5.1c0,0.6,0.4,1,1,1s1-0.4,1-1  v-5.1c0-3.8,3.1-6.9,6.9-6.9s6.9,3.1,6.9,6.9v5.1c0,0.6,0.4,1,1,1s1-0.4,1-1v-5.1c0-4.6-3.5-8.3-7.9-8.8v-9.2c0.2,0,0.5,0,0.7,0h1  l0.5,0.3c2.1,1.2,4.4,1.8,6.6,1.8c2.3,0,4.6-0.6,6.7-1.9l0.4-0.3h1C58.3,53.5,58.4,53.5,58.6,53.5z M62.7,32.1  c-3.9-0.4-7.4-3.4-8.8-4.9c0.9-0.6,1.7-1.3,2.5-2c0,0,0,0,0,0h3.5C61.5,27.2,62.5,29.6,62.7,32.1z M59.6,13.5v9.8H40.1v-9.8H59.6z   M39.8,25.2h13.5c-5.6,4.1-13.5,6-16.2,6.5C37.4,29.4,38.3,27.1,39.8,25.2z M37,33.8c2-0.4,9.2-1.9,15.2-5.5  c1.4,1.5,5.5,5.4,10.5,5.8c-0.4,5.2-3.8,9.7-8.8,11.4c-4.3,1.1-8.1,0-8.1,0C40.7,43.8,37.2,39.2,37,33.8z M45.2,47.4  c0.1,0,2,0.6,4.6,0.6c1.4,0,2.9-0.1,4.6-0.6c0,0,0,0,0.1,0c0.4-0.1,0.9-0.3,1.3-0.5v5l-0.2,0.1c-3.5,2.1-7.8,2.1-11.3,0l-0.2-0.1v-5  C44.5,47.1,44.8,47.3,45.2,47.4z"/><path d="M47.7,19.3H49v1.2c0,0.6,0.4,1,1,1s1-0.4,1-1v-1.2h1.2c0.6,0,1-0.4,1-1s-0.4-1-1-1H51V16c0-0.6-0.4-1-1-1s-1,0.4-1,1v1.2  h-1.2c-0.6,0-1,0.4-1,1S47.2,19.3,47.7,19.3z"/></svg>