<svg xmlns="http://www.w3.org/2000/svg" xmlns:xlink="http://www.w3.org/1999/xlink" version="1.1" x="0px" y="0px" viewBox="0 0 100 125" style="enable-background:new 0 0 100 100;" xml:space="preserve"><path d="M85.369,80.181H71.17c4.535-5.576,7.716-12.372,9.208-19.803c0.22-1.1,0.394-2.213,0.537-3.323  c1.163-0.112,2.29-0.492,3.291-1.158c1.6-1.065,2.688-2.688,3.066-4.573c0.78-3.889-1.749-7.687-5.637-8.467  c-0.368-0.074-0.736-0.11-1.104-0.127c-0.688-3.664-1.821-7.152-3.386-10.379l4.043-3.028c0.812-0.608,1.338-1.496,1.482-2.5  c0.122-0.854-0.06-1.696-0.486-2.43l1.881-1.408c1.701-1.274,2.05-3.696,0.775-5.4l-4.524-6.039  c-1.274-1.701-3.696-2.049-5.399-0.775l-1.882,1.409c-1.308-1.368-3.458-1.592-5.011-0.431l-36,26.962  c-0.812,0.608-1.339,1.497-1.483,2.501c-0.064,0.449-0.037,0.896,0.055,1.327l-4.18,3.13c-0.441,0.331-0.532,0.958-0.201,1.4  l0.7,0.935l-0.629,0.471c-0.995,0.745-1.641,1.834-1.817,3.064c-0.177,1.231,0.136,2.457,0.881,3.453l2.335,3.117  c0.745,0.995,1.834,1.641,3.065,1.817c0.224,0.032,0.448,0.048,0.67,0.048c0.999,0,1.968-0.32,2.782-0.93l0.629-0.471l0.7,0.935  c0.159,0.212,0.396,0.353,0.658,0.391c0.048,0.007,0.096,0.01,0.143,0.01c0.215,0,0.426-0.069,0.6-0.199l4.18-3.131  c0.388,0.209,0.809,0.361,1.258,0.426c0.184,0.026,0.366,0.039,0.548,0.039c0.814,0,1.604-0.262,2.269-0.759l30.319-22.706  c1.377,2.917,2.39,6.052,3.023,9.343c-0.807,0.196-1.584,0.526-2.297,1c-1.599,1.064-2.688,2.688-3.066,4.572c0,0,0,0,0,0.001  c-0.78,3.888,1.749,7.687,5.638,8.467c0.034,0.007,0.069,0.009,0.103,0.015c-0.134,1.004-0.291,2.012-0.491,3.007  c-1.541,7.68-4.948,14.655-9.847,20.196H39.233v-3.562h5.235c0.553,0,1-0.447,1-1v-3.136c0-2.416-1.966-4.382-4.382-4.382H17.022  c-2.416,0-4.381,1.966-4.381,4.382v3.136c0,0.553,0.447,1,1,1h5.608v3.562h-4.619c-2.554,0-4.631,2.077-4.631,4.631V89  c0,0.553,0.447,1,1,1h78c0.553,0,1-0.447,1-1v-4.188C90,82.258,87.923,80.181,85.369,80.181z M76.118,12.371  c0.82-0.615,1.987-0.445,2.6,0.373l4.523,6.038c0.614,0.821,0.446,1.987-0.373,2.601l-1.846,1.382l-6.749-9.012L76.118,12.371z   M33.005,57.443c-0.567,0.425-1.268,0.599-1.97,0.504c-0.702-0.101-1.322-0.469-1.747-1.037l-2.335-3.117  c-0.878-1.172-0.639-2.84,0.534-3.717l0.629-0.471l5.518,7.368L33.005,57.443z M36.535,57.509L28.417,46.67l3.091-2.315  l8.117,10.839L36.535,57.509z M43.989,54.685c-0.385,0.287-0.857,0.408-1.333,0.34c-0.476-0.067-0.896-0.316-1.184-0.701  l-8.608-11.495c-0.288-0.385-0.409-0.858-0.341-1.333c0.068-0.476,0.317-0.896,0.702-1.184L69.225,13.35  c0.797-0.593,1.924-0.432,2.518,0.361l8.278,11.052c0,0,0,0.001,0.001,0.002c0,0,0.001,0.001,0.001,0.001l0.33,0.44  c0.287,0.384,0.408,0.857,0.341,1.333c-0.068,0.476-0.317,0.896-0.702,1.183L43.989,54.685z M75.897,52.787  c-0.77-1.154-1.042-2.539-0.77-3.898c0.273-1.36,1.06-2.533,2.215-3.302c1.155-0.77,2.54-1.042,3.899-0.769  c1.359,0.272,2.532,1.059,3.301,2.214c0.769,1.154,1.041,2.539,0.769,3.899c-0.272,1.359-1.059,2.532-2.214,3.301  c-1.155,0.77-2.538,1.043-3.899,0.769C77.839,54.729,76.666,53.942,75.897,52.787z M14.642,72.482c0-1.313,1.068-2.382,2.381-2.382  h24.064c1.313,0,2.382,1.068,2.382,2.382v2.136H14.642V72.482z M21.25,76.618h15.983v3.562H21.25V76.618z M88,88H12v-3.188  c0-1.45,1.181-2.631,2.631-2.631h70.738c1.45,0,2.631,1.181,2.631,2.631V88z"/><path d="M66.57,21.129l-5.963,4.466c-0.929,0.695-1.531,1.711-1.696,2.859c-0.164,1.148,0.128,2.292,0.824,3.221  c0.695,0.929,1.71,1.531,2.858,1.696c0.209,0.029,0.418,0.045,0.626,0.045c0.933,0,1.836-0.3,2.595-0.868l5.963-4.466  c0.928-0.695,1.53-1.711,1.695-2.859s-0.127-2.292-0.823-3.221C71.215,20.085,68.487,19.694,66.57,21.129z M71.493,24.938  c-0.089,0.619-0.414,1.167-0.915,1.542l-5.963,4.467c-0.502,0.376-1.115,0.536-1.737,0.443c-0.619-0.089-1.167-0.413-1.542-0.915  c0,0,0,0-0.001,0c-0.375-0.501-0.532-1.118-0.443-1.737s0.413-1.167,0.915-1.542l5.963-4.466c0.42-0.315,0.912-0.467,1.401-0.467  c0.713,0,1.419,0.324,1.878,0.938C71.424,23.702,71.582,24.318,71.493,24.938z"/></svg>