<svg xmlns="http://www.w3.org/2000/svg" xmlns:xlink="http://www.w3.org/1999/xlink" version="1.1" x="0px" y="0px" viewBox="0 0 100 125" style="enable-background:new 0 0 100 100;" xml:space="preserve"><path d="M56.6181641,10c-18.4067383,0-33.3813477,14.9746094-33.3813477,33.3818359  c0,18.0692139,14.432251,32.8202515,32.3735352,33.3562622C55.5266724,82.9614868,50.4450684,88,44.2026367,88H42.503418  c-3.0317383,0-5.8867188-1.1757812-8.0395508-3.3105469l-5.8706665-5.8231812  c1.3225708-1.6849976,1.9067383-3.8751221,1.6524048-6.2676392c-0.2817383-2.6572266-1.5732422-5.2568359-3.6357422-7.3193359  s-4.6616211-3.3535156-7.3188477-3.6357422c-2.7392578-0.2929688-5.2109375,0.515625-6.9643555,2.2695312  c-1.7543945,1.7539062-2.5605469,4.2275391-2.2695312,6.9648438c0.2817383,2.6572266,1.5732422,5.2558594,3.6357422,7.3183594  s4.6616211,3.3544922,7.3193359,3.6357422c0.3657227,0.0390625,0.7265625,0.0585938,1.0820312,0.0585938  c1.9157104,0,3.6574097-0.5671387,5.0653076-1.6296997l5.8961182,5.8484497C35.5849609,88.6181641,38.9404297,90,42.503418,90  h1.6992188c7.3453369,0,13.3237305-5.9356689,13.4077148-13.2614746C75.5587769,76.2106323,90,61.4562988,90,43.3818359  C90,24.9746094,75.0249023,10,56.6181641,10z M21.2231445,79.84375c-2.2041016-0.234375-4.3759766-1.3212891-6.1162109-3.0615234  s-2.8271484-3.9121094-3.0610352-6.1162109c-0.2255859-2.1240234,0.3764648-4.0205078,1.6948242-5.3388672  c1.137207-1.1367188,2.7036133-1.7412109,4.4760742-1.7412109c0.2827148,0,0.5703125,0.015625,0.862793,0.046875  c2.2041016,0.2333984,4.3759766,1.3203125,6.1162109,3.0605469s2.8271484,3.9121094,3.0610352,6.1162109  c0.2255859,2.125-0.3764648,4.0205078-1.6948242,5.3388672S23.3486328,80.0693359,21.2231445,79.84375z M56.6181641,74.7636719  c-17.3037109,0-31.3813477-14.078125-31.3813477-31.3818359S39.3144531,12,56.6181641,12C73.9223633,12,88,26.078125,88,43.3818359  S73.9223633,74.7636719,56.6181641,74.7636719z"/><path d="M56.6181641,16.40625c-14.8740234,0-26.9750977,12.1015625-26.9750977,26.9755859  s12.1010742,26.9755859,26.9750977,26.9755859c14.8745117,0,26.9755859-12.1015625,26.9755859-26.9755859  S71.4926758,16.40625,56.6181641,16.40625z M69.9555664,64.4820557l-1.8198242-3.1519775  c-0.2768555-0.4794922-0.8891602-0.6435547-1.3662109-0.3662109c-0.4785156,0.2763672-0.6420898,0.8876953-0.3662109,1.3662109  l1.8221436,3.1560669c-3.192688,1.6834717-6.7905273,2.6947021-10.6072998,2.8459473v-3.6484985c0-0.5527344-0.4477539-1-1-1  s-1,0.4472656-1,1v3.6484985c-3.8166504-0.1511841-7.4143677-1.1624756-10.6069336-2.8458252l1.8222656-3.156189  c0.2758789-0.4785156,0.1123047-1.0898438-0.3662109-1.3662109c-0.480957-0.2773438-1.090332-0.1132812-1.3662109,0.3662109  l-1.8198853,3.1520996c-3.1251831-1.9825439-5.7805786-4.6378174-7.7630615-7.7631226l3.1522827-1.8206177  c0.4785156-0.2763672,0.6420898-0.8876953,0.3657227-1.3662109c-0.2758789-0.4785156-0.8881836-0.6435547-1.3657227-0.3662109  l-3.15625,1.822876c-1.6832886-3.192627-2.6945801-6.7904053-2.8457642-10.6070557h3.6480103c0.5522461,0,1-0.4472656,1-1  s-0.4477539-1-1-1H31.668396c0.1512451-3.8167114,1.1624146-7.4144897,2.8457642-10.6071777l3.15625,1.8220215  C37.828125,33.6875,38,33.7304688,38.1694336,33.7304688c0.3457031,0,0.6816406-0.1796875,0.8671875-0.5  c0.2758789-0.4785156,0.1118164-1.0898438-0.3662109-1.3662109l-3.1522217-1.8197021  c1.9825439-3.1253052,4.6380005-5.7808228,7.7633667-7.7633057l1.819519,3.1523438c0.1855469,0.3203125,0.5214844,0.5,0.8671875,0.5  c0.1694336,0,0.3413086-0.0429688,0.4990234-0.1337891c0.4780273-0.2763672,0.6420898-0.8876953,0.3662109-1.3662109  l-1.8218994-3.1563721c3.1924438-1.6832275,6.7900391-2.694458,10.6065674-2.8456421v3.6484985c0,0.5527344,0.4477539,1,1,1  s1-0.4472656,1-1v-3.6484985c3.8165894,0.1511841,7.4143066,1.1624756,10.6069336,2.8457642l-1.8217773,3.15625  c-0.2758789,0.4785156-0.1118164,1.0898438,0.3662109,1.3662109c0.1577148,0.0908203,0.3295898,0.1337891,0.4990234,0.1337891  c0.3457031,0,0.6816406-0.1796875,0.8671875-0.5l1.819458-3.1521606c3.1253052,1.9825439,5.7807007,4.6378174,7.7632446,7.7631836  l-3.1520386,1.8196411c-0.4780273,0.2763672-0.6420898,0.8876953-0.3662109,1.3662109  c0.1855469,0.3203125,0.5214844,0.5,0.8671875,0.5c0.1694336,0,0.3413086-0.0429688,0.4990234-0.1337891l3.1561279-1.8219604  c1.6833496,3.192627,2.6946411,6.7904053,2.8458862,10.6071167h-3.6480103c-0.5522461,0-1,0.4472656-1,1s0.4477539,1,1,1h3.6480103  c-0.1511841,3.8166504-1.1624756,7.4144287-2.8458252,10.6070557l-3.156189-1.822876  c-0.4785156-0.2773438-1.0898438-0.1132812-1.3657227,0.3662109c-0.2763672,0.4785156-0.112793,1.0898438,0.3657227,1.3662109  l3.1520996,1.8204956C75.7360229,59.8441772,73.0807495,62.4995728,69.9555664,64.4820557z"/><path d="M57.6181641,37.2402954v-7.1709595c0-0.5527344-0.4477539-1-1-1s-1,0.4472656-1,1v7.1709595  c-2.9597168,0.480957-5.2290039,3.0481567-5.2290039,6.1415405c0,3.4345703,2.7944336,6.2285156,6.2290039,6.2285156  s6.2290039-2.7939453,6.2290039-6.2285156C62.847168,40.2884521,60.5778809,37.7212524,57.6181641,37.2402954z   M56.6181641,47.6103516c-2.3320312,0-4.2290039-1.8964844-4.2290039-4.2285156s1.8969727-4.2294922,4.2290039-4.2294922  s4.2290039,1.8974609,4.2290039,4.2294922S58.9501953,47.6103516,56.6181641,47.6103516z"/></svg>