<svg xmlns="http://www.w3.org/2000/svg" xmlns:xlink="http://www.w3.org/1999/xlink" version="1.1" x="0px" y="0px" viewBox="0 0 100 125" style="enable-background:new 0 0 100 100;" xml:space="preserve"><style type="text/css">
	.st0{fill:none;stroke:#000000;stroke-width:2;stroke-linecap:round;stroke-miterlimit:10;}
	.st1{fill:none;stroke:#000000;stroke-width:2;stroke-linecap:round;stroke-linejoin:round;stroke-miterlimit:10;}
	.st2{stroke:#000000;stroke-width:2;stroke-linecap:round;stroke-linejoin:round;stroke-miterlimit:10;}
	.st3{fill:none;stroke:#000000;stroke-width:2;stroke-miterlimit:10;}
</style><path d="M50,89.7c0.6,0,1-0.4,1-1V85h17.8c3.7,0,6.6-3,6.6-6.6V22c0-3.7-3-6.6-6.6-6.6H55.9v-1c0-3.3-2.7-6-6-6s-6,2.7-6,6v1H31.1  c-3.7,0-6.6,3-6.6,6.6v56.3c0,3.7,3,6.6,6.6,6.6H49v3.7C49,89.2,49.4,89.7,50,89.7z M46,14.5c0-2.2,1.8-4,4-4s4,1.8,4,4v1h-8V14.5z   M31.1,83c-2.5,0-4.6-2.1-4.6-4.6V22c0-2.5,2.1-4.6,4.6-4.6h37.6c2.5,0,4.6,2.1,4.6,4.6v56.3c0,2.5-2.1,4.6-4.6,4.6H51v-3.7h10.5  c1.9,0,3.6-1.1,4.4-2.9l1.9-4.6c1.1-2.6,1.7-5.4,1.7-8.3l0-37.4c0-1.3-0.5-2.6-1.5-3.5c-0.9-0.9-2.2-1.5-3.5-1.5H35.5  c-1.3,0-2.6,0.5-3.5,1.5c-0.9,0.9-1.5,2.2-1.5,3.5l0,37.4c0,2.9,0.6,5.7,1.7,8.3l1.9,4.6c0.7,1.8,2.5,2.9,4.4,2.9H49V83H31.1z   M50,72.4c-0.6,0-1,0.4-1,1v3.8H38.5c-1.1,0-2.1-0.7-2.5-1.7L34,71c-0.7-1.6-1.1-3.2-1.3-4.9h3.6c0.6,0,1-0.4,1-1s-0.4-1-1-1h-3.8  c0-0.2,0-0.4,0-0.7l0-4.6h3.9c0.6,0,1-0.4,1-1s-0.4-1-1-1h-3.9l0-5.2h3.9c0.6,0,1-0.4,1-1s-0.4-1-1-1h-3.9l0-1.8h34.9l0,15.6  c0,2.6-0.5,5.1-1.5,7.5L64,75.6c-0.4,1-1.4,1.7-2.5,1.7H51v-3.8C51,72.9,50.5,72.4,50,72.4z M32.5,26.1c0-0.8,0.3-1.5,0.9-2.1  c0.6-0.6,1.3-0.9,2.1-0.9h28.9c0.8,0,1.5,0.3,2.1,0.9c0.6,0.6,0.9,1.3,0.9,2.1l0,19.8H32.5l0-1.5h3.9c0.6,0,1-0.4,1-1s-0.4-1-1-1  h-3.9l0-5.2h3.9c0.6,0,1-0.4,1-1s-0.4-1-1-1h-3.9l0-5.2h3.9c0.6,0,1-0.4,1-1s-0.4-1-1-1h-3.9L32.5,26.1z"/></svg>