<svg xmlns="http://www.w3.org/2000/svg" xmlns:xlink="http://www.w3.org/1999/xlink" version="1.1" x="0px" y="0px" viewBox="0 0 100 125" style="enable-background:new 0 0 100 100;" xml:space="preserve"><path d="M36.0581055,79.7255859h-1.1943359V28.3295898c0-3.2387695-2.5512695-5.8740234-5.6875-5.8740234H28.543457v-3.347168  c0-2.2753906-1.6817017-4.1794434-3.9121094-4.625061V11c0-0.5522461-0.4477539-1-1-1s-1,0.4477539-1,1v3.4833374  c-2.2303467,0.4456177-3.9116211,2.3496704-3.9116211,4.625061v3.347168H17.652832c-3.1362305,0-5.6875,2.6352539-5.6875,5.8740234  v51.3959961H11c-0.5522461,0-1,0.4477539-1,1s0.4477539,1,1,1h5.3310547V88h-2.4111328c-0.5522461,0-1,0.4477539-1,1  s0.4477539,1,1,1h18.8676758c0.5522461,0,1-0.4477539,1-1s-0.4477539-1-1-1h-2.2280273v-6.2744141h5.4985352  c0.5522461,0,1-0.4477539,1-1S36.6103516,79.7255859,36.0581055,79.7255859z M20.7197266,19.1083984  c0-1.5024414,1.3061523-2.7246094,2.9116211-2.7246094c1.605957,0,2.9121094,1.222168,2.9121094,2.7246094v3.347168h-5.8237305  V19.1083984z M17.652832,24.4555664h11.5234375c2.0332031,0,3.6875,1.737793,3.6875,3.8740234v14.34375H13.965332v-14.34375  C13.965332,26.1933594,15.6196289,24.4555664,17.652832,24.4555664z M13.965332,44.6733398h18.8984375v35.0522461H13.965332  V44.6733398z M28.5595703,88H18.3310547v-6.2744141h10.2285156V88z"/><path d="M22.8393555,70.5761719h-4.1948242c-0.5522461,0-1,0.4477539-1,1s0.4477539,1,1,1h4.1948242c0.5522461,0,1-0.4477539,1-1  S23.3916016,70.5761719,22.8393555,70.5761719z"/><path d="M22.8393555,61.2753906h-4.1948242c-0.5522461,0-1,0.4477539-1,1s0.4477539,1,1,1h4.1948242c0.5522461,0,1-0.4477539,1-1  S23.3916016,61.2753906,22.8393555,61.2753906z"/><path d="M18.6445312,53.9741211h4.1948242c0.5522461,0,1-0.4477539,1-1s-0.4477539-1-1-1h-4.1948242c-0.5522461,0-1,0.4477539-1,1  S18.0922852,53.9741211,18.6445312,53.9741211z"/><path d="M18.6445312,35.3720703h4.1948242c0.5522461,0,1-0.4477539,1-1s-0.4477539-1-1-1h-4.1948242c-0.5522461,0-1,0.4477539-1,1  S18.0922852,35.3720703,18.6445312,35.3720703z"/><path d="M90,36.7436523c0-4.7320557-3.2890015-7.512207-5.7872925-8.9441528  c1.9638062-1.0142822,3.3117065-3.0600586,3.3117065-5.4186401v-6.2265625c0-3.3632812-2.7358398-6.0991211-6.0991211-6.0991211  H47.7416992c-3.3632812,0-6.0991211,2.7358398-6.0991211,6.0991211v6.2265625c0,2.3684082,1.3595581,4.4208374,3.3366699,5.4306641  c-2.5119019,1.4297485-5.8122559,4.2044678-5.8122559,8.9321289v44.8041992  c-0.0019531,0.1479492-0.0273438,3.6591797,2.421875,6.1464844c1.5424805,1.5664062,3.6835938,2.3608398,6.3642578,2.3608398  h33.2607422c2.6806641,0,4.8217773-0.7944336,6.3642578-2.3608398C90.0273438,85.2070312,90.0019531,81.6958008,90,81.5629883  V36.7436523z M41.1669922,40.1499023H88v36.9824219H41.1669922V40.1499023z M43.6425781,22.3808594v-6.2265625  c0-2.2602539,1.8388672-4.0991211,4.0991211-4.0991211H81.425293c2.2602539,0,4.0991211,1.8388672,4.0991211,4.0991211v6.2265625  c0,2.2602539-1.8388672,4.0991211-4.0991211,4.0991211H47.7416992  C45.4814453,26.4799805,43.6425781,24.6411133,43.6425781,22.3808594z M48.3293457,28.4799805H80.921814  C81.5195312,28.6741333,88,30.914917,88,36.7436523v1.40625H41.1669922v-1.40625  C41.1669922,30.8007812,47.9625244,28.5946045,48.3293457,28.4799805z M86.140625,86.3037109  c-1.1518555,1.1621094-2.8095703,1.7514648-4.9267578,1.7514648H47.953125c-2.1171875,0-3.7749023-0.5893555-4.9267578-1.7514648  c-1.862793-1.8798828-1.8598633-4.7001953-1.859375-4.7407227v-2.4306641H88v2.4428711  C88.0004883,81.6035156,88.003418,84.4238281,86.140625,86.3037109z"/><path d="M80.0859375,24.496582c0.5522461,0,1-0.4477539,1-1v-8.0581055c0-0.5522461-0.4477539-1-1-1s-1,0.4477539-1,1v8.0581055  C79.0859375,24.0488281,79.5336914,24.496582,80.0859375,24.496582z"/><path d="M74.8852539,24.496582c0.5522461,0,1-0.4477539,1-1v-8.0581055c0-0.5522461-0.4477539-1-1-1s-1,0.4477539-1,1v8.0581055  C73.8852539,24.0488281,74.3330078,24.496582,74.8852539,24.496582z"/><path d="M69.684082,24.496582c0.5522461,0,1-0.4477539,1-1v-8.0581055c0-0.5522461-0.4477539-1-1-1s-1,0.4477539-1,1v8.0581055  C68.684082,24.0488281,69.1318359,24.496582,69.684082,24.496582z"/><path d="M64.4829102,24.496582c0.5522461,0,1-0.4477539,1-1v-8.0581055c0-0.5522461-0.4477539-1-1-1s-1,0.4477539-1,1v8.0581055  C63.4829102,24.0488281,63.9306641,24.496582,64.4829102,24.496582z"/><path d="M59.2822266,24.496582c0.5522461,0,1-0.4477539,1-1v-8.0581055c0-0.5522461-0.4477539-1-1-1s-1,0.4477539-1,1v8.0581055  C58.2822266,24.0488281,58.7299805,24.496582,59.2822266,24.496582z"/><path d="M54.081543,24.496582c0.5522461,0,1-0.4477539,1-1v-8.0581055c0-0.5522461-0.4477539-1-1-1s-1,0.4477539-1,1v8.0581055  C53.081543,24.0488281,53.5292969,24.496582,54.081543,24.496582z"/><path d="M48.8803711,24.496582c0.5522461,0,1-0.4477539,1-1v-8.0581055c0-0.5522461-0.4477539-1-1-1s-1,0.4477539-1,1v8.0581055  C47.8803711,24.0488281,48.328125,24.496582,48.8803711,24.496582z"/><path d="M65.1977539,43.6625977c-0.3652344-0.2807617-0.8735352-0.277832-1.234375,0.0107422  c-0.4238281,0.3378906-10.3774414,8.4013672-10.3774414,18.4384766c0,6.0639648,4.9335938,10.9975586,10.9975586,10.9975586  s10.9975586-4.9335938,10.9975586-10.9975586C75.5810547,51.7822266,65.621582,43.9892578,65.1977539,43.6625977z   M64.5834961,71.109375c-4.9614258,0-8.9975586-4.0361328-8.9975586-8.9975586  c0-7.7084961,6.8876953-14.4521484,9.0112305-16.347168c2.1269531,1.847168,8.9838867,8.418457,8.9838867,16.347168  C73.5810547,67.0732422,69.5449219,71.109375,64.5834961,71.109375z"/></svg>