<svg xmlns="http://www.w3.org/2000/svg" xmlns:xlink="http://www.w3.org/1999/xlink" version="1.1" x="0px" y="0px" viewBox="0 0 100 125" style="enable-background:new 0 0 100 100;" xml:space="preserve"><path d="M40.4541016,56.7700195h4.7758789v4.7758789c0,0.5522461,0.4477539,1,1,1h7.5400391c0.5522461,0,1-0.4477539,1-1v-4.7758789  h4.7758789c0.5522461,0,1-0.4477539,1-1v-7.5400391c0-0.5522461-0.4477539-1-1-1h-4.7758789v-4.7758789c0-0.5522461-0.4477539-1-1-1  h-7.5400391c-0.5522461,0-1,0.4477539-1,1v4.7758789h-4.7758789c-0.5522461,0-1,0.4477539-1,1v7.5400391  C39.4541016,56.3222656,39.9018555,56.7700195,40.4541016,56.7700195z M41.4541016,49.2299805h4.7758789  c0.5522461,0,1-0.4477539,1-1v-4.7758789h5.5400391v4.7758789c0,0.5522461,0.4477539,1,1,1h4.7758789v5.5400391h-4.7758789  c-0.5522461,0-1,0.4477539-1,1v4.7758789h-5.5400391v-4.7758789c0-0.5522461-0.4477539-1-1-1h-4.7758789V49.2299805z"/><path d="M50.1918945,10.0004883C50.1806641,10,50.1699219,10,50.1586914,10h-0.3173828  c-0.0112305,0-0.0219727,0-0.0332031,0.0004883c-16.4057617,0.050293-28.0449219,3.6396484-34.5947266,10.6694336  c-5.5947266,6.0048828-5.2216797,12.2568359-5.2055664,12.4492188V89c0,0.5522461,0.4477539,1,1,1s1-0.4477539,1-1  l-0.0004272-9.1972656h75.9848022V89c0,0.5522461,0.4477539,1,1,1s1-0.4477539,1-1l-0.0024414-55.8100586  c0.0185547-0.2631836,0.3916016-6.5151367-5.203125-12.5200195C78.2368164,13.6401367,66.5976562,10.0507812,50.1918945,10.0004883z   M67.8828125,35.579834c-9.4638062-1.1177368-21.6842041-1.5484619-35.765625,0.2495117V23.0175781  c0-2.1425781,1.7441406-3.8857422,3.8881836-3.8857422h27.9892578c2.144043,0,3.8881836,1.7431641,3.8881836,3.8857422V35.579834z   M66.5634766,37.3896484c12.328064,1.3563232,20.1610718,3.9768066,21.4287109,4.4220581v25.8108521H12.006897l-0.0011597-25.784668  C34.7697754,35.7120361,54.2283325,36.0311279,66.5634766,37.3896484z M12.0073242,77.8027344l-0.0003662-8.1801758h75.9852295  v8.1801758H12.0073242z M87.9921875,33.1191406v6.5841675c-2.2474365-0.7311401-8.6366577-2.611145-18.109375-3.8735962V23.0175781  c0-3.2456055-2.6416016-5.8857422-5.8881836-5.8857422H36.0053711c-3.246582,0-5.8881836,2.6401367-5.8881836,5.8857422v13.0809326  c-5.7622681,0.8132935-11.817688,2.0039673-18.1115112,3.6742554l-0.0003052-6.7210083  c-0.003418-0.0566406-0.3046875-5.7128906,4.7158203-11.065918C22.8266602,15.4750977,34.3320312,12.0234375,50,12  c15.6679688,0.0234375,27.1733398,3.4750977,33.2788086,9.9858398  C88.2993164,27.3388672,87.9980469,32.9951172,87.9921875,33.1191406z"/></svg>