<svg xmlns="http://www.w3.org/2000/svg" xmlns:xlink="http://www.w3.org/1999/xlink" version="1.1" x="0px" y="0px" viewBox="0 0 100 125" style="enable-background:new 0 0 100 100;" xml:space="preserve"><path d="M83.271,38.667c0.553,0,1-0.448,1-1v-15c0-0.552-0.447-1-1-1s-1,0.448-1,1v15C82.271,38.219,82.719,38.667,83.271,38.667z"/><path d="M83.271,53.976c0.553,0,1-0.448,1-1v-5.583c0-0.552-0.447-1-1-1s-1,0.448-1,1v5.583  C82.271,53.528,82.719,53.976,83.271,53.976z"/><path d="M48.271,27.185h7.334c0.553,0,1-0.448,1-1s-0.447-1-1-1h-7.334c-0.553,0-1,0.448-1,1S47.719,27.185,48.271,27.185z"/><path d="M48.271,35.185h7.334c0.553,0,1-0.448,1-1s-0.447-1-1-1h-7.334c-0.553,0-1,0.448-1,1S47.719,35.185,48.271,35.185z"/><path d="M55.605,49.185h-7.334c-0.553,0-1,0.448-1,1s0.447,1,1,1h7.334c0.553,0,1-0.448,1-1S56.158,49.185,55.605,49.185z"/><path d="M55.605,57.185h-7.334c-0.553,0-1,0.448-1,1s0.447,1,1,1h7.334c0.553,0,1-0.448,1-1S56.158,57.185,55.605,57.185z"/><path d="M10.916,90c0.553,0,1-0.448,1-1V46.613c0-1.89,1.538-3.428,3.429-3.428h7.435c1.891,0,3.429,1.538,3.429,3.428v37.958  c0,2.993,2.436,5.428,5.429,5.428h28.707c2.993,0,5.428-2.435,5.428-5.428V82.59c1.789-0.158,3.549-0.714,5.114-1.719l13.828-8.879  c3.258-2.091,5.202-5.65,5.202-9.522V20.143c0-3.023-2.459-5.482-5.481-5.482H70.34C69.865,12.016,67.552,10,64.771,10  c-2.779,0-5.093,2.016-5.567,4.662H45.109c-3.022,0-5.481,2.459-5.481,5.482V62.47c0,3.872,1.944,7.431,5.201,9.522l13.828,8.879  c1.566,1.006,3.326,1.561,5.114,1.719v1.981c0,1.89-1.538,3.428-3.428,3.428H31.637c-1.891,0-3.429-1.538-3.429-3.428V46.613  c0-2.993-2.436-5.428-5.429-5.428h-7.435c-2.993,0-5.429,2.435-5.429,5.428V89C9.916,89.552,10.363,90,10.916,90z M64.771,12  c1.67,0,3.067,1.131,3.506,2.662h-7.011C61.705,13.13,63.102,12,64.771,12z M45.109,16.661h39.325c1.92,0,3.481,1.562,3.481,3.482  v21.042H41.628V20.143C41.628,18.223,43.189,16.661,45.109,16.661z M45.909,70.309c-2.681-1.722-4.281-4.652-4.281-7.839V43.185  h46.288V62.47c0,3.188-1.601,6.118-4.282,7.839l-13.828,8.879c-3.058,1.964-7.009,1.965-10.068,0L45.909,70.309z"/></svg>