<svg xmlns="http://www.w3.org/2000/svg" xmlns:xlink="http://www.w3.org/1999/xlink" version="1.1" x="0px" y="0px" viewBox="0 0 100 125" style="enable-background:new 0 0 100 100;" xml:space="preserve"><path d="M61.669,50.012c0.195,0.195,0.451,0.293,0.707,0.293s0.512-0.098,0.707-0.293c0.391-0.391,0.391-1.023,0-1.414  L51.402,36.917c-0.391-0.391-1.023-0.391-1.414,0s-0.391,1.023,0,1.414L61.669,50.012z"/><path d="M57.312,54.369c0.195,0.195,0.451,0.293,0.707,0.293s0.512-0.098,0.707-0.293c0.391-0.391,0.391-1.023,0-1.414  L47.045,41.274c-0.391-0.391-1.023-0.391-1.414,0s-0.391,1.023,0,1.414L57.312,54.369z"/><path d="M52.955,58.726c0.195,0.195,0.451,0.293,0.707,0.293s0.512-0.098,0.707-0.293c0.391-0.391,0.391-1.023,0-1.414  L42.688,45.631c-0.391-0.391-1.023-0.391-1.414,0s-0.391,1.023,0,1.414L52.955,58.726z"/><path d="M36.917,51.402l11.681,11.681c0.195,0.195,0.451,0.293,0.707,0.293s0.512-0.098,0.707-0.293  c0.391-0.391,0.391-1.023,0-1.414L38.331,49.988c-0.391-0.391-1.023-0.391-1.414,0S36.526,51.011,36.917,51.402z"/><path d="M74.293,49.895l11.394-11.394c5.764-5.763,5.764-15.142,0-20.905l-3.283-3.283c-5.764-5.764-15.142-5.763-20.905,0  L50.105,25.707L38.711,14.313c-5.764-5.764-15.142-5.764-20.905,0l-3.283,3.283c-2.781,2.781-4.313,6.494-4.313,10.453  c0,3.959,1.532,7.671,4.313,10.453l11.394,11.394L14.313,61.499c-5.764,5.763-5.764,15.142,0,20.905l3.283,3.283  c2.882,2.882,6.667,4.323,10.453,4.323c3.786,0,7.571-1.441,10.453-4.323l11.604-11.604l11.604,11.604  c2.882,2.882,6.667,4.323,10.453,4.323c3.786,0,7.571-1.441,10.453-4.323l3.283-3.283c5.764-5.764,5.764-15.142,0-20.905  L74.293,49.895z M62.913,15.727c4.983-4.983,13.092-4.984,18.077,0l3.283,3.283c4.983,4.984,4.983,13.093,0,18.077L72.879,48.481  l-21.36-21.36L62.913,15.727z M71.465,49.895l-21.36,21.36l-21.36-21.36l21.36-21.36L71.465,49.895z M15.938,37.087  c-2.403-2.403-3.727-5.613-3.727-9.039c0-3.425,1.324-6.635,3.727-9.039l3.283-3.283c2.492-2.492,5.765-3.738,9.039-3.738  s6.546,1.246,9.039,3.738l11.394,11.394l-21.36,21.36L15.938,37.087z M37.087,84.273c-4.983,4.983-13.093,4.984-18.077,0  l-3.283-3.283c-4.983-4.984-4.983-13.093,0-18.077l11.604-11.604l21.36,21.36L37.087,84.273z M84.483,80.99l-3.283,3.283  c-4.983,4.984-13.093,4.983-18.078,0L51.519,72.669l21.36-21.36l11.604,11.604C89.467,67.897,89.467,76.006,84.483,80.99z"/></svg>