<svg xmlns="http://www.w3.org/2000/svg" xmlns:xlink="http://www.w3.org/1999/xlink" version="1.1" x="0px" y="0px" viewBox="0 0 100 125" style="enable-background:new 0 0 100 100;" xml:space="preserve"><style type="text/css">
	.st0{fill:none;stroke:#000000;stroke-width:2;stroke-linecap:round;stroke-miterlimit:10;}
	.st1{fill:none;stroke:#000000;stroke-width:2;stroke-linecap:round;stroke-linejoin:round;stroke-miterlimit:10;}
	.st2{stroke:#000000;stroke-width:2;stroke-linecap:round;stroke-linejoin:round;stroke-miterlimit:10;}
	.st3{fill:none;stroke:#000000;stroke-width:2;stroke-miterlimit:10;}
</style><circle cx="29.3" cy="51.1" r="3"/><path d="M81.3,9.8c-3,0-5.5,2.5-5.5,5.5c0,2.7,1.9,4.9,4.5,5.4v12.2c0,10-8.1,18.2-18.2,18.2C52.1,51,44,42.9,44,32.9V20.7  c2.5-0.5,4.5-2.7,4.5-5.4c0-3-2.5-5.5-5.5-5.5s-5.5,2.5-5.5,5.5c0,2.7,1.9,4.9,4.5,5.4v12.2c0,10.8,8.5,19.6,19.1,20.1v18.2  c0,8.5-6.9,15.4-15.4,15.4c-8.5,0-15.4-6.9-15.4-15.4V59.7c4.3-0.5,7.7-4.2,7.7-8.6c0-4.8-3.9-8.7-8.7-8.7c-4.8,0-8.7,3.9-8.7,8.7  c0,4.5,3.4,8.1,7.7,8.6v11.5c0,9.6,7.8,17.4,17.4,17.4s17.4-7.8,17.4-17.4V53c10.7-0.5,19.2-9.3,19.2-20.1V20.7  c2.5-0.5,4.5-2.7,4.5-5.4C86.7,12.3,84.3,9.8,81.3,9.8z M39.5,15.3c0-1.9,1.6-3.5,3.5-3.5c1.9,0,3.5,1.6,3.5,3.5  c0,1.9-1.6,3.5-3.5,3.5C41,18.8,39.5,17.2,39.5,15.3z M22.6,51.1c0-3.7,3-6.7,6.7-6.7s6.7,3,6.7,6.7c0,3.7-3,6.7-6.7,6.7  S22.6,54.8,22.6,51.1z M81.3,18.8c-1.9,0-3.5-1.6-3.5-3.5c0-1.9,1.6-3.5,3.5-3.5c1.9,0,3.5,1.6,3.5,3.5  C84.7,17.2,83.2,18.8,81.3,18.8z"/></svg>