<?xml version="1.0" encoding="UTF-8"?>
<!DOCTYPE svg PUBLIC "-//W3C//DTD SVG 1.1//EN" "http://www.w3.org/Graphics/SVG/1.1/DTD/svg11.dtd">
<!-- Creator: CorelDRAW -->
<svg xmlns="http://www.w3.org/2000/svg" xml:space="preserve" width="67mm" height="197mm" style="shape-rendering:geometricPrecision; text-rendering:geometricPrecision; image-rendering:optimizeQuality; fill-rule:evenodd; clip-rule:evenodd"
viewBox="0 0 67 197"
 xmlns:xlink="http://www.w3.org/1999/xlink">
 <defs>
  <style type="text/css">
   <![CDATA[
    .fil6 {fill:#843925}
    .fil4 {fill:#A36D66}
    .fil5 {fill:#B5AB62}
    .fil3 {fill:#BF7F77}
    .fil2 {fill:#E0A396}
    .fil7 {fill:#E88882}
    .fil1 {fill:#F49992}
    .fil0 {fill:#FFD0A6}
    .fil8 {fill:white}
   ]]>
  </style>
 </defs>
 <g id="Layer_x0020_1">
  <metadata id="CorelCorpID_0Corel-Layer"/>
  <path class="fil0" d="M63.4229 86.9268c-3.5207,-23.3289 -5.9231,-28.2896 -7.0696,-29.7773 -1.2699,-2.0938 -3.3162,-4.6136 -9.5145,-6.2837 0.0003,0 -7.7893,-3.031 -8.1139,-3.0533l0.0001 -4.2221c3.5984,-1.1737 8.7912,-4.3493 10.0506,-9.2586 2.5259,-0.1982 4.7307,-2.1325 5.2317,-4.8362 0.5609,-2.9965 -1.1642,-5.8695 -3.9088,-6.7038 0.4764,-3.8804 0.5397,-9.7938 0.3704,-11.0561 0,0 2.1484,-5.0507 1.1677,-8.7196 -0.4021,0.8139 -1.9085,2.0207 -2.7481,1.7561 0.9668,-0.9934 1.5451,-4.1299 0.6667,-4.803 -0.8643,2.18 -7.239,2.0884 -10.3752,1.7579 -7.4785,-0.7913 -13.1233,-0.1436 -17.4872,3.3196 -4.2967,3.4071 -5.8208,6.9846 -5.6585,14.7228 0.0109,0.5979 0.0741,1.8362 0.187,3.1207 -2.5824,0.9375 -4.1769,3.7116 -3.6372,6.6054 0.5012,2.6963 2.6952,4.6277 5.2141,4.8348 1.1961,5.0376 6.2618,8.2512 10.0683,9.3483l0 4.1338c-0.3243,0.0222 -8.1139,3.0533 -8.1139,3.0533 -6.1982,1.6701 -8.2444,4.19 -9.5145,6.2837 -1.1462,1.4876 -3.5454,6.4484 -7.0696,29.7773 -2.3213,15.3588 -2.9492,26.6164 -2.8399,26.6901 0.0071,2.1321 0.1799,6.9811 1.5346,10.0947 0.6247,1.4336 1.4464,2.8258 2.2966,3.8936 0.0319,0.2233 1.2841,1.3635 1.2735,1.3208 1.0869,0.8724 2.0779,0.9529 2.5894,-0.3866 0.381,-0.9984 -0.949,-7.2676 0.3316,-8.4307 0.3602,-0.326 0.702,-0.5401 1.0089,-0.5521 0.3955,-0.0155 0.3634,3.7719 0.4622,4.1536 0.3246,1.2905 2.3812,0.9991 2.4236,-0.4286l0.1695 -5.8555c0.0389,-0.8844 -0.0355,-2.1557 -0.7305,-2.8214 -0.7157,-0.6883 -1.7603,-0.5221 -1.9296,-1.7893 -0.247,-1.8853 0.522,-9.749 0.8219,-11.7712 1.8136,-12.326 5.4928,-33.3946 5.4928,-33.3946l1.6369 4.1937c0,0 0.8784,10.6346 1.0618,24.3516 0.0638,4.7935 0.6174,92.3245 0.6174,92.3245 -0.2258,0.073 -0.4586,0.1936 -0.7197,0.3686 0.0002,0 -8.0751,5.642 -8.83,6.3945 -1.3473,1.3483 1.1148,1.422 2.5365,1.3821l14.665 -0.1619c1.7288,-0.0402 3.3161,-0.2585 3.5277,-0.4864 0.0001,-0.0001 0.2575,-0.0131 0.3211,-1.2051 0.0001,0 1.1253,-79.6767 1.1535,-80.6764l2.5085 -0.0001c0.0282,0.9998 1.1498,80.6765 1.1498,80.6765 0.0639,1.192 0.3211,1.2051 0.3211,1.2051 0.2119,0.2279 1.7991,0.4462 3.5313,0.4864l14.6614 0.1619c1.422,0.0399 3.8841,-0.0338 2.5365,-1.3821 -0.7549,-0.7525 -8.83,-6.3945 -8.83,-6.3945 -0.2609,-0.175 -0.4939,-0.2956 -0.7197,-0.3686 0,-0.0001 0.5468,-87.6032 0.6032,-92.3245 0.1803,-15.1564 1.076,-24.3515 1.076,-24.3515l1.6407 -4.1938c0,0 3.6756,21.0686 5.489,33.3946 0.3002,2.0221 1.0688,9.8859 0.8219,11.7712 -0.1657,1.2671 -1.21,1.101 -1.9297,1.7893 -0.6911,0.6656 -0.769,1.9371 -0.7302,2.8215l0.1693 5.8553c0.0425,1.4278 2.0991,1.7192 2.4271,0.4287 0.0954,-0.3818 0.0635,-4.1691 0.4622,-4.1536 0.3036,0.0119 0.6456,0.2261 1.0089,0.5521 1.2771,1.163 -0.0529,7.4323 0.3281,8.4307 0.5152,1.3402 1.5028,1.259 2.5894,0.3852 -0.0105,0.0433 1.2453,-1.0961 1.2735,-1.3194 0.8504,-1.0679 1.6722,-2.4599 2.2966,-3.8936 1.355,-3.1137 1.5275,-7.9625 1.5346,-10.0947 0.1129,-0.0738 -0.5186,-11.3312 -2.8399,-26.6901z"/>
  <path class="fil1" d="M44.5634 72.8544c-1.2382,-1.8482 -3.2279,-1.8361 -4.6143,-1.2128 -0.9487,0.4258 -2.6176,0.4329 -3.0021,-0.2878 -2.2753,-2.1912 -2.7729,-1.0104 -0.7021,2.4549 1.1609,1.941 -1.1324,8.249 -3.6724,8.145 -1.2556,-0.0513 -2.2472,-0.4343 -3.3867,0.0289 -2.3774,0.9694 -4.9142,4.5914 -3.7853,7.741 0.4657,1.3042 1.7745,2.2736 2.6212,0.8625 0.4095,-0.6875 -0.1729,-1.2911 -0.3105,-1.8545 -0.134,-0.5405 0.1482,-1.4796 0.3387,-1.9791 0.4869,-1.281 1.0618,-1.9438 2.3142,-1.9787 1.6513,-0.0448 2.9563,0.556 4.2333,1.5688 1.6864,1.3352 3.7077,1.3483 5.6268,0.6822 4.1983,-1.4573 5.461,-4.7529 5.6374,-9.224 0.0532,-1.3449 -0.381,-3.5836 -1.2982,-4.9464z"/>
  <path class="fil2" d="M45.7735 101.688c0,3.6986 -1.7392,3.9205 -4.3639,4.6529 -2.3774,0.6621 -5.9832,0.9222 -8.4032,0.847 -1.5061,-0.0477 -4.191,0.0159 -5.7044,0.0159 -1.7886,-0.0001 -4.0781,-0.5754 -5.0624,-2.4081 -0.7723,-1.4383 -0.702,-3.5016 -0.7867,-5.1015 -0.0352,-0.7194 0.1658,-1.8789 0.2047,-2.5728 0.0141,-0.2551 0.6491,-2.0398 0.7337,-1.9219 -1.3896,-1.9484 -0.762,-3.8619 0.7303,-5.255 1.0619,-0.9928 2.5647,-1.1832 3.9088,-1.1832 0.007,-0.0001 13.7019,0 13.7019,0 2.7837,-0.0001 5.0411,2.7315 5.0411,6.0998l0.0001 6.8269z"/>
  <path class="fil3" d="M32.1317 101.641c-0.1377,0 -0.2789,-0.019 -0.4165,-0.0592 -0.6348,-0.1831 -1.1465,-0.7627 -1.2805,-1.4428 -0.081,-0.423 -0.2682,-0.6792 -0.4833,-0.6626 -0.1835,0.0117 -0.3952,0.2032 -0.4128,0.4925 -0.0457,0.6663 -0.7055,1.3056 -1.4429,1.396 -0.6876,0.0846 -1.2417,-0.3115 -1.4816,-1.0584 -0.328,-1.0273 0.3316,-1.839 0.8643,-2.4906 0.2083,-0.2586 0.4092,-0.5023 0.5221,-0.7242 0.2752,-0.5444 0.2117,-0.882 0.1058,-0.9666 -0.1128,-0.0918 -0.4162,-0.041 -0.8184,0.2829 -0.2608,0.2088 -0.4092,0.5581 -0.5645,0.9281 -0.2432,0.5775 -0.5185,1.2319 -1.3017,1.4277 -0.6453,0.1626 -1.3194,-0.0649 -1.8027,-0.6064 -0.5607,-0.6269 -0.7514,-1.542 -0.4762,-2.2765 0.0707,-0.1817 0.2716,-0.2741 0.455,-0.206 0.1836,0.0685 0.2752,0.2716 0.2047,0.454 -0.1834,0.4956 -0.0459,1.1219 0.3421,1.5586 0.3107,0.3481 0.7127,0.4907 1.1042,0.3923 0.4202,-0.1048 0.5857,-0.4554 0.8255,-1.0185 0.1729,-0.4142 0.374,-0.8833 0.7726,-1.2037 0.6457,-0.5183 1.2806,-0.6237 1.7039,-0.2811 0.4412,0.3576 0.4692,1.0604 0.0776,1.8341 -0.148,0.2892 -0.3704,0.5623 -0.6032,0.8509 -0.4901,0.5993 -0.9525,1.1666 -0.7373,1.8288 0.1341,0.4229 0.3775,0.6152 0.7232,0.5746 0.4023,-0.0497 0.8008,-0.4106 0.822,-0.7429 0.0426,-0.6097 0.515,-1.1148 1.0759,-1.1501 0.4693,-0.029 1.0337,0.2787 1.2171,1.233 0.0848,0.4194 0.4057,0.7895 0.7832,0.8989 0.3212,0.0931 0.6349,-0.0145 0.9136,-0.308 0.5542,-0.5916 0.3352,-1.1169 -0.0669,-1.9244 -0.1056,-0.2156 -0.2188,-0.4374 -0.3034,-0.6636 -0.3034,-0.8033 -0.2152,-1.6404 0.2152,-2.0835 0.187,-0.1916 0.6103,-0.4766 1.3334,-0.224 0.5399,0.1898 0.7868,0.6865 1.0019,1.1254 0.3036,0.6145 0.4586,0.8805 1.0301,0.7419 0.688,-0.1652 0.6774,-0.6675 0.4833,-1.8609 -0.1795,-1.0936 -0.4021,-2.455 0.9632,-3.0731 0.1765,-0.0797 0.388,-0.0014 0.4656,0.1764 0.0812,0.1771 0.0035,0.3866 -0.1764,0.4664 -0.8112,0.3686 -0.7514,1.1211 -0.5574,2.3174 0.1697,1.0353 0.3775,2.3248 -1.0124,2.6603 -1.1464,0.2768 -1.5382,-0.5292 -1.8274,-1.1169 -0.1727,-0.3483 -0.3352,-0.6767 -0.6033,-0.7705 -0.2715,-0.0942 -0.4692,-0.0773 -0.5962,0.0504 -0.2325,0.2389 -0.2575,0.8157 -0.0599,1.3413 0.0743,0.1923 0.1693,0.3895 0.2751,0.5976 0.3881,0.7765 0.8714,1.7438 -0.0529,2.7235 -0.3456,0.3678 -0.7691,0.5616 -1.2028,0.5615z"/>
  <path class="fil3" d="M30.5585 96.3656c-0.2437,0 -0.4942,-0.0659 -0.7518,-0.1996 -0.4654,-0.2385 -0.7761,-0.7179 -0.8784,-1.3497 -0.1411,-0.8884 0.1481,-1.9583 0.6738,-2.4903 0.1376,-0.1393 0.3598,-0.1404 0.501,-0.0028 0.1379,0.1365 0.1375,0.3606 0,0.4988 -0.3701,0.3743 -0.5822,1.2189 -0.4763,1.8825 0.0462,0.2868 0.1693,0.6635 0.5009,0.8336 0.2613,0.1336 0.4798,0.1559 0.6703,0.0691 0.6634,-0.3013 1.0196,-1.7466 1.2101,-2.5234l0.0565 -0.2163c0.0461,-0.188 0.2398,-0.303 0.4268,-0.2543 0.1908,0.0476 0.3034,0.2399 0.254,0.4286l-0.0494 0.211c-0.2361,0.9556 -0.6315,2.5541 -1.6052,2.9965 -0.1728,0.0779 -0.3492,0.1164 -0.5323,0.1163z"/>
  <path class="fil3" d="M34.7245 104.872c-0.1552,0 -0.2964,-0.1012 -0.3387,-0.2568 -0.2574,-0.9159 -0.5962,-3.6551 1.1606,-4.221 0.7656,-0.2459 1.39,0.2798 1.8909,0.702 0.3141,0.2653 0.6385,0.5384 0.8361,0.4805 0.2365,-0.0709 0.7232,-0.218 0.2857,-1.7984l-0.0667 -0.2407c-0.2222,-0.7786 -0.3989,-1.393 0.3349,-2.3575 0.2541,-0.3349 0.6173,-0.5363 1.0477,-0.5818 0.653,-0.0695 1.3335,0.2297 1.6898,0.5369 0.1482,0.1267 0.1658,0.3493 0.0388,0.4975 -0.1267,0.1488 -0.3492,0.1654 -0.4974,0.0384 -0.2468,-0.2134 -0.7408,-0.418 -1.1571,-0.3711 -0.2399,0.0254 -0.4234,0.1259 -0.5609,0.308 -0.5184,0.6826 -0.4269,1.0121 -0.2188,1.7356l0.0707 0.2473c0.1552,0.5546 0.6208,2.2441 -0.7621,2.661 -0.5642,0.1708 -1.0372,-0.2296 -1.4958,-0.6159 -0.4972,-0.4212 -0.8537,-0.6886 -1.2206,-0.5701 -1.1463,0.3693 -0.9137,2.5908 -0.6985,3.3584 0.0531,0.1873 -0.0564,0.3824 -0.2434,0.4347 -0.0317,0.0091 -0.0635,0.013 -0.0952,0.013z"/>
  <path class="fil3" d="M31.3554 106.6c-0.3524,0 -0.7232,-0.1295 -1.1148,-0.3888 -0.4902,-0.3224 -0.5326,-0.817 -0.5679,-1.2139 -0.035,-0.4533 -0.06,-0.7264 -0.5504,-0.9095 -0.4053,-0.1517 -0.6667,0.0971 -1.1606,0.6986 -0.4865,0.5919 -1.2241,1.4862 -2.4024,0.7076 -1.1147,-0.7387 -0.7973,-1.688 -0.568,-2.3812 0.2364,-0.7028 0.2858,-0.9963 -0.1199,-1.2877 -0.1692,-0.1235 -0.314,-0.091 -0.6527,0.0247 -0.6452,0.2219 -1.33,0.3295 -1.9508,-0.9673 -0.4478,-0.9353 -0.1976,-2.4737 0.5044,-3.1069 0.1483,-0.1295 0.3705,-0.1178 0.501,0.0268 0.1307,0.145 0.1164,0.368 -0.0282,0.4985 -0.4761,0.4289 -0.6562,1.621 -0.3422,2.2765 0.4023,0.8399 0.6314,0.7613 1.09,0.6053 0.3426,-0.1172 0.8079,-0.2783 1.2912,0.0706 0.8647,0.6219 0.5821,1.4661 0.3775,2.0821 -0.2466,0.7425 -0.3457,1.15 0.2857,1.5702 0.5928,0.3915 0.8749,0.1552 1.4676,-0.5676 0.4623,-0.5581 1.0336,-1.252 1.9543,-0.9116 0.9103,0.3397 0.9667,1.0178 1.009,1.5123 0.0283,0.3609 0.0529,0.5553 0.2505,0.6827 0.6247,0.4119 1.0336,0.3598 1.5099,-0.1895 0.1272,-0.1475 0.3492,-0.1626 0.4974,-0.0349 0.1482,0.128 0.1623,0.3507 0.0353,0.4981 -0.409,0.4706 -0.8432,0.7049 -1.3159,0.7049z"/>
  <path class="fil3" d="M39.9739 88.2712c-0.7691,-0.0759 -1.5876,-0.0903 -2.4202,-0.1228 -1.7426,-0.0674 -2.1731,0.1048 -3.9193,0.1048 -2.4695,-0.0001 -6.8051,0.0695 -9.2322,0.392 -2.2682,0.3012 -3.4326,1.8612 -3.6936,4.2636 -0.2081,1.9388 -0.7303,5.2606 1.3582,6.1105 1.3019,0.5291 2.5294,-0.0586 2.5929,-1.5759 0.0568,-1.3497 0.6915,-3.2438 2.293,-3.3447 2.1203,-0.1323 3.7924,0.127 5.9197,0.127 1.8735,0 5.0976,-0.4667 6.745,0.8887 1.4432,1.1898 2.0673,5.9792 0.3564,7.1783 -1.7636,1.2375 -4.2334,0.2233 -5.6762,0.363 -0.9666,0.0938 -1.9861,0.5401 -2.5436,1.4651 -0.5641,0.9341 -0.6314,2.4204 0.2082,3.1694 1.0339,0.9203 2.0461,0.4603 3.1962,0.3478 1.8239,-0.1792 2.9104,0.1111 6.0078,0.1111 1.3902,0 2.6881,-0.7422 3.6512,-1.9776 1.7006,-2.1834 1.2136,-6.7529 1.2136,-9.5127 0,-5.2102 -3.0551,-7.6927 -6.0571,-7.9876z"/>
  <path class="fil4" d="M32.6079 107.455c-0.148,0 -0.2964,-0.0951 -0.3494,-0.2377 -0.134,-0.344 -0.0494,-2.0002 1.27,-2.5569 1.034,-0.435 2.4483,-0.5362 3.2879,-0.2321 0.2473,0.0889 0.4727,0.1915 0.6879,0.2907 0.6246,0.2878 1.1219,0.5147 1.8662,0.2702 0.5892,-0.1923 0.9384,-0.5161 1.2489,-1.1564 0.3741,-0.7702 0.8537,-1.2464 1.6015,-1.5903 0.1097,-0.0508 0.2259,-0.0963 0.3387,-0.1418 0.4449,-0.1765 0.7232,-0.3017 0.8679,-0.6333 0.3175,-0.7275 0.0282,-1.6411 -0.2258,-2.4472l-0.0774 -0.242c-0.2365,-0.7712 -0.2578,-1.5998 -0.0672,-2.6081 0.1272,-0.6689 -0.0918,-1.3208 -0.2964,-1.7498 -0.2749,-0.5775 -0.7126,-0.878 -1.3758,-0.9461 -0.9101,-0.0925 -1.4781,-0.3881 -2.0285,-1.0548 -0.402,-0.4872 -1.023,-1.1399 -1.7533,-1.1875 -0.8077,-0.0544 -1.4464,0.1704 -2.2578,0.453l-0.2751 0.0949c-1.2732,0.4388 -1.9509,0.2572 -3.0939,-0.2314 -0.6173,-0.2653 -1.5522,-0.4967 -2.48,-0.102 -1.3861,0.5912 -1.9579,0.7366 -3.4184,0.2025 -1.2134,-0.4431 -2.5436,0.1736 -3.0975,1.434 -0.3312,0.7563 -0.2081,1.5957 -0.0775,2.484 0.159,1.0931 0.3245,2.2246 -0.3493,3.2945 -0.1021,0.1648 -0.321,0.2152 -0.4868,0.1112 -0.1622,-0.1035 -0.2152,-0.3211 -0.1094,-0.4865 0.533,-0.8503 0.3951,-1.8059 0.247,-2.8173 -0.1375,-0.9476 -0.2823,-1.9272 0.1305,-2.8691 0.7056,-1.6062 2.4165,-2.3855 3.9829,-1.8137 1.2736,0.4646 1.6509,0.3447 2.9033,-0.1887 0.9139,-0.3905 1.965,-0.3549 3.0339,0.1027 1.0375,0.443 1.5311,0.5767 2.5859,0.213l0.2717 -0.0945c0.8148,-0.2847 1.5874,-0.5525 2.5364,-0.4907 1.0057,0.0655 1.7674,0.8544 2.2507,1.4421 0.4271,0.5197 0.8361,0.7292 1.5557,0.8023 0.9069,0.0934 1.5629,0.5457 1.9403,1.3447 0.2505,0.5238 0.5151,1.3286 0.3528,2.1851 -0.1693,0.9024 -0.1552,1.602 0.0494,2.2681l0.0777 0.2377c0.2751,0.8784 0.6208,1.9728 0.1975,2.9422 -0.2681,0.6138 -0.7903,0.822 -1.2524,1.0058 -0.102,0.0415 -0.2046,0.0822 -0.3034,0.1277 -0.5959,0.2733 -0.9595,0.6378 -1.2629,1.258 -0.395,0.8116 -0.8926,1.2657 -1.6651,1.518 -1.0088,0.3312 -1.7075,0.0109 -2.3778,-0.2992 -0.2046,-0.0935 -0.4127,-0.1894 -0.635,-0.2684 -0.6701,-0.2421 -1.9121,-0.1436 -2.7728,0.219 -0.8287,0.3486 -0.9031,1.4048 -0.8855,1.6461 0.0072,0.0088 0.0106,0.0183 0.0141,0.0282 0.0638,0.1831 -0.0317,0.3852 -0.2151,0.4505 -0.035,0.013 -0.0741,0.0194 -0.1093,0.0193z"/>
  <path class="fil1" d="M39.1274 76.8066c-0.1905,0 -0.3813,-0.0511 -0.5541,-0.1591 -1.1112,-0.6932 -5.3446,-4.8253 -5.7397,-12.3673 -0.4019,-7.6497 -0.441,-13.9174 -0.4763,-19.9796 -0.0105,-1.7826 -0.0212,-3.562 -0.0423,-5.3728 -0.0071,-0.5846 0.4621,-1.0633 1.0477,-1.0699 0.0037,-0.0001 0.0071,0 0.0106,0 0.5789,-0.0001 1.0513,0.4663 1.0583,1.047 0.0214,1.8143 0.0318,3.5969 0.0424,5.3827 0.0354,6.0378 0.0741,12.2812 0.4727,19.8818 0.339,6.4615 3.8911,10.1237 4.7484,10.6839 0.4868,0.3167 0.635,0.9716 0.3245,1.4605 -0.2044,0.3178 -0.5432,0.4928 -0.8922,0.4928z"/>
  <path class="fil5" d="M29.8104 82.5646c-3.6616,-0.3411 -7.4085,5.7405 -1.8417,5.0307 3.0375,-0.3874 6.6676,-5.4592 1.5911,-5.0479l0.2506 0.0172z"/>
  <path class="fil6" d="M38.7285 76.1582c0.0707,1.2831 -2.0885,3.7268 -5.7291,5.5288 -2.6068,1.2904 -3.8912,4.2428 -6.7698,5.3929 -2.3422,0.9355 -4.9637,1.7039 -5.3023,-1.9452 -0.282,-3.0241 -0.7443,-7.6902 2.0038,-9.536 2.1096,-1.4182 5.0729,-0.4191 7.3942,-0.5422 1.0726,-0.0579 4.7237,0.1309 5.7573,0.0723 1.1716,-0.0663 2.5718,-0.2529 2.6459,1.0294z"/>
  <path class="fil1" d="M38.0832 34.4207c-0.1873,0.4509 -0.6,0.7913 -1.2421,0.7684 -2.3635,-0.0826 -4.632,0.5031 -7.0026,0.0882 -0.5818,-0.102 -0.8926,-0.4604 -0.9878,-0.8855 -1.7812,0.1372 -2.4589,1.5085 -2.4589,2.9545l0.0003 0.1083c0,1.5067 0.8535,2.7298 2.8078,2.758 0.0144,-0.6925 0.4657,-1.3511 1.3583,-1.3035 2.0355,0.109 4.0357,-0.2025 6.0571,0.1655 0.6916,0.1252 0.9984,0.6082 1.016,1.1342 1.8771,-0.0706 2.5683,-1.275 2.5683,-2.7542l0.0002 -0.1083c0,-1.378 -0.5329,-2.6857 -2.1166,-2.9256z"/>
  <path class="fil7" d="M35.8639 37.2507c0,0.7772 -1.1641,1.4076 -2.4483,1.4076l0.0004 -0.0001c-1.2454,0 -2.4486,-0.6303 -2.4486,-1.4075l0.0003 0c0,-0.7772 -0.0003,-0.5415 1.4072,-0.5415l2.0817 0c1.0549,0 1.4073,-0.2356 1.4073,0.5415z"/>
  <path class="fil8" d="M30.9677 35.581c0,0.5147 -0.4201,0.9324 -0.9317,0.9324l-0.5185 0c-0.5148,0 -0.9314,-0.4177 -0.9314,-0.9324l0.0003 -0.9234c0,-0.3312 0.416,-0.276 0.931,-0.276l0.5188 -0.0002c0.5116,0 0.9312,-0.0549 0.9312,0.2764l0.0003 0.9232z"/>
  <path class="fil8" d="M33.3453 35.581c0,0.5147 -0.4165,0.9324 -0.9316,0.9324l-0.515 0c-0.5147,0 -0.9313,-0.4177 -0.9313,-0.9324l0.0003 -0.9234c0,-0.3312 0.4159,-0.276 0.931,-0.276l0.5152 -0.0002c0.5151,0 0.9312,-0.0549 0.9312,0.2764l0.0002 0.9232z"/>
  <path class="fil8" d="M35.7266 35.581c0,0.5147 -0.4165,0.9324 -0.9316,0.9324l-0.515 0c-0.5148,0 -0.9349,-0.4177 -0.9349,-0.9324l0.0002 -0.9234c0,-0.3312 0.4196,-0.276 0.9346,-0.276l0.5152 -0.0002c0.5152,0 0.9312,-0.0549 0.9312,0.2764l0.0003 0.9232z"/>
  <path class="fil8" d="M38.1078 35.581c0,0.5147 -0.4165,0.9324 -0.9316,0.9324l-0.515 0c-0.5147,0 -0.9349,-0.4177 -0.9349,-0.9324l0.0003 -0.9234c0,-0.3312 0.4195,-0.276 0.9346,-0.276l0.5152 -0.0002c0.5151,0 0.9312,-0.0549 0.9312,0.2764l0.0002 0.9232z"/>
  <path class="fil8" d="M35.7266 39.1137c0,-0.5154 0.4195,-0.932 0.9346,-0.932l0.5152 0c0.5151,0 0.9312,0.4166 0.9312,0.932l0.0002 0.9232c0,0.3317 -0.4165,0.2763 -0.9316,0.2763l-0.515 -0.0001c-0.5147,0 -0.9349,0.0555 -0.9349,-0.2761l0.0003 -0.9233z"/>
  <path class="fil8" d="M33.3453 39.1137c0,-0.5154 0.4196,-0.932 0.9346,-0.932l0.5152 0c0.5152,0 0.9312,0.4166 0.9312,0.932l0.0003 0.9232c0,0.3317 -0.4165,0.2763 -0.9316,0.2763l-0.515 -0.0001c-0.5148,0 -0.9349,0.0555 -0.9349,-0.2761l0.0002 -0.9233z"/>
  <path class="fil8" d="M30.9677 39.1137c0,-0.5154 0.4159,-0.932 0.931,-0.932l0.5152 0c0.5151,0 0.9312,0.4166 0.9312,0.932l0.0002 0.9232c0,0.3317 -0.4165,0.2763 -0.9316,0.2763l-0.515 -0.0001c-0.5147,0 -0.9313,0.0555 -0.9313,-0.2761l0.0003 -0.9233z"/>
  <path class="fil8" d="M28.5864 39.1137c0,-0.5154 0.416,-0.932 0.931,-0.932l0.5188 0c0.5116,0 0.9312,0.4166 0.9312,0.932l0.0003 0.9232c0,0.3317 -0.4201,0.2763 -0.9317,0.2763l-0.5185 -0.0001c-0.5148,0 -0.9314,0.0555 -0.9314,-0.2761l0.0003 -0.9233z"/>
 </g>
</svg>
