<?xml version="1.0" encoding="UTF-8"?>
<!DOCTYPE svg PUBLIC "-//W3C//DTD SVG 1.1//EN" "http://www.w3.org/Graphics/SVG/1.1/DTD/svg11.dtd">
<!-- Creator: CorelDRAW -->
<svg xmlns="http://www.w3.org/2000/svg" xml:space="preserve" width="67mm" height="197mm" style="shape-rendering:geometricPrecision; text-rendering:geometricPrecision; image-rendering:optimizeQuality; fill-rule:evenodd; clip-rule:evenodd"
viewBox="0 0 67 197"
 xmlns:xlink="http://www.w3.org/1999/xlink">
 <defs>
  <style type="text/css">
   <![CDATA[
    .fil2 {fill:#DB7D7D}
    .fil1 {fill:#F49992}
    .fil0 {fill:#FFD0A6}
   ]]>
  </style>
 </defs>
 <g id="Layer_x0020_1">
  <metadata id="CorelCorpID_0Corel-Layer"/>
  <path class="fil0" d="M63.4803 86.7082c-3.5207,-23.3289 -5.9233,-28.2896 -7.0698,-29.7769 -1.27,-2.0942 -3.3161,-4.614 -9.5144,-6.2837 0.0001,-0.0001 -7.7894,-3.0314 -8.1139,-3.0537l0.0001 -4.2221c3.5983,-1.1737 8.7911,-4.349 10.0505,-9.2586 2.5259,-0.198 4.7273,-2.1322 5.2317,-4.8362 0.5611,-2.9965 -1.1641,-5.8695 -3.9123,-6.7038 0.4798,-3.8804 0.5433,-9.7935 0.3739,-11.0561 0.0002,0 2.1485,-5.0507 1.1677,-8.7192 -0.402,0.8135 -1.9085,2.0207 -2.7481,1.7561 0.9666,-0.9934 1.5416,-4.1303 0.6667,-4.8034 -0.8677,2.18 -7.239,2.0888 -10.3752,1.7579 -7.4788,-0.7911 -13.1233,-0.1436 -17.4871,3.3196 -4.2968,3.4075 -5.8226,6.9846 -5.66,14.7228 0.012,0.5979 0.0755,1.8362 0.1884,3.1207 -2.584,0.9375 -4.1773,3.7116 -3.6379,6.6054 0.5024,2.6966 2.6942,4.6277 5.2148,4.8348 1.1959,5.038 6.2618,8.2512 10.0683,9.3483l0.0001 4.1338c-0.3246,0.0222 -8.114,3.0537 -8.114,3.0537 -6.1983,1.6697 -8.2444,4.1896 -9.5151,6.2837 -1.145,1.4872 -3.5465,6.448 -7.0701,29.7769 -2.3194,15.3588 -2.9499,26.6164 -2.8398,26.6901 0.0078,2.1325 0.1813,6.9807 1.5349,10.0944 0.6234,1.4339 1.4468,2.8261 2.298,3.8939 0.029,0.2233 1.2841,1.3632 1.2732,1.3205 1.0874,0.8724 2.0761,0.9532 2.5887,-0.3867 0.3811,-0.998 -0.9476,-7.2672 0.3298,-8.4303 0.3628,-0.326 0.7042,-0.5397 1.0097,-0.5521 0.3969,-0.0155 0.3651,3.7719 0.4614,4.1533 0.3282,1.2908 2.3834,0.9994 2.4246,-0.4283l0.1712 -5.8551c0.0377,-0.8844 -0.0382,-2.1561 -0.7314,-2.8218 -0.7178,-0.6883 -1.7617,-0.5221 -1.929,-1.7893 -0.2475,-1.8849 0.5222,-9.749 0.8206,-11.7712 1.813,-12.326 5.4938,-33.3946 5.4938,-33.3946l1.6369 4.1941c0,0 0.8784,10.6345 1.0619,24.3516 0.0635,4.7931 0.6173,92.3241 0.6173,92.3241 -0.2256,0.073 -0.4586,0.1936 -0.7196,0.3686 0.0001,0 -8.0765,5.642 -8.8304,6.3945 -1.3482,1.3483 1.1162,1.422 2.5364,1.3821l14.6655 -0.1619c1.7286,-0.0402 3.316,-0.2585 3.5277,-0.4864 0,-0.0001 0.2575,-0.0131 0.321,-1.2051 0,0 1.1253,-79.6767 1.15,-80.6761l2.5118 -0.0001c0.0248,0.9995 1.15,80.6762 1.15,80.6762 0.0636,1.192 0.3211,1.2051 0.3211,1.2051 0.2117,0.2279 1.7992,0.4462 3.5313,0.4864l14.6616 0.1619c1.4216,0.0399 3.8839,-0.0338 2.5363,-1.3821 -0.7548,-0.7525 -8.83,-6.3945 -8.83,-6.3945 -0.2609,-0.175 -0.4939,-0.2956 -0.7197,-0.3686 0.0002,-0.0001 0.5468,-87.6032 0.6033,-92.3241 0.1765,-15.1568 1.0759,-24.3515 1.0759,-24.3515l1.6405 -4.1942c0,0 3.6759,21.0686 5.4892,33.3946 0.3,2.0221 1.0689,9.8863 0.822,11.7712 -0.1658,1.2671 -1.2136,1.101 -1.9297,1.7893 -0.6914,0.6656 -0.7691,1.9374 -0.7303,2.8218l0.1695 5.855c0.0422,1.4278 2.0989,1.7192 2.4269,0.4284 0.0954,-0.3815 0.0636,-4.1688 0.4622,-4.1533 0.3035,0.0123 0.6456,0.2261 1.0054,0.5521 1.2807,1.163 -0.0494,7.4323 0.3316,8.4303 0.5151,1.3406 1.5029,1.2591 2.5894,0.3856 -0.0105,0.043 1.2453,-1.0964 1.2735,-1.3197 0.8504,-1.0676 1.6722,-2.4596 2.2966,-3.8936 1.3547,-3.1137 1.5275,-7.9619 1.5346,-10.0944 0.113,-0.0738 -0.5186,-11.3312 -2.8397,-26.6901z"/>
  <path class="fil1" d="M33.6071 102.89c-0.8785,0 -1.5877,-0.7105 -1.5877,-1.5875l0.0002 -84.8069c0,-0.8765 0.7089,-1.5873 1.5873,-1.5873 0.8749,-0.0002 1.5875,0.7108 1.5875,1.5875l0.0002 84.8067c0,0.8769 -0.7128,1.5875 -1.5875,1.5875z"/>
  <path class="fil1" d="M46.9103 19.8009c0,0 0.1234,-1.8332 -0.5011,-3.0761 -0.9419,-1.8771 -2.995,-2.5153 -2.995,-2.4705 -0.8961,-4.7168 -6.6605,-4.7808 -9.4651,-3.2268 -0.2857,0.1586 -0.5362,0.3531 -0.7585,0.5771 -0.0564,-0.1051 -0.1093,-0.212 -0.1693,-0.315 -1.2982,-2.2035 -8.8335,-1.7519 -9.7296,2.9647 0,-0.0448 -2.0532,0.5934 -2.9951,2.4705 -0.6244,1.2427 -0.4974,3.0762 -0.4974,3.0762 -1.6756,1.8753 -1.0336,3.8174 0.1235,4.7851 1.7498,1.4662 5.4645,1.7216 7.6694,1.7212 1.697,-0.0004 4.2686,-0.1739 5.8666,-1.5314 1.6053,1.0498 4.0323,1.0065 5.6551,1.0068 2.205,0.0003 5.9161,0.2696 7.6694,-1.1966 1.1572,-0.9677 1.7991,-2.9097 0.1271,-4.7852z"/>
  <path class="fil2" d="M21.7149 21.1747c0.2364,0.0417 0.4585,0.0808 0.5749,0.138 0.4058,0.1936 0.6844,0.81 0.575,1.2679 -0.0739,0.3108 -0.3069,0.4628 -0.709,0.4512 -0.2186,0.0012 -0.3952,0.1697 -0.3987,0.3866 -0.0069,0.2173 0.1658,0.3969 0.3845,0.4004 0.0143,-0.0001 0.0247,0.0004 0.0388,0.0004 0.7515,-0.0001 1.2947,-0.3934 1.45,-1.0569 0.1941,-0.8175 -0.2646,-1.8059 -0.9984,-2.1587 -0.215,-0.1038 -0.4798,-0.1503 -0.7796,-0.2039 -0.7372,-0.1307 -1.5628,-0.279 -2.0603,-1.234 -0.0105,0.3816 0.0071,0.6353 0.0071,0.6353 -0.1022,0.1142 -0.1976,0.229 -0.2822,0.3433 0.6844,0.7601 1.591,0.9232 2.1979,1.0304z"/>
  <path class="fil2" d="M22.1559 16.2637c-0.24,0.6166 -0.039,1.2923 0.5572,1.8528 0.0742,0.0715 0.1729,0.1066 0.2682,0.1066 0.1058,-0.0002 0.2081,-0.0413 0.2857,-0.1232 0.1517,-0.1582 0.1446,-0.4071 -0.0141,-0.5559 -0.2503,-0.2365 -0.5186,-0.6008 -0.3634,-0.9952 0.1413,-0.3644 0.5574,-0.5944 0.8608,-0.5987 0.0284,-0.0005 0.0565,-0.0046 0.0847,-0.0109 0.6598,0.4835 1.4746,0.5387 2.2084,0.587 0.3705,0.0239 0.7196,0.0466 1.0513,0.115 0.494,0.1026 1.1747,0.495 1.4111,0.9504 0.1058,0.2063 0.1128,0.4007 0.0211,0.6107 -0.2433,0.5604 -1.0513,0.4406 -1.8909,0.2275 -0.6102,-0.1543 -1.1394,-0.0998 -1.531,0.1587 -0.3316,0.2172 -0.5433,0.5684 -0.6138,1.0153 -0.194,1.2371 0.5679,1.8377 1.2523,2.2568 -0.321,0.2666 -0.6209,0.6505 -0.7726,1.1049 -0.2328,0.6948 -0.0706,1.3881 0.4516,1.9519 0.0776,0.0836 0.1834,0.1256 0.2893,0.1256 0.0953,-0.0002 0.1905,-0.0346 0.2681,-0.1048 0.1588,-0.148 0.1658,-0.3965 0.0212,-0.5563 -0.3281,-0.3533 -0.4234,-0.7458 -0.2858,-1.1674 0.173,-0.5144 0.6173,-0.8689 0.8396,-0.944 0.2611,0.0877 0.5045,0.1252 0.7267,0.1252 0.4234,-0.0004 0.7761,-0.1312 1.0407,-0.2822 0.5822,-0.3338 1.0548,-0.9793 1.0548,-1.2238 0.0001,-0.2171 -0.1764,-0.3933 -0.3915,-0.3933 -0.1658,-0.0002 -0.3034,0.0995 -0.3634,0.2409 -0.081,0.1481 -0.4445,0.6615 -0.9913,0.8209 -0.3774,0.111 -0.7938,0.035 -1.2383,-0.225 -0.7796,-0.4605 -1.2523,-0.7846 -1.1218,-1.6059 0.0353,-0.2294 0.1235,-0.387 0.2681,-0.4815 0.1976,-0.1321 0.5186,-0.1507 0.9031,-0.0533 0.6774,0.172 2.2648,0.5743 2.8081,-0.6763 0.1836,-0.4266 0.1694,-0.8717 -0.0458,-1.2869 -0.4057,-0.7846 -1.39,-1.2421 -1.9509,-1.3586 -0.388,-0.0798 -0.7796,-0.1051 -1.1571,-0.1301 -0.8855,-0.0579 -1.6475,-0.1073 -2.1449,-0.786 -0.3245,-0.4365 -0.441,-0.7733 -0.4269,-1.203 0.0036,-0.0787 0.06,-0.2625 0.0988,-0.3838 0.0353,-0.112 0.0706,-0.2244 0.0847,-0.332 -0.1905,0.3693 -0.3316,0.7751 -0.4163,1.2185 0,-0.0138 -0.1905,0.0367 -0.4798,0.1634 0.0742,0.2839 0.2046,0.5595 0.3987,0.8498 -0.4692,0.1721 -0.8785,0.544 -1.0547,0.9962z"/>
  <path class="fil2" d="M28.3717 24.669c0.2929,-0.5112 0.8008,-0.8135 1.4287,-0.8502 0.815,-0.0488 1.6017,-0.1591 2.2755,-0.9683 0.5821,-0.7015 0.6914,-1.7851 0.2752,-2.6974 -0.1799,-0.3923 -0.4587,-0.7249 -0.7268,-1.046 -0.3526,-0.4208 -0.6809,-0.8184 -0.7443,-1.2904 -0.1094,-0.7967 0.1411,-0.9772 0.5573,-1.2771 0.1588,-0.1165 0.3422,-0.2483 0.501,-0.4254 0.7056,-0.7752 0.7302,-2.298 0.0494,-3.0752 -0.9631,-1.0986 -1.8062,-0.7045 -2.4836,-0.3874 -0.5043,0.2345 -0.9384,0.4371 -1.4922,0.1856 -0.0353,-0.0159 -0.0671,-0.0328 -0.0988,-0.0504 -0.0387,-0.039 -0.0882,-0.0709 -0.1411,-0.0914 -0.0035,-0.0015 -0.0071,-0.0014 -0.0106,-0.0028 -0.2116,-0.1539 -0.3422,-0.3521 -0.3775,-0.5853 -0.0564,-0.3588 0.1094,-0.7588 0.4481,-1.0693 0.5963,-0.545 1.4287,-0.6339 2.3071,-0.7281 0.3317,-0.0358 0.6668,-0.073 0.9948,-0.1365 -1.0511,-0.2364 -2.3671,-0.2103 -3.623,0.1192 -0.0705,0.0526 -0.1411,0.1041 -0.2081,0.1655 -0.5362,0.4889 -0.7973,1.1518 -0.6985,1.7734 0.0601,0.3739 0.2434,0.7006 0.5256,0.9595 -0.2221,0.3546 -0.6209,0.7081 -1.016,0.7949 -0.275,0.0599 -0.515,-0.0173 -0.7373,-0.2371 -0.1515,-0.1546 -0.4021,-0.1545 -0.5538,-0.0011 -0.1551,0.1531 -0.1552,0.4029 -0.0036,0.5564 0.3247,0.3229 0.702,0.4893 1.1113,0.4893 0.1165,-0.0001 0.2328,-0.0131 0.3528,-0.0395 0.6422,-0.1406 1.1994,-0.6428 1.5169,-1.1533 0.8327,0.3242 1.4993,0.0159 2.0356,-0.236 0.6386,-0.2975 0.9877,-0.4614 1.5592,0.1926 0.4234,0.4823 0.4022,1.5434 -0.0388,2.0278 -0.1058,0.1164 -0.2399,0.2141 -0.381,0.3168 -0.4655,0.3371 -1.0478,0.7567 -0.8784,2.0196 0.0954,0.697 0.5362,1.2245 0.9243,1.6895 0.2434,0.2948 0.4762,0.5733 0.6138,0.8703 0.2894,0.6332 0.2223,1.4009 -0.1658,1.8662 -0.4338,0.5217 -0.8996,0.6371 -1.7145,0.6854 -0.889,0.0528 -1.6404,0.5063 -2.0638,1.2439 -0.3809,0.6617 -0.388,1.3769 -0.201,2.0299 0.0318,-0.0001 0.0705,0.0007 0.1023,0.0007 0.2222,0 0.4656,-0.0032 0.7161,-0.012 -0.1693,-0.4565 -0.2646,-1.0594 0.0635,-1.6263z"/>
  <path class="fil2" d="M33.8045 11.1216c-0.2258,0.1403 -0.4339,0.2989 -0.6139,0.483 -0.0564,-0.1051 -0.1093,-0.212 -0.1693,-0.315 -0.0034,-0.0011 -0.0035,-0.0021 -0.0035,-0.0036 -0.0211,4.4078 -0.0141,10.5827 0.1517,13.7136 0.0989,-0.0711 0.1975,-0.1447 0.2892,-0.2237 0.1589,0.1044 0.3281,0.1947 0.5045,0.2791 -0.1339,-2.4339 -0.1905,-7.3061 -0.1587,-13.9334z"/>
  <path class="fil2" d="M34.817 13.2679c0.2363,0.3937 0.5856,0.6389 1.0018,0.7091 0.6668,0.1115 1.3759,-0.242 1.8169,-0.6106 0.6245,-0.5211 1.0618,-0.7726 1.598,-0.6086 0.5293,0.1633 0.7232,0.7606 0.6809,1.281 -0.0458,0.5283 -0.3387,1.0964 -0.8996,1.173 -0.268,0.0361 -0.5468,0.0222 -0.8431,0.0074 -0.5256,-0.027 -1.1219,-0.0565 -1.6934,0.2254 -0.4691,0.2338 -0.7972,0.6011 -0.9524,1.0622 -0.1622,0.4886 -0.1094,1.0446 0.1552,1.5656 0.0564,0.1114 0.1164,0.2177 0.1834,0.3189 -0.4127,0.3382 -0.6809,0.8083 -0.7267,1.3043 -0.0422,0.4141 0.0529,1.0347 0.7126,1.6379 0.0742,0.0688 0.1693,0.1027 0.2646,0.1027 0.1059,-0.0002 0.2116,-0.0427 0.2893,-0.1281 0.1482,-0.1606 0.1375,-0.4096 -0.0247,-0.556 -0.3315,-0.3041 -0.4904,-0.6438 -0.4586,-0.9825 0.0282,-0.2918 0.194,-0.5732 0.4515,-0.7807 0.4128,0.3719 0.9066,0.5934 1.4288,0.6178 0.0565,0.0027 0.1128,0.0042 0.1658,0.0042 1.1784,-0.0001 1.9861,-0.6202 2.0708,-1.6104 0.0212,-0.2548 0.1446,-0.3486 0.2363,-0.3959 0.3387,-0.176 0.9596,-0.0751 1.5099,0.2438 0.4235,0.2447 1.5029,0.7793 2.3848,0.4502 0.4235,-0.1574 0.7338,-0.4936 0.8996,-0.973 0.2928,-0.8428 -0.254,-1.7297 -0.949,-2.0997 -0.635,-0.3367 -1.3053,-0.2061 -1.7075,0.333 -0.1304,0.1734 -0.0952,0.4198 0.0777,0.5503 0.1729,0.1305 0.4233,0.0956 0.5503,-0.0783 0.1729,-0.2307 0.4128,-0.2674 0.7091,-0.1101 0.3988,0.2112 0.7232,0.7225 0.575,1.1476 -0.0881,0.2568 -0.2293,0.4181 -0.4304,0.4925 -0.4655,0.1739 -1.1888,-0.0893 -1.7145,-0.3937 -0.7971,-0.4607 -1.6863,-0.563 -2.2683,-0.2607 -0.3844,0.2006 -0.6174,0.5659 -0.6597,1.0266 -0.074,0.8818 -1.1007,0.9024 -1.4111,0.8876 -0.5786,-0.0269 -1.1219,-0.4396 -1.457,-1.1028 -0.1693,-0.3328 -0.2082,-0.6742 -0.1129,-0.9624 0.0882,-0.2584 0.2822,-0.4678 0.5574,-0.6057 0.3881,-0.1909 0.8325,-0.1686 1.3017,-0.145 0.3211,0.0161 0.6527,0.0328 0.9913,-0.0134 0.995,-0.1358 1.5064,-1.0463 1.577,-1.8884 0.0812,-1.0019 -0.4128,-1.8447 -1.2348,-2.0969 -1.0406,-0.3215 -1.8485,0.3531 -2.3318,0.7567 -0.3174,0.2638 -0.8044,0.5009 -1.1818,0.4381 -0.1905,-0.0318 -0.3387,-0.1429 -0.4587,-0.3393 -0.3949,-0.6555 -0.1128,-1.5308 0.247,-2.0804 0.1342,-0.2025 0.2857,-0.3753 0.441,-0.5175 -0.4338,0.0797 -0.8538,0.1908 -1.2418,0.3281 -0.4233,0.7654 -0.6456,1.8041 -0.1199,2.6761z"/>
  <path class="fil2" d="M36.3199 23.2247c0.1657,-0.1613 0.4197,-0.334 0.6807,-0.2416 0.2542,0.0906 0.4481,0.4029 0.4939,0.7945 0.0565,0.4758 0.1694,1.0043 0.5786,1.3151 0.2753,0.2053 0.628,0.2748 1.0548,0.2074 0.374,-0.0592 0.6844,-0.2861 0.8784,-0.6381 0.233,-0.4248 0.2646,-0.9797 0.0776,-1.4143 -0.0881,-0.1994 -0.3175,-0.2918 -0.5186,-0.2053 -0.1974,0.0859 -0.2892,0.3175 -0.2045,0.5168 0.0917,0.2091 0.0705,0.5136 -0.0424,0.7235 -0.0775,0.1386 -0.1834,0.2195 -0.314,0.2403 -0.208,0.0331 -0.3598,0.0137 -0.4551,-0.0579 -0.1763,-0.1345 -0.2399,-0.5101 -0.2716,-0.78 -0.0845,-0.6965 -0.4692,-1.2492 -1.0125,-1.4428 -0.4903,-0.175 -1.0336,-0.024 -1.4922,0.4162 -0.582,0.5601 -0.8255,1.7184 -0.7726,2.7739 0.2611,0.0694 0.5257,0.126 0.7973,0.1704 -0.0846,-0.8884 0.0811,-1.9522 0.5222,-2.3781z"/>
  <path class="fil2" d="M45.7461 18.853c-0.4622,0.077 -0.8538,0.2859 -1.1431,0.5939 -0.134,-0.132 -0.2963,-0.2357 -0.4833,-0.301 -0.4409,-0.1546 -0.949,-0.0836 -1.2912,0.181 -0.1727,0.1319 -0.2081,0.3792 -0.074,0.5514 0.1305,0.1728 0.3774,0.2053 0.5503,0.073 0.1341,-0.102 0.3669,-0.1284 0.5539,-0.0628 0.1517,0.0533 0.2575,0.1581 0.3174,0.3066 -0.1868,0.7026 0.2893,1.2591 0.6809,1.7113 0.5399,0.6294 0.7302,0.9338 0.4198,1.4143 -0.4056,0.6299 -1.076,0.6847 -1.5275,0.5398 -0.4585,-0.1472 -0.9349,-0.5599 -0.9031,-1.2778 0.0636,-1.2743 -0.8291,-2.2003 -1.7251,-2.3601 -0.7761,-0.1391 -1.4358,0.2833 -1.6828,1.0735 -0.067,0.2074 0.0494,0.4283 0.2576,0.4936 0.2046,0.0654 0.4268,-0.0498 0.4903,-0.2572 0.1765,-0.5574 0.5751,-0.5747 0.7973,-0.5345 0.5611,0.0995 1.1183,0.7056 1.0795,1.5473 -0.0457,0.9571 0.5221,1.7678 1.4429,2.0645 0.2223,0.0711 0.448,0.1054 0.6667,0.1054 0.7022,0 1.3652,-0.3485 1.7639,-0.9673 0.6633,-1.0228 0,-1.7924 -0.4833,-2.3548 -0.4268,-0.4946 -0.6139,-0.7602 -0.4974,-1.0597 0.2011,-0.5123 0.6632,-0.6611 0.9208,-0.7042 0.3493,-0.0583 0.7161,0.0018 1.0336,0.151 0.0035,-0.0819 0.0176,-0.4064 -0.0036,-0.8406 -0.3739,-0.1148 -0.769,-0.1514 -1.1605,-0.0866z"/>
  <path class="fil1" d="M34.7183 98.8405c0,0 -0.0072,0.1024 -0.0248,0.3006 -0.021,0.1877 -0.0529,0.4593 -0.1059,0.8044 -0.1127,0.6896 -0.3139,1.6799 -0.6949,2.8984 -0.3844,1.2159 -0.9419,2.662 -1.7745,4.2227 -0.4268,0.7744 -0.8996,1.5868 -1.464,2.4003 -0.2715,0.3891 -0.5504,0.7878 -0.8361,1.1963 -0.1339,0.1989 -0.2223,0.3662 -0.3387,0.5524 -0.1093,0.2025 -0.2187,0.4075 -0.3281,0.6142 -0.8465,1.6986 -1.4005,3.7906 -1.7568,6.0519 -0.3597,2.2666 -0.508,4.7191 -0.5362,7.2648 -0.0529,5.1776 -0.1059,10.7008 -0.1623,16.2239 -0.215,22.092 -0.4339,44.184 -0.4339,44.184l0 0.0028c-0.0069,0.5697 -0.4728,1.027 -1.0443,1.0213 -0.5678,-0.0057 -1.0265,-0.4671 -1.0195,-1.0368 0.0001,0 0.12,-22.0927 0.2399,-44.1854 0.0283,-5.5231 0.06,-11.0462 0.0882,-16.2243 0.0143,-2.6307 0.1552,-5.1883 0.5257,-7.6136 0.374,-2.4205 0.956,-4.7241 1.9438,-6.7501 0.1342,-0.2505 0.2646,-0.4985 0.3951,-0.7436 0.1483,-0.2449 0.3034,-0.5161 0.4445,-0.7282 0.2788,-0.4064 0.5538,-0.8029 0.8219,-1.1895 0.5081,-0.7406 0.9349,-1.4785 1.3159,-2.1802 0.7445,-1.4143 1.2418,-2.7199 1.5769,-3.8089 0.3352,-1.0905 0.508,-1.9664 0.6033,-2.5545 0.0423,-0.2946 0.067,-0.5154 0.0846,-0.6608 0.0071,-0.1351 0.0142,-0.2046 0.0142,-0.2046l0.0036 -0.055c0.0528,-0.6795 0.649,-1.1874 1.3263,-1.1342 0.6809,0.0529 1.1889,0.647 1.136,1.3268l0.0001 0.0049z"/>
  <path class="fil1" d="M29.3595 150.393c-0.3915,0 -0.7056,-0.3161 -0.7056,-0.7055 0.0002,-9.2005 -0.5574,-16.3823 -1.524,-19.703 -0.1093,-0.3652 -0.2434,-0.8012 -0.3951,-1.2866 -0.8253,-2.6335 -2.0708,-6.6128 -1.6227,-8.9708 0.0705,-0.3828 0.4409,-0.6361 0.8254,-0.562 0.3812,0.0723 0.6315,0.4417 0.5609,0.8245 -0.3809,2.0108 0.8467,5.9397 1.5805,8.2867 0.1553,0.4957 0.2963,0.9402 0.4057,1.3134 1.3724,4.7145 1.5804,14.6156 1.5804,20.0978 0.0002,0.3894 -0.3174,0.7055 -0.7055,0.7055z"/>
  <path class="fil1" d="M21.4609 177.013c-0.3881,0 -0.7021,-0.3115 -0.7057,-0.6989 -0.0811,-8.5323 0.7374,-17.2621 2.0849,-22.2401 1.4041,-5.188 2.1978,-10.3996 2.1238,-13.9411 -0.0105,-0.3895 0.2998,-0.7123 0.6879,-0.7207 0.3776,-0.0064 0.7126,0.3005 0.7232,0.6904 0.0776,3.6685 -0.7338,9.0297 -2.1731,14.3407 -1.0795,3.9849 -2.1273,12.289 -2.0356,21.8571 0.0036,0.3898 -0.3104,0.7087 -0.6985,0.7126 -0.0033,0 -0.007,0 -0.0069,0z"/>
  <path class="fil1" d="M21.5984 112.637c-0.3915,0 -0.7056,-0.3157 -0.7056,-0.7055 0.0002,-1.8391 1.6263,-5.9105 3.6513,-8.2081 0.5891,-0.6721 1.1818,-1.3342 1.7603,-1.9816 2.6354,-2.9577 5.1259,-5.7509 5.7468,-7.3166 0.1412,-0.3623 0.5503,-0.5401 0.9137,-0.3965 0.3634,0.1435 0.5397,0.5535 0.3951,0.9155 -0.709,1.7988 -3.1644,4.5501 -6.0043,7.7367 -0.5749,0.6448 -1.1642,1.3053 -1.7533,1.9745 -1.8837,2.1392 -3.2985,5.8886 -3.2985,7.2761 0.0002,0.3898 -0.3175,0.7055 -0.7055,0.7055z"/>
  <path class="fil1" d="M28.5164 183.822l0 0c-0.3915,0 -0.7056,-0.3157 -0.7056,-0.7055 0.0001,-11.3969 -2.1272,-19.7701 -2.8257,-22.5217 -0.0952,-0.3779 0.1305,-0.7617 0.5079,-0.8577 0.3812,-0.0963 0.7621,0.133 0.8573,0.5102 0.7127,2.7936 2.8716,11.2959 2.8716,22.8692 0.0001,0.3897 -0.3175,0.7055 -0.7055,0.7055z"/>
  <path class="fil1" d="M20.2261 77.2975c-0.0669,0 -0.1341,-0.0099 -0.2011,-0.03 -0.3738,-0.1119 -0.5856,-0.5048 -0.4763,-0.8781 0.8855,-2.9654 2.8293,-5.9076 5.775,-8.7453 0.5963,-0.5758 1.33,-1.1889 2.1061,-1.838 2.1343,-1.784 4.5543,-3.8068 5.14,-5.8374 0.1094,-0.3743 0.4974,-0.5888 0.8749,-0.4823 0.3739,0.1083 0.5891,0.4992 0.4797,0.8739 -0.7055,2.445 -3.2984,4.6146 -5.588,6.5285 -0.7584,0.6328 -1.4746,1.2301 -2.0355,1.7713 -2.7657,2.6673 -4.5826,5.4038 -5.401,8.1333 -0.0916,0.3057 -0.3705,0.5041 -0.6738,0.5041z"/>
  <path class="fil1" d="M19.7816 87.1727c-0.0352,0 -0.0741,-0.0027 -0.1094,-0.0087 -0.3844,-0.0611 -0.6491,-0.422 -0.5891,-0.8068 0.501,-3.174 2.8963,-6.7487 7.3166,-10.9284 2.0286,-1.9174 4.1204,-4.0647 5.4575,-7.3565 0.1481,-0.3606 0.5573,-0.5348 0.9207,-0.3877 0.3599,0.1471 0.5327,0.5585 0.388,0.9197 -1.4462,3.5528 -3.75,5.915 -5.7961,7.8497 -4.1874,3.9577 -6.4417,7.269 -6.8897,10.1229 -0.0564,0.3479 -0.3563,0.5959 -0.6985,0.5958z"/>
  <path class="fil1" d="M19.958 94.5148c-0.0846,0 -0.1694,-0.0155 -0.254,-0.048 -0.3634,-0.1404 -0.5433,-0.5489 -0.4022,-0.9123 1.2701,-3.2837 3.1785,-6.1302 5.8349,-8.7019 0.4976,-0.4823 1.136,-0.9843 1.8733,-1.566 2.0991,-1.6553 4.7166,-3.7155 5.6868,-6.5765 0.1271,-0.3683 0.5256,-0.5662 0.896,-0.441 0.3705,0.1256 0.5645,0.5264 0.441,0.8954 -1.1077,3.2564 -4.0217,5.5534 -6.1525,7.2305 -0.7054,0.5577 -1.3193,1.0393 -1.7638,1.4711 -2.5047,2.4267 -4.3039,5.1082 -5.4999,8.1975 -0.1092,0.2797 -0.3739,0.4512 -0.6596,0.4512z"/>
  <path class="fil1" d="M21.1081 101.876c-0.0458,0 -0.0953,-0.0041 -0.1412,-0.0143 -0.3845,-0.078 -0.6279,-0.4513 -0.5503,-0.833 0.6103,-2.9774 3.7923,-6.5084 5.7538,-7.9572 1.4217,-1.051 4.3779,-3.2382 5.6797,-6.6397 0.1377,-0.3641 0.5433,-0.5468 0.9102,-0.4071 0.3634,0.1387 0.5468,0.5468 0.4056,0.9109 -1.4462,3.7867 -4.6284,6.1398 -6.1594,7.2708 -2.0884,1.5468 -4.7449,4.8457 -5.207,7.1063 -0.0705,0.3337 -0.3634,0.5634 -0.6914,0.5633z"/>
  <path class="fil1" d="M10.7586 119.187c-0.3735,0 -0.6858,-0.2934 -0.7045,-0.6713 -0.0631,-1.3106 -1.2704,-2.3466 -2.5478,-3.4427 -1.0576,-0.9084 -2.1512,-1.8472 -2.583,-3.024 -1.3783,-3.7515 -0.1429,-7.2073 0.6745,-9.4943l0.0862 -0.2403c1.4206,-3.991 1.9056,-5.6702 1.7824,-11.5415 -0.0937,-4.4373 0.8654,-7.9597 1.7107,-11.067 0.754,-2.7682 1.4044,-5.1583 1.2601,-7.7374 -0.217,-3.9089 0.7884,-9.5007 3.0794,-12.1645 2.2692,-2.6378 5.7993,-4.0905 8.9143,-5.3721 1.2807,-0.5267 2.4906,-1.0245 3.4608,-1.5487l0.2293 -0.1239c1.8062,-0.9648 6.0325,-3.2236 6.0325,-8.0814 0,-0.3898 0.3175,-0.7055 0.7055,-0.7055 0.3917,0 0.7056,0.3157 0.7056,0.7055 0,5.7037 -4.9248,8.3355 -6.7769,9.3261l-0.2257 0.1209c-1.0337,0.5592 -2.279,1.0707 -3.5949,1.6119 -2.9667,1.2213 -6.3323,2.6056 -8.3805,4.9872 -1.9758,2.2976 -2.945,7.4817 -2.7401,11.1658 0.1571,2.807 -0.5549,5.4204 -1.3081,8.1866 -0.8204,3.0151 -1.7504,6.4332 -1.6608,10.6669 0.1246,5.9305 -0.3535,7.801 -1.8648,12.0438l-0.086 0.2428c-0.7489,2.0947 -1.8811,5.2609 -0.6796,8.5326 0.3057,0.8321 1.2157,1.6129 2.1781,2.4391 1.3808,1.1853 2.945,2.5276 3.0388,4.4453 0.0192,0.3895 -0.2811,0.7201 -0.6706,0.7395 -0.0115,0.0002 -0.0233,0.0007 -0.0349,0.0006z"/>
  <path class="fil1" d="M22.0253 35.9286c-0.074,0 -0.1518,-0.0123 -0.2294,-0.0381 -0.3667,-0.126 -0.5644,-0.527 -0.4374,-0.896 0.8609,-2.524 3.2878,-3.7508 5.6374,-4.9379 0.367,-0.1864 0.7373,-0.3732 1.1042,-0.5658 0.1341,-0.0716 0.2998,-0.1552 0.4868,-0.2491 1.0125,-0.5147 3.3902,-1.7198 3.6654,-2.6253 0.0318,-0.1038 0.014,-0.1648 -0.0212,-0.229 -0.1905,-0.3401 -0.0705,-0.7701 0.2716,-0.9606 0.3388,-0.1905 0.7691,-0.0692 0.9596,0.2702 0.2293,0.4116 0.2787,0.8717 0.1411,1.33 -0.4162,1.3668 -2.3918,2.4656 -4.3815,3.4731 -0.1763,0.0902 -0.3351,0.1704 -0.4657,0.2392 -0.3704,0.1961 -0.7479,0.387 -1.1253,0.5768 -2.1907,1.108 -4.2616,2.1547 -4.9389,4.1345 -0.0988,0.2932 -0.374,0.478 -0.6667,0.478z"/>
  <path class="fil1" d="M25.419 39.3382c-0.0528,0 -0.1059,-0.0056 -0.1588,-0.018 -0.381,-0.0868 -0.6174,-0.4649 -0.5292,-0.8449 0.5364,-2.3428 2.4236,-3.9091 4.0076,-5.0119 0.1905,-0.134 0.4269,-0.2861 0.6844,-0.4526 0.7797,-0.5022 2.607,-1.6782 2.5576,-2.3276 -0.0281,-0.3889 0.2646,-0.7267 0.6527,-0.7546 0.3951,-0.0235 0.7267,0.2649 0.7549,0.6533 0.1095,1.4838 -1.7251,2.6653 -3.1997,3.6153 -0.2434,0.1559 -0.4621,0.2984 -0.6456,0.4244 -2.0425,1.4223 -3.1044,2.7083 -3.4396,4.1684 -0.0739,0.327 -0.3633,0.5482 -0.6843,0.5482z"/>
  <path class="fil1" d="M28.8093 42.0923c-0.0318,0 -0.0637,-0.002 -0.0954,-0.0066 -0.3845,-0.0523 -0.6562,-0.4082 -0.6032,-0.7941 0.2858,-2.0977 2.3847,-3.8591 4.0922,-4.7304 0.3493,-0.1779 0.7725,-0.0388 0.9489,0.3083 0.1765,0.3471 0.0388,0.7719 -0.3069,0.949 -1.4675,0.7478 -3.1397,2.2136 -3.3373,3.6632 -0.0492,0.3538 -0.3492,0.6107 -0.6983,0.6106z"/>
  <path class="fil1" d="M6.2624 83.675c-0.3889,0 -0.7055,-0.3161 -0.7055,-0.7056 0.0001,-4.7643 1.6323,-7.9089 2.9436,-10.4355 0.193,-0.3722 0.3968,-0.6925 0.594,-1.0022 0.7116,-1.1183 1.5184,-2.3859 2.1696,-6.9748 0.0551,-0.3856 0.412,-0.6537 0.798,-0.5994 0.386,0.0547 0.6544,0.4121 0.5993,0.798 -0.6937,4.8905 -1.5882,6.295 -2.3763,7.5339 -0.1893,0.2971 -0.3679,0.5775 -0.532,0.894 -1.241,2.3907 -2.7852,5.3657 -2.7852,9.786 0.0001,0.3894 -0.3153,0.7056 -0.7055,0.7056z"/>
  <path class="fil1" d="M9.113 65.1824c-0.0661,0 -0.1328,-0.0099 -0.1998,-0.0293 -0.3739,-0.1104 -0.587,-0.5027 -0.4766,-0.8767 2.5161,-8.5263 7.9054,-9.5352 13.1159,-10.511 2.0075,-0.3757 4.0816,-0.7641 5.9725,-1.5885 0.3564,-0.1549 0.7726,0.007 0.9278,0.3644 0.1553,0.3566 -0.007,0.7729 -0.3633,0.9288 -2.0389,0.8887 -4.1945,1.2923 -6.2759,1.6825 -5.2317,0.9792 -9.7522,1.8256 -12.0241,9.5235 -0.0906,0.3069 -0.3718,0.5063 -0.6765,0.5063z"/>
  <path class="fil1" d="M5.8403 126.202c-0.2992,0 -0.577,-0.1919 -0.6718,-0.4928 -0.0801,-0.2508 -0.1916,-0.5605 -0.3218,-0.9229 -1.0416,-2.9009 -3.2099,-8.9369 -0.5644,-15.2149 0.1511,-0.3595 0.5658,-0.5285 0.9239,-0.3761 0.3593,0.151 0.527,0.5648 0.3764,0.924 -2.4315,5.7707 -0.3895,11.4571 0.5923,14.1897 0.1373,0.3824 0.2544,0.7095 0.3383,0.9744 0.1179,0.3714 -0.0882,0.768 -0.4593,0.8855 -0.0711,0.0225 -0.1429,0.0331 -0.2136,0.0331z"/>
  <path class="fil1" d="M21.1081 142.798c-0.3774,0 -0.6915,-0.2984 -0.7056,-0.6787 -0.6561,-17.3687 2.4694,-22.7616 4.7519,-26.6993 0.8009,-1.3794 1.4887,-2.5707 1.8626,-4.0414 0.0988,-0.3775 0.4798,-0.605 0.8573,-0.5098 0.3776,0.096 0.6068,0.4798 0.5115,0.8576 -0.4233,1.6605 -1.1571,2.9309 -2.0108,4.4013 -2.1943,3.7884 -5.2035,8.9775 -4.5614,25.9383 0.0142,0.3895 -0.2893,0.7168 -0.6809,0.7317 -0.0069,0.0003 -0.0176,0.0003 -0.0246,0.0003z"/>
  <path class="fil1" d="M14.5807 195.118c-0.3252,0 -0.6182,-0.2261 -0.6895,-0.5574 -0.0818,-0.3803 0.1602,-0.756 0.5412,-0.8378 4.7495,-1.0235 9.7412,-4.6814 10.094,-9.6923 0.0284,-0.388 0.3599,-0.6805 0.7514,-0.654 0.3918,0.0275 0.6844,0.3648 0.6562,0.7535 -0.4021,5.7048 -5.9408,9.8379 -11.2049,10.9721 -0.0494,0.0102 -0.0999,0.0159 -0.1484,0.0159z"/>
  <path class="fil1" d="M25.673 194.57c-0.2681,0 -0.5222,-0.1534 -0.6421,-0.4134 -0.1622,-0.3542 -0.0035,-0.773 0.3493,-0.9342 1.6052,-0.7306 1.3299,-2.154 0.321,-5.2267 -0.5221,-1.5928 -1.0619,-3.2396 -1.0619,-4.8796 0,-0.3895 0.314,-0.7056 0.7055,-0.7056 0.3883,0 0.7056,0.3161 0.7056,0.7056 0.0002,1.4146 0.5045,2.9524 0.9913,4.4393 0.8645,2.6346 1.8451,5.6208 -1.076,6.9515 -0.0951,0.0426 -0.194,0.0631 -0.2927,0.0631z"/>
  <path class="fil1" d="M3.2047 104.698c-0.0145,0 -0.0284,-0.0003 -0.0429,-0.0014 -0.3889,-0.023 -0.6854,-0.3566 -0.6621,-0.7458 0.2928,-4.9301 1.3797,-6.9599 2.5301,-9.109 0.9201,-1.7184 1.8708,-3.4954 2.4455,-7.076 0.0621,-0.3846 0.4244,-0.6488 0.8089,-0.5846 0.3847,0.0617 0.6463,0.4237 0.5842,0.8086 -0.6117,3.8141 -1.62,5.697 -2.5947,7.518 -1.0747,2.0084 -2.0913,3.906 -2.3654,8.5267 -0.0222,0.3746 -0.3337,0.6635 -0.7036,0.6635z"/>
  <path class="fil1" d="M44.9559 35.9286c-0.2929,0 -0.5681,-0.1848 -0.6668,-0.4783 -0.6774,-1.9798 -2.7482,-3.0265 -4.939,-4.1342 -0.3773,-0.19 -0.7549,-0.3807 -1.1253,-0.5768 -0.1304,-0.069 -0.2893,-0.1489 -0.4657,-0.2389 -1.9896,-1.008 -3.9652,-2.1064 -4.378,-3.4734 -0.1409,-0.4584 -0.0917,-0.9183 0.1376,-1.33 0.1906,-0.3401 0.6209,-0.4607 0.9596,-0.2702 0.3422,0.1905 0.4621,0.6209 0.2716,0.9606 -0.0351,0.0645 -0.0529,0.1252 -0.0211,0.229 0.2753,0.9059 2.6528,2.111 3.6688,2.6257 0.1835,0.0933 0.3493,0.1774 0.4833,0.2487 0.367,0.1925 0.7374,0.3796 1.1042,0.5655 2.3497,1.1871 4.7767,2.4144 5.6375,4.9385 0.1271,0.3687 -0.0706,0.7698 -0.4375,0.8957 -0.0776,0.0257 -0.1552,0.0381 -0.2292,0.0381z"/>
  <path class="fil1" d="M41.5622 39.3382c-0.321,0 -0.6105,-0.2215 -0.6881,-0.5485 -0.3314,-1.4591 -1.3934,-2.745 -3.436,-4.1681 -0.1798,-0.126 -0.4022,-0.2681 -0.642,-0.4237 -1.4745,-0.9505 -3.3091,-2.1322 -3.2033,-3.616 0.0284,-0.3888 0.3598,-0.6801 0.755,-0.6533 0.388,0.0281 0.6808,0.3658 0.6526,0.7546 -0.0457,0.6497 1.778,1.826 2.5576,2.3283 0.2577,0.1661 0.4939,0.3179 0.6844,0.4519 1.5877,1.1034 3.4749,2.6702 4.0111,5.0123 0.0848,0.3799 -0.1517,0.7581 -0.5327,0.8449 -0.0528,0.0119 -0.1058,0.0176 -0.1586,0.0176z"/>
  <path class="fil1" d="M38.1719 42.0923c-0.3456,0 -0.6491,-0.2568 -0.6986,-0.6106 -0.1973,-1.4492 -1.8661,-2.915 -3.3372,-3.6632 -0.3457,-0.1772 -0.4833,-0.6019 -0.3069,-0.949 0.1764,-0.3472 0.5997,-0.4861 0.9489,-0.3083 1.7111,0.8713 3.81,2.6331 4.0923,4.7304 0.053,0.3862 -0.2152,0.7419 -0.6033,0.7941 -0.0317,0.0045 -0.0635,0.0067 -0.0952,0.0066z"/>
  <path class="fil1" d="M18.7798 68.4688c-0.0811,0 -0.1659,-0.0144 -0.2471,-0.0444 -0.3633,-0.1355 -0.5503,-0.5415 -0.4162,-0.9066 1.2876,-3.4711 2.3636,-5.0885 6.1771,-7.8268 0.9243,-0.6633 1.8485,-1.1821 2.7411,-1.6841 2.1873,-1.2292 4.0746,-2.2899 4.9494,-4.9918 0.12,-0.3705 0.5186,-0.5733 0.8891,-0.4537 0.3704,0.1203 0.575,0.5182 0.455,0.889 -1.0477,3.2261 -3.2596,4.47 -5.6021,5.7863 -0.8607,0.4832 -1.7498,0.9832 -2.6105,1.6009 -3.7358,2.6828 -4.5615,4.1712 -5.6762,7.1705 -0.1023,0.2847 -0.374,0.4607 -0.6596,0.4607z"/>
  <path class="fil1" d="M34.556 98.698c0,0 0.0069,0.0695 0.0175,0.2046 0.0143,0.1453 0.0388,0.3662 0.0847,0.6608 0.0919,0.588 0.2646,1.464 0.5997,2.5545 0.3387,1.089 0.8326,2.3946 1.5805,3.8089 0.381,0.7016 0.8078,1.4397 1.3158,2.1802 0.2648,0.3865 0.5398,0.7831 0.8185,1.1895 0.1446,0.212 0.2999,0.4833 0.448,0.7282 0.1306,0.2451 0.2611,0.4932 0.3916,0.7436 0.9913,2.026 1.5699,4.3297 1.9438,6.7501 0.3741,2.4253 0.5115,4.983 0.5292,7.6136 0.0282,5.178 0.0564,10.7012 0.0881,16.2243 0.1201,22.0927 0.2364,44.1854 0.2364,44.1854 0.0036,0.5697 -0.4551,1.0336 -1.023,1.0368 -0.5714,0.0032 -1.0337,-0.4561 -1.0372,-1.0255l0 0.0014c0,0 -0.2187,-22.092 -0.4374,-44.184 -0.0529,-5.5232 -0.1094,-11.0462 -0.1623,-16.2239 -0.0246,-2.5457 -0.1764,-4.9982 -0.5327,-7.2648 -0.3598,-2.2613 -0.9137,-4.3533 -1.7604,-6.0519 -0.1093,-0.2067 -0.2187,-0.4117 -0.3245,-0.6142 -0.12,-0.1862 -0.2082,-0.3534 -0.3422,-0.5524 -0.2822,-0.4085 -0.561,-0.8072 -0.8326,-1.1963 -0.5644,-0.8135 -1.0407,-1.6259 -1.464,-2.4003 -0.836,-1.5607 -1.3935,-3.0067 -1.7745,-4.2227 -0.3809,-1.2186 -0.5856,-2.2088 -0.695,-2.8984 -0.0564,-0.3451 -0.0882,-0.6167 -0.1058,-0.8044 -0.0176,-0.1983 -0.0247,-0.3005 -0.0247,-0.3005 -0.0563,-0.6795 0.448,-1.2757 1.1289,-1.3314 0.6774,-0.0561 1.2735,0.4498 1.33,1.1292l0 0.0046 0.0036 0.055z"/>
  <path class="fil1" d="M37.4522 150.393c-0.3879,0 -0.7056,-0.3161 -0.7056,-0.7055 0.0002,-5.4822 0.2047,-15.3833 1.5805,-20.0978 0.1094,-0.3732 0.2469,-0.8177 0.4022,-1.3134 0.7339,-2.3471 1.9649,-6.2759 1.5839,-8.2867 -0.0739,-0.3829 0.1764,-0.7521 0.5609,-0.8245 0.3847,-0.0741 0.7515,0.1793 0.8256,0.562 0.4446,2.3579 -0.8009,6.3373 -1.6229,8.9708 -0.1515,0.4854 -0.2892,0.9215 -0.395,1.2866 -0.9701,3.3207 -1.524,10.5025 -1.524,19.703 0.0001,0.3894 -0.3175,0.7055 -0.7056,0.7055z"/>
  <path class="fil1" d="M45.351 177.013c-0.0036,0 -0.0072,0 -0.0072,0 -0.3914,-0.0039 -0.702,-0.3228 -0.6985,-0.7126 0.0919,-9.5681 -0.9595,-17.8721 -2.039,-21.8571 -1.4393,-5.3111 -2.2507,-10.6722 -2.1696,-14.3407 0.0072,-0.3899 0.321,-0.6982 0.7197,-0.6904 0.3916,0.0084 0.6985,0.3312 0.6914,0.7207 -0.0776,3.5415 0.7162,8.7531 2.1237,13.9411 1.3478,4.978 2.1661,13.7079 2.085,22.2401 -0.0034,0.3874 -0.3211,0.6989 -0.7055,0.6989z"/>
  <path class="fil1" d="M45.2135 112.637c-0.3881,0 -0.7057,-0.3157 -0.7057,-0.7055 0.0001,-1.3875 -1.4182,-5.1368 -3.2985,-7.2761 -0.5926,-0.6693 -1.1818,-1.3296 -1.7569,-1.9745 -2.8398,-3.1866 -5.2916,-5.9379 -6.0042,-7.7367 -0.1445,-0.362 0.0353,-0.7719 0.3951,-0.9155 0.3635,-0.1436 0.7726,0.0342 0.9172,0.3965 0.621,1.5656 3.1115,4.359 5.7468,7.3166 0.5785,0.6473 1.1676,1.3096 1.7603,1.9816 2.0216,2.2976 3.6513,6.369 3.6513,8.2081 0,0.3898 -0.3175,0.7055 -0.7054,0.7055z"/>
  <path class="fil1" d="M38.2954 183.822c-0.3915,0 -0.7056,-0.3157 -0.7056,-0.7055 0.0001,-11.5733 2.159,-20.0756 2.8681,-22.8692 0.0953,-0.3775 0.4797,-0.6054 0.8572,-0.5102 0.3775,0.096 0.6068,0.4798 0.5116,0.8577 -0.6984,2.7516 -2.8258,11.1248 -2.8258,22.5217 0.0001,0.3897 -0.3175,0.7055 -0.7055,0.7055z"/>
  <path class="fil1" d="M46.5857 77.2975c-0.307,0 -0.5857,-0.1983 -0.6774,-0.5041 -0.8149,-2.7296 -2.6317,-5.466 -5.401,-8.133 -0.5609,-0.5416 -1.2771,-1.1388 -2.032,-1.7716 -2.2895,-1.9139 -4.886,-4.0834 -5.5916,-6.5285 -0.1093,-0.3747 0.1094,-0.7656 0.4833,-0.8739 0.374,-0.1069 0.7656,0.108 0.8714,0.4823 0.5893,2.0305 3.0057,4.0534 5.14,5.8374 0.7797,0.649 1.5099,1.2622 2.1096,1.8383 2.9458,2.8373 4.886,5.7796 5.7714,8.745 0.1131,0.3732 -0.0987,0.7663 -0.4727,0.8781 -0.0669,0.02 -0.1376,0.03 -0.201,0.03z"/>
  <path class="fil1" d="M47.0266 87.1727c-0.3385,0 -0.6421,-0.2476 -0.695,-0.5958 -0.4514,-2.8539 -2.7058,-6.1651 -6.8897,-10.1229 -2.0496,-1.9347 -4.3533,-4.2969 -5.7962,-7.8497 -0.148,-0.3612 0.0247,-0.7726 0.3881,-0.9197 0.3599,-0.1471 0.7726,0.0272 0.9172,0.3877 1.3406,3.2918 3.4326,5.4392 5.4575,7.3565 4.4238,4.1797 6.8156,7.7544 7.3166,10.9284 0.0601,0.3848 -0.2011,0.7457 -0.5856,0.8068 -0.0387,0.0059 -0.0741,0.0088 -0.1129,0.0087z"/>
  <path class="fil1" d="M46.8502 94.5148c-0.2822,0 -0.5503,-0.1715 -0.6561,-0.4512 -1.1959,-3.0893 -2.9951,-5.7708 -5.4999,-8.1975 -0.448,-0.4319 -1.0583,-0.9133 -1.7674,-1.4711 -2.1271,-1.6771 -5.0447,-3.974 -6.1524,-7.2305 -0.1234,-0.3691 0.074,-0.7698 0.4409,-0.8954 0.3741,-0.1252 0.7726,0.0727 0.8961,0.441 0.9738,2.861 3.5877,4.9212 5.6903,6.5765 0.7374,0.5816 1.3758,1.0837 1.8732,1.566 2.653,2.5716 4.5615,5.4183 5.835,8.7019 0.1376,0.3633 -0.0423,0.7719 -0.4057,0.9123 -0.081,0.0324 -0.1693,0.048 -0.254,0.048z"/>
  <path class="fil1" d="M45.7038 101.876c-0.3282,0 -0.6245,-0.2296 -0.6916,-0.5633 -0.4655,-2.2606 -3.1185,-5.5594 -5.2105,-7.1063 -1.5309,-1.1311 -4.7131,-3.4841 -6.1595,-7.2708 -0.1375,-0.3641 0.0423,-0.7722 0.4092,-0.9109 0.3635,-0.139 0.7691,0.0434 0.9102,0.4071 1.2984,3.4015 4.258,5.5888 5.6797,6.6397 1.958,1.4488 5.14,4.9798 5.7538,7.9572 0.0777,0.3817 -0.1693,0.755 -0.5503,0.833 -0.0493,0.0102 -0.0952,0.0144 -0.141,0.0143z"/>
  <path class="fil1" d="M56.0508 119.187c-0.0107,0 -0.0248,-0.0003 -0.0354,-0.0006 -0.3879,-0.0195 -0.688,-0.35 -0.6703,-0.7395 0.0953,-1.9177 1.658,-3.26 3.0374,-4.4453 0.9631,-0.8262 1.8733,-1.6069 2.1802,-2.4391 1.1995,-3.2717 0.0705,-6.4379 -0.6809,-8.5326l-0.0845 -0.2431c-1.5099,-4.2425 -1.9898,-6.113 -1.8664,-12.0435 0.0919,-4.2338 -0.8396,-7.6517 -1.6615,-10.6669 -0.7514,-2.7662 -1.4641,-5.3796 -1.3053,-8.1866 0.2046,-3.6841 -0.7655,-8.8681 -2.7411,-11.1654 -2.0496,-2.382 -5.4116,-3.7663 -8.382,-4.9876 -1.3157,-0.5412 -2.5576,-1.0527 -3.5913,-1.6118l-0.2257 -0.1211c-1.8556,-0.9906 -6.7804,-3.6223 -6.7804,-9.326 0,-0.3898 0.3175,-0.7055 0.7055,-0.7055 0.3882,0 0.7056,0.3157 0.7056,0.7055 0.0001,4.8578 4.2262,7.1166 6.0325,8.0815l0.2329 0.1237c0.9666,0.5243 2.1765,1.0221 3.4607,1.5488 3.1116,1.2816 6.6428,2.7344 8.9111,5.3724 2.2931,2.6634 3.2985,8.2554 3.0798,12.1642 -0.1445,2.5791 0.508,4.9692 1.2594,7.7374 0.8468,3.1072 1.8062,6.6298 1.711,11.067 -0.1235,5.8712 0.3633,7.5505 1.785,11.5411l0.0848 0.2406c0.8184,2.2871 2.053,5.7429 0.6737,9.4944 -0.4304,1.1768 -1.524,2.1156 -2.5824,3.024 -1.277,1.096 -2.4835,2.1322 -2.547,3.4427 -0.021,0.3778 -0.3316,0.6714 -0.7054,0.6713z"/>
  <path class="fil1" d="M60.5486 83.675c-0.3916,0 -0.7056,-0.3161 -0.7056,-0.7056 0.0001,-4.4203 -1.5452,-7.3952 -2.7869,-9.786 -0.1622,-0.3165 -0.3422,-0.5969 -0.5328,-0.894 -0.7865,-1.2389 -1.6792,-2.6433 -2.3741,-7.5339 -0.0564,-0.3859 0.2116,-0.7433 0.5997,-0.798 0.3847,-0.0544 0.7408,0.2142 0.7973,0.5994 0.6492,4.5889 1.4569,5.8565 2.1695,6.9748 0.1978,0.3096 0.4022,0.63 0.5927,1.0022 1.3125,2.5266 2.9457,5.6713 2.9457,10.4355 0.0001,0.3894 -0.3175,0.7056 -0.7055,0.7056z"/>
  <path class="fil1" d="M57.6982 65.1824c-0.307,0 -0.5857,-0.1993 -0.6774,-0.5063 -2.2718,-7.6979 -6.791,-8.5442 -12.0227,-9.5235 -2.0849,-0.3903 -4.2404,-0.7938 -6.2759,-1.6825 -0.3562,-0.1559 -0.5221,-0.5722 -0.3669,-0.9288 0.1589,-0.3574 0.575,-0.52 0.9313,-0.3644 1.8875,0.8244 3.9652,1.2128 5.969,1.5885 5.2141,0.9758 10.601,1.9848 13.1198,10.511 0.1096,0.374 -0.1058,0.7663 -0.4797,0.8767 -0.0669,0.0193 -0.1341,0.0293 -0.1975,0.0293z"/>
  <path class="fil1" d="M60.9684 126.202c-0.0706,0 -0.1411,-0.0105 -0.2117,-0.0331 -0.3738,-0.1175 -0.5786,-0.514 -0.4586,-0.8855 0.0812,-0.265 0.1975,-0.5919 0.3387,-0.9744 0.9807,-2.7326 3.0233,-8.419 0.5926,-14.1897 -0.1516,-0.3592 0.0141,-0.773 0.374,-0.924 0.3598,-0.1524 0.7726,0.0166 0.9242,0.3761 2.6459,6.278 0.4763,12.3141 -0.5644,15.2149 -0.1304,0.3623 -0.2434,0.6721 -0.321,0.9229 -0.0951,0.3009 -0.374,0.4928 -0.6738,0.4928z"/>
  <path class="fil1" d="M45.7038 142.798c-0.0107,0 -0.0178,0 -0.0284,-0.0003 -0.3879,-0.0149 -0.6914,-0.3422 -0.6773,-0.7317 0.6387,-16.9609 -2.3671,-22.1498 -4.5649,-25.9383 -0.8502,-1.4705 -1.5875,-2.7408 -2.0109,-4.4013 -0.0952,-0.3778 0.1341,-0.7616 0.5115,-0.8576 0.3776,-0.0967 0.7621,0.1323 0.8573,0.5098 0.374,1.4706 1.0654,2.662 1.8627,4.0414 2.2826,3.9377 5.4081,9.3306 4.7554,26.6993 -0.0176,0.3803 -0.3281,0.6787 -0.7054,0.6787z"/>
  <path class="fil1" d="M52.2302 195.118c-0.0494,0 -0.0989,-0.0057 -0.1483,-0.0159 -5.2634,-1.1342 -10.8056,-5.2673 -11.2078,-10.9721 -0.0246,-0.3888 0.2682,-0.726 0.6562,-0.7535 0.3881,-0.0272 0.7267,0.266 0.755,0.654 0.3529,5.0109 5.3445,8.6689 10.0929,9.6923 0.3811,0.0818 0.6209,0.4575 0.5398,0.8378 -0.0704,0.3313 -0.3634,0.5574 -0.6878,0.5574z"/>
  <path class="fil1" d="M41.1352 194.57c-0.0952,0 -0.1976,-0.0204 -0.2893,-0.0631 -2.9208,-1.3307 -1.9438,-4.3169 -1.0795,-6.9515 0.487,-1.4869 0.9913,-3.0247 0.9913,-4.4393 0.0001,-0.3895 0.3175,-0.7056 0.7091,-0.7056 0.3881,0 0.7056,0.3161 0.7056,0.7056 0,1.64 -0.5433,3.2868 -1.0654,4.8796 -1.0088,3.0727 -1.2806,4.4961 0.321,5.2267 0.3565,0.1612 0.5115,0.58 0.3493,0.9342 -0.1164,0.26 -0.374,0.4134 -0.6421,0.4134z"/>
  <path class="fil1" d="M63.6073 104.698c-0.3741,0 -0.6845,-0.2889 -0.7057,-0.6635 -0.275,-4.6208 -1.2912,-6.5183 -2.3672,-8.5267 -0.9735,-1.8211 -1.9826,-3.7038 -2.5929,-7.518 -0.0633,-0.385 0.2011,-0.7469 0.5856,-0.8086 0.3812,-0.0643 0.7444,0.2 0.8079,0.5846 0.5752,3.5806 1.524,5.3576 2.4448,7.076 1.15,2.1491 2.2365,4.179 2.5294,9.109 0.0247,0.3891 -0.2717,0.7229 -0.6632,0.7458 -0.0106,0.001 -0.0283,0.0014 -0.0387,0.0014z"/>
  <path class="fil1" d="M48.0285 68.4688c-0.2857,0 -0.5539,-0.176 -0.6597,-0.4607 -1.1111,-2.9994 -1.9368,-4.4877 -5.6762,-7.1705 -0.8608,-0.6178 -1.7498,-1.1176 -2.6106,-1.6009 -2.3424,-1.3163 -4.5508,-2.5601 -5.5985,-5.7863 -0.1199,-0.3708 0.0811,-0.7687 0.4515,-0.889 0.374,-0.1196 0.7691,0.0833 0.889,0.4537 0.8786,2.7019 2.7658,3.7627 4.9495,4.9918 0.8962,0.5019 1.8168,1.0209 2.7411,1.6841 3.8171,2.7382 4.8895,4.3558 6.1771,7.8268 0.1342,0.3651 -0.0494,0.7711 -0.4163,0.9066 -0.081,0.0299 -0.1623,0.0444 -0.2469,0.0444z"/>
 </g>
</svg>
