<?xml version="1.0" encoding="UTF-8"?>
<!-- Generator: Adobe Illustrator 15.0.0, SVG Export Plug-In . SVG Version: 6.00 Build 0)  -->
<!DOCTYPE svg PUBLIC "-//W3C//DTD SVG 1.1//EN" "http://www.w3.org/Graphics/SVG/1.1/DTD/svg11.dtd">
<svg version="1.1" id="Layer_1" xmlns="http://www.w3.org/2000/svg" xmlns:xlink="http://www.w3.org/1999/xlink" x="0px" y="0px" width="970.082px" height="386.98px" viewBox="0 0 970.082 386.98" enable-background="new 0 0 970.082 386.98" xml:space="preserve">
<g opacity="0.05">
	<g>
		<path fill="#FFFFFF" d="M65.949,171.343H28.985c-4.5,0-8.163-3.662-8.163-8.163c0-52.819-0.374-50.261,0.81-50.261H73.3    c0.447,0,0.81,0.362,0.81,0.81v49.451C74.11,167.681,70.449,171.343,65.949,171.343z M22.442,114.539v48.642    c0,3.608,2.935,6.543,6.543,6.543h36.964c3.608,0,6.542-2.936,6.542-6.543v-48.642H22.442z"/>
		<path fill="#FFFFFF" d="M75.867,114.539H19.066c-1.257,0-2.28-1.023-2.28-2.28V95.017c0-1.258,1.023-2.281,2.28-2.281h56.801    c1.257,0,2.28,1.023,2.28,2.281v17.242C78.147,113.516,77.125,114.539,75.867,114.539z M19.066,94.355    c-0.365,0-0.661,0.297-0.661,0.662v17.242c0,0.365,0.296,0.661,0.661,0.661h56.801c0.365,0,0.661-0.296,0.661-0.661V95.017    c0-0.365-0.296-0.662-0.661-0.662H19.066L19.066,94.355z"/>
		<g>
			<g>
				<path fill="#FFFFFF" d="M73.201,112.703c-0.989,0-1.794-0.806-1.794-1.794V96.983c0-0.988,0.805-1.794,1.794-1.794      c0.989,0,1.794,0.806,1.794,1.794v13.927C74.995,111.897,74.19,112.703,73.201,112.703z M73.201,96.808      c-0.096,0-0.175,0.079-0.175,0.175v13.927c0,0.192,0.35,0.192,0.35,0V96.983C73.376,96.887,73.298,96.808,73.201,96.808z"/>
			</g>
			<g>
				<path fill="#FFFFFF" d="M65.849,112.703c-0.989,0-1.794-0.806-1.794-1.794V96.983c0-0.988,0.805-1.794,1.794-1.794      c0.989,0,1.794,0.806,1.794,1.794v13.927C67.643,111.897,66.837,112.703,65.849,112.703z M65.849,96.808      c-0.097,0-0.175,0.079-0.175,0.175v13.927c0,0.192,0.349,0.192,0.349,0V96.983C66.023,96.887,65.945,96.808,65.849,96.808z"/>
			</g>
			<g>
				<path fill="#FFFFFF" d="M58.496,112.703c-0.989,0-1.794-0.806-1.794-1.794V96.983c0-0.988,0.805-1.794,1.794-1.794      c0.989,0,1.794,0.806,1.794,1.794v13.927C60.29,111.897,59.485,112.703,58.496,112.703z M58.321,96.983v13.927      c0,0.192,0.35,0.191,0.35,0V96.983C58.671,96.753,58.321,96.751,58.321,96.983z"/>
			</g>
			<g>
				<path fill="#FFFFFF" d="M51.143,112.703c-0.989,0-1.794-0.806-1.794-1.794V96.983c0-0.988,0.805-1.794,1.794-1.794      c0.99,0,1.795,0.806,1.795,1.794v13.927C52.938,111.897,52.132,112.703,51.143,112.703z M50.968,96.983v13.927      c0,0.192,0.35,0.191,0.35,0V96.983C51.318,96.753,50.968,96.751,50.968,96.983z"/>
			</g>
			<g>
				<path fill="#FFFFFF" d="M41.996,110.909V96.983c0-0.988,0.805-1.794,1.795-1.794c0.989,0,1.794,0.806,1.794,1.794v13.927      C45.584,113.28,41.996,113.279,41.996,110.909z M43.615,96.983v13.927c0,0.191,0.35,0.192,0.351,0V96.983      C43.965,96.751,43.615,96.753,43.615,96.983z"/>
			</g>
			<g>
				<path fill="#FFFFFF" d="M34.644,110.909V96.983c0-2.37,3.588-2.371,3.588,0v13.927C38.231,113.279,34.644,113.28,34.644,110.909      z M36.263,96.983v13.927c0,0.192,0.35,0.192,0.35,0V96.983C36.612,96.752,36.263,96.752,36.263,96.983z"/>
			</g>
			<g>
				<path fill="#FFFFFF" d="M27.291,110.909V96.983c0-0.988,0.805-1.794,1.794-1.794c0.989,0,1.794,0.806,1.794,1.794v13.927      C30.878,113.279,27.291,113.28,27.291,110.909z M29.084,96.808c-0.096,0-0.175,0.079-0.175,0.175v13.927      c0,0.192,0.35,0.192,0.35,0V96.983C29.259,96.887,29.181,96.808,29.084,96.808z"/>
			</g>
			<g>
				<path fill="#FFFFFF" d="M19.938,110.909V96.983c0-0.988,0.805-1.794,1.794-1.794c0.989,0,1.794,0.806,1.794,1.794v13.927      C23.526,113.279,19.938,113.28,19.938,110.909z M21.732,96.808c-0.097,0-0.175,0.079-0.175,0.175v13.927      c0,0.192,0.35,0.191,0.35,0V96.983C21.907,96.887,21.829,96.808,21.732,96.808z"/>
			</g>
		</g>
		<path fill="#FFFFFF" d="M65.969,156.743H28.963c-1.257,0-2.28-1.023-2.28-2.28v-30.675c0-1.257,1.023-2.28,2.28-2.28h37.006    c1.257,0,2.279,1.023,2.279,2.28v30.675C68.249,155.719,67.226,156.743,65.969,156.743z M28.303,123.787v30.675    c0,0.364,0.296,0.661,0.661,0.661H65.97c0.364,0,0.66-0.296,0.66-0.661v-30.675c0-0.364-0.296-0.661-0.66-0.661    C26.537,123.126,28.303,122.821,28.303,123.787z"/>
		<g>
			<g>
				<path fill="#FFFFFF" d="M64.032,152.417H30.138c-0.989,0-1.794-0.806-1.794-1.794c0-0.99,0.805-1.795,1.794-1.795h33.895      c0.989,0,1.794,0.805,1.794,1.795C65.826,151.612,65.021,152.417,64.032,152.417z M30.138,150.448      c-0.097,0-0.175,0.078-0.175,0.176c0,0.096,0.079,0.175,0.175,0.175h33.895c0.097,0,0.175-0.079,0.175-0.175      c0-0.098-0.078-0.176-0.175-0.176H30.138z"/>
			</g>
			<g>
				<path fill="#FFFFFF" d="M64.032,145.064H30.138c-0.989,0-1.794-0.805-1.794-1.794s0.805-1.795,1.794-1.795h33.895      c0.989,0,1.794,0.807,1.794,1.795C65.827,144.259,65.021,145.064,64.032,145.064z M30.138,143.095      c-0.097,0-0.175,0.079-0.175,0.175c0,0.097,0.079,0.175,0.175,0.175h33.895c0.097,0,0.175-0.077,0.175-0.175      c0-0.097-0.078-0.175-0.175-0.175H30.138z"/>
			</g>
			<g>
				<path fill="#FFFFFF" d="M64.032,137.711H30.138c-0.989,0-1.794-0.805-1.794-1.794s0.805-1.793,1.794-1.793h33.895      c0.989,0,1.794,0.805,1.794,1.793C65.826,136.906,65.021,137.711,64.032,137.711z M29.962,135.917      c0,0.097,0.079,0.175,0.175,0.175h33.895c0.097,0,0.175-0.079,0.175-0.175c0-0.097-0.078-0.174-0.175-0.174      C63.762,135.742,29.962,135.646,29.962,135.917z"/>
			</g>
			<g>
				<path fill="#FFFFFF" d="M64.032,130.358H30.138c-0.989,0-1.794-0.805-1.794-1.794c0-0.988,0.805-1.794,1.794-1.794h33.895      c0.989,0,1.794,0.806,1.794,1.794C65.826,129.553,65.021,130.358,64.032,130.358z M29.962,128.564      c0,0.098,0.079,0.176,0.175,0.176h33.895c0.097,0,0.175-0.078,0.175-0.176c0-0.096-0.078-0.174-0.175-0.174      C63.76,128.39,29.962,128.292,29.962,128.564z"/>
			</g>
		</g>
	</g>
	<g>
		<path fill="#FFFFFF" d="M356.761,186.179c-18.647,0-34.597-14.614-39.081-35.665c-0.261,0.068-0.524,0.103-0.79,0.103    c-4.321,0-5.999-8.438-5.699-9.305c2.183-6.364,5.908-13.339,6.576-14.148c0.017-0.04,0.034-0.079,0.058-0.117    c9.244-15.711,27.568-35.288,62.372-39.331c0.49-0.053,0.898,0.326,0.902,0.797c0.157,19.198,14.834,43.193,21.139,52.618    c0.108,0.163,0.154,0.359,0.13,0.553c-0.764,5.95-3.516,9.612-6.525,8.83C391.359,171.565,375.409,186.179,356.761,186.179z     M318.276,148.57c0.109,0,0.22,0.022,0.323,0.068c0.244,0.106,0.419,0.326,0.471,0.587c4.042,20.805,19.541,35.335,37.689,35.335    c18.15,0,33.65-14.53,37.692-35.335c0.051-0.261,0.226-0.479,0.471-0.587c0.58-0.255,0.986,0.359,1.709,0.359    c1.763,0,3.496-3.084,4.088-7.222c-6.374-9.567-20.632-33.047-21.223-52.345c-33.477,4.18-51.202,23.074-60.205,38.313    c-0.054,0.289-0.121,0.503-0.394,0.673c-3.131,5.414-5.043,10.146-6.114,13.241c0.575,4.196,2.326,7.339,4.105,7.339    c0.313,0,0.626-0.101,0.959-0.307C317.979,148.61,318.127,148.57,318.276,148.57z"/>
		<g>
			<g>
				<path fill="#FFFFFF" d="M310.795,144.801c-0.41-0.051-0.715-0.403-0.709-0.816c0.096-6.256,0.54-54.504,4.902-58.412      c10.103-9.05,25.861-14.59,42.154-14.817h0.546c16.313,0.229,32.079,5.768,42.184,14.817c4.373,3.917,4.812,52.502,4.902,58.412      c0.005,0.354-0.219,0.668-0.554,0.78c-0.333,0.112-0.702-0.005-0.911-0.291c-0.952-1.304-23.076-31.848-23.813-56.099      c-28.914,3.616-45.774,18.467-54.85,30.354c-9.934,13.011-12.937,25.332-12.965,25.455      C311.586,144.593,311.197,144.853,310.795,144.801z M381.1,87.459c0.165,20.276,16.853,46.327,22.017,53.907      c-0.071-4.704-0.782-51.415-4.322-54.588c-9.822-8.796-25.193-14.181-41.116-14.403h-0.522      c-15.902,0.223-31.266,5.607-41.085,14.403c-2.118,1.898-3.791,22.2-4.28,51.833c10.178-27.211,34.09-47.964,68.408-51.948      C380.677,86.607,381.096,86.981,381.1,87.459z"/>
				<path fill="#FFFFFF" d="M284.741,232.065c-0.501,0-0.885-0.455-0.797-0.949c1.413-8.008,3.757-15.06,6.967-20.958      c6.76-12.427,17.174-27.438,28.419-28.462c2.64-0.587,3.204-0.453,14.675-0.453c0.43,0,23.086,17.62,23.427,17.884      c0.342-0.264,22.995-17.884,23.426-17.884c11.459,0,12.029-0.134,14.673,0.453c11.235,1.021,21.655,16.032,28.422,28.458      c3.21,5.898,5.554,12.951,6.966,20.962C431.171,232.543,437.078,232.065,284.741,232.065z M285.711,230.446H429.15      c-1.397-7.445-3.623-14.008-6.621-19.518c-6.588-12.098-16.655-26.711-27.195-27.625c-0.037-0.003-0.073-0.008-0.108-0.017      c-1.256-0.283-2.506-0.427-3.714-0.427h-10.379c-24.4,18.853-23.388,18.556-24.197,17.929l-23.208-17.929      c-17.698,0-10.625,0.132-14.203,0.442c-10.551,0.917-20.61,15.53-27.191,27.628      C289.333,216.443,287.107,223.005,285.711,230.446z"/>
			</g>
			<path fill="#FFFFFF" d="M352.909,56.766c-4.148-0.412-4.16-6.519,0-6.932c0.41-4.151,6.52-4.16,6.931,0     c4.152,0.413,4.158,6.519,0,6.932C359.429,60.918,353.32,60.926,352.909,56.766z M353.255,51.437     c-1.027,0-1.863,0.835-1.863,1.862c0,1.028,0.836,1.865,1.863,1.865h0.446c0.448,0,0.81,0.361,0.81,0.81v0.446     c0,2.464,3.729,2.464,3.729,0v-0.446c0-0.447,0.361-0.81,0.81-0.81h0.446c2.459,0,2.468-3.728,0-3.728h-0.446     c-0.448,0-0.81-0.362-0.81-0.81v-0.446c0-1.028-0.836-1.864-1.863-1.864c-1.028,0-1.865,0.836-1.865,1.864v0.446     c0,0.447-0.361,0.81-0.81,0.81H353.255z"/>
			<path fill="#FFFFFF" d="M323.056,70.652c1.66-18.776,12.908-27.904,34.388-27.904c26.887,0,33.042,17.276,34.305,27.7     c0.026,0.079,0.041,0.164,0.041,0.254c0,0.446-0.362,0.81-0.811,0.81c-0.005,0-0.011-0.001-0.016,0     c-0.138,0-0.277-0.035-0.401-0.107c-19.797-11.304-46.41-11.355-66.296,0.022C323.696,71.751,322.999,71.302,323.056,70.652z      M357.442,44.367c-19.885,0-30.568,8.146-32.613,24.895c19.324-10.367,44.836-10.875,65.108-0.051     C388.349,59.254,381.88,44.367,357.442,44.367z"/>
		</g>
	</g>
	<g>
		<g>
			<g>
				<path fill="#FFFFFF" d="M859.939,188.424l-10.354-10.354c-0.805-0.803-1.248-1.87-1.248-3.008c0-1.136,0.443-2.205,1.248-3.008      c0.803-0.804,1.871-1.247,3.008-1.247s2.205,0.442,3.008,1.247l10.355,10.354c1.664,1.661,1.664,4.354,0,6.017      C864.292,190.087,861.601,190.087,859.939,188.424z M852.593,172.425c-0.705,0-1.365,0.274-1.863,0.771      c-0.498,0.498-0.771,1.16-0.771,1.863c0,0.704,0.273,1.366,0.771,1.863l10.354,10.354c0.994,0.995,2.73,0.997,3.729,0      c1.031-1.029,1.031-2.696,0-3.728l-10.354-10.354C853.958,172.7,853.296,172.425,852.593,172.425z"/>
				<path fill="#FFFFFF" d="M865.246,183.985l-11.223-11.221l24.328-24.329c1.5-1.499,3.492-2.325,5.613-2.325      c7.016,0,10.611,8.544,5.609,13.545L865.246,183.985z M856.312,172.764l8.934,8.931l23.184-23.184      c2.463-2.462,2.463-6.47,0-8.932c-2.467-2.469-6.463-2.469-8.932,0L856.312,172.764z"/>
				<path fill="#FFFFFF" d="M825.519,218.476l-5.986-5.987l3.744-3.743l1.711-6.947l25.309-25.307l11.221,11.221l-25.309,25.308      l-6.943,1.71L825.519,218.476z M821.824,212.489l3.695,3.697l2.918-2.92l6.945-1.71l23.844-23.844l-8.93-8.931l-23.844,23.843      l-1.711,6.945L821.824,212.489z"/>
			</g>
			<path fill="#FFFFFF" d="M824.748,235.889c-3.746,0-6.74-3.656-5.869-7.42c0.736-3.169,4.012-6.193,5.303-6.892l-0.016-0.025     l0.197-0.125c0.307,0,0.17,0,0.461,0l0.197,0.12l-0.016,0.023c1.566,0.829,8.369,6.665,4.234,11.954     c-1.137,1.451-2.846,2.357-4.463,2.365L824.748,235.889L824.748,235.889z M824.601,223.214     c-7.498,5.862-3.445,11.056,0.146,11.056v0.811l0.021-0.811C827.787,234.254,832.437,229.208,824.601,223.214z"/>
		</g>
		<rect x="830.421" y="196.196" fill="#FFFFFF" width="20.684" height="1.62"/>
		<path fill="#FFFFFF" d="M831.4,203.1c0-2.973,4.498-2.974,4.498,0S831.4,206.074,831.4,203.1z M833.017,203.1    c0,0.833,1.262,0.833,1.262,0S833.017,202.267,833.017,203.1z"/>
		<path fill="#FFFFFF" d="M829.332,208.769c0-1.042,0.848-1.89,1.889-1.89s1.889,0.848,1.889,1.89    C833.109,211.266,829.332,211.266,829.332,208.769z M831.22,208.499c-0.357,0-0.357,0.541,0,0.541c0.146,0,0.27-0.122,0.27-0.271    C831.49,208.62,831.369,208.499,831.22,208.499z"/>
		<path fill="#FFFFFF" d="M840.488,200.311c0-2.258,3.42-2.26,3.42,0S840.488,202.57,840.488,200.311z"/>
	</g>
	<g>
		<g>
			<g>
				<path fill="#FFFFFF" d="M574.585,93.788h-42.949c-1.135,0-2.059-0.923-2.059-2.058c0-1.134,0.922-2.058,2.059-2.058h42.949      c1.135,0,2.057,0.923,2.057,2.058S575.72,93.788,574.585,93.788z M531.636,91.293c-0.244,0-0.439,0.196-0.439,0.438      s0.197,0.438,0.439,0.438h42.949c0.242,0,0.439-0.197,0.439-0.438s-0.197-0.438-0.439-0.438H531.636z"/>
			</g>
			<g>
				<path fill="#FFFFFF" d="M574.585,82.944h-42.949c-1.135,0-2.059-0.923-2.059-2.058c0-1.133,0.922-2.056,2.059-2.056h42.949      c1.135,0,2.057,0.922,2.057,2.056C576.642,82.021,575.72,82.944,574.585,82.944z M531.636,80.45      c-0.244,0-0.439,0.194-0.439,0.436c0,0.242,0.197,0.438,0.439,0.438h42.949c0.242,0,0.439-0.197,0.439-0.438      s-0.197-0.436-0.439-0.436H531.636z"/>
			</g>
			<g>
				<path fill="#FFFFFF" d="M574.585,72.099h-42.949c-1.135,0-2.059-0.923-2.059-2.057c0-1.133,0.922-2.057,2.059-2.057h42.949      c1.135,0,2.057,0.923,2.057,2.057S575.72,72.099,574.585,72.099z M531.636,69.605c-0.244,0-0.439,0.196-0.439,0.438      c0,0.242,0.197,0.438,0.439,0.438h42.949c0.242,0,0.439-0.195,0.439-0.438c0-0.241-0.197-0.438-0.439-0.438H531.636z"/>
			</g>
			<g>
				<path fill="#FFFFFF" d="M574.585,61.255h-42.949c-1.135,0-2.059-0.923-2.059-2.057s0.922-2.057,2.059-2.057h42.949      c1.135,0,2.057,0.922,2.057,2.057C576.642,60.332,575.72,61.255,574.585,61.255z M531.636,58.761      c-0.244,0-0.439,0.196-0.439,0.438s0.197,0.438,0.439,0.438h42.949c0.242,0,0.439-0.196,0.439-0.438s-0.197-0.438-0.439-0.438      H531.636z"/>
			</g>
			<g>
				<path fill="#FFFFFF" d="M574.585,50.412h-42.949c-1.135,0-2.059-0.923-2.059-2.06c0-1.133,0.922-2.056,2.059-2.056h42.949      c1.135,0,2.057,0.922,2.057,2.056C576.642,49.49,575.72,50.412,574.585,50.412z M531.636,47.917      c-0.244,0-0.439,0.195-0.439,0.437c0,0.242,0.197,0.439,0.439,0.439h42.949c0.242,0,0.439-0.197,0.439-0.439      c0-0.241-0.197-0.437-0.439-0.437H531.636z"/>
			</g>
		</g>
		<path fill="#FFFFFF" d="M572.578,38.371H533.64c-0.254,0-0.492-0.119-0.645-0.322c-0.154-0.203-0.203-0.466-0.131-0.711    c2-6.965,8.457-11.83,15.701-11.83h9.09c7.244,0,13.701,4.865,15.701,11.831c0.07,0.244,0.021,0.507-0.131,0.71    C573.072,38.251,572.833,38.371,572.578,38.371z M534.759,36.751h36.701c-2.115-5.718-7.643-9.625-13.805-9.625h-9.09    C542.404,27.126,536.875,31.033,534.759,36.751z"/>
		<path fill="#FFFFFF" d="M553.111,26.857c-3.326,0-6.031-2.706-6.031-6.03c0-3.326,2.705-6.031,6.031-6.031    c3.324,0,6.031,2.706,6.031,6.031S556.435,26.857,553.111,26.857z M553.111,16.415c-2.434,0-4.412,1.979-4.412,4.412    c0,2.433,1.979,4.412,4.412,4.412s4.412-1.979,4.412-4.412C557.523,18.394,555.542,16.415,553.111,16.415z"/>
		<path fill="#FFFFFF" d="M579.853,107.82h-53.484c-0.449,0-0.811-0.362-0.811-0.81V36.032c0-0.447,0.361-0.811,0.811-0.811h7.812    c0.27,0,0.521,0.133,0.67,0.356c0.15,0.223,0.182,0.506,0.08,0.756c-0.057,0.145-0.111,0.283-0.164,0.417h36.686    c-0.051-0.133-0.105-0.271-0.164-0.417c-0.1-0.25-0.07-0.533,0.08-0.756c0.15-0.224,0.402-0.356,0.672-0.356h7.812    c0.447,0,0.811,0.362,0.811,0.811v70.979C580.664,107.458,580.3,107.82,579.853,107.82z M527.177,106.201h51.867V36.842h-5.842    c0.057,0.17,0.107,0.334,0.154,0.496c0.07,0.244,0.021,0.507-0.131,0.71s-0.393,0.322-0.646,0.322h-38.938    c-0.254,0-0.494-0.12-0.646-0.323s-0.201-0.466-0.131-0.711c0.047-0.162,0.098-0.326,0.152-0.495h-5.84V106.201L527.177,106.201z"/>
		<path fill="#FFFFFF" d="M582.826,111.766h-59.43c-0.447,0-0.811-0.363-0.811-0.81V32.088c0-0.447,0.363-0.811,0.811-0.811h13.096    c0.312,0,0.596,0.18,0.73,0.46c0.133,0.282,0.096,0.615-0.102,0.858c-1.018,1.26-1.811,2.653-2.363,4.154h36.703    c-0.553-1.501-1.346-2.896-2.363-4.154c-0.195-0.242-0.234-0.576-0.102-0.858c0.135-0.28,0.418-0.46,0.73-0.46h13.098    c0.447,0,0.811,0.362,0.811,0.811v78.868C583.634,111.403,583.271,111.766,582.826,111.766z M524.207,110.146h57.809V32.898    H571.32c0.898,1.369,1.582,2.856,2.037,4.439c0.07,0.245,0.021,0.508-0.131,0.711s-0.393,0.322-0.646,0.322h-38.938    c-0.254,0-0.494-0.119-0.646-0.322s-0.201-0.466-0.131-0.711c0.455-1.583,1.139-3.07,2.037-4.439h-10.695V110.146L524.207,110.146    z"/>
	</g>
	<g>
		<path fill="#FFFFFF" d="M106.187,83.458c-0.425,0-0.781-0.331-0.807-0.762c-0.034-0.57-0.051-1.144-0.051-1.721    c0-12.607,5.484-19.564,17.261-21.895c1.047-0.209,1.367,1.381,0.314,1.588c-10.886,2.152-15.956,8.605-15.956,20.307    c0,0.545,0.016,1.085,0.048,1.625c0.027,0.446-0.313,0.83-0.76,0.856C106.219,83.457,106.203,83.458,106.187,83.458z"/>
		<path fill="#FFFFFF" d="M165.114,83.537c-0.018,0-0.035,0-0.053-0.001c-0.446-0.028-0.785-0.414-0.756-0.86    c0.037-0.564,0.055-1.137,0.055-1.7c0-11.751-5.12-18.213-16.111-20.337c-0.439-0.085-0.726-0.509-0.641-0.949    c0.084-0.438,0.506-0.727,0.949-0.641c11.886,2.297,17.423,9.264,17.423,21.927c0,0.599-0.02,1.205-0.058,1.804    C165.893,83.208,165.537,83.537,165.114,83.537z"/>
		<path fill="#FFFFFF" d="M148.433,170.239h-1.747c-8.474,0-15.369-6.895-15.369-15.369v-36.947    c-10.06-2.011-25.335-14.521-28.384-31.268c-0.368-2.018,0.976-3.959,2.994-4.328c0.221-0.04,0.445-0.062,0.667-0.062    c1.799,0,3.338,1.285,3.661,3.055c2.63,14.447,17.416,25.449,23.813,25.449h3.169c6.397,0,21.183-11.002,23.812-25.449    c0.322-1.771,1.859-3.056,3.654-3.056c0.225,0,0.452,0.021,0.675,0.062c2.018,0.368,3.361,2.311,2.994,4.327    c-3.197,17.566-19.6,30.259-29.612,31.457v36.758c0,4.371,3.555,7.927,7.926,7.927h1.747c4.371,0,7.927-3.556,7.927-7.927    l-0.194-18.208c0-8.5,6.894-15.409,15.368-15.409c0.932,0,1.974-0.168,1.974,0.81v5.824c0,0.974-1.056,0.81-1.974,0.81    c-4.371,0-7.926,3.557-7.926,7.928l0.194,18.208C163.803,163.331,156.908,170.239,148.433,170.239z M106.594,83.887    c-0.125,0-0.251,0.011-0.378,0.034c-1.139,0.208-1.898,1.306-1.69,2.445c2.991,16.43,18.164,28.592,27.725,30.078    c0.395,0.062,0.685,0.401,0.685,0.801v37.625c0,7.582,6.168,13.75,13.75,13.75h1.747c7.583,0,13.751-6.183,13.751-13.781    l-0.195-18.208c0-4.968,3.856-9.555,9.9-9.555v-4.205c-8.419,0-14.104,6.539-14.104,13.78l0.194,18.208    c0,5.272-4.283,9.556-9.546,9.556h-1.747c-5.263,0-9.545-4.282-9.545-9.546v-37.495c0-0.429,0.332-0.782,0.759-0.809    c9.524-0.594,25.846-13.538,28.879-30.2c0.208-1.141-0.552-2.236-1.692-2.445c-1.163-0.213-2.239,0.565-2.444,1.691    c-2.767,15.201-18.558,26.778-25.405,26.778h-3.169c-6.848,0-22.639-11.577-25.407-26.778    C108.48,84.612,107.61,83.887,106.594,83.887z"/>
		<path fill="#FFFFFF" d="M179.203,131.997c-4.086,0-7.411-3.325-7.411-7.41s3.325-7.408,7.411-7.408    c4.085,0,7.408,3.323,7.408,7.408S183.288,131.997,179.203,131.997z M179.203,118.797c-3.194,0-5.792,2.597-5.792,5.789    s2.598,5.791,5.792,5.791c3.192,0,5.789-2.599,5.789-5.791C184.992,121.395,182.396,118.797,179.203,118.797z"/>
		<path fill="#FFFFFF" d="M130.878,63.371h-5.668c-1.692,0-3.07-1.377-3.07-3.071v-1.708c0-1.693,1.377-3.071,3.07-3.071h5.668    c1.692,0,3.069,1.377,3.069,3.071V60.3C133.947,61.993,132.571,63.371,130.878,63.371z M125.21,57.141    c-0.8,0-1.451,0.651-1.451,1.452V60.3c0,0.801,0.651,1.452,1.451,1.452h5.668c0.8,0,1.45-0.651,1.45-1.452v-1.708    c0-0.801-0.65-1.452-1.45-1.452L125.21,57.141L125.21,57.141z"/>
		<path fill="#FFFFFF" d="M146.095,63.371h-5.667c-1.693,0-3.07-1.377-3.07-3.071v-1.708c0-1.693,1.377-3.071,3.07-3.071h5.667    c1.693,0,3.071,1.377,3.071,3.071V60.3C149.166,61.993,147.788,63.371,146.095,63.371z M140.428,57.141    c-0.8,0-1.451,0.651-1.451,1.452V60.3c0,0.801,0.651,1.452,1.451,1.452h5.667c0.801,0,1.452-0.651,1.452-1.452v-1.708    c0-0.801-0.651-1.452-1.452-1.452L140.428,57.141L140.428,57.141z"/>
	</g>
	<g>
		<path fill="#FFFFFF" d="M281.542,356.583l-1.403-0.811l11.552-20.004c0.145-0.251,0.412-0.404,0.701-0.404h23.105    c0.289,0,0.557,0.153,0.701,0.404l11.551,20.004l-1.402,0.811l-11.316-19.601h-22.17L281.542,356.583z"/>
		<path fill="#FFFFFF" d="M315.498,336.983h-23.105c-0.29,0-0.557-0.153-0.701-0.403c-12.222-21.171-11.934-20.157-11.552-20.819    c12.224-21.169,11.488-20.411,12.253-20.411c24.445,0,23.423-0.258,23.806,0.404l11.551,20.007c0.145,0.251,0.145,0.559,0,0.81    l-11.551,20.011C316.054,336.829,315.787,336.983,315.498,336.983z M292.86,335.365h22.17l11.083-19.2l-11.083-19.196h-22.17    l-11.084,19.196L292.86,335.365z"/>
		<path fill="#FFFFFF" d="M326.348,356.583l-11.552-20.004c-0.144-0.251-0.144-0.561,0-0.811    c12.222-21.171,11.488-20.415,12.253-20.415h23.102v1.619h-22.635l-11.084,19.2l11.318,19.6L326.348,356.583z"/>
		<path fill="#FFFFFF" d="M315.498,296.967c-24.445,0-23.424,0.258-23.806-0.404l-11.552-20.008l1.403-0.811l11.318,19.604h22.17    l11.316-19.604l1.402,0.811C315.528,297.725,316.262,296.967,315.498,296.967z"/>
		<path fill="#FFFFFF" d="M350.15,316.973h-23.102c-0.289,0-0.557-0.153-0.701-0.404c-12.223-21.17-11.934-20.152-11.552-20.815    l11.552-20.008l1.402,0.811l-11.318,19.604l11.084,19.195h22.635V316.973z"/>
		<path fill="#FFFFFF" d="M281.542,356.583l-1.403-0.811l11.318-19.6l-11.084-19.2h-22.635v-1.619    c24.445,0,23.42-0.258,23.803,0.405l11.552,20.01c0.145,0.25,0.145,0.56,0,0.811L281.542,356.583z"/>
		<path fill="#FFFFFF" d="M257.739,316.973v-1.619h22.635l11.084-19.195l-11.318-19.604l1.403-0.811    c12.223,21.171,11.934,20.154,11.552,20.817l-11.552,20.006C281.159,317.231,282.182,316.973,257.739,316.973z"/>
		<g>
			<path fill="#FFFFFF" d="M276.772,278.49c-4.952,0-8.98-4.028-8.98-8.979c0-4.953,4.029-8.981,8.98-8.981     c4.952,0,8.981,4.028,8.981,8.981C285.753,274.461,281.724,278.49,276.772,278.49z M276.772,262.148     c-4.059,0-7.361,3.304-7.361,7.362s3.302,7.36,7.361,7.36c4.06,0,7.362-3.303,7.362-7.36     C284.134,265.451,280.832,262.148,276.772,262.148z"/>
			<path fill="#FFFFFF" d="M329.769,371.822c-4.951,0-8.979-4.028-8.979-8.98c0-4.953,4.029-8.982,8.979-8.982     c4.952,0,8.981,4.029,8.981,8.982C338.75,367.792,334.721,371.822,329.769,371.822z M329.769,355.478     c-4.059,0-7.36,3.304-7.36,7.362s3.302,7.362,7.36,7.362c4.061,0,7.362-3.305,7.362-7.362     C337.131,358.781,333.828,355.478,329.769,355.478z"/>
		</g>
		<g>
			<path fill="#FFFFFF" d="M322.137,274.147c-2.528-4.258-1.123-9.778,3.135-12.31c4.346-2.582,9.835-1.03,12.308,3.136     c2.529,4.257,1.123,9.779-3.134,12.309C330.097,279.863,324.611,278.311,322.137,274.147z M326.098,263.229     c-6.404,3.809-3.695,13.693,3.769,13.693c5.683,0,9.229-6.228,6.321-11.123C334.161,262.386,329.663,261.112,326.098,263.229z"/>
			<path fill="#FFFFFF" d="M267.981,360.573c1.958-7.688,12.313-9.29,16.423-2.369c2.536,4.267,1.134,9.773-3.134,12.308     C274.45,374.564,266.003,368.337,267.981,360.573z M269.55,360.972c-0.485,1.906-0.2,3.887,0.804,5.577     c3.385,5.696,11.864,4.338,13.463-1.943c0.485-1.904,0.2-3.885-0.805-5.575C279.664,353.392,271.16,354.654,269.55,360.972z"/>
		</g>
		<g>
			<path fill="#FFFFFF" d="M356.925,324.789c1.032,0-6.621,0.575-8.632-6.536c-2.165-7.644,6.033-14.191,13.021-10.286     C369.363,312.465,366.142,324.789,356.925,324.789z M349.851,317.812c1.771,6.249,10.284,7.354,13.511,1.584     c1.979-3.543,0.707-8.036-2.837-10.017C354.797,306.176,348.079,311.548,349.851,317.812z"/>
			<path fill="#FFFFFF" d="M249.6,325.525c-6.781,0-11.198-7.337-7.832-13.36c3.91-7.002,14.319-5.707,16.481,1.935     c0.653,2.31,0.368,4.733-0.803,6.827C254.496,326.209,248.416,325.525,249.6,325.525z M243.182,312.954     c-0.959,1.716-1.192,3.702-0.657,5.595c1.786,6.312,10.327,7.283,13.508,1.586c0.96-1.716,1.193-3.703,0.658-5.596     C254.921,308.279,246.396,307.197,243.182,312.954z"/>
		</g>
	</g>
	<g>
		<path fill="#FFFFFF" d="M476.277,126.054C437.18,83.53,437.636,84.846,438.77,83.965c11.75-9.157,28.639-7.757,38.733,3.223    c10.036,10.916,10.02,27.988-0.036,38.868C477.147,126.403,476.598,126.402,476.277,126.054z M440.468,84.713l36.397,39.587    c8.896-10.285,8.714-25.935-0.555-36.017C467.075,78.24,451.648,76.583,440.468,84.713z"/>
		<path fill="#FFFFFF" d="M435.258,126.028c-10.034-10.913-10.018-27.986,0.036-38.866c0.322-0.35,0.871-0.346,1.19,0.001    l37.605,40.901c0.32,0.351,0.274,0.896-0.098,1.188C462.18,138.458,445.312,136.963,435.258,126.028z M435.897,88.916    c-8.896,10.286-8.716,25.936,0.554,36.017c9.269,10.081,24.71,11.67,35.843,3.571L435.897,88.916z"/>
	</g>
	<g>
		<path fill="#FFFFFF" d="M682.15,177.608c-19.676,0-36.502-15.434-41.221-37.656c-5.451,1.505-8.811-10.413-6.193-19.329    c0.113-0.391,0.504-0.633,0.898-0.572c0.4,0.062,0.695,0.41,0.688,0.815c-0.045,2.37-0.064,3.721-0.084,4.988    c5.057-8.159,13.332-23.108,14.809-32.577c0.041-0.251,0.195-0.469,0.418-0.589c0.225-0.121,0.492-0.127,0.723-0.021    c16.701,7.713,41.74,8.186,59.463,0c0.229-0.106,0.498-0.1,0.721,0.021c0.225,0.12,0.379,0.338,0.418,0.589    c1.488,9.543,9.727,24.362,14.811,32.577c-0.031-2.103-0.064-4.144-0.113-6.423c-0.008-0.392,0.266-0.731,0.648-0.811    c0.385-0.077,0.768,0.13,0.912,0.492c3.502,8.759,0.16,22.448-5.674,20.838C718.654,162.175,701.826,177.608,682.15,177.608z     M642.32,138.655c4.271,21.981,20.65,37.333,39.83,37.333s35.561-15.352,39.832-37.333c0.051-0.261,0.227-0.479,0.471-0.586    c0.568-0.252,0.977,0.383,1.787,0.383c1.924,0,4.043-3.57,4.51-8.929c-0.854,0.335-0.971-0.303-3.312-4.081    c-0.115-0.188-11.688-18.767-14.064-30.876c-17.258,7.545-41.496,7.613-58.91,0c-2.51,12.75-16.119,34.824-16.908,34.996    c0.41,4.626,2.668,10.329,5.547,8.559C641.583,137.825,642.21,138.103,642.32,138.655z"/>
		<g>
			<path fill="#FFFFFF" d="M635.156,129.547c-0.811-0.237-0.582-0.798-0.516-5.205c0.289-18.808,1.303-50.833,4.832-53.999     c22.207-19.883,63.146-19.465,84.887,0c3.521,3.158,4.543,35.188,4.836,54c0.066,4.4,0.295,4.968-0.516,5.205     c-0.354,0.1-0.725-0.042-0.916-0.352l-2.326-3.754c-0.115-0.188-11.688-18.767-14.064-30.876c-17.258,7.545-41.496,7.613-58.91,0     c-2.098,10.655-10.812,25.63-16.393,34.632C635.878,129.508,635.501,129.65,635.156,129.547z M711.988,92.593     c0.131,0,0.264,0.032,0.381,0.096c0.225,0.12,0.379,0.338,0.42,0.589c1.486,9.543,9.727,24.362,14.809,32.577     c-0.07-4.812-0.793-51.146-4.318-54.305c-21.084-18.881-61.096-19.367-82.725,0c-3.539,3.173-4.244,49.593-4.316,54.305     c5.057-8.159,13.334-23.108,14.811-32.577c0.039-0.251,0.193-0.469,0.418-0.589c0.225-0.121,0.492-0.127,0.723-0.021     c16.699,7.713,41.74,8.186,59.461,0C711.755,92.618,711.873,92.593,711.988,92.593z"/>
			<path fill="#FFFFFF" d="M641.353,145.147l0.428-1.562c23.727,6.52,56.162,6.578,80.104,0.077l0.424,1.562     C698.144,151.787,665.41,151.758,641.353,145.147z"/>
			<path fill="#FFFFFF" d="M609.226,230.039c-0.238,0-0.467-0.106-0.619-0.29c-0.154-0.185-0.219-0.425-0.178-0.661     c1.412-8.004,3.756-15.055,6.969-20.957c6.76-12.424,17.174-27.436,28.418-28.459c1.354-0.301,2.705-0.454,4.018-0.454h10.658     c0.18,0,0.354,0.06,0.494,0.169l22.932,17.717l22.932-17.717c0.143-0.109,0.314-0.169,0.494-0.169     c11.461,0,12.031-0.133,14.672,0.454c11.24,1.021,21.658,16.033,28.422,28.458c3.209,5.896,5.553,12.947,6.969,20.958     C755.66,230.518,761.566,230.039,609.226,230.039z M610.197,228.419h143.439c-1.396-7.444-3.625-14.007-6.621-19.515     c-6.586-12.098-16.648-26.71-27.195-27.625c-0.811-0.069-1.508-0.442-3.82-0.442h-10.381     c-24.4,18.853-23.389,18.557-24.197,17.93l-23.207-17.93c-17.951,0-10.025,0.08-14.203,0.442     c-10.551,0.919-20.609,15.53-27.191,27.627C613.82,214.418,611.593,220.98,610.197,228.419z"/>
		</g>
	</g>
	<g>
		<path fill="#FFFFFF" d="M823.359,338.416c-6.217,0-11.295-5.057-11.32-11.271l-0.299-68.726    c-0.025-6.241,5.029-11.341,11.271-11.368l117.895-0.513c6.264,0,11.342,5.057,11.367,11.271l0.299,68.725    c0.014,3.022-1.152,5.87-3.279,8.019c-2.129,2.146-4.967,3.337-7.99,3.351l-117.895,0.514    C823.408,338.416,823.359,338.416,823.359,338.416z M940.955,248.159l-117.938,0.513c-5.35,0.022-9.682,4.394-9.656,9.742    l0.297,68.724c0.021,5.325,4.375,9.658,9.701,9.658v0.81l0.043-0.81l117.895-0.513c2.59-0.014,5.021-1.031,6.846-2.871    c1.824-1.842,2.822-4.28,2.812-6.871l-0.299-68.726C950.63,252.491,946.281,248.159,940.955,248.159z"/>
		<g>
			<g>
				<g>
					<path fill="#FFFFFF" d="M915.732,330.665c-0.021,0-0.041-0.001-0.062-0.003c-7.449-0.573-13.311-6.882-13.346-14.361       c-0.031-7.478,5.775-13.837,13.221-14.478c0.23-0.026,0.447,0.056,0.615,0.209c0.168,0.151,0.264,0.366,0.264,0.594       l0.119,27.226c0,0.228-0.094,0.442-0.26,0.598C916.132,330.586,915.935,330.665,915.732,330.665z M914.806,303.542       c-6.186,0.968-10.891,6.404-10.861,12.751c0.027,6.346,4.779,11.743,10.975,12.656L914.806,303.542z"/>
					<path fill="#FFFFFF" d="M920.23,330.644c-0.201,0-0.396-0.074-0.547-0.212c-0.166-0.152-0.262-0.367-0.264-0.594l-0.119-27.227       c0-0.227,0.094-0.441,0.26-0.597c0.164-0.153,0.389-0.233,0.613-0.214c7.449,0.576,13.312,6.886,13.344,14.361       c0.033,7.479-5.771,13.84-13.219,14.478C920.277,330.644,920.251,330.644,920.23,330.644z M920.923,303.515l0.111,25.407       c6.186-0.967,10.891-6.405,10.863-12.75S927.119,304.429,920.923,303.515z"/>
				</g>
				<g>
					<path fill="#FFFFFF" d="M915.521,282.843c-0.02,0-0.041-0.001-0.061-0.002c-7.451-0.573-13.311-6.881-13.344-14.362       c-0.033-7.478,5.773-13.836,13.219-14.477c0.229-0.025,0.449,0.057,0.617,0.209c0.166,0.151,0.262,0.368,0.264,0.595       l0.115,27.225c0.002,0.227-0.092,0.441-0.258,0.597C915.923,282.766,915.726,282.843,915.521,282.843z M914.599,255.721       c-6.186,0.968-10.893,6.406-10.863,12.752c0.027,6.347,4.779,11.744,10.973,12.655L914.599,255.721z"/>
					<path fill="#FFFFFF" d="M920.021,282.824c-0.201,0-0.395-0.075-0.547-0.213c-0.166-0.151-0.262-0.367-0.262-0.594       l-0.119-27.224c0-0.227,0.092-0.442,0.258-0.598c0.166-0.152,0.381-0.233,0.613-0.214c7.451,0.573,13.312,6.883,13.346,14.359       c0.033,7.48-5.773,13.841-13.221,14.478C920.068,282.823,920.044,282.824,920.021,282.824z M920.716,255.696l0.111,25.406       c6.186-0.966,10.891-6.402,10.863-12.751C931.664,262.005,926.91,256.609,920.716,255.696z"/>
				</g>
			</g>
			<g>
				<g>
					<path fill="#FFFFFF" d="M878.947,330.825c-0.021,0-0.041-0.001-0.062-0.002c-7.449-0.574-13.312-6.883-13.346-14.361       c-0.031-7.479,5.775-13.838,13.221-14.479c0.223-0.02,0.447,0.058,0.615,0.209c0.168,0.152,0.264,0.368,0.264,0.595       l0.117,27.227c0.002,0.228-0.092,0.442-0.258,0.597C879.347,330.749,879.15,330.825,878.947,330.825z M878.021,303.702       c-6.186,0.97-10.891,6.406-10.861,12.752c0.025,6.347,4.779,11.744,10.973,12.655L878.021,303.702z"/>
					<path fill="#FFFFFF" d="M883.443,330.806c-0.201,0-0.396-0.075-0.547-0.212c-0.166-0.153-0.262-0.368-0.264-0.594       l-0.117-27.228c0-0.227,0.094-0.442,0.26-0.597c0.164-0.153,0.389-0.231,0.611-0.215c7.451,0.576,13.312,6.885,13.346,14.363       c0.033,7.477-5.773,13.836-13.221,14.477C883.49,330.805,883.466,330.806,883.443,330.806z M884.138,303.675l0.109,25.407       c6.188-0.967,10.893-6.405,10.865-12.751C895.085,309.988,890.333,304.59,884.138,303.675z"/>
				</g>
				<g>
					<path fill="#FFFFFF" d="M878.74,283.004c-0.021,0-0.041-0.001-0.062-0.003c-7.451-0.574-13.312-6.883-13.346-14.362       c-0.031-7.479,5.775-13.837,13.221-14.477c0.23-0.021,0.447,0.057,0.615,0.209c0.168,0.151,0.264,0.367,0.264,0.594       l0.117,27.225c0.002,0.228-0.092,0.443-0.258,0.599C879.138,282.927,878.943,283.004,878.74,283.004z M877.816,255.882       c-6.186,0.967-10.893,6.404-10.865,12.75c0.027,6.347,4.781,11.744,10.975,12.656L877.816,255.882z"/>
					<path fill="#FFFFFF" d="M883.236,282.984c-0.201,0-0.396-0.074-0.545-0.212c-0.168-0.151-0.264-0.368-0.266-0.595       l-0.117-27.223c0-0.228,0.094-0.442,0.26-0.598c0.164-0.152,0.379-0.234,0.611-0.215c7.451,0.575,13.312,6.884,13.346,14.361       c0.031,7.479-5.775,13.839-13.221,14.477C883.283,282.983,883.259,282.984,883.236,282.984z M883.931,255.856l0.109,25.406       c6.186-0.966,10.891-6.404,10.865-12.751C894.878,262.166,890.125,256.77,883.931,255.856z"/>
				</g>
			</g>
			<g>
				<g>
					<path fill="#FFFFFF" d="M842.164,330.985c-0.021,0-0.043,0-0.062-0.002c-7.451-0.574-13.312-6.884-13.348-14.361       c-0.033-7.478,5.773-13.837,13.219-14.479c0.225-0.021,0.449,0.056,0.617,0.209c0.166,0.152,0.262,0.367,0.264,0.594       l0.119,27.229c0.002,0.227-0.092,0.441-0.258,0.597C842.562,330.908,842.367,330.985,842.164,330.985z M841.238,303.862       c-6.188,0.97-10.893,6.407-10.863,12.754c0.027,6.344,4.779,11.74,10.975,12.654L841.238,303.862z"/>
					<path fill="#FFFFFF" d="M846.66,330.964c-0.201,0-0.396-0.075-0.547-0.212c-0.166-0.152-0.262-0.368-0.264-0.594l-0.119-27.227       c0-0.226,0.094-0.441,0.26-0.597c0.166-0.154,0.379-0.23,0.613-0.214c7.451,0.574,13.312,6.885,13.346,14.361       c0.031,7.479-5.773,13.838-13.221,14.478C846.707,330.964,846.681,330.964,846.66,330.964z M847.353,303.834l0.111,25.408       c6.188-0.967,10.893-6.404,10.863-12.75C858.3,310.147,853.548,304.749,847.353,303.834z"/>
				</g>
				<g>
					<path fill="#FFFFFF" d="M841.953,283.164c-0.021,0-0.041-0.001-0.062-0.002c-7.447-0.575-13.311-6.885-13.344-14.361       c-0.033-7.479,5.775-13.838,13.219-14.478c0.232-0.024,0.449,0.057,0.617,0.209c0.166,0.151,0.262,0.366,0.264,0.594       l0.117,27.225c0,0.228-0.094,0.442-0.26,0.597C842.353,283.087,842.158,283.164,841.953,283.164z M841.031,256.042       c-6.188,0.967-10.895,6.404-10.865,12.751c0.027,6.346,4.781,11.742,10.975,12.656L841.031,256.042z"/>
					<path fill="#FFFFFF" d="M846.451,283.144c-0.201,0-0.396-0.075-0.545-0.212c-0.168-0.152-0.264-0.368-0.266-0.595       l-0.117-27.225c0-0.226,0.092-0.441,0.258-0.597c0.166-0.153,0.381-0.233,0.613-0.214c7.451,0.574,13.312,6.883,13.346,14.361       s-5.773,13.839-13.221,14.477C846.498,283.143,846.474,283.144,846.451,283.144z M847.146,256.015l0.109,25.406       c6.188-0.966,10.891-6.403,10.863-12.751C858.093,262.326,853.339,256.929,847.146,256.015z"/>
				</g>
			</g>
		</g>
	</g>
	<g>
		<path fill="#FFFFFF" d="M948.302,107.03h-58.201c-6.459,0-11.713-5.255-11.713-11.714V49.678c0-6.459,5.254-11.713,11.713-11.713    h58.201c6.459,0,11.715,5.254,11.715,11.713v45.638C960.017,101.775,954.761,107.03,948.302,107.03z M890.101,39.583    c-5.564,0-10.094,4.527-10.094,10.094v45.638c0,5.566,4.527,10.096,10.094,10.096h58.201c5.566,0,10.096-4.529,10.096-10.096    V49.678c0-5.566-4.529-10.094-10.096-10.094L890.101,39.583L890.101,39.583z"/>
		<g>
			<path fill="#FFFFFF" d="M919.203,89.204c-8.613,0-15.621-7.009-15.621-15.623s7.008-15.622,15.621-15.622     c8.615,0,15.623,7.008,15.623,15.622S927.818,89.204,919.203,89.204z M919.203,59.579c-7.721,0-14.002,6.281-14.002,14.003     s6.281,14.003,14.002,14.003c7.723,0,14.004-6.281,14.004-14.003C933.207,65.86,926.923,59.579,919.203,59.579z"/>
			<path fill="#FFFFFF" d="M919.203,81.813c-1.756,0-3.186-1.428-3.186-3.184v-1.862h-1.861c-1.756,0-3.186-1.429-3.186-3.186     c0-1.756,1.43-3.186,3.186-3.186h1.861v-1.86c0-1.757,1.43-3.186,3.186-3.186s3.184,1.429,3.184,3.186v1.86h1.863     c1.756,0,3.184,1.43,3.184,3.186c0,1.757-1.428,3.186-3.184,3.186h-1.863v1.862C922.386,80.385,920.958,81.813,919.203,81.813z      M914.156,72.016c-0.863,0-1.566,0.702-1.566,1.566c0,3.021,5.047,0.369,5.047,2.376v2.672c0,0.862,0.703,1.563,1.566,1.563     s1.564-0.701,1.564-1.563v-2.672c0-0.447,0.361-0.811,0.811-0.811h2.672c2.068,0,2.068-3.132,0-3.132h-2.672     c-0.449,0-0.811-0.363-0.811-0.81v-2.671c0-2.073-3.131-2.065-3.131,0c0,2.374,0.238,3.479-0.811,3.479L914.156,72.016     L914.156,72.016z"/>
		</g>
		<g>
			<path fill="#FFFFFF" d="M889.587,39.597c-0.213,0-0.416-0.083-0.568-0.232c-0.162-0.16-0.25-0.381-0.24-0.607     c0.074-1.95,1.658-3.479,3.607-3.479h3.742c1.881,0,3.428,1.427,3.598,3.279c0.127,0.461-0.137,0.971-0.797,1.025h-8.828     c-0.158,0-0.314,0.004-0.473,0.012C889.617,39.597,889.601,39.597,889.587,39.597z M890.623,37.964h7.271     c-0.703-1.342-1.729-1.066-5.508-1.066C891.621,36.898,890.957,37.328,890.623,37.964z"/>
			<path fill="#FFFFFF" d="M939.474,39.583c-1.76,0-0.549-4.305,2.801-4.305h3.74c2.936,0,4.189,3.278,3.371,4.084     C949.025,39.721,949.49,39.583,939.474,39.583z M940.509,37.964h7.273c-0.701-1.342-1.729-1.066-5.51-1.066     C941.509,36.898,940.843,37.328,940.509,37.964z"/>
		</g>
		<path fill="#FFFFFF" d="M934.046,39.583c-31.418,0-30.498,0.347-30.498-0.811v-5.406c0-3.96,3.221-7.182,7.182-7.182h16.945    c3.959,0,7.182,3.222,7.182,7.182v5.406C934.857,39.221,934.494,39.583,934.046,39.583z M905.167,37.964h28.068v-4.598    c0-3.067-2.494-5.562-5.562-5.562h-16.945c-3.066,0-5.562,2.495-5.562,5.562v4.598H905.167z"/>
	</g>
	<g>
		<g>
			<path fill="#FFFFFF" d="M785.642,114.009h-26.826c-0.447,0-0.811-0.362-0.811-0.81V45.582c0-0.148,0.041-0.292,0.117-0.419     l6.85-11.327c0-8.103-0.283-8.767,0.811-8.767h12.893c0.447,0,0.811,0.363,0.811,0.811v7.956     c0.189,0.314,6.969,11.378,6.969,11.747C786.453,118.021,786.845,114.009,785.642,114.009z M759.625,112.39h25.209V45.808     l-6.672-11.029c-0.48-0.399-0.297-0.383-0.297-8.09h-11.273c0,7.517,0.215,7.76-0.336,8.156l-6.631,10.963V112.39L759.625,112.39     z"/>
			<path fill="#FFFFFF" d="M782.333,147.968h-20.211c-3.068,0-5.564-2.496-5.564-5.563c0-3.068,2.496-5.564,5.564-5.564h20.211     c3.068,0,5.564,2.497,5.564,5.564C787.9,145.472,785.402,147.968,782.333,147.968z M762.125,138.458     c-2.176,0-3.945,1.771-3.945,3.945c0,2.176,1.771,3.944,3.945,3.944h20.209c2.176,0,3.947-1.77,3.947-3.944     c0-2.176-1.771-3.945-3.947-3.945H762.125z"/>
		</g>
		<path fill="#FFFFFF" d="M776.089,26.689h-7.723V12.455L776.089,0V26.689z M769.988,25.07h4.482V5.684l-4.482,7.232V25.07z"/>
		<path fill="#FFFFFF" d="M776.089,138.458h-7.723V112.39h7.723V138.458z M769.988,136.839h4.482v-22.83h-4.482V136.839z"/>
		<g>
			<path fill="#FFFFFF" d="M785.642,100.824H773.48c-1.723,0-3.125-1.401-3.125-3.125s1.402-3.125,3.125-3.125     c12.693,0,12.973-0.307,12.973,0.81v4.63C786.453,100.461,786.089,100.824,785.642,100.824z M773.48,96.194     c-1.988,0-1.99,3.012,0,3.012h11.354v-3.012H773.48z"/>
			<path fill="#FFFFFF" d="M785.642,79.78H773.48c-1.723,0-3.125-1.401-3.125-3.123c0-1.724,1.402-3.125,3.125-3.125h12.162     c0.447,0,0.811,0.361,0.811,0.81v4.629C786.453,79.417,786.089,79.78,785.642,79.78z M773.48,75.15     c-0.83,0-1.506,0.676-1.506,1.505c0,0.83,0.676,1.505,1.506,1.505h11.354v-3.011L773.48,75.15L773.48,75.15z"/>
			<path fill="#FFFFFF" d="M785.642,58.737H773.48c-1.723,0-3.125-1.401-3.125-3.125c0-1.723,1.402-3.125,3.125-3.125     c12.693,0,12.973-0.306,12.973,0.811v4.63C786.453,58.375,786.089,58.737,785.642,58.737z M773.48,54.107     c-0.83,0-1.506,0.676-1.506,1.505c0,0.83,0.676,1.506,1.506,1.506h11.354v-3.012L773.48,54.107L773.48,54.107z"/>
		</g>
		<g>
			<g>
				<path fill="#FFFFFF" d="M809.187,70.5c-3.35,0-8.316-2.766-8.316-6.585l1.734-22.586c-0.002-3.569,2.951-6.523,6.582-6.523      c3.633,0,6.586,2.955,6.586,6.585l1.73,22.462C817.505,67.735,812.539,70.5,809.187,70.5z M809.187,36.425      c-2.736,0-4.965,2.228-4.965,4.966l-1.734,22.586c0.002,2.496,3.775,4.904,6.699,4.904c2.926,0,6.699-2.408,6.699-4.966      l-1.729-22.462C814.154,38.653,811.925,36.425,809.187,36.425z"/>
				<path fill="#FFFFFF" d="M809.187,146.211c-5.867,0-10.643-4.774-10.643-10.644c0-0.351-0.064-56.028,0.117-56.33l4.99-8.254      v-2.839c0-0.298,0.164-0.571,0.428-0.713c0.262-0.141,0.582-0.126,0.83,0.038c2.805,1.861,5.748,1.863,8.555,0      c0.539-0.355,1.258,0.029,1.258,0.674v2.839c0.191,0.316,5.107,8.305,5.107,8.674v55.91      C819.832,141.437,815.056,146.211,809.187,146.211z M800.164,79.883v55.685c0,4.977,4.049,9.023,9.023,9.023      c4.977,0,9.023-4.048,9.023-9.023V79.883c-6.01-9.939-5.107-7.758-5.107-10.35c-2.686,1.286-5.168,1.275-7.83,0      c0,0.388,0.062,1.796-0.117,2.097L800.164,79.883z"/>
			</g>
			<path fill="#FFFFFF" d="M818.453,104.151h-18.697c-1.07,0-1.068-1.618,0-1.618c19.811,0,19.506-0.307,19.506,0.81     C819.261,103.789,818.9,104.151,818.453,104.151z"/>
			<path fill="#FFFFFF" d="M802.646,110.848c0-3.082,4.664-3.083,4.664,0C807.31,113.928,802.646,113.929,802.646,110.848z      M804.265,110.848c0,0.94,1.426,0.941,1.426,0C805.691,109.905,804.265,109.905,804.265,110.848z"/>
			<path fill="#FFFFFF" d="M812.533,119.604c-1.35,0-2.445-1.096-2.445-2.442c0-1.35,1.098-2.445,2.445-2.445     s2.443,1.097,2.443,2.445C814.976,118.509,813.88,119.604,812.533,119.604z M812.533,116.335c-1.09,0-1.092,1.649,0,1.649     C813.626,117.985,813.623,116.335,812.533,116.335z"/>
			<path fill="#FFFFFF" d="M805.937,130.655c-1.439,0-2.613-1.173-2.613-2.613c0-1.441,1.174-2.613,2.613-2.613     s2.613,1.172,2.613,2.613C808.55,129.482,807.376,130.655,805.937,130.655z M805.937,127.047c-1.312,0-1.312,1.989,0,1.989     S807.25,127.047,805.937,127.047z"/>
			<path fill="#FFFFFF" d="M811.667,136.553c0-2.485,3.762-2.485,3.762,0S811.667,139.04,811.667,136.553z M813.287,136.553     c0,0.347,0.521,0.345,0.521,0C813.808,136.209,813.287,136.207,813.287,136.553z"/>
			<path fill="#FFFFFF" d="M806.669,139.674c-2.932,0-2.932-4.438,0-4.438S809.601,139.674,806.669,139.674z M806.072,137.456     c0,0.792,1.197,0.792,1.197,0C807.269,136.663,806.072,136.663,806.072,137.456z"/>
		</g>
	</g>
	<g>
		<g>
			<path fill="#FFFFFF" d="M560.896,186.939l-23.295-23.596c-7.203-7.296-7.127-19.092,0.168-26.297     c3.504-3.458,8.143-5.362,13.064-5.362c5.012,0,9.711,1.964,13.232,5.531l23.297,23.594c7.203,7.297,7.127,19.094-0.17,26.297     C579.896,194.31,568.136,194.269,560.896,186.939z M550.833,133.303c-4.494,0-8.729,1.739-11.926,4.896     c-6.66,6.576-6.73,17.346-0.154,24.007l23.295,23.596c3.215,3.255,7.506,5.048,12.08,5.048c14.988,0,22.656-18.188,12.082-28.901     l-23.297-23.595C559.701,135.096,555.41,133.303,550.833,133.303z"/>
			<path fill="#FFFFFF" d="M550.294,174.919c-0.209,0-0.418-0.081-0.578-0.241c-0.312-0.318-0.311-0.831,0.008-1.145l24.846-24.53     c0.316-0.313,0.828-0.312,1.145,0.007c0.314,0.318,0.312,0.831-0.008,1.146l-24.844,24.528     C550.707,174.841,550.5,174.919,550.294,174.919z"/>
		</g>
		<g>
			<path fill="#FFFFFF" d="M558.507,234.58l-31.705-9.709c-4.75-1.454-8.646-4.671-10.977-9.058s-2.812-9.418-1.357-14.167     c3.074-10.042,13.547-15.299,23.225-12.335l31.703,9.708c9.803,3.002,15.336,13.421,12.336,23.226     C578.664,232.266,568.203,237.549,558.507,234.58z M516.015,202.121c-1.328,4.336-0.887,8.928,1.24,12.933     c2.127,4.004,5.688,6.941,10.023,8.27l31.705,9.709c8.832,2.703,18.393-2.093,21.201-11.263     c2.74-8.95-2.312-18.461-11.264-21.203l-31.703-9.708C528.384,188.155,518.826,192.951,516.015,202.121z"/>
			<path fill="#FFFFFF" d="M543.085,229.132c-0.078,0-0.158-0.011-0.238-0.036c-0.428-0.13-0.668-0.583-0.537-1.011     c10.811-35.303,10.105-34.269,11.234-33.92c0.428,0.13,0.668,0.583,0.537,1.011l-10.223,33.384     C543.751,228.908,543.431,229.132,543.085,229.132z"/>
		</g>
	</g>
	<g>
		<g>
			<g>
				<g>
					<path fill="#FFFFFF" d="M125.265,227.306H95.622c-0.323,0-0.584-0.261-0.584-0.584c0-30.668-0.271-29.463,0.584-29.463h14.668       c1.978,0,4.625,1.097,6.026,2.497l10.324,10.325c1.376,1.375,2.495,4.077,2.495,6.022v7.329       C129.136,225.568,127.399,227.306,125.265,227.306z M96.207,226.137h29.058c1.49,0,2.702-1.213,2.702-2.705v-7.329       c0-1.649-0.986-4.029-2.153-5.195l-10.324-10.325c-1.169-1.167-3.55-2.154-5.199-2.154H96.207V226.137z"/>
					<path fill="#FFFFFF" d="M145.054,244.899c-9.978,0-10.128,0.226-10.128-0.584c0-9.731-0.225-9.884,0.585-9.884       c6.938,0,5.234-0.787,10.267,4.243c1.151,1.154,0.919,2.66,0.919,4.581C146.697,244.162,145.96,244.899,145.054,244.899z        M136.095,243.73c8.735,0,9.433,0.303,9.433-0.476c0-1.692,0.218-2.956-0.578-3.754c-4.675-4.671-2.97-3.9-8.855-3.9V243.73z"/>
					<path fill="#FFFFFF" d="M113.244,240.761h-8.321c-1.402,0-2.543-1.142-2.543-2.543c0-1.402,1.141-2.542,2.543-2.542h8.321       c1.402,0,2.543,1.14,2.543,2.542C115.787,239.619,114.646,240.761,113.244,240.761z M104.922,236.846       c-0.757,0-1.374,0.615-1.374,1.372s0.616,1.373,1.374,1.373h8.321c1.816,0,1.816-2.745,0-2.745H104.922z"/>
					<g>
						<path fill="#FFFFFF" d="M50.643,236.256c-8.496,0-15.406-6.91-15.406-15.405c0-8.496,6.911-15.406,15.406-15.406        s15.406,6.91,15.406,15.406C66.049,229.346,59.138,236.256,50.643,236.256z M50.643,206.613        c-7.851,0-14.237,6.388-14.237,14.237c0,7.851,6.387,14.237,14.237,14.237S64.88,228.7,64.88,220.85        C64.88,213,58.493,206.613,50.643,206.613z"/>
						<path fill="#FFFFFF" d="M50.643,228.86c-1.633,0-2.961-1.327-2.961-2.96v-2.087h-2.088c-1.633,0-2.962-1.329-2.962-2.962        c0-1.634,1.329-2.963,2.962-2.963h2.088v-2.085c0-1.633,1.328-2.962,2.961-2.962c1.632,0,2.96,1.329,2.96,2.962v2.085h2.088        c1.634,0,2.963,1.329,2.963,2.963c0,1.633-1.329,2.962-2.963,2.962h-2.088v2.087C53.604,227.533,52.275,228.86,50.643,228.86z         M45.593,219.058c-0.988,0-1.792,0.804-1.792,1.792s0.804,1.792,1.792,1.792h2.673c0.323,0,0.585,0.263,0.585,0.585v2.672        c0,0.987,0.804,1.792,1.792,1.792c0.987,0,1.791-0.804,1.791-1.792v-2.672c0-0.323,0.262-0.585,0.584-0.585h2.673        c0.989,0,1.793-0.804,1.793-1.792s-0.805-1.792-1.793-1.792h-2.673c-0.323,0-0.584-0.263-0.584-0.585v-2.671        c0-0.988-0.804-1.793-1.791-1.793c-0.988,0-1.792,0.805-1.792,1.793v2.671c0,0.322-0.262,0.585-0.585,0.585H45.593z"/>
					</g>
					<g>
						<path fill="#FFFFFF" d="M32.374,263.767H17.459c-3.562,0-6.459-2.896-6.459-6.457c0-3.562,2.898-6.461,6.459-6.461h21.476        c0.558,0,0.799,0.709,0.356,1.049c-3.582,2.75-5.891,6.886-6.336,11.344C32.926,263.54,32.674,263.767,32.374,263.767z         M17.459,252.018c-2.917,0-5.29,2.374-5.29,5.292c0,2.916,2.373,5.288,5.29,5.288h14.393c0.53-4.041,2.488-7.802,5.484-10.58        H17.459L17.459,252.018z"/>
						<g>
							<path fill="#FFFFFF" d="M151.507,263.767c-21.61,0-21.094,0.283-21.174-0.525c-0.444-4.458-2.753-8.594-6.335-11.344         c-0.442-0.34-0.201-1.049,0.356-1.049h27.154c3.562,0,6.46,2.898,6.46,6.461C157.967,260.87,155.069,263.767,151.507,263.767         z M131.436,262.598h20.071c2.917,0,5.291-2.372,5.291-5.288c0-2.918-2.374-5.292-5.291-5.292h-25.556         C128.948,254.796,130.906,258.557,131.436,262.598z"/>
							<path fill="#FFFFFF" d="M66.096,263.767c-0.3,0-0.552-0.228-0.582-0.525c-0.444-4.458-2.753-8.594-6.336-11.344         c-0.199-0.151-0.278-0.415-0.198-0.651c0.08-0.237,0.303-0.396,0.554-0.396c46.965,0,44.563-0.221,44.773,0.396         c0.081,0.236,0.001,0.5-0.198,0.651c-3.582,2.75-5.892,6.886-6.335,11.344C97.694,264.05,99.191,263.767,66.096,263.767z          M66.617,262.598h30.054c0.529-4.041,2.488-7.802,5.485-10.58H61.133C64.129,254.796,66.088,258.557,66.617,262.598z"/>
						</g>
					</g>
				</g>
			</g>
			<path fill="#FFFFFF" d="M92.984,189.367c-7.678,0-8.002,0.226-8.002-0.584v-3.164c0-2.368,1.926-4.293,4.293-4.293     c2.367,0,4.293,1.926,4.293,4.293v3.164C93.568,189.105,93.307,189.367,92.984,189.367z M86.151,188.198h6.248v-2.58     c0-1.724-1.401-3.125-3.124-3.125s-3.124,1.401-3.124,3.125V188.198z"/>
		</g>
		<g>
			<path fill="#FFFFFF" d="M49.235,282.41c-9.667,0-17.532-7.865-17.532-17.532s7.865-17.53,17.532-17.53s17.531,7.863,17.531,17.53     S58.902,282.41,49.235,282.41z M49.235,248.515c-9.022,0-16.363,7.341-16.363,16.362c0,9.022,7.34,16.364,16.363,16.364     c9.022,0,16.362-7.342,16.362-16.364C65.597,255.856,58.257,248.515,49.235,248.515z M49.235,274.993     c-5.577,0-10.115-4.537-10.115-10.115c0-5.576,4.538-10.112,10.115-10.112c5.577,0,10.114,4.536,10.114,10.112     C59.349,270.456,54.812,274.993,49.235,274.993z M49.235,255.933c-4.933,0-8.945,4.014-8.945,8.944     c0,4.934,4.013,8.946,8.945,8.946c4.932,0,8.944-4.014,8.944-8.946C58.18,259.947,54.167,255.933,49.235,255.933z"/>
		</g>
		<g>
			<path fill="#FFFFFF" d="M114.053,282.41c-9.667,0-17.531-7.865-17.531-17.532s7.864-17.53,17.531-17.53     s17.532,7.863,17.532,17.53S123.721,282.41,114.053,282.41z M114.053,248.515c-9.022,0-16.362,7.341-16.362,16.362     c0,9.022,7.34,16.364,16.362,16.364s16.363-7.342,16.363-16.364C130.416,255.856,123.076,248.515,114.053,248.515z      M114.053,274.993c-5.577,0-10.114-4.537-10.114-10.115c0-5.576,4.537-10.112,10.114-10.112c5.577,0,10.114,4.536,10.114,10.112     C124.167,270.456,119.63,274.993,114.053,274.993z M114.053,255.933c-4.932,0-8.944,4.014-8.944,8.944     c0,4.934,4.012,8.946,8.944,8.946c4.932,0,8.945-4.014,8.945-8.946C122.998,259.947,118.985,255.933,114.053,255.933z"/>
		</g>
		<path fill="#FFFFFF" d="M150.106,252.019c-0.31,0-25.864,0.067-26.109-0.121c-5.87-4.507-14.002-4.521-19.887,0    c-0.102,0.078-0.227,0.121-0.356,0.121h-44.22c-0.128,0-0.254-0.043-0.356-0.121c-5.857-4.5-13.989-4.529-19.887,0    c-0.102,0.078-0.228,0.121-0.356,0.121c-20.343,0-19.617,0.25-19.617-0.585v-54.461c0-4.839,3.938-8.776,8.777-8.776h76.511    c4.651,0,11.109,2.676,14.397,5.965l25.726,25.723c3.288,3.288,5.962,9.746,5.962,14.396v17.153    C150.691,251.757,150.429,252.019,150.106,252.019z M124.55,250.849h24.971v-16.567c0-4.384-2.521-10.47-5.619-13.569    l-25.726-25.725c-3.099-3.099-9.187-5.62-13.57-5.62H28.095c-4.195,0-7.607,3.411-7.607,7.605v53.876h18.25    c6.206-4.658,14.741-4.694,20.993,0h43.826C109.762,246.19,118.298,246.156,124.55,250.849z"/>
	</g>
	<g>
		<path fill="#FFFFFF" d="M453.577,317.054c-69.133-35.101-22.375-84.805,0.413-55.046c21.937-29.832,69.587,20.057,0.318,55.047    C454.083,317.169,453.811,317.172,453.577,317.054z M453.944,315.424c66.686-33.932,20.805-81.142,0.729-51.578    c-0.148,0.22-0.396,0.354-0.662,0.354c-0.25,0.021-0.515-0.125-0.668-0.342C432.435,234.374,387.301,281.339,453.944,315.424z"/>
		<path fill="#FFFFFF" d="M466.134,302.516l-4.078-31.208l-3.243,22.112c-0.057,0.392-0.388,0.684-0.783,0.691    c-0.42,0.005-0.739-0.271-0.813-0.656l-2.703-14.163l-1.638,3.354c-0.133,0.273-0.409,0.448-0.713,0.454    c-0.321-0.01-0.586-0.159-0.729-0.429l-5.418-10.169l-4.548,10.868c-0.126,0.301-0.421,0.496-0.747,0.496h-34.487    c-0.448,0-0.811-0.361-0.811-0.811c0-0.447,0.362-0.81,0.811-0.81h33.949c5.188-12.396,4.899-12.402,5.708-12.44    c0.314-0.004,0.605,0.152,0.752,0.428l5.476,10.275l2.009-4.114c0.153-0.312,0.486-0.49,0.835-0.446    c0.346,0.047,0.623,0.309,0.688,0.649l2.26,11.837l3.393-23.141c0.06-0.4,0.394-0.728,0.809-0.692    c0.403,0.003,0.743,0.306,0.796,0.705l4.39,33.592c5.987-17.309,5.52-16.651,6.337-16.651c29.818,0,28.685-0.347,28.685,0.81    c0,0.448-0.361,0.811-0.811,0.811H474.21l-6.505,18.808C467.421,303.486,466.243,303.356,466.134,302.516z"/>
	</g>
	<g>
		<path fill="#FFFFFF" d="M630.753,352.514H524.072c-6.982,0-13.398-3.964-16.551-10.159h-16.234c-4.631,0-8.4-3.769-8.4-8.398    c0-4.632,3.769-8.399,8.4-8.399h16.234c3.15-6.196,9.566-10.161,16.551-10.161h106.682c10.232,0,18.561,8.326,18.561,18.562    C649.314,344.189,640.988,352.514,630.753,352.514z M491.287,327.839c-3.371,0-6.116,2.744-6.116,6.116s2.745,6.114,6.116,6.114    c18.168,0,17.564-0.257,17.99,0.666c2.646,5.768,8.457,9.494,14.795,9.494h106.682c8.977,0,16.277-7.301,16.277-16.274    c0-8.977-7.303-16.276-16.277-16.276H524.072c-6.34,0-12.146,3.727-14.797,9.495c-0.186,0.405-0.592,0.665-1.037,0.665H491.287    L491.287,327.839z"/>
		<path fill="#FFFFFF" d="M608.183,342.898v-4.994h-5.562v4.994c0,1.171-0.951,2.123-2.123,2.123c-1.17,0-2.121-0.952-2.121-2.123    v-4.994h-5.564v4.994c0,2.806-4.244,2.807-4.244,0v-4.994h-5.564v4.994c0,1.171-0.951,2.123-2.123,2.123    c-1.17,0-2.123-0.952-2.123-2.123v-4.994h-5.562v4.994c0,1.171-0.951,2.123-2.123,2.123c-1.17,0-2.123-0.952-2.123-2.123v-4.994    h-5.562v4.994c0,1.171-0.951,2.123-2.123,2.123c-1.17,0-2.123-0.952-2.123-2.123v-4.994h-5.562v4.994    c0,1.171-0.951,2.123-2.123,2.123c-1.17,0-2.123-0.952-2.123-2.123v-4.994h-5.562v4.994c0,1.171-0.951,2.123-2.123,2.123    s-2.123-0.952-2.123-2.123v-4.994h-33.859c-2.178,0-3.949-1.771-3.949-3.947c0-2.179,1.771-3.949,3.949-3.949h33.859v-4.994    c0-1.171,0.951-2.123,2.123-2.123s2.123,0.952,2.123,2.123v4.994h5.562v-4.994c0-2.806,4.246-2.807,4.246,0v4.994h5.562v-4.994    c0-1.171,0.953-2.123,2.123-2.123c1.172,0,2.123,0.952,2.123,2.123v4.994h5.562v-4.994c0-2.806,4.246-2.807,4.246,0v4.994h5.562    v-4.994c0-1.171,0.953-2.123,2.123-2.123c1.172,0,2.123,0.952,2.123,2.123v4.994h5.564v-4.994c0-1.171,0.951-2.123,2.123-2.123    c1.17,0,2.121,0.952,2.121,2.123v4.994h5.564v-4.994c0-1.171,0.951-2.123,2.121-2.123c1.172,0,2.123,0.952,2.123,2.123v4.994    h5.562v-4.994c0-1.171,0.951-2.123,2.123-2.123c1.17,0,2.123,0.952,2.123,2.123v4.994h21.611c2.178,0,3.949,1.771,3.949,3.949    c0,2.177-1.771,3.947-3.949,3.947h-21.611v4.994C612.429,345.703,608.183,345.704,608.183,342.898z M601.81,336.285h7.184    c0.447,0,0.809,0.362,0.809,0.81v5.804c0,0.665,1.008,0.665,1.008,0v-5.804c0-0.446,0.361-0.81,0.811-0.81h22.422    c1.285,0,2.33-1.044,2.33-2.329s-1.045-2.33-2.33-2.33c-23.818,0-23.232,0.344-23.232-0.811v-5.804    c0-0.277-0.225-0.504-0.502-0.504s-0.504,0.227-0.504,0.504v5.804c0,0.447-0.361,0.811-0.811,0.811h-7.182    c-0.447,0-0.811-0.362-0.811-0.811v-5.804c0-0.277-0.225-0.504-0.504-0.504c-0.277,0-0.502,0.227-0.502,0.504v5.804    c0,0.447-0.363,0.811-0.811,0.811h-7.184c-0.447,0-0.809-0.362-0.809-0.811v-5.804c0-0.277-0.227-0.504-0.506-0.504    c-0.275,0-0.502,0.227-0.502,0.504v5.804c0,0.447-0.361,0.811-0.811,0.811h-7.182c-0.449,0-0.811-0.362-0.811-0.811v-5.804    c0-0.277-0.227-0.504-0.504-0.504s-0.504,0.227-0.504,0.504v5.804c0,0.447-0.361,0.811-0.811,0.811h-7.182    c-0.447,0-0.809-0.362-0.809-0.811v-5.804c0-0.665-1.008-0.665-1.008,0v5.804c0,0.447-0.361,0.811-0.811,0.811h-7.182    c-0.447,0-0.811-0.362-0.811-0.811v-5.804c0-0.277-0.225-0.504-0.502-0.504c-0.279,0-0.504,0.227-0.504,0.504v5.804    c0,0.447-0.363,0.811-0.811,0.811h-7.182c-0.447,0-0.809-0.362-0.809-0.811v-5.804c0-0.277-0.227-0.504-0.504-0.504    s-0.504,0.227-0.504,0.504v5.804c0,0.447-0.361,0.811-0.811,0.811h-7.182c-0.447,0-0.811-0.362-0.811-0.811v-5.804    c0-0.277-0.225-0.504-0.504-0.504c-0.275,0-0.502,0.227-0.502,0.504v5.804c0,0.447-0.363,0.811-0.811,0.811h-34.668    c-3.08,0-3.078,4.659,0,4.659c36.77,0,35.479-0.36,35.479,0.81v5.804c0,0.277,0.227,0.504,0.502,0.504    c0.279,0,0.504-0.227,0.504-0.504v-5.804c0-0.446,0.363-0.81,0.811-0.81h7.182c0.447,0,0.811,0.362,0.811,0.81v5.804    c0,0.277,0.227,0.504,0.504,0.504s0.504-0.227,0.504-0.504v-5.804c0-0.446,0.361-0.81,0.809-0.81h7.182    c0.447,0,0.811,0.362,0.811,0.81v5.804c0,0.277,0.225,0.504,0.504,0.504c0.277,0,0.502-0.227,0.502-0.504v-5.804    c0-0.446,0.363-0.81,0.811-0.81h7.182c0.447,0,0.811,0.362,0.811,0.81v5.804c0,0.277,0.227,0.504,0.504,0.504    c0.275,0,0.504-0.227,0.504-0.504v-5.804c0-0.446,0.361-0.81,0.809-0.81h7.182c0.447,0,0.811,0.362,0.811,0.81v5.804    c0,0.665,1.008,0.665,1.008,0v-5.804c0-0.446,0.361-0.81,0.811-0.81c7.277,0,7.992-0.271,7.992,0.81v5.804    c0,0.277,0.227,0.504,0.502,0.504c0.279,0,0.506-0.227,0.506-0.504v-5.804c0-0.446,0.361-0.81,0.809-0.81h7.184    c0.447,0,0.811,0.362,0.811,0.81v5.804c0,0.665,1.006,0.665,1.006,0v-5.804C601.001,336.648,601.365,336.285,601.81,336.285z"/>
	</g>
	<path fill="#FFFFFF" d="M266.845,172.301h-20.474c-0.447,0-0.81-0.362-0.81-0.81c0-0.448,0.363-0.811,0.81-0.811h20.474   c0.447,0,0.81,0.362,0.81,0.811C267.655,171.939,267.292,172.301,266.845,172.301z"/>
	<path fill="#FFFFFF" d="M211.552,265.849h-24.759c-0.447,0-0.81-0.361-0.81-0.81c0-0.447,0.363-0.811,0.81-0.811h24.759   c0.447,0,0.81,0.362,0.81,0.811S211.999,265.849,211.552,265.849z"/>
	<path fill="#FFFFFF" d="M409.945,7.22H358.05c-0.446,0-0.81-0.362-0.81-0.81c0-0.448,0.361-0.811,0.81-0.811h51.896   c0.446,0,0.81,0.362,0.81,0.811C410.755,6.858,410.393,7.22,409.945,7.22z"/>
	<path fill="#FFFFFF" d="M285.211,75.783h-20.949c-0.447,0-0.81-0.362-0.81-0.811c0-0.447,0.362-0.81,0.81-0.81h20.949   c0.447,0,0.81,0.362,0.81,0.81S285.659,75.783,285.211,75.783z"/>
	<path fill="#FFFFFF" d="M255.162,83.158h-11.426c-0.447,0-0.81-0.362-0.81-0.811c0-0.447,0.363-0.81,0.81-0.81h11.426   c0.447,0,0.81,0.362,0.81,0.81S255.609,83.158,255.162,83.158z"/>
	<path fill="#FFFFFF" d="M244.626,248.025h-14.283c-0.447,0-0.81-0.361-0.81-0.81s0.362-0.811,0.81-0.811h14.283   c0.447,0,0.81,0.362,0.81,0.811S245.074,248.025,244.626,248.025z"/>
	<path fill="#FFFFFF" d="M205.314,18.475H182.46c-0.447,0-0.81-0.362-0.81-0.81c0-0.448,0.363-0.811,0.81-0.811h22.854   c0.447,0,0.81,0.362,0.81,0.811C206.124,18.113,205.761,18.475,205.314,18.475z"/>
	<path fill="#FFFFFF" d="M747.275,303.507h-43.801c-0.447,0-0.811-0.362-0.811-0.811c0-0.447,0.361-0.81,0.811-0.81h43.801   c0.445,0,0.809,0.362,0.809,0.81C748.083,303.145,747.72,303.507,747.275,303.507z"/>
	<path fill="#FFFFFF" d="M61.565,352.184H17.289c-0.447,0-0.81-0.363-0.81-0.81c0-0.448,0.363-0.811,0.81-0.811h44.277   c0.447,0,0.81,0.361,0.81,0.811C62.375,351.821,62.013,352.184,61.565,352.184z"/>
	<path fill="#FFFFFF" d="M40.68,375.992H20.207c-0.447,0-0.81-0.362-0.81-0.811s0.362-0.81,0.81-0.81H40.68   c0.447,0,0.81,0.36,0.81,0.81C41.49,375.629,41.127,375.992,40.68,375.992z"/>
	<g>
		<path fill="#FFFFFF" d="M865.195,66.288h-11.428c-0.447,0-0.811-0.363-0.811-0.811c0-0.446,0.363-0.81,0.811-0.81h11.428    c0.445,0,0.809,0.363,0.809,0.81C866.003,65.925,865.64,66.288,865.195,66.288z"/>
		<path fill="#FFFFFF" d="M859.48,72c-0.447,0-0.811-0.362-0.811-0.811V59.765c0-0.447,0.363-0.81,0.811-0.81    s0.811,0.362,0.811,0.81v11.426C860.291,71.638,859.927,72,859.48,72z"/>
	</g>
	<path fill="#FFFFFF" d="M889.294,214.05h-24.76c-0.447,0-0.811-0.363-0.811-0.81c0-0.448,0.363-0.811,0.811-0.811h24.76   c0.447,0,0.811,0.362,0.811,0.811C890.105,213.687,889.744,214.05,889.294,214.05z"/>
	<path fill="#FFFFFF" d="M952.091,230.807h-51.895c-0.447,0-0.811-0.363-0.811-0.81c0-0.447,0.363-0.811,0.811-0.811h51.895   c0.447,0,0.811,0.362,0.811,0.811C952.902,230.444,952.541,230.807,952.091,230.807z"/>
	<path fill="#FFFFFF" d="M935.484,198.209h-20.949c-0.447,0-0.811-0.362-0.811-0.811c0-0.447,0.361-0.81,0.811-0.81h20.949   c0.445,0,0.809,0.362,0.809,0.81C936.292,197.847,935.929,198.209,935.484,198.209z"/>
	<path fill="#FFFFFF" d="M407.927,26.881h-14.285c-0.446,0-0.81-0.363-0.81-0.811c0-0.446,0.362-0.81,0.81-0.81h14.285   c0.448,0,0.811,0.362,0.811,0.81C408.737,26.519,408.375,26.881,407.927,26.881z"/>
	<path fill="#FFFFFF" d="M134.084,375.992H111.23c-1.07,0-1.071-1.619,0-1.619c24.291,0,23.664-0.347,23.664,0.81   C134.894,375.629,134.532,375.992,134.084,375.992z"/>
	<path fill="#FFFFFF" d="M76.649,14.557h-43.8c-0.447,0-0.81-0.362-0.81-0.81s0.362-0.811,0.81-0.811h43.8   c0.447,0,0.81,0.363,0.81,0.811C77.459,14.194,77.096,14.557,76.649,14.557z"/>
	<path fill="#FFFFFF" d="M943.673,133.227c-47.131,0-45.088,0.377-45.088-0.81c0-0.447,0.361-0.811,0.811-0.811h44.277   c0.447,0,0.811,0.362,0.811,0.811C944.484,132.865,944.121,133.227,943.673,133.227z"/>
	<path fill="#FFFFFF" d="M711.878,294.738h-20.473c-0.449,0-0.811-0.361-0.811-0.81s0.361-0.81,0.811-0.81h20.473   c0.447,0,0.809,0.361,0.809,0.81S712.326,294.738,711.878,294.738z"/>
	<g>
		<path fill="#FFFFFF" d="M945.388,370.278h-11.426c-0.447,0-0.809-0.36-0.809-0.81c0-0.447,0.359-0.81,0.809-0.81h11.426    c0.447,0,0.811,0.361,0.811,0.81C946.199,369.917,945.835,370.278,945.388,370.278z"/>
		<path fill="#FFFFFF" d="M939.675,375.992c-0.447,0-0.811-0.362-0.811-0.811v-11.426c0-0.446,0.361-0.811,0.811-0.811    c0.447,0,0.811,0.363,0.811,0.811v11.426C940.486,375.629,940.123,375.992,939.675,375.992z"/>
	</g>
	<path fill="#FFFFFF" d="M785.132,189.975c-3.939,0-7.146-3.207-7.146-7.148s3.207-7.148,7.146-7.148c3.941,0,7.15,3.207,7.15,7.148   C792.283,186.769,789.076,189.975,785.132,189.975z M785.132,177.297c-3.049,0-5.527,2.479-5.527,5.529   c0,3.049,2.479,5.529,5.527,5.529s5.531-2.479,5.531-5.529C790.664,179.778,788.181,177.297,785.132,177.297z"/>
	<path fill="#FFFFFF" d="M824.042,375.992c-3.941,0-7.148-3.207-7.148-7.149c0-3.941,3.207-7.147,7.148-7.147   c3.943,0,7.15,3.206,7.15,7.147C831.193,372.785,827.986,375.992,824.042,375.992z M824.042,363.314   c-3.049,0-5.529,2.479-5.529,5.528c0,3.05,2.48,5.53,5.529,5.53c3.051,0,5.531-2.48,5.531-5.53   C829.574,365.793,827.093,363.314,824.042,363.314z"/>
	<path fill="#FFFFFF" d="M865.818,44.245c-3.941,0-7.146-3.207-7.146-7.149c0-3.941,3.205-7.147,7.146-7.147s7.15,3.206,7.15,7.147   C872.968,41.039,869.759,44.245,865.818,44.245z M865.818,31.567c-3.049,0-5.527,2.48-5.527,5.529s2.479,5.53,5.527,5.53   c3.051,0,5.531-2.48,5.531-5.53C871.349,34.047,868.869,31.567,865.818,31.567z"/>
	<path fill="#FFFFFF" d="M497.453,181.714c-3.941,0-7.148-3.207-7.148-7.149c0-3.94,3.207-7.147,7.148-7.147   s7.148,3.207,7.148,7.147C504.601,178.507,501.394,181.714,497.453,181.714z M497.453,169.036c-3.049,0-5.529,2.479-5.529,5.528   s2.48,5.53,5.529,5.53s5.529-2.479,5.529-5.53C502.982,171.516,500.501,169.036,497.453,169.036z"/>
	<path fill="#FFFFFF" d="M571.394,285.509c-3.939,0-7.145-3.207-7.145-7.148c0-3.939,3.205-7.146,7.145-7.146   c3.943,0,7.152,3.207,7.152,7.146C578.544,282.302,575.337,285.509,571.394,285.509z M571.394,272.833   c-3.047,0-5.525,2.479-5.525,5.527c0,3.05,2.479,5.529,5.525,5.529c3.051,0,5.531-2.479,5.531-5.529   C576.925,275.312,574.445,272.833,571.394,272.833z"/>
	<path fill="#FFFFFF" d="M607.017,120.349c-3.939,0-7.145-3.207-7.145-7.148s3.205-7.147,7.145-7.147c3.943,0,7.15,3.207,7.15,7.147   C614.167,117.142,610.96,120.349,607.017,120.349z M607.017,107.671c-3.047,0-5.525,2.479-5.525,5.528s2.479,5.529,5.525,5.529   c3.051,0,5.531-2.479,5.531-5.529C612.548,110.151,610.068,107.671,607.017,107.671z"/>
	<path fill="#FFFFFF" d="M120.002,353.597c-3.941,0-7.147-3.206-7.147-7.147c0-3.942,3.206-7.149,7.147-7.149   c3.943,0,7.15,3.207,7.15,7.149C127.152,350.391,123.945,353.597,120.002,353.597z M120.002,340.918   c-3.048,0-5.527,2.48-5.527,5.53c0,3.049,2.479,5.528,5.527,5.528c3.05,0,5.531-2.479,5.531-5.528   C125.533,343.399,123.052,340.918,120.002,340.918z"/>
	<path fill="#FFFFFF" d="M656.291,305.597c-3.941,0-7.146-3.207-7.146-7.148c0-3.94,3.205-7.147,7.146-7.147   c3.943,0,7.15,3.207,7.15,7.147C663.441,302.39,660.234,305.597,656.291,305.597z M656.291,292.919   c-3.049,0-5.527,2.479-5.527,5.528c0,3.05,2.479,5.529,5.527,5.529c3.051,0,5.531-2.479,5.531-5.529   C661.822,295.4,659.339,292.919,656.291,292.919z"/>
	<path fill="#FFFFFF" d="M744.515,261.359c-3.939,0-7.146-3.207-7.146-7.148s3.207-7.148,7.146-7.148c3.943,0,7.15,3.207,7.15,7.148   C751.667,258.152,748.458,261.359,744.515,261.359z M744.515,248.681c-3.049,0-5.527,2.479-5.527,5.528s2.479,5.53,5.527,5.53   c3.051,0,5.531-2.481,5.531-5.53S747.566,248.681,744.515,248.681z"/>
	<path fill="#FFFFFF" d="M148.613,26.253c-3.94,0-7.146-3.207-7.146-7.149c0-3.94,3.206-7.147,7.146-7.147   c3.943,0,7.15,3.207,7.15,7.147C155.764,23.047,152.556,26.253,148.613,26.253z M148.613,13.576c-3.048,0-5.527,2.479-5.527,5.528   s2.479,5.53,5.527,5.53c3.05,0,5.531-2.48,5.531-5.53C154.144,16.056,151.663,13.576,148.613,13.576z"/>
	<path fill="#FFFFFF" d="M476.272,199.929c-3.94,0-7.146-3.207-7.146-7.149c0-3.94,3.206-7.147,7.146-7.147   c3.942,0,7.149,3.207,7.149,7.147C483.423,196.723,480.215,199.929,476.272,199.929z M476.272,187.251   c-3.049,0-5.527,2.479-5.527,5.528c0,3.05,2.479,5.53,5.527,5.53c3.05,0,5.53-2.48,5.53-5.53   C481.804,189.732,479.323,187.251,476.272,187.251z"/>
	<path fill="#FFFFFF" d="M189.907,312.884c-3.94,0-7.146-3.207-7.146-7.148c0-3.94,3.206-7.147,7.146-7.147   c3.943,0,7.15,3.207,7.15,7.147C197.057,309.677,193.85,312.884,189.907,312.884z M189.907,300.207   c-3.048,0-5.527,2.479-5.527,5.528c0,3.05,2.479,5.529,5.527,5.529c3.05,0,5.531-2.479,5.531-5.529   C195.438,302.687,192.957,300.207,189.907,300.207z"/>
	<path fill="#FFFFFF" d="M450.352,379.902c-3.939,0-7.146-3.207-7.146-7.147c0-3.941,3.206-7.148,7.146-7.148   c3.943,0,7.15,3.207,7.15,7.148C457.502,376.695,454.294,379.902,450.352,379.902z M450.352,367.224   c-3.048,0-5.526,2.48-5.526,5.529s2.479,5.529,5.526,5.529c3.051,0,5.531-2.48,5.531-5.529S453.402,367.224,450.352,367.224z"/>
	<path fill="#FFFFFF" d="M444.957,24.814c-3.94,0-7.146-3.207-7.146-7.148s3.206-7.148,7.146-7.148c3.943,0,7.15,3.207,7.15,7.148   S448.9,24.814,444.957,24.814z M444.957,12.136c-3.047,0-5.527,2.48-5.527,5.529s2.479,5.529,5.527,5.529   c3.05,0,5.531-2.479,5.531-5.529C450.488,14.617,448.007,12.136,444.957,12.136z"/>
	<path fill="#FFFFFF" d="M222.968,226.386c-3.941,0-7.147-3.207-7.147-7.149c0-3.941,3.206-7.148,7.147-7.148   c3.942,0,7.15,3.207,7.15,7.148C230.119,223.179,226.911,226.386,222.968,226.386z M222.968,213.707   c-3.049,0-5.528,2.48-5.528,5.529c0,3.05,2.479,5.53,5.528,5.53c3.05,0,5.531-2.48,5.531-5.53   C228.499,216.188,226.018,213.707,222.968,213.707z"/>
	<path fill="#FFFFFF" d="M153.499,316.413c-3.941,0-7.147-3.207-7.147-7.149c0-3.94,3.207-7.147,7.147-7.147   c3.943,0,7.15,3.207,7.15,7.147C160.649,313.206,157.442,316.413,153.499,316.413z M153.499,303.735   c-3.048,0-5.528,2.479-5.528,5.528s2.479,5.53,5.528,5.53c3.05,0,5.531-2.481,5.531-5.53S156.549,303.735,153.499,303.735z"/>
	<path fill="#FFFFFF" d="M33.744,73.535c-3.941,0-7.147-3.207-7.147-7.149c0-3.941,3.207-7.146,7.147-7.146   c3.943,0,7.151,3.206,7.151,7.146C40.895,70.328,37.687,73.535,33.744,73.535z M33.744,60.858c-3.048,0-5.528,2.48-5.528,5.528   c0,3.049,2.48,5.53,5.528,5.53c3.05,0,5.531-2.481,5.531-5.53C39.275,63.338,36.793,60.858,33.744,60.858z"/>
	<path fill="#FFFFFF" d="M135.254,44.736c-3.94,0-7.146-3.207-7.146-7.148s3.206-7.148,7.146-7.148c3.943,0,7.15,3.207,7.15,7.148   S139.197,44.736,135.254,44.736z M135.254,32.058c-3.048,0-5.527,2.48-5.527,5.529s2.479,5.53,5.527,5.53   c3.05,0,5.531-2.481,5.531-5.53S138.304,32.058,135.254,32.058z"/>
	<g>
		<path fill="#FFFFFF" d="M427.233,330.025h-11.427c-0.447,0-0.81-0.362-0.81-0.81s0.362-0.811,0.81-0.811h11.427    c0.446,0,0.81,0.362,0.81,0.811C428.043,329.662,427.681,330.025,427.233,330.025z"/>
		<path fill="#FFFFFF" d="M421.52,335.738c-0.446,0-0.81-0.362-0.81-0.81v-11.426c0-0.447,0.362-0.811,0.81-0.811    c0.448,0,0.811,0.362,0.811,0.811v11.426C422.33,335.375,421.968,335.738,421.52,335.738z"/>
	</g>
	<g>
		<path fill="#FFFFFF" d="M392.38,297.746h-11.426c-0.447,0-0.811-0.362-0.811-0.811s0.362-0.81,0.811-0.81h11.426    c0.448,0,0.811,0.36,0.811,0.81C393.19,297.383,392.828,297.746,392.38,297.746z"/>
		<path fill="#FFFFFF" d="M386.667,303.458c-0.448,0-0.81-0.362-0.81-0.811v-11.426c0-0.446,0.361-0.81,0.81-0.81    c0.447,0,0.81,0.362,0.81,0.81v11.426C387.477,303.096,387.115,303.458,386.667,303.458z"/>
	</g>
	<g>
		<path fill="#FFFFFF" d="M209.408,84.099h-11.426c-0.447,0-0.81-0.362-0.81-0.81s0.362-0.811,0.81-0.811h11.426    c0.447,0,0.81,0.363,0.81,0.811C210.218,83.736,209.855,84.099,209.408,84.099z"/>
		<path fill="#FFFFFF" d="M203.695,89.812c-0.447,0-0.81-0.362-0.81-0.81V77.577c0-0.447,0.363-0.811,0.81-0.811    c0.447,0,0.81,0.363,0.81,0.811v11.426C204.505,89.449,204.142,89.812,203.695,89.812z"/>
	</g>
	<g>
		<path fill="#FFFFFF" d="M954.976,167.233h-11.428c-0.447,0-0.809-0.361-0.809-0.81s0.361-0.811,0.809-0.811h11.428    c0.447,0,0.811,0.362,0.811,0.811S955.423,167.233,954.976,167.233z"/>
		<path fill="#FFFFFF" d="M949.263,172.946c-0.447,0-0.811-0.362-0.811-0.81V160.71c0-0.447,0.361-0.811,0.811-0.811    c0.447,0,0.811,0.363,0.811,0.811v11.426C950.074,172.583,949.71,172.946,949.263,172.946z"/>
	</g>
	<g>
		<path fill="#FFFFFF" d="M289.408,127.648h-11.426c-0.447,0-0.81-0.362-0.81-0.81s0.363-0.811,0.81-0.811h11.426    c0.447,0,0.81,0.362,0.81,0.811C290.218,127.285,289.855,127.648,289.408,127.648z"/>
		<path fill="#FFFFFF" d="M283.695,133.361c-0.447,0-0.81-0.361-0.81-0.81v-11.425c0-0.447,0.362-0.811,0.81-0.811    c0.447,0,0.81,0.362,0.81,0.811v11.425C284.505,132.999,284.142,133.361,283.695,133.361z"/>
	</g>
	<g>
		<path fill="#FFFFFF" d="M177.67,353.551h-11.426c-0.447,0-0.81-0.361-0.81-0.81c0-0.446,0.362-0.811,0.81-0.811h11.426    c0.447,0,0.81,0.363,0.81,0.811C178.48,353.19,178.118,353.551,177.67,353.551z"/>
		<path fill="#FFFFFF" d="M171.148,358.456v-11.425c0-0.448,0.362-0.811,0.81-0.811c0.447,0,0.81,0.361,0.81,0.811v11.425    C172.767,359.526,171.148,359.527,171.148,358.456z"/>
	</g>
	<path fill="#FFFFFF" d="M876.39,112.219c-26.402,0-25.568,0.347-25.568-0.81c0-0.447,0.361-0.811,0.811-0.811   c26.402,0,25.568-0.347,25.568,0.811C877.201,111.856,876.837,112.219,876.39,112.219z"/>
	<path fill="#FFFFFF" d="M68.264,35.422H16.369c-0.447,0-0.81-0.363-0.81-0.811c0-0.446,0.363-0.81,0.81-0.81h51.895   c0.447,0,0.81,0.363,0.81,0.81C69.073,35.059,68.711,35.422,68.264,35.422z"/>
	<path fill="#FFFFFF" d="M783.882,323.935h-20.947c-0.447,0-0.811-0.363-0.811-0.81c0-0.447,0.363-0.811,0.811-0.811h20.947   c0.449,0,0.811,0.363,0.811,0.811C784.693,323.572,784.332,323.935,783.882,323.935z"/>
	<path fill="#FFFFFF" d="M766.255,196.323H751.97c-0.445,0-0.809-0.362-0.809-0.811c0-0.447,0.361-0.81,0.809-0.81h14.285   c0.447,0,0.811,0.361,0.811,0.81C767.066,195.96,766.705,196.323,766.255,196.323z"/>
	<path fill="#FFFFFF" d="M549.992,375.992h-22.855c-0.445,0-0.809-0.362-0.809-0.811s0.361-0.81,0.809-0.81h22.855   c0.447,0,0.809,0.36,0.809,0.81C550.8,375.629,550.439,375.992,549.992,375.992z"/>
	<path fill="#FFFFFF" d="M270.603,28.73h-43.8c-0.447,0-0.81-0.361-0.81-0.81s0.363-0.811,0.81-0.811h43.8   c0.447,0,0.81,0.362,0.81,0.811S271.05,28.73,270.603,28.73z"/>
	<path fill="#FFFFFF" d="M505.615,221.765h-44.277c-0.447,0-0.81-0.363-0.81-0.81c0-0.447,0.361-0.811,0.81-0.811h44.277   c0.447,0,0.811,0.362,0.811,0.811C506.425,221.402,506.062,221.765,505.615,221.765z"/>
	<path fill="#FFFFFF" d="M905.808,375.992h-20.475c-0.447,0-0.811-0.362-0.811-0.811s0.361-0.81,0.811-0.81h20.475   c0.447,0,0.811,0.36,0.811,0.81C906.619,375.629,906.255,375.992,905.808,375.992z"/>
	<g>
		<path fill="#FFFFFF" d="M638.501,51.492h-11.426c-0.447,0-0.811-0.362-0.811-0.811s0.361-0.81,0.811-0.81h11.426    c0.447,0,0.811,0.361,0.811,0.81S638.951,51.492,638.501,51.492z"/>
		<path fill="#FFFFFF" d="M632.791,57.205c-0.449,0-0.811-0.362-0.811-0.811V44.97c0-0.447,0.361-0.81,0.811-0.81    c0.447,0,0.809,0.361,0.809,0.81v11.425C633.599,56.843,633.238,57.205,632.791,57.205z"/>
	</g>
	<path fill="#FFFFFF" d="M699.378,269.275h-24.758c-0.447,0-0.811-0.361-0.811-0.81s0.361-0.811,0.811-0.811h24.758   c0.447,0,0.811,0.361,0.811,0.811C700.189,268.913,699.828,269.275,699.378,269.275z"/>
	<path fill="#FFFFFF" d="M109.916,295.027H58.021c-0.447,0-0.81-0.361-0.81-0.81c0-0.446,0.363-0.81,0.81-0.81h51.895   c0.447,0,0.81,0.362,0.81,0.81C110.725,294.665,110.363,295.027,109.916,295.027z"/>
	<path fill="#FFFFFF" d="M448.198,162.586h-20.949c-0.447,0-0.81-0.362-0.81-0.811c0-0.446,0.361-0.81,0.81-0.81h20.949   c0.446,0,0.81,0.363,0.81,0.81C449.007,162.224,448.645,162.586,448.198,162.586z"/>
	<path fill="#FFFFFF" d="M202.822,199.402h-11.425c-0.447,0-0.81-0.362-0.81-0.81s0.362-0.81,0.81-0.81h11.425   c0.447,0,0.81,0.362,0.81,0.81S203.269,199.402,202.822,199.402z"/>
	<path fill="#FFFFFF" d="M892.062,125.565h-14.285c-0.447,0-0.811-0.361-0.811-0.81s0.361-0.811,0.811-0.811h14.285   c0.447,0,0.811,0.362,0.811,0.811S892.509,125.565,892.062,125.565z"/>
	<path fill="#FFFFFF" d="M726.779,347.84h-22.854c-0.447,0-0.811-0.363-0.811-0.811s0.361-0.81,0.811-0.81h22.854   c0.447,0,0.811,0.361,0.811,0.81C727.587,347.477,727.226,347.84,726.779,347.84z"/>
	<path fill="#FFFFFF" d="M712.822,32.06h-43.799c-0.447,0-0.811-0.363-0.811-0.81c0-0.447,0.361-0.811,0.811-0.811h43.799   c0.447,0,0.811,0.362,0.811,0.811C713.63,31.697,713.269,32.06,712.822,32.06z"/>
	<path fill="#FFFFFF" d="M562.685,9.122h-44.277c-0.447,0-0.811-0.362-0.811-0.811c0-0.447,0.363-0.81,0.811-0.81h44.277   c0.447,0,0.811,0.362,0.811,0.81C563.496,8.76,563.132,9.122,562.685,9.122z"/>
	<g>
		<path fill="#FFFFFF" d="M629.642,254.881h-11.426c-0.447,0-0.811-0.361-0.811-0.811c0-0.446,0.361-0.81,0.811-0.81h11.426    c0.447,0,0.811,0.362,0.811,0.81C630.453,254.52,630.089,254.881,629.642,254.881z"/>
		<path fill="#FFFFFF" d="M623.929,260.595c-0.447,0-0.811-0.362-0.811-0.81V248.36c0-0.447,0.363-0.81,0.811-0.81    s0.811,0.362,0.811,0.81v11.426C624.74,260.233,624.376,260.595,623.929,260.595z"/>
	</g>
	<path fill="#FFFFFF" d="M215.691,144.442h-24.759c-0.447,0-0.81-0.361-0.81-0.81c0-0.447,0.362-0.81,0.81-0.81h24.759   c0.447,0,0.81,0.362,0.81,0.81C216.501,144.08,216.139,144.442,215.691,144.442z"/>
	<path fill="#FFFFFF" d="M264.282,344.418c-55.471,0-52.706,0.376-52.706-0.811c0-0.446,0.363-0.81,0.81-0.81   c55.471,0,52.705-0.375,52.705,0.81C265.092,344.056,264.729,344.418,264.282,344.418z"/>
	<path fill="#FFFFFF" d="M670.162,375.992h-20.947c-0.449,0-0.811-0.362-0.811-0.811s0.361-0.81,0.811-0.81h20.947   c0.447,0,0.811,0.36,0.811,0.81C670.97,375.629,670.609,375.992,670.162,375.992z"/>
	<path fill="#FFFFFF" d="M469.843,357.777h-11.424c-0.448,0-0.81-0.362-0.81-0.81s0.361-0.81,0.81-0.81h11.424   c0.448,0,0.811,0.361,0.811,0.81C470.653,357.414,470.291,357.777,469.843,357.777z"/>
	<path fill="#FFFFFF" d="M770.884,375.992h-51.896c-0.447,0-0.811-0.362-0.811-0.811s0.361-0.81,0.811-0.81h51.896   c0.447,0,0.811,0.36,0.811,0.81C771.695,375.629,771.332,375.992,770.884,375.992z"/>
</g>
</svg>