<svg xmlns="http://www.w3.org/2000/svg" xmlns:xlink="http://www.w3.org/1999/xlink" version="1.1" x="0px" y="0px" viewBox="0 0 100 125" style="enable-background:new 0 0 100 100;" xml:space="preserve"><path d="M34.903,66.121h3.991v3.991c0,0.553,0.447,1,1,1h6.518c0.553,0,1-0.447,1-1v-3.991h3.991c0.553,0,1-0.447,1-1v-6.518  c0-0.553-0.447-1-1-1h-3.991v-3.991c0-0.553-0.447-1-1-1h-6.518c-0.553,0-1,0.447-1,1v3.991h-3.991c-0.553,0-1,0.447-1,1v6.518  C33.903,65.674,34.351,66.121,34.903,66.121z M35.903,59.604h3.991c0.553,0,1-0.447,1-1v-3.991h4.518v3.991c0,0.553,0.447,1,1,1  h3.991v4.518h-3.991c-0.553,0-1,0.447-1,1v3.991h-4.518v-3.991c0-0.553-0.447-1-1-1h-3.991V59.604z"/><path d="M10.976,90h78c0.553,0,1-0.447,1-1v-5.036c0-0.553-0.447-1-1-1h-7.794l0.029-9.577c4.914-0.486,8.765-4.641,8.765-9.681  c0-5.365-4.364-9.729-9.729-9.729c-2.218,0-4.257,0.754-5.896,2.008v-6.986h1.466c0.553,0,1-0.447,1-1s-0.447-1-1-1h-1.466V17.011  h0.956c0.553,0,1-0.447,1-1V11c0-0.553-0.447-1-1-1h-50.26c-0.553,0-1,0.447-1,1v5.011c0,0.553,0.447,1,1,1h0.596v29.988h-1.453  c-0.553,0-1,0.447-1,1s0.447,1,1,1h1.453v7.017c-1.645-1.273-3.701-2.039-5.938-2.039c-5.365,0-9.729,4.364-9.729,9.729  c0,5.015,3.814,9.154,8.694,9.673l-0.03,9.585h-7.664c-0.553,0-1,0.447-1,1V89C9.976,89.553,10.423,90,10.976,90z M74.351,82.964  V71.427c1.38,1.056,3.043,1.758,4.86,1.951l-0.029,9.585H74.351z M27.643,76.747h31.083v6.217H27.643V76.747z M60.726,55.688h11.625  v2.356c-1.148,1.597-1.833,3.549-1.833,5.662s0.685,4.065,1.833,5.662v13.595H60.726V55.688z M80.246,55.977  c4.262,0,7.729,3.468,7.729,7.729c0,3.932-2.954,7.182-6.759,7.662l0.012-3.875l2.665-2.758c0.384-0.396,0.373-1.03-0.024-1.413  c-0.396-0.385-1.031-0.372-1.413,0.024l-1.218,1.261l0.008-2.741c0.002-0.552-0.444-1.001-0.997-1.003c-0.001,0-0.002,0-0.003,0  c-0.551,0-0.998,0.445-1,0.997l-0.009,2.867l-1.334-1.38c-0.381-0.396-1.017-0.407-1.413-0.024  c-0.397,0.383-0.408,1.017-0.024,1.413l2.763,2.86l-0.011,3.764c-3.776-0.506-6.699-3.741-6.699-7.653  C72.518,59.444,75.984,55.977,80.246,55.977z M72.351,53.688H60.726v-4.688h11.625V53.688z M26.047,12h48.26v3.011h-48.26V12z   M27.643,17.011h44.708v29.988H27.643V17.011z M58.726,48.999v25.748H27.643v-5.435c1.124-1.587,1.791-3.518,1.791-5.606  s-0.667-4.02-1.791-5.606v-9.101H58.726z M11.976,63.706c0-4.262,3.468-7.729,7.729-7.729s7.729,3.468,7.729,7.729  c0,3.932-2.954,7.182-6.758,7.662l0.012-3.876l2.664-2.758c0.384-0.396,0.373-1.03-0.024-1.413c-0.395-0.385-1.03-0.372-1.413,0.024  l-1.218,1.26l0.009-2.74c0.002-0.552-0.444-1.001-0.997-1.003c-0.001,0-0.002,0-0.003,0c-0.551,0-0.998,0.445-1,0.997l-0.009,2.868  l-1.335-1.381c-0.381-0.396-1.017-0.407-1.413-0.024c-0.397,0.383-0.408,1.017-0.024,1.413l2.763,2.861l-0.012,3.764  C14.9,70.853,11.976,67.618,11.976,63.706z M20.669,73.387c1.863-0.184,3.568-0.903,4.973-1.991v11.568H20.64L20.669,73.387z   M11.976,84.964h76V88h-76V84.964z"/><path d="M34.751,33.875c-1.937,0-3.512,1.575-3.512,3.512v5.205c0,0.553,0.447,1,1,1h5.023c0.553,0,1-0.447,1-1v-5.205  C38.263,35.45,36.688,33.875,34.751,33.875z M36.263,41.592h-3.023v-4.205c0-0.834,0.678-1.512,1.512-1.512s1.512,0.678,1.512,1.512  V41.592z"/><path d="M34.751,21.085c-1.937,0-3.512,1.575-3.512,3.512v5.205c0,0.553,0.447,1,1,1h5.023c0.553,0,1-0.447,1-1v-5.205  C38.263,22.66,36.688,21.085,34.751,21.085z M36.263,28.802h-3.023v-4.205c0-0.834,0.678-1.512,1.512-1.512s1.512,0.678,1.512,1.512  V28.802z"/><path d="M44.901,33.875c-1.937,0-3.512,1.575-3.512,3.512v5.205c0,0.553,0.447,1,1,1h5.022c0.553,0,1-0.447,1-1v-5.205  C48.412,35.45,46.837,33.875,44.901,33.875z M46.412,41.592H43.39v-4.205c0-0.834,0.678-1.512,1.512-1.512  c0.833,0,1.511,0.678,1.511,1.512V41.592z"/><path d="M44.901,21.085c-1.937,0-3.512,1.575-3.512,3.512v5.205c0,0.553,0.447,1,1,1h5.022c0.553,0,1-0.447,1-1v-5.205  C48.412,22.66,46.837,21.085,44.901,21.085z M46.412,28.802H43.39v-4.205c0-0.834,0.678-1.512,1.512-1.512  c0.833,0,1.511,0.678,1.511,1.512V28.802z"/><path d="M55.051,33.875c-1.937,0-3.512,1.575-3.512,3.512v5.205c0,0.553,0.447,1,1,1h5.023c0.553,0,1-0.447,1-1v-5.205  C58.562,35.45,56.987,33.875,55.051,33.875z M56.562,41.592h-3.023v-4.205c0-0.834,0.678-1.512,1.512-1.512s1.512,0.678,1.512,1.512  V41.592z"/><path d="M55.051,21.085c-1.937,0-3.512,1.575-3.512,3.512v5.205c0,0.553,0.447,1,1,1h5.023c0.553,0,1-0.447,1-1v-5.205  C58.562,22.66,56.987,21.085,55.051,21.085z M56.562,28.802h-3.023v-4.205c0-0.834,0.678-1.512,1.512-1.512s1.512,0.678,1.512,1.512  V28.802z"/><path d="M65.2,33.875c-1.937,0-3.512,1.575-3.512,3.512v5.205c0,0.553,0.447,1,1,1h5.023c0.553,0,1-0.447,1-1v-5.205  C68.712,35.45,67.137,33.875,65.2,33.875z M66.712,41.592h-3.023v-4.205c0-0.834,0.678-1.512,1.512-1.512s1.512,0.678,1.512,1.512  V41.592z"/><path d="M65.2,21.085c-1.937,0-3.512,1.575-3.512,3.512v5.205c0,0.553,0.447,1,1,1h5.023c0.553,0,1-0.447,1-1v-5.205  C68.712,22.66,67.137,21.085,65.2,21.085z M66.712,28.802h-3.023v-4.205c0-0.834,0.678-1.512,1.512-1.512s1.512,0.678,1.512,1.512  V28.802z"/><path d="M69.038,71.099c-0.553,0-1,0.447-1,1v0.933c0,0.553,0.447,1,1,1s1-0.447,1-1v-0.933  C70.038,71.546,69.591,71.099,69.038,71.099z"/></svg>