<svg xmlns="http://www.w3.org/2000/svg" xmlns:xlink="http://www.w3.org/1999/xlink" version="1.1" x="0px" y="0px" viewBox="0 0 100 125" style="enable-background:new 0 0 100 100;" xml:space="preserve"><path d="M89,87.9794922h-3.8916016v-4.7877808c2.6157227-0.4736328,4.6074219-2.7630615,4.6074219-5.5134888  c0-2.2252808-1.3059082-4.1461182-3.1887207-5.0515747c1.2836914-0.8085327,2.1447754-2.2285767,2.1447754-3.8546753  c0-2.5161133-2.046875-4.5634766-4.5634766-4.5634766s-4.5634766,2.0473633-4.5634766,4.5634766  c0,1.6259766,0.8608398,3.0459595,2.1444092,3.8545532C79.8061523,73.5319214,78.5,75.4528198,78.5,77.6782227  c0,2.7505493,1.9919434,5.039978,4.6083984,5.5134888v4.7877808h-7.8574219V38.9868164c0-0.5522461-0.4472656-1-1-1H67.203125V11  c0-0.5522461-0.4472656-1-1-1h-32.375c-0.5527344,0-1,0.4477539-1,1v26.9868164h-7.0791016c-0.5527344,0-1,0.4477539-1,1v48.9926758  h-7.8574219v-4.7877808C19.5080566,82.7182007,21.5,80.428772,21.5,77.6782227c0-2.2254028-1.3061523-4.1463013-3.1893311-5.0516968  c1.2835693-0.8085938,2.1444092-2.2285767,2.1444092-3.8545532c0-2.5161133-2.046875-4.5634766-4.5634766-4.5634766  s-4.5634766,2.0473633-4.5634766,4.5634766c0,1.6260986,0.861084,3.0461426,2.1447754,3.8546753  c-1.8828125,0.9054565-3.1887207,2.8262939-3.1887207,5.0515747c0,2.7504272,1.9916992,5.039856,4.6074219,5.5134888v4.7877808H11  c-0.5527344,0-1,0.4477539-1,1s0.4472656,1,1,1h78c0.5527344,0,1-0.4477539,1-1S89.5527344,87.9794922,89,87.9794922z   M84.1083984,66.2084961c1.4130859,0,2.5634766,1.1499023,2.5634766,2.5634766s-1.1503906,2.5639648-2.5634766,2.5639648  s-2.5634766-1.1503906-2.5634766-2.5639648S82.6953125,66.2084961,84.1083984,66.2084961z M80.5,77.6782227  c0-1.9892578,1.6191406-3.6079102,3.6083984-3.6079102s3.6074219,1.6186523,3.6074219,3.6079102  s-1.6181641,3.6079102-3.6074219,3.6079102S80.5,79.6674805,80.5,77.6782227z M15.8916016,66.2084961  c1.4130859,0,2.5634766,1.1499023,2.5634766,2.5634766s-1.1503906,2.5639648-2.5634766,2.5639648  s-2.5634766-1.1503906-2.5634766-2.5639648S14.4785156,66.2084961,15.8916016,66.2084961z M12.2841797,77.6782227  c0-1.9892578,1.6181641-3.6079102,3.6074219-3.6079102S19.5,75.6889648,19.5,77.6782227s-1.6191406,3.6079102-3.6083984,3.6079102  S12.2841797,79.6674805,12.2841797,77.6782227z M34.828125,12h30.375v25.9868164h-30.375V12z M26.7490234,39.9868164h46.5019531  v47.9926758h-9.4941406V75.4272461c0-0.5522461-0.4472656-1-1-1h-9.3300781c-0.5527344,0-1,0.4477539-1,1v12.5522461h-4.8535156  V75.4272461c0-0.5522461-0.4472656-1-1-1h-9.3300781c-0.5527344,0-1,0.4477539-1,1v12.5522461h-9.4941406V39.9868164z   M61.7568359,87.9794922h-7.3300781V76.4272461h7.3300781V87.9794922z M45.5732422,87.9794922h-7.3300781V76.4272461h7.3300781  V87.9794922z"/><path d="M53.9453125,70.7177734h8.2929688c0.5527344,0,1-0.4477539,1-1V61.625c0-0.5522461-0.4472656-1-1-1h-8.2929688  c-0.5527344,0-1,0.4477539-1,1v8.0927734C52.9453125,70.2700195,53.3925781,70.7177734,53.9453125,70.7177734z M54.9453125,62.625  h6.2929688v6.0927734h-6.2929688V62.625z"/><path d="M53.9453125,56.84375h8.2929688c0.5527344,0,1-0.4477539,1-1v-8.0927734c0-0.5522461-0.4472656-1-1-1h-8.2929688  c-0.5527344,0-1,0.4477539-1,1V55.84375C52.9453125,56.3959961,53.3925781,56.84375,53.9453125,56.84375z M54.9453125,48.7509766  h6.2929688V54.84375h-6.2929688V48.7509766z"/><path d="M37.7617188,70.7177734h8.2929688c0.5527344,0,1-0.4477539,1-1V61.625c0-0.5522461-0.4472656-1-1-1h-8.2929688  c-0.5527344,0-1,0.4477539-1,1v8.0927734C36.7617188,70.2700195,37.2089844,70.7177734,37.7617188,70.7177734z M38.7617188,62.625  h6.2929688v6.0927734h-6.2929688V62.625z"/><path d="M37.7617188,56.84375h8.2929688c0.5527344,0,1-0.4477539,1-1v-8.0927734c0-0.5522461-0.4472656-1-1-1h-8.2929688  c-0.5527344,0-1,0.4477539-1,1V55.84375C36.7617188,56.3959961,37.2089844,56.84375,37.7617188,56.84375z M38.7617188,48.7509766  h6.2929688V54.84375h-6.2929688V48.7509766z"/><path d="M58.1982422,20.7470703h-3.9726562v-3.9726562c0-0.5522461-0.4472656-1-1-1h-6.4931641c-0.5527344,0-1,0.4477539-1,1  v3.9726562h-3.9726562c-0.5527344,0-1,0.4477539-1,1v6.4926758c0,0.5522461,0.4472656,1,1,1h3.9726562v3.9731445  c0,0.5522461,0.4472656,1,1,1h6.4931641c0.5527344,0,1-0.4477539,1-1v-3.9731445h3.9726562c0.5527344,0,1-0.4477539,1-1v-6.4926758  C59.1982422,21.1948242,58.7509766,20.7470703,58.1982422,20.7470703z M57.1982422,27.2397461h-3.9726562  c-0.5527344,0-1,0.4477539-1,1v3.9731445h-4.4931641v-3.9731445c0-0.5522461-0.4472656-1-1-1h-3.9726562v-4.4926758h3.9726562  c0.5527344,0,1-0.4477539,1-1v-3.9726562h4.4931641v3.9726562c0,0.5522461,0.4472656,1,1,1h3.9726562V27.2397461z"/></svg>