<svg xmlns="http://www.w3.org/2000/svg" xmlns:xlink="http://www.w3.org/1999/xlink" version="1.1" x="0px" y="0px" viewBox="0 0 100 125" style="enable-background:new 0 0 100 100;" xml:space="preserve"><path d="M89,88h-1.2050781V11c0-0.5522461-0.4472656-1-1-1h-33.296875c-0.5527344,0-1,0.4477539-1,1v77h-4.9960938V56.003418  c0-0.5522461-0.4472656-1-1-1h-5.4150391V16.8007812c0-0.3598633-0.1933594-0.6923828-0.5068359-0.8701172l-10.2333984-5.8007812  C30.1962891,10.0449219,30.0263672,10,29.8535156,10h-10.234375c-0.5527344,0-1,0.4477539-1,1v44.003418h-5.4140625  c-0.5527344,0-1,0.4477539-1,1V88H11c-0.5527344,0-1,0.4477539-1,1s0.4472656,1,1,1h78c0.5527344,0,1-0.4477539,1-1  S89.5527344,88,89,88z M54.4980469,12h31.296875v76h-31.296875V12z M20.6191406,27.9970703h18.4677734v12.6655273H20.6191406  V27.9970703z M29.5898438,12l9.4970703,5.3833008v8.6137695H20.6191406V12H29.5898438z M20.6191406,42.6625977h18.4677734V55.003418  H20.6191406V42.6625977z M14.2050781,57.003418h31.296875V88h-31.296875V57.003418z"/><path d="M67.1503906,63.0639648h-6.1318359c-0.5527344,0-1,0.4477539-1,1v6.1713867c0,0.5522461,0.4472656,1,1,1h6.1318359  c0.5527344,0,1-0.4477539,1-1v-6.1713867C68.1503906,63.5117188,67.703125,63.0639648,67.1503906,63.0639648z   M66.1503906,69.2353516h-4.1318359v-4.1713867h4.1318359V69.2353516z"/><path d="M67.1503906,51.7255859h-6.1318359c-0.5527344,0-1,0.4477539-1,1v6.1713867c0,0.5522461,0.4472656,1,1,1h6.1318359  c0.5527344,0,1-0.4477539,1-1v-6.1713867C68.1503906,52.1733398,67.703125,51.7255859,67.1503906,51.7255859z   M66.1503906,57.8969727h-4.1318359v-4.1713867h4.1318359V57.8969727z"/><path d="M67.1503906,40.387207h-6.1318359c-0.5527344,0-1,0.4477539-1,1v6.1713867c0,0.5522461,0.4472656,1,1,1h6.1318359  c0.5527344,0,1-0.4477539,1-1V41.387207C68.1503906,40.8349609,67.703125,40.387207,67.1503906,40.387207z M66.1503906,46.5585938  h-4.1318359V42.387207h4.1318359V46.5585938z"/><path d="M67.1503906,29.0488281h-6.1318359c-0.5527344,0-1,0.4477539-1,1v6.1713867c0,0.5522461,0.4472656,1,1,1h6.1318359  c0.5527344,0,1-0.4477539,1-1v-6.1713867C68.1503906,29.496582,67.703125,29.0488281,67.1503906,29.0488281z M66.1503906,35.2202148  h-4.1318359v-4.1713867h4.1318359V35.2202148z"/><path d="M67.1503906,17.7104492h-6.1318359c-0.5527344,0-1,0.4477539-1,1v6.1713867c0,0.5522461,0.4472656,1,1,1h6.1318359  c0.5527344,0,1-0.4477539,1-1v-6.1713867C68.1503906,18.1582031,67.703125,17.7104492,67.1503906,17.7104492z   M66.1503906,23.8818359h-4.1318359v-4.1713867h4.1318359V23.8818359z"/><path d="M67.1503906,74.7573242h-6.1318359c-0.5527344,0-1,0.4477539-1,1v6.1713867c0,0.5522461,0.4472656,1,1,1h6.1318359  c0.5527344,0,1-0.4477539,1-1v-6.1713867C68.1503906,75.2050781,67.703125,74.7573242,67.1503906,74.7573242z   M66.1503906,80.9287109h-4.1318359v-4.1713867h4.1318359V80.9287109z"/><path d="M79.2753906,63.0639648h-6.1318359c-0.5527344,0-1,0.4477539-1,1v6.1713867c0,0.5522461,0.4472656,1,1,1h6.1318359  c0.5527344,0,1-0.4477539,1-1v-6.1713867C80.2753906,63.5117188,79.828125,63.0639648,79.2753906,63.0639648z   M78.2753906,69.2353516h-4.1318359v-4.1713867h4.1318359V69.2353516z"/><path d="M79.2753906,51.7255859h-6.1318359c-0.5527344,0-1,0.4477539-1,1v6.1713867c0,0.5522461,0.4472656,1,1,1h6.1318359  c0.5527344,0,1-0.4477539,1-1v-6.1713867C80.2753906,52.1733398,79.828125,51.7255859,79.2753906,51.7255859z   M78.2753906,57.8969727h-4.1318359v-4.1713867h4.1318359V57.8969727z"/><path d="M79.2753906,40.387207h-6.1318359c-0.5527344,0-1,0.4477539-1,1v6.1713867c0,0.5522461,0.4472656,1,1,1h6.1318359  c0.5527344,0,1-0.4477539,1-1V41.387207C80.2753906,40.8349609,79.828125,40.387207,79.2753906,40.387207z M78.2753906,46.5585938  h-4.1318359V42.387207h4.1318359V46.5585938z"/><path d="M79.2753906,29.0488281h-6.1318359c-0.5527344,0-1,0.4477539-1,1v6.1713867c0,0.5522461,0.4472656,1,1,1h6.1318359  c0.5527344,0,1-0.4477539,1-1v-6.1713867C80.2753906,29.496582,79.828125,29.0488281,79.2753906,29.0488281z M78.2753906,35.2202148  h-4.1318359v-4.1713867h4.1318359V35.2202148z"/><path d="M79.2753906,17.7104492h-6.1318359c-0.5527344,0-1,0.4477539-1,1v6.1713867c0,0.5522461,0.4472656,1,1,1h6.1318359  c0.5527344,0,1-0.4477539,1-1v-6.1713867C80.2753906,18.1582031,79.828125,17.7104492,79.2753906,17.7104492z   M78.2753906,23.8818359h-4.1318359v-4.1713867h4.1318359V23.8818359z"/><path d="M79.2753906,74.7573242h-6.1318359c-0.5527344,0-1,0.4477539-1,1v6.1713867c0,0.5522461,0.4472656,1,1,1h6.1318359  c0.5527344,0,1-0.4477539,1-1v-6.1713867C80.2753906,75.2050781,79.828125,74.7573242,79.2753906,74.7573242z   M78.2753906,80.9287109h-4.1318359v-4.1713867h4.1318359V80.9287109z"/><path d="M40.2089844,67.6025391h-5.265625v-5.2661133c0-0.5522461-0.4472656-1-1-1h-8.1806641c-0.5527344,0-1,0.4477539-1,1  v5.2661133h-5.265625c-0.5527344,0-1,0.4477539-1,1v8.1801758c0,0.5522461,0.4472656,1,1,1h5.265625v5.265625  c0,0.5522461,0.4472656,1,1,1h8.1806641c0.5527344,0,1-0.4477539,1-1v-5.265625h5.265625c0.5527344,0,1-0.4477539,1-1v-8.1801758  C41.2089844,68.050293,40.7617188,67.6025391,40.2089844,67.6025391z M39.2089844,75.7827148h-5.265625  c-0.5527344,0-1,0.4477539-1,1v5.265625h-6.1806641v-5.265625c0-0.5522461-0.4472656-1-1-1h-5.265625v-6.1801758h5.265625  c0.5527344,0,1-0.4477539,1-1v-5.2661133h6.1806641v5.2661133c0,0.5522461,0.4472656,1,1,1h5.265625V75.7827148z"/></svg>