<svg xmlns="http://www.w3.org/2000/svg" xmlns:xlink="http://www.w3.org/1999/xlink" version="1.1" x="0px" y="0px" viewBox="0 0 100 125" style="enable-background:new 0 0 100 100;" xml:space="preserve"><path d="M11,90h78c0.5527344,0,1-0.4477539,1-1s-0.4472656-1-1-1h-1.0976562V45.4257812c0-0.5522461-0.4472656-1-1-1H68.8925781  v-9.03125c0-0.5522461-0.4472656-1-1-1h-1.0205078V11c0-0.5522461-0.4472656-1-1-1H34.1728516c-0.5527344,0-1,0.4477539-1,1  v23.3945312h-1.0195312c-0.5527344,0-1,0.4477539-1,1v9.03125H13.1435547c-0.5527344,0-1,0.4477539-1,1V88H11  c-0.5527344,0-1,0.4477539-1,1S10.4472656,90,11,90z M55.3242188,88H44.7216797V77.0263672h10.6025391V88z M85.9023438,46.4257812  V88H68.8925781V46.4257812H85.9023438z M35.1728516,12h29.6992188v22.3945312H35.1728516V12z M33.1533203,36.3945312h33.7392578V88  h-9.5683594V76.0263672c0-0.5522461-0.4472656-1-1-1H43.7216797c-0.5527344,0-1,0.4477539-1,1V88h-9.5683594V36.3945312z   M14.1435547,46.4257812h17.0097656V88H14.1435547V46.4257812z"/><path d="M42.8349609,17.5742188c-0.5527344,0-1,0.4477539-1,1v2.2167969c0,0.5522461,0.4472656,1,1,1s1-0.4477539,1-1v-2.2167969  C43.8349609,18.0219727,43.3876953,17.5742188,42.8349609,17.5742188z"/><path d="M47.5175781,17.5742188c-0.5527344,0-1,0.4477539-1,1v2.2167969c0,0.5522461,0.4472656,1,1,1s1-0.4477539,1-1v-2.2167969  C48.5175781,18.0219727,48.0703125,17.5742188,47.5175781,17.5742188z"/><path d="M42.8349609,25.1118164c-0.5527344,0-1,0.4477539-1,1v2.2167969c0,0.5522461,0.4472656,1,1,1s1-0.4477539,1-1v-2.2167969  C43.8349609,25.5595703,43.3876953,25.1118164,42.8349609,25.1118164z"/><path d="M47.5175781,25.1118164c-0.5527344,0-1,0.4477539-1,1v2.2167969c0,0.5522461,0.4472656,1,1,1s1-0.4477539,1-1v-2.2167969  C48.5175781,25.5595703,48.0703125,25.1118164,47.5175781,25.1118164z"/><path d="M52.4824219,17.5742188c-0.5527344,0-1,0.4477539-1,1v2.2167969c0,0.5522461,0.4472656,1,1,1s1-0.4477539,1-1v-2.2167969  C53.4824219,18.0219727,53.0351562,17.5742188,52.4824219,17.5742188z"/><path d="M57.1650391,17.5742188c-0.5527344,0-1,0.4477539-1,1v2.2167969c0,0.5522461,0.4472656,1,1,1s1-0.4477539,1-1v-2.2167969  C58.1650391,18.0219727,57.7177734,17.5742188,57.1650391,17.5742188z"/><path d="M52.4824219,25.1118164c-0.5527344,0-1,0.4477539-1,1v2.2167969c0,0.5522461,0.4472656,1,1,1s1-0.4477539,1-1v-2.2167969  C53.4824219,25.5595703,53.0351562,25.1118164,52.4824219,25.1118164z"/><path d="M57.1650391,25.1118164c-0.5527344,0-1,0.4477539-1,1v2.2167969c0,0.5522461,0.4472656,1,1,1s1-0.4477539,1-1v-2.2167969  C58.1650391,25.5595703,57.7177734,25.1118164,57.1650391,25.1118164z"/><path d="M20.3076172,55.5380859c-0.5527344,0-1,0.4477539-1,1v2.2167969c0,0.5522461,0.4472656,1,1,1s1-0.4477539,1-1v-2.2167969  C21.3076172,55.9858398,20.8603516,55.5380859,20.3076172,55.5380859z"/><path d="M24.9892578,55.5380859c-0.5527344,0-1,0.4477539-1,1v2.2167969c0,0.5522461,0.4472656,1,1,1s1-0.4477539,1-1v-2.2167969  C25.9892578,55.9858398,25.5419922,55.5380859,24.9892578,55.5380859z"/><path d="M20.3076172,63.0756836c-0.5527344,0-1,0.4477539-1,1v2.2167969c0,0.5522461,0.4472656,1,1,1s1-0.4477539,1-1v-2.2167969  C21.3076172,63.5234375,20.8603516,63.0756836,20.3076172,63.0756836z"/><path d="M24.9892578,63.0756836c-0.5527344,0-1,0.4477539-1,1v2.2167969c0,0.5522461,0.4472656,1,1,1s1-0.4477539,1-1v-2.2167969  C25.9892578,63.5234375,25.5419922,63.0756836,24.9892578,63.0756836z"/><path d="M20.3076172,70.6132812c-0.5527344,0-1,0.4477539-1,1v2.2167969c0,0.5522461,0.4472656,1,1,1s1-0.4477539,1-1v-2.2167969  C21.3076172,71.0610352,20.8603516,70.6132812,20.3076172,70.6132812z"/><path d="M24.9892578,70.6132812c-0.5527344,0-1,0.4477539-1,1v2.2167969c0,0.5522461,0.4472656,1,1,1s1-0.4477539,1-1v-2.2167969  C25.9892578,71.0610352,25.5419922,70.6132812,24.9892578,70.6132812z"/><path d="M20.3076172,78.1508789c-0.5527344,0-1,0.4477539-1,1v2.2167969c0,0.5522461,0.4472656,1,1,1s1-0.4477539,1-1v-2.2167969  C21.3076172,78.5986328,20.8603516,78.1508789,20.3076172,78.1508789z"/><path d="M24.9892578,78.1508789c-0.5527344,0-1,0.4477539-1,1v2.2167969c0,0.5522461,0.4472656,1,1,1s1-0.4477539,1-1v-2.2167969  C25.9892578,78.5986328,25.5419922,78.1508789,24.9892578,78.1508789z"/><path d="M75.0566406,59.7548828c0.5527344,0,1-0.4477539,1-1v-2.2167969c0-0.5522461-0.4472656-1-1-1s-1,0.4477539-1,1v2.2167969  C74.0566406,59.3071289,74.5039062,59.7548828,75.0566406,59.7548828z"/><path d="M79.7382812,59.7548828c0.5527344,0,1-0.4477539,1-1v-2.2167969c0-0.5522461-0.4472656-1-1-1s-1,0.4477539-1,1v2.2167969  C78.7382812,59.3071289,79.1855469,59.7548828,79.7382812,59.7548828z"/><path d="M75.0566406,67.2924805c0.5527344,0,1-0.4477539,1-1v-2.2167969c0-0.5522461-0.4472656-1-1-1s-1,0.4477539-1,1v2.2167969  C74.0566406,66.8447266,74.5039062,67.2924805,75.0566406,67.2924805z"/><path d="M79.7382812,67.2924805c0.5527344,0,1-0.4477539,1-1v-2.2167969c0-0.5522461-0.4472656-1-1-1s-1,0.4477539-1,1v2.2167969  C78.7382812,66.8447266,79.1855469,67.2924805,79.7382812,67.2924805z"/><path d="M75.0566406,74.8300781c0.5527344,0,1-0.4477539,1-1v-2.2167969c0-0.5522461-0.4472656-1-1-1s-1,0.4477539-1,1v2.2167969  C74.0566406,74.3823242,74.5039062,74.8300781,75.0566406,74.8300781z"/><path d="M79.7382812,74.8300781c0.5527344,0,1-0.4477539,1-1v-2.2167969c0-0.5522461-0.4472656-1-1-1s-1,0.4477539-1,1v2.2167969  C78.7382812,74.3823242,79.1855469,74.8300781,79.7382812,74.8300781z"/><path d="M75.0566406,82.3676758c0.5527344,0,1-0.4477539,1-1v-2.2167969c0-0.5522461-0.4472656-1-1-1s-1,0.4477539-1,1v2.2167969  C74.0566406,81.9199219,74.5039062,82.3676758,75.0566406,82.3676758z"/><path d="M79.7382812,82.3676758c0.5527344,0,1-0.4477539,1-1v-2.2167969c0-0.5522461-0.4472656-1-1-1s-1,0.4477539-1,1v2.2167969  C78.7382812,81.9199219,79.1855469,82.3676758,79.7382812,82.3676758z"/><path d="M39.6435547,61.5351562h5.2666016v5.265625c0,0.5522461,0.4472656,1,1,1h8.1796875c0.5527344,0,1-0.4477539,1-1v-5.265625  h5.2666016c0.5527344,0,1-0.4477539,1-1v-8.1806641c0-0.5522461-0.4472656-1-1-1h-5.2666016v-5.265625c0-0.5522461-0.4472656-1-1-1  h-8.1796875c-0.5527344,0-1,0.4477539-1,1v5.265625h-5.2666016c-0.5527344,0-1,0.4477539-1,1v8.1806641  C38.6435547,61.0874023,39.0908203,61.5351562,39.6435547,61.5351562z M40.6435547,53.3544922h5.2666016  c0.5527344,0,1-0.4477539,1-1v-5.265625h6.1796875v5.265625c0,0.5522461,0.4472656,1,1,1h5.2666016v6.1806641h-5.2666016  c-0.5527344,0-1,0.4477539-1,1v5.265625h-6.1796875v-5.265625c0-0.5522461-0.4472656-1-1-1h-5.2666016V53.3544922z"/></svg>