<svg xmlns="http://www.w3.org/2000/svg" xmlns:xlink="http://www.w3.org/1999/xlink" version="1.1" x="0px" y="0px" viewBox="0 0 100 125" style="enable-background:new 0 0 100 100;" xml:space="preserve"><path d="M54.119,28.17h-3.414v-3.414c0-0.553-0.448-1-1-1s-1,0.447-1,1v3.414h-3.414c-0.552,0-1,0.447-1,1s0.448,1,1,1h3.414v3.413  c0,0.553,0.448,1,1,1s1-0.447,1-1V30.17h3.414c0.552,0,1-0.447,1-1S54.671,28.17,54.119,28.17z"/><path d="M11,90h78c0.552,0,1-0.447,1-1s-0.448-1-1-1h-0.917V48.366c0-0.553-0.448-1-1-1H64.079v-9.199c0-0.553-0.448-1-1-1h-1.677  V21.173h3.333c0.45,0,0.844-0.3,0.964-0.733s-0.064-0.894-0.45-1.125l-15.03-9c-0.316-0.189-0.711-0.189-1.027,0l-15.03,9  c-0.386,0.231-0.57,0.691-0.45,1.125s0.514,0.733,0.964,0.733h3.333v15.994h-1.677c-0.552,0-1,0.447-1,1v9.199H13  c-0.552,0-1,0.447-1,1V88h-1c-0.552,0-1,0.447-1,1S10.448,90,11,90z M56.167,88h-5.461V74.606h5.461V88z M48.705,88h-5.461V74.606  h5.461V88z M86.083,49.366V88H64.079V49.366H86.083z M49.705,12.339l11.414,6.834H38.292L49.705,12.339z M40.008,21.173h19.394  v15.994H40.008V21.173z M62.079,39.167V88h-3.913V73.606c0-0.553-0.448-1-1-1H42.244c-0.552,0-1,0.447-1,1V88h-3.913V39.167H62.079z   M14,49.366h21.331V88H14V49.366z"/><path d="M42.244,54.116h4.669c0.552,0,1-0.447,1-1v-7.993c0-0.553-0.448-1-1-1h-4.669c-0.552,0-1,0.447-1,1v7.993  C41.244,53.669,41.692,54.116,42.244,54.116z M43.244,46.123h2.669v5.993h-2.669V46.123z"/><path d="M52.497,54.116h4.669c0.552,0,1-0.447,1-1v-7.993c0-0.553-0.448-1-1-1h-4.669c-0.552,0-1,0.447-1,1v7.993  C51.497,53.669,51.945,54.116,52.497,54.116z M53.497,46.123h2.669v5.993h-2.669V46.123z"/><path d="M42.244,68.36h4.669c0.552,0,1-0.447,1-1v-7.994c0-0.553-0.448-1-1-1h-4.669c-0.552,0-1,0.447-1,1v7.994  C41.244,67.913,41.692,68.36,42.244,68.36z M43.244,60.366h2.669v5.994h-2.669V60.366z"/><path d="M52.497,68.36h4.669c0.552,0,1-0.447,1-1v-7.994c0-0.553-0.448-1-1-1h-4.669c-0.552,0-1,0.447-1,1v7.994  C51.497,67.913,51.945,68.36,52.497,68.36z M53.497,60.366h2.669v5.994h-2.669V60.366z"/><path d="M22.125,54.366h-4.458c-0.552,0-1,0.447-1,1v7.994c0,0.553,0.448,1,1,1h4.458c0.552,0,1-0.447,1-1v-7.994  C23.125,54.813,22.677,54.366,22.125,54.366z M21.125,62.36h-2.458v-5.994h2.458V62.36z"/><path d="M31.915,54.366h-4.458c-0.552,0-1,0.447-1,1v7.994c0,0.553,0.448,1,1,1h4.458c0.552,0,1-0.447,1-1v-7.994  C32.915,54.813,32.467,54.366,31.915,54.366z M30.915,62.36h-2.458v-5.994h2.458V62.36z"/><path d="M22.125,68.609h-4.458c-0.552,0-1,0.447-1,1v7.994c0,0.553,0.448,1,1,1h4.458c0.552,0,1-0.447,1-1v-7.994  C23.125,69.057,22.677,68.609,22.125,68.609z M21.125,76.604h-2.458v-5.994h2.458V76.604z"/><path d="M31.915,68.609h-4.458c-0.552,0-1,0.447-1,1v7.994c0,0.553,0.448,1,1,1h4.458c0.552,0,1-0.447,1-1v-7.994  C32.915,69.057,32.467,68.609,31.915,68.609z M30.915,76.604h-2.458v-5.994h2.458V76.604z"/><path d="M68.047,64.36h4.458c0.552,0,1-0.447,1-1v-7.994c0-0.553-0.448-1-1-1h-4.458c-0.552,0-1,0.447-1,1v7.994  C67.047,63.913,67.495,64.36,68.047,64.36z M69.047,56.366h2.458v5.994h-2.458V56.366z"/><path d="M77.837,64.36h4.458c0.552,0,1-0.447,1-1v-7.994c0-0.553-0.448-1-1-1h-4.458c-0.552,0-1,0.447-1,1v7.994  C76.837,63.913,77.285,64.36,77.837,64.36z M78.837,56.366h2.458v5.994h-2.458V56.366z"/><path d="M68.047,78.604h4.458c0.552,0,1-0.447,1-1v-7.994c0-0.553-0.448-1-1-1h-4.458c-0.552,0-1,0.447-1,1v7.994  C67.047,78.156,67.495,78.604,68.047,78.604z M69.047,70.609h2.458v5.994h-2.458V70.609z"/><path d="M77.837,78.604h4.458c0.552,0,1-0.447,1-1v-7.994c0-0.553-0.448-1-1-1h-4.458c-0.552,0-1,0.447-1,1v7.994  C76.837,78.156,77.285,78.604,77.837,78.604z M78.837,70.609h2.458v5.994h-2.458V70.609z"/></svg>