<svg xmlns="http://www.w3.org/2000/svg" xmlns:xlink="http://www.w3.org/1999/xlink" version="1.1" x="0px" y="0px" viewBox="0 0 100 125" style="enable-background:new 0 0 100 100;" xml:space="preserve"><path d="M40.046,46.035h5.01v5.01c0,0.553,0.447,1,1,1h7.846c0.553,0,1-0.447,1-1v-5.01h5.01c0.553,0,1-0.447,1-1v-7.846  c0-0.553-0.447-1-1-1h-5.01v-5.01c0-0.553-0.447-1-1-1h-7.846c-0.553,0-1,0.447-1,1v5.01h-5.01c-0.553,0-1,0.447-1,1v7.846  C39.046,45.588,39.493,46.035,40.046,46.035z M41.046,38.189h5.01c0.553,0,1-0.447,1-1v-5.01h5.846v5.01c0,0.553,0.447,1,1,1h5.01  v5.846h-5.01c-0.553,0-1,0.447-1,1v5.01h-5.846v-5.01c0-0.553-0.447-1-1-1h-5.01V38.189z"/><path d="M90.02,59.626c0-2.435-0.82-4.81-2.322-6.755c0.471-1.144,0.708-2.342,0.708-3.57c0-2.112-0.716-4.169-2.027-5.856  c0.366-0.938,0.552-1.918,0.552-2.919c0-4.608-3.887-8.358-8.665-8.358c-2.102,0-4.029,0.726-5.533,1.931V23.011h1.751  c0.553,0,1-0.447,1-1V17c0-0.553-0.447-1-1-1H59.887v-5c0-0.553-0.447-1-1-1h-6.601c-0.553,0-1,0.447-1,1v5h-2.215v-5  c0-0.553-0.447-1-1-1h-6.6c-0.553,0-1,0.447-1,1v5H25.876c-0.553,0-1,0.447-1,1v5.011c0,0.553,0.447,1,1,1h1.39v11.086  c-1.504-1.204-3.431-1.93-5.532-1.93c-4.778,0-8.665,3.75-8.665,8.358c0,1.003,0.186,1.982,0.552,2.92  c-1.312,1.687-2.027,3.742-2.027,5.855c0,1.229,0.237,2.427,0.708,3.57c-1.502,1.945-2.322,4.32-2.322,6.755  c0,5.928,4.754,10.798,10.781,11.278l0.037,12.06h-9.817c-0.553,0-1,0.447-1,1V89c0,0.553,0.447,1,1,1h78c0.553,0,1-0.447,1-1  v-5.036c0-0.553-0.447-1-1-1h-9.777l0.037-12.06C85.265,70.424,90.02,65.554,90.02,59.626z M78.265,34.167  c3.675,0,6.665,2.853,6.665,6.358c0,0.913-0.207,1.805-0.614,2.65c-0.176,0.363-0.115,0.797,0.153,1.099  c1.249,1.406,1.937,3.191,1.937,5.026c0,1.136-0.26,2.24-0.771,3.284c-0.176,0.361-0.12,0.792,0.143,1.096  c1.446,1.667,2.243,3.778,2.243,5.945c0,4.825-3.854,8.806-8.775,9.278l0.016-5.015l3.32-3.437c0.384-0.396,0.373-1.03-0.024-1.413  c-0.396-0.386-1.03-0.372-1.413,0.024l-1.873,1.939l0.012-3.905c0.002-0.552-0.444-1.001-0.997-1.003c-0.001,0-0.002,0-0.003,0  c-0.551,0-0.998,0.445-1,0.997l-0.013,4.055l-2.013-2.083c-0.382-0.396-1.017-0.408-1.413-0.024  c-0.397,0.383-0.408,1.017-0.024,1.413l3.441,3.562l-0.015,4.885c-4.901-0.489-8.735-4.461-8.735-9.273  c0-1.846,0.564-3.631,1.631-5.161c0.19-0.271,0.395-0.533,0.612-0.785c0.263-0.303,0.318-0.734,0.143-1.095  c-0.512-1.044-0.771-2.148-0.771-3.284c0-1.835,0.688-3.62,1.937-5.026c0.269-0.302,0.329-0.735,0.153-1.099  c-0.407-0.846-0.614-1.737-0.614-2.65c0-0.108,0.004-0.216,0.009-0.318C71.783,36.82,74.707,34.167,78.265,34.167z M53.286,12h4.601  v4h-4.601V12z M42.472,12h4.6v4h-4.6V12z M26.876,18h46.606v3.011H26.876V18z M70.731,23.011v13.333  c0,0.014,0.007,0.025,0.008,0.039c-0.654,1.105-1.059,2.369-1.129,3.725c-0.007,0.138-0.011,0.278-0.011,0.418  c0,1.001,0.186,1.98,0.552,2.919c-1.312,1.688-2.027,3.744-2.027,5.856c0,1.229,0.237,2.427,0.707,3.57  c-0.113,0.146-0.224,0.296-0.33,0.448c-1.303,1.869-1.991,4.05-1.991,6.307c0,3.485,1.644,6.604,4.222,8.683v9.441h-8.504V60.214  c0-0.553-0.447-1-1-1H39.13c-0.553,0-1,0.447-1,1V77.75h-8.864v-9.44c2.578-2.079,4.223-5.199,4.223-8.684  c0-2.258-0.688-4.438-1.992-6.307c-0.106-0.151-0.216-0.302-0.33-0.448c0.471-1.144,0.708-2.342,0.708-3.57  c0-2.112-0.716-4.169-2.027-5.856c0.366-0.938,0.552-1.918,0.552-2.919c0-0.14-0.004-0.28-0.011-0.422  c-0.07-1.349-0.472-2.608-1.122-3.71V23.011H70.731z M73.432,82.964H27.106V79.75h46.325V82.964z M60.228,77.75H40.13V61.214h20.098  V77.75z M11.979,59.626c0-2.167,0.797-4.278,2.243-5.945c0.263-0.304,0.318-0.734,0.143-1.096c-0.512-1.044-0.771-2.148-0.771-3.284  c0-1.837,0.688-3.621,1.937-5.026c0.269-0.302,0.329-0.735,0.153-1.1c-0.407-0.843-0.614-1.734-0.614-2.649  c0-3.506,2.99-6.358,6.665-6.358c3.558,0,6.481,2.653,6.656,6.036c0.005,0.106,0.009,0.214,0.009,0.322  c0,0.913-0.207,1.805-0.614,2.65c-0.176,0.363-0.115,0.797,0.153,1.099c1.249,1.406,1.937,3.191,1.937,5.026  c0,1.136-0.26,2.24-0.771,3.284c-0.176,0.36-0.12,0.792,0.143,1.095c0.217,0.251,0.421,0.513,0.61,0.784  c1.068,1.531,1.633,3.316,1.633,5.162c0,4.812-3.834,8.785-8.735,9.274l-0.015-4.885l3.442-3.563  c0.384-0.396,0.373-1.03-0.024-1.413c-0.396-0.386-1.03-0.372-1.413,0.024l-2.013,2.083l-0.012-4.055  c-0.002-0.552-0.449-0.997-1-0.997c-0.001,0-0.002,0-0.003,0c-0.553,0.002-0.999,0.451-0.997,1.003l0.012,3.904l-1.873-1.938  c-0.381-0.396-1.017-0.408-1.413-0.024c-0.397,0.383-0.408,1.017-0.024,1.413l3.32,3.437l0.015,5.015  C15.833,68.432,11.979,64.451,11.979,59.626z M22.759,70.901c1.617-0.136,3.142-0.584,4.507-1.288v8.137h-1.159  c-0.553,0-1,0.447-1,1v4.214h-2.31L22.759,70.901z M87.979,88h-76v-3.036h76V88z M75.432,82.964V78.75c0-0.553-0.447-1-1-1h-1.7  v-8.137c1.365,0.705,2.89,1.153,4.507,1.289l-0.037,12.063H75.432z"/></svg>