<?xml version="1.0" encoding="UTF-8"?>
<!DOCTYPE svg PUBLIC "-//W3C//DTD SVG 1.1//EN" "http://www.w3.org/Graphics/SVG/1.1/DTD/svg11.dtd">
<!-- Creator: CorelDRAW -->
<svg xmlns="http://www.w3.org/2000/svg" xml:space="preserve" width="286mm" height="278mm" style="shape-rendering:geometricPrecision; text-rendering:geometricPrecision; image-rendering:optimizeQuality; fill-rule:evenodd; clip-rule:evenodd"
viewBox="0 0 286 278"
 xmlns:xlink="http://www.w3.org/1999/xlink">
 <defs>
  <style type="text/css">
   <![CDATA[
    .fil2 {fill:#A5D0FF}
    .fil4 {fill:#D0E2F7}
    .fil5 {fill:#D4E8FF}
    .fil1 {fill:#1565F1}
    .fil15 {fill:#ABE6FD}
    .fil11 {fill:#E0FAFE}
    .fil17 {fill:#E9FBFC}
    .fil16 {fill:#113BA7;fill-rule:nonzero}
    .fil10 {fill:url(#id0)}
    .fil6 {fill:url(#id1)}
    .fil13 {fill:url(#id2)}
    .fil8 {fill:url(#id3)}
    .fil9 {fill:url(#id4)}
    .fil14 {fill:url(#id5)}
    .fil3 {fill:url(#id6)}
    .fil12 {fill:url(#id7)}
    .fil0 {fill:url(#id8)}
    .fil7 {fill:url(#id9)}
   ]]>
  </style>
  <linearGradient id="id0" gradientUnits="userSpaceOnUse" x1="19.7007" y1="187.536" x2="16.2611" y2="187.536">
   <stop offset="0" style="stop-color:#A3CEFF"/>
   <stop offset="1" style="stop-color:#68AAF2"/>
  </linearGradient>
  <linearGradient id="id1" gradientUnits="userSpaceOnUse" xlink:href="#id0" x1="130.561" y1="186.213" x2="127.122" y2="186.213">
  </linearGradient>
  <linearGradient id="id2" gradientUnits="userSpaceOnUse" xlink:href="#id0" x1="130.561" y1="86.9945" x2="127.122" y2="86.9945">
  </linearGradient>
  <linearGradient id="id3" gradientUnits="userSpaceOnUse" xlink:href="#id0" x1="217.609" y1="186.213" x2="214.169" y2="186.213">
  </linearGradient>
  <linearGradient id="id4" gradientUnits="userSpaceOnUse" x1="43.896" y1="182.761" x2="43.896" y2="166.227">
   <stop offset="0" style="stop-color:white"/>
   <stop offset="1" style="stop-color:#DDEAF4"/>
  </linearGradient>
  <linearGradient id="id5" gradientUnits="userSpaceOnUse" xlink:href="#id4" x1="154.081" y1="261.265" x2="154.081" y2="244.73">
  </linearGradient>
  <linearGradient id="id6" gradientUnits="userSpaceOnUse" xlink:href="#id4" x1="154.756" y1="181.438" x2="154.756" y2="164.904">
  </linearGradient>
  <linearGradient id="id7" gradientUnits="userSpaceOnUse" xlink:href="#id4" x1="154.756" y1="82.2195" x2="154.756" y2="65.6853">
  </linearGradient>
  <linearGradient id="id8" gradientUnits="userSpaceOnUse" xlink:href="#id4" x1="241.616" y1="198.52" x2="241.616" y2="190.852">
  </linearGradient>
  <linearGradient id="id9" gradientUnits="userSpaceOnUse" xlink:href="#id4" x1="241.804" y1="181.438" x2="241.804" y2="164.904">
  </linearGradient>
 </defs>
 <g id="Layer_x0020_1">
  <metadata id="CorelCorpID_0Corel-Layer"/>
  <polygon class="fil0" points="269.173,190.607 269.173,198.765 214.059,198.765 214.059,190.607 "/>
  <polygon class="fil0" points="182.021,191.348 182.021,199.506 127.301,199.506 127.301,191.348 "/>
  <polygon class="fil0" points="71.317,191.895 71.317,200.053 16.2758,200.053 16.2758,191.895 "/>
  <polygon class="fil0" points="182.126,91.7516 182.126,99.9093 127.066,99.9093 127.066,91.7516 "/>
  <polygon class="fil0" points="181.519,269.139 181.519,277.297 126.578,277.297 126.578,269.139 "/>
  <path class="fil1" d="M126.853 220.75l0 -7.4225c0,-1.2382 1.0054,-2.2401 2.2401,-2.2401l50.5565 0c1.2383,0 2.2402,1.0019 2.2402,2.2401l0 7.4225c0,1.2382 -1.0019,2.2401 -2.2402,2.2401l-50.5565 0c-1.2347,0 -2.2401,-1.0019 -2.2401,-2.2401zm54.243 0l0 0 0 -7.4225c0,-0.8008 -0.6456,-1.4463 -1.4464,-1.4463l-50.5565 0c-0.7972,0 -1.4463,0.6455 -1.4463,1.4463l0 7.4225c0,0.7973 0.6491,1.4464 1.4463,1.4464l50.5565 0c0.8008,0 1.4464,-0.6491 1.4464,-1.4464z"/>
  <path class="fil1" d="M154.113 211.313l0 -12.7953c0,-0.2187 0.1763,-0.3986 0.3951,-0.3986 0.2187,0 0.3986,0.1799 0.3986,0.3986l0 12.7953c0,0.2187 -0.1799,0.3986 -0.3986,0.3986 -0.2188,0 -0.3951,-0.1799 -0.3951,-0.3986z"/>
  <path class="fil2" d="M178.74 192.549l-48.2282 0c-2.2648,0 -3.3584,-0.963 -3.3902,-2.1025l0 -10.8479 18.0692 0 5.4222 -2.7482c2.5047,-1.6263 5.2564,-1.6263 7.7646,0l5.4857 2.7482 18.2916 0 0 10.8479c0.0246,1.2453 -1.1783,2.2578 -3.4149,2.1025z"/>
  <path class="fil3" d="M180.137 176.903l-21.7594 -10.9008c-2.5082,-1.6263 -5.2599,-1.6263 -7.7646,0l-21.4982 10.9008c-2.9739,1.6263 -2.7093,4.7978 1.397,4.7978l48.2282 0c3.8417,0.2646 4.6319,-2.9069 1.397,-4.7978z"/>
  <path class="fil4" d="M154.024 170.045c6.6181,0 11.9909,2.0179 11.9909,4.5015 0,2.4835 -5.3728,4.5014 -11.9909,4.5014 -6.6182,0 -11.9909,-2.0179 -11.9909,-4.5014 0,-2.4836 5.3727,-4.5015 11.9909,-4.5015z"/>
  <path class="fil5" d="M179.774 181.684l0 10.8479c0.6068,-0.067 1.1465,-0.2399 1.5875,-0.5645l0 -10.8373c-0.3634,0.2611 -0.8925,0.4763 -1.5875,0.5539z"/>
  <path class="fil6" d="M127.122 179.863l0 10.5834c0.1976,1.3158 1.2383,2.0884 3.4396,2.1166l0 -10.8479c-2.1167,0 -3.175,-0.7937 -3.4396,-1.8521z"/>
  <path class="fil2" d="M265.788 192.549l-48.2283 0c-2.2648,0 -3.3584,-0.963 -3.3902,-2.1025l0 -10.8479 18.0693 0 5.4222 -2.7482c2.5047,-1.6263 5.2564,-1.6263 7.7647,0l5.4856 2.7482 18.2916 0 0 10.8479c0.0247,1.2453 -1.1783,2.2578 -3.4149,2.1025z"/>
  <path class="fil7" d="M267.185 176.903l-21.7593 -10.9008c-2.5083,-1.6263 -5.26,-1.6263 -7.7647,0l-21.4983 10.9008c-2.9739,1.6263 -2.7093,4.7978 1.397,4.7978l48.2283 0c3.8417,0.2646 4.632,-2.9069 1.397,-4.7978z"/>
  <path class="fil8" d="M214.169 179.863l0 10.5834c0.1976,1.3158 1.2383,2.0884 3.4396,2.1166l0 -10.8479c-2.1166,0 -3.175,-0.7937 -3.4396,-1.8521z"/>
  <path class="fil5" d="M266.821 181.684l0 10.8479c0.6068,-0.067 1.1465,-0.2399 1.5875,-0.5645l0 -10.8373c-0.3633,0.2611 -0.8925,0.4763 -1.5875,0.5539z"/>
  <path class="fil4" d="M241.954 170.331c7.1543,0 12.9611,2.1802 12.9611,4.8648 0,2.6882 -5.8068,4.8648 -12.9611,4.8648 -7.1543,0 -12.961,-2.1766 -12.961,-4.8648 0,-2.6846 5.8067,-4.8648 12.961,-4.8648z"/>
  <path class="fil2" d="M228.693 152.205l0 19.371c0,0.448 0.1799,0.7867 0.4621,0.9666l2.4272 1.0866 2.0425 -2.3883c0.8079,-0.3034 1.4605,-1.2489 1.4605,-2.1097l0 -16.764c0,-0.3668 2.0144,-2.3741 1.8133,-2.5682l4.1416 -0.0882 -2.4341 -0.9419c-0.5468,-0.2117 -1.263,-0.4022 -1.8204,-0.4657 -1.1783,-0.0705 -2.0637,0.0036 -3.1609,0.4445l-3.4678 1.3477c-0.8078,0.3033 -1.464,1.2488 -1.464,2.1096z"/>
  <path class="fil2" d="M222.798 162.21l0 4.5121c0,0.448 0.1799,0.7867 0.4656,0.9666l2.4272 1.0865 14.732 -7.2954c0.8078,-0.3034 1.464,-1.2488 1.464,-2.1096l0 -1.1218c0,-0.3705 2.0108,-3.1609 1.8097,-3.3514l-2.3742 -1.0584c-0.2504,-0.1164 -0.5609,-0.1199 -0.8995,0.0036l-16.1608 6.2582c-0.8079,0.2999 -1.464,1.2453 -1.464,2.1096z"/>
  <path class="fil1" d="M225.144 163.251l0 4.5121c0,0.8643 0.6561,1.3158 1.464,1.016l10.8161 -4.1875c4.445,-1.4781 6.8051,-4.6461 6.8051,-8.3467 0,-0.8608 -0.6526,-1.6616 -1.4605,-1.3582l-16.1607 6.2547c-0.8079,0.3034 -1.464,1.2489 -1.464,2.1096z"/>
  <path class="fil1" d="M231.039 153.25l0 19.3675c0,0.8643 0.6561,1.3159 1.464,1.016l3.4678 -1.3511c0.8043,-0.2999 1.4605,-1.2454 1.4605,-2.1097l0 -19.3675c0,-0.8607 -0.6562,-1.3158 -1.4605,-1.016l-3.4678 1.3512c-0.8079,0.2998 -1.464,1.2488 -1.464,2.1096z"/>
  <path class="fil1" d="M235.749 149.881c3.937,-1.517 6.8368,-0.1447 8.001,2.9245 0.3986,1.0583 0.4868,2.3072 0.4868,3.7712l-3.3055 1.0407 -3.5243 1.0089 -1.5452 -1.2947 0.1623 -3.3796 -0.2751 -4.071z"/>
  <path class="fil2" d="M248.791 171.33c3.1609,0 5.8103,-2.2543 6.1666,-0.822l0 2.6035c0,1.5875 -2.7622,2.8786 -6.1666,2.8786 -3.4043,0 -6.17,-1.2911 -6.17,-2.8786l0 -2.6035c0.4127,-1.4041 3.0515,0.822 6.17,0.822z"/>
  <path class="fil1" d="M248.791 167.766c3.4044,0 6.1666,1.2912 6.1666,2.8787 0,1.5875 -2.7622,2.8786 -6.1666,2.8786 -3.4043,0 -6.17,-1.2911 -6.17,-2.8786 0,-1.5875 2.7657,-2.8787 6.17,-2.8787z"/>
  <path class="fil2" d="M248.791 166.669c3.1609,0 5.8103,-2.2543 6.1666,-0.822l0 2.6035c0,1.591 -2.7622,2.8787 -6.1666,2.8787 -3.4043,0 -6.17,-1.2877 -6.17,-2.8787l0 -2.6035c0.4127,-1.4005 3.0515,0.822 6.17,0.822z"/>
  <path class="fil1" d="M248.791 163.106c3.4044,0 6.1666,1.2912 6.1666,2.8787 0,1.5875 -2.7622,2.8786 -6.1666,2.8786 -3.4043,0 -6.17,-1.2911 -6.17,-2.8786 0,-1.5875 2.7657,-2.8787 6.17,-2.8787z"/>
  <path class="fil2" d="M240.039 174.628c3.1609,0 5.8103,-2.2542 6.1666,-0.8219l0 2.6034c0,1.5875 -2.7623,2.8787 -6.1666,2.8787 -3.4043,0 -6.1665,-1.2912 -6.1665,-2.8787l0 -2.6034c0.4092,-1.4041 3.048,0.8219 6.1665,0.8219z"/>
  <path class="fil1" d="M240.039 171.065c3.4043,0 6.1666,1.2911 6.1666,2.8786 0,1.5875 -2.7623,2.8787 -6.1666,2.8787 -3.4043,0 -6.17,-1.2912 -6.17,-2.8787 0,-1.5875 2.7657,-2.8786 6.17,-2.8786z"/>
  <path class="fil2" d="M242.78 171.887c3.1609,0 5.8103,-2.2542 6.1666,-0.8219l0 2.6035c0,1.591 -2.7623,2.8786 -6.1666,2.8786 -3.4043,0 -6.1665,-1.2876 -6.1665,-2.8786l0 -2.6035c0.4092,-1.4041 3.048,0.8219 6.1665,0.8219z"/>
  <path class="fil1" d="M242.78 168.324c3.4043,0 6.1666,1.2912 6.1666,2.8787 0,1.5875 -2.7623,2.8786 -6.1666,2.8786 -3.4043,0 -6.1701,-1.2911 -6.1701,-2.8786 0,-1.5875 2.7658,-2.8787 6.1701,-2.8787z"/>
  <path class="fil2" d="M248.791 162.009c3.1609,0 5.8103,-2.2543 6.1666,-0.822l0 2.6035c0,1.591 -2.7622,2.8787 -6.1666,2.8787 -3.4043,0 -6.17,-1.2877 -6.17,-2.8787l0 -2.6035c0.4127,-1.4005 3.0515,0.822 6.17,0.822z"/>
  <path class="fil1" d="M248.791 158.446c3.4044,0 6.1666,1.2912 6.1666,2.8787 0,1.5875 -2.7622,2.8786 -6.1666,2.8786 -3.4043,0 -6.17,-1.2911 -6.17,-2.8786 0,-1.5875 2.7657,-2.8787 6.17,-2.8787z"/>
  <path class="fil2" d="M251.257 157.349c3.1609,0 5.8137,-2.2508 6.1665,-0.822l0 2.6035c0,1.591 -2.7622,2.8787 -6.1665,2.8787 -3.4043,0 -6.1666,-1.2877 -6.1666,-2.8787l0 -2.6035c0.4128,-1.4005 3.048,0.822 6.1666,0.822z"/>
  <path class="fil1" d="M251.257 153.786c3.4043,0 6.1665,1.2912 6.1665,2.8787 0,1.591 -2.7622,2.8786 -6.1665,2.8786 -3.4043,0 -6.1666,-1.2876 -6.1666,-2.8786 0,-1.5875 2.7623,-2.8787 6.1666,-2.8787z"/>
  <path class="fil1" d="M191.472 189.787l-6.35 -2.6459c-0.2328,-0.0987 -0.5291,-0.2822 -0.5291,-0.5291 0,-0.2505 0.2963,-0.4339 0.5291,-0.5292l6.35 -2.6458c0.3634,-0.1517 1.0584,0.134 1.0584,0.5291l0 2.2508 18.9053 0c0.2223,0 0.3986,0.1799 0.3986,0.3986 0,0.2187 -0.1799,0.3951 -0.3986,0.3951l-18.9053 -0.0035 0 2.2507c0,0.3951 -0.695,0.6809 -1.0584,0.5292z"/>
  <path class="fil2" d="M67.8796 193.872l-48.2283 0c-2.2648,0 -3.3584,-0.9631 -3.3902,-2.1026l0 -10.8479 18.0693 0 5.4222 -2.7482c2.5047,-1.6263 5.2564,-1.6263 7.7646,0l5.4857 2.7482 18.2915 0 0 10.8479c0.0247,1.2453 -1.1782,2.2578 -3.4148,2.1026z"/>
  <path class="fil9" d="M69.2766 178.226l-21.7594 -10.9009c-2.5082,-1.6263 -5.2599,-1.6263 -7.7646,0l-21.4983 10.9009c-2.9739,1.6263 -2.7093,4.7977 1.397,4.7977l48.2283 0c3.8417,0.2646 4.6319,-2.9069 1.397,-4.7977z"/>
  <path class="fil4" d="M43.1639 172.691c6.6182,0 11.991,2.0179 11.991,4.5014 0,2.4836 -5.3728,4.5015 -11.991,4.5015 -6.6181,0 -11.9909,-2.0179 -11.9909,-4.5015 0,-2.4835 5.3728,-4.5014 11.9909,-4.5014z"/>
  <path class="fil10" d="M16.2611 181.186l0 10.5833c0.1976,1.3159 1.2383,2.0884 3.4396,2.1167l0 -10.848c-2.1167,0 -3.175,-0.7937 -3.4396,-1.852z"/>
  <path class="fil5" d="M68.9132 183.006l0 10.8479c0.6068,-0.067 1.1465,-0.2399 1.5875,-0.5644l0 -10.8374c-0.3634,0.2611 -0.8925,0.4763 -1.5875,0.5539z"/>
  <path class="fil1" d="M241.675 144.547l-2.6423 -6.3499c-0.1517,-0.3669 0.1341,-1.0584 0.5292,-1.0584l2.2437 0 0.0141 -105.04c0,-2.0143 -1.0443,-2.7798 -2.7588,-2.7798l-57.4675 0 0.0071 -0.7938 57.4604 0c2.0955,0 3.5525,1.0654 3.5525,3.5736l-0.0141 105.04 2.2543 0c0.3915,0 0.6808,0.695 0.5291,1.0584l-2.6493 6.3499c-0.0953,0.2293 -0.2787,0.5291 -0.5292,0.5291 -0.247,0 -0.4304,-0.2998 -0.5292,-0.5291zm-114.289 -115.228l0 0 -30.0284 -0.0036c-0.2188,0 -0.3987,-0.1764 -0.3987,-0.3951 0,-0.2187 0.1799,-0.3986 0.3987,-0.3986l30.0002 0.0035 0.0282 0.7938z"/>
  <path class="fil1" d="M127.118 32.6314l0 -7.4224c0,-1.2383 1.0054,-2.2401 2.2401,-2.2401l50.5565 0c1.2383,0 2.2402,1.0018 2.2402,2.2401l0 7.4224c0,1.2383 -1.0019,2.2402 -2.2402,2.2402l-50.5565 0c-1.2347,0 -2.2401,-1.0019 -2.2401,-2.2402zm54.243 0l0 0 0 -7.4224c0,-0.8008 -0.6456,-1.4464 -1.4464,-1.4464l-50.5565 0c-0.7972,0 -1.4464,0.6456 -1.4464,1.4464l0 7.4224c0,0.7973 0.6492,1.4464 1.4464,1.4464l50.5565 0c0.8008,0 1.4464,-0.6491 1.4464,-1.4464z"/>
  <path class="fil1" d="M45.8556 86.864c0,-0.2188 0.1764,-0.3951 0.3951,-0.3951l78.8882 0c0.2187,-0.0036 0.3951,0.1763 0.3951,0.3951 0,0.2187 -0.1764,0.3951 -0.3951,0.3951l-78.8846 0.0035c-0.2223,0 -0.3987,-0.1799 -0.3987,-0.3986z"/>
  <path class="fil1" d="M116.672 267.839l0 -2.2508 -0.0599 0 -45.8858 0 0.0176 -0.7937 45.8893 0.0035 0.0388 0 0 -2.2507c0,-0.3951 0.695,-0.6809 1.0584,-0.5292l6.35 2.6459c0.2293,0.0952 0.5291,0.2787 0.5291,0.5291 0,0.2505 -0.2998,0.4339 -0.5291,0.5292l-6.35 2.6458c-0.3634,0.1517 -1.0584,-0.134 -1.0584,-0.5291zm-100.21 -2.2508l0 0 -12.5377 0c-2.0955,0 -3.549,-1.0653 -3.549,-3.5736l0 -171.972c0,-2.5083 1.4535,-3.5736 3.549,-3.5736l38.3575 0c0.2222,0 0.3986,0.1763 0.3986,0.3951 0,0.2187 -0.1764,0.3986 -0.3951,0.3986l-38.361 0c-1.711,0 -2.7552,0.7655 -2.7552,2.7799l0 171.972c0,2.0144 1.0442,2.7799 2.7552,2.7799l12.5906 0 -0.0529 0.7937z"/>
  <path class="fil1" d="M16.2576 268.904l0 -7.4225c0,-1.2382 1.0054,-2.2401 2.2401,-2.2401l50.5566 0c1.2383,0 2.2401,1.0019 2.2401,2.2401l0 7.4225c0,1.2382 -1.0018,2.2401 -2.2401,2.2401l-50.5566 0c-1.2347,0 -2.2401,-1.0019 -2.2401,-2.2401zm54.2431 0l0 0 0 -7.4225c0,-0.8008 -0.6456,-1.4464 -1.4464,-1.4464l-50.5566 0c-0.7973,0 -1.4464,0.6456 -1.4464,1.4464l0 7.4225c0,0.7972 0.6491,1.4463 1.4464,1.4463l50.5566 0c0.8008,0 1.4464,-0.6491 1.4464,-1.4463z"/>
  <path class="fil1" d="M181.118 216.774c0,-0.2187 0.1764,-0.3951 0.3951,-0.3951l100.538 -0.0036c1.711,0 2.7517,-0.762 2.7517,-2.7763l0 -123.557c0,-2.0144 -1.0407,-2.7799 -2.7517,-2.7799l-37.7154 0c-0.2188,0 -0.3951,-0.1764 -0.3951,-0.3951 0,-0.2187 0.1763,-0.3986 0.3986,-0.3986l37.7119 0c2.092,0 3.5455,1.0689 3.5455,3.5736l0 123.557c0,2.5047 -1.4535,3.5701 -3.5455,3.5701l-100.538 0.0035c-0.2187,0 -0.3951,-0.1799 -0.3951,-0.3986z"/>
  <path class="fil1" d="M194.174 90.039l-6.35 -2.6459c-0.2293,-0.0952 -0.5292,-0.2787 -0.5292,-0.5291 0,-0.247 0.2999,-0.434 0.5292,-0.5292l6.35 -2.6458c0.3634,-0.1517 1.0583,0.1375 1.0583,0.5291l0 2.2508 -0.0282 0 44.9016 0c0.2187,0 0.3951,0.1799 0.3951,0.3986 0,0.2187 -0.1764,0.3951 -0.3987,0.3951l-44.8698 0 0 2.2472c0,0.3951 -0.6949,0.6809 -1.0583,0.5292z"/>
  <path class="fil1" d="M153.978 144.141l-2.6458 -6.3499c-0.1517,-0.3634 0.134,-1.0584 0.5291,-1.0584l2.2472 0 0 -11.3735 0.7938 0 0 11.3735 2.2507 0c0.3916,0 0.6809,0.695 0.5292,1.0584l-2.6459 6.3499c-0.0987,0.2293 -0.2822,0.5291 -0.5327,0.5291 -0.2469,0 -0.4304,-0.2998 -0.5256,-0.5291zm0.1341 -30.4235l0 0 0 -14.6791c0,-0.2187 0.1763,-0.3951 0.3951,-0.3951 0.2222,0 0.3986,0.1764 0.3986,0.3951l-0.0035 14.6791 -0.7902 0z"/>
  <path class="fil1" d="M127.118 123.119l0 -7.4224c0,-1.2383 1.0054,-2.2401 2.2401,-2.2401l50.5565 0c1.2383,0 2.2402,1.0018 2.2402,2.2401l0 7.4224c0,1.2383 -1.0019,2.2402 -2.2402,2.2402l-50.5565 0c-1.2347,0 -2.2401,-1.0019 -2.2401,-2.2402zm54.243 0l0 0 0 -7.4224c0,-0.8008 -0.6456,-1.4464 -1.4464,-1.4464l-50.5565 0c-0.7972,0 -1.4464,0.6456 -1.4464,1.4464l0 7.4224c0,0.7973 0.6492,1.4464 1.4464,1.4464l50.5565 0c0.8008,0 1.4464,-0.6491 1.4464,-1.4464z"/>
  <path class="fil1" d="M145.113 16.3507l0 -13.4937c0,-1.2559 0.9948,-2.1167 2.1167,-2.1167l14.0229 0c1.3405,-0.0599 1.9755,0.5257 2.3812,1.3229l-15.7656 0c-1.3229,0 -1.0583,1.323 0,1.323l14.1781 0c1.5699,0 2.3813,0.6632 2.3813,1.852l0 10.848c0,1.6615 -1.1077,2.1202 -2.1167,2.1166l-15.3458 0c-1.4852,0 -1.8521,-0.8184 -1.8521,-1.8521zm17.3919 -5.4363l0 0c0,-0.6632 -0.5362,-1.1994 -1.1994,-1.1994 -0.6597,0 -1.1995,0.5362 -1.1995,1.1994 0,0.6597 0.5398,1.196 1.1995,1.196 0.6632,0 1.1994,-0.5363 1.1994,-1.196z"/>
  <path class="fil1" d="M38.0169 254.74l11.0278 0c1.1995,0 2.1767,-0.9736 2.1767,-2.1731l0 -14.4357c0,-1.1994 -0.9772,-2.1766 -2.1767,-2.1766l-11.0278 0c-1.203,0 -2.1766,0.9772 -2.1766,2.1766l0 14.4357c0,1.1995 0.9736,2.1731 2.1766,2.1731z"/>
  <path class="fil1" d="M39.9607 235.958c0.3951,0 1.0407,-0.1869 1.2912,-0.455l0.6385 -0.6245c0.3916,-0.3598 0.9419,-0.5256 1.6228,-0.508l0 2.0391 -3.5525 -0.4516z"/>
  <path class="fil1" d="M47.0692 235.958c-0.3986,0 -1.0407,-0.1869 -1.2947,-0.455l-0.6385 -0.6245c-0.3916,-0.3598 -0.9384,-0.5256 -1.6228,-0.508l0 2.0391 3.556 -0.4516z"/>
  <path class="fil11" d="M43.5132 235.426c0.2928,0 0.5292,0.2399 0.5292,0.5292 0,0.2928 -0.2364,0.5292 -0.5292,0.5292 -0.2928,0 -0.5292,-0.2364 -0.5292,-0.5292 0,-0.2893 0.2364,-0.5292 0.5292,-0.5292z"/>
  <path class="fil11" d="M40.3452 239.281c-0.2046,-0.2399 -0.2716,-0.5433 -0.2716,-0.8114l0 -0.7937c0,-0.2188 0.1799,-0.3987 0.3986,-0.3987 0.2188,0 0.3952,0.1799 0.3952,0.3987l0 0.7937c0,0.1517 0.0388,0.2434 0.0811,0.2963 0.0353,0.0389 0.1129,0.0988 0.3175,0.0988l2.3812 0c0.2188,0 0.3952,0.1799 0.3952,0.3987 0,0.2187 -0.1764,0.3951 -0.3952,0.3951l-2.3812 0c-0.3845,0 -0.7056,-0.127 -0.9208,-0.3775z"/>
  <path class="fil11" d="M42.984 239.264c0,-0.2188 0.1799,-0.3987 0.3987,-0.3987l2.3812 0c0.2011,0 0.2787,-0.0599 0.314,-0.0988 0.0458,-0.0529 0.0811,-0.1446 0.0811,-0.2963l0 -0.7937c0,-0.2188 0.1799,-0.3987 0.3987,-0.3987 0.2187,0 0.3951,0.1799 0.3951,0.3987l0 0.7937c0,0.2681 -0.0635,0.5715 -0.2717,0.8114 -0.2152,0.2505 -0.5362,0.3775 -0.9172,0.3775l-2.3812 0c-0.2188,0 -0.3987,-0.1764 -0.3987,-0.3951z"/>
  <path class="fil11" d="M42.0844 248.21l-2.487 -2.6458c-0.1482,-0.1588 -0.1412,-0.4092 0.0176,-0.5609 0.1623,-0.1482 0.4127,-0.1411 0.5609,0.0176l2.2296 2.3707 4.7907 -4.0923c0.1693,-0.1411 0.4198,-0.1234 0.5609,0.0424 0.1411,0.1693 0.1235,0.4198 -0.0459,0.5609l-5.08 4.3392c-0.1587,0.1375 -0.3986,0.1234 -0.5468,-0.0318z"/>
  <path class="fil1" d="M142.213 165.791c-0.2893,-7.4824 5.3162,-14.9472 12.5094,-16.6617 7.1931,-1.718 13.2679,2.9634 13.5572,10.4458 0.2893,7.4824 -5.3128,14.9507 -12.506,16.6652 -7.1931,1.7145 -13.2678,-2.9668 -13.5606,-10.4493zm13.3454 4.3286l0 0c3.8877,-1.4323 6.784,-5.9231 6.4665,-10.0259 -0.2858,-3.7994 -3.2491,-5.6621 -6.8228,-4.3145 -3.8876,1.4288 -6.7839,5.9231 -6.4664,10.0259 0.3457,3.8242 3.1186,5.6022 6.8227,4.3145z"/>
  <path class="fil2" d="M158.529 155.465c1.9297,-0.0458 4.378,-4.6672 2.6847,-6.1207 0.8431,0 3.8029,1.524 4.8401,3.3585 0.5644,1.7533 -3.556,4.8436 -5.1541,4.2827 -0.2434,-0.1587 -0.6456,-0.5115 -1.0936,-0.7937 -0.4939,-0.314 -1.0301,-0.5539 -1.2771,-0.7268z"/>
  <path class="fil2" d="M161.383 164.179c-0.2187,0.0177 -0.7937,1.076 -1.143,1.6405 -0.3598,0.5891 -1.0619,1.5204 -0.9842,1.8274 1.0971,0.6103 4.2721,3.1467 4.3391,3.8946 0.755,-0.0635 3.5172,-4.6602 3.4467,-5.2952 -1.7322,-0.2681 -4.0111,-1.2735 -5.6586,-2.0673z"/>
  <path class="fil2" d="M150.024 169.135c0.2328,-0.0141 0.7902,0.4586 1.4005,0.7973 0.4198,0.2398 1.0125,0.3633 1.4252,0.5785 1.7992,1.4852 -0.1376,5.969 -1.8239,5.9549 -0.8255,0.2293 -4.445,-1.4817 -5.3975,-2.6317 1.076,0.261 2.2755,-0.0671 3.5737,-1.4217 0.949,-1.2206 1.5416,-2.3707 0.822,-3.2773z"/>
  <path class="fil2" d="M149.495 161.949c0.2505,-0.1094 0.6879,-1.1148 1.21,-2.0144 0.4516,-0.7796 0.9949,-1.4464 1.1501,-1.8274 -0.6809,-1.3052 -3.3937,-4.1592 -4.9248,-4.3568 -0.9878,0.4551 -3.6477,4.6638 -3.7677,6.0643 1.6687,1.3123 5.4998,2.0496 6.3324,2.1343z"/>
  <path class="fil1" d="M116.859 189.258l0.0071 -2.2507 -6.6746 0.0035 0 -0.7937 6.671 0 -0.007 -2.2508c0,-0.3951 0.695,-0.6808 1.0583,-0.5291l6.3535 2.6458c0.2294,0.0953 0.5292,0.2787 0.5292,0.5292 0,0.2469 -0.2998,0.4339 -0.5292,0.5291l-6.35 2.6459c-0.3668,0.1517 -1.0583,-0.1341 -1.0583,-0.5292zm-43.3846 -2.6423l0 0c0,-0.2187 0.1799,-0.3986 0.3986,-0.3986l10.1212 0 0.0036 0.7937 -10.1248 0c-0.2187,0 -0.3986,-0.1764 -0.3986,-0.3951z"/>
  <path class="fil1" d="M83.6205 190.852l0 -7.4225c0,-1.2382 1.0054,-2.2401 2.2437,-2.2401l22.3484 0c1.2383,0 2.2437,1.0019 2.2437,2.2401l0 7.4225c0,1.2382 -1.0054,2.2401 -2.2437,2.2401l-22.3484 0c-1.2383,0 -2.2437,-1.0019 -2.2437,-2.2401zm26.042 0l0 0 0 -7.4225c0,-0.8008 -0.6491,-1.4464 -1.4499,-1.4464l-22.3484 0c-0.8008,0 -1.45,0.6456 -1.45,1.4464l0 7.4225c0,0.7973 0.6492,1.4464 1.45,1.4464l22.3484 0c0.8008,0 1.4499,-0.6491 1.4499,-1.4464z"/>
  <path class="fil1" d="M43.9224 148.251l-0.0106 -116.152c0,-2.5082 1.4535,-3.5736 3.5525,-3.5736l78.2038 -0.0035c0.2187,0 0.3951,0.1799 0.3951,0.3986 0,0.2187 -0.1764,0.3951 -0.3951,0.3951l-78.2038 0.0036c-1.7145,0 -2.7587,0.7655 -2.7587,2.7798l0.0106 116.152c0,0.2188 -0.18,0.3951 -0.3987,0.3951 -0.2187,0 -0.3951,-0.1763 -0.3951,-0.3951z"/>
  <path class="fil2" d="M27.5853 160.651l0 16.7499c0,0.4586 0.1834,0.8008 0.4727,0.9842l2.4624 1.1042 14.9542 -7.4083c0.822,-0.3069 1.4852,-1.2665 1.4852,-2.1414l0 -1.1395c0,-0.3739 2.0461,-15.3775 1.8415,-15.5716l-2.413 -1.0759c-0.2504,-0.1165 -0.5679,-0.1235 -0.9137,0.007l-16.4041 6.35c-0.8185,0.3069 -1.4852,1.2665 -1.4852,2.1414z"/>
  <path class="fil1" d="M29.9665 161.709l0 16.7499c0,0.8749 0.6668,1.337 1.4852,1.0301l16.4042 -6.35c0.822,-0.3069 1.4852,-1.2665 1.4852,-2.1414l0 -16.7498c0,-0.8749 -0.6632,-1.3371 -1.4852,-1.0302l-16.4042 6.35c-0.8184,0.307 -1.4852,1.2665 -1.4852,2.1414z"/>
  <path class="fil11" d="M31.4517 166.126l0 10.7421c0,0.7408 0.3457,0.956 1.0372,0.6949l14.4145 -5.588c0.6914,-0.261 0.9525,-0.6985 0.9525,-1.4393l0 -11.2571c0,-0.5821 -0.1376,-0.7691 -0.829,-0.508l-14.8097 5.7291c-0.6949,0.261 -0.7655,0.8854 -0.7655,1.6263z"/>
  <path class="fil1" d="M36.1119 168.797l0 1.778c0,0.3422 0.2611,0.5221 0.5786,0.4022l4.2686 -1.6546c1.7568,-0.582 2.6881,-1.8309 2.6881,-3.2914 0,-0.3422 -0.2575,-0.6561 -0.5785,-0.5397l-6.3782 2.4694c-0.3175,0.12 -0.5786,0.4939 -0.5786,0.8361z"/>
  <path class="fil1" d="M38.4402 164.845l0 7.6447c0,0.3422 0.2576,0.5221 0.5786,0.4022l1.3688 -0.5327c0.3175,-0.12 0.575,-0.4939 0.575,-0.8326l0 -7.6447c0,-0.3422 -0.2575,-0.5221 -0.575,-0.4022l-1.3688 0.5327c-0.321,0.12 -0.5786,0.4939 -0.5786,0.8326z"/>
  <path class="fil1" d="M40.2994 163.515c1.5522,-0.5962 2.6987,-0.0564 3.1573,1.1571 0.1588,0.4163 0.1941,0.9102 0.1941,1.4888l-1.3053 0.4092 -1.3935 0.3986 -0.6103 -0.5115 0.067 -1.3335 -0.1093 -1.6087z"/>
  <path class="fil1" d="M58.5803 174.183c0,0.9878 -0.3669,1.898 -1.3441,2.3495l-7.2919 2.5859c-2.9598,0.9878 -6.611,0.5115 -6.9074,-2.219l0 -1.2347c0,-2.6988 1.8698,-5.0941 5.1823,-6.664l4.1946 -0.9842c4.0216,0.0458 5.9302,1.5663 6.1665,4.4414l0 1.7251z"/>
  <path class="fil2" d="M47.7254 167.029l0.4938 2.7129c0.2152,1.4322 2.4836,3.0832 3.9476,2.9633 1.3053,-0.0177 1.6934,-1.3476 1.7251,-2.2225l0 -0.7408 -0.9842 0.4938 -1.4817 -1.4816 -1.7286 -1.9721 -0.9843 0 -0.9877 0.247z"/>
  <path class="fil11" d="M48.4662 169.248c2.159,2.2401 4.6919,2.5117 5.9196,0.4939 0.4904,-0.7726 0.9878,-2.8187 0.9878,-4.6885l0 -2.9598 -5.1823 0.247 -1.4782 0 -1.2347 0.4939 -1.2347 0.9877 0.7408 1.7251c0.3105,0.9878 0.6421,2.8787 1.4817,3.7007z"/>
  <path class="fil1" d="M49.9443 163.893c3.2033,1.1395 5.9232,-0.4692 5.6762,-2.1766 0.4939,-4.2369 -6.1701,-5.4328 -8.636,-1.7816 -2.0143,1.3335 -1.8944,4.6461 -0.7408,6.2266l0.7408 0.6808c0.5715,0.381 0.9031,-0.8713 0.9878,-2.3001 0,-0.9842 0.8819,-1.2665 1.972,-0.6491z"/>
  <path class="fil1" d="M55.3736 162.475l0 2.219c0.4445,-0.4798 0.9807,-1.7286 0.9066,-2.7552 -0.0494,-0.6809 -0.3669,-1.2382 -1.1536,-2.159l-0.7408 0.3069 0.7408 2.1626 0.247 0.2257z"/>
  <path class="fil2" d="M178.74 93.3304l-48.2282 0c-2.2648,0 -3.3584,-0.9631 -3.3902,-2.1026l0 -10.8479 18.0692 0 5.4222 -2.7481c2.5047,-1.6263 5.2564,-1.6263 7.7646,0l5.4857 2.7481 18.2916 0 0 10.8479c0.0246,1.2453 -1.1783,2.2578 -3.4149,2.1026z"/>
  <path class="fil12" d="M180.137 77.6847l-21.7594 -10.9008c-2.5082,-1.6263 -5.2599,-1.6263 -7.7646,0l-21.4982 10.9008c-2.9739,1.6263 -2.7093,4.7978 1.397,4.7978l48.2282 0c3.8417,0.2646 4.6319,-2.9069 1.397,-4.7978z"/>
  <path class="fil4" d="M154.024 70.8267c6.6181,0 11.9909,2.0179 11.9909,4.5014 0,2.4836 -5.3728,4.5015 -11.9909,4.5015 -6.6182,0 -11.9909,-2.0179 -11.9909,-4.5015 0,-2.4835 5.3727,-4.5014 11.9909,-4.5014z"/>
  <path class="fil2" d="M144.753 63.8487l5.6373 10.4246c0.1905,0.4269 0.4516,0.7303 0.7903,0.8926 0.1199,0.0564 2.226,0.8925 2.4236,0.9913l-1.8063 -3.0551 0 -9.525 -7.0449 0.2716z"/>
  <path class="fil2" d="M151.731 48.4535c1.464,-0.3669 2.8363,-0.2469 4.0146,0.2646l2.5153 1.0866c1.778,1.2488 1.644,2.9351 1.644,5.8137 0,5.0977 -3.556,10.1248 -7.9411,11.2219 -4.3815,1.0936 -8.1738,-2.0673 -8.1738,-7.1649 0,-5.0977 3.5595,-10.1247 7.941,-11.2219z"/>
  <path class="fil1" d="M154.342 49.5824c4.385,-1.0971 7.941,2.152 7.941,7.2496 0,5.0976 -3.556,10.1247 -7.941,11.2183 -4.3815,1.0972 -7.9375,-2.1484 -7.9375,-7.246 0,-5.0977 3.556,-10.1248 7.9375,-11.2219z"/>
  <path class="fil1" d="M154.342 73.1515c0.7337,-0.1834 1.3264,0.3598 1.3264,1.21 0,0.8502 -0.5927,1.6898 -1.3264,1.8733 -0.7303,0.1799 -1.323,-0.3599 -1.323,-1.2101 0,-0.8502 0.5927,-1.6898 1.323,-1.8732z"/>
  <polygon class="fil1" points="161.298,61.5239 155.534,75.0741 153.816,74.8801 153.287,65.0905 "/>
  <polygon class="fil1" points="147.537,65.2775 153.174,75.7021 154.345,74.6155 154.345,65.0905 "/>
  <path class="fil11" d="M152.786 55.4844l0 8.7453c0,0.3775 0.2858,0.5751 0.6385,0.434l2.1626 -0.8432c0.3527,-0.1376 0.6385,-0.5574 0.6385,-0.9384l0 -8.7418c0,-0.381 -0.2858,-0.575 -0.6385,-0.4374l-2.1626 0.8466c-0.3527,0.1376 -0.6385,0.5574 -0.6385,0.9349z"/>
  <path class="fil11" d="M149.876 59.9506l0 2.1484c0,0.4057 0.3104,0.6209 0.6914,0.4762l7.8776 -2.9739c0.381,-0.1446 0.6914,-0.5927 0.6914,-1.0019l0 -2.1484c0,-0.4057 -0.3104,-0.6209 -0.6914,-0.4763l-7.8776 2.974c-0.381,0.1446 -0.6914,0.5926 -0.6914,1.0019z"/>
  <path class="fil13" d="M127.122 80.6445l0 10.5833c0.1976,1.3159 1.2383,2.0885 3.4396,2.1167l0 -10.8479c-2.1167,0 -3.175,-0.7938 -3.4396,-1.8521z"/>
  <path class="fil5" d="M179.774 82.4648l0 10.8479c0.6068,-0.067 1.1465,-0.2398 1.5875,-0.5644l0 -10.8373c-0.3634,0.261 -0.8925,0.4762 -1.5875,0.5538z"/>
  <path class="fil2" d="M178.059 272.394l-48.2283 0c-2.2648,0 -3.3584,-0.9631 -3.3902,-2.1026l0 -10.8479 18.0693 0 5.4222 -2.7482c2.5047,-1.6263 5.2564,-1.6263 7.7646,0l5.4857 2.7482 18.2915 0 0 10.8479c0.0247,1.2453 -1.1782,2.2578 -3.4148,2.1026z"/>
  <path class="fil5" d="M179.052 261.453l0 10.8479c0.6068,-0.067 1.1465,-0.2399 1.5875,-0.5644l0 -10.8374c-0.3634,0.2611 -0.8925,0.4763 -1.5875,0.5539z"/>
  <path class="fil10" d="M126.361 259.709l0 10.5833c0.1976,1.3159 1.2383,2.0884 3.4396,2.1167l0 -10.848c-2.1167,0 -3.175,-0.7937 -3.4396,-1.852z"/>
  <path class="fil14" d="M179.462 256.73l-21.7594 -10.9008c-2.5082,-1.6264 -5.2599,-1.6264 -7.7646,0l-21.4982 10.9008c-2.9739,1.6263 -2.7093,4.7978 1.397,4.7978l48.2282 0c3.8417,0.2645 4.6319,-2.9069 1.397,-4.7978z"/>
  <path class="fil4" d="M153.349 250.666c6.6181,0 11.9909,2.0179 11.9909,4.5015 0,2.4835 -5.3728,4.5014 -11.9909,4.5014 -6.6182,0 -11.9909,-2.0179 -11.9909,-4.5014 0,-2.4836 5.3727,-4.5015 11.9909,-4.5015z"/>
  <path class="fil1" d="M163.001 251.481c0,1.2558 -0.4692,2.413 -1.7145,2.9845l-9.2746 3.2949c-3.7676,1.2559 -8.4137,0.6491 -8.7912,-2.8258l0 -1.5698c0,-3.4361 2.3813,-6.4805 6.5934,-8.4773l5.3376 -1.2559c5.1188,0.0565 7.5459,1.9968 7.8493,5.6516l0 2.1978z"/>
  <path class="fil11" d="M155.247 249.438l-0.5821 2.4341c-2.7763,-0.2892 -4.9001,-2.7799 -4.7625,-6.1383l2.0355 0.5821 4.9213 -0.5821c1.3547,1.5028 1.5946,3.4819 1.0054,4.8154l-2.2013 -1.2911 -0.4163 0.1799z"/>
  <path class="fil15" d="M149.186 242.375l0.6279 3.4537c0.2752,1.8203 3.1609,3.9228 5.0236,3.7676 1.6616,-0.0211 2.1519,-1.7145 2.1978,-2.8257l0 -0.9419 -1.2559 0.6279 -1.8838 -1.8838 -2.1978 -2.5118 -1.2559 0 -1.2559 0.314z"/>
  <path class="fil11" d="M150.128 245.201c2.7481,2.8469 5.9725,3.1927 7.5353,0.628 0.6209,-0.9843 1.2524,-3.5878 1.2559,-5.9655l0 -3.7677 -6.5934 0.314 -1.8838 0 -1.5699 0.6279 -1.5699 1.2559 0.942 2.1978c0.3951,1.2559 0.8184,3.6619 1.8838,4.7096z"/>
  <path class="fil1" d="M152.012 238.386c4.0746,1.45 7.5354,-0.5997 7.2214,-2.7693 0.6279,-5.3869 -7.8493,-6.9144 -10.989,-2.2683 -2.5612,1.7004 -2.4095,5.9125 -0.942,7.9234l0.942 0.8678c0.7267,0.4868 1.15,-1.1077 1.2559,-2.9245 0,-1.2559 1.1253,-1.6122 2.5117,-0.8291z"/>
  <path class="fil1" d="M158.919 236.583l0 2.8258c0.5645,-0.6138 1.2453,-2.2013 1.1501,-3.5101 -0.06,-0.8679 -0.4622,-1.5734 -1.4641,-2.7447l-0.9419 0.3881 0.9419 2.7517 0.314 0.2892z"/>
  <path class="fil11" d="M156.281 251.65c0.3105,0 0.561,0.3245 0.561,0.7232 0,0.3986 -0.2505,0.7232 -0.561,0.7232 -0.3069,0 -0.5573,-0.3246 -0.5573,-0.7232 0,-0.3987 0.2504,-0.7232 0.5573,-0.7232z"/>
  <path class="fil11" d="M156.545 254.426c0.3105,0 0.5609,0.3246 0.5609,0.7268 0,0.3986 -0.2504,0.7232 -0.5609,0.7232 -0.3069,0 -0.5574,-0.3246 -0.5574,-0.7232 0,-0.4022 0.2505,-0.7268 0.5574,-0.7268z"/>
  <path class="fil16" d="M148.652 267.49l-0.4869 0 0 -3.1362 -1.3476 0 0 3.1362 -0.4904 0 0 -3.5101 2.3249 0 0 3.5101zm1.9508 0c-0.0176,-0.06 -0.0317,-0.1164 -0.0423,-0.1764 -0.0106,-0.0564 -0.0177,-0.1129 -0.0212,-0.1693 -0.0741,0.1164 -0.1623,0.2117 -0.2716,0.2857 -0.1094,0.0741 -0.2329,0.1094 -0.3669,0.1094 -0.2187,0 -0.3916,-0.067 -0.5151,-0.2081 -0.127,-0.1376 -0.1869,-0.3246 -0.1869,-0.5574 0,-0.2505 0.0846,-0.4445 0.254,-0.5892 0.1693,-0.1411 0.4092,-0.2116 0.7161,-0.2116l0.3634 0 0 -0.2681c0,-0.1588 -0.0353,-0.2823 -0.1059,-0.374 -0.0705,-0.0882 -0.1728,-0.1305 -0.3034,-0.1305 -0.1164,0 -0.2116,0.0388 -0.2822,0.1199 -0.0705,0.0812 -0.1058,0.1799 -0.1058,0.2999l-0.4657 -0.0035 -0.007 -0.0141c-0.0106,-0.2011 0.0705,-0.3775 0.2398,-0.5363 0.1694,-0.1552 0.3881,-0.2328 0.6527,-0.2328 0.2575,0 0.4657,0.0741 0.6279,0.2258 0.1588,0.1517 0.2399,0.3704 0.2399,0.6491l0 1.2135c0,0.0988 0.0035,0.1976 0.0177,0.2928 0.0105,0.0918 0.0317,0.1835 0.0564,0.2752l-0.4939 0zm-0.5891 -0.3245l0 0c0.1129,0 0.2187,-0.0353 0.3104,-0.1023 0.0953,-0.0671 0.1623,-0.1517 0.2082,-0.254l0 -0.5327 -0.3705 0c-0.1517,0 -0.2681,0.0493 -0.3492,0.1446 -0.0847,0.0952 -0.1235,0.2117 -0.1235,0.3492 0,0.12 0.0282,0.2117 0.0812,0.2858 0.0564,0.0706 0.1375,0.1094 0.2434,0.1094zm1.5734 -2.286l0.4868 0 0 2.2401 0.8714 0 0 -2.2401 0.4903 0 0 2.2401 0.2999 0 -0.0388 1.143 -0.4516 0 0 -0.7726 -1.658 0 0 -2.6105zm3.9087 0l0.4869 0 0 2.6105 -0.4869 0 0 -1.7709 -0.0141 0 -0.8572 1.7709 -0.4904 0 0 -2.6105 0.4904 0 0 1.7674 0.0141 0.0035 0.8572 -1.7709zm2.0003 2.6599c-0.3105,0 -0.5574,-0.1058 -0.7444,-0.321 -0.1869,-0.2152 -0.2787,-0.4939 -0.2787,-0.8291l0 -0.381c0,-0.3386 0.0882,-0.6208 0.2717,-0.8431 0.1834,-0.2222 0.4163,-0.3316 0.6949,-0.3316 0.2964,0 0.5257,0.0988 0.6844,0.2999 0.1588,0.2046 0.2364,0.4762 0.2364,0.8149l0 0.3386 -1.4005 0 0 0.1023c0,0.2258 0.0494,0.4128 0.1481,0.5574 0.0988,0.1482 0.2364,0.2223 0.4198,0.2223 0.1341,0 0.2505,-0.0212 0.3458,-0.0635 0.0987,-0.0423 0.1905,-0.1058 0.2751,-0.187l0.1553 0.3034c-0.0812,0.0953 -0.1905,0.1693 -0.3317,0.2293 -0.1375,0.06 -0.2963,0.0882 -0.4762,0.0882zm-0.0565 -2.3319l0 0c-0.1411,0 -0.254,0.0706 -0.3386,0.2082 -0.0847,0.1376 -0.1341,0.3104 -0.1411,0.5221l0.9172 0 0 -0.0988c0,-0.187 -0.0353,-0.3387 -0.1094,-0.4551 -0.0741,-0.1164 -0.1834,-0.1764 -0.3281,-0.1764zm3.2103 2.2825l-0.4903 0 0 -1.1148 -0.8679 0 0 1.1148 -0.4868 0 0 -2.6105 0.4868 0 0 1.1253 0.8679 0 0 -1.1253 0.4903 0 0 2.6105zm2.3107 -2.2366l-0.7232 0 0 2.2366 -0.4939 0 0 -2.2366 -0.7055 0 0 -0.3739 1.9226 0 0 0.3739z"/>
  <path class="fil16" d="M141.127 217.466c0,0.4163 -0.1058,0.7409 -0.321,0.9737 -0.2152,0.2293 -0.5045,0.3457 -0.8679,0.3457 -0.3563,0 -0.6385,-0.1164 -0.8502,-0.3457 -0.2116,-0.2328 -0.3139,-0.5574 -0.3139,-0.9737l0 -0.9666c0,-0.4127 0.1058,-0.7373 0.3139,-0.9737 0.2117,-0.2328 0.4975,-0.3527 0.8502,-0.3527 0.3599,0 0.6492,0.1199 0.8643,0.3527 0.2188,0.2364 0.3246,0.561 0.3246,0.9737l0 0.9666zm-0.4868 -0.9736l0 0c0,-0.3034 -0.06,-0.5363 -0.1835,-0.695 -0.1199,-0.1588 -0.2928,-0.2364 -0.5186,-0.2364 -0.2187,0 -0.388,0.0776 -0.5044,0.2364 -0.1165,0.1587 -0.1764,0.3916 -0.1764,0.695l0 0.9736c0,0.3069 0.0599,0.5398 0.1764,0.7021 0.1199,0.1587 0.2857,0.2363 0.5044,0.2363 0.2258,0 0.3987,-0.0776 0.5221,-0.2363 0.12,-0.1588 0.18,-0.3916 0.18,-0.7021l0 -0.9736zm2.8468 2.2436l-0.4903 0 0 -2.2295 -0.8713 0 0 2.2295 -0.4869 0 0 -2.6105 1.8485 0 0 2.6105zm2.4306 -2.6105l0 2.6105 -0.4903 0 0 -2.2295 -0.6491 0 0 0.7514c0,0.5115 -0.0635,0.8855 -0.187,1.1218 -0.12,0.2364 -0.3316,0.3563 -0.6315,0.3563l-0.1023 0 0 -0.3916 0.0741 0c0.1376,0 0.2328,-0.0811 0.2822,-0.2363 0.0494,-0.1552 0.0741,-0.4375 0.0741,-0.8502l0 -1.1324 1.6298 0zm1.898 2.6105c-0.0177,-0.0599 -0.0318,-0.1164 -0.0424,-0.1764 -0.0105,-0.0564 -0.0176,-0.1129 -0.0211,-0.1693 -0.0741,0.1164 -0.1658,0.2117 -0.2752,0.2858 -0.1094,0.074 -0.2293,0.1093 -0.3634,0.1093 -0.2187,0 -0.3915,-0.067 -0.515,-0.2081 -0.127,-0.1376 -0.187,-0.3246 -0.187,-0.5574 0,-0.2505 0.0847,-0.4445 0.254,-0.5892 0.1693,-0.1411 0.4057,-0.2116 0.7126,-0.2116l0.3669 0 0 -0.2681c0,-0.1588 -0.0353,-0.2823 -0.1058,-0.374 -0.0741,-0.0882 -0.1729,-0.1305 -0.3034,-0.1305 -0.1164,0 -0.2117,0.0388 -0.2822,0.1199 -0.0741,0.0812 -0.1094,0.18 -0.1094,0.2999l-0.4657 -0.0035 -0.007 -0.0141c-0.0071,-0.2011 0.0741,-0.3775 0.2434,-0.5363 0.1693,-0.1552 0.3845,-0.2328 0.6526,-0.2328 0.2576,0 0.4657,0.0741 0.6245,0.2258 0.1622,0.1517 0.2398,0.3704 0.2398,0.6491l0 1.2136c0,0.0987 0.0071,0.1975 0.0177,0.2928 0.0141,0.0917 0.0317,0.1834 0.06,0.2751l-0.4939 0zm-0.5892 -0.3245l0 0c0.1129,0 0.2152,-0.0353 0.3105,-0.1023 0.0952,-0.0671 0.1623,-0.1517 0.2081,-0.254l0 -0.5327 -0.3739 0c-0.1482,0 -0.2646,0.0494 -0.3458,0.1446 -0.0846,0.0953 -0.127,0.2117 -0.127,0.3493 0,0.1199 0.0283,0.2116 0.0847,0.2857 0.0565,0.0706 0.1376,0.1094 0.2434,0.1094zm3.302 -1.9121l-0.7232 0 0 2.2366 -0.4903 0 0 -2.2366 -0.7091 0 0 -0.3739 1.9226 0 0 0.3739zm1.7075 2.2366c-0.0177,-0.0599 -0.0318,-0.1164 -0.0424,-0.1764 -0.0105,-0.0564 -0.0176,-0.1129 -0.0211,-0.1693 -0.0741,0.1164 -0.1658,0.2117 -0.2752,0.2858 -0.1094,0.074 -0.2293,0.1093 -0.3634,0.1093 -0.2187,0 -0.3915,-0.067 -0.515,-0.2081 -0.127,-0.1376 -0.187,-0.3246 -0.187,-0.5574 0,-0.2505 0.0847,-0.4445 0.254,-0.5892 0.1694,-0.1411 0.4057,-0.2116 0.7126,-0.2116l0.3669 0 0 -0.2681c0,-0.1588 -0.0353,-0.2823 -0.1058,-0.374 -0.0741,-0.0882 -0.1729,-0.1305 -0.3034,-0.1305 -0.1164,0 -0.2117,0.0388 -0.2822,0.1199 -0.0741,0.0812 -0.1094,0.18 -0.1094,0.2999l-0.4657 -0.0035 -0.007 -0.0141c-0.0071,-0.2011 0.0741,-0.3775 0.2434,-0.5363 0.1693,-0.1552 0.3845,-0.2328 0.6526,-0.2328 0.2576,0 0.4657,0.0741 0.6245,0.2258 0.1622,0.1517 0.2399,0.3704 0.2399,0.6491l0 1.2136c0,0.0987 0.007,0.1975 0.0176,0.2928 0.0141,0.0917 0.0317,0.1834 0.06,0.2751l-0.4939 0zm-0.5892 -0.3245l0 0c0.1129,0 0.2152,-0.0353 0.3105,-0.1023 0.0952,-0.0671 0.1623,-0.1517 0.2081,-0.254l0 -0.5327 -0.3739 0c-0.1482,0 -0.2646,0.0494 -0.3457,0.1446 -0.0847,0.0953 -0.127,0.2117 -0.127,0.3493 0,0.1199 0.0282,0.2116 0.0846,0.2857 0.0565,0.0706 0.1376,0.1094 0.2434,0.1094zm4.5015 -2.286l0 2.6105 -0.4904 0 0 -2.2295 -0.6491 0 0 0.7514c0,0.5115 -0.0635,0.8855 -0.187,1.1218 -0.1234,0.2364 -0.3316,0.3563 -0.6314,0.3563l-0.1059 0 0 -0.3916 0.0776 0c0.1376,0 0.2329,-0.0811 0.2823,-0.2363 0.0494,-0.1552 0.074,-0.4375 0.074,-0.8502l0 -1.1324 1.6299 0zm1.5134 2.6599c-0.3104,0 -0.5609,-0.1058 -0.7479,-0.321 -0.187,-0.2152 -0.2787,-0.4939 -0.2787,-0.829l0 -0.381c0,-0.3387 0.0917,-0.6209 0.2752,-0.8432 0.1799,-0.2222 0.4127,-0.3316 0.695,-0.3316 0.2963,0 0.5221,0.0988 0.6808,0.2999 0.1588,0.2046 0.2399,0.4762 0.2399,0.8149l0 0.3387 -1.4041 0 0 0.1023c0,0.2257 0.0494,0.4127 0.1482,0.5573 0.0988,0.1482 0.2399,0.2223 0.4198,0.2223 0.1376,0 0.2505,-0.0212 0.3493,-0.0635 0.0952,-0.0423 0.1869,-0.1058 0.2751,-0.187l0.1553 0.3034c-0.0847,0.0953 -0.1941,0.1693 -0.3317,0.2293 -0.1375,0.06 -0.2963,0.0882 -0.4762,0.0882zm-0.0564 -2.3318l0 0c-0.1412,0 -0.254,0.0705 -0.3422,0.2081 -0.0847,0.1376 -0.1306,0.3104 -0.1412,0.5221l0.9208 0 0 -0.0988c0,-0.1869 -0.0388,-0.3386 -0.1129,-0.4551 -0.0741,-0.1164 -0.1834,-0.1763 -0.3245,-0.1763zm3.115 2.2824l-0.4869 0 0 -0.9489c-0.067,0.0211 -0.1375,0.0388 -0.2046,0.0493 -0.067,0.0106 -0.134,0.0142 -0.1975,0.0142 -0.3034,0 -0.5362,-0.0777 -0.695,-0.2399 -0.1623,-0.1588 -0.2434,-0.4057 -0.2434,-0.7479l0 -0.7373 0.4868 0 0 0.7373c0,0.2258 0.0353,0.3845 0.1059,0.4762 0.074,0.0953 0.1869,0.1411 0.3457,0.1411 0.067,0 0.134,-0.007 0.2011,-0.0176 0.067,-0.0141 0.134,-0.0318 0.201,-0.0529l0 -1.2841 0.4869 0 0 2.6105zm1.5134 0.0494c-0.3104,0 -0.5574,-0.1058 -0.7444,-0.321 -0.1869,-0.2152 -0.2787,-0.4939 -0.2787,-0.829l0 -0.381c0,-0.3387 0.0918,-0.6209 0.2717,-0.8432 0.1834,-0.2222 0.4163,-0.3316 0.6985,-0.3316 0.2928,0 0.5221,0.0988 0.6808,0.2999 0.1588,0.2046 0.2399,0.4762 0.2399,0.8149l0 0.3387 -1.404 0 0 0.1023c0,0.2257 0.0494,0.4127 0.1481,0.5573 0.0988,0.1482 0.2399,0.2223 0.4198,0.2223 0.1341,0 0.2505,-0.0212 0.3493,-0.0635 0.0952,-0.0423 0.187,-0.1058 0.2716,-0.187l0.1553 0.3034c-0.0812,0.0953 -0.1905,0.1693 -0.3281,0.2293 -0.1411,0.06 -0.2999,0.0882 -0.4798,0.0882zm-0.0529 -2.3318l0 0c-0.1447,0 -0.2575,0.0705 -0.3422,0.2081 -0.0847,0.1376 -0.1305,0.3104 -0.1411,0.5221l0.9172 0 0 -0.0988c0,-0.1869 -0.0353,-0.3386 -0.1094,-0.4551 -0.074,-0.1164 -0.1834,-0.1763 -0.3245,-0.1763zm3.2067 2.2824l-0.4868 0 0 -1.1148 -0.8714 0 0 1.1148 -0.4868 0 0 -2.6105 0.4868 0 0 1.1253 0.8714 0 0 -1.1253 0.4868 0 0 2.6105zm1.9438 -2.6105l0.4869 0 0 2.6105 -0.4869 0 0 -1.7709 -0.0141 0 -0.8608 1.7709 -0.4903 0 0 -2.6105 0.4903 0 0 1.7674 0.0142 0.0035 0.8607 -1.7709zm2.8152 0l0 2.6105 -0.4868 0 0 -0.9948 -0.4375 0 -0.5009 0.9948 -0.5045 0 0.5398 -1.0759c-0.1447,-0.0635 -0.254,-0.1553 -0.3317,-0.2823 -0.0776,-0.127 -0.1199,-0.2716 -0.1199,-0.4374 0,-0.2399 0.0811,-0.4339 0.2434,-0.5856 0.1588,-0.1517 0.374,-0.2293 0.6491,-0.2293l0.949 0zm-1.3511 0.8219l0 0c0,0.12 0.0317,0.2258 0.0987,0.3105 0.0635,0.0882 0.1553,0.1305 0.2787,0.1305l0.4869 0 0 -0.889 -0.4622 0c-0.1305,0 -0.2293,0.0423 -0.2998,0.1305 -0.0671,0.0882 -0.1023,0.1941 -0.1023,0.3175z"/>
  <path class="fil16" d="M145.685 184.883l-0.3351 0 0 1.5734 -0.4904 0 0 -3.5102 0.4904 0 0 1.5417 0.2892 0 0.9278 -1.5417 0.5856 0 -1.1041 1.6651 1.1888 1.8451 -0.5997 0 -0.9525 -1.5734zm1.7462 0.1058c0,-0.3457 0.0882,-0.6315 0.2682,-0.8537 0.1834,-0.2258 0.4303,-0.3352 0.7443,-0.3352 0.314,0 0.5609,0.1094 0.7444,0.3317 0.1799,0.2222 0.2716,0.508 0.2716,0.8572l0 0.3316c0,0.3493 -0.0917,0.635 -0.2716,0.8537 -0.1799,0.2223 -0.4269,0.3316 -0.7409,0.3316 -0.3175,0 -0.5644,-0.1093 -0.7478,-0.3316 -0.18,-0.2187 -0.2682,-0.5044 -0.2682,-0.8537l0 -0.3316zm0.4869 0.3316l0 0c0,0.2364 0.0458,0.4339 0.1305,0.5856 0.0882,0.1517 0.2187,0.2293 0.3986,0.2293 0.1729,0 0.3034,-0.0776 0.3916,-0.2293 0.0882,-0.1517 0.1306,-0.3492 0.1306,-0.5856l0 -0.3316c0,-0.2364 -0.0424,-0.4304 -0.1306,-0.5821 -0.0882,-0.1552 -0.2187,-0.2328 -0.3951,-0.2328 -0.1764,0 -0.3069,0.0776 -0.3951,0.2293 -0.0847,0.1517 -0.1305,0.3492 -0.1305,0.5856l0 0.3316zm3.302 0.5362l0.0141 0 0.6526 -2.0108 0.6139 0 0 2.6106 -0.4904 0 0 -1.704 -0.0141 0 -0.6033 1.704 -0.3316 0 -0.6032 -1.7216 -0.0141 0.0035 0 1.7181 -0.4869 0 0 -2.6106 0.6139 0 0.6491 2.0108zm3.7394 0.5998l-0.4903 0 0 -2.2296 -0.8714 0 0 2.2296 -0.4904 0 0 -2.6106 1.8521 0 0 2.6106zm1.898 0c-0.0177,-0.06 -0.0318,-0.1165 -0.0459,-0.1764 -0.0106,-0.0565 -0.0176,-0.1129 -0.0212,-0.1694 -0.0705,0.1165 -0.1622,0.2117 -0.2716,0.2858 -0.1094,0.0741 -0.2293,0.1093 -0.3634,0.1093 -0.2222,0 -0.3951,-0.067 -0.5185,-0.2081 -0.1235,-0.1376 -0.187,-0.3245 -0.187,-0.5574 0,-0.2505 0.0846,-0.4445 0.254,-0.5891 0.1693,-0.1411 0.4092,-0.2117 0.7161,-0.2117l0.3634 0 0 -0.2681c0,-0.1587 -0.0353,-0.2822 -0.1059,-0.3739 -0.0705,-0.0882 -0.1693,-0.1306 -0.2998,-0.1306 -0.12,0 -0.2117,0.0388 -0.2858,0.12 -0.0705,0.0811 -0.1058,0.1799 -0.1058,0.2998l-0.4657 -0.0035 -0.007 -0.0141c-0.0071,-0.2011 0.0705,-0.3775 0.2399,-0.5362 0.1693,-0.1552 0.388,-0.2329 0.6561,-0.2329 0.254,0 0.4657,0.0741 0.6245,0.2258 0.1587,0.1517 0.2398,0.3704 0.2398,0.6491l0 1.2136c0,0.0988 0.0071,0.1975 0.0177,0.2928 0.0141,0.0917 0.0317,0.1834 0.06,0.2752l-0.4939 0zm-0.5927 -0.3246l0 0c0.1164,0 0.2187,-0.0353 0.314,-0.1023 0.0917,-0.067 0.1622,-0.1517 0.2046,-0.254l0 -0.5327 -0.3704 0c-0.1482,0 -0.2646,0.0494 -0.3493,0.1446 -0.0811,0.0953 -0.1235,0.2117 -0.1235,0.3493 0,0.1199 0.0283,0.2117 0.0847,0.2857 0.0565,0.0706 0.1376,0.1094 0.2399,0.1094zm3.4219 0.3246l-0.4903 0 0 -1.1148 -0.8679 0 0 1.1148 -0.4903 0 0 -2.6106 0.4903 0 0 1.1254 0.8679 0 0 -1.1254 0.4903 0 0 2.6106zm1.9403 -2.6106l0.4869 0 0 2.6106 -0.4869 0 0 -1.771 -0.0141 0 -0.8608 1.771 -0.4868 0 0 -2.6106 0.4868 0 0 1.7674 0.0141 0.0035 0.8608 -1.7709zm2.8152 0l0 2.6106 -0.4868 0 0 -0.9949 -0.4375 0 -0.5009 0.9949 -0.5045 0 0.5433 -1.076c-0.1447,-0.0635 -0.2576,-0.1552 -0.3352,-0.2822 -0.0776,-0.127 -0.1164,-0.2717 -0.1164,-0.4375 0,-0.2399 0.0776,-0.4339 0.2399,-0.5856 0.1588,-0.1517 0.3775,-0.2293 0.6526,-0.2293l0.9455 0zm-1.3512 0.822l0 0c0,0.1199 0.0353,0.2258 0.0988,0.3104 0.0635,0.0882 0.1552,0.1306 0.2787,0.1306l0.4869 0 0 -0.889 -0.4587 0c-0.134,0 -0.2328,0.0423 -0.2998,0.1305 -0.0706,0.0882 -0.1059,0.194 -0.1059,0.3175zm-23.6995 6.0219l-0.4903 0 0 -2.2296 -0.8714 0 0 2.2296 -0.4868 0 0 -2.607 1.8485 0 0 2.607zm0.4728 -1.4676c0,-0.3457 0.0917,-0.6314 0.2716,-0.8537 0.1799,-0.2222 0.4269,-0.3351 0.7444,-0.3351 0.3139,0 0.5609,0.1093 0.7408,0.3351 0.1834,0.2223 0.2716,0.5045 0.2716,0.8537l0 0.3317c0,0.3492 -0.0882,0.6349 -0.2681,0.8572 -0.1834,0.2187 -0.4304,0.3281 -0.7443,0.3281 -0.314,0 -0.5645,-0.1094 -0.7444,-0.3281 -0.1799,-0.2223 -0.2716,-0.508 -0.2716,-0.8572l0 -0.3317zm0.4903 0.3317l0 0c0,0.2398 0.0423,0.4339 0.1305,0.5856 0.0847,0.1552 0.2188,0.2293 0.3952,0.2293 0.1763,0 0.3069,-0.0741 0.3915,-0.2293 0.0882,-0.1517 0.1341,-0.3458 0.1341,-0.5856l0 -0.3317c0,-0.2363 -0.0459,-0.4304 -0.1341,-0.582 -0.0846,-0.1553 -0.2187,-0.2329 -0.3915,-0.2329 -0.1764,0 -0.3105,0.0776 -0.3952,0.2293 -0.0882,0.1552 -0.1305,0.3493 -0.1305,0.5856l0 0.3317zm3.9863 0.8149c0.1235,0 0.2258,-0.0459 0.3105,-0.1411 0.0846,-0.0918 0.1234,-0.2188 0.1234,-0.3775l0.441 0 0.0035 0.0141c0.0071,0.2469 -0.0776,0.4551 -0.2504,0.6244 -0.1729,0.1693 -0.381,0.2505 -0.628,0.2505 -0.3245,0 -0.5715,-0.1094 -0.7444,-0.3281 -0.1728,-0.2223 -0.261,-0.5009 -0.261,-0.8431l0 -0.3599c0,-0.3386 0.0882,-0.6209 0.261,-0.8431 0.1729,-0.2223 0.4199,-0.3316 0.7444,-0.3316 0.2611,0 0.4763,0.0882 0.6421,0.2646 0.1658,0.1764 0.2434,0.4021 0.2399,0.6808l-0.0071 0.0177 -0.441 0c0,-0.1764 -0.0388,-0.3175 -0.1164,-0.4234 -0.0811,-0.1093 -0.187,-0.1658 -0.3175,-0.1658 -0.187,0 -0.321,0.0776 -0.3986,0.2293 -0.0776,0.1517 -0.1164,0.3422 -0.1164,0.5715l0 0.3599c0,0.2363 0.0388,0.4268 0.1164,0.5785 0.0776,0.1482 0.2116,0.2223 0.3986,0.2223zm2.3142 -2.1273c0.2964,0 0.5292,0.1094 0.6985,0.3316 0.1694,0.2187 0.2576,0.5045 0.2576,0.8538l0 0.0635c0,0.3704 -0.0918,0.6702 -0.2717,0.9031 -0.1834,0.2328 -0.4304,0.3457 -0.7443,0.3457 -0.314,0 -0.5645,-0.1129 -0.7444,-0.3457 -0.1799,-0.2329 -0.2681,-0.5327 -0.2681,-0.9031l0 -0.3564c0,-0.5256 0.0917,-0.9454 0.2787,-1.2558 0.1834,-0.307 0.4268,-0.4939 0.7302,-0.5574 0.1517,-0.0388 0.2646,-0.0812 0.3387,-0.1341 0.0706,-0.0529 0.1058,-0.134 0.1058,-0.2434l0.3775 0 0.0035 0.0141c0.0071,0.2646 -0.0529,0.4445 -0.1799,0.5398 -0.127,0.0917 -0.3245,0.1622 -0.5962,0.2116 -0.1693,0.0282 -0.3069,0.1094 -0.4163,0.2434 -0.1128,0.1341 -0.1834,0.3175 -0.2152,0.5574l0.0071 0.0106c0.0811,-0.0811 0.1764,-0.1517 0.2858,-0.2011 0.1128,-0.0529 0.2293,-0.0776 0.3527,-0.0776zm-0.0635 0.3704l0 0c-0.1728,0 -0.3069,0.0776 -0.3916,0.2329 -0.0881,0.1517 -0.1305,0.3457 -0.1305,0.5821l0 0.0635c0,0.2575 0.0424,0.4656 0.1305,0.6314 0.0847,0.1658 0.2188,0.247 0.3952,0.247 0.1763,0 0.3069,-0.0812 0.3951,-0.247 0.0846,-0.1658 0.1305,-0.3739 0.1305,-0.6314l0 -0.0635c0,-0.2364 -0.0459,-0.4304 -0.1305,-0.5857 -0.0882,-0.1517 -0.2223,-0.2293 -0.3987,-0.2293zm1.3547 0.6103c0,-0.3457 0.0882,-0.6314 0.2716,-0.8537 0.18,-0.2222 0.4269,-0.3351 0.7409,-0.3351 0.3139,0 0.5644,0.1093 0.7443,0.3351 0.1835,0.2223 0.2717,0.5045 0.2717,0.8537l0 0.3317c0,0.3492 -0.0882,0.6349 -0.2717,0.8572 -0.1799,0.2187 -0.4268,0.3281 -0.7408,0.3281 -0.3175,0 -0.5644,-0.1094 -0.7444,-0.3281 -0.1834,-0.2223 -0.2716,-0.508 -0.2716,-0.8572l0 -0.3317zm0.4868 0.3317l0 0c0,0.2398 0.0459,0.4339 0.1306,0.5856 0.0882,0.1552 0.2222,0.2293 0.3986,0.2293 0.1729,0 0.3034,-0.0741 0.3916,-0.2293 0.0882,-0.1517 0.134,-0.3458 0.134,-0.5856l0 -0.3317c0,-0.2363 -0.0458,-0.4304 -0.134,-0.582 -0.0882,-0.1553 -0.2187,-0.2329 -0.3951,-0.2329 -0.1764,0 -0.3069,0.0776 -0.3951,0.2293 -0.0847,0.1552 -0.1306,0.3493 -0.1306,0.5856l0 0.3317zm3.937 0.0493c0,0.3422 -0.0741,0.6209 -0.2257,0.8255 -0.1517,0.2082 -0.3599,0.3105 -0.6315,0.3105 -0.127,0 -0.2364,-0.0247 -0.3352,-0.0741 -0.0952,-0.0494 -0.1763,-0.1235 -0.2469,-0.2187l0 1.2488 -0.4904 0 0 -3.6124 0.4375 0 0.0317 0.2963c0.0671,-0.1094 0.1517,-0.194 0.254,-0.2575 0.0988,-0.06 0.2152,-0.0882 0.3458,-0.0882 0.2716,0 0.4833,0.1129 0.635,0.3422 0.1516,0.2293 0.2257,0.5291 0.2257,0.9066l0 0.321zm-0.4903 -0.321l0 0c0,-0.2575 -0.0424,-0.4657 -0.127,-0.6244 -0.0812,-0.1623 -0.2082,-0.2434 -0.3775,-0.2434 -0.1023,0 -0.1905,0.0282 -0.2646,0.0882 -0.0741,0.0599 -0.134,0.1411 -0.1799,0.2434l0 1.3194c0.0423,0.0988 0.1023,0.1728 0.1764,0.2258 0.0741,0.0529 0.1658,0.0776 0.2716,0.0776 0.1694,0 0.2964,-0.0706 0.3775,-0.2117 0.0847,-0.1376 0.1235,-0.3246 0.1235,-0.5539l0 -0.321zm1.6933 0.508l0.0388 0.1729 0.0141 0 0.501 -1.8803 0.5327 0 -0.9137 3.0127c-0.0635,0.1799 -0.1447,0.3316 -0.2505,0.4586 -0.1023,0.127 -0.254,0.1905 -0.448,0.1905 -0.0424,0 -0.0847,-0.0035 -0.1306,-0.0141 -0.0458,-0.0071 -0.0917,-0.0177 -0.1375,-0.0282l0.0529 -0.3634c0.0176,0.0035 0.0423,0.0071 0.0741,0.0106 0.0317,0.0035 0.0529,0.0035 0.0705,0.0035 0.0953,0 0.1729,-0.0388 0.2258,-0.1199 0.0564,-0.0812 0.0988,-0.1799 0.1305,-0.2893l0.0882 -0.2646 -0.8079 -2.5964 0.5327 0 0.4269 1.7074zm3.4008 0.5786c0.1235,0 0.2258,-0.0459 0.3104,-0.1411 0.0812,-0.0918 0.1235,-0.2188 0.1235,-0.3775l0.441 0 0.0035 0.0141c0.0071,0.2469 -0.0776,0.4551 -0.2505,0.6244 -0.1728,0.1693 -0.381,0.2505 -0.6279,0.2505 -0.3246,0 -0.5715,-0.1094 -0.7444,-0.3281 -0.1728,-0.2223 -0.261,-0.5009 -0.261,-0.8431l0 -0.3599c0,-0.3386 0.0882,-0.6209 0.261,-0.8431 0.1729,-0.2223 0.4198,-0.3316 0.7409,-0.3316 0.2645,0 0.4797,0.0882 0.6455,0.2646 0.1623,0.1764 0.2435,0.4021 0.2399,0.6808l-0.007 0.0177 -0.441 0c0,-0.1764 -0.0388,-0.3175 -0.1199,-0.4234 -0.0777,-0.1093 -0.1835,-0.1658 -0.3175,-0.1658 -0.1835,0 -0.3175,0.0776 -0.3952,0.2293 -0.0776,0.1517 -0.1164,0.3422 -0.1164,0.5715l0 0.3599c0,0.2363 0.0388,0.4268 0.1164,0.5785 0.0777,0.1482 0.2117,0.2223 0.3987,0.2223zm3.2455 -0.7656c0,0.3422 -0.0776,0.6209 -0.2293,0.8255 -0.1481,0.2082 -0.3598,0.3105 -0.6279,0.3105 -0.127,0 -0.2399,-0.0247 -0.3352,-0.0741 -0.0952,-0.0494 -0.1799,-0.1235 -0.2469,-0.2187l0 1.2488 -0.4904 0 0 -3.6124 0.434 0 0.0317 0.2963c0.0706,-0.1094 0.1552,-0.194 0.254,-0.2575 0.0988,-0.06 0.2152,-0.0882 0.3493,-0.0882 0.2716,0 0.4833,0.1129 0.6314,0.3422 0.1517,0.2293 0.2293,0.5291 0.2293,0.9066l0 0.321zm-0.4903 -0.321l0 0c0,-0.2575 -0.0424,-0.4657 -0.127,-0.6244 -0.0847,-0.1623 -0.2117,-0.2434 -0.3775,-0.2434 -0.1058,0 -0.194,0.0282 -0.2681,0.0882 -0.0741,0.0599 -0.1341,0.1411 -0.1764,0.2434l0 1.3194c0.0423,0.0988 0.0988,0.1728 0.1729,0.2258 0.074,0.0529 0.1658,0.0776 0.2751,0.0776 0.1694,0 0.2928,-0.0706 0.3775,-0.2117 0.0811,-0.1376 0.1235,-0.3246 0.1235,-0.5539l0 -0.321zm1.9014 1.457c-0.3104,0 -0.5573,-0.1059 -0.7443,-0.321 -0.187,-0.2152 -0.2787,-0.4904 -0.2787,-0.8291l0 -0.381c0,-0.3386 0.0917,-0.6209 0.2716,-0.8431 0.1835,-0.2223 0.4163,-0.3316 0.6985,-0.3316 0.2928,0 0.5221,0.0988 0.6809,0.3034 0.1587,0.201 0.2399,0.4727 0.2399,0.8114l0 0.3386 -1.4041 0 0 0.1023c0,0.2258 0.0494,0.4128 0.1482,0.5609 0.0988,0.1447 0.2399,0.2188 0.4198,0.2188 0.1341,0 0.2505,-0.0212 0.3492,-0.0635 0.0953,-0.0424 0.187,-0.1059 0.2717,-0.187l0.1552 0.3034c-0.0811,0.0952 -0.1905,0.1693 -0.3281,0.2293 -0.1411,0.06 -0.2998,0.0882 -0.4798,0.0882zm-0.0529 -2.3319l0 0c-0.1446,0 -0.2575,0.0706 -0.3422,0.2082 -0.0846,0.1375 -0.1305,0.3104 -0.1411,0.5221l0.9172 0 0 -0.0988c0,-0.187 -0.0352,-0.3351 -0.1093,-0.4551 -0.0741,-0.1164 -0.1835,-0.1764 -0.3246,-0.1764zm1.3547 1.9121c0.1235,-0.1447 0.2117,-0.3034 0.2681,-0.4869 0.0565,-0.1799 0.0882,-0.4515 0.1023,-0.8149l0.0212 -0.9348 1.5275 0 0 2.2366 0.2999 0 -0.0388 1.143 -0.4481 0 0 -0.7726 -1.4181 0 0 0.7726 -0.4516 0 -0.0423 -1.143 0.1799 0zm0.8572 -1.3018l0 0c-0.0141,0.2999 -0.0493,0.5574 -0.1128,0.7691 -0.06,0.2152 -0.1412,0.3916 -0.2399,0.5327l0.9278 0 0 -1.8345 -0.5645 0 -0.0106 0.5327zm2.667 1.3512c0.1235,0 0.2258,-0.0459 0.3105,-0.1411 0.0811,-0.0918 0.1235,-0.2188 0.1235,-0.3775l0.4409 0 0.0036 0.0141c0.007,0.2469 -0.0776,0.4551 -0.2505,0.6244 -0.1729,0.1693 -0.381,0.2505 -0.628,0.2505 -0.3245,0 -0.5715,-0.1094 -0.7443,-0.3281 -0.1729,-0.2223 -0.2611,-0.5009 -0.2611,-0.8431l0 -0.3599c0,-0.3386 0.0882,-0.6209 0.2611,-0.8431 0.1728,-0.2223 0.4198,-0.3316 0.7408,-0.3316 0.2646,0 0.4798,0.0882 0.6456,0.2646 0.1623,0.1764 0.2434,0.4021 0.2399,0.6808l-0.0071 0.0177 -0.4409 0c0,-0.1764 -0.0388,-0.3175 -0.12,-0.4234 -0.0776,-0.1093 -0.1834,-0.1658 -0.3175,-0.1658 -0.1834,0 -0.3175,0.0776 -0.3951,0.2293 -0.0776,0.1517 -0.1164,0.3422 -0.1164,0.5715l0 0.3599c0,0.2363 0.0388,0.4268 0.1164,0.5785 0.0776,0.1482 0.2117,0.2223 0.3986,0.2223zm3.0551 -1.9156l-0.7267 0 0 2.2366 -0.4904 0 0 -2.2366 -0.7091 0 0 -0.3704 1.9262 0 0 0.3704zm0.4092 2.2366l0 -2.607 0.8926 0c0.2892,0 0.515,0.0564 0.6773,0.1764 0.1623,0.1199 0.2434,0.2998 0.2434,0.5362 0,0.1235 -0.0353,0.2363 -0.1058,0.3351 -0.0706,0.0988 -0.1694,0.1693 -0.2964,0.2187 0.1588,0.0388 0.2823,0.1094 0.3705,0.2223 0.0846,0.1093 0.127,0.2363 0.127,0.3845 0,0.2399 -0.0777,0.4233 -0.2294,0.5504 -0.1516,0.1234 -0.3668,0.1834 -0.6491,0.1834l-1.0301 0zm0.4869 -1.1465l0 0 0 0.7796 0.5432 0c0.1306,0 0.2258,-0.0317 0.2928,-0.0988 0.0671,-0.067 0.0988,-0.1658 0.0988,-0.2928 0,-0.1235 -0.0317,-0.2187 -0.0988,-0.2857 -0.0635,-0.0706 -0.1622,-0.1023 -0.2928,-0.1023l-0.5432 0zm0 -0.3458l0 0 0.4374 0c0.1305,0 0.2328,-0.0317 0.2999,-0.0952 0.067,-0.0635 0.1023,-0.1517 0.1023,-0.2716 0,-0.127 -0.0388,-0.2223 -0.1094,-0.2858 -0.0741,-0.06 -0.1799,-0.0917 -0.3245,-0.0917l-0.4057 0 0 0.7443z"/>
  <path class="fil16" d="M232.408 187.568c0,0.4163 -0.1059,0.7408 -0.3211,0.9737 -0.2152,0.2293 -0.5044,0.3457 -0.8678,0.3457 -0.3563,0 -0.6385,-0.1164 -0.8502,-0.3457 -0.2117,-0.2329 -0.314,-0.5574 -0.314,-0.9737l0 -0.9666c0,-0.4127 0.1059,-0.7373 0.314,-0.9737 0.2117,-0.2328 0.4974,-0.3527 0.8502,-0.3527 0.3598,0 0.6491,0.1199 0.8643,0.3527 0.2187,0.2364 0.3246,0.561 0.3246,0.9737l0 0.9666zm-0.4869 -0.9737l0 0c0,-0.3033 -0.06,-0.5362 -0.1834,-0.6949 -0.12,-0.1588 -0.2928,-0.2364 -0.5186,-0.2364 -0.2187,0 -0.3881,0.0776 -0.5045,0.2364 -0.1164,0.1587 -0.1764,0.3916 -0.1764,0.6949l0 0.9737c0,0.3069 0.06,0.5398 0.1764,0.702 0.12,0.1588 0.2858,0.2364 0.5045,0.2364 0.2258,0 0.3986,-0.0776 0.5221,-0.2364 0.1199,-0.1587 0.1799,-0.3915 0.1799,-0.702l0 -0.9737zm1.9897 -0.2081c0.2928,0 0.5292,0.1129 0.6985,0.3316 0.1693,0.2223 0.254,0.508 0.254,0.8573l0 0.0635c0,0.3704 -0.0882,0.6702 -0.2717,0.9031 -0.1799,0.2293 -0.4268,0.3457 -0.7408,0.3457 -0.3175,0 -0.5644,-0.1164 -0.7444,-0.3457 -0.1799,-0.2329 -0.2716,-0.5327 -0.2716,-0.9031l0 -0.3599c0,-0.5256 0.0953,-0.9419 0.2787,-1.2523 0.187,-0.3069 0.4304,-0.4939 0.7338,-0.5609 0.1517,-0.0353 0.2646,-0.0777 0.3351,-0.1306 0.0741,-0.0529 0.1094,-0.134 0.1094,-0.2434l0.3739 0 0.0071 0.0141c0.0035,0.2646 -0.0529,0.4445 -0.1799,0.5398 -0.127,0.0917 -0.3246,0.1623 -0.5962,0.2081 -0.1694,0.0318 -0.3069,0.1129 -0.4198,0.247 -0.1094,0.134 -0.1799,0.3175 -0.2117,0.5538l0.0071 0.0141c0.0811,-0.0846 0.1728,-0.1517 0.2857,-0.2046 0.1094,-0.0494 0.2293,-0.0776 0.3528,-0.0776zm-0.0635 0.374l0 0c-0.1764,0 -0.3069,0.0776 -0.3951,0.2293 -0.0847,0.1552 -0.127,0.3492 -0.127,0.582l0 0.0671c0,0.254 0.0423,0.4656 0.127,0.6314 0.0882,0.1658 0.2187,0.247 0.3986,0.247 0.1729,0 0.3034,-0.0812 0.3916,-0.247 0.0882,-0.1658 0.134,-0.3774 0.134,-0.6314l0 -0.0671c0,-0.2328 -0.0458,-0.4268 -0.134,-0.582 -0.0882,-0.1553 -0.2187,-0.2293 -0.3951,-0.2293zm1.9297 -0.5327l0 2.2401 0.7055 0 0 -2.2401 0.4904 0 0 2.2401 0.702 0 0 -2.2401 0.4904 0 0 2.2401 0.381 0 -0.0388 1.143 -0.4516 0 0 -0.7726 -2.7658 0 0 -2.6105 0.4869 0zm4.5473 0l0.4868 0 0 2.6105 -0.4868 0 0 -1.7709 -0.0141 0 -0.8573 1.7709 -0.4903 0 0 -2.6105 0.4903 0 0 1.7674 0.0141 0.0035 0.8573 -1.7709zm2.4271 0l0.4868 0 0 2.6105 -0.4868 0 0 -1.7709 -0.0141 0 -0.8608 1.7709 -0.4868 0 0 -2.6105 0.4868 0 0 1.7674 0.0141 0.0035 0.8608 -1.7709zm0.2293 -1.076l0 0 0.0071 0.0141c0.007,0.1905 -0.053,0.3422 -0.1764,0.4621 -0.1235,0.12 -0.2893,0.18 -0.4975,0.18 -0.2116,0 -0.3774,-0.06 -0.5009,-0.18 -0.1235,-0.1199 -0.1799,-0.2716 -0.1729,-0.4621l0.0071 -0.0141 0.3634 0c0,0.1058 0.0247,0.1905 0.074,0.261 0.0494,0.0671 0.1235,0.0988 0.2293,0.0988 0.0988,0 0.1729,-0.0317 0.2223,-0.0988 0.0494,-0.0705 0.0741,-0.1552 0.0741,-0.261l0.3704 0zm1.8097 2.413c0,-0.4198 0.0706,-0.755 0.2117,-1.0054 0.1376,-0.254 0.3387,-0.3775 0.5997,-0.3775 0.0494,0 0.0988,0.0035 0.1482,0.0141 0.0459,0.0106 0.0917,0.0247 0.1341,0.0423l0 -1.1606 0.4938 0 0 1.1677c0.0424,-0.0212 0.0918,-0.0353 0.1412,-0.0494 0.0529,-0.0106 0.1058,-0.0141 0.1658,-0.0141 0.2575,0 0.4586,0.1235 0.5962,0.3775 0.1411,0.2504 0.2116,0.5856 0.2116,1.0054l0 0.0494c0,0.388 -0.0705,0.6985 -0.2116,0.9278 -0.1411,0.2328 -0.3387,0.3457 -0.5962,0.3457 -0.0565,0 -0.1129,-0.0035 -0.1658,-0.0141 -0.0494,-0.0106 -0.0988,-0.0247 -0.1412,-0.0459l0 1.0125 -0.4938 0 0 -1.0054c-0.0424,0.0176 -0.0882,0.0282 -0.1376,0.0388 -0.0459,0.0106 -0.0988,0.0141 -0.1517,0.0141 -0.254,0 -0.4516,-0.1164 -0.5927,-0.3457 -0.1411,-0.2329 -0.2117,-0.5398 -0.2117,-0.9278l0 -0.0494zm2.212 0l0 0c0,-0.2999 -0.0388,-0.5433 -0.1129,-0.7267 -0.0706,-0.187 -0.187,-0.2823 -0.3422,-0.2823 -0.0318,0 -0.0635,0.0036 -0.0917,0.0071 -0.0283,0.007 -0.053,0.0141 -0.0777,0.0212l0 1.9085c0.0212,0.0106 0.0494,0.0176 0.0777,0.0212 0.0282,0.0035 0.0599,0.0035 0.0987,0.0035 0.1553,0 0.2681,-0.0812 0.3387,-0.2434 0.0741,-0.1658 0.1094,-0.3846 0.1094,-0.6597l0 -0.0494zm-1.7216 0.0494l0 0c0,0.2787 0.0353,0.4974 0.1023,0.6597 0.0706,0.1622 0.1835,0.2434 0.3352,0.2434 0.0317,0 0.0599,0 0.0881,-0.0035 0.0283,-0.0036 0.0565,-0.0106 0.0777,-0.0177l0 -1.9156c-0.0212,-0.007 -0.0494,-0.0106 -0.0741,-0.0176 -0.0282,-0.0035 -0.0565,-0.0071 -0.0847,-0.0071 -0.1587,0 -0.2716,0.0918 -0.3387,0.2787 -0.0705,0.1835 -0.1058,0.4269 -0.1058,0.7303l0 0.0494zm2.5859 -0.2434c0,-0.3458 0.0882,-0.6315 0.2716,-0.8538 0.1799,-0.2257 0.4269,-0.3351 0.7408,-0.3351 0.314,0 0.5645,0.1094 0.7444,0.3316 0.1834,0.2223 0.2716,0.508 0.2716,0.8573l0 0.3316c0,0.3492 -0.0882,0.635 -0.2716,0.8537 -0.1799,0.2222 -0.4269,0.3316 -0.7408,0.3316 -0.3175,0 -0.5645,-0.1094 -0.7444,-0.3316 -0.1834,-0.2187 -0.2716,-0.5045 -0.2716,-0.8537l0 -0.3316zm0.4868 0.3316l0 0c0,0.2363 0.0459,0.4339 0.1305,0.5856 0.0882,0.1517 0.2223,0.2293 0.3987,0.2293 0.1728,0 0.3034,-0.0776 0.3916,-0.2293 0.0881,-0.1517 0.134,-0.3493 0.134,-0.5856l0 -0.3316c0,-0.2364 -0.0459,-0.4304 -0.134,-0.5821 -0.0882,-0.1553 -0.2188,-0.2329 -0.3952,-0.2329 -0.1763,0 -0.3069,0.0776 -0.3951,0.2293 -0.0846,0.1517 -0.1305,0.3493 -0.1305,0.5857l0 0.3316zm3.8629 1.1359l-0.4903 0 0 -1.1148 -0.8679 0 0 1.1148 -0.4903 0 0 -2.6105 0.4903 0 0 1.1253 0.8679 0 0 -1.1253 0.4903 0 0 2.6105zm0.5715 -0.3704c0.1235,-0.1446 0.2117,-0.3069 0.2681,-0.4868 0.0565,-0.18 0.0918,-0.4516 0.1023,-0.815l0.0212 -0.9383 1.5275 0 0 2.2401 0.3034 0 -0.0388 1.143 -0.4515 0 0 -0.7726 -1.4182 0 0 0.7726 -0.448 0 -0.0459 -1.143 0.1799 0zm0.8573 -1.3018l0 0c-0.0106,0.2999 -0.0494,0.5574 -0.1094,0.7691 -0.0635,0.2117 -0.1446,0.3916 -0.2434,0.5327l0.9278 0 0 -1.838 -0.5609 0 -0.0141 0.5362z"/>
  <path class="fil16" d="M31.9703 190.231l-0.4868 0 0 -3.1362 -1.3476 0 0 3.1362 -0.4904 0 0 -3.5102 2.3248 0 0 3.5102zm0.5256 -1.4676c0,-0.3457 0.0918,-0.6314 0.2717,-0.8537 0.1799,-0.2258 0.4304,-0.3351 0.7443,-0.3351 0.314,0 0.561,0.1093 0.7444,0.3316 0.1799,0.2222 0.2716,0.508 0.2716,0.8572l0 0.3316c0,0.3493 -0.0917,0.635 -0.2716,0.8538 -0.1799,0.2222 -0.4269,0.3316 -0.7408,0.3316 -0.3175,0 -0.568,-0.1094 -0.7479,-0.3316 -0.1799,-0.2188 -0.2717,-0.5045 -0.2717,-0.8538l0 -0.3316zm0.4904 0.3316l0 0c0,0.2364 0.0423,0.434 0.1305,0.5856 0.0882,0.1517 0.2187,0.2294 0.3987,0.2294 0.1728,0 0.3034,-0.0777 0.3915,-0.2294 0.0882,-0.1516 0.1306,-0.3492 0.1306,-0.5856l0 -0.3316c0,-0.2363 -0.0424,-0.4304 -0.1306,-0.5821 -0.0881,-0.1552 -0.2187,-0.2328 -0.3951,-0.2328 -0.1764,0 -0.3069,0.0776 -0.3951,0.2293 -0.0882,0.1517 -0.1305,0.3493 -0.1305,0.5856l0 0.3316zm3.87 -1.4746l0 2.6106 -0.4904 0 0 -2.2296 -0.6526 0 0 0.7514c0,0.5116 -0.06,0.8855 -0.1835,1.1219 -0.1234,0.2363 -0.3351,0.3563 -0.6314,0.3563l-0.1059 0 0 -0.3916 0.0741 0c0.1411,0 0.2364,-0.0811 0.2858,-0.2364 0.0493,-0.1552 0.0705,-0.4374 0.0705,-0.8502l0 -1.1324 1.6334 0zm1.0865 0.882l0.4869 0c0.2787,0 0.4974,0.0776 0.6561,0.2399 0.1553,0.1587 0.2364,0.3668 0.2364,0.6209 0,0.2539 -0.0811,0.4621 -0.2364,0.6244 -0.1587,0.1622 -0.3774,0.2434 -0.6561,0.2434l-0.9737 0 0 -2.6106 0.4868 0 0 0.882zm0 0.3739l0 0 0 0.9843 0.4869 0c0.1375,0 0.2363,-0.0459 0.3034,-0.1376 0.067,-0.0917 0.0987,-0.2082 0.0987,-0.3493 0,-0.1376 -0.0317,-0.254 -0.0987,-0.3527 -0.0671,-0.0953 -0.1659,-0.1447 -0.3034,-0.1447l-0.4869 0zm2.6423 -0.1517c0.127,0 0.2152,-0.0317 0.2717,-0.0988 0.0564,-0.0635 0.0846,-0.1587 0.0846,-0.2822 0,-0.1199 -0.0282,-0.2152 -0.0882,-0.2893 -0.0564,-0.0776 -0.1516,-0.1128 -0.2786,-0.1128 -0.1094,0 -0.2047,0.0352 -0.2787,0.1128 -0.0741,0.0777 -0.1129,0.1729 -0.1129,0.2929l-0.4692 0 -0.0036 -0.0142c-0.007,-0.2222 0.0706,-0.4057 0.2364,-0.5468 0.1658,-0.1376 0.3704,-0.2081 0.6138,-0.2081 0.2717,0 0.4833,0.0635 0.6386,0.194 0.1552,0.1306 0.2328,0.3175 0.2328,0.5574 0,0.12 -0.0317,0.2293 -0.0952,0.3281 -0.06,0.0988 -0.1482,0.1764 -0.2576,0.2328 0.127,0.0494 0.2258,0.127 0.2928,0.2293 0.0671,0.1059 0.1023,0.2329 0.1023,0.3846 0,0.2398 -0.0846,0.4304 -0.254,0.5644 -0.1658,0.1376 -0.388,0.2081 -0.6597,0.2081 -0.2434,0 -0.455,-0.067 -0.6314,-0.2046 -0.1764,-0.1375 -0.2611,-0.3351 -0.254,-0.5891l0.007 -0.0141 0.4657 0c0,0.127 0.0388,0.2328 0.1164,0.321 0.0776,0.0847 0.1835,0.1305 0.3105,0.1305 0.134,0 0.2363,-0.0423 0.3069,-0.1199 0.067,-0.0811 0.1023,-0.1835 0.1023,-0.3104 0,-0.1412 -0.0318,-0.247 -0.0988,-0.314 -0.0635,-0.0671 -0.1658,-0.0988 -0.2999,-0.0988l-0.3457 0 0 -0.3528 0.3457 0zm1.2559 0.0388c0,-0.3457 0.0882,-0.6314 0.2717,-0.8537 0.1799,-0.2258 0.4268,-0.3351 0.7408,-0.3351 0.314,0 0.5609,0.1093 0.7444,0.3316 0.1799,0.2222 0.2716,0.508 0.2716,0.8572l0 0.3316c0,0.3493 -0.0882,0.635 -0.2716,0.8538 -0.18,0.2222 -0.4269,0.3316 -0.7409,0.3316 -0.3175,0 -0.5644,-0.1094 -0.7443,-0.3316 -0.1835,-0.2188 -0.2717,-0.5045 -0.2717,-0.8538l0 -0.3316zm0.4869 0.3316l0 0c0,0.2364 0.0458,0.434 0.1305,0.5856 0.0882,0.1517 0.2187,0.2294 0.3986,0.2294 0.1729,0 0.3034,-0.0777 0.3916,-0.2294 0.0882,-0.1516 0.1305,-0.3492 0.1305,-0.5856l0 -0.3316c0,-0.2363 -0.0423,-0.4304 -0.1305,-0.5821 -0.0882,-0.1552 -0.2187,-0.2328 -0.3951,-0.2328 -0.1764,0 -0.3069,0.0776 -0.3951,0.2293 -0.0847,0.1517 -0.1305,0.3493 -0.1305,0.5856l0 0.3316zm2.039 1.136l0 -2.6106 0.8925 0c0.2893,0 0.5151,0.06 0.6774,0.1799 0.1623,0.12 0.2434,0.2999 0.2434,0.5363 0,0.1234 -0.0353,0.2363 -0.1058,0.3351 -0.0671,0.0953 -0.1694,0.1693 -0.2964,0.2187 0.1588,0.0353 0.2822,0.1094 0.3704,0.2187 0.0847,0.1129 0.127,0.2399 0.127,0.3846 0,0.2434 -0.074,0.4268 -0.2293,0.5503 -0.1517,0.1235 -0.3669,0.187 -0.6455,0.187l-1.0337 0zm0.4868 -1.1465l0 0 0 0.7796 0.5469 0c0.127,0 0.2257,-0.0318 0.2892,-0.0988 0.0671,-0.067 0.0988,-0.1658 0.0988,-0.2928 0,-0.1235 -0.0317,-0.2187 -0.0952,-0.2857 -0.0671,-0.0706 -0.1623,-0.1023 -0.2928,-0.1023l-0.5469 0zm0 -0.3458l0 0 0.4375 0c0.134,-0.0035 0.2328,-0.0352 0.2999,-0.0952 0.067,-0.0635 0.1023,-0.1552 0.1023,-0.2717 0,-0.1305 -0.0353,-0.2222 -0.1094,-0.2857 -0.0706,-0.0635 -0.1799,-0.0917 -0.3246,-0.0917l-0.4057 0 0 0.7443zm3.2209 1.4923c-0.0176,-0.06 -0.0317,-0.1164 -0.0423,-0.1764 -0.0106,-0.0564 -0.0177,-0.1129 -0.0212,-0.1693 -0.0741,0.1164 -0.1623,0.2116 -0.2716,0.2857 -0.1094,0.0741 -0.2329,0.1094 -0.3669,0.1094 -0.2187,0 -0.3916,-0.0671 -0.5151,-0.2082 -0.1234,-0.1375 -0.1869,-0.3245 -0.1869,-0.5574 0,-0.2504 0.0846,-0.4445 0.254,-0.5891 0.1693,-0.1411 0.4092,-0.2117 0.7161,-0.2117l0.3634 0 0 -0.2681c0,-0.1587 -0.0353,-0.2822 -0.1059,-0.3739 -0.0705,-0.0882 -0.1728,-0.1305 -0.3034,-0.1305 -0.1164,0 -0.2116,0.0388 -0.2822,0.1199 -0.0705,0.0811 -0.1058,0.1799 -0.1058,0.2999l-0.4657 -0.0036 -0.007 -0.0141c-0.0106,-0.2011 0.0705,-0.3774 0.2398,-0.5362 0.1694,-0.1552 0.3881,-0.2328 0.6527,-0.2328 0.2575,0 0.4656,0.074 0.6279,0.2257 0.1588,0.1517 0.2399,0.3705 0.2399,0.6492l0 1.2135c0,0.0988 0.0035,0.1976 0.0177,0.2928 0.0105,0.0917 0.0317,0.1835 0.0599,0.2752l-0.4974 0zm-0.5891 -0.3246l0 0c0.1129,0 0.2187,-0.0352 0.3104,-0.1023 0.0953,-0.067 0.1658,-0.1517 0.2082,-0.254l0 -0.5327 -0.3705 0c-0.1517,0 -0.2681,0.0494 -0.3492,0.1447 -0.0847,0.0952 -0.1235,0.2116 -0.1235,0.3492 0,0.12 0.0282,0.2117 0.0847,0.2858 0.0564,0.0705 0.134,0.1093 0.2399,0.1093zm3.302 -1.912l-0.7232 0 0 2.2366 -0.4904 0 0 -2.2366 -0.7091 0 0 -0.374 1.9227 0 0 0.374zm1.3229 2.286c-0.3105,0 -0.5574,-0.1059 -0.7444,-0.3211 -0.1869,-0.2152 -0.2787,-0.4938 -0.2787,-0.829l0 -0.381c0,-0.3386 0.0882,-0.6209 0.2717,-0.8431 0.1834,-0.2223 0.4162,-0.3316 0.6949,-0.3316 0.2964,0 0.5257,0.0987 0.6844,0.2998 0.1588,0.2046 0.2364,0.4763 0.2364,0.8149l0 0.3387 -1.4005 0 0 0.1023c0,0.2258 0.0494,0.4128 0.1481,0.5574 0.0988,0.1482 0.2364,0.2223 0.4198,0.2223 0.1341,0 0.2505,-0.0212 0.3458,-0.0635 0.0987,-0.0424 0.1905,-0.1059 0.2751,-0.187l0.1552 0.3034c-0.0811,0.0952 -0.1905,0.1693 -0.3316,0.2293 -0.1375,0.0599 -0.2963,0.0882 -0.4762,0.0882zm-0.0565 -2.3319l0 0c-0.1411,0 -0.254,0.0706 -0.3386,0.2081 -0.0847,0.1376 -0.1341,0.3105 -0.1411,0.5222l0.9172 0 0 -0.0988c0,-0.187 -0.0353,-0.3387 -0.1094,-0.4551 -0.0741,-0.1164 -0.1834,-0.1764 -0.3281,-0.1764zm3.2174 -0.3281l0 2.6106 -0.4904 0 0 -2.2296 -0.6491 0 0 0.7514c0,0.5116 -0.0635,0.8855 -0.1834,1.1219 -0.1235,0.2363 -0.3352,0.3563 -0.635,0.3563l-0.1023 0 0 -0.3916 0.074 0c0.1411,0 0.2329,-0.0811 0.2823,-0.2364 0.0493,-0.1552 0.074,-0.4374 0.074,-0.8502l0 -1.1324 1.6299 0zm1.9403 0l0.4868 0 0 2.6106 -0.4868 0 0 -1.771 -0.0142 0 -0.8607 1.771 -0.4869 0 0 -2.6106 0.4869 0 0 1.7674 0.0141 0.0036 0.8608 -1.771z"/>
  <path class="fil16" d="M134.692 31.4743l-0.4445 0 0 -0.8572 -1.9861 0 0 0.8572 -0.4375 0 -0.0529 -1.2276 0.2364 0c0.1058,-0.1165 0.1975,-0.314 0.2857,-0.5962 0.0847,-0.2823 0.1341,-0.6774 0.1482,-1.1818l0.0741 -1.3618 1.8485 0 0 3.1398 0.3705 0 -0.0424 1.2276zm-1.7603 -3.0056l0 0c-0.0141,0.4057 -0.06,0.7549 -0.1341,1.0548 -0.0741,0.2963 -0.1693,0.5362 -0.2857,0.7232l1.3652 0 0 -2.7658 -0.8925 0 -0.0529 0.9878zm2.0955 0.6808c0,-0.3457 0.0917,-0.6314 0.2716,-0.8537 0.1799,-0.2258 0.4304,-0.3351 0.7444,-0.3351 0.3139,0 0.5609,0.1093 0.7443,0.3316 0.1799,0.2222 0.2717,0.508 0.2717,0.8572l0 0.3316c0,0.3493 -0.0918,0.635 -0.2717,0.8538 -0.1799,0.2222 -0.4268,0.3316 -0.7408,0.3316 -0.3175,0 -0.568,-0.1094 -0.7479,-0.3316 -0.1799,-0.2188 -0.2716,-0.5045 -0.2716,-0.8538l0 -0.3316zm0.4903 0.3316l0 0c0,0.2364 0.0424,0.434 0.1306,0.5856 0.0846,0.1517 0.2187,0.2294 0.3986,0.2294 0.1729,0 0.3034,-0.0777 0.3916,-0.2294 0.0882,-0.1516 0.1305,-0.3492 0.1305,-0.5856l0 -0.3316c0,-0.2363 -0.0423,-0.4304 -0.1305,-0.5821 -0.0882,-0.1552 -0.2187,-0.2328 -0.3951,-0.2328 -0.1764,0 -0.3105,0.0776 -0.3951,0.2293 -0.0882,0.1517 -0.1306,0.3493 -0.1306,0.5856l0 0.3316zm3.0057 -1.3158c0.2963,0 0.5292,0.1129 0.6985,0.3316 0.1693,0.2222 0.254,0.508 0.254,0.8572l0 0.0635c0,0.3705 -0.0882,0.6703 -0.2681,0.9031 -0.1835,0.2294 -0.4304,0.3458 -0.7444,0.3458 -0.3175,0 -0.5644,-0.1164 -0.7443,-0.3458 -0.18,-0.2328 -0.2681,-0.5326 -0.2681,-0.9031l0 -0.3598c0,-0.5256 0.0917,-0.9419 0.2786,-1.2524 0.1835,-0.3069 0.4269,-0.4938 0.7303,-0.5609 0.1517,-0.0353 0.2646,-0.0776 0.3351,-0.1305 0.0741,-0.0529 0.1094,-0.1341 0.1094,-0.2434l0.3739 0 0.0071 0.0141c0.0071,0.2646 -0.0529,0.4445 -0.1799,0.5397 -0.127,0.0918 -0.3246,0.1623 -0.5962,0.2082 -0.1693,0.0317 -0.3069,0.1129 -0.4198,0.2469 -0.1094,0.1341 -0.1799,0.3175 -0.2117,0.5539l0.0071 0.0141c0.0811,-0.0847 0.1764,-0.1517 0.2857,-0.2046 0.1094,-0.0494 0.2293,-0.0776 0.3528,-0.0776zm-0.0635 0.3739l0 0c-0.1764,0 -0.3069,0.0776 -0.3916,0.2293 -0.0882,0.1552 -0.1305,0.3493 -0.1305,0.5821l0 0.067c0,0.254 0.0423,0.4657 0.1305,0.6315 0.0847,0.1658 0.2187,0.247 0.3951,0.247 0.1729,0 0.3069,-0.0812 0.3916,-0.247 0.0882,-0.1658 0.1341,-0.3775 0.1341,-0.6315l0 -0.067c0,-0.2328 -0.0459,-0.4269 -0.1341,-0.5821 -0.0847,-0.1552 -0.2187,-0.2293 -0.3951,-0.2293zm3.3796 0.9913c0,0.3422 -0.0776,0.6174 -0.2293,0.8255 -0.1482,0.2082 -0.3598,0.3105 -0.6279,0.3105 -0.127,0 -0.2399,-0.0247 -0.3352,-0.0741 -0.0952,-0.0494 -0.1799,-0.1235 -0.2469,-0.2187l0 1.2453 -0.4904 0 0 -3.6125 0.4375 0 0.0282 0.2999c0.0705,-0.1094 0.1552,-0.1976 0.254,-0.2575 0.0988,-0.06 0.2152,-0.0882 0.3492,-0.0882 0.2717,0 0.4833,0.1129 0.6315,0.3422 0.1517,0.2257 0.2293,0.5291 0.2293,0.9066l0 0.321zm-0.4904 -0.321l0 0c0,-0.2575 -0.0423,-0.4657 -0.127,-0.628 -0.0846,-0.1587 -0.2116,-0.2398 -0.3774,-0.2398 -0.1059,0 -0.1941,0.0282 -0.2681,0.0882 -0.0741,0.0599 -0.1341,0.1411 -0.1764,0.2434l0 1.3194c0.0423,0.0987 0.1023,0.1728 0.1764,0.2257 0.0705,0.053 0.1622,0.0777 0.2716,0.0777 0.1693,0 0.2928,-0.0706 0.3775,-0.2117 0.0811,-0.1411 0.1234,-0.3246 0.1234,-0.5539l0 -0.321zm0.8644 -0.06c0,-0.3457 0.0881,-0.6314 0.2716,-0.8537 0.1799,-0.2258 0.4269,-0.3351 0.7407,-0.3351 0.314,0 0.5645,0.1093 0.7444,0.3316 0.1834,0.2222 0.2716,0.508 0.2716,0.8572l0 0.3316c0,0.3493 -0.0882,0.635 -0.2716,0.8538 -0.1799,0.2222 -0.4269,0.3316 -0.7408,0.3316 -0.3174,0 -0.5644,-0.1094 -0.7443,-0.3316 -0.1835,-0.2188 -0.2716,-0.5045 -0.2716,-0.8538l0 -0.3316zm0.4868 0.3316l0 0c0,0.2364 0.0458,0.434 0.1305,0.5856 0.0882,0.1517 0.2222,0.2294 0.3986,0.2294 0.1728,0 0.3033,-0.0777 0.3915,-0.2294 0.0882,-0.1516 0.1341,-0.3492 0.1341,-0.5856l0 -0.3316c0,-0.2363 -0.0459,-0.4304 -0.1341,-0.5821 -0.0882,-0.1552 -0.2187,-0.2328 -0.3951,-0.2328 -0.1764,0 -0.3068,0.0776 -0.395,0.2293 -0.0847,0.1517 -0.1305,0.3493 -0.1305,0.5856l0 0.3316zm2.0389 1.136l0 -2.6106 0.8926 0c0.2893,0 0.515,0.06 0.6773,0.1799 0.1623,0.12 0.2434,0.2999 0.2434,0.5363 0,0.1234 -0.0353,0.2363 -0.1058,0.3351 -0.067,0.0952 -0.1693,0.1693 -0.2963,0.2187 0.1622,0.0353 0.2857,0.1094 0.3704,0.2187 0.0846,0.1129 0.1305,0.2399 0.1305,0.3846 0,0.2434 -0.0776,0.4268 -0.2293,0.5503 -0.1552,0.1235 -0.3704,0.187 -0.6491,0.187l-1.0337 0zm0.4869 -1.1465l0 0 0 0.7796 0.5468 0c0.127,0 0.2258,-0.0318 0.2893,-0.0988 0.067,-0.067 0.0987,-0.1658 0.0987,-0.2928 0,-0.1235 -0.0317,-0.2187 -0.0952,-0.2857 -0.067,-0.0706 -0.1623,-0.1023 -0.2928,-0.1023l-0.5468 0zm0 -0.3458l0 0 0.4374 0c0.1341,-0.0035 0.2329,-0.0352 0.2999,-0.0952 0.0705,-0.0635 0.1023,-0.1552 0.1023,-0.2717 0,-0.1305 -0.0353,-0.2222 -0.1094,-0.2857 -0.0705,-0.0635 -0.1799,-0.0917 -0.3245,-0.0917l-0.4057 0 0 0.7443zm1.7991 0.0247c0,-0.3457 0.0882,-0.6314 0.2682,-0.8537 0.1834,-0.2258 0.4303,-0.3351 0.7443,-0.3351 0.314,0 0.5609,0.1093 0.7444,0.3316 0.1799,0.2222 0.2716,0.508 0.2716,0.8572l0 0.3316c0,0.3493 -0.0917,0.635 -0.2716,0.8538 -0.1799,0.2222 -0.4269,0.3316 -0.7409,0.3316 -0.3175,0 -0.5644,-0.1094 -0.7478,-0.3316 -0.18,-0.2188 -0.2682,-0.5045 -0.2682,-0.8538l0 -0.3316zm0.4869 0.3316l0 0c0,0.2364 0.0458,0.434 0.1305,0.5856 0.0882,0.1517 0.2187,0.2294 0.3986,0.2294 0.1729,0 0.3034,-0.0777 0.3916,-0.2294 0.0882,-0.1516 0.1306,-0.3492 0.1306,-0.5856l0 -0.3316c0,-0.2363 -0.0424,-0.4304 -0.1306,-0.5821 -0.0882,-0.1552 -0.2187,-0.2328 -0.3951,-0.2328 -0.1764,0 -0.3069,0.0776 -0.3951,0.2293 -0.0847,0.1517 -0.1305,0.3493 -0.1305,0.5856l0 0.3316zm3.87 -1.4746l0 2.6106 -0.4904 0 0 -2.2296 -0.6526 0 0 0.7514c0,0.5116 -0.06,0.8855 -0.1835,1.1219 -0.1235,0.2363 -0.3351,0.3563 -0.6315,0.3563l-0.1058 0 0 -0.3916 0.0741 0c0.1411,0 0.2363,-0.0811 0.2857,-0.2364 0.0494,-0.1552 0.0741,-0.4374 0.0741,-0.8502l0 -1.1324 1.6299 0zm1.0865 0.882l0.4868 0c0.2787,0 0.4975,0.0776 0.6562,0.2399 0.1588,0.1587 0.2364,0.3668 0.2364,0.6208 0,0.254 -0.0776,0.4622 -0.2364,0.6245 -0.1587,0.1622 -0.3775,0.2434 -0.6562,0.2434l-0.9736 0 0 -2.6106 0.4868 0 0 0.882zm0 0.3739l0 0 0 0.9843 0.4868 0c0.1376,0 0.2399,-0.0459 0.3034,-0.1376 0.0671,-0.0917 0.0988,-0.2082 0.0988,-0.3493 0,-0.1376 -0.0317,-0.254 -0.0988,-0.3527 -0.0635,-0.0953 -0.1658,-0.1447 -0.3034,-0.1447l-0.4868 0zm3.676 1.3547l-0.4904 0 0 -1.1148 -0.8678 0 0 1.1148 -0.4904 0 0 -2.6106 0.4904 0 0 1.1254 0.8678 0 0 -1.1254 0.4904 0 0 2.6106zm1.09 -1.7286l0.4869 0c0.2787,0 0.4974,0.0776 0.6561,0.2399 0.1553,0.1587 0.2364,0.3668 0.2364,0.6208 0,0.254 -0.0811,0.4622 -0.2364,0.6245 -0.1587,0.1622 -0.3774,0.2434 -0.6561,0.2434l-0.9737 0 0 -2.6106 0.4868 0 0 0.882zm2.2437 1.7286l0 0 -0.4868 0 0 -2.6106 0.4868 0 0 2.6106zm-2.2437 -1.3547l0 0 0 0.9843 0.4869 0c0.1376,0 0.2363,-0.0459 0.3034,-0.1376 0.067,-0.0917 0.0987,-0.2082 0.0987,-0.3493 0,-0.1376 -0.0317,-0.254 -0.0987,-0.3527 -0.0671,-0.0953 -0.1658,-0.1447 -0.3034,-0.1447l-0.4869 0zm3.8206 1.4041c-0.3104,0 -0.5574,-0.1059 -0.7443,-0.3211 -0.187,-0.2152 -0.2787,-0.4938 -0.2787,-0.829l0 -0.381c0,-0.3387 0.0917,-0.6209 0.2716,-0.8431 0.1834,-0.2223 0.4163,-0.3316 0.6985,-0.3316 0.2963,0 0.5221,0.0987 0.6809,0.2998 0.1587,0.2046 0.2399,0.4763 0.2399,0.8149l0 0.3387 -1.4041 0 0 0.1023c0,0.2258 0.0494,0.4128 0.1482,0.5574 0.0987,0.1482 0.2399,0.2223 0.4198,0.2223 0.1376,0 0.2504,-0.0212 0.3492,-0.0635 0.0953,-0.0424 0.187,-0.1059 0.2752,-0.187l0.1517 0.3034c-0.0812,0.0952 -0.1905,0.1693 -0.3281,0.2293 -0.1376,0.0599 -0.2999,0.0882 -0.4798,0.0882zm-0.0529 -2.3319l0 0c-0.1411,0 -0.2575,0.0706 -0.3422,0.2081 -0.0847,0.1376 -0.1305,0.3105 -0.1411,0.5222l0.9172 0 0 -0.0988c0,-0.187 -0.0353,-0.3387 -0.1093,-0.4551 -0.0741,-0.1164 -0.1835,-0.1764 -0.3246,-0.1764zm2.4624 2.2825l0 -2.6106 0.8925 0c0.2893,0 0.5151,0.06 0.6774,0.1799 0.1622,0.12 0.2434,0.2999 0.2434,0.5363 0,0.1234 -0.0353,0.2363 -0.1059,0.3351 -0.0705,0.0952 -0.1693,0.1693 -0.2963,0.2187 0.1588,0.0353 0.2822,0.1094 0.3669,0.2187 0.0882,0.1129 0.1305,0.2399 0.1305,0.3846 0,0.2434 -0.0776,0.4268 -0.2293,0.5503 -0.1517,0.1235 -0.3669,0.187 -0.6491,0.187l-1.0301 0zm0.4868 -1.1465l0 0 0 0.7796 0.5433 0c0.1305,0 0.2258,-0.0318 0.2928,-0.0988 0.067,-0.067 0.0988,-0.1658 0.0988,-0.2928 0,-0.1235 -0.0318,-0.2187 -0.0988,-0.2857 -0.0635,-0.0706 -0.1623,-0.1023 -0.2928,-0.1023l-0.5433 0zm0 -0.3458l0 0 0.4339 0c0.1341,-0.0035 0.2364,-0.0352 0.3034,-0.0952 0.0671,-0.0635 0.1023,-0.1552 0.1023,-0.2717 0,-0.1305 -0.0388,-0.2222 -0.1093,-0.2857 -0.0741,-0.0635 -0.1799,-0.0917 -0.3246,-0.0917l-0.4057 0 0 0.7443zm2.7129 -0.0141c0.127,0 0.2187,-0.0317 0.2752,-0.0988 0.0564,-0.0635 0.0846,-0.1587 0.0846,-0.2822 0,-0.1199 -0.0317,-0.2152 -0.0882,-0.2893 -0.06,-0.0776 -0.1517,-0.1128 -0.2787,-0.1128 -0.1129,0 -0.2081,0.0352 -0.2822,0.1128 -0.0741,0.0777 -0.1129,0.1729 -0.1129,0.2928l-0.4656 0 -0.0071 -0.0141c-0.0071,-0.2222 0.0705,-0.4057 0.2364,-0.5468 0.1658,-0.1376 0.3704,-0.2081 0.6138,-0.2081 0.2716,0 0.4833,0.0635 0.6385,0.194 0.1552,0.1305 0.2329,0.3175 0.2329,0.5574 0,0.12 -0.0283,0.2293 -0.0918,0.3281 -0.0635,0.0988 -0.1517,0.1764 -0.261,0.2328 0.127,0.0494 0.2258,0.127 0.2928,0.2293 0.067,0.1059 0.1023,0.2329 0.1023,0.3846 0,0.2398 -0.0847,0.4303 -0.2505,0.5644 -0.1693,0.1376 -0.3916,0.2081 -0.6632,0.2081 -0.2434,0 -0.4516,-0.067 -0.628,-0.2046 -0.1799,-0.1376 -0.2645,-0.3351 -0.254,-0.5891l0.0036 -0.0141 0.4692 0c0,0.127 0.0388,0.2328 0.1164,0.321 0.0741,0.0847 0.1799,0.1305 0.3104,0.1305 0.1341,0 0.2329,-0.0423 0.3034,-0.1199 0.067,-0.0811 0.1023,-0.1835 0.1023,-0.3105 0,-0.1411 -0.0317,-0.2469 -0.0952,-0.3139 -0.0671,-0.0671 -0.1658,-0.0988 -0.3034,-0.0988l-0.3422 0 0 -0.3528 0.3422 0zm3.2067 1.5064l-0.4903 0 0 -1.1148 -0.8679 0 0 1.1148 -0.4903 0 0 -2.6106 0.4903 0 0 1.1254 0.8679 0 0 -1.1254 0.4903 0 0 2.6106zm0.4763 -1.4676c0,-0.3457 0.0882,-0.6314 0.2716,-0.8537 0.1799,-0.2258 0.4269,-0.3351 0.7409,-0.3351 0.3139,0 0.5609,0.1093 0.7443,0.3316 0.1799,0.2222 0.2717,0.508 0.2717,0.8572l0 0.3316c0,0.3493 -0.0882,0.635 -0.2717,0.8538 -0.1799,0.2222 -0.4268,0.3316 -0.7408,0.3316 -0.3175,0 -0.5645,-0.1094 -0.7444,-0.3316 -0.1834,-0.2188 -0.2716,-0.5045 -0.2716,-0.8538l0 -0.3316zm0.4868 0.3316l0 0c0,0.2364 0.0459,0.434 0.1305,0.5856 0.0882,0.1517 0.2188,0.2294 0.3987,0.2294 0.1728,0 0.3034,-0.0777 0.3916,-0.2294 0.0882,-0.1516 0.1305,-0.3492 0.1305,-0.5856l0 -0.3316c0,-0.2363 -0.0423,-0.4304 -0.1305,-0.5821 -0.0882,-0.1552 -0.2188,-0.2328 -0.3951,-0.2328 -0.1764,0 -0.307,0.0776 -0.3952,0.2293 -0.0846,0.1517 -0.1305,0.3493 -0.1305,0.5856l0 0.3316zm2.914 0.815c0.1234,0 0.2257,-0.0459 0.3104,-0.1412 0.0811,-0.0952 0.1235,-0.2187 0.1235,-0.3774l0.441 0 0.0035 0.0141c0.007,0.2469 -0.0776,0.4551 -0.2505,0.6244 -0.1729,0.1658 -0.381,0.2505 -0.6279,0.2505 -0.3246,0 -0.5715,-0.1094 -0.7444,-0.3281 -0.1729,-0.2223 -0.2611,-0.501 -0.2611,-0.8432l0 -0.3598c0,-0.3387 0.0882,-0.6209 0.2611,-0.8431 0.1729,-0.2223 0.4198,-0.3316 0.7408,-0.3316 0.2646,0 0.4798,0.0882 0.6456,0.261 0.1623,0.1764 0.2434,0.4057 0.2399,0.6844l-0.007 0.0141 -0.441 0c0,-0.1728 -0.0388,-0.314 -0.12,-0.4233 -0.0776,-0.1058 -0.1834,-0.1623 -0.3175,-0.1623 -0.1834,0 -0.3175,0.0776 -0.3951,0.2293 -0.0776,0.1482 -0.1164,0.3422 -0.1164,0.5715l0 0.3598c0,0.2364 0.0388,0.4269 0.1164,0.5751 0.0776,0.1517 0.2117,0.2258 0.3987,0.2258zm1.8344 -1.4076l0.4868 0c0.2787,0 0.4975,0.0776 0.6527,0.2399 0.1587,0.1587 0.2399,0.3668 0.2399,0.6208 0,0.254 -0.0812,0.4622 -0.2399,0.6245 -0.1552,0.1622 -0.374,0.2434 -0.6527,0.2434l-0.9736 0 0 -2.6106 0.4868 0 0 0.882zm2.2437 1.7286l0 0 -0.4904 0 0 -2.6106 0.4904 0 0 2.6106zm-2.2437 -1.3547l0 0 0 0.9843 0.4868 0c0.1376,0 0.2364,-0.0459 0.3034,-0.1376 0.0671,-0.0917 0.0988,-0.2082 0.0988,-0.3493 0,-0.1376 -0.0317,-0.254 -0.0988,-0.3527 -0.067,-0.0953 -0.1658,-0.1447 -0.3034,-0.1447l-0.4868 0z"/>
  <path class="fil16" d="M37.7523 263.38l0 3.5101 -0.4868 0 0 -3.1362 -0.9772 0 -0.0035 1.2347c0,0.6703 -0.0776,1.1536 -0.2293,1.4535 -0.1482,0.2998 -0.3881,0.448 -0.7197,0.448l-0.1235 0 0 -0.3704 0.0812 0c0.1869,-0.0036 0.3175,-0.1164 0.3916,-0.3387 0.074,-0.2187 0.1093,-0.6174 0.1128,-1.1924l0.0036 -1.6086 1.9508 0zm1.5628 3.5595c-0.3104,0 -0.5574,-0.1059 -0.7443,-0.321 -0.187,-0.2152 -0.2787,-0.4939 -0.2787,-0.8291l0 -0.381c0,-0.3386 0.0917,-0.6209 0.2716,-0.8431 0.1835,-0.2223 0.4163,-0.3316 0.6985,-0.3316 0.2928,0 0.5221,0.0988 0.6809,0.2998 0.1587,0.2046 0.2399,0.4763 0.2399,0.815l0 0.3386 -1.4041 0 0 0.1023c0,0.2258 0.0494,0.4128 0.1482,0.5574 0.0988,0.1482 0.2399,0.2223 0.4198,0.2223 0.134,0 0.2505,-0.0212 0.3492,-0.0635 0.0953,-0.0424 0.187,-0.1059 0.2717,-0.187l0.1552 0.3034c-0.0811,0.0952 -0.1905,0.1693 -0.3281,0.2293 -0.1411,0.06 -0.2998,0.0882 -0.4798,0.0882zm-0.0529 -2.3319l0 0c-0.1446,0 -0.2575,0.0706 -0.3422,0.2082 -0.0846,0.1375 -0.1305,0.3104 -0.1411,0.5221l0.9172 0 0 -0.0988c0,-0.187 -0.0352,-0.3387 -0.1093,-0.4551 -0.0741,-0.1164 -0.1835,-0.1764 -0.3246,-0.1764zm3.115 2.2825l-0.4868 0 0 -0.949c-0.0705,0.0212 -0.1376,0.0388 -0.2046,0.0494 -0.0706,0.0106 -0.1341,0.0141 -0.2011,0.0141 -0.2998,0 -0.5327,-0.0776 -0.695,-0.2399 -0.1622,-0.1587 -0.2398,-0.4057 -0.2398,-0.7479l0 -0.7373 0.4868 0 0 0.7373c0,0.2258 0.0353,0.3846 0.1058,0.4763 0.0706,0.0952 0.187,0.1411 0.3422,0.1411 0.0706,0 0.1376,-0.0071 0.2046,-0.0176 0.0671,-0.0141 0.1306,-0.0318 0.2011,-0.053l0 -1.2841 0.4868 0 0 2.6106zm1.5135 0.0494c-0.3105,0 -0.5574,-0.1059 -0.7444,-0.321 -0.187,-0.2152 -0.2822,-0.4939 -0.2822,-0.8291l0 -0.381c0,-0.3386 0.0917,-0.6209 0.2751,-0.8431 0.1835,-0.2223 0.4128,-0.3316 0.695,-0.3316 0.2964,0 0.5257,0.0988 0.6844,0.2998 0.1588,0.2046 0.2364,0.4763 0.2364,0.815l0 0.3386 -1.4041 0 0 0.1023c0,0.2258 0.0529,0.4128 0.1517,0.5574 0.0988,0.1482 0.2364,0.2223 0.4198,0.2223 0.1341,0 0.2505,-0.0212 0.3457,-0.0635 0.0988,-0.0424 0.1905,-0.1059 0.2752,-0.187l0.1552 0.3034c-0.0811,0.0952 -0.194,0.1693 -0.3316,0.2293 -0.1376,0.06 -0.2963,0.0882 -0.4762,0.0882zm-0.0565 -2.3319l0 0c-0.1411,0 -0.254,0.0706 -0.3386,0.2082 -0.0847,0.1375 -0.1341,0.3104 -0.1447,0.5221l0.9208 0 0 -0.0988c0,-0.187 -0.0388,-0.3387 -0.1129,-0.4551 -0.0706,-0.1164 -0.1799,-0.1764 -0.3246,-0.1764zm3.2103 2.2825l-0.4904 0 0 -1.1148 -0.8678 0 0 1.1148 -0.4904 0 0 -2.6106 0.4904 0 0 1.1254 0.8678 0 0 -1.1254 0.4904 0 0 2.6106zm1.9403 -2.6106l0.4868 0 0 2.6106 -0.4868 0 0 -1.771 -0.0141 0 -0.8573 1.771 -0.4903 0 0 -2.6106 0.4903 0 0 1.7675 0.0141 0.0035 0.8573 -1.771zm2.0002 2.66c-0.3104,0 -0.5574,-0.1059 -0.7443,-0.321 -0.187,-0.2152 -0.2787,-0.4939 -0.2787,-0.8291l0 -0.381c0,-0.3386 0.0882,-0.6209 0.2716,-0.8431 0.1835,-0.2223 0.4163,-0.3316 0.695,-0.3316 0.2963,0 0.5256,0.0988 0.6844,0.2998 0.1587,0.2046 0.2363,0.4763 0.2363,0.815l0 0.3386 -1.4005 0 0 0.1023c0,0.2258 0.0494,0.4128 0.1482,0.5574 0.0987,0.1482 0.2363,0.2223 0.4198,0.2223 0.134,0 0.2504,-0.0212 0.3457,-0.0635 0.0988,-0.0424 0.1905,-0.1059 0.2752,-0.187l0.1552 0.3034c-0.0812,0.0952 -0.1905,0.1693 -0.3316,0.2293 -0.1376,0.06 -0.2964,0.0882 -0.4763,0.0882zm-0.0564 -2.3319l0 0c-0.1411,0 -0.254,0.0706 -0.3387,0.2082 -0.0847,0.1375 -0.134,0.3104 -0.1411,0.5221l0.9172 0 0 -0.0988c0,-0.187 -0.0353,-0.3387 -0.1093,-0.4551 -0.0741,-0.1164 -0.1835,-0.1764 -0.3281,-0.1764z"/>
  <path class="fil16" d="M137.793 120.039l0.0071 0.0141c0,0.3492 -0.0952,0.6209 -0.2787,0.8149 -0.1834,0.1905 -0.4445,0.2858 -0.7832,0.2858 -0.3457,0 -0.6208,-0.1165 -0.8255,-0.3458 -0.2046,-0.2328 -0.3069,-0.5538 -0.3069,-0.9701l0 -0.9737c0,-0.4162 0.0988,-0.7373 0.3034,-0.9736 0.2046,-0.2329 0.4763,-0.3493 0.8149,-0.3493 0.3422,0 0.6068,0.0953 0.7938,0.2822 0.1834,0.1905 0.2787,0.4657 0.2822,0.8255l-0.0071 0.0142 -0.4621 0c-0.0035,-0.254 -0.0564,-0.4445 -0.1517,-0.5645 -0.0952,-0.1199 -0.2469,-0.1799 -0.4551,-0.1799 -0.2011,0 -0.3563,0.0811 -0.4692,0.2434 -0.1093,0.1623 -0.1658,0.3951 -0.1658,0.695l0 0.9807c0,0.3069 0.0565,0.5398 0.1694,0.702 0.1129,0.1623 0.2751,0.2434 0.4797,0.2434 0.2011,0 0.3493,-0.0599 0.4445,-0.1763 0.0953,-0.12 0.1412,-0.307 0.1447,-0.568l0.4656 0zm0.381 -0.4022c0,-0.3457 0.0918,-0.6315 0.2717,-0.8537 0.1799,-0.2258 0.4304,-0.3351 0.7443,-0.3351 0.314,0 0.561,0.1093 0.7444,0.3316 0.1799,0.2222 0.2716,0.508 0.2716,0.8572l0 0.3316c0,0.3493 -0.0917,0.635 -0.2716,0.8538 -0.1799,0.2222 -0.4268,0.3316 -0.7408,0.3316 -0.3175,0 -0.568,-0.1094 -0.7479,-0.3316 -0.1799,-0.2188 -0.2717,-0.5045 -0.2717,-0.8538l0 -0.3316zm0.4904 0.3316l0 0c0,0.2364 0.0423,0.4339 0.1305,0.5856 0.0882,0.1517 0.2188,0.2293 0.3987,0.2293 0.1728,0 0.3034,-0.0776 0.3916,-0.2293 0.0882,-0.1517 0.1305,-0.3492 0.1305,-0.5856l0 -0.3316c0,-0.2363 -0.0423,-0.4304 -0.1305,-0.5821 -0.0882,-0.1552 -0.2188,-0.2328 -0.3952,-0.2328 -0.1763,0 -0.3069,0.0776 -0.3951,0.2293 -0.0882,0.1517 -0.1305,0.3493 -0.1305,0.5856l0 0.3316zm2.8293 -0.3704c0.1235,0 0.2152,-0.0317 0.2716,-0.0988 0.0565,-0.0635 0.0847,-0.1587 0.0847,-0.2822 0,-0.1199 -0.0282,-0.2152 -0.0882,-0.2893 -0.0564,-0.0776 -0.1517,-0.1129 -0.2787,-0.1129 -0.1129,0 -0.2046,0.0353 -0.2787,0.1129 -0.0776,0.0776 -0.1129,0.1729 -0.1129,0.2928l-0.4692 0 -0.0035 -0.0141c-0.0071,-0.2222 0.0706,-0.4057 0.2364,-0.5468 0.1658,-0.1376 0.3704,-0.2081 0.6103,-0.2081 0.2716,0 0.4868,0.0635 0.642,0.194 0.1552,0.1305 0.2329,0.3175 0.2329,0.5574 0,0.1199 -0.0318,0.2293 -0.0953,0.3281 -0.0635,0.0988 -0.1482,0.1764 -0.2611,0.2328 0.1306,0.0494 0.2294,0.127 0.2964,0.2293 0.067,0.1059 0.1023,0.2329 0.1023,0.3846 0,0.2398 -0.0847,0.4303 -0.254,0.5644 -0.1693,0.1376 -0.3881,0.2081 -0.6632,0.2081 -0.2399,0 -0.4516,-0.067 -0.628,-0.2046 -0.1764,-0.1376 -0.261,-0.3351 -0.254,-0.5891l0.0071 -0.0141 0.4656 0c0,0.127 0.0389,0.2328 0.1165,0.321 0.0776,0.0847 0.1799,0.1305 0.3104,0.1305 0.1341,0 0.2364,-0.0423 0.3034,-0.1199 0.0705,-0.0812 0.1058,-0.1835 0.1058,-0.3105 0,-0.1411 -0.0317,-0.2469 -0.0988,-0.3139 -0.0635,-0.0671 -0.1658,-0.0988 -0.2998,-0.0988l-0.3457 0 0 -0.3528 0.3457 0zm1.3511 1.136c0.1235,-0.1447 0.2116,-0.307 0.268,-0.4869 0.0565,-0.1799 0.0882,-0.4515 0.1023,-0.8149l0.0212 -0.9384 1.5275 0 0 2.2402 0.2999 0 -0.0388 1.143 -0.448 0 0 -0.7726 -1.4182 0 0 0.7726 -0.4515 0 -0.0423 -1.143 0.1799 0zm0.8572 -1.3018l0 0c-0.0141,0.2999 -0.0494,0.5574 -0.1129,0.7691 -0.06,0.2116 -0.1411,0.3915 -0.2399,0.5327l0.9278 0 0 -1.838 -0.5609 0 -0.0141 0.5362zm3.0903 1.6722c-0.0176,-0.06 -0.0317,-0.1164 -0.0458,-0.1764 -0.0106,-0.0565 -0.0177,-0.1129 -0.0212,-0.1693 -0.0706,0.1164 -0.1623,0.2116 -0.2717,0.2857 -0.1093,0.0741 -0.2293,0.1094 -0.3633,0.1094 -0.2223,0 -0.3916,-0.0671 -0.5186,-0.2082 -0.1235,-0.1376 -0.187,-0.3245 -0.187,-0.5574 0,-0.2504 0.0847,-0.4445 0.254,-0.5891 0.1694,-0.1411 0.4093,-0.2117 0.7162,-0.2117l0.3633 0 0 -0.2681c0,-0.1587 -0.0352,-0.2822 -0.1058,-0.3739 -0.0706,-0.0882 -0.1693,-0.1306 -0.2999,-0.1306 -0.1199,0 -0.2116,0.0389 -0.2857,0.12 -0.0706,0.0811 -0.1058,0.1799 -0.1058,0.2999l-0.4657 -0.0036 -0.0071 -0.0141c-0.007,-0.2011 0.0741,-0.3775 0.2399,-0.5362 0.1694,-0.1552 0.3881,-0.2328 0.6562,-0.2328 0.2575,0 0.4657,0.074 0.6244,0.2257 0.1588,0.1517 0.2399,0.3705 0.2399,0.6491l0 1.2136c0,0.0988 0.007,0.1976 0.0176,0.2928 0.0141,0.0917 0.0318,0.1835 0.06,0.2752l-0.4939 0zm-0.5927 -0.3246l0 0c0.1165,0 0.2188,-0.0353 0.314,-0.1023 0.0953,-0.067 0.1623,-0.1517 0.2046,-0.254l0 -0.5327 -0.3704 0c-0.1482,0 -0.2646,0.0494 -0.3492,0.1447 -0.0812,0.0952 -0.1235,0.2116 -0.1235,0.3492 0,0.12 0.0282,0.2117 0.0847,0.2858 0.0564,0.0705 0.1375,0.1093 0.2398,0.1093zm3.422 0.3246l-0.4904 0 0 -1.1148 -0.8678 0 0 1.1148 -0.4904 0 0 -2.6106 0.4904 0 0 1.1254 0.8678 0 0 -1.1254 0.4904 0 0 2.6106zm1.9403 -2.6106l0.4868 0 0 2.6106 -0.4868 0 0 -1.771 -0.0141 0 -0.8608 1.771 -0.4869 0 0 -2.6106 0.4869 0 0 1.7674 0.0176 0.0036 0.8573 -1.771zm2.0002 2.66c-0.3104,0 -0.5609,-0.1059 -0.7479,-0.3211 -0.1834,-0.2152 -0.2787,-0.4939 -0.2787,-0.829l0 -0.381c0,-0.3387 0.0918,-0.6209 0.2752,-0.8431 0.1799,-0.2223 0.4128,-0.3316 0.695,-0.3316 0.2963,0 0.5221,0.0987 0.6808,0.2998 0.1588,0.2046 0.2399,0.4763 0.2399,0.8149l0 0.3387 -1.404 0 0 0.1023c0,0.2258 0.0494,0.4128 0.1481,0.5574 0.0988,0.1482 0.2399,0.2222 0.4234,0.2222 0.134,0 0.2504,-0.0211 0.3457,-0.0635 0.0952,-0.0423 0.187,-0.1058 0.2752,-0.1869l0.1552 0.3034c-0.0847,0.0952 -0.194,0.1693 -0.3316,0.2293 -0.1376,0.0599 -0.2964,0.0882 -0.4763,0.0882zm-0.0564 -2.3319l0 0c-0.1411,0 -0.254,0.0706 -0.3387,0.2081 -0.0882,0.1376 -0.134,0.3105 -0.1446,0.5222l0.9207 0 0 -0.0988c0,-0.187 -0.0388,-0.3387 -0.1129,-0.4551 -0.0741,-0.1164 -0.1834,-0.1764 -0.3245,-0.1764zm3.1926 1.1818l-0.2434 0 0 1.1007 -0.4904 0 0 -2.6106 0.4904 0 0 1.0936 0.2328 0 0.5998 -1.0936 0.6103 0 -0.8114 1.2242 0.8784 1.3864 -0.6385 0 -0.628 -1.1007zm1.4887 -0.3669c0,-0.3457 0.0882,-0.6315 0.2717,-0.8537 0.1799,-0.2258 0.4268,-0.3351 0.7408,-0.3351 0.314,0 0.5645,0.1093 0.7444,0.3316 0.1834,0.2222 0.2716,0.508 0.2716,0.8572l0 0.3316c0,0.3493 -0.0882,0.635 -0.2716,0.8538 -0.1799,0.2222 -0.4269,0.3316 -0.7409,0.3316 -0.3175,0 -0.5644,-0.1094 -0.7443,-0.3316 -0.1835,-0.2188 -0.2717,-0.5045 -0.2717,-0.8538l0 -0.3316zm0.4869 0.3316l0 0c0,0.2364 0.0458,0.4339 0.1305,0.5856 0.0882,0.1517 0.2222,0.2293 0.3986,0.2293 0.1729,0 0.3034,-0.0776 0.3916,-0.2293 0.0882,-0.1517 0.1341,-0.3492 0.1341,-0.5856l0 -0.3316c0,-0.2363 -0.0459,-0.4304 -0.1341,-0.5821 -0.0882,-0.1552 -0.2187,-0.2328 -0.3951,-0.2328 -0.1764,0 -0.3069,0.0776 -0.3951,0.2293 -0.0847,0.1517 -0.1305,0.3493 -0.1305,0.5856l0 0.3316zm3.302 0.5363l0.0141 0 0.6561 -2.0109 0.6104 0 0 2.6106 -0.4904 0 0 -1.7039 -0.0141 0 -0.5997 1.7039 -0.3352 0 -0.6032 -1.7216 -0.0141 0.0035 0 1.7181 -0.4869 0 0 -2.6106 0.6139 0 0.6491 2.0109zm3.7394 0.5997l-0.4903 0 0 -2.2296 -0.8714 0 0 2.2296 -0.4868 0 0 -2.6106 1.8485 0 0 2.6106zm1.898 0c-0.0177,-0.06 -0.0318,-0.1164 -0.0424,-0.1764 -0.0141,-0.0565 -0.0211,-0.1129 -0.0247,-0.1693 -0.0705,0.1164 -0.1622,0.2116 -0.2716,0.2857 -0.1094,0.0741 -0.2293,0.1094 -0.3634,0.1094 -0.2187,0 -0.3916,-0.0671 -0.5186,-0.2082 -0.1234,-0.1376 -0.1869,-0.3245 -0.1869,-0.5574 0,-0.2504 0.0846,-0.4445 0.254,-0.5891 0.1728,-0.1411 0.4092,-0.2117 0.7161,-0.2117l0.3634 0 0 -0.2681c0,-0.1587 -0.0353,-0.2822 -0.1059,-0.3739 -0.0705,-0.0882 -0.1693,-0.1306 -0.2998,-0.1306 -0.1164,0 -0.2117,0.0389 -0.2822,0.12 -0.0741,0.0811 -0.1094,0.1799 -0.1094,0.2999l-0.4657 -0.0036 -0.007 -0.0141c-0.0071,-0.2011 0.0741,-0.3775 0.2434,-0.5362 0.1658,-0.1552 0.3845,-0.2328 0.6526,-0.2328 0.2576,0 0.4657,0.074 0.6244,0.2257 0.1623,0.1517 0.2399,0.3705 0.2399,0.6491l0 1.2136c0,0.0988 0.0071,0.1976 0.0177,0.2928 0.0141,0.0917 0.0317,0.1835 0.0599,0.2752l-0.4938 0zm-0.5927 -0.3246l0 0c0.1164,0 0.2187,-0.0353 0.314,-0.1023 0.0952,-0.067 0.1622,-0.1517 0.2046,-0.254l0 -0.5327 -0.3704 0c-0.1482,0 -0.2646,0.0494 -0.3493,0.1447 -0.0811,0.0952 -0.1235,0.2116 -0.1235,0.3492 0,0.12 0.0283,0.2117 0.0847,0.2858 0.0564,0.0705 0.1376,0.1093 0.2399,0.1093zm3.4219 0.3246l-0.4903 0 0 -1.1148 -0.8679 0 0 1.1148 -0.4903 0 0 -2.6106 0.4903 0 0 1.1254 0.8679 0 0 -1.1254 0.4903 0 0 2.6106zm1.9403 -2.6106l0.4868 0 0 2.6106 -0.4868 0 0 -1.771 -0.0141 0 -0.8572 1.771 -0.4904 0 0 -2.6106 0.4904 0 0 1.7674 0.0141 0.0036 0.8572 -1.771zm2.4271 0l0.4869 0 0 2.6106 -0.4869 0 0 -1.771 -0.0141 0 -0.8608 1.771 -0.4868 0 0 -2.6106 0.4868 0 0 1.7674 0.0141 0.0036 0.8608 -1.771z"/>
  <path class="fil15" d="M39.9607 235.958c0.3951,0 1.0407,-0.1869 1.2912,-0.455l0.6385 -0.6245c0.3916,-0.3598 0.9419,-0.5256 1.6228,-0.508l0 2.0391 -3.5525 -0.4516z"/>
  <path class="fil17" d="M43.5132 235.426c0.2928,0 0.5292,0.2399 0.5292,0.5292 0,0.2928 -0.2364,0.5292 -0.5292,0.5292 -0.2928,0 -0.5292,-0.2364 -0.5292,-0.5292 0,-0.2893 0.2364,-0.5292 0.5292,-0.5292z"/>
  <path class="fil17" d="M40.3452 239.281c-0.2046,-0.2399 -0.2716,-0.5433 -0.2716,-0.8114l0 -0.7937c0,-0.2188 0.1799,-0.3987 0.3986,-0.3987 0.2188,0 0.3952,0.1799 0.3952,0.3987l0 0.7937c0,0.1517 0.0388,0.2434 0.0811,0.2963 0.0353,0.0389 0.1129,0.0988 0.3175,0.0988l2.3812 0c0.2188,0 0.3952,0.1799 0.3952,0.3987 0,0.2187 -0.1764,0.3951 -0.3952,0.3951l-2.3812 0c-0.3845,0 -0.7056,-0.127 -0.9208,-0.3775z"/>
  <path class="fil17" d="M42.984 239.264c0,-0.2188 0.1799,-0.3987 0.3987,-0.3987l2.3812 0c0.2011,0 0.2787,-0.0599 0.314,-0.0988 0.0458,-0.0529 0.0811,-0.1446 0.0811,-0.2963l0 -0.7937c0,-0.2188 0.1799,-0.3987 0.3987,-0.3987 0.2187,0 0.3951,0.1799 0.3951,0.3987l0 0.7937c0,0.2681 -0.0635,0.5715 -0.2717,0.8114 -0.2152,0.2505 -0.5362,0.3775 -0.9172,0.3775l-2.3812 0c-0.2188,0 -0.3987,-0.1764 -0.3987,-0.3951z"/>
  <path class="fil17" d="M42.0844 248.21l-2.487 -2.6458c-0.1482,-0.1588 -0.1412,-0.4092 0.0176,-0.5609 0.1623,-0.1482 0.4127,-0.1411 0.5609,0.0176l2.2296 2.3707 4.7907 -4.0923c0.1693,-0.1411 0.4198,-0.1234 0.5609,0.0424 0.1411,0.1693 0.1235,0.4198 -0.0459,0.5609l-5.08 4.3392c-0.1587,0.1375 -0.3986,0.1234 -0.5468,-0.0318z"/>
  <path class="fil16" d="M92.1648 189.695l-0.4445 0 0 -0.8573 -1.9862 0 0 0.8573 -0.4374 0 -0.0529 -1.2277 0.2363 0c0.1059,-0.1164 0.1976,-0.314 0.2858,-0.5962 0.0846,-0.2822 0.134,-0.6773 0.1481,-1.1818l0.0741 -1.3617 1.8486 0 0 3.1397 0.3739 0 -0.0458 1.2277zm-1.7604 -3.0057l0 0c-0.0141,0.4057 -0.0564,0.7549 -0.134,1.0548 -0.0741,0.2963 -0.1694,0.5362 -0.2858,0.7232l1.3653 0 0 -2.7658 -0.8926 0 -0.0529 0.9878zm2.0955 0.6809c0,-0.3458 0.0917,-0.6315 0.2717,-0.8538 0.1799,-0.2257 0.4303,-0.3351 0.7443,-0.3351 0.314,0 0.5609,0.1094 0.7444,0.3316 0.1799,0.2223 0.2716,0.508 0.2716,0.8573l0 0.3316c0,0.3492 -0.0917,0.635 -0.2716,0.8537 -0.1799,0.2222 -0.4269,0.3316 -0.7409,0.3316 -0.3175,0 -0.5679,-0.1094 -0.7478,-0.3316 -0.18,-0.2187 -0.2717,-0.5045 -0.2717,-0.8537l0 -0.3316zm0.4904 0.3316l0 0c0,0.2363 0.0423,0.4339 0.1305,0.5856 0.0882,0.1517 0.2187,0.2293 0.3986,0.2293 0.1729,0 0.3034,-0.0776 0.3916,-0.2293 0.0882,-0.1517 0.1306,-0.3493 0.1306,-0.5856l0 -0.3316c0,-0.2364 -0.0424,-0.4304 -0.1306,-0.5821 -0.0882,-0.1553 -0.2187,-0.2329 -0.3951,-0.2329 -0.1764,0 -0.3069,0.0776 -0.3951,0.2293 -0.0882,0.1517 -0.1305,0.3493 -0.1305,0.5857l0 0.3316zm3.8629 1.1359l-0.4904 0 0 -1.1148 -0.8678 0 0 1.1148 -0.4904 0 0 -2.6105 0.4904 0 0 1.1253 0.8678 0 0 -1.1253 0.4904 0 0 2.6105zm1.8979 0c-0.0176,-0.06 -0.0317,-0.1164 -0.0423,-0.1764 -0.0106,-0.0564 -0.0176,-0.1129 -0.0212,-0.1693 -0.074,0.1164 -0.1658,0.2117 -0.2751,0.2857 -0.1059,0.0741 -0.2293,0.1094 -0.3634,0.1094 -0.2187,0 -0.3916,-0.067 -0.515,-0.2081 -0.1271,-0.1376 -0.187,-0.3246 -0.187,-0.5574 0,-0.2505 0.0846,-0.4445 0.254,-0.5892 0.1693,-0.1411 0.4057,-0.2116 0.7126,-0.2116l0.3669 0 0 -0.2681c0,-0.1588 -0.0353,-0.2823 -0.1059,-0.374 -0.0705,-0.0882 -0.1728,-0.1305 -0.3033,-0.1305 -0.1165,0 -0.2117,0.0388 -0.2823,0.1199 -0.0705,0.0812 -0.1093,0.1799 -0.1093,0.2999l-0.4622 -0.0035 -0.0106 -0.0142c-0.007,-0.201 0.0741,-0.3774 0.2435,-0.5362 0.1693,-0.1552 0.3845,-0.2328 0.6526,-0.2328 0.2575,0 0.4657,0.0741 0.6244,0.2258 0.1623,0.1517 0.2399,0.3704 0.2399,0.6491l0 1.2135c0,0.0988 0.0071,0.1976 0.0212,0.2928 0.0106,0.0918 0.0317,0.1835 0.0564,0.2752l-0.4939 0zm-0.5891 -0.3245l0 0c0.1129,0 0.2187,-0.0353 0.3104,-0.1023 0.0953,-0.0671 0.1623,-0.1517 0.2082,-0.2541l0 -0.5326 -0.374 0c-0.1481,0 -0.2646,0.0493 -0.3457,0.1446 -0.0847,0.0952 -0.127,0.2117 -0.127,0.3492 0,0.12 0.0282,0.2117 0.0847,0.2858 0.0564,0.0706 0.1376,0.1094 0.2434,0.1094zm3.302 -1.9121l-0.7232 0 0 2.2366 -0.4904 0 0 -2.2366 -0.709 0 0 -0.3739 1.9226 0 0 0.3739zm0.8996 0.508l0.4868 0c0.2752,0 0.4939,0.0776 0.6527,0.2399 0.1587,0.1587 0.2398,0.3669 0.2398,0.6209 0,0.254 -0.0811,0.4621 -0.2398,0.6244 -0.1588,0.1623 -0.3775,0.2434 -0.6527,0.2434l-0.9772 0 0 -2.6105 0.4904 0 0 0.8819zm2.2436 1.7286l0 0 -0.4903 0 0 -2.6105 0.4903 0 0 2.6105zm-2.2436 -1.3547l0 0 0 0.9843 0.4868 0c0.1341,0 0.2364,-0.0459 0.3034,-0.1376 0.0635,-0.0917 0.0988,-0.2081 0.0988,-0.3492 0,-0.1376 -0.0353,-0.254 -0.0988,-0.3528 -0.067,-0.0953 -0.1693,-0.1447 -0.3034,-0.1447l-0.4868 0z"/>
  <path class="fil16" d="M146.598 87.7812l-0.3352 0 0 1.5734 -0.4903 0 0 -3.5102 0.4903 0 0 1.5417 0.2893 0 0.9278 -1.5417 0.5856 0 -1.1042 1.6652 1.1889 1.845 -0.5997 0 -0.9525 -1.5734zm3.7042 -1.0372l0 2.6106 -0.4904 0 0 -2.2296 -0.6526 0 0 0.7514c0,0.5116 -0.06,0.8855 -0.1835,1.1219 -0.1235,0.2363 -0.3351,0.3563 -0.6315,0.3563l-0.1058 0 0 -0.3916 0.0741 0c0.1411,0 0.2363,-0.0811 0.2857,-0.2364 0.0494,-0.1552 0.0706,-0.4374 0.0706,-0.8502l0 -1.1324 1.6334 0zm1.9367 0l0.4868 0 0 2.6106 -0.4868 0 0 -1.771 -0.0141 0 -0.8573 1.771 -0.4903 0 0 -2.6106 0.4903 0 0 1.7674 0.0142 0.0036 0.8572 -1.771zm2.9104 2.6106l-0.4868 0 0 -1.1148 -0.8714 0 0 1.1148 -0.4868 0 0 -2.6106 0.4868 0 0 1.1254 0.8714 0 0 -1.1254 0.4868 0 0 2.6106zm1.9438 -2.6106l0.4869 0 0 2.6106 -0.4869 0 0 -1.771 -0.0141 0 -0.8608 1.771 -0.4903 0 0 -2.6106 0.4903 0 0 1.7674 0.0141 0.0036 0.8608 -1.771zm1.8168 1.5099l-0.2434 0 0 1.1007 -0.4903 0 0 -2.6106 0.4903 0 0 1.0936 0.2328 0 0.5998 -1.0936 0.6103 0 -0.8114 1.2242 0.8784 1.3864 -0.6385 0 -0.628 -1.1007zm2.914 1.1007c-0.0177,-0.06 -0.0318,-0.1164 -0.0459,-0.1764 -0.0106,-0.0565 -0.0176,-0.1129 -0.0212,-0.1693 -0.0705,0.1164 -0.1622,0.2116 -0.2716,0.2857 -0.1094,0.0741 -0.2293,0.1094 -0.3634,0.1094 -0.2222,0 -0.3915,-0.0671 -0.5185,-0.2082 -0.1235,-0.1376 -0.187,-0.3245 -0.187,-0.5574 0,-0.2504 0.0847,-0.4445 0.254,-0.5891 0.1693,-0.1411 0.4092,-0.2117 0.7161,-0.2117l0.3634 0 0 -0.2681c0,-0.1587 -0.0353,-0.2822 -0.1058,-0.3739 -0.0706,-0.0882 -0.1694,-0.1305 -0.2999,-0.1305 -0.1199,0 -0.2117,0.0388 -0.2858,0.1199 -0.0705,0.0811 -0.1058,0.1799 -0.1058,0.2999l-0.4657 -0.0036 -0.007 -0.0141c-0.0071,-0.2011 0.0741,-0.3775 0.2399,-0.5362 0.1693,-0.1552 0.388,-0.2328 0.6561,-0.2328 0.2576,0 0.4657,0.074 0.6245,0.2257 0.1587,0.1517 0.2399,0.3705 0.2399,0.6491l0 1.2136c0,0.0988 0.007,0.1976 0.0176,0.2928 0.0141,0.0917 0.0317,0.1835 0.06,0.2752l-0.4939 0zm-0.5927 -0.3246l0 0c0.1164,0 0.2187,-0.0353 0.314,-0.1023 0.0952,-0.067 0.1623,-0.1517 0.2046,-0.254l0 -0.5327 -0.3704 0c-0.1482,0 -0.2646,0.0494 -0.3493,0.1447 -0.0811,0.0952 -0.1234,0.2116 -0.1234,0.3492 0,0.12 0.0282,0.2117 0.0846,0.2858 0.0565,0.0705 0.1376,0.1093 0.2399,0.1093z"/>
 </g>
</svg>
