<?xml version="1.0" encoding="UTF-8"?>
<!-- Generator: Adobe Illustrator 15.0.0, SVG Export Plug-In . SVG Version: 6.00 Build 0)  -->
<!DOCTYPE svg PUBLIC "-//W3C//DTD SVG 1.1//EN" "http://www.w3.org/Graphics/SVG/1.1/DTD/svg11.dtd">
<svg version="1.1" id="Layer_1" xmlns="http://www.w3.org/2000/svg" xmlns:xlink="http://www.w3.org/1999/xlink" x="0px" y="0px" width="120px" height="120px" viewBox="0 0 120 120" enable-background="new 0 0 120 120" xml:space="preserve">
<g>
	<circle fill="#E9EAEB" cx="54.643" cy="68.5" r="41.837"/>
	<path fill="#A3D4FF" d="M57.64,86.537c-1.224-3.493-4.523-5.834-8.228-5.834H37.21V68.5l3.486,3.486c0,0,7.552,0,12.202,0   c7.974,0,6.973-8.716,6.973-8.716H47.669L35.467,51.068h-6.973c-3.85,0-6.972,3.122-6.972,6.973v26.147   c0,5.775,4.683,10.459,10.459,10.459h15.688l10.459,20.919h9.67L57.64,86.537z"/>
	<path fill="#FFFFFF" stroke="#2A5082" stroke-width="2" stroke-miterlimit="10" d="M33.724,45.674   c-4.867,0-8.716-3.982-8.716-8.894v-2.966c0-4.913,3.849-8.894,8.716-8.894c4.868,0,8.716,3.981,8.716,8.894v2.966   C42.439,41.692,38.591,45.674,33.724,45.674z"/>
	<line fill="none" stroke="#2A5082" stroke-width="2" stroke-miterlimit="10" x1="37.21" y1="71.986" x2="98.222" y2="71.986"/>
	<polyline fill="none" stroke="#2A5082" stroke-width="2" stroke-miterlimit="10" points="63.357,65.014 73.817,65.014    73.817,71.986  "/>
	<polyline fill="none" stroke="#2A5082" stroke-width="2" stroke-miterlimit="10" points="80.79,71.986 80.79,65.014 87.763,65.014    91.249,65.014 91.249,44.095 82.533,44.095  "/>
	<path fill="#FFFFFF" stroke="#2A5082" stroke-width="2" stroke-miterlimit="10" d="M80.79,58.041h-5.229V21.434h5.229   c1.925,0,3.486,1.561,3.486,3.486v29.634C84.276,56.48,82.715,58.041,80.79,58.041z"/>
	<line fill="none" stroke="#2A5082" stroke-width="2" stroke-miterlimit="10" x1="30.237" y1="105.106" x2="30.237" y2="115.566"/>
	<path fill="none" stroke="#2A5082" stroke-width="2" stroke-miterlimit="10" d="M58.128,115.566L47.669,94.647H31.98   c-5.776,0-10.459-4.684-10.459-10.459V58.041c0-3.851,3.122-6.973,6.972-6.973h6.973l12.202,12.202h12.202   c0,0,1.001,8.716-6.973,8.716c-4.649,0-12.202,0-12.202,0L30.237,61.527"/>
	<path fill="none" stroke="#2A5082" stroke-width="2" stroke-miterlimit="10" d="M37.21,68.5v12.203h12.202   c3.705,0,7.004,2.341,8.228,5.834l10.159,29.029"/>
	<path fill="none" stroke="#2A5082" stroke-width="2" stroke-miterlimit="10" d="M14.548,54.555v33.121   c0,7.7,6.245,13.944,13.945,13.944h15.689"/>
	<polyline fill="none" stroke="#2A5082" stroke-width="2" stroke-miterlimit="10" points="14.548,80.703 28.494,80.703    33.724,87.676  "/>
	<line fill="none" stroke="#2A5082" stroke-width="2" stroke-miterlimit="10" x1="101.709" y1="71.986" x2="105.195" y2="71.986"/>
</g>
<line fill="none" stroke="#2A5082" stroke-width="2" stroke-miterlimit="10" x1="11.345" y1="114.822" x2="103" y2="114.822"/>
<line fill="none" stroke="#2A5082" stroke-width="2" stroke-miterlimit="10" x1="104.452" y1="114.822" x2="111.785" y2="114.822"/>
<line fill="none" stroke="#2A5082" stroke-width="2" stroke-miterlimit="10" x1="114.334" y1="114.822" x2="118" y2="114.822"/>
<line fill="none" stroke="#2A5082" stroke-width="2" stroke-miterlimit="10" x1="4.834" y1="114.822" x2="8.5" y2="114.822"/>
<line fill="none" stroke="#BCC0C4" stroke-width="2" stroke-miterlimit="10" x1="102.283" y1="26.849" x2="102.283" y2="34.972"/>
<line fill="none" stroke="#BCC0C4" stroke-width="2" stroke-miterlimit="10" x1="106.344" y1="30.91" x2="98.222" y2="30.91"/>
<circle fill="none" stroke="#BCC0C4" stroke-width="2" stroke-miterlimit="10" cx="110.405" cy="11.958" r="4.062"/>
<path fill="none" stroke="#BCC0C4" stroke-width="2" stroke-miterlimit="10" d="M58.936,11.652H46.287  C45.349,9.819,43.142,7.93,40.57,7.93c-0.816,0-1.594,0.193-2.308,0.48c-1.434-3.822-5.11-6.689-9.432-6.689  c-5.561,0-10.069,6.266-10.08,9.932H3.945"/>
<line fill="none" stroke="#BCC0C4" stroke-width="2" stroke-miterlimit="10" x1="13.109" y1="26.316" x2="0.278" y2="26.316"/>
<line fill="none" stroke="#BCC0C4" stroke-width="2" stroke-miterlimit="10" x1="16.775" y1="26.316" x2="20.443" y2="26.316"/>
<line fill="none" stroke="#BCC0C4" stroke-width="2" stroke-miterlimit="10" x1="62.604" y1="11.652" x2="66.268" y2="11.652"/>
<line fill="none" stroke="#BCC0C4" stroke-width="2" stroke-miterlimit="10" x1="69.936" y1="11.652" x2="73.602" y2="11.652"/>
</svg>