<?xml version="1.0" encoding="UTF-8"?>
<!-- Generator: Adobe Illustrator 15.0.0, SVG Export Plug-In . SVG Version: 6.00 Build 0)  -->
<!DOCTYPE svg PUBLIC "-//W3C//DTD SVG 1.1//EN" "http://www.w3.org/Graphics/SVG/1.1/DTD/svg11.dtd">
<svg version="1.1" id="Layer_1" xmlns="http://www.w3.org/2000/svg" xmlns:xlink="http://www.w3.org/1999/xlink" x="0px" y="0px" width="120px" height="120px" viewBox="0 0 120 120" enable-background="new 0 0 120 120" xml:space="preserve">
<line fill="none" stroke="#2A5082" stroke-width="2" stroke-miterlimit="10" x1="11.345" y1="114.822" x2="103" y2="114.822"/>
<line fill="none" stroke="#2A5082" stroke-width="2" stroke-miterlimit="10" x1="104.452" y1="114.822" x2="111.785" y2="114.822"/>
<line fill="none" stroke="#2A5082" stroke-width="2" stroke-miterlimit="10" x1="114.334" y1="114.822" x2="118" y2="114.822"/>
<line fill="none" stroke="#2A5082" stroke-width="2" stroke-miterlimit="10" x1="4.834" y1="114.822" x2="8.5" y2="114.822"/>
<g>
	<path fill="#E9EAEB" d="M39.714,93.854c-3.17,0-5.741-2.57-5.741-5.74V37.516c-11.917,6.035-20.091,18.389-20.091,32.66   c0,20.21,16.384,36.595,36.595,36.595c11.178,0,21.179-5.017,27.891-12.916H39.714z"/>
	<path fill="none" stroke="#2A5082" stroke-width="2" stroke-miterlimit="10" d="M66.98,93.854H39.714   c-3.17,0-5.741-2.57-5.741-5.74V24.97c0-3.17,2.57-5.741,5.741-5.741h47.358c3.17,0,5.74,2.57,5.74,5.741v37.312"/>
	<polyline fill="none" stroke="#2A5082" stroke-width="2" stroke-miterlimit="10" points="61.24,82.374 39.714,82.374 39.714,30.71    87.072,30.71 87.072,62.282  "/>
	<path fill="#FFFFFF" d="M94.248,69.458h-2.87c0-1.614-1.525-2.87-2.87-2.87h-2.87c-0.55-0.862-1.967-1.436-2.871-1.436h-2.87   V55.107c0-1.585-1.285-2.87-2.87-2.87s-2.87,1.285-2.87,2.87v21.527l-1.917,1.84l-3.75-5.813c-2.299-3.163-5.813-1.388-5.813,0   c0,0,4.354,13.893,4.978,14.868c1.002,1.57,5.068,5.099,5.068,6.326c0,1.229,0,5.741,0,5.741h21.526c0,0,0-2.373,0-4.306   c0-1.935,2.87-4.271,2.87-7.176V72.328C97.118,70.714,95.594,69.458,94.248,69.458z"/>
	<path fill="none" stroke="#2A5082" stroke-width="2" stroke-miterlimit="10" d="M72.722,99.596c0,0,0-4.513,0-5.741   c0-1.228-4.066-4.756-5.068-6.326c-0.623-0.976-4.978-14.868-4.978-14.868c0-1.388,3.515-3.163,5.813,0l3.75,5.813l1.917-1.84   V55.107c0-1.585,1.285-2.87,2.87-2.87l0,0c1.585,0,2.87,1.285,2.87,2.87v18.657v-1.436v-7.176h2.87   c0.904,0,2.321,0.573,2.871,1.436h2.87c1.345,0,2.87,1.256,2.87,2.87h2.87c1.346,0,2.87,1.256,2.87,2.87v15.786   c0,2.904-2.87,5.241-2.87,7.176c0,1.933,0,4.306,0,4.306"/>
	<line fill="none" stroke="#2A5082" stroke-width="2" stroke-miterlimit="10" x1="85.638" y1="66.588" x2="85.638" y2="73.764"/>
	<line fill="none" stroke="#2A5082" stroke-width="2" stroke-miterlimit="10" x1="91.378" y1="69.458" x2="91.378" y2="75.198"/>
	<rect x="69.852" y="98.16" fill="#A3D4FF" width="27.267" height="16.176"/>
	<polyline fill="none" stroke="#2A5082" stroke-width="2" stroke-miterlimit="10" points="97.118,114.336 97.118,98.16    69.852,98.16 69.852,114.336  "/>
	<line fill="none" stroke="#2A5082" stroke-width="2" stroke-miterlimit="10" x1="58.37" y1="24.97" x2="69.852" y2="24.97"/>
	<polygon fill="#FFFFFF" stroke="#2A5082" stroke-width="2" stroke-miterlimit="10" points="62.705,50.802 45.484,50.802    45.454,36.451 62.676,36.451  "/>
	<line fill="none" stroke="#2A5082" stroke-width="2" stroke-miterlimit="10" x1="66.98" y1="39.321" x2="82.767" y2="39.321"/>
	<line fill="none" stroke="#2A5082" stroke-width="2" stroke-miterlimit="10" x1="66.98" y1="45.061" x2="78.462" y2="45.061"/>
	<line fill="none" stroke="#2A5082" stroke-width="2" stroke-miterlimit="10" x1="44.019" y1="56.542" x2="64.11" y2="56.542"/>
	<line fill="none" stroke="#2A5082" stroke-width="2" stroke-miterlimit="10" x1="44.019" y1="62.282" x2="64.11" y2="62.282"/>
	<line fill="none" stroke="#2A5082" stroke-width="2" stroke-miterlimit="10" x1="44.019" y1="68.022" x2="55.5" y2="68.022"/>
</g>
<path fill="none" stroke="#BCC0C4" stroke-width="2" stroke-miterlimit="10" d="M63.666,12.833h-12.65  C50.079,11,47.872,9.111,45.299,9.111c-0.816,0-1.594,0.193-2.308,0.48c-1.434-3.822-5.11-6.689-9.432-6.689  c-5.561,0-10.069,6.266-10.08,9.932H8.675"/>
<line fill="none" stroke="#BCC0C4" stroke-width="2" stroke-miterlimit="10" x1="17.839" y1="27.498" x2="5.008" y2="27.498"/>
<line fill="none" stroke="#BCC0C4" stroke-width="2" stroke-miterlimit="10" x1="21.505" y1="27.498" x2="25.173" y2="27.498"/>
<line fill="none" stroke="#BCC0C4" stroke-width="2" stroke-miterlimit="10" x1="67.333" y1="12.833" x2="70.998" y2="12.833"/>
<line fill="none" stroke="#BCC0C4" stroke-width="2" stroke-miterlimit="10" x1="74.665" y1="12.833" x2="78.331" y2="12.833"/>
</svg>