<?xml version="1.0" encoding="UTF-8"?>
<!-- Generator: Adobe Illustrator 15.0.0, SVG Export Plug-In . SVG Version: 6.00 Build 0)  -->
<!DOCTYPE svg PUBLIC "-//W3C//DTD SVG 1.1//EN" "http://www.w3.org/Graphics/SVG/1.1/DTD/svg11.dtd">
<svg version="1.1" id="Layer_1" xmlns="http://www.w3.org/2000/svg" xmlns:xlink="http://www.w3.org/1999/xlink" x="0px" y="0px" width="120px" height="120px" viewBox="-10 -10 120 120" enable-background="new -10 -10 120 120" xml:space="preserve">
<g>
	<rect x="22.292" y="31.92" fill="none" stroke="#2A5082" stroke-width="2" stroke-miterlimit="10" width="49.386" height="74.08"/>
	
		<rect x="27.99" y="22.423" fill="#E9EAEB" stroke="#2A5082" stroke-width="2" stroke-miterlimit="10" width="37.989" height="9.498"/>
	
		<rect x="43.186" y="90.805" fill="#E9EAEB" stroke="#2A5082" stroke-width="2" stroke-miterlimit="10" width="11.395" height="15.195"/>
	<polyline fill="none" stroke="#2A5082" stroke-width="2" stroke-miterlimit="10" points="31.789,58.514 31.789,49.016    41.287,49.016 41.287,58.514  "/>
	<polyline fill="none" stroke="#2A5082" stroke-width="2" stroke-miterlimit="10" points="31.789,73.709 31.789,64.211    41.287,64.211 41.287,73.709  "/>
	
		<rect x="3.297" y="58.514" fill="none" stroke="#2A5082" stroke-width="2" stroke-miterlimit="10" width="18.995" height="47.486"/>
	
		<rect x="8.995" y="49.016" fill="#E9EAEB" stroke="#2A5082" stroke-width="2" stroke-miterlimit="10" width="13.297" height="9.498"/>
	<path fill="#A3D4FF" stroke="#2A5082" stroke-width="2" stroke-miterlimit="10" d="M71.818,45.217   c-11.463,0-20.757,9.293-20.757,20.756c0,17.912,17.7,20.334,19.188,38.546c0.065,0.828,0.735,1.481,1.568,1.481   c0.831,0,1.5-0.653,1.564-1.481c1.489-18.212,19.19-20.634,19.19-38.546C92.573,54.51,83.278,45.217,71.818,45.217z"/>
	<circle fill="#FFFFFF" stroke="#2A5082" stroke-width="2" stroke-miterlimit="10" cx="71.678" cy="66.112" r="7.598"/>
	<line fill="none" stroke="#2A5082" stroke-width="2" stroke-miterlimit="10" x1="-2.402" y1="106" x2="92.573" y2="106"/>
	<path fill="none" stroke="#BCC0C4" stroke-width="2" stroke-miterlimit="10" d="M58.381,9.127H45.272   c-0.971-1.899-3.258-3.857-5.924-3.857c-0.845,0-1.651,0.2-2.391,0.497c-1.486-3.96-5.295-6.931-9.774-6.931   c-5.762,0-10.434,6.493-10.445,10.292H1.397"/>
	<line fill="none" stroke="#BCC0C4" stroke-width="2" stroke-miterlimit="10" x1="10.894" y1="24.323" x2="-2.402" y2="24.323"/>
	<path fill="none" stroke="#BCC0C4" stroke-width="2" stroke-miterlimit="10" d="M111.566,18.625h-5.649   c-1.313-3.799-4.04-4.746-7.307-4.35c-1.425-2.455-4.049-3.966-7.094-3.966c-4.52,0-8.182,2.618-8.223,8.316h-7.818"/>
	<line fill="none" stroke="#BCC0C4" stroke-width="2" stroke-miterlimit="10" x1="14.693" y1="24.323" x2="18.493" y2="24.323"/>
	<line fill="none" stroke="#BCC0C4" stroke-width="2" stroke-miterlimit="10" x1="62.181" y1="9.127" x2="65.979" y2="9.127"/>
	<line fill="none" stroke="#BCC0C4" stroke-width="2" stroke-miterlimit="10" x1="69.778" y1="9.127" x2="73.577" y2="9.127"/>
	<line fill="none" stroke="#2A5082" stroke-width="2" stroke-miterlimit="10" x1="-6.201" y1="106" x2="-10" y2="106"/>
	<line fill="none" stroke="#2A5082" stroke-width="2" stroke-miterlimit="10" x1="96.37" y1="106" x2="103.969" y2="106"/>
	<line fill="none" stroke="#2A5082" stroke-width="2" stroke-miterlimit="10" x1="107.768" y1="106" x2="111.566" y2="106"/>
</g>
</svg>