<?xml version="1.0" encoding="UTF-8" ?>
<!DOCTYPE svg PUBLIC "-//W3C//DTD SVG 1.1//EN" "http://www.w3.org/Graphics/SVG/1.1/DTD/svg11.dtd">
<svg width="1962pt" height="342pt" viewBox="0 0 1962 342" version="1.1" xmlns="http://www.w3.org/2000/svg">
<g id="#ffffffff">
<path fill="#ffffff" opacity="1.00" d=" M 114.50 0.00 L 227.57 0.00 C 229.68 0.47 231.84 0.64 234.01 0.69 C 261.74 1.94 288.71 14.09 308.26 33.75 C 327.23 52.62 339.21 78.38 341.14 105.09 C 343.51 133.47 334.61 162.59 316.74 184.77 C 295.67 211.50 262.07 227.74 228.01 227.51 C 227.99 265.68 228.01 303.84 228.00 342.00 L 114.00 342.00 C 114.00 303.83 114.00 265.67 114.00 227.50 C 76.00 227.50 38.00 227.50 0.00 227.50 L 0.00 113.50 C 38.17 113.50 76.33 113.50 114.50 113.50 C 114.50 75.66 114.50 37.83 114.50 0.00 Z" />
<path fill="#ffffff" opacity="1.00" d=" M 1255.58 77.83 C 1272.89 75.70 1291.10 77.38 1306.92 85.14 C 1324.30 93.61 1337.69 109.04 1345.45 126.58 C 1353.88 145.76 1355.57 167.35 1353.07 187.98 C 1350.50 208.91 1341.20 229.22 1325.83 243.83 C 1313.99 255.31 1298.19 262.30 1281.88 264.23 C 1263.92 266.33 1244.99 264.41 1228.78 255.97 C 1213.44 248.07 1201.58 234.52 1193.83 219.29 C 1183.69 199.23 1181.51 175.93 1184.38 153.86 C 1187.29 131.53 1197.90 109.92 1215.17 95.23 C 1226.49 85.52 1240.83 79.68 1255.58 77.83 M 1256.61 106.76 C 1242.98 109.98 1232.12 120.69 1226.36 133.17 C 1219.92 147.07 1218.63 162.78 1219.46 177.91 C 1220.40 195.09 1226.54 212.70 1239.58 224.44 C 1248.62 233.09 1261.70 237.08 1274.04 234.97 C 1289.41 232.84 1301.98 221.14 1308.14 207.31 C 1315.34 191.19 1316.01 172.95 1314.16 155.63 C 1312.32 139.46 1305.56 122.84 1291.88 113.18 C 1281.86 105.87 1268.55 103.92 1256.61 106.76 Z" />
<path fill="#ffffff" opacity="1.00" d=" M 1894.53 77.78 C 1903.92 76.48 1913.54 76.78 1922.84 78.56 C 1935.98 81.16 1947.54 88.64 1957.58 97.23 C 1951.66 104.34 1945.71 111.42 1939.80 118.52 C 1933.00 112.02 1924.54 106.92 1915.14 105.51 C 1908.21 104.54 1900.71 104.77 1894.47 108.25 C 1889.04 111.26 1885.42 117.71 1886.60 123.94 C 1887.56 128.43 1890.94 131.84 1894.27 134.77 C 1907.85 146.40 1923.67 155.07 1937.23 166.71 C 1948.30 176.05 1958.34 188.05 1960.65 202.79 C 1962.35 210.18 1961.17 217.78 1959.61 225.08 C 1955.43 243.00 1941.09 258.34 1923.12 262.83 C 1904.41 267.50 1883.77 264.74 1867.20 254.76 C 1858.52 249.61 1850.94 242.80 1844.30 235.25 C 1850.52 227.49 1856.75 219.74 1862.97 211.98 C 1872.84 223.75 1886.34 233.89 1902.09 235.27 C 1910.39 236.28 1919.55 233.74 1924.95 227.06 C 1929.74 221.24 1929.49 212.55 1925.84 206.22 C 1922.28 199.56 1915.78 195.44 1909.94 191.02 C 1898.22 182.05 1885.65 174.15 1874.56 164.37 C 1866.88 157.52 1859.78 149.53 1856.14 139.75 C 1850.17 124.10 1853.83 105.37 1865.13 93.02 C 1872.57 84.45 1883.40 79.35 1894.53 77.78 Z" />
<path fill="#ffffff" opacity="1.00" d=" M 455.68 81.48 C 469.29 81.46 482.91 81.48 496.52 81.47 C 510.48 115.29 524.44 149.12 538.40 182.94 C 552.01 149.12 565.60 115.29 579.21 81.47 C 593.69 81.47 608.17 81.47 622.65 81.47 C 622.67 141.31 622.64 201.15 622.66 260.99 C 611.91 261.01 601.16 260.99 590.41 261.00 C 590.40 217.07 590.43 173.15 590.39 129.22 C 576.27 163.62 562.34 198.09 548.30 232.52 C 541.41 232.54 534.53 232.53 527.64 232.52 C 513.69 198.19 499.69 163.88 485.77 129.54 C 485.80 173.35 485.76 217.17 485.79 260.99 C 475.75 261.01 465.72 261.00 455.69 261.00 C 455.68 201.16 455.69 141.32 455.68 81.48 Z" />
<path fill="#ffffff" opacity="1.00" d=" M 678.78 81.48 C 717.92 81.47 757.05 81.46 796.19 81.48 C 796.18 91.48 796.19 101.49 796.19 111.49 C 768.92 111.51 741.65 111.51 714.39 111.49 C 714.37 123.82 714.37 136.15 714.39 148.48 C 734.64 148.48 754.88 148.45 775.13 148.49 C 775.11 158.66 775.13 168.83 775.12 179.00 C 754.87 179.01 734.62 178.99 714.37 179.01 C 714.39 196.51 714.36 214.01 714.39 231.51 C 744.00 231.49 773.61 231.49 803.22 231.51 C 803.22 241.34 803.22 251.17 803.22 261.00 C 761.74 261.00 720.26 261.00 678.78 261.00 C 678.78 201.16 678.78 141.32 678.78 81.48 Z" />
<path fill="#ffffff" opacity="1.00" d=" M 842.68 81.48 C 857.77 81.46 872.87 81.48 887.96 81.47 C 900.69 81.54 913.51 80.98 926.10 83.23 C 942.68 85.92 958.97 93.01 970.62 105.37 C 984.25 119.74 990.88 139.47 992.75 158.89 C 993.96 174.75 992.79 190.95 988.17 206.22 C 983.53 221.58 974.20 235.69 961.03 245.03 C 945.96 255.75 927.28 260.40 908.99 260.97 C 886.89 261.04 864.79 260.98 842.69 261.00 C 842.68 201.16 842.69 141.32 842.68 81.48 M 876.29 231.51 C 889.36 231.20 902.54 232.33 915.51 230.27 C 925.44 228.71 935.21 224.52 942.13 217.06 C 951.59 207.17 955.31 193.27 956.24 179.94 C 957.06 165.97 956.21 151.41 950.33 138.50 C 945.61 127.84 936.42 119.38 925.46 115.42 C 909.76 109.46 892.68 112.10 876.29 111.49 C 876.28 151.50 876.28 191.50 876.29 231.51 Z" />
<path fill="#ffffff" opacity="1.00" d=" M 1033.13 81.46 C 1051.43 81.48 1069.73 81.47 1088.03 81.47 C 1100.54 81.10 1113.32 82.85 1124.82 87.96 C 1138.94 94.17 1150.28 106.36 1155.42 120.90 C 1160.13 134.40 1160.12 149.33 1156.58 163.10 C 1152.28 179.58 1140.13 193.64 1124.61 200.55 C 1106.95 208.55 1086.92 208.42 1068.02 206.28 C 1068.04 224.52 1068.03 242.76 1068.03 261.00 C 1056.39 261.00 1044.75 261.01 1033.12 260.99 C 1033.13 201.15 1033.11 141.31 1033.13 81.46 M 1068.03 111.00 C 1068.01 133.41 1068.07 155.81 1068.00 178.22 C 1078.96 179.89 1090.63 180.43 1101.15 176.34 C 1109.22 173.26 1115.75 166.56 1118.66 158.43 C 1122.15 148.58 1121.36 137.44 1117.23 127.91 C 1114.33 121.20 1108.56 115.86 1101.63 113.52 C 1090.85 109.71 1079.22 111.38 1068.03 111.00 Z" />
<path fill="#ffffff" opacity="1.00" d=" M 1394.41 81.47 C 1405.53 81.47 1416.65 81.48 1427.77 81.46 C 1427.79 141.32 1427.78 201.17 1427.78 261.03 C 1416.65 261.02 1405.52 261.07 1394.40 261.00 C 1394.42 201.16 1394.40 141.31 1394.41 81.47 Z" />
<path fill="#ffffff" opacity="1.00" d=" M 1483.13 81.47 C 1491.25 81.48 1499.38 81.46 1507.51 81.48 C 1536.96 120.73 1566.43 159.96 1595.90 199.20 C 1595.96 159.94 1595.81 120.69 1595.98 81.44 C 1607.44 81.52 1618.91 81.43 1630.38 81.48 C 1630.37 141.32 1630.38 201.16 1630.38 261.00 C 1620.92 261.00 1611.46 261.00 1602.01 261.00 C 1574.02 223.86 1546.02 186.72 1518.04 149.57 C 1518.02 186.72 1518.04 223.87 1518.03 261.03 C 1506.39 261.03 1494.76 261.03 1483.12 261.03 C 1483.12 201.17 1483.11 141.32 1483.13 81.47 Z" />
<path fill="#ffffff" opacity="1.00" d=" M 1666.38 81.47 C 1715.97 81.48 1765.56 81.46 1815.16 81.48 C 1815.15 91.48 1815.15 101.49 1815.16 111.49 C 1796.36 111.52 1777.57 111.49 1758.78 111.50 C 1758.78 161.35 1758.78 211.19 1758.78 261.03 C 1746.70 261.04 1734.63 261.03 1722.56 261.03 C 1722.55 211.18 1722.57 161.34 1722.55 111.49 C 1703.83 111.51 1685.10 111.49 1666.38 111.50 C 1666.37 101.49 1666.37 91.48 1666.38 81.47 Z" />
</g>
</svg>
