<svg xmlns="http://www.w3.org/2000/svg" xmlns:xlink="http://www.w3.org/1999/xlink" version="1.1" x="0px" y="0px" viewBox="0 0 100 125" style="enable-background:new 0 0 100 100;" xml:space="preserve"><style type="text/css">
	.st0{fill:none;stroke:#000000;stroke-width:2;stroke-linecap:round;stroke-miterlimit:10;}
	.st1{fill:none;stroke:#000000;stroke-width:2;stroke-linecap:round;stroke-linejoin:round;stroke-miterlimit:10;}
	.st2{stroke:#000000;stroke-width:2;stroke-linecap:round;stroke-linejoin:round;stroke-miterlimit:10;}
	.st3{fill:none;stroke:#000000;stroke-width:2;stroke-miterlimit:10;}
</style><path d="M34.2,84.8c0.8,1.8,2.3,3.2,4.2,3.9c0.9,0.3,1.8,0.5,2.7,0.5c1,0,2.1-0.2,3.1-0.7l28.5-12.7c1.8-0.8,3.2-2.3,3.9-4.2  c0.7-1.9,0.7-3.9-0.2-5.7L54.9,17.8c-0.8-1.8-2.3-3.2-4.2-3.9c-1.9-0.7-3.9-0.7-5.7,0.2L16.5,26.8c-1.8,0.8-3.2,2.3-3.9,4.2  c-0.7,1.9-0.7,3.9,0.2,5.7L34.2,84.8z M14.4,31.7c0.5-1.4,1.6-2.5,2.9-3.1l28.5-12.7c0.7-0.3,1.5-0.5,2.2-0.5c0.7,0,1.3,0.1,2,0.4  c1.4,0.5,2.5,1.6,3.1,2.9l21.5,48.1c0.6,1.3,0.6,2.8,0.1,4.2c-0.5,1.4-1.6,2.5-2.9,3.1L43.2,86.7c-1.3,0.6-2.8,0.6-4.2,0.1  c-1.4-0.5-2.5-1.6-3.1-2.9L14.5,35.9C13.9,34.5,13.9,33,14.4,31.7z"/><path d="M26.2,44.1c0.8,0.3,1.5,0.4,2.3,0.4c0.9,0,1.8-0.2,2.6-0.6c3.3-1.5,4.7-5.3,3.3-8.6c-1.5-3.3-5.3-4.7-8.6-3.3  c-1.6,0.7-2.8,2-3.4,3.6c-0.6,1.6-0.6,3.4,0.1,5C23.3,42.2,24.6,43.5,26.2,44.1z M30.4,42.1c-1.1,0.5-2.3,0.5-3.4,0.1  c-0.8-0.3-1.5-0.8-2-1.5l8-3.6C33.4,39.2,32.3,41.2,30.4,42.1z M24.4,36.4c0.4-1.1,1.3-2,2.4-2.5c0.6-0.3,1.2-0.4,1.8-0.4  c1.4,0,2.7,0.7,3.6,1.8l-8,3.6C24,38.1,24,37.2,24.4,36.4z"/><path d="M45.3,37c0.9,0,1.8-0.2,2.6-0.6c1.6-0.7,2.8-2,3.4-3.6c0.6-1.6,0.6-3.4-0.1-5c-1.5-3.3-5.3-4.7-8.6-3.3  c-3.3,1.5-4.7,5.3-3.3,8.6C40.5,35.6,42.8,37,45.3,37z M49.5,32.1c-0.4,1.1-1.3,2-2.4,2.5c-1.9,0.9-4.2,0.2-5.4-1.4l8-3.6  C49.9,30.5,49.8,31.3,49.5,32.1z M43.5,26.4c1.9-0.9,4.2-0.2,5.4,1.4l-8,3.6C40.5,29.4,41.5,27.3,43.5,26.4z"/><path d="M30.2,57.7c0.7,1.6,2,2.8,3.6,3.4c0.8,0.3,1.5,0.4,2.3,0.4c0.9,0,1.8-0.2,2.6-0.6c3.3-1.5,4.7-5.3,3.3-8.6  c-1.5-3.3-5.3-4.7-8.6-3.3C30.2,50.6,28.8,54.4,30.2,57.7z M38,59.2c-1.1,0.5-2.3,0.5-3.4,0.1c-0.8-0.3-1.5-0.8-2-1.5l8-3.6  C41,56.2,39.9,58.3,38,59.2z M36.2,50.6c1.4,0,2.7,0.7,3.6,1.8l-8,3.6c-0.4-2,0.6-4.1,2.6-5C34.9,50.7,35.5,50.6,36.2,50.6z"/><path d="M47,50.2L47,50.2c1.1,2.4,3.5,3.8,5.9,3.8c0.9,0,1.8-0.2,2.6-0.6c3.3-1.5,4.7-5.3,3.3-8.6c-0.7-1.6-2-2.8-3.6-3.4  c-1.6-0.6-3.4-0.6-5,0.1C47,43.1,45.5,46.9,47,50.2z M54.5,43.4c1.1,0.4,2,1.3,2.5,2.4c1,2.3,0,4.9-2.3,5.9c-2.3,1-4.9,0-5.9-2.3  c-1-2.3,0-4.9,2.3-5.9C52.2,43,53.4,42.9,54.5,43.4z"/><path d="M41.1,66.2c-1.6,0.7-2.8,2-3.4,3.6s-0.6,3.4,0.1,5c1.1,2.4,3.5,3.8,5.9,3.8c0.9,0,1.8-0.2,2.6-0.6c1.6-0.7,2.8-2,3.4-3.6  c0.6-1.6,0.6-3.4-0.1-5C48.2,66.2,44.4,64.7,41.1,66.2z M48,73.7c-0.4,1.1-1.3,2-2.4,2.5c-2.3,1-4.9,0-5.9-2.3  c-0.5-1.1-0.5-2.3-0.1-3.4c0.4-1.1,1.3-2,2.4-2.5c0.6-0.3,1.2-0.4,1.8-0.4c1.7,0,3.4,1,4.1,2.7C48.4,71.4,48.4,72.6,48,73.7z"/><path d="M54.5,62.3c-0.6,1.6-0.6,3.4,0.1,5c0.7,1.6,2,2.8,3.6,3.4c0.8,0.3,1.5,0.4,2.3,0.4c0.9,0,1.8-0.2,2.6-0.6  c1.6-0.7,2.8-2,3.4-3.6c0.6-1.6,0.6-3.4-0.1-5c-0.7-1.6-2-2.8-3.6-3.4c-1.6-0.6-3.4-0.6-5,0.1C56.3,59.4,55.1,60.7,54.5,62.3z   M60.5,60.1c0.5,0,1.1,0.1,1.6,0.3c1.1,0.4,2,1.3,2.5,2.4c0.5,1.1,0.5,2.3,0.1,3.4c-0.4,1.1-1.3,2-2.4,2.5c-1.1,0.5-2.3,0.5-3.4,0.1  c-1.1-0.4-2-1.3-2.5-2.4c-0.5-1.1-0.5-2.3-0.1-3.4c0.4-1.1,1.3-2,2.4-2.5C59.3,60.2,59.9,60.1,60.5,60.1z"/><path d="M86.1,56.1c1.2-1.2,1.8-2.7,1.8-4.4c0-1.7-0.6-3.2-1.8-4.4c-2.4-2.4-6.3-2.4-8.8,0c-2.4,2.4-2.4,6.3,0,8.8h0  c1.2,1.2,2.8,1.8,4.4,1.8C83.3,57.9,84.9,57.3,86.1,56.1z M78.8,48.8c1.4-1.4,3.5-1.6,5.1-0.6l-5.7,5.7  C77.2,52.3,77.4,50.2,78.8,48.8z M79.6,55.3l5.7-5.7c0.4,0.6,0.6,1.4,0.6,2.2c0,1.1-0.4,2.2-1.2,3C83.3,56.1,81.2,56.3,79.6,55.3z"/><path d="M66.7,27.4c1.5,0,3-0.5,4.2-1.7c1.2-1.1,1.9-2.7,2-4.3s-0.5-3.2-1.6-4.4s-2.7-1.9-4.3-2c-1.7-0.1-3.2,0.5-4.4,1.6  s-1.9,2.7-2,4.3c-0.1,1.7,0.5,3.2,1.6,4.4C63.4,26.8,65.1,27.4,66.7,27.4z M63.7,24.1c-0.8-0.8-1.2-1.9-1.1-3c0-0.8,0.3-1.5,0.7-2.1  l5.5,5.9C67.1,25.8,65,25.5,63.7,24.1z M66.9,17.1c1.1,0,2.2,0.5,2.9,1.3c0.8,0.8,1.2,1.9,1.1,3c0,0.8-0.3,1.5-0.7,2.1l-5.5-5.9  c0.6-0.3,1.3-0.5,2-0.5C66.8,17,66.8,17.1,66.9,17.1z"/><path d="M81.7,39c3.4,0,6.2-2.8,6.2-6.2c0-3.4-2.8-6.2-6.2-6.2c-3.4,0-6.2,2.8-6.2,6.2C75.5,36.2,78.3,39,81.7,39z M81.7,37  c-2,0-3.6-1.4-4.1-3.2h8.1C85.3,35.6,83.7,37,81.7,37z M81.7,28.6c2,0,3.6,1.4,4.1,3.2h-8.1C78.1,29.9,79.8,28.6,81.7,28.6z"/></svg>