<svg xmlns="http://www.w3.org/2000/svg" xmlns:xlink="http://www.w3.org/1999/xlink" version="1.1" x="0px" y="0px" viewBox="0 0 100 125" style="enable-background:new 0 0 100 100;" xml:space="preserve"><style type="text/css">
	.st0{fill:none;stroke:#000000;stroke-width:2;stroke-linecap:round;stroke-miterlimit:10;}
	.st1{fill:none;stroke:#000000;stroke-width:2;stroke-linecap:round;stroke-linejoin:round;stroke-miterlimit:10;}
	.st2{stroke:#000000;stroke-width:2;stroke-linecap:round;stroke-linejoin:round;stroke-miterlimit:10;}
	.st3{fill:none;stroke:#000000;stroke-width:2;stroke-miterlimit:10;}
</style><path d="M41.5,25.1c1.4,0,2.8-0.5,3.9-1.5c2.3-2.2,2.5-5.8,0.3-8.2c-2.2-2.3-5.8-2.5-8.2-0.3h0c-2.3,2.2-2.5,5.8-0.3,8.2  C38.4,24.5,39.9,25.1,41.5,25.1z M38.7,21.9c-1.2-1.3-1.3-3.1-0.4-4.5l4.9,5.3C41.8,23.4,39.9,23.2,38.7,21.9z M44.3,16.8  c1.2,1.3,1.3,3.1,0.4,4.5L39.8,16C41.2,15.2,43.1,15.5,44.3,16.8z"/><path d="M17.1,49.7c0.5,0.1,1,0.2,1.5,0.2c1,0,2-0.3,2.9-0.8c1.3-0.8,2.3-2,2.7-3.5c0.4-1.5,0.2-3-0.6-4.4c-1.6-2.8-5.1-3.7-7.9-2.1  c-1.3,0.8-2.3,2-2.7,3.5c-0.4,1.5-0.2,3,0.6,4.4C14.4,48.4,15.6,49.3,17.1,49.7z M22.3,45.2c-0.3,1-0.9,1.8-1.8,2.3  c-0.9,0.5-1.9,0.6-2.9,0.4c-0.6-0.2-1.2-0.5-1.7-1l6.3-3.6C22.4,43.9,22.4,44.5,22.3,45.2z M15,43.2c0.3-1,0.9-1.8,1.8-2.3  c0.6-0.3,1.2-0.5,1.9-0.5c1,0,2,0.4,2.7,1.1L15,45.1C14.8,44.5,14.8,43.8,15,43.2z"/><path d="M65.5,69.3c-1.1-0.2-2.1,0.1-3,0.7s-1.5,1.6-1.6,2.6c-0.2,1.1,0.1,2.1,0.7,3l6.5,9.2c0.6,0.9,1.6,1.5,2.6,1.6  c0.2,0,0.4,0.1,0.7,0.1c0.8,0,1.7-0.3,2.4-0.8c1.8-1.3,2.2-3.8,0.9-5.7l-6.5-9.2C67.5,70,66.6,69.4,65.5,69.3z M72.6,84.1  c-0.4,0.3-1,0.4-1.5,0.4c-0.5-0.1-1-0.4-1.3-0.8l-2.7-3.8l3.4-2.4l2.7,3.8C73.8,82.2,73.5,83.4,72.6,84.1z M69.2,75.8l-3.4,2.4  l-2.7-3.8c-0.3-0.4-0.4-1-0.4-1.5s0.4-1,0.8-1.3c0.4-0.3,0.8-0.4,1.2-0.4c0.1,0,0.2,0,0.3,0c0.5,0.1,1,0.4,1.3,0.8c0,0,0,0,0,0  L69.2,75.8z"/><path d="M69.5,66.3c0.7,0.5,1.6,0.8,2.4,0.8c0.2,0,0.4,0,0.6,0l11.1-1.6c2.2-0.3,3.8-2.4,3.4-4.6c-0.3-2.2-2.4-3.8-4.6-3.4L71.3,59  c-2.2,0.3-3.8,2.4-3.4,4.6C68.1,64.7,68.6,65.7,69.5,66.3z M82.8,59.4c1.1-0.2,2.2,0.6,2.3,1.7c0.2,1.1-0.6,2.2-1.7,2.3l-4.6,0.7  l-0.6-4.1L82.8,59.4z M71.6,61l4.6-0.7l0.6,4.1l-4.6,0.7c-0.5,0.1-1.1-0.1-1.5-0.4c-0.4-0.3-0.7-0.8-0.8-1.4  C69.7,62.2,70.5,61.2,71.6,61z"/><path d="M26.8,35.8c0.8,0.9,1.9,1.3,3,1.3c1,0,2-0.4,2.8-1.1c0.8-0.7,1.3-1.7,1.3-2.8s-0.3-2.1-1.1-2.9l-7.6-8.3v0  c-0.7-0.8-1.7-1.3-2.8-1.3c-1.1,0-2.1,0.3-2.9,1.1s-1.3,1.7-1.3,2.8c0,1.1,0.3,2.1,1.1,2.9L26.8,35.8z M31.8,33.2  c0,0.5-0.3,1.1-0.7,1.4c-0.8,0.8-2.1,0.7-2.9-0.1l-3.1-3.4l3-2.8l3.1,3.4C31.6,32.1,31.8,32.6,31.8,33.2z M20.7,23.3  c0.4-0.4,0.9-0.5,1.4-0.5c0,0,0.1,0,0.1,0c0.5,0,1.1,0.3,1.4,0.7v0l3.1,3.4l-3,2.8l-3.1-3.4c-0.4-0.4-0.6-0.9-0.5-1.5  C20.1,24.2,20.3,23.7,20.7,23.3z"/><path d="M87.8,11.9l-11,11c-1.7-1.1-4-0.9-5.4,0.6l-1.7,1.7L68.4,24c-1.1-1.1-2.6-1.7-4.2-1.7s-3,0.6-4.2,1.7L23.3,60.7l-1.9-1.9  c-0.4-0.4-1-0.4-1.4,0s-0.4,1,0,1.4l6.6,6.6L16.3,77.1l-1.7-1.7c-0.4-0.4-1-0.4-1.4,0s-0.4,1,0,1.4l10.7,10.7  c0.2,0.2,0.5,0.3,0.7,0.3s0.5-0.1,0.7-0.3c0.4-0.4,0.4-1,0-1.4l-1.6-1.6L34,74.2l6.8,6.8c0.2,0.2,0.5,0.3,0.7,0.3s0.5-0.1,0.7-0.3  c0.4-0.4,0.4-1,0-1.4l-2.1-2.1l36.7-36.7c2.3-2.3,2.3-6,0-8.3l-1-1l1.7-1.7c1.5-1.5,1.7-3.7,0.6-5.4l11-11c0.4-0.4,0.4-1,0-1.4  S88.2,11.5,87.8,11.9z M22.3,83.1l-4.6-4.6L28,68.2l4.6,4.6L22.3,83.1z M24.8,62.1l10.5-10.5l9.6,9.6L39,67c-0.4,0.4-0.4,1,0,1.4  c0.2,0.2,0.5,0.3,0.7,0.3s0.5-0.1,0.7-0.3l5.8-5.8l3,3L38.7,76.1L24.8,62.1z M75.4,39.4L50.6,64.2l-3-3l20.1-20.1  c0.4-0.4,0.4-1,0-1.4s-1-0.4-1.4,0L46.2,59.8l-9.6-9.6l24.8-24.8c1.5-1.5,4-1.5,5.5,0l8.5,8.5C76.9,35.4,76.9,37.9,75.4,39.4z   M76.2,28.4l-1.7,1.7l-3.4-3.4l1.7-1.7c0.9-0.9,2.5-0.9,3.4,0c0.5,0.5,0.7,1.1,0.7,1.7S76.6,27.9,76.2,28.4z"/></svg>