<svg xmlns="http://www.w3.org/2000/svg" xmlns:xlink="http://www.w3.org/1999/xlink" version="1.1" x="0px" y="0px" viewBox="0 0 100 125" style="enable-background:new 0 0 100 100;" xml:space="preserve"><path d="M84.844,23.435H74.331V11.06c0-0.552-0.447-1-1-1H58.456c-0.553,0-1,0.448-1,1v12.375H46.944  c-2.843,0-5.156,2.313-5.156,5.157v9.701c0,1.804,0.877,3.506,2.347,4.553l1.609,1.147v24.451l-1.609,1.147  c-1.47,1.047-2.347,2.749-2.347,4.553v9.235c0,3.618,2.944,6.562,6.562,6.562h35.087c3.618,0,6.562-2.944,6.562-6.562v-9.235  c0-1.804-0.877-3.506-2.347-4.553l-1.61-1.147V43.992l1.61-1.147C89.123,41.798,90,40.097,90,38.292v-9.701  C90,25.748,87.687,23.435,84.844,23.435z M59.456,12.06h12.875v11.375H59.456V12.06z M84.043,44.477v23.482H47.744V44.477H84.043z   M86.493,71.219C87.437,71.892,88,72.984,88,74.143v9.235c0,2.516-2.047,4.562-4.562,4.562H48.351c-2.516,0-4.562-2.046-4.562-4.562  v-9.235c0-1.159,0.563-2.251,1.507-2.924l1.769-1.26h37.66L86.493,71.219z M88,38.292c0,1.159-0.563,2.251-1.507,2.924l-1.77,1.26  h-37.66l-1.769-1.26c-0.943-0.672-1.507-1.765-1.507-2.924v-9.701c0-1.741,1.416-3.157,3.156-3.157h37.899  c1.74,0,3.156,1.416,3.156,3.157V38.292z"/><path d="M58.019,60.328h3.765v3.765c0,0.552,0.447,1,1,1h6.221c0.553,0,1-0.448,1-1v-3.765h3.765c0.553,0,1-0.448,1-1v-6.221  c0-0.552-0.447-1-1-1h-3.765v-3.765c0-0.552-0.447-1-1-1h-6.221c-0.553,0-1,0.448-1,1v3.765h-3.765c-0.553,0-1,0.448-1,1v6.221  C57.019,59.88,57.466,60.328,58.019,60.328z M59.019,54.107h3.765c0.553,0,1-0.448,1-1v-3.765h4.221v3.765c0,0.552,0.447,1,1,1  h3.765v4.221h-3.765c-0.553,0-1,0.448-1,1v3.765h-4.221v-3.765c0-0.552-0.447-1-1-1h-3.765V54.107z"/><path d="M11.926,71.651c0.087,2.805,2.15,5.001,4.699,5.001h1.001l0.876,12.417c0.036,0.524,0.472,0.93,0.997,0.93h8.453  c0.525,0,0.961-0.406,0.997-0.93l0.876-12.417h1.001c2.549,0,4.612-2.197,4.697-4.99l1.928-45.549v-6.447c0-0.552-0.447-1-1-1H11  c-0.553,0-1,0.448-1,1v6.447c0,0.014,0,0.028,0.001,0.042L11.926,71.651z M27.021,88h-6.59L19.63,76.652h8.191L27.021,88z   M33.524,71.59c-0.052,1.717-1.237,3.062-2.698,3.062H16.625c-1.461,0-2.646-1.345-2.7-3.075l-1.867-44.125h23.336L33.524,71.59z   M35.451,20.667l0.001,4.786H12v-4.786H35.451z"/><path d="M29.897,43.439h-2.734v-2.734c0-0.552-0.447-1-1-1h-4.876c-0.553,0-1,0.448-1,1v2.734h-2.734c-0.553,0-1,0.448-1,1v4.875  c0,0.552,0.447,1,1,1h2.734v2.734c0,0.552,0.447,1,1,1h4.876c0.553,0,1-0.448,1-1v-2.734h2.734c0.553,0,1-0.448,1-1v-4.875  C30.897,43.887,30.45,43.439,29.897,43.439z M28.897,48.314h-2.734c-0.553,0-1,0.448-1,1v2.734h-2.876v-2.734c0-0.552-0.447-1-1-1  h-2.734v-2.875h2.734c0.553,0,1-0.448,1-1v-2.734h2.876v2.734c0,0.552,0.447,1,1,1h2.734V48.314z"/></svg>