<svg xmlns="http://www.w3.org/2000/svg" xmlns:xlink="http://www.w3.org/1999/xlink" version="1.1" x="0px" y="0px" viewBox="0 0 100 125" style="enable-background:new 0 0 100 100;" xml:space="preserve"><style type="text/css">
	.st0{fill:none;stroke:#000000;stroke-width:2;stroke-linecap:round;stroke-miterlimit:10;}
	.st1{fill:none;stroke:#000000;stroke-width:2;stroke-linecap:round;stroke-linejoin:round;stroke-miterlimit:10;}
	.st2{stroke:#000000;stroke-width:2;stroke-linecap:round;stroke-linejoin:round;stroke-miterlimit:10;}
	.st3{fill:none;stroke:#000000;stroke-width:2;stroke-miterlimit:10;}
</style><path d="M26,50.2c1.1-1,1.8-2.5,1.8-4c0.1-1.5-0.5-3-1.5-4.1c-1.1-1.1-2.5-1.8-4-1.8c-1.6-0.1-3,0.5-4.1,1.5c-1.1,1-1.8,2.5-1.8,4  c-0.1,1.5,0.5,3,1.5,4.1c1.1,1.2,2.7,1.8,4.2,1.8C23.5,51.8,24.9,51.3,26,50.2z M22.2,42.2c1,0,1.9,0.5,2.6,1.2c0.7,0.7,1,1.7,1,2.7  c0,0.7-0.2,1.3-0.6,1.8l-4.9-5.3c0.5-0.3,1.1-0.4,1.7-0.4C22.1,42.2,22.2,42.2,22.2,42.2z M19.3,48.6c-0.7-0.7-1-1.7-1-2.7  c0-0.7,0.2-1.3,0.6-1.8l4.9,5.3C22.3,50.1,20.5,49.8,19.3,48.6z"/><path d="M37.5,65.5c-1.3,0.8-2.3,2-2.7,3.5c-0.4,1.5-0.2,3,0.6,4.4c0.8,1.3,2,2.3,3.5,2.7c0.5,0.1,1,0.2,1.5,0.2c1,0,2-0.3,2.9-0.8  c1.3-0.8,2.3-2,2.7-3.5c0.4-1.5,0.2-3-0.6-4.4C43.8,64.9,40.3,63.9,37.5,65.5z M36.8,69.5c0.3-1,0.9-1.8,1.8-2.3  c0.6-0.3,1.2-0.5,1.9-0.5c1,0,2,0.4,2.7,1.1l-6.3,3.6C36.6,70.8,36.6,70.2,36.8,69.5z M44,71.5c-0.3,1-0.9,1.8-1.8,2.3  c-0.9,0.5-1.9,0.6-2.9,0.4c-0.6-0.2-1.2-0.5-1.7-1l6.3-3.6C44.2,70.2,44.2,70.9,44,71.5z"/><path d="M86.7,74.7c-1.6-2.8-5.1-3.7-7.9-2.1c-2.8,1.6-3.7,5.1-2.1,7.9c1.1,1.9,3,2.9,5,2.9c1,0,2-0.2,2.9-0.8  C87.4,81,88.3,77.5,86.7,74.7L86.7,74.7z M78.1,76.6c0.3-1,0.9-1.8,1.8-2.3c0.6-0.3,1.2-0.5,1.9-0.5c1,0,2,0.4,2.7,1.1l-6.3,3.6  C77.9,77.9,77.9,77.2,78.1,76.6z M83.6,80.9c-1.5,0.9-3.3,0.6-4.5-0.6l6.3-3.6C85.8,78.3,85.1,80,83.6,80.9z"/><path d="M85.5,28.4c-2.4-2.1-6.1-1.8-8.1,0.6c-2.1,2.4-1.8,6.1,0.6,8.1c1.1,0.9,2.4,1.4,3.8,1.4c1.6,0,3.2-0.7,4.4-2  c1-1.2,1.5-2.7,1.4-4.2C87.4,30.8,86.7,29.4,85.5,28.4z M81.7,29c0.9,0,1.7,0.3,2.5,0.9c0.8,0.7,1.2,1.6,1.3,2.6  c0.1,0.7-0.1,1.3-0.4,1.9l-5.5-4.7C80.2,29.2,81,29,81.7,29z M79.3,35.7c-1.3-1.1-1.6-3-0.9-4.5l5.5,4.7  C82.4,36.8,80.6,36.8,79.3,35.7z"/><path d="M30.2,19.4c-0.9-0.5-2-0.7-3.1-0.4l-10.8,3.1c-1,0.3-1.9,1-2.4,1.9c-0.5,0.9-0.6,2-0.4,3.1c0.3,1,1,1.9,1.9,2.4  c0.6,0.3,1.3,0.5,2,0.5c0.4,0,0.8-0.1,1.1-0.2l10.8-3.1c1-0.3,1.9-1,2.4-1.9c0.5-0.9,0.6-2,0.4-3.1C31.8,20.8,31.2,19.9,30.2,19.4z   M18,28c-0.5,0.2-1.1,0.1-1.6-0.2c-0.5-0.3-0.8-0.7-1-1.2c-0.2-0.5-0.1-1.1,0.2-1.6c0.3-0.5,0.7-0.8,1.2-1l4.4-1.3l1.1,4L18,28z   M30,23.9c-0.3,0.5-0.7,0.8-1.2,1l-4.4,1.3l-1.1-4l4.4-1.3c0.2-0.1,0.4-0.1,0.6-0.1c0.3,0,0.7,0.1,1,0.3c0.5,0.3,0.8,0.7,1,1.2  C30.4,22.9,30.3,23.4,30,23.9z"/><path d="M46.6,31.8c-1.1-0.2-2.1,0-3.1,0.6c-0.9,0.6-1.5,1.5-1.8,2.6l-2.3,11c-0.5,2.2,0.9,4.3,3.1,4.8c0.3,0.1,0.6,0.1,0.8,0.1  c0.8,0,1.5-0.2,2.2-0.7c0.9-0.6,1.5-1.5,1.8-2.6l2.3-11C50.2,34.4,48.8,32.2,46.6,31.8z M43.8,35.3c0.1-0.5,0.4-1,0.9-1.3  c0.5-0.3,1-0.4,1.5-0.3c1.1,0.2,1.8,1.3,1.6,2.4l-1,4.5l-4-0.9L43.8,35.3z M45.5,47.2c-0.1,0.5-0.4,1-0.9,1.3  c-0.5,0.3-1,0.4-1.5,0.3c-1.1-0.2-1.8-1.3-1.6-2.4l1-4.5l4,0.9L45.5,47.2z"/><path d="M61.2,32c0.2,0,0.4,0.1,0.7,0.1c0.8,0,1.7-0.3,2.4-0.8c0.9-0.6,1.5-1.6,1.6-2.6c0.2-1.1-0.1-2.1-0.7-3l-6.5-9.2h0  c-1.3-1.8-3.8-2.2-5.7-0.9c-1.8,1.3-2.2,3.8-0.9,5.7l6.5,9.2C59.2,31.2,60.1,31.8,61.2,32z M63,29.7c-0.4,0.3-1,0.4-1.5,0.4  c-0.5-0.1-1-0.4-1.3-0.8l-2.7-3.8l3.4-2.4l2.7,3.8C64.2,27.7,64,29,63,29.7z M54.1,17.2c0.4-0.3,0.8-0.4,1.2-0.4  c0.6,0,1.3,0.3,1.7,0.9c0,0,0,0,0,0l2.7,3.8l-3.4,2.4L53.6,20C52.9,19.1,53.2,17.8,54.1,17.2z"/><path d="M61,52.6c-0.6,0.9-0.9,1.9-0.8,3c0.2,1.1,0.7,2,1.6,2.7c0.7,0.5,1.6,0.8,2.4,0.8c0.2,0,0.4,0,0.6,0L76,57.4  c2.2-0.3,3.8-2.4,3.4-4.6c-0.3-2.2-2.4-3.8-4.6-3.4L63.7,51C62.6,51.2,61.7,51.7,61,52.6z M75.1,51.4c1.1-0.2,2.2,0.6,2.3,1.7  c0.2,1.1-0.6,2.2-1.7,2.3l-4.6,0.7L70.5,52L75.1,51.4z M68.5,52.3l0.6,4.1l-4.6,0.7C64,57.2,63.5,57,63,56.7  c-0.4-0.3-0.7-0.8-0.8-1.4c-0.1-0.5,0.1-1.1,0.4-1.5c0.3-0.4,0.8-0.7,1.4-0.8L68.5,52.3z"/><path d="M68.2,68.8c-1.8-1.3-4.3-0.9-5.7,0.9l-6.7,9.1c-0.6,0.9-0.9,1.9-0.7,3c0.2,1.1,0.7,2,1.6,2.7c0.7,0.5,1.5,0.8,2.4,0.8  c0.2,0,0.4,0,0.6,0c1.1-0.2,2-0.7,2.7-1.6l6.7-9.1C70.4,72.6,70,70.1,68.2,68.8z M60.8,82.3c-0.3,0.4-0.8,0.7-1.3,0.8  c-0.5,0.1-1.1-0.1-1.5-0.4c-0.4-0.3-0.7-0.8-0.8-1.3c-0.1-0.5,0.1-1.1,0.4-1.5l2.7-3.7l3.3,2.4L60.8,82.3z M67.4,73.3L64.7,77  l-3.3-2.4l2.7-3.7c0.4-0.5,1-0.8,1.7-0.8c0.4,0,0.9,0.1,1.2,0.4C67.9,71.1,68.1,72.3,67.4,73.3z"/><path d="M21.2,68.7c-0.7-0.8-1.7-1.3-2.8-1.3c-1.1,0-2.1,0.3-2.9,1.1c-0.8,0.7-1.3,1.7-1.3,2.8c0,1.1,0.3,2.1,1.1,2.9l7.6,8.3  c0.7,0.8,1.7,1.3,2.8,1.3c0.1,0,0.1,0,0.2,0c1,0,2-0.4,2.8-1.1c0.8-0.7,1.3-1.7,1.3-2.8s-0.3-2.1-1.1-2.9L21.2,68.7z M16.2,71.4  c0-0.5,0.3-1.1,0.7-1.4c0.4-0.4,0.9-0.5,1.4-0.5c0,0,0.1,0,0.1,0c0.5,0,1.1,0.3,1.4,0.7c0,0,0,0,0,0l3.1,3.4l-3,2.8l-3.1-3.4  C16.4,72.5,16.2,71.9,16.2,71.4z M27.3,81.2c-0.4,0.4-0.9,0.6-1.5,0.5c-0.5,0-1.1-0.3-1.4-0.7l-3.1-3.4l3-2.8l3.1,3.4  c0.4,0.4,0.6,0.9,0.5,1.5C27.9,80.3,27.7,80.9,27.3,81.2z"/></svg>