<svg xmlns="http://www.w3.org/2000/svg" xmlns:xlink="http://www.w3.org/1999/xlink" version="1.1" x="0px" y="0px" viewBox="0 0 100 125" style="enable-background:new 0 0 100 100;" xml:space="preserve"><style type="text/css">
	.st0{fill:none;stroke:#000000;stroke-width:2;stroke-linecap:round;stroke-miterlimit:10;}
	.st1{fill:none;stroke:#000000;stroke-width:2;stroke-linecap:round;stroke-linejoin:round;stroke-miterlimit:10;}
	.st2{stroke:#000000;stroke-width:2;stroke-linecap:round;stroke-linejoin:round;stroke-miterlimit:10;}
	.st3{fill:none;stroke:#000000;stroke-width:2;stroke-miterlimit:10;}
</style><path d="M32,88.6h36c4.7,0,8.5-3.8,8.5-8.5V19.4c0-4.7-3.8-8.5-8.5-8.5H32c-4.7,0-8.5,3.8-8.5,8.5v60.7C23.5,84.8,27.3,88.6,32,88.6  z M25.5,19.4c0-3.6,2.9-6.5,6.5-6.5h36c3.6,0,6.5,2.9,6.5,6.5v60.7c0,3.6-2.9,6.5-6.5,6.5H32c-3.6,0-6.5-2.9-6.5-6.5V19.4z"/><path d="M39.4,35.6c4,0,7.3-3.3,7.3-7.3s-3.3-7.3-7.3-7.3s-7.3,3.3-7.3,7.3S35.4,35.6,39.4,35.6z M39.4,33.6c-2.6,0-4.8-1.9-5.2-4.3  h10.5C44.2,31.7,42,33.6,39.4,33.6z M39.4,22.9c2.6,0,4.8,1.9,5.2,4.3H34.2C34.6,24.8,36.8,22.9,39.4,22.9z"/><path d="M60.5,35.6c4,0,7.3-3.3,7.3-7.3s-3.3-7.3-7.3-7.3s-7.3,3.3-7.3,7.3S56.5,35.6,60.5,35.6z M60.5,33.6c-2.6,0-4.8-1.9-5.2-4.3  h10.5C65.3,31.7,63.1,33.6,60.5,33.6z M60.5,22.9c2.6,0,4.8,1.9,5.2,4.3H55.3C55.8,24.8,58,22.9,60.5,22.9z"/><path d="M39.4,57.1c4,0,7.3-3.3,7.3-7.3s-3.3-7.3-7.3-7.3s-7.3,3.3-7.3,7.3S35.4,57.1,39.4,57.1z M39.4,55.1c-2.6,0-4.8-1.9-5.2-4.3  h10.5C44.2,53.2,42,55.1,39.4,55.1z M39.4,44.4c2.6,0,4.8,1.9,5.2,4.3H34.2C34.6,46.3,36.8,44.4,39.4,44.4z"/><path d="M60.5,57.1c4,0,7.3-3.3,7.3-7.3s-3.3-7.3-7.3-7.3s-7.3,3.3-7.3,7.3S56.5,57.1,60.5,57.1z M60.5,55.1c-2.6,0-4.8-1.9-5.2-4.3  h10.5C65.3,53.2,63.1,55.1,60.5,55.1z M60.5,44.4c2.6,0,4.8,1.9,5.2,4.3H55.3C55.8,46.3,58,44.4,60.5,44.4z"/><path d="M39.4,78.6c4,0,7.3-3.3,7.3-7.3s-3.3-7.3-7.3-7.3s-7.3,3.3-7.3,7.3S35.4,78.6,39.4,78.6z M39.4,76.6c-2.6,0-4.8-1.9-5.2-4.3  h10.5C44.2,74.7,42,76.6,39.4,76.6z M39.4,65.9c2.6,0,4.8,1.9,5.2,4.3H34.2C34.6,67.8,36.8,65.9,39.4,65.9z"/><path d="M60.5,78.6c4,0,7.3-3.3,7.3-7.3s-3.3-7.3-7.3-7.3s-7.3,3.3-7.3,7.3S56.5,78.6,60.5,78.6z M60.5,76.6c-2.6,0-4.8-1.9-5.2-4.3  h10.5C65.3,74.7,63.1,76.6,60.5,76.6z M60.5,65.9c2.6,0,4.8,1.9,5.2,4.3H55.3C55.8,67.8,58,65.9,60.5,65.9z"/></svg>