<svg xmlns="http://www.w3.org/2000/svg" xmlns:xlink="http://www.w3.org/1999/xlink" version="1.1" x="0px" y="0px" viewBox="0 0 100 125" style="enable-background:new 0 0 100 100;" xml:space="preserve"><style type="text/css">
	.st0{fill:none;stroke:#000000;stroke-width:2;stroke-linecap:round;stroke-miterlimit:10;}
	.st1{fill:none;stroke:#000000;stroke-width:2;stroke-linecap:round;stroke-linejoin:round;stroke-miterlimit:10;}
	.st2{stroke:#000000;stroke-width:2;stroke-linecap:round;stroke-linejoin:round;stroke-miterlimit:10;}
	.st3{fill:none;stroke:#000000;stroke-width:2;stroke-miterlimit:10;}
</style><path d="M58.9,89.6c4.7,0,8.5-3.8,8.5-8.5V20.4c0-4.7-3.8-8.5-8.5-8.5h-36c-4.7,0-8.5,3.8-8.5,8.5v60.7c0,4.7,3.8,8.5,8.5,8.5H58.9z   M16.4,81.1V20.4c0-3.6,2.9-6.5,6.5-6.5h36c3.6,0,6.5,2.9,6.5,6.5v60.7c0,3.6-2.9,6.5-6.5,6.5h-36C19.3,87.6,16.4,84.7,16.4,81.1z"/><path d="M25.5,28h10.1c2.1,0,3.7-1.7,3.7-3.7s-1.7-3.7-3.7-3.7H25.5c-2.1,0-3.7,1.7-3.7,3.7S23.5,28,25.5,28z M37.3,24.2  c0,1-0.8,1.7-1.7,1.7h-4v-3.5h4C36.5,22.5,37.3,23.3,37.3,24.2z M25.5,22.5h4V26h-4c-1,0-1.7-0.8-1.7-1.7  C23.8,23.3,24.6,22.5,25.5,22.5z"/><path d="M46.2,28h10.1c2.1,0,3.7-1.7,3.7-3.7s-1.7-3.7-3.7-3.7H46.2c-2.1,0-3.7,1.7-3.7,3.7S44.2,28,46.2,28z M58,24.2  c0,1-0.8,1.7-1.7,1.7h-4v-3.5h4C57.3,22.5,58,23.3,58,24.2z M46.2,22.5h4V26h-4c-1,0-1.7-0.8-1.7-1.7C44.5,23.3,45.3,22.5,46.2,22.5  z"/><path d="M25.5,41.2h10.1c2.1,0,3.7-1.7,3.7-3.7s-1.7-3.7-3.7-3.7H25.5c-2.1,0-3.7,1.7-3.7,3.7S23.5,41.2,25.5,41.2z M37.3,37.4  c0,1-0.8,1.7-1.7,1.7h-4v-3.5h4C36.5,35.7,37.3,36.5,37.3,37.4z M25.5,35.7h4v3.5h-4c-1,0-1.7-0.8-1.7-1.7  C23.8,36.5,24.6,35.7,25.5,35.7z"/><path d="M46.2,41.2h10.1c2.1,0,3.7-1.7,3.7-3.7s-1.7-3.7-3.7-3.7H46.2c-2.1,0-3.7,1.7-3.7,3.7S44.2,41.2,46.2,41.2z M58,37.4  c0,1-0.8,1.7-1.7,1.7h-4v-3.5h4C57.3,35.7,58,36.5,58,37.4z M46.2,35.7h4v3.5h-4c-1,0-1.7-0.8-1.7-1.7  C44.5,36.5,45.3,35.7,46.2,35.7z"/><path d="M25.5,54.3h10.1c2.1,0,3.7-1.7,3.7-3.7s-1.7-3.7-3.7-3.7H25.5c-2.1,0-3.7,1.7-3.7,3.7S23.5,54.3,25.5,54.3z M37.3,50.6  c0,1-0.8,1.7-1.7,1.7h-4v-3.5h4C36.5,48.9,37.3,49.7,37.3,50.6z M25.5,48.9h4v3.5h-4c-1,0-1.7-0.8-1.7-1.7S24.6,48.9,25.5,48.9z"/><path d="M46.2,54.3h10.1c2.1,0,3.7-1.7,3.7-3.7s-1.7-3.7-3.7-3.7H46.2c-2.1,0-3.7,1.7-3.7,3.7S44.2,54.3,46.2,54.3z M58,50.6  c0,1-0.8,1.7-1.7,1.7h-4v-3.5h4C57.3,48.9,58,49.7,58,50.6z M46.2,48.9h4v3.5h-4c-1,0-1.7-0.8-1.7-1.7S45.3,48.9,46.2,48.9z"/><path d="M25.5,67.5h10.1c2.1,0,3.7-1.7,3.7-3.7s-1.7-3.7-3.7-3.7H25.5c-2.1,0-3.7,1.7-3.7,3.7S23.5,67.5,25.5,67.5z M37.3,63.8  c0,1-0.8,1.7-1.7,1.7h-4v-3.5h4C36.5,62.1,37.3,62.8,37.3,63.8z M25.5,62.1h4v3.5h-4c-1,0-1.7-0.8-1.7-1.7  C23.8,62.8,24.6,62.1,25.5,62.1z"/><path d="M46.2,67.5h10.1c2.1,0,3.7-1.7,3.7-3.7s-1.7-3.7-3.7-3.7H46.2c-2.1,0-3.7,1.7-3.7,3.7S44.2,67.5,46.2,67.5z M58,63.8  c0,1-0.8,1.7-1.7,1.7h-4v-3.5h4C57.3,62.1,58,62.8,58,63.8z M46.2,62.1h4v3.5h-4c-1,0-1.7-0.8-1.7-1.7  C44.5,62.8,45.3,62.1,46.2,62.1z"/><path d="M35.6,80.7c2.1,0,3.7-1.7,3.7-3.7s-1.7-3.7-3.7-3.7H25.5c-2.1,0-3.7,1.7-3.7,3.7s1.7,3.7,3.7,3.7H35.6z M23.8,77  c0-1,0.8-1.7,1.7-1.7h10.1c1,0,1.7,0.8,1.7,1.7s-0.8,1.7-1.7,1.7H25.5C24.6,78.7,23.8,78,23.8,77z"/><path d="M46.2,80.7h10.1c2.1,0,3.7-1.7,3.7-3.7s-1.7-3.7-3.7-3.7H46.2c-2.1,0-3.7,1.7-3.7,3.7S44.2,80.7,46.2,80.7z M46.2,75.3h10.1  c1,0,1.7,0.8,1.7,1.7s-0.8,1.7-1.7,1.7H46.2c-1,0-1.7-0.8-1.7-1.7S45.3,75.3,46.2,75.3z"/><path d="M85.9,62.9c-0.8-0.6-1.8-0.8-2.8-0.7c-1,0.1-1.9,0.7-2.4,1.5l-6,8.1c-0.6,0.8-0.8,1.8-0.7,2.8s0.7,1.9,1.5,2.4  c0.6,0.5,1.4,0.7,2.2,0.7c0.2,0,0.4,0,0.6,0c1-0.1,1.9-0.7,2.4-1.5l6-8.1c0,0,0,0,0,0c0.6-0.8,0.8-1.8,0.7-2.8S86.7,63.5,85.9,62.9z   M79.1,75.1c-0.3,0.4-0.7,0.6-1.1,0.7c-0.5,0.1-0.9,0-1.3-0.3c-0.4-0.3-0.6-0.7-0.7-1.1c-0.1-0.5,0-0.9,0.3-1.3l2.4-3.2l2.8,2.1  L79.1,75.1z M85,67l-2.4,3.2l-2.8-2.1l2.4-3.2c0.3-0.4,0.7-0.6,1.1-0.7c0.1,0,0.2,0,0.3,0c0.4,0,0.7,0.1,1,0.3  c0.4,0.3,0.6,0.7,0.7,1.1C85.4,66.1,85.3,66.6,85,67z"/><path d="M87.3,50.8c-0.9-0.5-1.9-0.6-2.8-0.3l-9.7,2.8c-1,0.3-1.8,0.9-2.2,1.8c-0.5,0.9-0.6,1.9-0.3,2.8c0.3,1,0.9,1.8,1.8,2.2  c0.6,0.3,1.2,0.5,1.8,0.5c0.3,0,0.7,0,1-0.1l9.7-2.8c1-0.3,1.8-0.9,2.2-1.8c0.5-0.9,0.6-1.9,0.3-2.8C88.8,52.1,88.2,51.3,87.3,50.8z   M76.3,58.5c-0.4,0.1-0.9,0.1-1.3-0.2c-0.4-0.2-0.7-0.6-0.8-1c-0.1-0.4-0.1-0.9,0.1-1.3c0.2-0.4,0.6-0.7,1-0.8l3.9-1.1l1,3.3  L76.3,58.5z M87,54.9c-0.2,0.4-0.6,0.7-1,0.8l-3.9,1.1l-1-3.3l3.9-1.1c0.2,0,0.3-0.1,0.5-0.1c0.3,0,0.6,0.1,0.8,0.2  c0.4,0.2,0.7,0.6,0.8,1C87.3,54,87.2,54.5,87,54.9z"/></svg>