<svg xmlns="http://www.w3.org/2000/svg" xmlns:xlink="http://www.w3.org/1999/xlink" version="1.1" x="0px" y="0px" viewBox="0 0 100 125" style="enable-background:new 0 0 100 100;" xml:space="preserve"><style type="text/css">
	.st0{fill:none;stroke:#000000;stroke-width:2;stroke-linecap:round;stroke-miterlimit:10;}
	.st1{fill:none;stroke:#000000;stroke-width:2;stroke-linecap:round;stroke-linejoin:round;stroke-miterlimit:10;}
	.st2{stroke:#000000;stroke-width:2;stroke-linecap:round;stroke-linejoin:round;stroke-miterlimit:10;}
	.st3{fill:none;stroke:#000000;stroke-width:2;stroke-miterlimit:10;}
</style><path d="M50,14c-20.1,0-36.4,16.3-36.4,36.4c0,20.1,16.3,36.4,36.4,36.4c20.1,0,36.4-16.3,36.4-36.4C86.4,30.3,70.1,14,50,14z   M50,84.8c-19,0-34.4-15.4-34.4-34.4S31,16,50,16s34.4,15.4,34.4,34.4S69,84.8,50,84.8z"/><path d="M50,20.2c-16.6,0-30.2,13.5-30.2,30.2C19.8,67,33.3,80.5,50,80.5S80.1,67,80.1,50.4C80.1,33.8,66.6,20.2,50,20.2z M50,78.5  c-15.5,0-28.2-12.6-28.2-28.2S34.5,22.2,50,22.2s28.2,12.6,28.2,28.2S65.5,78.5,50,78.5z"/><path d="M31.4,53.6c-1.8,0-3.3,1.5-3.3,3.3s1.5,3.3,3.3,3.3c1.8,0,3.3-1.5,3.3-3.3S33.2,53.6,31.4,53.6z M31.4,58.2  c-0.7,0-1.3-0.6-1.3-1.3s0.6-1.3,1.3-1.3s1.3,0.6,1.3,1.3S32.1,58.2,31.4,58.2z"/><path d="M40.9,63.9c-1.8,0-3.3,1.5-3.3,3.3s1.5,3.3,3.3,3.3c1.8,0,3.3-1.5,3.3-3.3S42.7,63.9,40.9,63.9z M40.9,68.5  c-0.7,0-1.3-0.6-1.3-1.3c0-0.7,0.6-1.3,1.3-1.3s1.3,0.6,1.3,1.3C42.2,67.9,41.6,68.5,40.9,68.5z"/><path d="M67.7,46.7c0-2.1-1.7-3.7-3.7-3.7c-2.1,0-3.7,1.7-3.7,3.7c0,0.2,0,0.4,0.1,0.6c-0.5-0.2-1.1-0.3-1.7-0.3  c-2.6,0-4.7,2.1-4.7,4.7c0,1.7,0.9,3.1,2.2,3.9c-1.3,1-2.3,2.6-2.4,4.4c-0.5-0.3-1.1-0.5-1.8-0.5c-2.1,0-3.7,1.7-3.7,3.7  s1.7,3.7,3.7,3.7c1.5,0,2.9-0.9,3.4-2.3c1.1,1.2,2.7,1.9,4.4,1.9c0.1,0,0.2,0,0.3,0c-0.3,0.5-0.5,1.1-0.5,1.8c0,2.1,1.7,3.7,3.7,3.7  c2.1,0,3.7-1.7,3.7-3.7c0-1.8-1.2-3.3-2.9-3.6c1.1-1.1,1.7-2.6,1.7-4.2c0-2.6-1.6-4.8-3.8-5.7c0.8-0.8,1.2-1.9,1.2-3.2  c0-0.5-0.1-0.9-0.2-1.3c0.3,0.1,0.6,0.1,0.9,0.1C66,50.4,67.7,48.7,67.7,46.7z M63.9,44.9c1,0,1.7,0.8,1.7,1.7s-0.8,1.7-1.7,1.7  s-1.7-0.8-1.7-1.7S62.9,44.9,63.9,44.9z M58.5,48.9c1.5,0,2.7,1.2,2.7,2.7c0,1.5-1.2,2.7-2.7,2.7s-2.7-1.2-2.7-2.7  C55.8,50.1,57,48.9,58.5,48.9z M51.7,64.9c-1,0-1.7-0.8-1.7-1.7s0.8-1.7,1.7-1.7s1.7,0.8,1.7,1.7S52.7,64.9,51.7,64.9z M65,68.3  c0,1-0.8,1.7-1.7,1.7s-1.7-0.8-1.7-1.7s0.8-1.7,1.7-1.7S65,67.3,65,68.3z M63.8,60.4c0,2.3-1.9,4.1-4.1,4.1s-4.1-1.8-4.1-4.1  s1.9-4.1,4.1-4.1S63.8,58.1,63.8,60.4z"/><path d="M62.9,38c1.8,0,3.3-1.5,3.3-3.3s-1.5-3.3-3.3-3.3c-1.8,0-3.3,1.5-3.3,3.3S61.1,38,62.9,38z M62.9,33.4  c0.7,0,1.3,0.6,1.3,1.3c0,0.7-0.6,1.3-1.3,1.3s-1.3-0.6-1.3-1.3C61.6,34,62.2,33.4,62.9,33.4z"/><path d="M50.6,46.5c0-0.9-0.2-1.7-0.6-2.4c0.3,0.1,0.6,0.1,0.8,0.1c2.4,0,4.3-1.9,4.3-4.3c0-2.4-1.9-4.3-4.3-4.3  c-1.4,0-2.6,0.6-3.3,1.6c-0.2-3.5-3.1-6.2-6.6-6.2c-3.6,0-6.5,2.9-6.6,6.4c-0.7-0.4-1.5-0.7-2.3-0.7c-2.4,0-4.3,1.9-4.3,4.3  c0,2.4,1.9,4.3,4.3,4.3c2,0,3.7-1.4,4.1-3.2c1.1,1.2,2.6,1.9,4.3,2c-0.3,0.7-0.6,1.5-0.6,2.3c0,1.5,0.6,2.9,1.6,3.8  c-1.4,0.7-2.4,2.1-2.4,3.8c0,2.4,1.9,4.3,4.3,4.3s4.3-1.9,4.3-4.3c0-1-0.3-1.9-0.9-2.6C49,50.8,50.6,48.9,50.6,46.5z M45.2,49.8  c-1.8,0-3.3-1.5-3.3-3.3c0-1.3,0.7-2.4,1.8-2.9c0.1-0.1,0.2-0.1,0.3-0.2c0.4-0.1,0.8-0.2,1.2-0.2c1.8,0,3.3,1.5,3.3,3.3  S47.1,49.8,45.2,49.8z M46.4,41.3c0.1-0.1,0.2-0.3,0.3-0.4c0,0.2,0.1,0.4,0.2,0.6C46.7,41.4,46.5,41.3,46.4,41.3z M50.8,37.6  c1.3,0,2.3,1,2.3,2.3c0,1.3-1,2.3-2.3,2.3s-2.3-1-2.3-2.3C48.5,38.6,49.5,37.6,50.8,37.6z M32,43.3c-1.3,0-2.3-1-2.3-2.3  c0-1.3,1-2.3,2.3-2.3s2.3,1,2.3,2.3C34.3,42.3,33.3,43.3,32,43.3z M36.3,37.6c0-2.5,2.1-4.6,4.6-4.6s4.6,2.1,4.6,4.6  s-2.1,4.6-4.6,4.6S36.3,40.1,36.3,37.6z M43.5,56.4c-1.3,0-2.3-1-2.3-2.3c0-1.3,1-2.3,2.3-2.3s2.3,1,2.3,2.3  C45.8,55.4,44.8,56.4,43.5,56.4z"/></svg>