<svg xmlns="http://www.w3.org/2000/svg" xmlns:xlink="http://www.w3.org/1999/xlink" version="1.1" x="0px" y="0px" viewBox="0 0 100 125" style="enable-background:new 0 0 100 100;" xml:space="preserve"><path d="M78.084,32.066c-3.002,0.145-5.769,1.451-7.788,3.677L56.663,50.764c-2.021,2.226-3.053,5.104-2.907,8.106  s1.451,5.769,3.677,7.788c2.087,1.896,4.749,2.921,7.549,2.921c0.186,0,0.371-0.005,0.558-0.014  c3.002-0.146,5.769-1.451,7.788-3.677L86.96,50.867c2.021-2.226,3.053-5.104,2.907-8.106c-0.145-3.002-1.451-5.768-3.677-7.787  C83.966,32.953,81.082,31.906,78.084,32.066z M71.847,64.545c-1.661,1.83-3.936,2.903-6.404,3.022  c-2.478,0.118-4.836-0.729-6.666-2.39c-1.83-1.661-2.903-3.936-3.022-6.404c-0.12-2.469,0.729-4.836,2.39-6.666l6.145-6.77  l13.703,12.437L71.847,64.545z M85.479,49.523l-6.145,6.771L65.632,43.857l6.145-6.77c1.661-1.83,3.936-2.903,6.404-3.023  c0.153-0.007,0.306-0.011,0.458-0.011c2.302,0,4.491,0.844,6.208,2.401c1.83,1.661,2.903,3.935,3.023,6.403  C87.989,45.326,87.141,47.693,85.479,49.523z"/><path d="M48.812,12.639c-2.3-1.935-5.212-2.855-8.211-2.599l-20.209,1.748c-2.995,0.259-5.709,1.668-7.644,3.969  s-2.857,5.217-2.598,8.211c0.259,2.995,1.668,5.709,3.969,7.644c2.046,1.721,4.58,2.641,7.224,2.641  c0.327,0,0.657-0.015,0.987-0.043l20.209-1.748c2.995-0.259,5.709-1.668,7.644-3.969c1.935-2.3,2.857-5.216,2.598-8.21  C52.521,17.287,51.112,14.573,48.812,12.639z M22.158,32.217c-2.47,0.214-4.86-0.546-6.752-2.137  c-1.892-1.59-3.051-3.822-3.264-6.284c-0.213-2.463,0.546-4.86,2.136-6.752c1.591-1.892,3.823-3.051,6.285-3.264l9.108-0.788  l1.595,18.437L22.158,32.217z M48.652,27.205c-1.591,1.892-3.823,3.051-6.285,3.264l-9.108,0.788L31.664,12.82l9.108-0.788  c0.271-0.023,0.543-0.035,0.812-0.035c2.173,0,4.257,0.757,5.939,2.172c1.892,1.591,3.051,3.823,3.264,6.285  S50.242,25.313,48.652,27.205z"/><path d="M30.764,55.691c-1.741-2.45-4.332-4.076-7.296-4.577c-2.964-0.503-5.945,0.181-8.395,1.922  c-2.45,1.741-4.076,4.332-4.577,7.296c-0.502,2.964,0.181,5.945,1.922,8.395l11.75,16.536c1.741,2.45,4.332,4.075,7.295,4.577  c0.635,0.106,1.271,0.16,1.901,0.16c2.314,0,4.568-0.715,6.494-2.083c5.058-3.594,6.248-10.632,2.655-15.69L30.764,55.691z   M12.468,60.665c0.412-2.437,1.749-4.567,3.764-5.998c1.583-1.126,3.436-1.713,5.34-1.713c0.519,0,1.041,0.044,1.562,0.132  c2.438,0.412,4.567,1.749,5.999,3.764l5.296,7.453L19.344,75.021l-5.295-7.452C12.617,65.554,12.056,63.103,12.468,60.665z   M38.7,86.286c-2.015,1.433-4.465,1.997-6.903,1.581c-2.437-0.412-4.567-1.748-5.998-3.763l-5.296-7.453l15.085-10.718l5.295,7.452  C43.838,77.544,42.858,83.332,38.7,86.286z"/><path d="M74.396,70.132c-5.394,1.347-8.687,6.831-7.341,12.226h0.001c1.143,4.577,5.266,7.642,9.784,7.642  c0.807,0,1.625-0.098,2.441-0.302c5.394-1.347,8.687-6.831,7.34-12.226C85.275,72.078,79.786,68.786,74.396,70.132z M74.881,72.072  c3.997-1.001,8.047,1.183,9.492,4.931l-15.552,3.883C68.336,76.899,70.886,73.07,74.881,72.072z M78.798,87.757  c-3.997,1.001-8.047-1.183-9.493-4.93l15.552-3.883C85.343,82.93,82.793,86.759,78.798,87.757z"/><path d="M48.15,38.095c-2.224-1.519-4.91-2.08-7.553-1.582c-2.647,0.499-4.941,1.998-6.461,4.223  c-3.135,4.591-1.951,10.877,2.641,14.014c1.694,1.157,3.655,1.759,5.664,1.759c0.628,0,1.26-0.059,1.89-0.178  c2.646-0.498,4.94-1.998,6.46-4.222C53.926,47.517,52.742,41.23,48.15,38.095z M43.96,54.365c-2.121,0.397-4.272-0.05-6.055-1.269  c-3.401-2.322-4.463-6.799-2.624-10.369l13.236,9.04C47.334,53.114,45.75,54.027,43.96,54.365z M49.647,50.116L36.41,41.075  c1.184-1.346,2.768-2.26,4.558-2.597c0.504-0.096,1.011-0.143,1.513-0.143c1.611,0,3.184,0.482,4.542,1.411  c1.783,1.217,2.985,3.057,3.385,5.178C50.745,46.715,50.47,48.523,49.647,50.116z"/><path d="M74.146,11.42c-2.224-1.519-4.91-2.078-7.553-1.582c-2.647,0.499-4.941,1.998-6.461,4.223  c-1.519,2.224-2.08,4.906-1.582,7.553c0.499,2.647,1.998,4.941,4.223,6.461c1.694,1.157,3.656,1.759,5.665,1.759  c0.627,0,1.259-0.059,1.888-0.177c2.647-0.499,4.941-1.998,6.461-4.223c1.519-2.224,2.08-4.906,1.582-7.553  C77.87,15.233,76.371,12.939,74.146,11.42z M66.964,11.804c0.504-0.096,1.011-0.143,1.513-0.143c1.611,0,3.184,0.482,4.542,1.411  c1.783,1.217,2.985,3.057,3.385,5.179c0.338,1.79,0.063,3.598-0.761,5.19L62.406,14.4C63.59,13.054,65.174,12.141,66.964,11.804z   M69.956,27.69c-2.12,0.404-4.272-0.05-6.055-1.269c-1.783-1.217-2.985-3.057-3.385-5.179c-0.338-1.79-0.063-3.598,0.761-5.19  l13.237,9.041C73.33,26.44,71.746,27.354,69.956,27.69z"/><path d="M69.106,56.453h-2.318v-2.319c0-0.553-0.447-1-1-1s-1,0.447-1,1v2.319h-2.319c-0.553,0-1,0.447-1,1s0.447,1,1,1h2.319v2.318  c0,0.553,0.447,1,1,1s1-0.447,1-1v-2.318h2.318c0.553,0,1-0.447,1-1S69.659,56.453,69.106,56.453z"/><path d="M20.377,62.907v2.319c0,0.553,0.447,1,1,1s1-0.447,1-1v-2.319h2.318c0.553,0,1-0.447,1-1s-0.447-1-1-1h-2.318v-2.318  c0-0.553-0.447-1-1-1s-1,0.447-1,1v2.318h-2.319c-0.553,0-1,0.447-1,1s0.447,1,1,1H20.377z"/><path d="M24.695,22.466h-2.318v-2.318c0-0.553-0.447-1-1-1s-1,0.447-1,1v2.318h-2.319c-0.553,0-1,0.447-1,1s0.447,1,1,1h2.319v2.318  c0,0.553,0.447,1,1,1s1-0.447,1-1v-2.318h2.318c0.553,0,1-0.447,1-1S25.248,22.466,24.695,22.466z"/></svg>